ISO-10303-21;
HEADER;
FILE_DESCRIPTION (( 'STEP AP214' ),
    '1' );
FILE_NAME ('2101-0006-0050.STEP',
    '2026-08-01T05:32:05',
    ( '' ),
    ( '' ),
    'SwSTEP 2.0',
    'SolidWorks 2025',
    '' );
FILE_SCHEMA (( 'AUTOMOTIVE_DESIGN' ));
ENDSEC;

DATA;
#1 = VERTEX_POINT ( 'NONE', #205 ) ;
#2 =( NAMED_UNIT ( * ) SI_UNIT ( $, .STERADIAN. ) SOLID_ANGLE_UNIT ( ) );
#3 = EDGE_LOOP ( 'NONE', ( #52, #42, #27, #104 ) ) ;
#4 = CIRCLE ( 'NONE', #10, 3.000000000000000000 ) ;
#5 = ORIENTED_EDGE ( 'NONE', *, *, #21, .F. ) ;
#6 = VERTEX_POINT ( 'NONE', #219 ) ;
#7 = EDGE_CURVE ( 'NONE', #33, #158, #149, .T. ) ;
#8 = B_SPLINE_CURVE_WITH_KNOTS ( 'NONE', 3,
 ( #227, #64, #209, #225 ),
 .UNSPECIFIED., .F., .F.,
 ( 4, 4 ),
 ( 2.168404344971009831E-19, 0.0002693472657010959666 ),
 .UNSPECIFIED. ) ;
#9 = CARTESIAN_POINT ( 'NONE',  ( 1.658312395177700127, 49.87500000000000000, -2.500000000000000000 ) ) ;
#10 = AXIS2_PLACEMENT_3D ( 'NONE', #101, #224, #115 ) ;
#11 = CARTESIAN_POINT ( 'NONE',  ( 1.658312395177700127, 49.87500000000000000, -2.500000000000000000 ) ) ;
#12 = FACE_OUTER_BOUND ( 'NONE', #122, .T. ) ;
#13 = CYLINDRICAL_SURFACE ( 'NONE', #32, 3.000000000000000000 ) ;
#14 = AXIS2_PLACEMENT_3D ( 'NONE', #218, #57, #129 ) ;
#15 = DIRECTION ( 'NONE',  ( 0.000000000000000000, 1.000000000000000000, 0.000000000000000000 ) ) ;
#16 = AXIS2_PLACEMENT_3D ( 'NONE', #110, #56, #108 ) ;
#17 = SURFACE_STYLE_USAGE ( .BOTH. , #20 ) ;
#18 = B_SPLINE_CURVE_WITH_KNOTS ( 'NONE', 3,
 ( #189, #228, #207, #9 ),
 .UNSPECIFIED., .F., .F.,
 ( 4, 4 ),
 ( 0.000000000000000000, 0.0002693472657010965087 ),
 .UNSPECIFIED. ) ;
#19 = CARTESIAN_POINT ( 'NONE',  ( 1.419727086450090159, 0.000000000000000000, -2.500000000000000000 ) ) ;
#20 = SURFACE_SIDE_STYLE ('',( #91 ) ) ;
#21 = EDGE_CURVE ( 'NONE', #33, #6, #109, .T. ) ;
#22 = DIRECTION ( 'NONE',  ( 1.000000000000000000, 0.000000000000000000, 0.000000000000000000 ) ) ;
#23 = B_SPLINE_CURVE_WITH_KNOTS ( 'NONE', 3,
 ( #78, #152, #134, #206 ),
 .UNSPECIFIED., .F., .F.,
 ( 4, 4 ),
 ( 0.000000000000000000, 0.0002693472657010794868 ),
 .UNSPECIFIED. ) ;
#24 = PRODUCT_DEFINITION_SHAPE ( 'NONE', 'NONE',  #214 ) ;
#25 = ORIENTED_EDGE ( 'NONE', *, *, #212, .T. ) ;
#26 = EDGE_CURVE ( 'NONE', #40, #174, #184, .T. ) ;
#27 = ORIENTED_EDGE ( 'NONE', *, *, #186, .F. ) ;
#28 = CARTESIAN_POINT ( 'NONE',  ( 0.000000000000000000, 50.00000000000000000, 0.000000000000000000 ) ) ;
#29 = DIRECTION ( 'NONE',  ( -0.000000000000000000, 1.000000000000000000, 0.000000000000000000 ) ) ;
#30 = DIRECTION ( 'NONE',  ( 0.000000000000000000, 0.000000000000000000, 1.000000000000000000 ) ) ;
#31 = DIRECTION ( 'NONE',  ( 0.000000000000000000, -1.000000000000000000, 0.000000000000000000 ) ) ;
#32 = AXIS2_PLACEMENT_3D ( 'NONE', #28, #62, #154 ) ;
#33 = VERTEX_POINT ( 'NONE', #11 ) ;
#34 = CARTESIAN_POINT ( 'NONE',  ( 0.000000000000000000, 0.1249999999999931999, 3.000000000000000000 ) ) ;
#35 = CONICAL_SURFACE ( 'NONE', #43, 3.000000000000000000, 0.7853981633974377319 ) ;
#36 = STYLED_ITEM ( 'NONE', ( #89 ), #229 ) ;
#37 = ORIENTED_EDGE ( 'NONE', *, *, #113, .T. ) ;
#38 = CARTESIAN_POINT ( 'NONE',  ( 0.000000000000000000, 0.1249999999999931999, 3.000000000000000000 ) ) ;
#39 = DIRECTION ( 'NONE',  ( 0.000000000000000000, -1.000000000000000000, 0.000000000000000000 ) ) ;
#40 = VERTEX_POINT ( 'NONE', #80 ) ;
#41 = EDGE_CURVE ( 'NONE', #166, #158, #77, .T. ) ;
#42 = ORIENTED_EDGE ( 'NONE', *, *, #212, .F. ) ;
#43 = AXIS2_PLACEMENT_3D ( 'NONE', #98, #138, #169 ) ;
#44 = EDGE_LOOP ( 'NONE', ( #58, #165, #94, #221, #75 ) ) ;
#45 = CARTESIAN_POINT ( 'NONE',  ( 0.000000000000000000, 0.000000000000000000, 2.875000000000000000 ) ) ;
#46 = CARTESIAN_POINT ( 'NONE',  ( 0.000000000000000000, 0.1249999999999931999, 0.000000000000000000 ) ) ;
#47 = CARTESIAN_POINT ( 'NONE',  ( 0.000000000000000000, 0.000000000000000000, 0.000000000000000000 ) ) ;
#48 = DIRECTION ( 'NONE',  ( 0.000000000000000000, 1.000000000000000000, 0.000000000000000000 ) ) ;
#49 = DIRECTION ( 'NONE',  ( 0.000000000000000000, -1.000000000000000000, 0.000000000000000000 ) ) ;
#50 = ORIENTED_EDGE ( 'NONE', *, *, #105, .F. ) ;
#51 = APPLICATION_CONTEXT ( 'automotive_design' ) ;
#52 = ORIENTED_EDGE ( 'NONE', *, *, #230, .F. ) ;
#53 = ORIENTED_EDGE ( 'NONE', *, *, #196, .T. ) ;
#54 = CARTESIAN_POINT ( 'NONE',  ( 1.500229000342409913, 0.03975330353527474492, -2.500000000000000000 ) ) ;
#55 = CLOSED_SHELL ( 'NONE', ( #157, #147, #70, #99, #87, #128, #83 ) ) ;
#56 = DIRECTION ( 'NONE',  ( 0.000000000000000000, -1.000000000000000000, 0.000000000000000000 ) ) ;
#57 = DIRECTION ( 'NONE',  ( 0.000000000000000000, 0.000000000000000000, 1.000000000000000000 ) ) ;
#58 = ORIENTED_EDGE ( 'NONE', *, *, #140, .T. ) ;
#59 = CARTESIAN_POINT ( 'NONE',  ( 1.419727086450072173, 50.00000000000000000, -2.500000000000000000 ) ) ;
#60 = EDGE_CURVE ( 'NONE', #179, #40, #173, .T. ) ;
#61 = PLANE ( 'NONE',  #88 ) ;
#62 = DIRECTION ( 'NONE',  ( 0.000000000000000000, -1.000000000000000000, 0.000000000000000000 ) ) ;
#63 = CONICAL_SURFACE ( 'NONE', #192, 2.875000000000000000, 0.7853981633974399523 ) ;
#64 = CARTESIAN_POINT ( 'NONE',  ( -1.579735721934760084, 49.91843489040349624, -2.500000000000000000 ) ) ;
#65 = PRODUCT_RELATED_PRODUCT_CATEGORY ( 'part', '', ( #163 ) ) ;
#66 = DIRECTION ( 'NONE',  ( 0.000000000000000000, -1.000000000000000000, 0.000000000000000000 ) ) ;
#67 = AXIS2_PLACEMENT_3D ( 'NONE', #201, #39, #92 ) ;
#68 = CARTESIAN_POINT ( 'NONE',  ( 0.000000000000000000, 50.00000000000000000, -2.500000000000000000 ) ) ;
#69 = AXIS2_PLACEMENT_3D ( 'NONE', #155, #29, #119 ) ;
#70 = ADVANCED_FACE ( 'NONE', ( #12 ), #81, .F. ) ;
#71 = ORIENTED_EDGE ( 'NONE', *, *, #60, .T. ) ;
#72 = ORIENTED_EDGE ( 'NONE', *, *, #26, .F. ) ;
#73 = CONICAL_SURFACE ( 'NONE', #102, 3.000000000000000000, 0.7853981633974377319 ) ;
#74 = CARTESIAN_POINT ( 'NONE',  ( 0.000000000000000000, 0.000000000000000000, -2.500000000000000000 ) ) ;
#75 = ORIENTED_EDGE ( 'NONE', *, *, #21, .T. ) ;
#76 = UNCERTAINTY_MEASURE_WITH_UNIT (LENGTH_MEASURE( 1.000000000000000082E-05 ), #86, 'distance_accuracy_value', 'NONE');
#77 = CIRCLE ( 'NONE', #164, 3.000000000000000000 ) ;
#78 = CARTESIAN_POINT ( 'NONE',  ( -1.419727086450090159, 0.000000000000000000, -2.500000000000000000 ) ) ;
#79 = EDGE_CURVE ( 'NONE', #1, #166, #4, .T. ) ;
#80 = CARTESIAN_POINT ( 'NONE',  ( -1.419727086450090159, 0.000000000000000000, -2.500000000000000000 ) ) ;
#81 = PLANE ( 'NONE',  #139 ) ;
#82 = LINE ( 'NONE', #137, #217 ) ;
#83 = ADVANCED_FACE ( 'NONE', ( #97 ), #73, .T. ) ;
#84 = DIRECTION ( 'NONE',  ( 0.000000000000000000, 0.000000000000000000, -1.000000000000000000 ) ) ;
#85 = APPLICATION_PROTOCOL_DEFINITION ( 'draft international standard', 'automotive_design', 1998, #51 ) ;
#86 =( LENGTH_UNIT ( ) NAMED_UNIT ( * ) SI_UNIT ( .MILLI., .METRE. ) );
#87 = ADVANCED_FACE ( 'NONE', ( #188 ), #61, .T. ) ;
#88 = AXIS2_PLACEMENT_3D ( 'NONE', #100, #84, #185 ) ;
#89 = PRESENTATION_STYLE_ASSIGNMENT (( #17 ) ) ;
#90 = ORIENTED_EDGE ( 'NONE', *, *, #186, .T. ) ;
#91 = SURFACE_STYLE_FILL_AREA ( #180 ) ;
#92 = DIRECTION ( 'NONE',  ( 0.000000000000000000, 0.000000000000000000, 1.000000000000000000 ) ) ;
#93 =( GEOMETRIC_REPRESENTATION_CONTEXT ( 3 ) GLOBAL_UNCERTAINTY_ASSIGNED_CONTEXT ( ( #76 ) ) GLOBAL_UNIT_ASSIGNED_CONTEXT ( ( #86, #159, #125 ) ) REPRESENTATION_CONTEXT ( 'NONE', 'WORKASPACE' ) );
#94 = ORIENTED_EDGE ( 'NONE', *, *, #41, .T. ) ;
#95 = VERTEX_POINT ( 'NONE', #59 ) ;
#96 = MECHANICAL_DESIGN_GEOMETRIC_PRESENTATION_REPRESENTATION (  '', ( #36 ), #93 ) ;
#97 = FACE_OUTER_BOUND ( 'NONE', #112, .T. ) ;
#98 = CARTESIAN_POINT ( 'NONE',  ( 0.000000000000000000, 0.1249999999999931999, 0.000000000000000000 ) ) ;
#99 = ADVANCED_FACE ( 'NONE', ( #156 ), #135, .T. ) ;
#100 = CARTESIAN_POINT ( 'NONE',  ( 0.000000000000000000, 50.00000000000000000, -2.500000000000000000 ) ) ;
#101 = CARTESIAN_POINT ( 'NONE',  ( 0.000000000000000000, 0.1249999999999931999, 0.000000000000000000 ) ) ;
#102 = AXIS2_PLACEMENT_3D ( 'NONE', #171, #15, #30 ) ;
#103 = ADVANCED_BREP_SHAPE_REPRESENTATION ( '2101-0006-0050', ( #229, #14 ), #226 ) ;
#104 = ORIENTED_EDGE ( 'NONE', *, *, #41, .F. ) ;
#105 = EDGE_CURVE ( 'NONE', #6, #204, #8, .T. ) ;
#106 = VECTOR ( 'NONE', #216, 1000.000000000000000 ) ;
#107 = CARTESIAN_POINT ( 'NONE',  ( 1.579735721934760084, 0.08156510959646180725, -2.500000000000000000 ) ) ;
#108 = DIRECTION ( 'NONE',  ( 0.000000000000000000, 0.000000000000000000, 1.000000000000000000 ) ) ;
#109 = CIRCLE ( 'NONE', #67, 3.000000000000000000 ) ;
#110 = CARTESIAN_POINT ( 'NONE',  ( 0.000000000000000000, 0.000000000000000000, 0.000000000000000000 ) ) ;
#111 = LINE ( 'NONE', #68, #160 ) ;
#112 = EDGE_LOOP ( 'NONE', ( #162, #193, #181, #123 ) ) ;
#113 = EDGE_CURVE ( 'NONE', #95, #33, #18, .T. ) ;
#114 = CARTESIAN_POINT ( 'NONE',  ( 1.658312395177700127, 50.00000000000000000, -2.500000000000000000 ) ) ;
#115 = DIRECTION ( 'NONE',  ( 0.000000000000000000, 0.000000000000000000, 1.000000000000000000 ) ) ;
#116 = VECTOR ( 'NONE', #168, 1000.000000000000000 ) ;
#117 = FACE_OUTER_BOUND ( 'NONE', #3, .T. ) ;
#118 = DIRECTION ( 'NONE',  ( -0.000000000000000000, 1.000000000000000000, 0.000000000000000000 ) ) ;
#119 = DIRECTION ( 'NONE',  ( 1.000000000000000000, 0.000000000000000000, 0.000000000000000000 ) ) ;
#120 = DIRECTION ( 'NONE',  ( 0.000000000000000000, 0.000000000000000000, -1.000000000000000000 ) ) ;
#121 = AXIS2_PLACEMENT_3D ( 'NONE', #47, #31, #153 ) ;
#122 = EDGE_LOOP ( 'NONE', ( #131, #25, #71 ) ) ;
#123 = ORIENTED_EDGE ( 'NONE', *, *, #172, .F. ) ;
#124 = CARTESIAN_POINT ( 'NONE',  ( 0.000000000000000000, 50.00000000000000000, 0.000000000000000000 ) ) ;
#125 =( NAMED_UNIT ( * ) SI_UNIT ( $, .STERADIAN. ) SOLID_ANGLE_UNIT ( ) );
#126 = ORIENTED_EDGE ( 'NONE', *, *, #7, .T. ) ;
#127 = ORIENTED_EDGE ( 'NONE', *, *, #196, .F. ) ;
#128 = ADVANCED_FACE ( 'NONE', ( #170 ), #13, .T. ) ;
#129 = DIRECTION ( 'NONE',  ( 1.000000000000000000, 0.000000000000000000, 0.000000000000000000 ) ) ;
#130 = ORIENTED_EDGE ( 'NONE', *, *, #113, .F. ) ;
#131 = ORIENTED_EDGE ( 'NONE', *, *, #26, .T. ) ;
#132 = VECTOR ( 'NONE', #202, 1000.000000000000000 ) ;
#133 = ORIENTED_EDGE ( 'NONE', *, *, #222, .T. ) ;
#134 = CARTESIAN_POINT ( 'NONE',  ( -1.579735721934770076, 0.08156510959644951153, -2.500000000000000000 ) ) ;
#135 = PLANE ( 'NONE',  #69 ) ;
#136 = FACE_OUTER_BOUND ( 'NONE', #150, .T. ) ;
#137 = CARTESIAN_POINT ( 'NONE',  ( -1.658312395177700127, 50.00000000000000000, -2.500000000000000000 ) ) ;
#138 = DIRECTION ( 'NONE',  ( 0.000000000000000000, 1.000000000000000000, 0.000000000000000000 ) ) ;
#139 = AXIS2_PLACEMENT_3D ( 'NONE', #208, #118, #187 ) ;
#140 = EDGE_CURVE ( 'NONE', #6, #1, #82, .T. ) ;
#141 = PRODUCT_CONTEXT ( 'NONE', #51, 'mechanical' ) ;
#142 = SHAPE_DEFINITION_REPRESENTATION ( #24, #103 ) ;
#143 = APPLICATION_CONTEXT ( 'automotive_design' ) ;
#144 =( NAMED_UNIT ( * ) PLANE_ANGLE_UNIT ( ) SI_UNIT ( $, .RADIAN. ) );
#145 = ORIENTED_EDGE ( 'NONE', *, *, #172, .T. ) ;
#146 =( LENGTH_UNIT ( ) NAMED_UNIT ( * ) SI_UNIT ( .MILLI., .METRE. ) );
#147 = ADVANCED_FACE ( 'NONE', ( #117 ), #35, .T. ) ;
#148 = ORIENTED_EDGE ( 'NONE', *, *, #222, .F. ) ;
#149 = LINE ( 'NONE', #114, #106 ) ;
#150 = EDGE_LOOP ( 'NONE', ( #50, #5, #130, #148 ) ) ;
#151 = CIRCLE ( 'NONE', #16, 2.875000000000000000 ) ;
#152 = CARTESIAN_POINT ( 'NONE',  ( -1.500229000342395036, 0.03975330353529894778, -2.500000000000000000 ) ) ;
#153 = DIRECTION ( 'NONE',  ( 0.000000000000000000, 0.000000000000000000, 1.000000000000000000 ) ) ;
#154 = DIRECTION ( 'NONE',  ( 0.000000000000000000, 0.000000000000000000, -1.000000000000000000 ) ) ;
#155 = CARTESIAN_POINT ( 'NONE',  ( 0.000000000000000000, 50.00000000000000000, 0.000000000000000000 ) ) ;
#156 = FACE_OUTER_BOUND ( 'NONE', #220, .T. ) ;
#157 = ADVANCED_FACE ( 'NONE', ( #136 ), #63, .T. ) ;
#158 = VERTEX_POINT ( 'NONE', #191 ) ;
#159 =( NAMED_UNIT ( * ) PLANE_ANGLE_UNIT ( ) SI_UNIT ( $, .RADIAN. ) );
#160 = VECTOR ( 'NONE', #22, 1000.000000000000000 ) ;
#161 = LINE ( 'NONE', #38, #132 ) ;
#162 = ORIENTED_EDGE ( 'NONE', *, *, #60, .F. ) ;
#163 = PRODUCT ( '2101-0006-0050', '2101-0006-0050', '', ( #141 ) ) ;
#164 = AXIS2_PLACEMENT_3D ( 'NONE', #46, #48, #223 ) ;
#165 = ORIENTED_EDGE ( 'NONE', *, *, #79, .T. ) ;
#166 = VERTEX_POINT ( 'NONE', #34 ) ;
#167 = CARTESIAN_POINT ( 'NONE',  ( 1.419727086450090159, 0.000000000000000000, -2.500000000000000000 ) ) ;
#168 = DIRECTION ( 'NONE',  ( 1.000000000000000000, 0.000000000000000000, 0.000000000000000000 ) ) ;
#169 = DIRECTION ( 'NONE',  ( 0.000000000000000000, 0.000000000000000000, 1.000000000000000000 ) ) ;
#170 = FACE_OUTER_BOUND ( 'NONE', #44, .T. ) ;
#171 = CARTESIAN_POINT ( 'NONE',  ( 0.000000000000000000, 0.1249999999999931999, 0.000000000000000000 ) ) ;
#172 = EDGE_CURVE ( 'NONE', #40, #1, #23, .T. ) ;
#173 = CIRCLE ( 'NONE', #121, 2.875000000000000000 ) ;
#174 = VERTEX_POINT ( 'NONE', #167 ) ;
#175 = DIRECTION ( 'NONE',  ( 0.000000000000000000, 1.000000000000000000, 0.000000000000000000 ) ) ;
#176 = UNCERTAINTY_MEASURE_WITH_UNIT (LENGTH_MEASURE( 1.000000000000000082E-05 ), #146, 'distance_accuracy_value', 'NONE');
#177 = FILL_AREA_STYLE_COLOUR ( '', #199 ) ;
#178 = PRODUCT_DEFINITION_FORMATION_WITH_SPECIFIED_SOURCE ( 'ANY', '', #163, .NOT_KNOWN. ) ;
#179 = VERTEX_POINT ( 'NONE', #45 ) ;
#180 = FILL_AREA_STYLE ('',( #177 ) ) ;
#181 = ORIENTED_EDGE ( 'NONE', *, *, #79, .F. ) ;
#182 = CIRCLE ( 'NONE', #213, 2.875000000000000000 ) ;
#183 = ORIENTED_EDGE ( 'NONE', *, *, #140, .F. ) ;
#184 = LINE ( 'NONE', #74, #116 ) ;
#185 = DIRECTION ( 'NONE',  ( 0.000000000000000000, -1.000000000000000000, 0.000000000000000000 ) ) ;
#186 = EDGE_CURVE ( 'NONE', #158, #174, #197, .T. ) ;
#187 = DIRECTION ( 'NONE',  ( 1.000000000000000000, 0.000000000000000000, 0.000000000000000000 ) ) ;
#188 = FACE_OUTER_BOUND ( 'NONE', #215, .T. ) ;
#189 = CARTESIAN_POINT ( 'NONE',  ( 1.419727086450072173, 50.00000000000000000, -2.500000000000000000 ) ) ;
#190 = PRODUCT_DEFINITION_CONTEXT ( 'detailed design', #143, 'design' ) ;
#191 = CARTESIAN_POINT ( 'NONE',  ( 1.658312395177700127, 0.1249999999999931999, -2.500000000000000000 ) ) ;
#192 = AXIS2_PLACEMENT_3D ( 'NONE', #210, #49, #120 ) ;
#193 = ORIENTED_EDGE ( 'NONE', *, *, #230, .T. ) ;
#194 = APPLICATION_PROTOCOL_DEFINITION ( 'draft international standard', 'automotive_design', 1998, #143 ) ;
#195 = DIRECTION ( 'NONE',  ( 0.000000000000000000, 0.000000000000000000, 1.000000000000000000 ) ) ;
#196 = EDGE_CURVE ( 'NONE', #204, #95, #111, .T. ) ;
#197 = B_SPLINE_CURVE_WITH_KNOTS ( 'NONE', 3,
 ( #200, #107, #54, #19 ),
 .UNSPECIFIED., .F., .F.,
 ( 4, 4 ),
 ( 2.315856855599390167E-19, 0.0002693472657010799747 ),
 .UNSPECIFIED. ) ;
#198 = CARTESIAN_POINT ( 'NONE',  ( -1.419727086450072173, 50.00000000000000000, -2.500000000000000000 ) ) ;
#199 = COLOUR_RGB ( '',0.7921568627450980005, 0.8196078431372548767, 0.9333333333333333481 ) ;
#200 = CARTESIAN_POINT ( 'NONE',  ( 1.658312395177700127, 0.1249999999999931999, -2.500000000000000000 ) ) ;
#201 = CARTESIAN_POINT ( 'NONE',  ( 0.000000000000000000, 49.87500000000000000, 0.000000000000000000 ) ) ;
#202 = DIRECTION ( 'NONE',  ( 0.000000000000000000, 0.7071067811865550112, 0.7071067811865400232 ) ) ;
#203 = ORIENTED_EDGE ( 'NONE', *, *, #105, .T. ) ;
#204 = VERTEX_POINT ( 'NONE', #198 ) ;
#205 = CARTESIAN_POINT ( 'NONE',  ( -1.658312395177700127, 0.1249999999999931999, -2.500000000000000000 ) ) ;
#206 = CARTESIAN_POINT ( 'NONE',  ( -1.658312395177700127, 0.1249999999999931999, -2.500000000000000000 ) ) ;
#207 = CARTESIAN_POINT ( 'NONE',  ( 1.579735721934765191, 49.91843489040360282, -2.500000000000000000 ) ) ;
#208 = CARTESIAN_POINT ( 'NONE',  ( 0.000000000000000000, 0.000000000000000000, 0.000000000000000000 ) ) ;
#209 = CARTESIAN_POINT ( 'NONE',  ( -1.500229000342399921, 49.96024669646470073, -2.500000000000000000 ) ) ;
#210 = CARTESIAN_POINT ( 'NONE',  ( 0.000000000000000000, 50.00000000000000000, 0.000000000000000000 ) ) ;
#211 = PRESENTATION_LAYER_ASSIGNMENT (  '', '', ( #36 ) ) ;
#212 = EDGE_CURVE ( 'NONE', #174, #179, #151, .T. ) ;
#213 = AXIS2_PLACEMENT_3D ( 'NONE', #124, #175, #195 ) ;
#214 = PRODUCT_DEFINITION ( 'UNKNOWN', '', #178, #190 ) ;
#215 = EDGE_LOOP ( 'NONE', ( #126, #90, #72, #145, #183, #203, #53, #37 ) ) ;
#216 = DIRECTION ( 'NONE',  ( 0.000000000000000000, -1.000000000000000000, 0.000000000000000000 ) ) ;
#217 = VECTOR ( 'NONE', #66, 1000.000000000000000 ) ;
#218 = CARTESIAN_POINT ( 'NONE',  ( 0.000000000000000000, 0.000000000000000000, 0.000000000000000000 ) ) ;
#219 = CARTESIAN_POINT ( 'NONE',  ( -1.658312395177700127, 49.87500000000000000, -2.500000000000000000 ) ) ;
#220 = EDGE_LOOP ( 'NONE', ( #127, #133 ) ) ;
#221 = ORIENTED_EDGE ( 'NONE', *, *, #7, .F. ) ;
#222 = EDGE_CURVE ( 'NONE', #204, #95, #182, .T. ) ;
#223 = DIRECTION ( 'NONE',  ( 0.000000000000000000, 0.000000000000000000, 1.000000000000000000 ) ) ;
#224 = DIRECTION ( 'NONE',  ( 0.000000000000000000, 1.000000000000000000, 0.000000000000000000 ) ) ;
#225 = CARTESIAN_POINT ( 'NONE',  ( -1.419727086450072173, 50.00000000000000000, -2.500000000000000000 ) ) ;
#226 =( GEOMETRIC_REPRESENTATION_CONTEXT ( 3 ) GLOBAL_UNCERTAINTY_ASSIGNED_CONTEXT ( ( #176 ) ) GLOBAL_UNIT_ASSIGNED_CONTEXT ( ( #146, #144, #2 ) ) REPRESENTATION_CONTEXT ( 'NONE', 'WORKASPACE' ) );
#227 = CARTESIAN_POINT ( 'NONE',  ( -1.658312395177700127, 49.87500000000000000, -2.500000000000000000 ) ) ;
#228 = CARTESIAN_POINT ( 'NONE',  ( 1.500229000342385044, 49.96024669646470073, -2.500000000000000000 ) ) ;
#229 = MANIFOLD_SOLID_BREP ( 'NONE', #55 ) ;
#230 = EDGE_CURVE ( 'NONE', #179, #166, #161, .T. ) ;
ENDSEC;
END-ISO-10303-21;
