ISO-10303-21;
HEADER;
FILE_DESCRIPTION (( 'STEP AP214' ),
    '1' );
FILE_NAME ('ASV1_400_18X_1_1.STEP.STEP',
    '2026-08-01T03:19:13',
    ( '' ),
    ( '' ),
    'SwSTEP 2.0',
    'SolidWorks 2025',
    '' );
FILE_SCHEMA (( 'AUTOMOTIVE_DESIGN' ));
ENDSEC;

DATA;
#1 = EDGE_LOOP ( 'NONE', ( #260, #25, #241, #156 ) ) ;
#2 = EDGE_LOOP ( 'NONE', ( #182, #133 ) ) ;
#3 = CARTESIAN_POINT ( 'NONE',  ( -1.383519458603000185, -65.06137744862299144, 100.3079453076479979 ) ) ;
#4 = ADVANCED_FACE ( 'NONE', ( #235 ), #45, .F. ) ;
#5 = DIRECTION ( 'NONE',  ( 0.000000000000000000, 0.000000000000000000, 1.000000000000000000 ) ) ;
#6 = FACE_OUTER_BOUND ( 'NONE', #215, .T. ) ;
#7 = DIRECTION ( 'NONE',  ( 0.000000000000000000, 0.000000000000000000, 1.000000000000000000 ) ) ;
#8 = CIRCLE ( 'NONE', #83, 17.50000000000000000 ) ;
#9 = PLANE ( 'NONE',  #54 ) ;
#10 = SURFACE_STYLE_FILL_AREA ( #11 ) ;
#11 = FILL_AREA_STYLE ('',( #38 ) ) ;
#12 = EDGE_CURVE ( 'NONE', #160, #157, #73, .T. ) ;
#13 = CARTESIAN_POINT ( 'NONE',  ( -18.88351945860300063, -65.06137744862299144, 109.3079453076479979 ) ) ;
#14 = VECTOR ( 'NONE', #265, 1000.000000000000000 ) ;
#15 = CARTESIAN_POINT ( 'NONE',  ( 9.116480541396999371, -65.06137744862299144, 105.3079453076479837 ) ) ;
#16 = ADVANCED_FACE ( 'NONE', ( #69 ), #167, .F. ) ;
#17 =( LENGTH_UNIT ( ) NAMED_UNIT ( * ) SI_UNIT ( .MILLI., .METRE. ) );
#18 = ORIENTED_EDGE ( 'NONE', *, *, #238, .F. ) ;
#19 = AXIS2_PLACEMENT_3D ( 'NONE', #186, #246, #247 ) ;
#20 = ORIENTED_EDGE ( 'NONE', *, *, #127, .F. ) ;
#21 = ORIENTED_EDGE ( 'NONE', *, *, #195, .T. ) ;
#22 = EDGE_CURVE ( 'NONE', #113, #262, #30, .T. ) ;
#23 = ORIENTED_EDGE ( 'NONE', *, *, #273, .T. ) ;
#24 = CIRCLE ( 'NONE', #40, 28.00000000000000000 ) ;
#25 = ORIENTED_EDGE ( 'NONE', *, *, #224, .T. ) ;
#26 = CARTESIAN_POINT ( 'NONE',  ( -9.383519458603000629, -48.60689477671870407, 105.3079453076479837 ) ) ;
#27 = CYLINDRICAL_SURFACE ( 'NONE', #77, 28.00000000000000000 ) ;
#28 = MECHANICAL_DESIGN_GEOMETRIC_PRESENTATION_REPRESENTATION (  '', ( #63 ), #218 ) ;
#29 = PLANE ( 'NONE',  #222 ) ;
#30 = LINE ( 'NONE', #208, #14 ) ;
#31 = CARTESIAN_POINT ( 'NONE',  ( -18.88351945860300063, -65.06137744862299144, 249.0039048005415054 ) ) ;
#32 = AXIS2_PLACEMENT_3D ( 'NONE', #58, #148, #230 ) ;
#33 = PLANE ( 'NONE',  #109 ) ;
#34 = ADVANCED_FACE ( 'NONE', ( #143 ), #223, .T. ) ;
#35 = CARTESIAN_POINT ( 'NONE',  ( -18.88351945860300063, -65.06137744862299144, 109.3079453076479979 ) ) ;
#36 = CARTESIAN_POINT ( 'NONE',  ( -18.88351945860300063, -65.06137744862299144, 105.3079453076479837 ) ) ;
#37 = CIRCLE ( 'NONE', #200, 17.50000000000000000 ) ;
#38 = FILL_AREA_STYLE_COLOUR ( '', #105 ) ;
#39 = VERTEX_POINT ( 'NONE', #3 ) ;
#40 = AXIS2_PLACEMENT_3D ( 'NONE', #267, #122, #268 ) ;
#41 = ADVANCED_FACE ( 'NONE', ( #6 ), #188, .T. ) ;
#42 = EDGE_LOOP ( 'NONE', ( #62, #184, #258, #141 ) ) ;
#43 = ORIENTED_EDGE ( 'NONE', *, *, #53, .T. ) ;
#44 = AXIS2_PLACEMENT_3D ( 'NONE', #285, #59, #256 ) ;
#45 = CYLINDRICAL_SURFACE ( 'NONE', #180, 19.00000000000001066 ) ;
#46 = DIRECTION ( 'NONE',  ( 0.000000000000000000, 0.000000000000000000, -1.000000000000000000 ) ) ;
#47 = DIRECTION ( 'NONE',  ( 0.000000000000000000, 0.000000000000000000, -1.000000000000000000 ) ) ;
#48 = AXIS2_PLACEMENT_3D ( 'NONE', #168, #56, #125 ) ;
#49 = FACE_OUTER_BOUND ( 'NONE', #2, .T. ) ;
#50 = ADVANCED_FACE ( 'NONE', ( #248 ), #9, .T. ) ;
#51 = CARTESIAN_POINT ( 'NONE',  ( -1.383519458603000185, -65.06137744862299144, 50.81047062458969776 ) ) ;
#52 = DIRECTION ( 'NONE',  ( 1.000000000000000000, 0.000000000000000000, 0.000000000000000000 ) ) ;
#53 = EDGE_CURVE ( 'NONE', #177, #201, #163, .T. ) ;
#54 = AXIS2_PLACEMENT_3D ( 'NONE', #121, #264, #266 ) ;
#55 = APPLICATION_CONTEXT ( 'automotive_design' ) ;
#56 = DIRECTION ( 'NONE',  ( 0.000000000000000000, 0.000000000000000000, -1.000000000000000000 ) ) ;
#57 = FACE_OUTER_BOUND ( 'NONE', #81, .T. ) ;
#58 = CARTESIAN_POINT ( 'NONE',  ( -18.88351945860300063, -65.06137744862299144, 169.8079453076479979 ) ) ;
#59 = DIRECTION ( 'NONE',  ( 0.000000000000000000, 0.000000000000000000, 1.000000000000000000 ) ) ;
#60 = EDGE_LOOP ( 'NONE', ( #138, #18 ) ) ;
#61 = EDGE_CURVE ( 'NONE', #39, #194, #192, .T. ) ;
#62 = ORIENTED_EDGE ( 'NONE', *, *, #279, .F. ) ;
#63 = STYLED_ITEM ( 'NONE', ( #130 ), #140 ) ;
#64 = ORIENTED_EDGE ( 'NONE', *, *, #103, .T. ) ;
#65 =( NAMED_UNIT ( * ) PLANE_ANGLE_UNIT ( ) SI_UNIT ( $, .RADIAN. ) );
#66 = ORIENTED_EDGE ( 'NONE', *, *, #61, .F. ) ;
#67 = VERTEX_POINT ( 'NONE', #117 ) ;
#68 = DIRECTION ( 'NONE',  ( 0.000000000000000000, 0.000000000000000000, 1.000000000000000000 ) ) ;
#69 = FACE_OUTER_BOUND ( 'NONE', #42, .T. ) ;
#70 = EDGE_CURVE ( 'NONE', #160, #177, #189, .T. ) ;
#71 = DIRECTION ( 'NONE',  ( 0.4999999999999997224, 0.8660254037844387076, 0.000000000000000000 ) ) ;
#72 = VECTOR ( 'NONE', #135, 1000.000000000000000 ) ;
#73 = LINE ( 'NONE', #74, #147 ) ;
#74 = CARTESIAN_POINT ( 'NONE',  ( 9.116480541396999371, -65.06137744862299144, 249.0039048005415054 ) ) ;
#75 = PRODUCT ( 'ASV1_400_18X_1_1.STEP', 'ASV1_400_18X_1_1.STEP', '', ( #137 ) ) ;
#76 = CARTESIAN_POINT ( 'NONE',  ( -18.88351945860300063, -65.06137744862299144, 105.3079453076479837 ) ) ;
#77 = AXIS2_PLACEMENT_3D ( 'NONE', #207, #118, #187 ) ;
#78 = SURFACE_SIDE_STYLE ('',( #10 ) ) ;
#79 =( LENGTH_UNIT ( ) NAMED_UNIT ( * ) SI_UNIT ( .MILLI., .METRE. ) );
#80 = DIRECTION ( 'NONE',  ( 0.000000000000000000, 0.000000000000000000, -1.000000000000000000 ) ) ;
#81 = EDGE_LOOP ( 'NONE', ( #86, #64, #282, #237 ) ) ;
#82 = FACE_OUTER_BOUND ( 'NONE', #95, .T. ) ;
#83 = AXIS2_PLACEMENT_3D ( 'NONE', #35, #126, #102 ) ;
#84 = PRODUCT_DEFINITION_SHAPE ( 'NONE', 'NONE',  #284 ) ;
#85 = VECTOR ( 'NONE', #68, 1000.000000000000000 ) ;
#86 = ORIENTED_EDGE ( 'NONE', *, *, #127, .T. ) ;
#87 = APPLICATION_CONTEXT ( 'automotive_design' ) ;
#88 = APPLICATION_PROTOCOL_DEFINITION ( 'draft international standard', 'automotive_design', 1998, #87 ) ;
#89 = ORIENTED_EDGE ( 'NONE', *, *, #243, .T. ) ;
#90 = EDGE_LOOP ( 'NONE', ( #203, #158 ) ) ;
#91 = AXIS2_PLACEMENT_3D ( 'NONE', #76, #211, #250 ) ;
#92 = DIRECTION ( 'NONE',  ( 0.000000000000000000, 0.000000000000000000, 1.000000000000000000 ) ) ;
#93 = ORIENTED_EDGE ( 'NONE', *, *, #70, .T. ) ;
#94 = DIRECTION ( 'NONE',  ( 1.000000000000000000, 0.000000000000000000, 0.000000000000000000 ) ) ;
#95 = EDGE_LOOP ( 'NONE', ( #217, #278 ) ) ;
#96 = DIRECTION ( 'NONE',  ( 0.4999999999999997224, 0.8660254037844387076, 0.000000000000000000 ) ) ;
#97 = CIRCLE ( 'NONE', #169, 17.50000000000000000 ) ;
#98 = DIRECTION ( 'NONE',  ( 0.000000000000000000, 0.000000000000000000, -1.000000000000000000 ) ) ;
#99 = FACE_OUTER_BOUND ( 'NONE', #1, .T. ) ;
#100 = DIRECTION ( 'NONE',  ( 1.000000000000000000, 0.000000000000000000, 0.000000000000000000 ) ) ;
#101 = DIRECTION ( 'NONE',  ( 0.000000000000000000, 0.000000000000000000, 1.000000000000000000 ) ) ;
#102 = DIRECTION ( 'NONE',  ( 1.000000000000000000, 0.000000000000000000, 0.000000000000000000 ) ) ;
#103 = EDGE_CURVE ( 'NONE', #39, #67, #162, .T. ) ;
#104 = DIRECTION ( 'NONE',  ( 0.000000000000000000, 0.000000000000000000, -1.000000000000000000 ) ) ;
#105 = COLOUR_RGB ( '',0.7921568627450980005, 0.8196078431372548767, 0.9333333333333333481 ) ;
#106 = DIRECTION ( 'NONE',  ( 0.000000000000000000, 0.000000000000000000, 1.000000000000000000 ) ) ;
#107 = EDGE_CURVE ( 'NONE', #201, #157, #24, .T. ) ;
#108 = DIRECTION ( 'NONE',  ( 0.000000000000000000, 0.000000000000000000, -1.000000000000000000 ) ) ;
#109 = AXIS2_PLACEMENT_3D ( 'NONE', #276, #80, #229 ) ;
#110 = ADVANCED_FACE ( 'NONE', ( #161, #49 ), #29, .F. ) ;
#111 = CARTESIAN_POINT ( 'NONE',  ( -18.88351945860300063, -65.06137744862299144, 105.3079453076479837 ) ) ;
#112 = VERTEX_POINT ( 'NONE', #220 ) ;
#113 = VERTEX_POINT ( 'NONE', #26 ) ;
#114 = ORIENTED_EDGE ( 'NONE', *, *, #234, .F. ) ;
#115 = EDGE_CURVE ( 'NONE', #262, #112, #271, .T. ) ;
#116 = ORIENTED_EDGE ( 'NONE', *, *, #103, .F. ) ;
#117 = CARTESIAN_POINT ( 'NONE',  ( -1.383519458603000185, -65.06137744862299144, 109.3079453076479979 ) ) ;
#118 = DIRECTION ( 'NONE',  ( 0.000000000000000000, 0.000000000000000000, -1.000000000000000000 ) ) ;
#119 = ADVANCED_FACE ( 'NONE', ( #99 ), #27, .T. ) ;
#120 = AXIS2_PLACEMENT_3D ( 'NONE', #226, #46, #185 ) ;
#121 = CARTESIAN_POINT ( 'NONE',  ( -18.88351945860300063, -65.06137744862299144, 100.3079453076479979 ) ) ;
#122 = DIRECTION ( 'NONE',  ( 0.000000000000000000, 0.000000000000000000, -1.000000000000000000 ) ) ;
#123 = DIRECTION ( 'NONE',  ( 0.000000000000000000, 0.000000000000000000, 1.000000000000000000 ) ) ;
#124 = CLOSED_SHELL ( 'NONE', ( #4, #34, #176, #41, #50, #119, #170, #110, #16, #153 ) ) ;
#125 = DIRECTION ( 'NONE',  ( -1.000000000000000000, 0.000000000000000000, 0.000000000000000000 ) ) ;
#126 = DIRECTION ( 'NONE',  ( 0.000000000000000000, 0.000000000000000000, 1.000000000000000000 ) ) ;
#127 = EDGE_CURVE ( 'NONE', #194, #39, #97, .T. ) ;
#128 = AXIS2_PLACEMENT_3D ( 'NONE', #252, #108, #193 ) ;
#129 = DIRECTION ( 'NONE',  ( 0.000000000000000000, 0.000000000000000000, 1.000000000000000000 ) ) ;
#130 = PRESENTATION_STYLE_ASSIGNMENT (( #209 ) ) ;
#131 = APPLICATION_PROTOCOL_DEFINITION ( 'draft international standard', 'automotive_design', 1998, #55 ) ;
#132 = AXIS2_PLACEMENT_3D ( 'NONE', #31, #206, #205 ) ;
#133 = ORIENTED_EDGE ( 'NONE', *, *, #107, .T. ) ;
#134 = ORIENTED_EDGE ( 'NONE', *, *, #61, .T. ) ;
#135 = DIRECTION ( 'NONE',  ( 0.000000000000000000, 0.000000000000000000, 1.000000000000000000 ) ) ;
#136 = EDGE_LOOP ( 'NONE', ( #23, #198 ) ) ;
#137 = PRODUCT_CONTEXT ( 'NONE', #55, 'mechanical' ) ;
#138 = ORIENTED_EDGE ( 'NONE', *, *, #195, .F. ) ;
#139 = AXIS2_PLACEMENT_3D ( 'NONE', #204, #5, #190 ) ;
#140 = MANIFOLD_SOLID_BREP ( 'NONE', #124 ) ;
#141 = ORIENTED_EDGE ( 'NONE', *, *, #115, .T. ) ;
#142 = CARTESIAN_POINT ( 'NONE',  ( -18.88351945860300063, -65.06137744862299144, 109.3079453076479979 ) ) ;
#143 = FACE_OUTER_BOUND ( 'NONE', #281, .T. ) ;
#144 = CIRCLE ( 'NONE', #48, 28.00000000000000000 ) ;
#145 = DIRECTION ( 'NONE',  ( 0.000000000000000000, 0.000000000000000000, 1.000000000000000000 ) ) ;
#146 =( NAMED_UNIT ( * ) PLANE_ANGLE_UNIT ( ) SI_UNIT ( $, .RADIAN. ) );
#147 = VECTOR ( 'NONE', #47, 1000.000000000000000 ) ;
#148 = DIRECTION ( 'NONE',  ( 0.000000000000000000, 0.000000000000000000, -1.000000000000000000 ) ) ;
#149 = LINE ( 'NONE', #231, #164 ) ;
#150 = ADVANCED_BREP_SHAPE_REPRESENTATION ( 'ASV1_400_18X_1_1.STEP', ( #140, #44 ), #174 ) ;
#151 = UNCERTAINTY_MEASURE_WITH_UNIT (LENGTH_MEASURE( 1.000000000000000082E-05 ), #17, 'distance_accuracy_value', 'NONE');
#152 = DIRECTION ( 'NONE',  ( -1.000000000000000000, 0.000000000000000000, 0.000000000000000000 ) ) ;
#153 = ADVANCED_FACE ( 'NONE', ( #173, #82 ), #33, .T. ) ;
#154 = ORIENTED_EDGE ( 'NONE', *, *, #12, .F. ) ;
#155 = CIRCLE ( 'NONE', #239, 19.00000000000000000 ) ;
#156 = ORIENTED_EDGE ( 'NONE', *, *, #107, .F. ) ;
#157 = VERTEX_POINT ( 'NONE', #15 ) ;
#158 = ORIENTED_EDGE ( 'NONE', *, *, #224, .F. ) ;
#159 = CIRCLE ( 'NONE', #32, 28.00000000000000000 ) ;
#160 = VERTEX_POINT ( 'NONE', #191 ) ;
#161 = FACE_BOUND ( 'NONE', #60, .T. ) ;
#162 = LINE ( 'NONE', #51, #85 ) ;
#163 = LINE ( 'NONE', #244, #254 ) ;
#164 = VECTOR ( 'NONE', #129, 1000.000000000000000 ) ;
#165 = CARTESIAN_POINT ( 'NONE',  ( -18.88351945860300063, -65.06137744862299144, 105.3079453076479837 ) ) ;
#166 = PRODUCT_RELATED_PRODUCT_CATEGORY ( 'part', '', ( #75 ) ) ;
#167 = CYLINDRICAL_SURFACE ( 'NONE', #277, 19.00000000000001066 ) ;
#168 = CARTESIAN_POINT ( 'NONE',  ( -18.88351945860300063, -65.06137744862299144, 105.3079453076479837 ) ) ;
#169 = AXIS2_PLACEMENT_3D ( 'NONE', #225, #7, #171 ) ;
#170 = ADVANCED_FACE ( 'NONE', ( #251 ), #210, .F. ) ;
#171 = DIRECTION ( 'NONE',  ( 1.000000000000000000, 0.000000000000000000, 0.000000000000000000 ) ) ;
#172 = CARTESIAN_POINT ( 'NONE',  ( -18.88351945860300063, -65.06137744862299144, 50.81047062458969776 ) ) ;
#173 = FACE_BOUND ( 'NONE', #136, .T. ) ;
#174 =( GEOMETRIC_REPRESENTATION_CONTEXT ( 3 ) GLOBAL_UNCERTAINTY_ASSIGNED_CONTEXT ( ( #151 ) ) GLOBAL_UNIT_ASSIGNED_CONTEXT ( ( #17, #65, #197 ) ) REPRESENTATION_CONTEXT ( 'NONE', 'WORKASPACE' ) );
#175 = CARTESIAN_POINT ( 'NONE',  ( -46.88351945860299708, -65.06137744862299144, 169.8079453076479979 ) ) ;
#176 = ADVANCED_FACE ( 'NONE', ( #57 ), #275, .T. ) ;
#177 = VERTEX_POINT ( 'NONE', #175 ) ;
#178 = ORIENTED_EDGE ( 'NONE', *, *, #279, .T. ) ;
#179 = EDGE_CURVE ( 'NONE', #67, #216, #8, .T. ) ;
#180 = AXIS2_PLACEMENT_3D ( 'NONE', #111, #123, #96 ) ;
#181 = EDGE_LOOP ( 'NONE', ( #20, #66 ) ) ;
#182 = ORIENTED_EDGE ( 'NONE', *, *, #234, .T. ) ;
#183 = SHAPE_DEFINITION_REPRESENTATION ( #84, #150 ) ;
#184 = ORIENTED_EDGE ( 'NONE', *, *, #238, .T. ) ;
#185 = DIRECTION ( 'NONE',  ( 1.000000000000000000, 0.000000000000000000, 0.000000000000000000 ) ) ;
#186 = CARTESIAN_POINT ( 'NONE',  ( -18.88351945860300063, -65.06137744862299144, 100.3079453076479979 ) ) ;
#187 = DIRECTION ( 'NONE',  ( 1.000000000000000000, 0.000000000000000000, 0.000000000000000000 ) ) ;
#188 = CYLINDRICAL_SURFACE ( 'NONE', #139, 17.50000000000000355 ) ;
#189 = CIRCLE ( 'NONE', #120, 28.00000000000000000 ) ;
#190 = DIRECTION ( 'NONE',  ( -1.000000000000000000, 0.000000000000000000, 0.000000000000000000 ) ) ;
#191 = CARTESIAN_POINT ( 'NONE',  ( 9.116480541396999371, -65.06137744862299144, 169.8079453076479979 ) ) ;
#192 = CIRCLE ( 'NONE', #19, 17.50000000000000000 ) ;
#193 = DIRECTION ( 'NONE',  ( 0.000000000000000000, -1.000000000000000000, 0.000000000000000000 ) ) ;
#194 = VERTEX_POINT ( 'NONE', #255 ) ;
#195 = EDGE_CURVE ( 'NONE', #113, #257, #155, .T. ) ;
#196 = DIRECTION ( 'NONE',  ( 0.000000000000000000, 0.000000000000000000, 1.000000000000000000 ) ) ;
#197 =( NAMED_UNIT ( * ) SI_UNIT ( $, .STERADIAN. ) SOLID_ANGLE_UNIT ( ) );
#198 = ORIENTED_EDGE ( 'NONE', *, *, #179, .T. ) ;
#199 = ORIENTED_EDGE ( 'NONE', *, *, #22, .F. ) ;
#200 = AXIS2_PLACEMENT_3D ( 'NONE', #214, #92, #94 ) ;
#201 = VERTEX_POINT ( 'NONE', #269 ) ;
#202 = LINE ( 'NONE', #261, #72 ) ;
#203 = ORIENTED_EDGE ( 'NONE', *, *, #70, .F. ) ;
#204 = CARTESIAN_POINT ( 'NONE',  ( -18.88351945860300063, -65.06137744862299144, 50.81047062458969776 ) ) ;
#205 = DIRECTION ( 'NONE',  ( 1.000000000000000000, 0.000000000000000000, 0.000000000000000000 ) ) ;
#206 = DIRECTION ( 'NONE',  ( 0.000000000000000000, 0.000000000000000000, -1.000000000000000000 ) ) ;
#207 = CARTESIAN_POINT ( 'NONE',  ( -18.88351945860300063, -65.06137744862299144, 249.0039048005415054 ) ) ;
#208 = CARTESIAN_POINT ( 'NONE',  ( -9.383519458603000629, -48.60689477671870407, 105.3079453076479837 ) ) ;
#209 = SURFACE_STYLE_USAGE ( .BOTH. , #78 ) ;
#210 = PLANE ( 'NONE',  #128 ) ;
#211 = DIRECTION ( 'NONE',  ( 0.000000000000000000, 0.000000000000000000, -1.000000000000000000 ) ) ;
#212 = CIRCLE ( 'NONE', #91, 19.00000000000000000 ) ;
#213 = CARTESIAN_POINT ( 'NONE',  ( -28.38351945860300063, -81.51586012052730723, 105.3079453076479837 ) ) ;
#214 = CARTESIAN_POINT ( 'NONE',  ( -18.88351945860300063, -65.06137744862299144, 109.3079453076479979 ) ) ;
#215 = EDGE_LOOP ( 'NONE', ( #116, #134, #219, #263 ) ) ;
#216 = VERTEX_POINT ( 'NONE', #270 ) ;
#217 = ORIENTED_EDGE ( 'NONE', *, *, #115, .F. ) ;
#218 =( GEOMETRIC_REPRESENTATION_CONTEXT ( 3 ) GLOBAL_UNCERTAINTY_ASSIGNED_CONTEXT ( ( #272 ) ) GLOBAL_UNIT_ASSIGNED_CONTEXT ( ( #79, #146, #227 ) ) REPRESENTATION_CONTEXT ( 'NONE', 'WORKASPACE' ) );
#219 = ORIENTED_EDGE ( 'NONE', *, *, #249, .T. ) ;
#220 = CARTESIAN_POINT ( 'NONE',  ( -28.38351945860300063, -81.51586012052730723, 109.3079453076479979 ) ) ;
#221 = DIRECTION ( 'NONE',  ( 0.000000000000000000, 0.000000000000000000, 1.000000000000000000 ) ) ;
#222 = AXIS2_PLACEMENT_3D ( 'NONE', #242, #145, #52 ) ;
#223 = CYLINDRICAL_SURFACE ( 'NONE', #132, 28.00000000000000000 ) ;
#224 = EDGE_CURVE ( 'NONE', #177, #160, #159, .T. ) ;
#225 = CARTESIAN_POINT ( 'NONE',  ( -18.88351945860300063, -65.06137744862299144, 100.3079453076479979 ) ) ;
#226 = CARTESIAN_POINT ( 'NONE',  ( -18.88351945860300063, -65.06137744862299144, 169.8079453076479979 ) ) ;
#227 =( NAMED_UNIT ( * ) SI_UNIT ( $, .STERADIAN. ) SOLID_ANGLE_UNIT ( ) );
#228 = PRESENTATION_LAYER_ASSIGNMENT (  '', '', ( #63 ) ) ;
#229 = DIRECTION ( 'NONE',  ( 0.000000000000000000, -1.000000000000000000, 0.000000000000000000 ) ) ;
#230 = DIRECTION ( 'NONE',  ( 1.000000000000000000, 0.000000000000000000, 0.000000000000000000 ) ) ;
#231 = CARTESIAN_POINT ( 'NONE',  ( -36.38351945860299708, -65.06137744862299144, 50.81047062458969776 ) ) ;
#232 = PRODUCT_DEFINITION_FORMATION_WITH_SPECIFIED_SOURCE ( 'Symmetric', '', #75, .NOT_KNOWN. ) ;
#233 = CARTESIAN_POINT ( 'NONE',  ( -9.383519458603000629, -48.60689477671870407, 109.3079453076479979 ) ) ;
#234 = EDGE_CURVE ( 'NONE', #157, #201, #144, .T. ) ;
#235 = FACE_OUTER_BOUND ( 'NONE', #236, .T. ) ;
#236 = EDGE_LOOP ( 'NONE', ( #21, #178, #89, #199 ) ) ;
#237 = ORIENTED_EDGE ( 'NONE', *, *, #249, .F. ) ;
#238 = EDGE_CURVE ( 'NONE', #257, #113, #212, .T. ) ;
#239 = AXIS2_PLACEMENT_3D ( 'NONE', #36, #104, #152 ) ;
#240 = AXIS2_PLACEMENT_3D ( 'NONE', #172, #196, #253 ) ;
#241 = ORIENTED_EDGE ( 'NONE', *, *, #12, .T. ) ;
#242 = CARTESIAN_POINT ( 'NONE',  ( -18.88351945860300063, -65.06137744862299144, 105.3079453076479837 ) ) ;
#243 = EDGE_CURVE ( 'NONE', #112, #262, #245, .T. ) ;
#244 = CARTESIAN_POINT ( 'NONE',  ( -46.88351945860299708, -65.06137744862299144, 249.0039048005415054 ) ) ;
#245 = CIRCLE ( 'NONE', #283, 19.00000000000000000 ) ;
#246 = DIRECTION ( 'NONE',  ( 0.000000000000000000, 0.000000000000000000, 1.000000000000000000 ) ) ;
#247 = DIRECTION ( 'NONE',  ( 1.000000000000000000, 0.000000000000000000, 0.000000000000000000 ) ) ;
#248 = FACE_OUTER_BOUND ( 'NONE', #181, .T. ) ;
#249 = EDGE_CURVE ( 'NONE', #194, #216, #149, .T. ) ;
#250 = DIRECTION ( 'NONE',  ( -1.000000000000000000, 0.000000000000000000, 0.000000000000000000 ) ) ;
#251 = FACE_OUTER_BOUND ( 'NONE', #90, .T. ) ;
#252 = CARTESIAN_POINT ( 'NONE',  ( -18.88351945860300063, -65.06137744862299144, 169.8079453076479979 ) ) ;
#253 = DIRECTION ( 'NONE',  ( -1.000000000000000000, 0.000000000000000000, 0.000000000000000000 ) ) ;
#254 = VECTOR ( 'NONE', #98, 1000.000000000000000 ) ;
#255 = CARTESIAN_POINT ( 'NONE',  ( -36.38351945860299708, -65.06137744862299144, 100.3079453076479979 ) ) ;
#256 = DIRECTION ( 'NONE',  ( 1.000000000000000000, 0.000000000000000000, 0.000000000000000000 ) ) ;
#257 = VERTEX_POINT ( 'NONE', #213 ) ;
#258 = ORIENTED_EDGE ( 'NONE', *, *, #22, .T. ) ;
#259 = AXIS2_PLACEMENT_3D ( 'NONE', #142, #221, #100 ) ;
#260 = ORIENTED_EDGE ( 'NONE', *, *, #53, .F. ) ;
#261 = CARTESIAN_POINT ( 'NONE',  ( -28.38351945860300063, -81.51586012052730723, 105.3079453076479837 ) ) ;
#262 = VERTEX_POINT ( 'NONE', #233 ) ;
#263 = ORIENTED_EDGE ( 'NONE', *, *, #179, .F. ) ;
#264 = DIRECTION ( 'NONE',  ( 0.000000000000000000, 0.000000000000000000, -1.000000000000000000 ) ) ;
#265 = DIRECTION ( 'NONE',  ( 0.000000000000000000, 0.000000000000000000, 1.000000000000000000 ) ) ;
#266 = DIRECTION ( 'NONE',  ( 0.000000000000000000, -1.000000000000000000, 0.000000000000000000 ) ) ;
#267 = CARTESIAN_POINT ( 'NONE',  ( -18.88351945860300063, -65.06137744862299144, 105.3079453076479837 ) ) ;
#268 = DIRECTION ( 'NONE',  ( -1.000000000000000000, 0.000000000000000000, 0.000000000000000000 ) ) ;
#269 = CARTESIAN_POINT ( 'NONE',  ( -46.88351945860299708, -65.06137744862299144, 105.3079453076479837 ) ) ;
#270 = CARTESIAN_POINT ( 'NONE',  ( -36.38351945860299708, -65.06137744862299144, 109.3079453076479979 ) ) ;
#271 = CIRCLE ( 'NONE', #259, 19.00000000000000000 ) ;
#272 = UNCERTAINTY_MEASURE_WITH_UNIT (LENGTH_MEASURE( 1.000000000000000082E-05 ), #79, 'distance_accuracy_value', 'NONE');
#273 = EDGE_CURVE ( 'NONE', #216, #67, #37, .T. ) ;
#274 = DIRECTION ( 'NONE',  ( 1.000000000000000000, 0.000000000000000000, 0.000000000000000000 ) ) ;
#275 = CYLINDRICAL_SURFACE ( 'NONE', #240, 17.50000000000000355 ) ;
#276 = CARTESIAN_POINT ( 'NONE',  ( -18.88351945860300063, -65.06137744862299144, 109.3079453076479979 ) ) ;
#277 = AXIS2_PLACEMENT_3D ( 'NONE', #165, #101, #71 ) ;
#278 = ORIENTED_EDGE ( 'NONE', *, *, #243, .F. ) ;
#279 = EDGE_CURVE ( 'NONE', #257, #112, #202, .T. ) ;
#280 = PRODUCT_DEFINITION_CONTEXT ( 'detailed design', #87, 'design' ) ;
#281 = EDGE_LOOP ( 'NONE', ( #93, #43, #114, #154 ) ) ;
#282 = ORIENTED_EDGE ( 'NONE', *, *, #273, .F. ) ;
#283 = AXIS2_PLACEMENT_3D ( 'NONE', #13, #106, #274 ) ;
#284 = PRODUCT_DEFINITION ( 'General', '', #232, #280 ) ;
#285 = CARTESIAN_POINT ( 'NONE',  ( 0.000000000000000000, 0.000000000000000000, 0.000000000000000000 ) ) ;
ENDSEC;
END-ISO-10303-21;
