ISO-10303-21;
HEADER;
FILE_DESCRIPTION (( 'STEP AP214' ),
    '1' );
FILE_NAME ('ASV1_400_17X_1_1.STEP.STEP',
    '2026-08-01T03:19:13',
    ( '' ),
    ( '' ),
    'SwSTEP 2.0',
    'SolidWorks 2025',
    '' );
FILE_SCHEMA (( 'AUTOMOTIVE_DESIGN' ));
ENDSEC;

DATA;
#1 = VERTEX_POINT ( 'NONE', #644 ) ;
#2 = FACE_OUTER_BOUND ( 'NONE', #616, .T. ) ;
#3 = CARTESIAN_POINT ( 'NONE',  ( -3.959557172332931696, 22.61053541617530271, 16.05422497507516155 ) ) ;
#4 = CARTESIAN_POINT ( 'NONE',  ( 1.820366066739570909, 22.31053541617529845, -18.69999920787812187 ) ) ;
#5 = VERTEX_POINT ( 'NONE', #299 ) ;
#6 = CARTESIAN_POINT ( 'NONE',  ( -2.156950241462068707, 23.31053541617534464, -16.39431904221776648 ) ) ;
#7 = CARTESIAN_POINT ( 'NONE',  ( -16.34742679415764499, 22.61053541617529916, 2.485532088096425785 ) ) ;
#8 = CARTESIAN_POINT ( 'NONE',  ( -2.159818246131688380, 28.31053541617534819, 16.39363954998942319 ) ) ;
#9 = VERTEX_POINT ( 'NONE', #229 ) ;
#10 = ADVANCED_FACE ( 'NONE', ( #374 ), #142, .F. ) ;
#11 = CARTESIAN_POINT ( 'NONE',  ( -1.083953470373353101, 23.31053541617534819, -16.50000000000000355 ) ) ;
#12 = CARTESIAN_POINT ( 'NONE',  ( 1.407966017022764360, 22.61053541617529916, 16.47525005109813989 ) ) ;
#13 = AXIS2_PLACEMENT_3D ( 'NONE', #172, #451, #870 ) ;
#14 = CARTESIAN_POINT ( 'NONE',  ( 11.73738534748248874, 23.31053541617529845, 11.27939022096769683 ) ) ;
#15 = ORIENTED_EDGE ( 'NONE', *, *, #27, .F. ) ;
#16 = B_SPLINE_CURVE_WITH_KNOTS ( 'NONE', 3,
 ( #855, #77, #428, #715, #497, #147, #629, #286, #840, #156, #358, #362, #90, #846, #710, #231, #438, #785, #221, #501, #85, #162, #648, #353, #562, #376, #252, #530, #723, #790, #602, #235, #809, #859 ),
 .UNSPECIFIED., .F., .F.,
 ( 4, 2, 2, 2, 2, 2, 2, 2, 2, 2, 2, 2, 2, 2, 2, 2, 4 ),
 ( 0.000000000000000000, 0.06250000000000000000, 0.1250000000000000000, 0.1875000000000000833, 0.2500000000000001665, 0.3125000000000002220, 0.3750000000000003331, 0.4375000000000002776, 0.5000000000000002220, 0.5625000000000001110, 0.6250000000000000000, 0.6875000000000000000, 0.7500000000000000000, 0.8125000000000000000, 0.8750000000000000000, 0.9375000000000000000, 1.000000000000000000 ),
 .UNSPECIFIED. ) ;
#17 = CARTESIAN_POINT ( 'NONE',  ( -12.43250158542860184, 23.31053541617534819, -10.90187105143935931 ) ) ;
#18 = CARTESIAN_POINT ( 'NONE',  ( -16.43336328472835106, 22.61053541617529916, -1.833249492961115168 ) ) ;
#19 = CARTESIAN_POINT ( 'NONE',  ( -6.735557395310439065E-16, 28.31053541617534819, 16.50000000000000000 ) ) ;
#20 = EDGE_LOOP ( 'NONE', ( #653, #631 ) ) ;
#21 = FILL_AREA_STYLE_COLOUR ( '', #478 ) ;
#22 = CARTESIAN_POINT ( 'NONE',  ( -7.982477551635737356, 22.61053541617529916, 14.48089378073507483 ) ) ;
#23 = CARTESIAN_POINT ( 'NONE',  ( -14.83074384714073624, 28.31053541617535529, -7.311994905071934170 ) ) ;
#24 = CARTESIAN_POINT ( 'NONE',  ( -11.89706573307432080, 23.01053541617530129, -11.43283984593980129 ) ) ;
#25 = CARTESIAN_POINT ( 'NONE',  ( -11.89706573307430126, 22.53199559983555389, -11.43283984593980662 ) ) ;
#26 = DIRECTION ( 'NONE',  ( 0.000000000000000000, 0.000000000000000000, 1.000000000000000000 ) ) ;
#27 = EDGE_CURVE ( 'NONE', #627, #294, #222, .T. ) ;
#28 = CARTESIAN_POINT ( 'NONE',  ( 2.595055269651534609E-09, 22.31053541617530200, 18.70000967101779921 ) ) ;
#29 = VERTEX_POINT ( 'NONE', #260 ) ;
#30 =( LENGTH_UNIT ( ) NAMED_UNIT ( * ) SI_UNIT ( .MILLI., .METRE. ) );
#31 = CARTESIAN_POINT ( 'NONE',  ( -10.84789105482314042, 22.31053541617530200, 12.87525868485059988 ) ) ;
#32 = CARTESIAN_POINT ( 'NONE',  ( 7.311994905071941275, 28.31053541617535529, -14.83074384714072913 ) ) ;
#33 = CARTESIAN_POINT ( 'NONE',  ( 12.64534335119249420, 23.01053541617530129, 10.65417871455855803 ) ) ;
#34 = CARTESIAN_POINT ( 'NONE',  ( -2.595052904879380175E-09, 22.31053541617530200, -18.70000967101790224 ) ) ;
#35 = DIRECTION ( 'NONE',  ( -0.000000000000000000, 1.000000000000000000, 0.000000000000000000 ) ) ;
#36 = FACE_OUTER_BOUND ( 'NONE', #422, .T. ) ;
#37 = B_SPLINE_CURVE_WITH_KNOTS ( 'NONE', 3,
 ( #104, #384, #527, #455, #733, #109, #389, #599, #249, #531, #806, #259, #558, #198, #692, #679, #471, #761, #53, #482, #277, #831, #688, #331, #538, #138, #547, #749, #815, #265, #190, #757, #543, #683 ),
 .UNSPECIFIED., .F., .F.,
 ( 4, 2, 2, 2, 2, 2, 2, 2, 2, 2, 2, 2, 2, 2, 2, 2, 4 ),
 ( 0.000000000000000000, 0.06250000000000000000, 0.1250000000000000000, 0.1875000000000000000, 0.2500000000000000000, 0.3125000000000000000, 0.3750000000000000000, 0.4375000000000000000, 0.5000000000000000000, 0.5625000000000000000, 0.6250000000000000000, 0.6875000000000000000, 0.7500000000000000000, 0.8125000000000000000, 0.8750000000000000000, 0.9375000000000000000, 1.000000000000000000 ),
 .UNSPECIFIED. ) ;
#38 = CARTESIAN_POINT ( 'NONE',  ( -12.91644576441305503, 23.01053541617530129, 10.32383946825386190 ) ) ;
#39 = EDGE_CURVE ( 'NONE', #294, #627, #550, .T. ) ;
#40 = CARTESIAN_POINT ( 'NONE',  ( 11.89706573307433857, 22.61053541617534890, 11.43283984593980129 ) ) ;
#41 = CARTESIAN_POINT ( 'NONE',  ( -12.87525868485059988, 22.31053541617530200, -10.84789105482318128 ) ) ;
#42 = FACE_OUTER_BOUND ( 'NONE', #861, .T. ) ;
#43 = CARTESIAN_POINT ( 'NONE',  ( -16.47525005109814344, 23.01053541617530129, 1.407966017022725724 ) ) ;
#44 = CARTESIAN_POINT ( 'NONE',  ( -0.7651142254583559454, 22.31053541617530200, 16.81855007903875077 ) ) ;
#45 = CARTESIAN_POINT ( 'NONE',  ( 2.159818246131623543, 28.31053541617534819, 16.39363954998942674 ) ) ;
#46 = CARTESIAN_POINT ( 'NONE',  ( 12.21150097732110673, 23.01053541617530485, -11.14878811495610478 ) ) ;
#47 = CARTESIAN_POINT ( 'NONE',  ( -18.78666302138626776, 22.31053541617529845, 0.2549421747320938514 ) ) ;
#48 = DIRECTION ( 'NONE',  ( 0.000000000000000000, 0.000000000000000000, 1.000000000000000000 ) ) ;
#49 = CARTESIAN_POINT ( 'NONE',  ( 14.31922138388836174, 28.31053541617534464, -8.268986123491485429 ) ) ;
#50 = CARTESIAN_POINT ( 'NONE',  ( 11.89706573307433857, 23.01053541617530129, 11.43283984593980129 ) ) ;
#51 = SHAPE_DEFINITION_REPRESENTATION ( #180, #851 ) ;
#52 = CARTESIAN_POINT ( 'NONE',  ( 16.04649615750394887, 22.31053541617530200, 5.094996330356379666 ) ) ;
#53 = CARTESIAN_POINT ( 'NONE',  ( -9.623624478626989998, 23.31053541617529845, 13.07478724571389961 ) ) ;
#54 = EDGE_CURVE ( 'NONE', #820, #5, #670, .T. ) ;
#55 = CARTESIAN_POINT ( 'NONE',  ( 13.20108929354286253, 22.31053541617529845, -13.36917889982355057 ) ) ;
#56 = VERTEX_POINT ( 'NONE', #200 ) ;
#57 = AXIS2_PLACEMENT_3D ( 'NONE', #515, #184, #181 ) ;
#58 = CARTESIAN_POINT ( 'NONE',  ( 16.81855007903875077, 22.31053541617530200, 0.7651142254584269997 ) ) ;
#59 = CARTESIAN_POINT ( 'NONE',  ( -11.14878811495610655, 22.61053541617529916, -12.21150097732107831 ) ) ;
#60 = CARTESIAN_POINT ( 'NONE',  ( 10.46046637429379977, 23.31053541617529845, -12.41542801753450043 ) ) ;
#61 = ORIENTED_EDGE ( 'NONE', *, *, #608, .T. ) ;
#62 = CARTESIAN_POINT ( 'NONE',  ( -4.968938915077258045, 22.31053541617529845, -18.07137048225267861 ) ) ;
#63 = CARTESIAN_POINT ( 'NONE',  ( -4.595074182568808396, 22.61053541617530627, -15.88400219743091668 ) ) ;
#64 = APPLICATION_CONTEXT ( 'automotive_design' ) ;
#65 = CARTESIAN_POINT ( 'NONE',  ( 16.05020085244570183, 23.31053541617529845, -2.440340595585619887 ) ) ;
#66 = ORIENTED_EDGE ( 'NONE', *, *, #417, .F. ) ;
#67 = EDGE_CURVE ( 'NONE', #9, #576, #173, .T. ) ;
#68 = CARTESIAN_POINT ( 'NONE',  ( -4.678620985888310102, 22.31053541617530200, -16.17280223738420375 ) ) ;
#69 = CARTESIAN_POINT ( 'NONE',  ( 9.801839746749827498, 22.61053541617530271, -13.31691293544926502 ) ) ;
#70 = CARTESIAN_POINT ( 'NONE',  ( 1.799917683998139895, 23.31053541617529845, -16.13457486136969976 ) ) ;
#71 = EDGE_LOOP ( 'NONE', ( #66, #479, #164, #435 ) ) ;
#72 = CARTESIAN_POINT ( 'NONE',  ( -15.97170229934156893, 23.31053541617535529, 4.280492232829208099 ) ) ;
#73 = CARTESIAN_POINT ( 'NONE',  ( -15.54841231673103508, 22.61053541617530271, 5.626998043382179127 ) ) ;
#74 = CARTESIAN_POINT ( 'NONE',  ( 18.06462145381977180, 22.31053541617529490, 5.164605959971542148 ) ) ;
#75 = ORIENTED_EDGE ( 'NONE', *, *, #171, .T. ) ;
#76 = CARTESIAN_POINT ( 'NONE',  ( -14.32046408759308065, 23.31053541617535174, -8.266933918317416641 ) ) ;
#77 = CARTESIAN_POINT ( 'NONE',  ( 1.082856798103470686, 23.31053541617534819, -16.50000000000000000 ) ) ;
#78 = CARTESIAN_POINT ( 'NONE',  ( -15.97227470331720056, 28.31053541617535885, 4.278162380400532427 ) ) ;
#79 = DIRECTION ( 'NONE',  ( 0.000000000000000000, -1.000000000000000000, 0.000000000000000000 ) ) ;
#80 = CARTESIAN_POINT ( 'NONE',  ( -15.97191193971090151, 23.31053541617534819, -4.280533932877629510 ) ) ;
#81 = CARTESIAN_POINT ( 'NONE',  ( -15.75995158326276524, 22.61053541617529916, -5.004014253028619130 ) ) ;
#82 = CARTESIAN_POINT ( 'NONE',  ( -11.79366653049288871, 23.27820348725824928, -11.33347530094736122 ) ) ;
#83 = ORIENTED_EDGE ( 'NONE', *, *, #833, .T. ) ;
#84 = CARTESIAN_POINT ( 'NONE',  ( -6.045057302900459562E-31, 22.31053541617530200, -5.892633960096210007E-30 ) ) ;
#85 = CARTESIAN_POINT ( 'NONE',  ( 15.65809918585735261, 23.31053541617534819, 5.314303150903548101 ) ) ;
#86 = AXIS2_PLACEMENT_3D ( 'NONE', #887, #818, #414 ) ;
#87 = CARTESIAN_POINT ( 'NONE',  ( 11.87375330376500493, 23.16713141380428809, 11.41043707229018800 ) ) ;
#88 = ORIENTED_EDGE ( 'NONE', *, *, #579, .T. ) ;
#89 = CARTESIAN_POINT ( 'NONE',  ( 1.347111479062089982E-15, 23.31053541617534819, -16.50000000000000000 ) ) ;
#90 = CARTESIAN_POINT ( 'NONE',  ( 14.82972791008308633, 23.31053541617535529, -7.314168319551051844 ) ) ;
#91 = CARTESIAN_POINT ( 'NONE',  ( 6.173130595636926898, 22.31053541617530200, 17.69624942460446348 ) ) ;
#92 = B_SPLINE_CURVE_WITH_KNOTS ( 'NONE', 3,
 ( #799, #238, #111, #305 ),
 .UNSPECIFIED., .F., .F.,
 ( 4, 4 ),
 ( 0.000000000000000000, 1.000000000000000000 ),
 .UNSPECIFIED. ) ;
#93 = ORIENTED_EDGE ( 'NONE', *, *, #513, .F. ) ;
#94 = CARTESIAN_POINT ( 'NONE',  ( 12.05674611866614221, 22.31053541617530556, 11.58628947091189687 ) ) ;
#95 = EDGE_CURVE ( 'NONE', #29, #1, #615, .T. ) ;
#96 = CARTESIAN_POINT ( 'NONE',  ( 1.433565399150529940, 22.31053541617530200, 16.77480005202720292 ) ) ;
#97 = CARTESIAN_POINT ( 'NONE',  ( -11.73738534748254203, 23.31053541617529845, -11.27939022096762400 ) ) ;
#98 = ORIENTED_EDGE ( 'NONE', *, *, #187, .T. ) ;
#99 = CYLINDRICAL_SURFACE ( 'NONE', #898, 16.50000000000000000 ) ;
#100 = CARTESIAN_POINT ( 'NONE',  ( 16.39363954998942319, 28.31053541617535174, -2.159818246131635533 ) ) ;
#101 = AXIS2_PLACEMENT_3D ( 'NONE', #84, #137, #141 ) ;
#102 = CARTESIAN_POINT ( 'NONE',  ( 15.54841231673107416, 23.01053541617530485, -5.626998043382147152 ) ) ;
#103 = CARTESIAN_POINT ( 'NONE',  ( -8.127613507119958669, 22.31053541617530200, 14.74418275856665872 ) ) ;
#104 = CARTESIAN_POINT ( 'NONE',  ( -11.68075544701843960, 23.31053541617534819, -11.22497003055904052 ) ) ;
#105 = EDGE_CURVE ( 'NONE', #576, #9, #395, .T. ) ;
#106 = CARTESIAN_POINT ( 'NONE',  ( 0.7514514714324471711, 23.01053541617530485, -16.51821882762735427 ) ) ;
#107 = CARTESIAN_POINT ( 'NONE',  ( -7.127093352366002499, 22.31053541617529845, 17.38413769326047387 ) ) ;
#108 = CARTESIAN_POINT ( 'NONE',  ( -15.24551764659019959, 22.31053541617530200, -7.143053844584949630 ) ) ;
#109 = CARTESIAN_POINT ( 'NONE',  ( -15.47340700902164912, 23.31053541617529845, -4.913032175700769777 ) ) ;
#110 = CARTESIAN_POINT ( 'NONE',  ( -14.15188107362253689, 23.01053541617530129, 8.552221619517608175 ) ) ;
#111 = CARTESIAN_POINT ( 'NONE',  ( -11.89706573307433857, 22.87720208284194712, -11.43283984593976044 ) ) ;
#112 = B_SPLINE_CURVE_WITH_KNOTS ( 'NONE', 3,
 ( #802, #236, #585, #729, #118, #32, #737, #534, #253, #671, #866, #49, #657, #312, #463, #100, #317, #810, #516, #394, #521, #603, #662, #177, #878, #460, #875, #742, #114, #322, #398, #45, #675, #244 ),
 .UNSPECIFIED., .F., .F.,
 ( 4, 2, 2, 2, 2, 2, 2, 2, 2, 2, 2, 2, 2, 2, 2, 2, 4 ),
 ( 0.000000000000000000, 0.06250000000000005551, 0.1250000000000001110, 0.1875000000000001665, 0.2500000000000002220, 0.3125000000000002776, 0.3750000000000003331, 0.4375000000000003331, 0.5000000000000003331, 0.5625000000000003331, 0.6250000000000004441, 0.6875000000000003331, 0.7500000000000003331, 0.8125000000000002220, 0.8750000000000002220, 0.9375000000000001110, 1.000000000000000000 ),
 .UNSPECIFIED. ) ;
#113 = CARTESIAN_POINT ( 'NONE',  ( -13.15129023285687992, 22.31053541617530200, 10.51154564040399997 ) ) ;
#114 = CARTESIAN_POINT ( 'NONE',  ( 7.311994905071856898, 28.31053541617535529, 14.83074384714077176 ) ) ;
#115 = CARTESIAN_POINT ( 'NONE',  ( 5.004014253028649328, 23.01053541617530129, -15.75995158326277590 ) ) ;
#116 = TOROIDAL_SURFACE ( 'NONE', #437, 16.19999999999999929, 0.2999999999999999889 ) ;
#117 = CARTESIAN_POINT ( 'NONE',  ( 9.980055014872499797, 22.31053541617530200, -13.55903862518474057 ) ) ;
#118 = CARTESIAN_POINT ( 'NONE',  ( 5.316558362976083529, 28.31053541617534464, -15.65728072573170593 ) ) ;
#119 = CARTESIAN_POINT ( 'NONE',  ( 15.88400219743092734, 23.01053541617530129, -4.595074182568813725 ) ) ;
#120 = CARTESIAN_POINT ( 'NONE',  ( -12.11337601913021800, 22.31053541617530200, -11.64070966132049989 ) ) ;
#121 = EDGE_CURVE ( 'NONE', #892, #289, #888, .T. ) ;
#122 = CARTESIAN_POINT ( 'NONE',  ( 7.982477551635790647, 22.61053541617529916, -14.48089378073506062 ) ) ;
#123 = DIRECTION ( 'NONE',  ( 0.000000000000000000, 1.000000000000000000, 0.000000000000000000 ) ) ;
#124 = B_SPLINE_CURVE_WITH_KNOTS ( 'NONE', 3,
 ( #175, #230, #804, #165 ),
 .UNSPECIFIED., .F., .F.,
 ( 4, 4 ),
 ( 0.000000000000000000, 1.000000000000000000 ),
 .UNSPECIFIED. ) ;
#125 = CARTESIAN_POINT ( 'NONE',  ( 12.11337601913023931, 22.31053541617530200, 11.64070966132049989 ) ) ;
#126 = CARTESIAN_POINT ( 'NONE',  ( 3.959557172332986319, 22.61053541617530271, -16.05422497507516155 ) ) ;
#127 = CARTESIAN_POINT ( 'NONE',  ( 13.07478724571386053, 23.31053541617529845, 9.623624478627050394 ) ) ;
#128 = ORIENTED_EDGE ( 'NONE', *, *, #255, .F. ) ;
#129 = DIRECTION ( 'NONE',  ( 0.000000000000000000, 1.000000000000000000, 0.000000000000000000 ) ) ;
#130 = CARTESIAN_POINT ( 'NONE',  ( 15.54841231673106883, 22.61053541617530271, -5.626998043382145376 ) ) ;
#131 = CARTESIAN_POINT ( 'NONE',  ( 11.68075544701843960, 23.31053541617529845, 11.22497003055906006 ) ) ;
#132 = EDGE_CURVE ( 'NONE', #892, #29, #291, .T. ) ;
#133 = EDGE_LOOP ( 'NONE', ( #843, #196, #416, #838 ) ) ;
#134 = CARTESIAN_POINT ( 'NONE',  ( -8.482244195374498474, 22.31053541617529135, -16.71275915157751157 ) ) ;
#135 = CARTESIAN_POINT ( 'NONE',  ( -11.89706573307432080, 22.61053541617534890, -11.43283984593980129 ) ) ;
#136 = CARTESIAN_POINT ( 'NONE',  ( 11.98947368682429904, 23.31053541617529845, -10.94608287650240008 ) ) ;
#137 = DIRECTION ( 'NONE',  ( -0.000000000000000000, 1.000000000000000000, 0.000000000000000000 ) ) ;
#138 = CARTESIAN_POINT ( 'NONE',  ( 1.382366634895153990, 23.31053541617529845, 16.17570005016909818 ) ) ;
#139 = CARTESIAN_POINT ( 'NONE',  ( 14.70103487349770077, 23.31053541617529845, 6.887944778706939886 ) ) ;
#140 = VERTEX_POINT ( 'NONE', #751 ) ;
#141 = DIRECTION ( 'NONE',  ( 1.000000000000000000, 0.000000000000000000, 0.000000000000000000 ) ) ;
#142 = TOROIDAL_SURFACE ( 'NONE', #885, 16.80000000000000071, 0.2999999999999999889 ) ;
#143 = CARTESIAN_POINT ( 'NONE',  ( -14.48089378073505706, 22.61053541617529916, -7.982477551635764890 ) ) ;
#144 = CARTESIAN_POINT ( 'NONE',  ( -12.43088239457400945, 28.31053541617535529, 10.90364138458205900 ) ) ;
#145 = EDGE_LOOP ( 'NONE', ( #622, #237, #704, #708 ) ) ;
#146 = DIRECTION ( 'NONE',  ( 0.7210342868529902027, 0.000000000000000000, 0.6928993846024111836 ) ) ;
#147 = CARTESIAN_POINT ( 'NONE',  ( 7.314250117160422171, 23.31053541617534819, -14.82992538701284069 ) ) ;
#148 = EDGE_CURVE ( 'NONE', #759, #685, #431, .T. ) ;
#149 = CARTESIAN_POINT ( 'NONE',  ( -5.316558362976024910, 28.31053541617535885, -15.65728072573173080 ) ) ;
#150 = EDGE_LOOP ( 'NONE', ( #503, #275 ) ) ;
#151 = CARTESIAN_POINT ( 'NONE',  ( -5.314384892058824583, 23.31053541617535174, -15.65829668616733628 ) ) ;
#152 = CARTESIAN_POINT ( 'NONE',  ( -14.68234104716743360, 22.61053541617529561, 7.605596224226102819 ) ) ;
#153 = CARTESIAN_POINT ( 'NONE',  ( -8.268986123491533391, 28.31053541617535174, 14.31922138388833865 ) ) ;
#154 = ORIENTED_EDGE ( 'NONE', *, *, #27, .T. ) ;
#155 = CARTESIAN_POINT ( 'NONE',  ( -14.82992538702643337, 23.31053541617535174, -7.314250117132347739 ) ) ;
#156 = CARTESIAN_POINT ( 'NONE',  ( 12.43265272772528718, 23.31053541617534108, -10.90202219372735648 ) ) ;
#157 = VECTOR ( 'NONE', #860, 1000.000000000000000 ) ;
#158 = CARTESIAN_POINT ( 'NONE',  ( -16.50000000000000711, 28.31053541617536595, -1.079922474671512145 ) ) ;
#159 = ORIENTED_EDGE ( 'NONE', *, *, #874, .T. ) ;
#160 = EDGE_CURVE ( 'NONE', #627, #685, #786, .T. ) ;
#161 = CARTESIAN_POINT ( 'NONE',  ( 8.152799920730180006, 25.31053541617534819, -30.42666352810544694 ) ) ;
#162 = CARTESIAN_POINT ( 'NONE',  ( 14.82992538701515528, 23.31053541617535174, 7.314250117144295515 ) ) ;
#163 = CARTESIAN_POINT ( 'NONE',  ( -10.94608287650240008, 23.31053541617529845, -11.98947368682429904 ) ) ;
#164 = ORIENTED_EDGE ( 'NONE', *, *, #255, .T. ) ;
#165 = CARTESIAN_POINT ( 'NONE',  ( 11.89706573307433857, 22.61053541617534890, 11.43283984593980129 ) ) ;
#166 = CARTESIAN_POINT ( 'NONE',  ( 8.707716558054389822, 22.31053541617530200, 14.40918800223382057 ) ) ;
#167 = DIRECTION ( 'NONE',  ( 0.000000000000000000, -1.000000000000000000, 0.000000000000000000 ) ) ;
#168 = ORIENTED_EDGE ( 'NONE', *, *, #354, .F. ) ;
#169 = CARTESIAN_POINT ( 'NONE',  ( 1.347111479062089982E-15, 23.31053541617534819, -16.50000000000000000 ) ) ;
#170 = CARTESIAN_POINT ( 'NONE',  ( 11.35149335340996046, 22.31053541617530200, 12.43352826781773857 ) ) ;
#171 = EDGE_CURVE ( 'NONE', #857, #309, #254, .T. ) ;
#172 = CARTESIAN_POINT ( 'NONE',  ( 0.000000000000000000, 28.31053541617534819, -2.817238665454835388E-18 ) ) ;
#173 = CIRCLE ( 'NONE', #494, 18.69999920762550261 ) ;
#174 = CARTESIAN_POINT ( 'NONE',  ( 4.595074182568851029, 23.01053541617530129, 15.88400219743090247 ) ) ;
#175 = CARTESIAN_POINT ( 'NONE',  ( 11.89706573307433857, 23.01053541617530129, 11.43283984593980129 ) ) ;
#176 = DIRECTION ( 'NONE',  ( 0.000000000000000000, -1.000000000000000000, 0.000000000000000000 ) ) ;
#177 = CARTESIAN_POINT ( 'NONE',  ( 13.11927582209561471, 28.31053541617534464, 10.06483156615538732 ) ) ;
#178 = CARTESIAN_POINT ( 'NONE',  ( 14.15188107362257774, 23.01053541617530485, -8.552221619517586859 ) ) ;
#179 = CARTESIAN_POINT ( 'NONE',  ( -3.857637417314165055E-15, -53.18946458382469444, 31.50000000000000000 ) ) ;
#180 = PRODUCT_DEFINITION_SHAPE ( 'NONE', 'NONE',  #794 ) ;
#181 = DIRECTION ( 'NONE',  ( 0.7210342868529900917, 0.000000000000000000, 0.6928993846024111836 ) ) ;
#182 = DIRECTION ( 'NONE',  ( 0.7210342868529902027, 0.000000000000000000, 0.6928993846024111836 ) ) ;
#183 = CARTESIAN_POINT ( 'NONE',  ( -13.31691293544926857, 23.01053541617529774, -9.801839746749800852 ) ) ;
#184 = DIRECTION ( 'NONE',  ( 0.000000000000000000, -1.000000000000000000, 0.000000000000000000 ) ) ;
#185 = DIRECTION ( 'NONE',  ( 0.000000000000000000, -1.000000000000000000, 0.000000000000000000 ) ) ;
#186 = CARTESIAN_POINT ( 'NONE',  ( 16.05422497507516866, 23.01053541617530485, 3.959557172333001862 ) ) ;
#187 = EDGE_CURVE ( 'NONE', #759, #294, #408, .T. ) ;
#188 = CARTESIAN_POINT ( 'NONE',  ( -13.48334059282169939, 22.31053541617530200, -12.95721794302930086 ) ) ;
#189 = CARTESIAN_POINT ( 'NONE',  ( -2.595052904879380175E-09, 22.31053541617530200, -18.70000967101790224 ) ) ;
#190 = CARTESIAN_POINT ( 'NONE',  ( 8.396726680981020152, 23.31053541617529845, 13.89457414501118038 ) ) ;
#191 = APPLICATION_CONTEXT ( 'automotive_design' ) ;
#192 = CARTESIAN_POINT ( 'NONE',  ( 14.41538939176439982, 23.31053541617529845, -7.467312656512940627 ) ) ;
#193 = CARTESIAN_POINT ( 'NONE',  ( 4.031549120920790763, 22.31053541617530200, -16.34611997462199895 ) ) ;
#194 = CARTESIAN_POINT ( 'NONE',  ( 7.015499311646015812, 22.61053541617530271, -14.97327626004391909 ) ) ;
#195 = CARTESIAN_POINT ( 'NONE',  ( -2.595052904879380175E-09, 22.31053541617530200, -18.70000967101790224 ) ) ;
#196 = ORIENTED_EDGE ( 'NONE', *, *, #121, .T. ) ;
#197 = CARTESIAN_POINT ( 'NONE',  ( -2.509798121257011516, 22.31053541617529490, -18.57325223107512713 ) ) ;
#198 = CARTESIAN_POINT ( 'NONE',  ( -14.41538939176435896, 23.31053541617529845, 7.467312656512960167 ) ) ;
#199 = EDGE_CURVE ( 'NONE', #5, #517, #863, .T. ) ;
#200 = CARTESIAN_POINT ( 'NONE',  ( -11.89706573307432080, 22.61053541617534890, -11.43283984593980129 ) ) ;
#201 = ORIENTED_EDGE ( 'NONE', *, *, #579, .F. ) ;
#202 = CARTESIAN_POINT ( 'NONE',  ( 5.094996330356379666, 22.31053541617530200, -16.04649615750394887 ) ) ;
#203 = CARTESIAN_POINT ( 'NONE',  ( 13.31691293544926857, 22.61053541617530271, 9.801839746749825721 ) ) ;
#204 = CARTESIAN_POINT ( 'NONE',  ( 16.17570005016909818, 23.31053541617529845, -1.382366634895086044 ) ) ;
#205 = ORIENTED_EDGE ( 'NONE', *, *, #900, .F. ) ;
#206 = CARTESIAN_POINT ( 'NONE',  ( -8.267052670070070164, 23.31053541617534108, -14.32064181212069265 ) ) ;
#207 = CARTESIAN_POINT ( 'NONE',  ( -12.11337601913021800, 22.31053541617530200, -11.64070966132049989 ) ) ;
#208 = CARTESIAN_POINT ( 'NONE',  ( 15.81284254138811285, 22.31053541617529490, 10.14680805735702229 ) ) ;
#209 = EDGE_LOOP ( 'NONE', ( #721, #549, #88, #213, #430 ) ) ;
#210 = DIRECTION ( 'NONE',  ( 0.000000000000000000, -1.000000000000000000, 0.000000000000000000 ) ) ;
#211 = DIRECTION ( 'NONE',  ( 0.000000000000000000, 0.000000000000000000, 1.000000000000000000 ) ) ;
#212 = CARTESIAN_POINT ( 'NONE',  ( -2.290089417367664846E-15, 114.4059898456803950, -18.69999920762550261 ) ) ;
#213 = ORIENTED_EDGE ( 'NONE', *, *, #900, .T. ) ;
#214 = EDGE_CURVE ( 'NONE', #576, #820, #837, .T. ) ;
#215 = CARTESIAN_POINT ( 'NONE',  ( -2.157446693704204943, 23.31053541617535174, 16.39400231358042603 ) ) ;
#216 = AXIS2_PLACEMENT_3D ( 'NONE', #161, #508, #529 ) ;
#217 = CARTESIAN_POINT ( 'NONE',  ( 7.605596224226134794, 22.61053541617530271, 14.68234104716743715 ) ) ;
#218 = CARTESIAN_POINT ( 'NONE',  ( -16.50000000000000000, 28.31053541617534819, 1.079922474671475063 ) ) ;
#219 = ORIENTED_EDGE ( 'NONE', *, *, #591, .F. ) ;
#220 = CARTESIAN_POINT ( 'NONE',  ( -15.65809918584607274, 23.31053541617535174, -5.314303150915574925 ) ) ;
#221 = CARTESIAN_POINT ( 'NONE',  ( 16.39400231362507299, 23.31053541617534819, 2.157446693568259466 ) ) ;
#222 = B_SPLINE_CURVE_WITH_KNOTS ( 'NONE', 3,
 ( #24, #581, #360, #512, #738, #329, #595, #816, #797, #106, #390, #604, #115, #382, #457, #743, #867, #46, #396, #178, #725, #102, #119, #811, #452, #672, #730, #186, #659, #879, #871, #734, #33, #50 ),
 .UNSPECIFIED., .F., .F.,
 ( 4, 2, 2, 2, 2, 2, 2, 2, 2, 2, 2, 2, 2, 2, 2, 2, 4 ),
 ( 0.000000000000000000, 0.06250000000000000000, 0.1250000000000000000, 0.1875000000000000000, 0.2500000000000000000, 0.3125000000000000000, 0.3750000000000000000, 0.4375000000000000000, 0.5000000000000000000, 0.5625000000000000000, 0.6250000000000000000, 0.6875000000000000000, 0.7500000000000000000, 0.8125000000000000000, 0.8750000000000000000, 0.9375000000000000000, 1.000000000000000000 ),
 .UNSPECIFIED. ) ;
#223 = CARTESIAN_POINT ( 'NONE',  ( -13.11927582209563603, 28.31053541617535174, -10.06483156615536778 ) ) ;
#224 = ORIENTED_EDGE ( 'NONE', *, *, #874, .F. ) ;
#225 = SURFACE_STYLE_USAGE ( .BOTH. , #486 ) ;
#226 = CARTESIAN_POINT ( 'NONE',  ( -0.7514514714323933253, 22.61053541617530271, 16.51821882762734361 ) ) ;
#227 = ADVANCED_FACE ( 'NONE', ( #42 ), #626, .T. ) ;
#228 = CARTESIAN_POINT ( 'NONE',  ( -5.524688988048000127, 23.31053541617529845, -15.26571391097230013 ) ) ;
#229 = CARTESIAN_POINT ( 'NONE',  ( -2.079675745560659739E-30, 25.31053541617534819, 18.69999920762550261 ) ) ;
#230 = CARTESIAN_POINT ( 'NONE',  ( 11.89706573307440074, 22.87720208284194712, 11.43283984593971958 ) ) ;
#231 = CARTESIAN_POINT ( 'NONE',  ( 16.39421195396847253, 23.31053541617535885, -2.157488393689043438 ) ) ;
#232 = CARTESIAN_POINT ( 'NONE',  ( -14.31922138388834931, 28.31053541617535529, 8.268986123491519180 ) ) ;
#233 = CARTESIAN_POINT ( 'NONE',  ( 1.027238797473936039E-14, 22.61053541617529916, -2.392168179970224751E-15 ) ) ;
#234 = CARTESIAN_POINT ( 'NONE',  ( 11.89706573307433857, 22.61053541617534890, 11.43283984593980129 ) ) ;
#235 = CARTESIAN_POINT ( 'NONE',  ( 2.156950241480010355, 23.31053541617534819, 16.39431904221777003 ) ) ;
#236 = CARTESIAN_POINT ( 'NONE',  ( 1.079922474671527244, 28.31053541617535885, -16.50000000000000711 ) ) ;
#237 = ORIENTED_EDGE ( 'NONE', *, *, #132, .T. ) ;
#238 = CARTESIAN_POINT ( 'NONE',  ( -11.89706573307433857, 22.74386874950864978, -11.43283984593976044 ) ) ;
#239 = DIRECTION ( 'NONE',  ( 1.000000000000000000, 0.000000000000000000, 0.000000000000000000 ) ) ;
#240 = FACE_OUTER_BOUND ( 'NONE', #763, .T. ) ;
#241 = CARTESIAN_POINT ( 'NONE',  ( 11.14878811495614563, 23.01053541617530485, 12.21150097732106588 ) ) ;
#242 = CARTESIAN_POINT ( 'NONE',  ( 12.00046493565579198, 22.34286734509235473, 11.53220439093217387 ) ) ;
#243 = CARTESIAN_POINT ( 'NONE',  ( 2.530723580607380008, 22.31053541617530200, 16.64465273586960237 ) ) ;
#244 = CARTESIAN_POINT ( 'NONE',  ( -6.735557395310439065E-16, 28.31053541617534819, 16.50000000000000000 ) ) ;
#245 = AXIS2_PLACEMENT_3D ( 'NONE', #280, #432, #645 ) ;
#246 = CARTESIAN_POINT ( 'NONE',  ( 7.605596224226122359, 23.01053541617530129, 14.68234104716744426 ) ) ;
#247 = CARTESIAN_POINT ( 'NONE',  ( 11.68075544701843960, 23.31053541617529845, 11.22497003055906006 ) ) ;
#248 = CARTESIAN_POINT ( 'NONE',  ( 5.729307098716499347, 22.31053541617530200, 15.83111072248975049 ) ) ;
#249 = CARTESIAN_POINT ( 'NONE',  ( -16.21788757621595067, 23.31053541617529845, -0.7377887174063140208 ) ) ;
#250 = CARTESIAN_POINT ( 'NONE',  ( -15.88400219743089892, 23.01053541617530485, 4.595074182568831489 ) ) ;
#251 = CARTESIAN_POINT ( 'NONE',  ( -14.74467112201475949, 22.31053541617529135, -11.64467159241527128 ) ) ;
#252 = CARTESIAN_POINT ( 'NONE',  ( 10.06676501957247716, 23.31053541617534819, 13.11785539387181032 ) ) ;
#253 = CARTESIAN_POINT ( 'NONE',  ( 10.90364138458209631, 28.31053541617534464, -12.43088239457397570 ) ) ;
#254 = B_SPLINE_CURVE_WITH_KNOTS ( 'NONE', 3,
 ( #19, #703, #8, #288, #308, #649, #153, #567, #493, #144, #439, #232, #842, #778, #78, #377, #218, #158, #298, #502, #847, #23, #498, #223, #856, #773, #434, #425, #429, #149, #575, #511, #707, #363 ),
 .UNSPECIFIED., .F., .F.,
 ( 4, 2, 2, 2, 2, 2, 2, 2, 2, 2, 2, 2, 2, 2, 2, 2, 4 ),
 ( 0.000000000000000000, 0.06250000000000002776, 0.1250000000000000555, 0.1875000000000000555, 0.2500000000000000555, 0.3125000000000000000, 0.3750000000000000000, 0.4374999999999999445, 0.4999999999999999445, 0.5624999999999998890, 0.6249999999999997780, 0.6874999999999998890, 0.7499999999999998890, 0.8124999999999998890, 0.8749999999999998890, 0.9375000000000000000, 1.000000000000000000 ),
 .UNSPECIFIED. ) ;
#255 = EDGE_CURVE ( 'NONE', #309, #857, #112, .T. ) ;
#256 = CARTESIAN_POINT ( 'NONE',  ( -7.015499311645974068, 23.01053541617530485, 14.97327626004392975 ) ) ;
#257 = CARTESIAN_POINT ( 'NONE',  ( -16.49118481928428182, 22.31053541617529490, 9.002473340576305105 ) ) ;
#258 = CARTESIAN_POINT ( 'NONE',  ( -6.173130595636865614, 22.31053541617529490, -17.69624942460447770 ) ) ;
#259 = CARTESIAN_POINT ( 'NONE',  ( -15.59520215747759941, 23.31053541617529845, 4.511527379249470115 ) ) ;
#260 = CARTESIAN_POINT ( 'NONE',  ( -6.045057302900459562E-31, -53.18946458382469444, -31.50000000000000000 ) ) ;
#261 = AXIS2_PLACEMENT_3D ( 'NONE', #665, #185, #182 ) ;
#262 = AXIS2_PLACEMENT_3D ( 'NONE', #753, #276, #687 ) ;
#263 = CARTESIAN_POINT ( 'NONE',  ( -15.81284254138807022, 22.31053541617529490, -10.14680805735709512 ) ) ;
#264 = CARTESIAN_POINT ( 'NONE',  ( 15.24551764659019959, 22.31053541617530200, 7.143053844584970058 ) ) ;
#265 = CARTESIAN_POINT ( 'NONE',  ( 7.467312656513000135, 23.31053541617529845, 14.41538939176435896 ) ) ;
#266 = CARTESIAN_POINT ( 'NONE',  ( 11.83028843061543611, 22.31053541617529845, -14.59616314789697533 ) ) ;
#267 = ORIENTED_EDGE ( 'NONE', *, *, #328, .F. ) ;
#268 = CARTESIAN_POINT ( 'NONE',  ( 12.87525868485058034, 22.31053541617530200, 10.84789105482320082 ) ) ;
#269 = CARTESIAN_POINT ( 'NONE',  ( 12.21150097732110318, 22.61053541617530271, -11.14878811495610300 ) ) ;
#270 = CARTESIAN_POINT ( 'NONE',  ( 7.127093352366023815, 22.31053541617529845, -17.38413769326046676 ) ) ;
#271 = ORIENTED_EDGE ( 'NONE', *, *, #148, .F. ) ;
#272 = CARTESIAN_POINT ( 'NONE',  ( 15.83111072248980022, 22.31053541617530200, -5.729307098716439839 ) ) ;
#273 = CARTESIAN_POINT ( 'NONE',  ( 16.05422497507515800, 22.61053541617530271, 3.959557172333002750 ) ) ;
#274 = DIRECTION ( 'NONE',  ( 0.000000000000000000, 0.000000000000000000, 1.000000000000000000 ) ) ;
#275 = ORIENTED_EDGE ( 'NONE', *, *, #105, .F. ) ;
#276 = DIRECTION ( 'NONE',  ( 0.000000000000000000, 1.000000000000000000, 0.000000000000000000 ) ) ;
#277 = CARTESIAN_POINT ( 'NONE',  ( -6.887944778706880378, 23.31053541617529845, 14.70103487349770077 ) ) ;
#278 = CARTESIAN_POINT ( 'NONE',  ( -2.079675745560659739E-30, 25.31053541617534819, -5.069299904597599897E-30 ) ) ;
#279 = ORIENTED_EDGE ( 'NONE', *, *, #54, .T. ) ;
#280 = CARTESIAN_POINT ( 'NONE',  ( -2.079675745560659739E-30, 114.4059898456803950, -5.069299904597599897E-30 ) ) ;
#281 = CARTESIAN_POINT ( 'NONE',  ( -16.05422497507515089, 22.61053541617530271, -3.959557172332968999 ) ) ;
#282 = CARTESIAN_POINT ( 'NONE',  ( -6.045057302900459562E-31, -53.18946458382469444, -5.892633960096210007E-30 ) ) ;
#283 = ADVANCED_FACE ( 'NONE', ( #36 ), #791, .T. ) ;
#284 = ORIENTED_EDGE ( 'NONE', *, *, #199, .F. ) ;
#285 = DIRECTION ( 'NONE',  ( 0.000000000000000000, 1.000000000000000000, 0.000000000000000000 ) ) ;
#286 = CARTESIAN_POINT ( 'NONE',  ( 10.06688377131914081, 23.31053541617535529, -13.11803311839260822 ) ) ;
#287 = B_SPLINE_CURVE_WITH_KNOTS ( 'NONE', 3,
 ( #234, #375, #660, #242, #94, #650 ),
 .UNSPECIFIED., .F., .F.,
 ( 4, 2, 4 ),
 ( 0.000000000000000000, 0.5000000000000000000, 1.000000000000000000 ),
 .UNSPECIFIED. ) ;
#288 = CARTESIAN_POINT ( 'NONE',  ( -4.278162380400550191, 28.31053541617534819, 15.97227470331718457 ) ) ;
#289 = VERTEX_POINT ( 'NONE', #446 ) ;
#290 = CARTESIAN_POINT ( 'NONE',  ( -13.11785539387103583, 23.31053541617535529, 10.06676501957114311 ) ) ;
#291 = CIRCLE ( 'NONE', #407, 31.50000000000000000 ) ;
#292 = CARTESIAN_POINT ( 'NONE',  ( -16.47525005109813634, 22.61053541617529916, 1.407966017022730831 ) ) ;
#293 = CARTESIAN_POINT ( 'NONE',  ( 11.89706573307433857, 23.01053541617530129, 11.43283984593980129 ) ) ;
#294 = VERTEX_POINT ( 'NONE', #724 ) ;
#295 = FILL_AREA_STYLE ('',( #21 ) ) ;
#296 = PRODUCT_RELATED_PRODUCT_CATEGORY ( 'part', '', ( #492 ) ) ;
#297 = CARTESIAN_POINT ( 'NONE',  ( -12.64534335119249420, 22.61053541617529916, -10.65417871455853494 ) ) ;
#298 = CARTESIAN_POINT ( 'NONE',  ( -16.39363954998941963, 28.31053541617535885, -2.159818246131707919 ) ) ;
#299 = CARTESIAN_POINT ( 'NONE',  ( 13.48334059282172070, 22.31053541617530200, 12.95721794302927954 ) ) ;
#300 = B_SPLINE_CURVE_WITH_KNOTS ( 'NONE', 3,
 ( #727, #392, #453, #107, #872, #386, #319, #326, #257, #812, #686, #47, #884, #617, #740, #263, #251, #188 ),
 .UNSPECIFIED., .F., .F.,
 ( 4, 2, 2, 2, 2, 2, 2, 2, 4 ),
 ( 0.000000000000000000, 0.1250000000000000555, 0.2500000000000000555, 0.3750000000000000555, 0.5000000000000000000, 0.6250000000000000000, 0.7500000000000001110, 0.8750000000000000000, 1.000000000000000000 ),
 .UNSPECIFIED. ) ;
#301 = PLANE ( 'NONE',  #101 ) ;
#302 = CARTESIAN_POINT ( 'NONE',  ( -14.15188107362252801, 22.61053541617530271, 8.552221619517613505 ) ) ;
#303 = CARTESIAN_POINT ( 'NONE',  ( 12.61380992614268948, 22.31053541617529845, 13.86205555448925963 ) ) ;
#304 = DIRECTION ( 'NONE',  ( 0.7210342868529900917, 0.000000000000000000, 0.6928993846024111836 ) ) ;
#305 = CARTESIAN_POINT ( 'NONE',  ( -11.89706573307432080, 23.01053541617530129, -11.43283984593980129 ) ) ;
#306 = CARTESIAN_POINT ( 'NONE',  ( -9.980055014872439401, 22.31053541617530200, 13.55903862518476011 ) ) ;
#307 = AXIS2_PLACEMENT_3D ( 'NONE', #594, #167, #381 ) ;
#308 = CARTESIAN_POINT ( 'NONE',  ( -5.316558362976057772, 28.31053541617535174, 15.65728072573172014 ) ) ;
#309 = VERTEX_POINT ( 'NONE', #589 ) ;
#310 = CYLINDRICAL_SURFACE ( 'NONE', #351, 31.50000000000000000 ) ;
#311 = CARTESIAN_POINT ( 'NONE',  ( -12.43352826781773857, 22.31053541617530200, 11.35149335340994092 ) ) ;
#312 = CARTESIAN_POINT ( 'NONE',  ( 15.65728072573173790, 28.31053541617535174, -5.316558362976005370 ) ) ;
#313 = CARTESIAN_POINT ( 'NONE',  ( -10.65417871455851362, 23.01053541617530129, 12.64534335119250841 ) ) ;
#314 = ADVANCED_FACE ( 'NONE', ( #240 ), #796, .T. ) ;
#315 = PLANE ( 'NONE',  #216 ) ;
#316 = CARTESIAN_POINT ( 'NONE',  ( 0.000000000000000000, 28.31053541617534819, -2.817238665454835388E-18 ) ) ;
#317 = CARTESIAN_POINT ( 'NONE',  ( 16.50000000000000711, 28.31053541617535174, -1.079922474671437094 ) ) ;
#318 = CARTESIAN_POINT ( 'NONE',  ( -16.05422497507515089, 23.01053541617530485, -3.959557172332964559 ) ) ;
#319 = CARTESIAN_POINT ( 'NONE',  ( -13.20108929354285721, 22.31053541617529490, 13.36917889982355589 ) ) ;
#320 = UNCERTAINTY_MEASURE_WITH_UNIT (LENGTH_MEASURE( 1.000000000000000082E-05 ), #474, 'distance_accuracy_value', 'NONE');
#321 = CARTESIAN_POINT ( 'NONE',  ( -12.11337601913021800, 22.31053541617530200, -11.64070966132049989 ) ) ;
#322 = CARTESIAN_POINT ( 'NONE',  ( 5.316558362975993823, 28.31053541617535174, 15.65728072573173790 ) ) ;
#323 = PRESENTATION_LAYER_ASSIGNMENT (  '', '', ( #767 ) ) ;
#324 = B_SPLINE_CURVE_WITH_KNOTS ( 'NONE', 3,
 ( #873, #669, #393, #805 ),
 .UNSPECIFIED., .F., .F.,
 ( 4, 4 ),
 ( 0.000000000000000000, 1.000000000000000000 ),
 .UNSPECIFIED. ) ;
#325 = CARTESIAN_POINT ( 'NONE',  ( -16.43336328472835461, 23.01053541617530129, -1.833249492961117832 ) ) ;
#326 = CARTESIAN_POINT ( 'NONE',  ( -15.53167818130221534, 22.31053541617529490, 10.57216514551488373 ) ) ;
#327 = CARTESIAN_POINT ( 'NONE',  ( 4.678620985888380268, 22.31053541617530200, 16.17280223738415046 ) ) ;
#328 = EDGE_CURVE ( 'NONE', #685, #759, #37, .T. ) ;
#329 = CARTESIAN_POINT ( 'NONE',  ( -5.626998043382162251, 23.01053541617530485, -15.54841231673104929 ) ) ;
#330 = CARTESIAN_POINT ( 'NONE',  ( 13.55903862518474057, 22.31053541617530200, 9.980055014872499797 ) ) ;
#331 = CARTESIAN_POINT ( 'NONE',  ( -1.799917683998089935, 23.31053541617529845, 16.13457486136969976 ) ) ;
#332 = CARTESIAN_POINT ( 'NONE',  ( 11.89706573307433857, 23.01053541617530129, 11.43283984593980129 ) ) ;
#333 = APPLICATION_PROTOCOL_DEFINITION ( 'draft international standard', 'automotive_design', 1998, #191 ) ;
#334 = CARTESIAN_POINT ( 'NONE',  ( -12.61380992614265395, 22.31053541617529135, -13.86205555448929339 ) ) ;
#335 = CARTESIAN_POINT ( 'NONE',  ( -13.48334059282169939, 22.31053541617530200, -12.95721794302930086 ) ) ;
#336 = CARTESIAN_POINT ( 'NONE',  ( 14.74467112201482522, 22.31053541617528779, 11.64467159241518601 ) ) ;
#337 = VECTOR ( 'NONE', #606, 1000.000000000000000 ) ;
#338 = ADVANCED_FACE ( 'NONE', ( #405 ), #882, .F. ) ;
#339 = VERTEX_POINT ( 'NONE', #207 ) ;
#340 = CARTESIAN_POINT ( 'NONE',  ( 12.11337601913023931, 22.31053541617530200, 11.64070966132049989 ) ) ;
#341 = CARTESIAN_POINT ( 'NONE',  ( -10.32383946825384591, 22.61053541617529916, -12.91644576441307635 ) ) ;
#342 = CARTESIAN_POINT ( 'NONE',  ( 3.640512351714116246, 22.31053541617529490, -18.43231870407508310 ) ) ;
#343 = ORIENTED_EDGE ( 'NONE', *, *, #702, .T. ) ;
#344 = CARTESIAN_POINT ( 'NONE',  ( -8.552221619517590412, 22.61053541617529206, -14.15188107362255288 ) ) ;
#345 = CARTESIAN_POINT ( 'NONE',  ( -6.045057302900459562E-31, -142.2849190133295849, -31.50000000000000000 ) ) ;
#346 = VERTEX_POINT ( 'NONE', #335 ) ;
#347 = CARTESIAN_POINT ( 'NONE',  ( -2.290089417367664846E-15, 25.31053541617534819, -18.69999920762550261 ) ) ;
#348 = CARTESIAN_POINT ( 'NONE',  ( 12.91644576441309411, 22.61053541617529916, -10.32383946825384236 ) ) ;
#349 = CARTESIAN_POINT ( 'NONE',  ( -4.511527379249449687, 23.31053541617529845, -15.59520215747759941 ) ) ;
#350 = EDGE_LOOP ( 'NONE', ( #426, #75, #699, #586 ) ) ;
#351 = AXIS2_PLACEMENT_3D ( 'NONE', #587, #448, #518 ) ;
#352 = CARTESIAN_POINT ( 'NONE',  ( -10.06676501957684522, 23.31053541617534819, -13.11785539386322696 ) ) ;
#353 = CARTESIAN_POINT ( 'NONE',  ( 13.11803311842842135, 23.31053541617534819, 10.06688377127819578 ) ) ;
#354 = EDGE_CURVE ( 'NONE', #56, #770, #808, .T. ) ;
#355 = DIRECTION ( 'NONE',  ( 0.000000000000000000, 1.000000000000000000, 0.000000000000000000 ) ) ;
#356 = ORIENTED_EDGE ( 'NONE', *, *, #39, .T. ) ;
#357 = FACE_OUTER_BOUND ( 'NONE', #133, .T. ) ;
#358 = CARTESIAN_POINT ( 'NONE',  ( 13.11785539386519517, 23.31053541617534464, -10.06676501958671643 ) ) ;
#359 = CARTESIAN_POINT ( 'NONE',  ( -11.89706573307432080, 23.01053541617530129, -11.43283984593980129 ) ) ;
#360 = CARTESIAN_POINT ( 'NONE',  ( -10.32383946825384768, 23.01053541617530129, -12.91644576441307812 ) ) ;
#361 = CARTESIAN_POINT ( 'NONE',  ( -10.90202219372748083, 23.31053541617534819, -12.43265272771663987 ) ) ;
#362 = CARTESIAN_POINT ( 'NONE',  ( 14.32064181211879905, 23.31053541617535174, -8.267052670060264674 ) ) ;
#363 = CARTESIAN_POINT ( 'NONE',  ( 1.347111479062089982E-15, 28.31053541617534819, -16.50000000000000000 ) ) ;
#364 = ORIENTED_EDGE ( 'NONE', *, *, #541, .F. ) ;
#365 = EDGE_CURVE ( 'NONE', #770, #56, #419, .T. ) ;
#366 = CYLINDRICAL_SURFACE ( 'NONE', #555, 16.49999999999999645 ) ;
#367 = CIRCLE ( 'NONE', #464, 31.50000000000000000 ) ;
#368 = CARTESIAN_POINT ( 'NONE',  ( 10.32383946825389209, 22.61053541617530271, 12.91644576441304970 ) ) ;
#369 = CARTESIAN_POINT ( 'NONE',  ( 13.48334059282172070, 22.31053541617530200, 12.95721794302927954 ) ) ;
#370 = EDGE_LOOP ( 'NONE', ( #690, #779 ) ) ;
#371 = CYLINDRICAL_SURFACE ( 'NONE', #245, 18.69999920762550261 ) ;
#372 = CARTESIAN_POINT ( 'NONE',  ( -14.97327626004392265, 22.61053541617530271, -7.015499311645990943 ) ) ;
#373 = CARTESIAN_POINT ( 'NONE',  ( 11.89706573307429771, 23.08907523251505012, 11.43283984593982794 ) ) ;
#374 = FACE_OUTER_BOUND ( 'NONE', #788, .T. ) ;
#375 = CARTESIAN_POINT ( 'NONE',  ( 11.89706573307433857, 22.53199559983555389, 11.43283984593977642 ) ) ;
#376 = CARTESIAN_POINT ( 'NONE',  ( 10.90202219375171389, 23.31053541617534819, 12.43265272770610608 ) ) ;
#377 = CARTESIAN_POINT ( 'NONE',  ( -16.39363954998942674, 28.31053541617535174, 2.159818246131672836 ) ) ;
#378 = B_SPLINE_CURVE_WITH_KNOTS ( 'NONE', 3,
 ( #444, #722, #735, #169 ),
 .UNSPECIFIED., .F., .F.,
 ( 4, 4 ),
 ( 0.000000000000000000, 1.000000000000000000 ),
 .UNSPECIFIED. ) ;
#379 = ORIENTED_EDGE ( 'NONE', *, *, #39, .F. ) ;
#380 = CARTESIAN_POINT ( 'NONE',  ( 12.11337601913023931, 22.31053541617530200, 11.64070966132049989 ) ) ;
#381 = DIRECTION ( 'NONE',  ( 0.7210342868529902027, 0.000000000000000000, 0.6928993846024111836 ) ) ;
#382 = CARTESIAN_POINT ( 'NONE',  ( 7.015499311646018477, 23.01053541617530485, -14.97327626004392620 ) ) ;
#383 = FACE_OUTER_BOUND ( 'NONE', #784, .T. ) ;
#384 = CARTESIAN_POINT ( 'NONE',  ( -12.41542801753450043, 23.31053541617529845, -10.46046637429378023 ) ) ;
#385 = CARTESIAN_POINT ( 'NONE',  ( 2.485532088096440440, 23.01053541617531195, 16.34742679415765210 ) ) ;
#386 = CARTESIAN_POINT ( 'NONE',  ( -11.83028843061542190, 22.31053541617529845, 14.59616314789698421 ) ) ;
#387 = B_SPLINE_CURVE_WITH_KNOTS ( 'NONE', 3,
 ( #709, #632, #215, #695, #714, #561, #700, #490, #423, #436, #290, #496, #569, #835, #72, #780, #771, #641, #565, #80, #220, #155, #76, #844, #17, #361, #352, #206, #636, #151, #577, #6, #11, #89 ),
 .UNSPECIFIED., .F., .F.,
 ( 4, 2, 2, 2, 2, 2, 2, 2, 2, 2, 2, 2, 2, 2, 2, 2, 4 ),
 ( 0.000000000000000000, 0.06250000000000002776, 0.1250000000000000555, 0.1875000000000000000, 0.2499999999999999445, 0.3124999999999998890, 0.3749999999999998890, 0.4374999999999998335, 0.4999999999999998335, 0.5624999999999997780, 0.6249999999999997780, 0.6874999999999998890, 0.7499999999999998890, 0.8124999999999998890, 0.8749999999999998890, 0.9375000000000000000, 1.000000000000000000 ),
 .UNSPECIFIED. ) ;
#388 = CARTESIAN_POINT ( 'NONE',  ( -14.74418275856663918, 22.31053541617530200, -8.127613507119990643 ) ) ;
#389 = CARTESIAN_POINT ( 'NONE',  ( -15.76232997552834725, 23.31053541617529845, -3.887565223745019782 ) ) ;
#390 = CARTESIAN_POINT ( 'NONE',  ( 1.833249492961136484, 23.01053541617530129, -16.43336328472837238 ) ) ;
#391 = ADVANCED_FACE ( 'NONE', ( #433 ), #781, .T. ) ;
#392 = CARTESIAN_POINT ( 'NONE',  ( -1.820366066739516953, 22.31053541617529490, 18.69999920787812897 ) ) ;
#393 = CARTESIAN_POINT ( 'NONE',  ( 0.000000000000000000, 26.64386874950869810, 16.50000000000000000 ) ) ;
#394 = CARTESIAN_POINT ( 'NONE',  ( 15.97227470331717747, 28.31053541617535529, 4.278162380400606146 ) ) ;
#395 = CIRCLE ( 'NONE', #726, 18.69999920762550261 ) ;
#396 = CARTESIAN_POINT ( 'NONE',  ( 12.91644576441309766, 23.01053541617530129, -10.32383946825384413 ) ) ;
#397 = CARTESIAN_POINT ( 'NONE',  ( 16.64465273586960237, 22.31053541617530200, -2.530723580607310286 ) ) ;
#398 = CARTESIAN_POINT ( 'NONE',  ( 4.278162380400480913, 28.31053541617535529, 15.97227470331720411 ) ) ;
#399 = CARTESIAN_POINT ( 'NONE',  ( -12.21150097732106232, 23.01053541617530485, 11.14878811495612787 ) ) ;
#400 = DIRECTION ( 'NONE',  ( 0.000000000000000000, 0.000000000000000000, 1.000000000000000000 ) ) ;
#401 = CARTESIAN_POINT ( 'NONE',  ( 10.84789105482320082, 22.31053541617530200, -12.87525868485059988 ) ) ;
#402 = CARTESIAN_POINT ( 'NONE',  ( 16.43336328472837238, 22.61053541617529916, 1.833249492961151361 ) ) ;
#403 = CARTESIAN_POINT ( 'NONE',  ( 14.21760480290354067, 23.31053541617529845, 7.837341596151440548 ) ) ;
#404 = CARTESIAN_POINT ( 'NONE',  ( -2.079675745560659739E-30, 25.31053541617534819, -5.069299904597599897E-30 ) ) ;
#405 = FACE_OUTER_BOUND ( 'NONE', #209, .T. ) ;
#406 = CARTESIAN_POINT ( 'NONE',  ( -2.079675745560659739E-30, 25.31053541617534819, -5.069299904597599897E-30 ) ) ;
#407 = AXIS2_PLACEMENT_3D ( 'NONE', #282, #123, #483 ) ;
#408 = B_SPLINE_CURVE_WITH_KNOTS ( 'NONE', 3,
 ( #638, #14, #443, #87, #373, #293 ),
 .UNSPECIFIED., .F., .F.,
 ( 4, 2, 4 ),
 ( 0.000000000000000000, 0.5000000000000000000, 1.000000000000000000 ),
 .UNSPECIFIED. ) ;
#409 = CARTESIAN_POINT ( 'NONE',  ( -11.65291410531573746, 22.31053541617529490, -14.67904553786573452 ) ) ;
#410 = CARTESIAN_POINT ( 'NONE',  ( 15.88400219743092379, 22.61053541617529916, -4.595074182568812837 ) ) ;
#411 = CARTESIAN_POINT ( 'NONE',  ( 15.47340700902164912, 23.31053541617529845, 4.913032175700789317 ) ) ;
#412 = ORIENTED_EDGE ( 'NONE', *, *, #187, .F. ) ;
#413 = CARTESIAN_POINT ( 'NONE',  ( 0.7651142254584220037, 22.31053541617530200, -16.81855007903875077 ) ) ;
#414 = DIRECTION ( 'NONE',  ( 0.000000000000000000, 0.000000000000000000, 1.000000000000000000 ) ) ;
#415 = CARTESIAN_POINT ( 'NONE',  ( -2.440340595585624772, 23.31053541617529845, -16.05020085244570183 ) ) ;
#416 = ORIENTED_EDGE ( 'NONE', *, *, #608, .F. ) ;
#417 = EDGE_CURVE ( 'NONE', #572, #140, #16, .T. ) ;
#418 = CARTESIAN_POINT ( 'NONE',  ( -11.68075544701843960, 23.31053541617534819, -11.22497003055904052 ) ) ;
#419 = B_SPLINE_CURVE_WITH_KNOTS ( 'NONE', 3,
 ( #510, #491, #368, #850, #217, #442, #424, #633, #12, #226, #642, #3, #566, #772, #22, #836, #776, #637, #766, #302, #152, #73, #701, #7, #292, #505, #18, #281, #81, #372, #143, #574, #297, #706 ),
 .UNSPECIFIED., .F., .F.,
 ( 4, 2, 2, 2, 2, 2, 2, 2, 2, 2, 2, 2, 2, 2, 2, 2, 4 ),
 ( 0.000000000000000000, 0.06249999999999995837, 0.1249999999999999167, 0.1874999999999999167, 0.2499999999999999445, 0.3124999999999999445, 0.3749999999999999445, 0.4375000000000000000, 0.5000000000000000000, 0.5625000000000000000, 0.6249999999999998890, 0.6875000000000000000, 0.7499999999999998890, 0.8124999999999998890, 0.8750000000000000000, 0.9375000000000000000, 1.000000000000000000 ),
 .UNSPECIFIED. ) ;
#420 = CARTESIAN_POINT ( 'NONE',  ( 0.7514514714324480593, 22.61053541617529916, -16.51821882762734361 ) ) ;
#421 = CARTESIAN_POINT ( 'NONE',  ( 8.793107110898274570, 22.31053541617529135, -16.60376373982265008 ) ) ;
#422 = EDGE_LOOP ( 'NONE', ( #168, #473, #154, #159 ) ) ;
#423 = CARTESIAN_POINT ( 'NONE',  ( -10.90187105144457291, 23.31053541617535174, 12.43250158541490080 ) ) ;
#424 = CARTESIAN_POINT ( 'NONE',  ( 4.595074182568865240, 22.61053541617530271, 15.88400219743089536 ) ) ;
#425 = CARTESIAN_POINT ( 'NONE',  ( -8.268986123491499640, 28.31053541617534464, -14.31922138388835286 ) ) ;
#426 = ORIENTED_EDGE ( 'NONE', *, *, #445, .T. ) ;
#427 = FACE_BOUND ( 'NONE', #20, .T. ) ;
#428 = CARTESIAN_POINT ( 'NONE',  ( 2.157446693654519798, 23.31053541617535174, -16.39400231359373805 ) ) ;
#429 = CARTESIAN_POINT ( 'NONE',  ( -7.311994905071886208, 28.31053541617535174, -14.83074384714075578 ) ) ;
#430 = ORIENTED_EDGE ( 'NONE', *, *, #591, .T. ) ;
#431 = B_SPLINE_CURVE_WITH_KNOTS ( 'NONE', 3,
 ( #131, #828, #127, #403, #139, #411, #625, #548, #823, #204, #65, #563, #758, #192, #559, #684, #136, #60, #832, #468, #693, #612, #891, #70, #621, #895, #415, #349, #228, #571, #506, #768, #163, #711 ),
 .UNSPECIFIED., .F., .F.,
 ( 4, 2, 2, 2, 2, 2, 2, 2, 2, 2, 2, 2, 2, 2, 2, 2, 4 ),
 ( 0.000000000000000000, 0.06250000000000000000, 0.1250000000000000000, 0.1875000000000000000, 0.2500000000000000000, 0.3125000000000000000, 0.3750000000000000000, 0.4375000000000000000, 0.5000000000000000000, 0.5625000000000000000, 0.6250000000000000000, 0.6875000000000000000, 0.7500000000000000000, 0.8125000000000000000, 0.8750000000000000000, 0.9375000000000000000, 1.000000000000000000 ),
 .UNSPECIFIED. ) ;
#432 = DIRECTION ( 'NONE',  ( 0.000000000000000000, -1.000000000000000000, 0.000000000000000000 ) ) ;
#433 = FACE_OUTER_BOUND ( 'NONE', #350, .T. ) ;
#434 = CARTESIAN_POINT ( 'NONE',  ( -10.06483156615532160, 28.31053541617535174, -13.11927582209567156 ) ) ;
#435 = ORIENTED_EDGE ( 'NONE', *, *, #445, .F. ) ;
#436 = CARTESIAN_POINT ( 'NONE',  ( -12.43265272771142982, 23.31053541617534819, 10.90202219374130266 ) ) ;
#437 = AXIS2_PLACEMENT_3D ( 'NONE', #504, #210, #146 ) ;
#438 = CARTESIAN_POINT ( 'NONE',  ( 16.49989312626383864, 23.31053541617535174, -1.082319230205044835 ) ) ;
#439 = CARTESIAN_POINT ( 'NONE',  ( -13.11927582209565912, 28.31053541617535174, 10.06483156615534114 ) ) ;
#440 = ORIENTED_EDGE ( 'NONE', *, *, #171, .F. ) ;
#441 =( NAMED_UNIT ( * ) PLANE_ANGLE_UNIT ( ) SI_UNIT ( $, .RADIAN. ) );
#442 = CARTESIAN_POINT ( 'NONE',  ( 5.626998043382208436, 22.61053541617530271, 15.54841231673103330 ) ) ;
#443 = CARTESIAN_POINT ( 'NONE',  ( 11.79366653049284785, 23.27820348725825284, 11.33347530094742517 ) ) ;
#444 = CARTESIAN_POINT ( 'NONE',  ( 1.347111479062089982E-15, 28.31053541617534819, -16.50000000000000000 ) ) ;
#445 = EDGE_CURVE ( 'NONE', #140, #857, #324, .T. ) ;
#446 = CARTESIAN_POINT ( 'NONE',  ( -3.857637417314165055E-15, 25.31053541617534819, 31.50000000000000000 ) ) ;
#447 = CARTESIAN_POINT ( 'NONE',  ( -7.982477551635748902, 23.01053541617530129, 14.48089378073507127 ) ) ;
#448 = DIRECTION ( 'NONE',  ( 0.000000000000000000, 1.000000000000000000, 0.000000000000000000 ) ) ;
#449 = TOROIDAL_SURFACE ( 'NONE', #57, 16.80000000000000071, 0.2999999999999999889 ) ;
#450 = CARTESIAN_POINT ( 'NONE',  ( 10.51154564040401951, 22.31053541617530200, 13.15129023285687992 ) ) ;
#451 = DIRECTION ( 'NONE',  ( -0.000000000000000000, 1.000000000000000000, 0.000000000000000000 ) ) ;
#452 = CARTESIAN_POINT ( 'NONE',  ( 16.47525005109816121, 23.01053541617530129, -1.407966017022694638 ) ) ;
#453 = CARTESIAN_POINT ( 'NONE',  ( -3.640512351714082939, 22.31053541617529490, 18.43231870407508666 ) ) ;
#454 = CARTESIAN_POINT ( 'NONE',  ( -16.34611997462199895, 22.31053541617530200, -4.031549120920759677 ) ) ;
#455 = CARTESIAN_POINT ( 'NONE',  ( -14.21760480290354067, 23.31053541617529845, -7.837341596151419232 ) ) ;
#456 = ADVANCED_FACE ( 'NONE', ( #459, #383 ), #651, .F. ) ;
#457 = CARTESIAN_POINT ( 'NONE',  ( 7.982477551635792423, 23.01053541617530129, -14.48089378073506595 ) ) ;
#458 = CARTESIAN_POINT ( 'NONE',  ( -12.05674611866609425, 22.31053541617530200, -11.58628947091192707 ) ) ;
#459 = FACE_BOUND ( 'NONE', #717, .T. ) ;
#460 = CARTESIAN_POINT ( 'NONE',  ( 10.90364138458201460, 28.31053541617535174, 12.43088239457404676 ) ) ;
#461 = CARTESIAN_POINT ( 'NONE',  ( -12.64534335119248887, 23.01053541617529419, -10.65417871455853316 ) ) ;
#462 = CARTESIAN_POINT ( 'NONE',  ( -1.433565399150465991, 22.31053541617530200, -16.77480005202720292 ) ) ;
#463 = CARTESIAN_POINT ( 'NONE',  ( 15.97227470331720767, 28.31053541617535529, -4.278162380400496900 ) ) ;
#464 = AXIS2_PLACEMENT_3D ( 'NONE', #849, #285, #705 ) ;
#465 = CARTESIAN_POINT ( 'NONE',  ( -14.68234104716743893, 23.01053541617530129, 7.605596224226101043 ) ) ;
#466 = CARTESIAN_POINT ( 'NONE',  ( 1.866581301924000069, 22.31053541617530200, -16.73215170808704855 ) ) ;
#467 = CARTESIAN_POINT ( 'NONE',  ( -1.407966017022709293, 22.61053541617529561, -16.47525005109815055 ) ) ;
#468 = CARTESIAN_POINT ( 'NONE',  ( 7.837341596151440548, 23.31053541617529845, -14.21760480290354067 ) ) ;
#469 = CARTESIAN_POINT ( 'NONE',  ( 8.127613507120010183, 22.31053541617530200, -14.74418275856663918 ) ) ;
#470 = ADVANCED_FACE ( 'NONE', ( #795 ), #449, .F. ) ;
#471 = CARTESIAN_POINT ( 'NONE',  ( -11.98947368682425996, 23.31053541617529845, 10.94608287650243916 ) ) ;
#472 = CARTESIAN_POINT ( 'NONE',  ( 18.78666302138626776, 22.31053541617529490, -0.2549421747321686804 ) ) ;
#473 = ORIENTED_EDGE ( 'NONE', *, *, #845, .T. ) ;
#474 =( LENGTH_UNIT ( ) NAMED_UNIT ( * ) SI_UNIT ( .MILLI., .METRE. ) );
#475 = CARTESIAN_POINT ( 'NONE',  ( -1.254916208326734894, 22.31053541617529845, -18.69999920745135924 ) ) ;
#476 = CARTESIAN_POINT ( 'NONE',  ( 14.15188107362257242, 22.61053541617530271, -8.552221619517585083 ) ) ;
#477 = CARTESIAN_POINT ( 'NONE',  ( 17.47291792303105140, 22.31053541617529490, 6.906579634421033731 ) ) ;
#478 = COLOUR_RGB ( '',0.7921568627450980005, 0.8196078431372548767, 0.9333333333333333481 ) ;
#479 = ORIENTED_EDGE ( 'NONE', *, *, #862, .F. ) ;
#480 = CARTESIAN_POINT ( 'NONE',  ( 13.15129023285691900, 22.31053541617530200, -10.51154564040398043 ) ) ;
#481 = B_SPLINE_CURVE_WITH_KNOTS ( 'NONE', 3,
 ( #380, #170, #450, #166, #719, #248, #327, #243, #96, #44, #656, #728, #736, #865, #103, #306, #31, #311, #113, #588, #593, #877, #869, #584, #520, #525, #801, #454, #732, #108, #388, #664, #41, #321 ),
 .UNSPECIFIED., .F., .F.,
 ( 4, 2, 2, 2, 2, 2, 2, 2, 2, 2, 2, 2, 2, 2, 2, 2, 4 ),
 ( 0.000000000000000000, 0.06250000000000000000, 0.1250000000000000000, 0.1875000000000000000, 0.2500000000000000000, 0.3125000000000000000, 0.3750000000000000000, 0.4375000000000000000, 0.5000000000000000000, 0.5625000000000000000, 0.6250000000000000000, 0.6875000000000000000, 0.7500000000000000000, 0.8125000000000000000, 0.8750000000000000000, 0.9375000000000000000, 1.000000000000000000 ),
 .UNSPECIFIED. ) ;
#482 = CARTESIAN_POINT ( 'NONE',  ( -7.837341596151389922, 23.31053541617529845, 14.21760480290356021 ) ) ;
#483 = DIRECTION ( 'NONE',  ( 0.000000000000000000, 0.000000000000000000, -1.000000000000000000 ) ) ;
#484 = ADVANCED_FACE ( 'NONE', ( #661 ), #99, .T. ) ;
#485 = ORIENTED_EDGE ( 'NONE', *, *, #417, .T. ) ;
#486 = SURFACE_SIDE_STYLE ('',( #573 ) ) ;
#487 = CARTESIAN_POINT ( 'NONE',  ( -5.626998043382160475, 22.61053541617530271, -15.54841231673104218 ) ) ;
#488 = DIRECTION ( 'NONE',  ( 0.000000000000000000, 0.000000000000000000, 1.000000000000000000 ) ) ;
#489 = ORIENTED_EDGE ( 'NONE', *, *, #199, .T. ) ;
#490 = CARTESIAN_POINT ( 'NONE',  ( -10.06688377130199896, 23.31053541617534819, 13.11803311840982111 ) ) ;
#491 = CARTESIAN_POINT ( 'NONE',  ( 11.14878811495615452, 22.61053541617529206, 12.21150097732105166 ) ) ;
#492 = PRODUCT ( 'ASV1_400_17X_1_1.STEP', 'ASV1_400_17X_1_1.STEP', '', ( #601 ) ) ;
#493 = CARTESIAN_POINT ( 'NONE',  ( -10.90364138458207499, 28.31053541617534819, 12.43088239457399702 ) ) ;
#494 = AXIS2_PLACEMENT_3D ( 'NONE', #406, #697, #274 ) ;
#495 = EDGE_LOOP ( 'NONE', ( #224, #356, #556, #834 ) ) ;
#496 = CARTESIAN_POINT ( 'NONE',  ( -14.32064181211292819, 23.31053541617534819, 8.267052670075781151 ) ) ;
#497 = CARTESIAN_POINT ( 'NONE',  ( 5.314303150887476512, 23.31053541617535174, -15.65809918585965654 ) ) ;
#498 = CARTESIAN_POINT ( 'NONE',  ( -14.31922138388834043, 28.31053541617535885, -8.268986123491547602 ) ) ;
#499 = EDGE_LOOP ( 'NONE', ( #61, #853 ) ) ;
#500 = CARTESIAN_POINT ( 'NONE',  ( -6.045057302900459562E-31, -142.2849190133295849, -5.892633960096210007E-30 ) ) ;
#501 = CARTESIAN_POINT ( 'NONE',  ( 15.97191193968153300, 23.31053541617534464, 4.280533932963879629 ) ) ;
#502 = CARTESIAN_POINT ( 'NONE',  ( -15.97227470331718457, 28.31053541617534819, -4.278162380400563514 ) ) ;
#503 = ORIENTED_EDGE ( 'NONE', *, *, #67, .F. ) ;
#504 = CARTESIAN_POINT ( 'NONE',  ( 1.027238797473936039E-14, 23.01053541617530129, -2.392168179970224751E-15 ) ) ;
#505 = CARTESIAN_POINT ( 'NONE',  ( -16.51821882762733296, 22.61053541617530271, -0.7514514714324248557 ) ) ;
#506 = CARTESIAN_POINT ( 'NONE',  ( -8.396726680980970414, 23.31053541617529845, -13.89457414501119992 ) ) ;
#507 = ORIENTED_EDGE ( 'NONE', *, *, #833, .F. ) ;
#508 = DIRECTION ( 'NONE',  ( 0.000000000000000000, -1.000000000000000000, 0.000000000000000000 ) ) ;
#509 =( GEOMETRIC_REPRESENTATION_CONTEXT ( 3 ) GLOBAL_UNCERTAINTY_ASSIGNED_CONTEXT ( ( #320 ) ) GLOBAL_UNIT_ASSIGNED_CONTEXT ( ( #474, #681, #605 ) ) REPRESENTATION_CONTEXT ( 'NONE', 'WORKASPACE' ) );
#510 = CARTESIAN_POINT ( 'NONE',  ( 11.89706573307433857, 22.61053541617534890, 11.43283984593980129 ) ) ;
#511 = CARTESIAN_POINT ( 'NONE',  ( -2.159818246131656405, 28.31053541617534464, -16.39363954998941963 ) ) ;
#512 = CARTESIAN_POINT ( 'NONE',  ( -8.552221619517592188, 23.01053541617529774, -14.15188107362255288 ) ) ;
#513 = EDGE_CURVE ( 'NONE', #545, #339, #481, .T. ) ;
#514 = CARTESIAN_POINT ( 'NONE',  ( -6.735557395310439065E-16, 28.31053541617534819, 16.50000000000000000 ) ) ;
#515 = CARTESIAN_POINT ( 'NONE',  ( 1.027238797473936039E-14, 22.61053541617529916, -2.392168179970224751E-15 ) ) ;
#516 = CARTESIAN_POINT ( 'NONE',  ( 16.39363954998941253, 28.31053541617535529, 2.159818246131745667 ) ) ;
#517 = VERTEX_POINT ( 'NONE', #598 ) ;
#518 = DIRECTION ( 'NONE',  ( 0.000000000000000000, 0.000000000000000000, -1.000000000000000000 ) ) ;
#519 = UNCERTAINTY_MEASURE_WITH_UNIT (LENGTH_MEASURE( 1.000000000000000082E-05 ), #30, 'distance_accuracy_value', 'NONE');
#520 = CARTESIAN_POINT ( 'NONE',  ( -16.77480005202720292, 22.31053541617530200, 1.433565399150487973 ) ) ;
#521 = CARTESIAN_POINT ( 'NONE',  ( 15.65728072573170593, 28.31053541617535885, 5.316558362976110175 ) ) ;
#522 = CARTESIAN_POINT ( 'NONE',  ( -3.959557172332946351, 23.01053541617529774, 16.05422497507515800 ) ) ;
#523 = DIRECTION ( 'NONE',  ( 0.7210342868529902027, 0.000000000000000000, 0.6928993846024111836 ) ) ;
#524 = CIRCLE ( 'NONE', #262, 31.50000000000000000 ) ;
#525 = CARTESIAN_POINT ( 'NONE',  ( -16.81855007903875077, 22.31053541617530200, -0.7651142254583990221 ) ) ;
#526 = ADVANCED_FACE ( 'NONE', ( #825 ), #551, .F. ) ;
#527 = CARTESIAN_POINT ( 'NONE',  ( -13.07478724571386053, 23.31053541617529845, -9.623624478627018419 ) ) ;
#528 = CARTESIAN_POINT ( 'NONE',  ( -0.7514514714324073141, 23.01053541617530485, 16.51821882762734006 ) ) ;
#529 = DIRECTION ( 'NONE',  ( 0.000000000000000000, 0.000000000000000000, -1.000000000000000000 ) ) ;
#530 = CARTESIAN_POINT ( 'NONE',  ( 8.267052670074502174, 23.31053541617534819, 14.32064181211219100 ) ) ;
#531 = CARTESIAN_POINT ( 'NONE',  ( -16.17570005016909818, 23.31053541617529845, 1.382366634895111801 ) ) ;
#532 = CARTESIAN_POINT ( 'NONE',  ( -15.75995158326276879, 23.01053541617529774, -5.004014253028622683 ) ) ;
#533 = CARTESIAN_POINT ( 'NONE',  ( 0.000000000000000000, 23.31053541617534819, -2.817238665454835388E-18 ) ) ;
#534 = CARTESIAN_POINT ( 'NONE',  ( 10.06483156615538022, 28.31053541617535529, -13.11927582209562360 ) ) ;
#535 = CARTESIAN_POINT ( 'NONE',  ( -15.54841231673103685, 23.01053541617530485, 5.626998043382173798 ) ) ;
#536 = DIRECTION ( 'NONE',  ( 1.000000000000000000, 0.000000000000000000, 0.000000000000000000 ) ) ;
#537 = B_SPLINE_CURVE_WITH_KNOTS ( 'NONE', 3,
 ( #756, #334, #409, #886, #134, #258, #62, #197, #475, #189 ),
 .UNSPECIFIED., .F., .F.,
 ( 4, 2, 2, 2, 4 ),
 ( 0.000000000000000000, 0.2499999999999998335, 0.4999999999999998890, 0.7499999999999998890, 1.000000000000000000 ),
 .UNSPECIFIED. ) ;
#538 = CARTESIAN_POINT ( 'NONE',  ( -0.7377887174062730535, 23.31053541617529845, 16.21788757621595067 ) ) ;
#539 = AXIS2_PLACEMENT_3D ( 'NONE', #404, #129, #48 ) ;
#540 = CARTESIAN_POINT ( 'NONE',  ( 10.32383946825388499, 23.01053541617530129, 12.91644576441305858 ) ) ;
#541 = EDGE_CURVE ( 'NONE', #339, #545, #646, .T. ) ;
#542 = CARTESIAN_POINT ( 'NONE',  ( -11.35149335340990184, 22.31053541617530200, -12.43352826781777942 ) ) ;
#543 = CARTESIAN_POINT ( 'NONE',  ( 10.94608287650246048, 23.31053541617529845, 11.98947368682425996 ) ) ;
#544 = CARTESIAN_POINT ( 'NONE',  ( 18.72153365959602311, 22.31053541617529490, 1.583628878302155707 ) ) ;
#545 = VERTEX_POINT ( 'NONE', #340 ) ;
#546 = CARTESIAN_POINT ( 'NONE',  ( 16.73215170808709829, 22.31053541617530200, 1.866581301924000069 ) ) ;
#547 = CARTESIAN_POINT ( 'NONE',  ( 2.440340595585689609, 23.31053541617529845, 16.05020085244565209 ) ) ;
#548 = CARTESIAN_POINT ( 'NONE',  ( 16.13457486136969976, 23.31053541617529845, 1.799917683998144780 ) ) ;
#549 = ORIENTED_EDGE ( 'NONE', *, *, #105, .T. ) ;
#550 = B_SPLINE_CURVE_WITH_KNOTS ( 'NONE', 3,
 ( #332, #241, #540, #590, #246, #609, #174, #385, #663, #528, #803, #522, #883, #256, #447, #876, #313, #399, #38, #110, #465, #535, #250, #666, #43, #676, #325, #318, #532, #600, #807, #183, #461, #689 ),
 .UNSPECIFIED., .F., .F.,
 ( 4, 2, 2, 2, 2, 2, 2, 2, 2, 2, 2, 2, 2, 2, 2, 2, 4 ),
 ( 0.000000000000000000, 0.06250000000000002776, 0.1250000000000000555, 0.1875000000000000833, 0.2500000000000001110, 0.3125000000000001110, 0.3750000000000001665, 0.4375000000000002220, 0.5000000000000002220, 0.5625000000000002220, 0.6250000000000002220, 0.6875000000000003331, 0.7500000000000003331, 0.8125000000000002220, 0.8750000000000001110, 0.9375000000000001110, 1.000000000000000000 ),
 .UNSPECIFIED. ) ;
#551 = PLANE ( 'NONE',  #668 ) ;
#552 = CARTESIAN_POINT ( 'NONE',  ( 14.97327626004392442, 22.61053541617530271, 7.015499311646014924 ) ) ;
#553 = EDGE_CURVE ( 'NONE', #289, #1, #783, .T. ) ;
#554 = CARTESIAN_POINT ( 'NONE',  ( -3.857637417314165055E-15, -142.2849190133295849, 31.50000000000000000 ) ) ;
#555 = AXIS2_PLACEMENT_3D ( 'NONE', #793, #731, #523 ) ;
#556 = ORIENTED_EDGE ( 'NONE', *, *, #845, .F. ) ;
#557 = FACE_OUTER_BOUND ( 'NONE', #568, .T. ) ;
#558 = CARTESIAN_POINT ( 'NONE',  ( -15.26571391097224861, 23.31053541617529845, 5.524688988048019667 ) ) ;
#559 = CARTESIAN_POINT ( 'NONE',  ( 13.89457414501121946, 23.31053541617529845, -8.396726680980970414 ) ) ;
#560 = ORIENTED_EDGE ( 'NONE', *, *, #365, .T. ) ;
#561 = CARTESIAN_POINT ( 'NONE',  ( -7.314250117109269311, 23.31053541617534464, 14.82992538704127128 ) ) ;
#562 = CARTESIAN_POINT ( 'NONE',  ( 12.43250158540440786, 23.31053541617534819, 10.90187105144989310 ) ) ;
#563 = CARTESIAN_POINT ( 'NONE',  ( 15.59520215747759941, 23.31053541617529845, -4.511527379249439917 ) ) ;
#564 = ORIENTED_EDGE ( 'NONE', *, *, #354, .T. ) ;
#565 = CARTESIAN_POINT ( 'NONE',  ( -16.39400231359570626, 23.31053541617535174, -2.157446693654512249 ) ) ;
#566 = CARTESIAN_POINT ( 'NONE',  ( -5.004014253028594261, 22.61053541617529916, 15.75995158326277590 ) ) ;
#567 = CARTESIAN_POINT ( 'NONE',  ( -10.06483156615535535, 28.31053541617535174, 13.11927582209564669 ) ) ;
#568 = EDGE_LOOP ( 'NONE', ( #15, #896, #271, #98 ) ) ;
#569 = CARTESIAN_POINT ( 'NONE',  ( -14.82972791008119806, 23.31053541617534819, 7.314168319556905828 ) ) ;
#570 = DIRECTION ( 'NONE',  ( 0.000000000000000000, -1.000000000000000000, 0.000000000000000000 ) ) ;
#571 = CARTESIAN_POINT ( 'NONE',  ( -7.467312656512940627, 23.31053541617529845, -14.41538939176439982 ) ) ;
#572 = VERTEX_POINT ( 'NONE', #613 ) ;
#573 = SURFACE_STYLE_FILL_AREA ( #295 ) ;
#574 = CARTESIAN_POINT ( 'NONE',  ( -13.31691293544926502, 22.61053541617530271, -9.801839746749802629 ) ) ;
#575 = CARTESIAN_POINT ( 'NONE',  ( -4.278162380400518217, 28.31053541617535529, -15.97227470331720056 ) ) ;
#576 = VERTEX_POINT ( 'NONE', #347 ) ;
#577 = CARTESIAN_POINT ( 'NONE',  ( -4.281030385070225819, 23.31053541617535174, -15.97159521108883595 ) ) ;
#578 = CARTESIAN_POINT ( 'NONE',  ( 0.000000000000000000, 28.31053541617534819, -2.817238665454835388E-18 ) ) ;
#579 = EDGE_CURVE ( 'NONE', #9, #517, #821, .T. ) ;
#580 = CARTESIAN_POINT ( 'NONE',  ( 4.968938915077315777, 22.31053541617529845, 18.07137048225266440 ) ) ;
#581 = CARTESIAN_POINT ( 'NONE',  ( -11.14878811495611011, 23.01053541617529774, -12.21150097732108364 ) ) ;
#582 = B_SPLINE_CURVE_WITH_KNOTS ( 'NONE', 3,
 ( #864, #458, #592, #854, #25, #667 ),
 .UNSPECIFIED., .F., .F.,
 ( 4, 2, 4 ),
 ( 0.000000000000000000, 0.5000000000000000000, 1.000000000000000000 ),
 .UNSPECIFIED. ) ;
#583 = AXIS2_PLACEMENT_3D ( 'NONE', #744, #400, #677 ) ;
#584 = CARTESIAN_POINT ( 'NONE',  ( -16.64465273586960237, 22.31053541617530200, 2.530723580607340484 ) ) ;
#585 = CARTESIAN_POINT ( 'NONE',  ( 2.159818246131724351, 28.31053541617535174, -16.39363954998940898 ) ) ;
#586 = ORIENTED_EDGE ( 'NONE', *, *, #702, .F. ) ;
#587 = CARTESIAN_POINT ( 'NONE',  ( -6.045057302900459562E-31, -142.2849190133295849, -5.892633960096210007E-30 ) ) ;
#588 = CARTESIAN_POINT ( 'NONE',  ( -14.40918800223379925, 22.31053541617530200, 8.707716558054368505 ) ) ;
#589 = CARTESIAN_POINT ( 'NONE',  ( 1.347111479062089982E-15, 28.31053541617534819, -16.50000000000000000 ) ) ;
#590 = CARTESIAN_POINT ( 'NONE',  ( 8.552221619517633044, 23.01053541617529774, 14.15188107362254044 ) ) ;
#591 = EDGE_CURVE ( 'NONE', #346, #820, #537, .T. ) ;
#592 = CARTESIAN_POINT ( 'NONE',  ( -12.00046493565574401, 22.34286734509236894, -11.53220439093220051 ) ) ;
#593 = CARTESIAN_POINT ( 'NONE',  ( -14.94929270257044074, 22.31053541617530200, 7.743879791939369817 ) ) ;
#594 = CARTESIAN_POINT ( 'NONE',  ( 1.027238797473936039E-14, 20.81053541617530200, -2.392168179970224751E-15 ) ) ;
#595 = CARTESIAN_POINT ( 'NONE',  ( -4.595074182568808396, 23.01053541617530129, -15.88400219743092023 ) ) ;
#596 = FACE_OUTER_BOUND ( 'NONE', #499, .T. ) ;
#597 = MECHANICAL_DESIGN_GEOMETRIC_PRESENTATION_REPRESENTATION (  '', ( #767 ), #826 ) ;
#598 = CARTESIAN_POINT ( 'NONE',  ( 2.595055269651534609E-09, 22.31053541617530200, 18.70000967101779921 ) ) ;
#599 = CARTESIAN_POINT ( 'NONE',  ( -16.13457486136965002, 23.31053541617529845, -1.799917683998109919 ) ) ;
#600 = CARTESIAN_POINT ( 'NONE',  ( -14.97327626004391909, 23.01053541617530129, -7.015499311645990943 ) ) ;
#601 = PRODUCT_CONTEXT ( 'NONE', #64, 'mechanical' ) ;
#602 = CARTESIAN_POINT ( 'NONE',  ( 4.281030385052270404, 23.31053541617534819, 15.97159521108883595 ) ) ;
#603 = CARTESIAN_POINT ( 'NONE',  ( 14.83074384714071670, 28.31053541617534819, 7.311994905071965256 ) ) ;
#604 = CARTESIAN_POINT ( 'NONE',  ( 3.959557172332987207, 23.01053541617530485, -16.05422497507516155 ) ) ;
#605 =( NAMED_UNIT ( * ) SI_UNIT ( $, .STERADIAN. ) SOLID_ANGLE_UNIT ( ) );
#606 = DIRECTION ( 'NONE',  ( 0.000000000000000000, -1.000000000000000000, 0.000000000000000000 ) ) ;
#607 = CARTESIAN_POINT ( 'NONE',  ( -2.485532088096395587, 22.61053541617530271, -16.34742679415765565 ) ) ;
#608 = EDGE_CURVE ( 'NONE', #1, #289, #524, .T. ) ;
#609 = CARTESIAN_POINT ( 'NONE',  ( 5.626998043382196002, 23.01053541617531195, 15.54841231673104218 ) ) ;
#610 = CARTESIAN_POINT ( 'NONE',  ( 7.143053844584970058, 22.31053541617530200, -15.24551764659019959 ) ) ;
#611 = CARTESIAN_POINT ( 'NONE',  ( 15.75995158326277590, 22.61053541617529916, 5.004014253028649328 ) ) ;
#612 = CARTESIAN_POINT ( 'NONE',  ( 4.913032175700789317, 23.31053541617529845, -15.47340700902164912 ) ) ;
#613 = CARTESIAN_POINT ( 'NONE',  ( 1.347111479062089982E-15, 23.31053541617534819, -16.50000000000000000 ) ) ;
#614 = CARTESIAN_POINT ( 'NONE',  ( -7.605596224226086832, 22.61053541617529916, -14.68234104716744959 ) ) ;
#615 = LINE ( 'NONE', #345, #798 ) ;
#616 = EDGE_LOOP ( 'NONE', ( #694, #640, #279, #489, #201 ) ) ;
#617 = CARTESIAN_POINT ( 'NONE',  ( -18.06462145381976114, 22.31053541617530200, -5.164605959971594551 ) ) ;
#618 = ADVANCED_FACE ( 'NONE', ( #557 ), #116, .T. ) ;
#619 = CARTESIAN_POINT ( 'NONE',  ( -11.89706573307432080, 23.01053541617530129, -11.43283984593980129 ) ) ;
#620 = CARTESIAN_POINT ( 'NONE',  ( 16.34742679415766631, 22.61053541617530271, -2.485532088096400916 ) ) ;
#621 = CARTESIAN_POINT ( 'NONE',  ( 0.7377887174063350040, 23.31053541617529845, -16.21788757621595067 ) ) ;
#622 = ORIENTED_EDGE ( 'NONE', *, *, #121, .F. ) ;
#623 = CARTESIAN_POINT ( 'NONE',  ( -2.079675745560659739E-30, 114.4059898456803950, 18.69999920762550261 ) ) ;
#624 = CARTESIAN_POINT ( 'NONE',  ( 12.64534335119249242, 22.61053541617529916, 10.65417871455855447 ) ) ;
#625 = CARTESIAN_POINT ( 'NONE',  ( 15.76232997552834725, 23.31053541617529845, 3.887565223745054865 ) ) ;
#626 = TOROIDAL_SURFACE ( 'NONE', #261, 16.19999999999999929, 0.2999999999999999889 ) ;
#627 = VERTEX_POINT ( 'NONE', #619 ) ;
#628 = FACE_OUTER_BOUND ( 'NONE', #752, .T. ) ;
#629 = CARTESIAN_POINT ( 'NONE',  ( 8.266933918327620034, 23.31053541617535529, -14.32046408759143752 ) ) ;
#630 = CARTESIAN_POINT ( 'NONE',  ( 17.91782375689771456, 22.31053541617529490, -5.652901450435086517 ) ) ;
#631 = ORIENTED_EDGE ( 'NONE', *, *, #513, .T. ) ;
#632 = CARTESIAN_POINT ( 'NONE',  ( -1.082856798086139882, 23.31053541617534819, 16.50000000000000355 ) ) ;
#633 = CARTESIAN_POINT ( 'NONE',  ( 2.485532088096453318, 22.61053541617530271, 16.34742679415764854 ) ) ;
#634 = CARTESIAN_POINT ( 'NONE',  ( -11.68075544701843960, 23.31053541617534819, -11.22497003055904052 ) ) ;
#635 = ORIENTED_EDGE ( 'NONE', *, *, #750, .F. ) ;
#636 = CARTESIAN_POINT ( 'NONE',  ( -7.314168375989173576, 23.31053541617534819, -14.82972788670506681 ) ) ;
#637 = CARTESIAN_POINT ( 'NONE',  ( -12.21150097732105699, 22.61053541617530271, 11.14878811495612609 ) ) ;
#638 = CARTESIAN_POINT ( 'NONE',  ( 11.68075544701843960, 23.31053541617529845, 11.22497003055906006 ) ) ;
#639 = AXIS2_PLACEMENT_3D ( 'NONE', #500, #839, #775 ) ;
#640 = ORIENTED_EDGE ( 'NONE', *, *, #214, .T. ) ;
#641 = CARTESIAN_POINT ( 'NONE',  ( -16.50010687373958262, 23.31053541617535529, -1.082319230126041809 ) ) ;
#642 = CARTESIAN_POINT ( 'NONE',  ( -1.833249492961080973, 22.61053541617529916, 16.43336328472836172 ) ) ;
#643 = CARTESIAN_POINT ( 'NONE',  ( -11.87375330376503513, 23.16713141380428453, -11.41043707229015070 ) ) ;
#644 = CARTESIAN_POINT ( 'NONE',  ( -6.045057302900459562E-31, 25.31053541617534819, -31.50000000000000000 ) ) ;
#645 = DIRECTION ( 'NONE',  ( 0.000000000000000000, 0.000000000000000000, 1.000000000000000000 ) ) ;
#646 = B_SPLINE_CURVE_WITH_KNOTS ( 'NONE', 3,
 ( #120, #542, #817, #881, #897, #893, #68, #889, #462, #413, #466, #193, #202, #610, #469, #117, #401, #678, #480, #814, #748, #272, #682, #397, #741, #58, #546, #673, #52, #264, #691, #330, #268, #125 ),
 .UNSPECIFIED., .F., .F.,
 ( 4, 2, 2, 2, 2, 2, 2, 2, 2, 2, 2, 2, 2, 2, 2, 2, 4 ),
 ( 0.000000000000000000, 0.06250000000000000000, 0.1250000000000000000, 0.1875000000000000000, 0.2500000000000000000, 0.3125000000000000000, 0.3750000000000000000, 0.4375000000000000000, 0.5000000000000000000, 0.5625000000000000000, 0.6250000000000000000, 0.6875000000000000000, 0.7500000000000000000, 0.8125000000000000000, 0.8750000000000000000, 0.9375000000000000000, 1.000000000000000000 ),
 .UNSPECIFIED. ) ;
#647 = ADVANCED_FACE ( 'NONE', ( #427, #628 ), #301, .T. ) ;
#648 = CARTESIAN_POINT ( 'NONE',  ( 14.32046408755562084, 23.31053541617534819, 8.266933918368582823 ) ) ;
#649 = CARTESIAN_POINT ( 'NONE',  ( -7.311994905071915518, 28.31053541617535529, 14.83074384714073979 ) ) ;
#650 = CARTESIAN_POINT ( 'NONE',  ( 12.11337601913023931, 22.31053541617530200, 11.64070966132049989 ) ) ;
#651 = PLANE ( 'NONE',  #841 ) ;
#652 = CARTESIAN_POINT ( 'NONE',  ( 2.509798121257073245, 22.31053541617530200, 18.57325223107512358 ) ) ;
#653 = ORIENTED_EDGE ( 'NONE', *, *, #541, .T. ) ;
#654 = FACE_OUTER_BOUND ( 'NONE', #495, .T. ) ;
#655 = CLOSED_SHELL ( 'NONE', ( #713, #658, #777, #526, #338, #764, #647, #391, #314, #484, #456, #227, #618, #739, #283, #10, #470 ) ) ;
#656 = CARTESIAN_POINT ( 'NONE',  ( -1.866581301923950109, 22.31053541617530200, 16.73215170808704855 ) ) ;
#657 = CARTESIAN_POINT ( 'NONE',  ( 14.83074384714076643, 28.31053541617534819, -7.311994905071868445 ) ) ;
#658 = ADVANCED_FACE ( 'NONE', ( #357 ), #760, .T. ) ;
#659 = CARTESIAN_POINT ( 'NONE',  ( 15.75995158326278300, 23.01053541617530129, 5.004014253028650216 ) ) ;
#660 = CARTESIAN_POINT ( 'NONE',  ( 11.92037816238364023, 22.45393941854632658, 11.45524261958941636 ) ) ;
#661 = FACE_OUTER_BOUND ( 'NONE', #71, .T. ) ;
#662 = CARTESIAN_POINT ( 'NONE',  ( 14.31922138388831378, 28.31053541617534819, 8.268986123491572471 ) ) ;
#663 = CARTESIAN_POINT ( 'NONE',  ( 1.407966017022750371, 23.01053541617530129, 16.47525005109815410 ) ) ;
#664 = CARTESIAN_POINT ( 'NONE',  ( -13.55903862518474057, 22.31053541617530200, -9.980055014872471375 ) ) ;
#665 = CARTESIAN_POINT ( 'NONE',  ( 1.027238797473936039E-14, 23.01053541617530129, -2.392168179970224751E-15 ) ) ;
#666 = CARTESIAN_POINT ( 'NONE',  ( -16.34742679415764144, 23.01053541617530840, 2.485532088096416903 ) ) ;
#667 = CARTESIAN_POINT ( 'NONE',  ( -11.89706573307432080, 22.61053541617534890, -11.43283984593980129 ) ) ;
#668 = AXIS2_PLACEMENT_3D ( 'NONE', #745, #830, #536 ) ;
#669 = CARTESIAN_POINT ( 'NONE',  ( 0.000000000000000000, 24.97720208284200183, 16.50000000000000000 ) ) ;
#670 = B_SPLINE_CURVE_WITH_KNOTS ( 'NONE', 3,
 ( #195, #4, #342, #270, #421, #266, #55, #680, #747, #630, #901, #472, #544, #74, #477, #208, #336, #755 ),
 .UNSPECIFIED., .F., .F.,
 ( 4, 2, 2, 2, 2, 2, 2, 2, 4 ),
 ( 0.000000000000000000, 0.1250000000000001110, 0.2500000000000002220, 0.3750000000000002220, 0.5000000000000002220, 0.6250000000000002220, 0.7500000000000002220, 0.8750000000000002220, 1.000000000000000000 ),
 .UNSPECIFIED. ) ;
#671 = CARTESIAN_POINT ( 'NONE',  ( 12.43088239457403255, 28.31053541617535174, -10.90364138458203236 ) ) ;
#672 = CARTESIAN_POINT ( 'NONE',  ( 16.51821882762735783, 23.01053541617530485, 0.7514514714324627143 ) ) ;
#673 = CARTESIAN_POINT ( 'NONE',  ( 16.34611997462199895, 22.31053541617530200, 4.031549120920795204 ) ) ;
#674 = EDGE_CURVE ( 'NONE', #29, #892, #367, .T. ) ;
#675 = CARTESIAN_POINT ( 'NONE',  ( 1.079922474671420218, 28.31053541617535885, 16.50000000000000355 ) ) ;
#676 = CARTESIAN_POINT ( 'NONE',  ( -16.51821882762734006, 23.01053541617530129, -0.7514514714324295186 ) ) ;
#677 = DIRECTION ( 'NONE',  ( 1.000000000000000000, 0.000000000000000000, 0.000000000000000000 ) ) ;
#678 = CARTESIAN_POINT ( 'NONE',  ( 12.43352826781780074, 22.31053541617530200, -11.35149335340990184 ) ) ;
#679 = CARTESIAN_POINT ( 'NONE',  ( -12.68160129596912000, 23.31053541617529845, 10.13613329610383929 ) ) ;
#680 = CARTESIAN_POINT ( 'NONE',  ( 15.53167818130221178, 22.31053541617529490, -10.57216514551488729 ) ) ;
#681 =( NAMED_UNIT ( * ) PLANE_ANGLE_UNIT ( ) SI_UNIT ( $, .RADIAN. ) );
#682 = CARTESIAN_POINT ( 'NONE',  ( 16.17280223738420375, 22.31053541617530200, -4.678620985888310102 ) ) ;
#683 = CARTESIAN_POINT ( 'NONE',  ( 11.68075544701843960, 23.31053541617529845, 11.22497003055906006 ) ) ;
#684 = CARTESIAN_POINT ( 'NONE',  ( 12.68160129596918040, 23.31053541617529845, -10.13613329610381975 ) ) ;
#685 = VERTEX_POINT ( 'NONE', #418 ) ;
#686 = CARTESIAN_POINT ( 'NONE',  ( -18.38478380931784884, 22.31053541617529845, 3.873425780394362139 ) ) ;
#687 = DIRECTION ( 'NONE',  ( 0.000000000000000000, 0.000000000000000000, 1.000000000000000000 ) ) ;
#688 = CARTESIAN_POINT ( 'NONE',  ( -3.887565223745005127, 23.31053541617529845, 15.76232997552834725 ) ) ;
#689 = CARTESIAN_POINT ( 'NONE',  ( -11.89706573307432080, 23.01053541617530129, -11.43283984593980129 ) ) ;
#690 = ORIENTED_EDGE ( 'NONE', *, *, #674, .F. ) ;
#691 = CARTESIAN_POINT ( 'NONE',  ( 14.74418275856663918, 22.31053541617530200, 8.127613507120020842 ) ) ;
#692 = CARTESIAN_POINT ( 'NONE',  ( -13.89457414501118038, 23.31053541617529845, 8.396726680980998836 ) ) ;
#693 = CARTESIAN_POINT ( 'NONE',  ( 6.887944778706939886, 23.31053541617529845, -14.70103487349770077 ) ) ;
#694 = ORIENTED_EDGE ( 'NONE', *, *, #67, .T. ) ;
#695 = CARTESIAN_POINT ( 'NONE',  ( -4.280533932827906618, 23.31053541617535174, 15.97191193972616752 ) ) ;
#696 = CARTESIAN_POINT ( 'NONE',  ( 16.51821882762734361, 22.61053541617530271, 0.7514514714324632694 ) ) ;
#697 = DIRECTION ( 'NONE',  ( 0.000000000000000000, 1.000000000000000000, 0.000000000000000000 ) ) ;
#698 = PRODUCT_DEFINITION_FORMATION_WITH_SPECIFIED_SOURCE ( 'Symmetric', '', #492, .NOT_KNOWN. ) ;
#699 = ORIENTED_EDGE ( 'NONE', *, *, #862, .T. ) ;
#700 = CARTESIAN_POINT ( 'NONE',  ( -8.266933918344784971, 23.31053541617535174, 14.32046408757422107 ) ) ;
#701 = CARTESIAN_POINT ( 'NONE',  ( -15.88400219743089181, 22.61053541617529916, 4.595074182568838594 ) ) ;
#702 = EDGE_CURVE ( 'NONE', #140, #572, #387, .T. ) ;
#703 = CARTESIAN_POINT ( 'NONE',  ( -1.079922474671492827, 28.31053541617535174, 16.50000000000000355 ) ) ;
#704 = ORIENTED_EDGE ( 'NONE', *, *, #95, .T. ) ;
#705 = DIRECTION ( 'NONE',  ( 0.000000000000000000, 0.000000000000000000, -1.000000000000000000 ) ) ;
#706 = CARTESIAN_POINT ( 'NONE',  ( -11.89706573307432080, 22.61053541617534890, -11.43283984593980129 ) ) ;
#707 = CARTESIAN_POINT ( 'NONE',  ( -1.079922474671457522, 28.31053541617535885, -16.50000000000000000 ) ) ;
#708 = ORIENTED_EDGE ( 'NONE', *, *, #553, .F. ) ;
#709 = CARTESIAN_POINT ( 'NONE',  ( -6.735557395310439065E-16, 23.31053541617534819, 16.50000000000000000 ) ) ;
#710 = CARTESIAN_POINT ( 'NONE',  ( 15.97170229933813879, 23.31053541617535529, -4.280492232843307931 ) ) ;
#711 = CARTESIAN_POINT ( 'NONE',  ( -11.68075544701843960, 23.31053541617534819, -11.22497003055904052 ) ) ;
#712 = ORIENTED_EDGE ( 'NONE', *, *, #148, .T. ) ;
#713 = ADVANCED_FACE ( 'NONE', ( #2 ), #371, .F. ) ;
#714 = CARTESIAN_POINT ( 'NONE',  ( -5.314303150938573417, 23.31053541617535174, 15.65809918583123483 ) ) ;
#715 = CARTESIAN_POINT ( 'NONE',  ( 4.280533932877630399, 23.31053541617534819, -15.97191193971286438 ) ) ;
#716 = CARTESIAN_POINT ( 'NONE',  ( 8.482244195374551765, 22.31053541617529490, 16.71275915157749026 ) ) ;
#717 = EDGE_LOOP ( 'NONE', ( #829, #712 ) ) ;
#718 = MANIFOLD_SOLID_BREP ( 'NONE', #655 ) ;
#719 = CARTESIAN_POINT ( 'NONE',  ( 7.743879791939400015, 22.31053541617530200, 14.94929270257044074 ) ) ;
#720 = CARTESIAN_POINT ( 'NONE',  ( 1.254916208326794180, 22.31053541617529490, 18.69999920745135213 ) ) ;
#721 = ORIENTED_EDGE ( 'NONE', *, *, #214, .F. ) ;
#722 = CARTESIAN_POINT ( 'NONE',  ( -3.461669259403704851E-14, 26.64386874950869810, -16.50000000000000000 ) ) ;
#723 = CARTESIAN_POINT ( 'NONE',  ( 7.314168375941219935, 23.31053541617534819, 14.82972788671828823 ) ) ;
#724 = CARTESIAN_POINT ( 'NONE',  ( 11.89706573307433857, 23.01053541617530129, 11.43283984593980129 ) ) ;
#725 = CARTESIAN_POINT ( 'NONE',  ( 14.68234104716747623, 23.01053541617530129, -7.605596224226077950 ) ) ;
#726 = AXIS2_PLACEMENT_3D ( 'NONE', #278, #819, #488 ) ;
#727 = CARTESIAN_POINT ( 'NONE',  ( 2.595055269651534609E-09, 22.31053541617530200, 18.70000967101779921 ) ) ;
#728 = CARTESIAN_POINT ( 'NONE',  ( -4.031549120920745466, 22.31053541617530200, 16.34611997462199895 ) ) ;
#729 = CARTESIAN_POINT ( 'NONE',  ( 4.278162380400583942, 28.31053541617535529, -15.97227470331717392 ) ) ;
#730 = CARTESIAN_POINT ( 'NONE',  ( 16.43336328472837593, 23.01053541617530129, 1.833249492961151805 ) ) ;
#731 = DIRECTION ( 'NONE',  ( 0.000000000000000000, -1.000000000000000000, 0.000000000000000000 ) ) ;
#732 = CARTESIAN_POINT ( 'NONE',  ( -16.04649615750394887, 22.31053541617530200, -5.094996330356359238 ) ) ;
#733 = CARTESIAN_POINT ( 'NONE',  ( -14.70103487349770077, 23.31053541617529845, -6.887944778706920346 ) ) ;
#734 = CARTESIAN_POINT ( 'NONE',  ( 13.31691293544926857, 23.01053541617530485, 9.801839746749831050 ) ) ;
#735 = CARTESIAN_POINT ( 'NONE',  ( -3.461669259403704851E-14, 24.97720208284200183, -16.50000000000000000 ) ) ;
#736 = CARTESIAN_POINT ( 'NONE',  ( -5.094996330356319270, 22.31053541617530200, 16.04649615750394887 ) ) ;
#737 = CARTESIAN_POINT ( 'NONE',  ( 8.268986123491567142, 28.31053541617534464, -14.31922138388831556 ) ) ;
#738 = CARTESIAN_POINT ( 'NONE',  ( -7.605596224226089497, 23.01053541617530129, -14.68234104716745492 ) ) ;
#739 = ADVANCED_FACE ( 'NONE', ( #654 ), #366, .T. ) ;
#740 = CARTESIAN_POINT ( 'NONE',  ( -17.47291792303102653, 22.31053541617529490, -6.906579634421102121 ) ) ;
#741 = CARTESIAN_POINT ( 'NONE',  ( 16.77480005202720292, 22.31053541617530200, -1.433565399150459996 ) ) ;
#742 = CARTESIAN_POINT ( 'NONE',  ( 8.268986123491462337, 28.31053541617534464, 14.31922138388837773 ) ) ;
#743 = CARTESIAN_POINT ( 'NONE',  ( 9.801839746749829274, 23.01053541617530485, -13.31691293544926857 ) ) ;
#744 = CARTESIAN_POINT ( 'NONE',  ( 0.000000000000000000, 0.000000000000000000, 0.000000000000000000 ) ) ;
#745 = CARTESIAN_POINT ( 'NONE',  ( 1.748638223194904767E-14, -53.18946458382469444, 5.500000000000000000 ) ) ;
#746 = CARTESIAN_POINT ( 'NONE',  ( 5.004014253028647552, 22.61053541617529916, -15.75995158326276879 ) ) ;
#747 = CARTESIAN_POINT ( 'NONE',  ( 16.49118481928426760, 22.31053541617529490, -9.002473340576328198 ) ) ;
#748 = CARTESIAN_POINT ( 'NONE',  ( 14.94929270257049936, 22.31053541617530200, -7.743879791939349388 ) ) ;
#749 = CARTESIAN_POINT ( 'NONE',  ( 4.511527379249510084, 23.31053541617529845, 15.59520215747759941 ) ) ;
#750 = EDGE_CURVE ( 'NONE', #770, #545, #287, .T. ) ;
#751 = CARTESIAN_POINT ( 'NONE',  ( -6.735557395310439065E-16, 23.31053541617534819, 16.50000000000000000 ) ) ;
#752 = EDGE_LOOP ( 'NONE', ( #284, #792, #219, #205 ) ) ;
#753 = CARTESIAN_POINT ( 'NONE',  ( -2.079675745560659739E-30, 25.31053541617534819, -5.069299904597599897E-30 ) ) ;
#754 = CARTESIAN_POINT ( 'NONE',  ( 14.68234104716747268, 22.61053541617529916, -7.605596224226074398 ) ) ;
#755 = CARTESIAN_POINT ( 'NONE',  ( 13.48334059282172070, 22.31053541617530200, 12.95721794302927954 ) ) ;
#756 = CARTESIAN_POINT ( 'NONE',  ( -13.48334059282169939, 22.31053541617530200, -12.95721794302930086 ) ) ;
#757 = CARTESIAN_POINT ( 'NONE',  ( 10.13613329610388014, 23.31053541617529845, 12.68160129596914132 ) ) ;
#758 = CARTESIAN_POINT ( 'NONE',  ( 15.26571391097230013, 23.31053541617529845, -5.524688988048000127 ) ) ;
#759 = VERTEX_POINT ( 'NONE', #247 ) ;
#760 = CYLINDRICAL_SURFACE ( 'NONE', #639, 31.50000000000000000 ) ;
#761 = CARTESIAN_POINT ( 'NONE',  ( -10.46046637429375892, 23.31053541617529845, 12.41542801753450043 ) ) ;
#762 = DIRECTION ( 'NONE',  ( 0.000000000000000000, 1.000000000000000000, 0.000000000000000000 ) ) ;
#763 = EDGE_LOOP ( 'NONE', ( #440, #128 ) ) ;
#764 = ADVANCED_FACE ( 'NONE', ( #858, #596 ), #315, .F. ) ;
#765 = PRESENTATION_STYLE_ASSIGNMENT (( #225 ) ) ;
#766 = CARTESIAN_POINT ( 'NONE',  ( -12.91644576441304970, 22.61053541617529916, 10.32383946825386545 ) ) ;
#767 = STYLED_ITEM ( 'NONE', ( #765 ), #718 ) ;
#768 = CARTESIAN_POINT ( 'NONE',  ( -10.13613329610381975, 23.31053541617529845, -12.68160129596915908 ) ) ;
#769 = VECTOR ( 'NONE', #762, 1000.000000000000000 ) ;
#770 = VERTEX_POINT ( 'NONE', #40 ) ;
#771 = CARTESIAN_POINT ( 'NONE',  ( -16.49989312626043514, 23.31053541617535174, 1.082319230126122855 ) ) ;
#772 = CARTESIAN_POINT ( 'NONE',  ( -7.015499311645964298, 22.61053541617530271, 14.97327626004393331 ) ) ;
#773 = CARTESIAN_POINT ( 'NONE',  ( -10.90364138458204657, 28.31053541617535174, -12.43088239457402544 ) ) ;
#774 = ORIENTED_EDGE ( 'NONE', *, *, #750, .T. ) ;
#775 = DIRECTION ( 'NONE',  ( 0.000000000000000000, 0.000000000000000000, -1.000000000000000000 ) ) ;
#776 = CARTESIAN_POINT ( 'NONE',  ( -10.65417871455850829, 22.61053541617529916, 12.64534335119251018 ) ) ;
#777 = ADVANCED_FACE ( 'NONE', ( #789 ), #310, .T. ) ;
#778 = CARTESIAN_POINT ( 'NONE',  ( -15.65728072573172369, 28.31053541617535529, 5.316558362976038232 ) ) ;
#779 = ORIENTED_EDGE ( 'NONE', *, *, #132, .F. ) ;
#780 = CARTESIAN_POINT ( 'NONE',  ( -16.39421195396502995, 23.31053541617534819, 2.157488393703122398 ) ) ;
#781 = CYLINDRICAL_SURFACE ( 'NONE', #813, 16.50000000000000000 ) ;
#782 = CARTESIAN_POINT ( 'NONE',  ( 9.587103013978117261, 22.31053541617530200, 16.10441681179340989 ) ) ;
#783 = CIRCLE ( 'NONE', #539, 31.50000000000000000 ) ;
#784 = EDGE_LOOP ( 'NONE', ( #485, #343 ) ) ;
#785 = CARTESIAN_POINT ( 'NONE',  ( 16.50010687373616847, 23.31053541617534819, 1.082319230204932259 ) ) ;
#786 = B_SPLINE_CURVE_WITH_KNOTS ( 'NONE', 3,
 ( #359, #787, #643, #82, #97, #634 ),
 .UNSPECIFIED., .F., .F.,
 ( 4, 2, 4 ),
 ( 0.000000000000000000, 0.5000000000000000000, 1.000000000000000000 ),
 .UNSPECIFIED. ) ;
#787 = CARTESIAN_POINT ( 'NONE',  ( -11.89706573307431370, 23.08907523251504657, -11.43283984593979952 ) ) ;
#788 = EDGE_LOOP ( 'NONE', ( #364, #83, #564, #774 ) ) ;
#789 = FACE_OUTER_BOUND ( 'NONE', #145, .T. ) ;
#790 = CARTESIAN_POINT ( 'NONE',  ( 5.314384892106821745, 23.31053541617534819, 15.65829668615422321 ) ) ;
#791 = CYLINDRICAL_SURFACE ( 'NONE', #307, 16.49999999999999645 ) ;
#792 = ORIENTED_EDGE ( 'NONE', *, *, #54, .F. ) ;
#793 = CARTESIAN_POINT ( 'NONE',  ( 1.027238797473936039E-14, 20.81053541617530200, -2.392168179970224751E-15 ) ) ;
#794 = PRODUCT_DEFINITION ( 'General', '', #698, #800 ) ;
#795 = FACE_OUTER_BOUND ( 'NONE', #848, .T. ) ;
#796 = PLANE ( 'NONE',  #13 ) ;
#797 = CARTESIAN_POINT ( 'NONE',  ( -1.407966017022710625, 23.01053541617530129, -16.47525005109816121 ) ) ;
#798 = VECTOR ( 'NONE', #355, 1000.000000000000000 ) ;
#799 = CARTESIAN_POINT ( 'NONE',  ( -11.89706573307432080, 22.61053541617534890, -11.43283984593980129 ) ) ;
#800 = PRODUCT_DEFINITION_CONTEXT ( 'detailed design', #191, 'design' ) ;
#801 = CARTESIAN_POINT ( 'NONE',  ( -16.73215170808704855, 22.31053541617530200, -1.866581301923964986 ) ) ;
#802 = CARTESIAN_POINT ( 'NONE',  ( 1.347111479062089982E-15, 28.31053541617534819, -16.50000000000000000 ) ) ;
#803 = CARTESIAN_POINT ( 'NONE',  ( -1.833249492961095406, 23.01053541617530129, 16.43336328472836882 ) ) ;
#804 = CARTESIAN_POINT ( 'NONE',  ( 11.89706573307440074, 22.74386874950864978, 11.43283984593971958 ) ) ;
#805 = CARTESIAN_POINT ( 'NONE',  ( -6.735557395310439065E-16, 28.31053541617534819, 16.50000000000000000 ) ) ;
#806 = CARTESIAN_POINT ( 'NONE',  ( -16.05020085244570183, 23.31053541617529845, 2.440340595585649641 ) ) ;
#807 = CARTESIAN_POINT ( 'NONE',  ( -14.48089378073505706, 23.01053541617530129, -7.982477551635766666 ) ) ;
#808 = B_SPLINE_CURVE_WITH_KNOTS ( 'NONE', 3,
 ( #135, #59, #341, #344, #614, #487, #63, #607, #467, #420, #822, #126, #746, #194, #122, #69, #890, #269, #348, #476, #754, #130, #410, #620, #894, #696, #402, #273, #611, #552, #827, #203, #624, #899 ),
 .UNSPECIFIED., .F., .F.,
 ( 4, 2, 2, 2, 2, 2, 2, 2, 2, 2, 2, 2, 2, 2, 2, 2, 4 ),
 ( 0.000000000000000000, 0.06250000000000000000, 0.1250000000000000000, 0.1875000000000000000, 0.2499999999999999722, 0.3124999999999999445, 0.3749999999999999445, 0.4374999999999999445, 0.4999999999999999445, 0.5625000000000000000, 0.6250000000000000000, 0.6875000000000000000, 0.7500000000000000000, 0.8125000000000000000, 0.8750000000000000000, 0.9375000000000000000, 1.000000000000000000 ),
 .UNSPECIFIED. ) ;
#809 = CARTESIAN_POINT ( 'NONE',  ( 1.083953470391296303, 23.31053541617534819, 16.49999999999999645 ) ) ;
#810 = CARTESIAN_POINT ( 'NONE',  ( 16.49999999999999645, 28.31053541617534464, 1.079922474671547894 ) ) ;
#811 = CARTESIAN_POINT ( 'NONE',  ( 16.34742679415766986, 23.01053541617530485, -2.485532088096400916 ) ) ;
#812 = CARTESIAN_POINT ( 'NONE',  ( -17.91782375689772877, 22.31053541617529845, 5.652901450435048325 ) ) ;
#813 = AXIS2_PLACEMENT_3D ( 'NONE', #578, #570, #211 ) ;
#814 = CARTESIAN_POINT ( 'NONE',  ( 14.40918800223385965, 22.31053541617530200, -8.707716558054340084 ) ) ;
#815 = CARTESIAN_POINT ( 'NONE',  ( 5.524688988048050753, 23.31053541617529845, 15.26571391097224861 ) ) ;
#816 = CARTESIAN_POINT ( 'NONE',  ( -2.485532088096395587, 23.01053541617530485, -16.34742679415765920 ) ) ;
#817 = CARTESIAN_POINT ( 'NONE',  ( -10.51154564040395911, 22.31053541617530200, -13.15129023285689946 ) ) ;
#818 = DIRECTION ( 'NONE',  ( 0.000000000000000000, -1.000000000000000000, 0.000000000000000000 ) ) ;
#819 = DIRECTION ( 'NONE',  ( 0.000000000000000000, 1.000000000000000000, 0.000000000000000000 ) ) ;
#820 = VERTEX_POINT ( 'NONE', #34 ) ;
#821 = LINE ( 'NONE', #623, #337 ) ;
#822 = CARTESIAN_POINT ( 'NONE',  ( 1.833249492961136484, 22.61053541617529206, -16.43336328472836527 ) ) ;
#823 = CARTESIAN_POINT ( 'NONE',  ( 16.21788757621595067, 23.31053541617529845, 0.7377887174063400000 ) ) ;
#824 = ORIENTED_EDGE ( 'NONE', *, *, #160, .F. ) ;
#825 = FACE_OUTER_BOUND ( 'NONE', #370, .T. ) ;
#826 =( GEOMETRIC_REPRESENTATION_CONTEXT ( 3 ) GLOBAL_UNCERTAINTY_ASSIGNED_CONTEXT ( ( #519 ) ) GLOBAL_UNIT_ASSIGNED_CONTEXT ( ( #30, #441, #868 ) ) REPRESENTATION_CONTEXT ( 'NONE', 'WORKASPACE' ) );
#827 = CARTESIAN_POINT ( 'NONE',  ( 14.48089378073506417, 22.61053541617529916, 7.982477551635790647 ) ) ;
#828 = CARTESIAN_POINT ( 'NONE',  ( 12.41542801753450043, 23.31053541617529845, 10.46046637429379977 ) ) ;
#829 = ORIENTED_EDGE ( 'NONE', *, *, #328, .T. ) ;
#830 = DIRECTION ( 'NONE',  ( -0.000000000000000000, 1.000000000000000000, 0.000000000000000000 ) ) ;
#831 = CARTESIAN_POINT ( 'NONE',  ( -4.913032175700729809, 23.31053541617529845, 15.47340700902164912 ) ) ;
#832 = CARTESIAN_POINT ( 'NONE',  ( 9.623624478627039736, 23.31053541617529845, -13.07478724571386053 ) ) ;
#833 = EDGE_CURVE ( 'NONE', #339, #56, #582, .T. ) ;
#834 = ORIENTED_EDGE ( 'NONE', *, *, #365, .F. ) ;
#835 = CARTESIAN_POINT ( 'NONE',  ( -15.65829666279120858, 23.31053541617534819, 5.314384948491134963 ) ) ;
#836 = CARTESIAN_POINT ( 'NONE',  ( -9.801839746749777760, 22.61053541617530627, 13.31691293544928634 ) ) ;
#837 = LINE ( 'NONE', #212, #157 ) ;
#838 = ORIENTED_EDGE ( 'NONE', *, *, #95, .F. ) ;
#839 = DIRECTION ( 'NONE',  ( 0.000000000000000000, 1.000000000000000000, 0.000000000000000000 ) ) ;
#840 = CARTESIAN_POINT ( 'NONE',  ( 10.90187105143067825, 23.31053541617535529, -12.43250158542872086 ) ) ;
#841 = AXIS2_PLACEMENT_3D ( 'NONE', #533, #35, #239 ) ;
#842 = CARTESIAN_POINT ( 'NONE',  ( -14.83074384714074867, 28.31053541617535174, 7.311994905071900419 ) ) ;
#843 = ORIENTED_EDGE ( 'NONE', *, *, #674, .T. ) ;
#844 = CARTESIAN_POINT ( 'NONE',  ( -13.11803311839091890, 23.31053541617534819, -10.06688377132940282 ) ) ;
#845 = EDGE_CURVE ( 'NONE', #56, #627, #92, .T. ) ;
#846 = CARTESIAN_POINT ( 'NONE',  ( 15.65829666278941623, 23.31053541617535529, -5.314384948497012040 ) ) ;
#847 = CARTESIAN_POINT ( 'NONE',  ( -15.65728072573171659, 28.31053541617535174, -5.316558362976071983 ) ) ;
#848 = EDGE_LOOP ( 'NONE', ( #507, #93, #635, #560 ) ) ;
#849 = CARTESIAN_POINT ( 'NONE',  ( -6.045057302900459562E-31, -53.18946458382469444, -5.892633960096210007E-30 ) ) ;
#850 = CARTESIAN_POINT ( 'NONE',  ( 8.552221619517641926, 22.61053541617529206, 14.15188107362253156 ) ) ;
#851 = ADVANCED_BREP_SHAPE_REPRESENTATION ( 'ASV1_400_17X_1_1.STEP', ( #718, #583 ), #509 ) ;
#852 = CARTESIAN_POINT ( 'NONE',  ( 11.65291410531576943, 22.31053541617529490, 14.67904553786570787 ) ) ;
#853 = ORIENTED_EDGE ( 'NONE', *, *, #553, .T. ) ;
#854 = CARTESIAN_POINT ( 'NONE',  ( -11.92037816238358872, 22.45393941854632658, -11.45524261958944123 ) ) ;
#855 = CARTESIAN_POINT ( 'NONE',  ( 1.347111479062089982E-15, 23.31053541617534819, -16.50000000000000000 ) ) ;
#856 = CARTESIAN_POINT ( 'NONE',  ( -12.43088239457398458, 28.31053541617535174, -10.90364138458208032 ) ) ;
#857 = VERTEX_POINT ( 'NONE', #514 ) ;
#858 = FACE_BOUND ( 'NONE', #150, .T. ) ;
#859 = CARTESIAN_POINT ( 'NONE',  ( -6.735557395310439065E-16, 23.31053541617534819, 16.50000000000000000 ) ) ;
#860 = DIRECTION ( 'NONE',  ( 0.000000000000000000, -1.000000000000000000, 0.000000000000000000 ) ) ;
#861 = EDGE_LOOP ( 'NONE', ( #412, #267, #824, #379 ) ) ;
#862 = EDGE_CURVE ( 'NONE', #309, #572, #378, .T. ) ;
#863 = B_SPLINE_CURVE_WITH_KNOTS ( 'NONE', 3,
 ( #369, #303, #852, #782, #716, #91, #580, #652, #720, #28 ),
 .UNSPECIFIED., .F., .F.,
 ( 4, 2, 2, 2, 4 ),
 ( 0.000000000000000000, 0.2500000000000000555, 0.5000000000000001110, 0.7500000000000002220, 1.000000000000000000 ),
 .UNSPECIFIED. ) ;
#864 = CARTESIAN_POINT ( 'NONE',  ( -12.11337601913021800, 22.31053541617530200, -11.64070966132049989 ) ) ;
#865 = CARTESIAN_POINT ( 'NONE',  ( -7.143053844584909662, 22.31053541617530200, 15.24551764659019959 ) ) ;
#866 = CARTESIAN_POINT ( 'NONE',  ( 13.11927582209568044, 28.31053541617535174, -10.06483156615531449 ) ) ;
#867 = CARTESIAN_POINT ( 'NONE',  ( 10.65417871455856158, 23.01053541617530129, -12.64534335119249420 ) ) ;
#868 =( NAMED_UNIT ( * ) SI_UNIT ( $, .STERADIAN. ) SOLID_ANGLE_UNIT ( ) );
#869 = CARTESIAN_POINT ( 'NONE',  ( -16.17280223738415046, 22.31053541617530200, 4.678620985888340300 ) ) ;
#870 = DIRECTION ( 'NONE',  ( 1.000000000000000000, 0.000000000000000000, 0.000000000000000000 ) ) ;
#871 = CARTESIAN_POINT ( 'NONE',  ( 14.48089378073506417, 23.01053541617530129, 7.982477551635794200 ) ) ;
#872 = CARTESIAN_POINT ( 'NONE',  ( -8.793107110898249701, 22.31053541617529135, 16.60376373982265719 ) ) ;
#873 = CARTESIAN_POINT ( 'NONE',  ( -6.735557395310439065E-16, 23.31053541617534819, 16.50000000000000000 ) ) ;
#874 = EDGE_CURVE ( 'NONE', #294, #770, #124, .T. ) ;
#875 = CARTESIAN_POINT ( 'NONE',  ( 10.06483156615528607, 28.31053541617534819, 13.11927582209569465 ) ) ;
#876 = CARTESIAN_POINT ( 'NONE',  ( -9.801839746749788418, 23.01053541617530485, 13.31691293544928278 ) ) ;
#877 = CARTESIAN_POINT ( 'NONE',  ( -15.83111072248975049, 22.31053541617530200, 5.729307098716470037 ) ) ;
#878 = CARTESIAN_POINT ( 'NONE',  ( 12.43088239457396149, 28.31053541617535529, 10.90364138458211940 ) ) ;
#879 = CARTESIAN_POINT ( 'NONE',  ( 14.97327626004392620, 23.01053541617530485, 7.015499311646016700 ) ) ;
#880 = APPLICATION_PROTOCOL_DEFINITION ( 'draft international standard', 'automotive_design', 1998, #64 ) ;
#881 = CARTESIAN_POINT ( 'NONE',  ( -8.707716558054340084, 22.31053541617530200, -14.40918800223384011 ) ) ;
#882 = CYLINDRICAL_SURFACE ( 'NONE', #86, 18.69999920762550261 ) ;
#883 = CARTESIAN_POINT ( 'NONE',  ( -5.004014253028602255, 23.01053541617530129, 15.75995158326277945 ) ) ;
#884 = CARTESIAN_POINT ( 'NONE',  ( -18.72153365959601601, 22.31053541617528779, -1.583628878302196341 ) ) ;
#885 = AXIS2_PLACEMENT_3D ( 'NONE', #233, #79, #304 ) ;
#886 = CARTESIAN_POINT ( 'NONE',  ( -9.587103013978071075, 22.31053541617527713, -16.10441681179342055 ) ) ;
#887 = CARTESIAN_POINT ( 'NONE',  ( -2.079675745560659739E-30, 114.4059898456803950, -5.069299904597599897E-30 ) ) ;
#888 = LINE ( 'NONE', #554, #769 ) ;
#889 = CARTESIAN_POINT ( 'NONE',  ( -2.530723580607315171, 22.31053541617530200, -16.64465273586960237 ) ) ;
#890 = CARTESIAN_POINT ( 'NONE',  ( 10.65417871455856158, 22.61053541617529916, -12.64534335119249242 ) ) ;
#891 = CARTESIAN_POINT ( 'NONE',  ( 3.887565223745049980, 23.31053541617529845, -15.76232997552834725 ) ) ;
#892 = VERTEX_POINT ( 'NONE', #179 ) ;
#893 = CARTESIAN_POINT ( 'NONE',  ( -5.729307098716439839, 22.31053541617530200, -15.83111072248975049 ) ) ;
#894 = CARTESIAN_POINT ( 'NONE',  ( 16.47525005109816831, 22.61053541617529916, -1.407966017022694638 ) ) ;
#895 = CARTESIAN_POINT ( 'NONE',  ( -1.382366634895090041, 23.31053541617529845, -16.17570005016909818 ) ) ;
#896 = ORIENTED_EDGE ( 'NONE', *, *, #160, .T. ) ;
#897 = CARTESIAN_POINT ( 'NONE',  ( -7.743879791939349388, 22.31053541617530200, -14.94929270257046028 ) ) ;
#898 = AXIS2_PLACEMENT_3D ( 'NONE', #316, #176, #26 ) ;
#899 = CARTESIAN_POINT ( 'NONE',  ( 11.89706573307433857, 22.61053541617534890, 11.43283984593980129 ) ) ;
#900 = EDGE_CURVE ( 'NONE', #517, #346, #300, .T. ) ;
#901 = CARTESIAN_POINT ( 'NONE',  ( 18.38478380931783462, 22.31053541617529490, -3.873425780394416762 ) ) ;
ENDSEC;
END-ISO-10303-21;
