ISO-10303-21;
HEADER;
FILE_DESCRIPTION (( 'STEP AP214' ),
    '1' );
FILE_NAME ('ASV1_400_23X_1_1.STEP.STEP',
    '2026-08-01T03:19:11',
    ( '' ),
    ( '' ),
    'SwSTEP 2.0',
    'SolidWorks 2025',
    '' );
FILE_SCHEMA (( 'AUTOMOTIVE_DESIGN' ));
ENDSEC;

DATA;
#1 = DIRECTION ( 'NONE',  ( 0.000000000000000000, 0.000000000000000000, -1.000000000000000000 ) ) ;
#2 = FACE_BOUND ( 'NONE', #21, .T. ) ;
#3 = CIRCLE ( 'NONE', #151, 17.50000000000000000 ) ;
#4 = FACE_OUTER_BOUND ( 'NONE', #212, .T. ) ;
#5 = ORIENTED_EDGE ( 'NONE', *, *, #11, .F. ) ;
#6 = DIRECTION ( 'NONE',  ( -1.000000000000000000, 0.000000000000000000, 0.000000000000000000 ) ) ;
#7 = CARTESIAN_POINT ( 'NONE',  ( -33.01510671643000450, 2.378298030471994728, -26.75000000000000000 ) ) ;
#8 = AXIS2_PLACEMENT_3D ( 'NONE', #262, #47, #90 ) ;
#9 = DIRECTION ( 'NONE',  ( 1.000000000000000000, 0.000000000000000000, 0.000000000000000000 ) ) ;
#10 = CARTESIAN_POINT ( 'NONE',  ( -5.015106716429999167, 2.378298030472000058, -26.75000000000000000 ) ) ;
#11 = EDGE_CURVE ( 'NONE', #60, #148, #135, .T. ) ;
#12 = DIRECTION ( 'NONE',  ( 0.000000000000000000, 0.000000000000000000, -1.000000000000000000 ) ) ;
#13 = AXIS2_PLACEMENT_3D ( 'NONE', #19, #62, #232 ) ;
#14 = APPLICATION_PROTOCOL_DEFINITION ( 'draft international standard', 'automotive_design', 1998, #246 ) ;
#15 = ORIENTED_EDGE ( 'NONE', *, *, #98, .F. ) ;
#16 = VERTEX_POINT ( 'NONE', #131 ) ;
#17 = CARTESIAN_POINT ( 'NONE',  ( 12.48489328356999906, 2.378298030472000058, -24.75000000000000000 ) ) ;
#18 = ORIENTED_EDGE ( 'NONE', *, *, #66, .T. ) ;
#19 = CARTESIAN_POINT ( 'NONE',  ( -5.015106716429999167, 2.378298030472000058, -31.75000000000000000 ) ) ;
#20 = CIRCLE ( 'NONE', #283, 28.00000000000000000 ) ;
#21 = EDGE_LOOP ( 'NONE', ( #104, #81 ) ) ;
#22 = FACE_OUTER_BOUND ( 'NONE', #56, .T. ) ;
#23 = CARTESIAN_POINT ( 'NONE',  ( -14.51510671643000094, -14.07618464143231840, -26.75000000000000000 ) ) ;
#24 = AXIS2_PLACEMENT_3D ( 'NONE', #150, #68, #242 ) ;
#25 = FACE_OUTER_BOUND ( 'NONE', #63, .T. ) ;
#26 = ADVANCED_BREP_SHAPE_REPRESENTATION ( 'ASV1_400_23X_1_1.STEP', ( #253, #156 ), #120 ) ;
#27 = LINE ( 'NONE', #171, #191 ) ;
#28 = DIRECTION ( 'NONE',  ( 0.000000000000000000, 0.000000000000000000, 1.000000000000000000 ) ) ;
#29 = CARTESIAN_POINT ( 'NONE',  ( 4.484893283569999944, 18.83278070237634694, -26.75000000000000000 ) ) ;
#30 = CIRCLE ( 'NONE', #223, 19.00000000000000711 ) ;
#31 = DIRECTION ( 'NONE',  ( 0.000000000000000000, 0.000000000000000000, 1.000000000000000000 ) ) ;
#32 = ADVANCED_FACE ( 'NONE', ( #2, #22 ), #175, .T. ) ;
#33 = FACE_OUTER_BOUND ( 'NONE', #80, .T. ) ;
#34 = CARTESIAN_POINT ( 'NONE',  ( -5.015106716429999167, 2.378298030472000058, -24.75000000000000000 ) ) ;
#35 = AXIS2_PLACEMENT_3D ( 'NONE', #107, #69, #218 ) ;
#36 = DIRECTION ( 'NONE',  ( 0.000000000000000000, 0.000000000000000000, 1.000000000000000000 ) ) ;
#37 = EDGE_CURVE ( 'NONE', #60, #170, #67, .T. ) ;
#38 =( NAMED_UNIT ( * ) PLANE_ANGLE_UNIT ( ) SI_UNIT ( $, .RADIAN. ) );
#39 = ORIENTED_EDGE ( 'NONE', *, *, #228, .T. ) ;
#40 = AXIS2_PLACEMENT_3D ( 'NONE', #73, #75, #271 ) ;
#41 = ORIENTED_EDGE ( 'NONE', *, *, #66, .F. ) ;
#42 = EDGE_CURVE ( 'NONE', #148, #143, #129, .T. ) ;
#43 = CARTESIAN_POINT ( 'NONE',  ( -5.015106716429999167, 2.378298030472000058, 28.75000000000000000 ) ) ;
#44 = ORIENTED_EDGE ( 'NONE', *, *, #136, .T. ) ;
#45 = CARTESIAN_POINT ( 'NONE',  ( -33.01510671643000450, 2.378298030471994728, 107.9459594928933939 ) ) ;
#46 = EDGE_CURVE ( 'NONE', #170, #60, #20, .T. ) ;
#47 = DIRECTION ( 'NONE',  ( 0.000000000000000000, 0.000000000000000000, -1.000000000000000000 ) ) ;
#48 = DIRECTION ( 'NONE',  ( 1.000000000000000000, 0.000000000000000000, 0.000000000000000000 ) ) ;
#49 = DIRECTION ( 'NONE',  ( 1.000000000000000000, 0.000000000000000000, 0.000000000000000000 ) ) ;
#50 = ADVANCED_FACE ( 'NONE', ( #192 ), #193, .T. ) ;
#51 = DIRECTION ( 'NONE',  ( 0.000000000000000000, 0.000000000000000000, 1.000000000000000000 ) ) ;
#52 = FILL_AREA_STYLE ('',( #247 ) ) ;
#53 = ADVANCED_FACE ( 'NONE', ( #25 ), #86, .T. ) ;
#54 = PRODUCT_DEFINITION_FORMATION_WITH_SPECIFIED_SOURCE ( 'Symmetric', '', #229, .NOT_KNOWN. ) ;
#55 = LINE ( 'NONE', #198, #241 ) ;
#56 = EDGE_LOOP ( 'NONE', ( #88, #258 ) ) ;
#57 = ORIENTED_EDGE ( 'NONE', *, *, #42, .T. ) ;
#58 = SHAPE_DEFINITION_REPRESENTATION ( #199, #26 ) ;
#59 = ADVANCED_FACE ( 'NONE', ( #245, #108 ), #84, .F. ) ;
#60 = VERTEX_POINT ( 'NONE', #244 ) ;
#61 = CIRCLE ( 'NONE', #105, 17.50000000000000000 ) ;
#62 = DIRECTION ( 'NONE',  ( 0.000000000000000000, 0.000000000000000000, 1.000000000000000000 ) ) ;
#63 = EDGE_LOOP ( 'NONE', ( #5, #281, #145, #234 ) ) ;
#64 = ORIENTED_EDGE ( 'NONE', *, *, #118, .T. ) ;
#65 = FACE_OUTER_BOUND ( 'NONE', #127, .T. ) ;
#66 = EDGE_CURVE ( 'NONE', #240, #106, #87, .T. ) ;
#67 = CIRCLE ( 'NONE', #254, 28.00000000000000000 ) ;
#68 = DIRECTION ( 'NONE',  ( 0.000000000000000000, 0.000000000000000000, 1.000000000000000000 ) ) ;
#69 = DIRECTION ( 'NONE',  ( 0.000000000000000000, 0.000000000000000000, -1.000000000000000000 ) ) ;
#70 = ORIENTED_EDGE ( 'NONE', *, *, #269, .F. ) ;
#71 = STYLED_ITEM ( 'NONE', ( #273 ), #253 ) ;
#72 = DIRECTION ( 'NONE',  ( 0.000000000000000000, 0.000000000000000000, -1.000000000000000000 ) ) ;
#73 = CARTESIAN_POINT ( 'NONE',  ( -5.015106716429999167, 2.378298030472000058, -26.75000000000000000 ) ) ;
#74 = CARTESIAN_POINT ( 'NONE',  ( 4.484893283569994615, 18.83278070237634694, -26.75000000000000000 ) ) ;
#75 = DIRECTION ( 'NONE',  ( 0.000000000000000000, 0.000000000000000000, -1.000000000000000000 ) ) ;
#76 = CIRCLE ( 'NONE', #78, 17.50000000000000000 ) ;
#77 = CARTESIAN_POINT ( 'NONE',  ( -5.015106716429999167, 2.378298030472000058, -31.75000000000000000 ) ) ;
#78 = AXIS2_PLACEMENT_3D ( 'NONE', #274, #140, #139 ) ;
#79 = AXIS2_PLACEMENT_3D ( 'NONE', #10, #28, #159 ) ;
#80 = EDGE_LOOP ( 'NONE', ( #184, #210, #233, #128 ) ) ;
#81 = ORIENTED_EDGE ( 'NONE', *, *, #94, .T. ) ;
#82 = ORIENTED_EDGE ( 'NONE', *, *, #118, .F. ) ;
#83 = ORIENTED_EDGE ( 'NONE', *, *, #85, .F. ) ;
#84 = PLANE ( 'NONE',  #180 ) ;
#85 = EDGE_CURVE ( 'NONE', #106, #16, #27, .T. ) ;
#86 = CYLINDRICAL_SURFACE ( 'NONE', #101, 28.00000000000000000 ) ;
#87 = CIRCLE ( 'NONE', #200, 19.00000000000000000 ) ;
#88 = ORIENTED_EDGE ( 'NONE', *, *, #136, .F. ) ;
#89 = DIRECTION ( 'NONE',  ( 0.000000000000000000, 0.000000000000000000, 1.000000000000000000 ) ) ;
#90 = DIRECTION ( 'NONE',  ( -1.000000000000000000, 0.000000000000000000, 0.000000000000000000 ) ) ;
#91 = CLOSED_SHELL ( 'NONE', ( #158, #115, #144, #50, #278, #32, #59, #102, #263, #53 ) ) ;
#92 = CYLINDRICAL_SURFACE ( 'NONE', #79, 19.00000000000000711 ) ;
#93 = DIRECTION ( 'NONE',  ( 0.000000000000000000, 0.000000000000000000, -1.000000000000000000 ) ) ;
#94 = EDGE_CURVE ( 'NONE', #282, #235, #61, .T. ) ;
#95 = DIRECTION ( 'NONE',  ( 0.000000000000000000, 0.000000000000000000, -1.000000000000000000 ) ) ;
#96 = DIRECTION ( 'NONE',  ( -1.000000000000000000, 0.000000000000000000, 0.000000000000000000 ) ) ;
#97 =( GEOMETRIC_REPRESENTATION_CONTEXT ( 3 ) GLOBAL_UNCERTAINTY_ASSIGNED_CONTEXT ( ( #188 ) ) GLOBAL_UNIT_ASSIGNED_CONTEXT ( ( #178, #99, #122 ) ) REPRESENTATION_CONTEXT ( 'NONE', 'WORKASPACE' ) );
#98 = EDGE_CURVE ( 'NONE', #106, #240, #195, .T. ) ;
#99 =( NAMED_UNIT ( * ) PLANE_ANGLE_UNIT ( ) SI_UNIT ( $, .RADIAN. ) );
#100 = PRODUCT_CONTEXT ( 'NONE', #246, 'mechanical' ) ;
#101 = AXIS2_PLACEMENT_3D ( 'NONE', #130, #1, #110 ) ;
#102 = ADVANCED_FACE ( 'NONE', ( #65 ), #172, .F. ) ;
#103 = EDGE_LOOP ( 'NONE', ( #207, #174 ) ) ;
#104 = ORIENTED_EDGE ( 'NONE', *, *, #183, .T. ) ;
#105 = AXIS2_PLACEMENT_3D ( 'NONE', #111, #89, #266 ) ;
#106 = VERTEX_POINT ( 'NONE', #23 ) ;
#107 = CARTESIAN_POINT ( 'NONE',  ( -5.015106716429999167, 2.378298030472000058, -24.75000000000000000 ) ) ;
#108 = FACE_OUTER_BOUND ( 'NONE', #275, .T. ) ;
#109 = AXIS2_PLACEMENT_3D ( 'NONE', #157, #134, #6 ) ;
#110 = DIRECTION ( 'NONE',  ( 1.000000000000000000, 0.000000000000000000, 0.000000000000000000 ) ) ;
#111 = CARTESIAN_POINT ( 'NONE',  ( -5.015106716429999167, 2.378298030472000058, -24.75000000000000000 ) ) ;
#112 = DIRECTION ( 'NONE',  ( -1.000000000000000000, 0.000000000000000000, 0.000000000000000000 ) ) ;
#113 = VECTOR ( 'NONE', #264, 1000.000000000000000 ) ;
#114 = DIRECTION ( 'NONE',  ( 0.000000000000000000, 0.000000000000000000, 1.000000000000000000 ) ) ;
#115 = ADVANCED_FACE ( 'NONE', ( #4 ), #92, .F. ) ;
#116 = CYLINDRICAL_SURFACE ( 'NONE', #125, 28.00000000000000000 ) ;
#117 = DIRECTION ( 'NONE',  ( 0.000000000000000000, 0.000000000000000000, 1.000000000000000000 ) ) ;
#118 = EDGE_CURVE ( 'NONE', #123, #235, #55, .T. ) ;
#119 = CARTESIAN_POINT ( 'NONE',  ( -5.015106716429999167, 2.378298030472000058, 107.9459594928933939 ) ) ;
#120 =( GEOMETRIC_REPRESENTATION_CONTEXT ( 3 ) GLOBAL_UNCERTAINTY_ASSIGNED_CONTEXT ( ( #208 ) ) GLOBAL_UNIT_ASSIGNED_CONTEXT ( ( #126, #38, #280 ) ) REPRESENTATION_CONTEXT ( 'NONE', 'WORKASPACE' ) );
#121 = PLANE ( 'NONE',  #13 ) ;
#122 =( NAMED_UNIT ( * ) SI_UNIT ( $, .STERADIAN. ) SOLID_ANGLE_UNIT ( ) );
#123 = VERTEX_POINT ( 'NONE', #179 ) ;
#124 = ORIENTED_EDGE ( 'NONE', *, *, #225, .F. ) ;
#125 = AXIS2_PLACEMENT_3D ( 'NONE', #119, #95, #9 ) ;
#126 =( LENGTH_UNIT ( ) NAMED_UNIT ( * ) SI_UNIT ( .MILLI., .METRE. ) );
#127 = EDGE_LOOP ( 'NONE', ( #83, #260, #187, #44 ) ) ;
#128 = ORIENTED_EDGE ( 'NONE', *, *, #206, .F. ) ;
#129 = CIRCLE ( 'NONE', #8, 28.00000000000000000 ) ;
#130 = CARTESIAN_POINT ( 'NONE',  ( -5.015106716429999167, 2.378298030472000058, 107.9459594928933939 ) ) ;
#131 = CARTESIAN_POINT ( 'NONE',  ( -14.51510671643000094, -14.07618464143231840, -24.75000000000000000 ) ) ;
#132 = DIRECTION ( 'NONE',  ( 0.000000000000000000, 0.000000000000000000, -1.000000000000000000 ) ) ;
#133 = VECTOR ( 'NONE', #211, 1000.000000000000000 ) ;
#134 = DIRECTION ( 'NONE',  ( 0.000000000000000000, 0.000000000000000000, 1.000000000000000000 ) ) ;
#135 = LINE ( 'NONE', #45, #113 ) ;
#136 = EDGE_CURVE ( 'NONE', #238, #16, #30, .T. ) ;
#137 = DIRECTION ( 'NONE',  ( 0.000000000000000000, 0.000000000000000000, -1.000000000000000000 ) ) ;
#138 = COLOUR_RGB ( '',0.7921568627450980005, 0.8196078431372548767, 0.9333333333333333481 ) ;
#139 = DIRECTION ( 'NONE',  ( 1.000000000000000000, 0.000000000000000000, 0.000000000000000000 ) ) ;
#140 = DIRECTION ( 'NONE',  ( 0.000000000000000000, 0.000000000000000000, 1.000000000000000000 ) ) ;
#141 = FACE_OUTER_BOUND ( 'NONE', #237, .T. ) ;
#142 = SURFACE_SIDE_STYLE ('',( #270 ) ) ;
#143 = VERTEX_POINT ( 'NONE', #205 ) ;
#144 = ADVANCED_FACE ( 'NONE', ( #141 ), #163, .T. ) ;
#145 = ORIENTED_EDGE ( 'NONE', *, *, #206, .T. ) ;
#146 = AXIS2_PLACEMENT_3D ( 'NONE', #34, #114, #162 ) ;
#147 = DIRECTION ( 'NONE',  ( 1.000000000000000000, 0.000000000000000000, 0.000000000000000000 ) ) ;
#148 = VERTEX_POINT ( 'NONE', #7 ) ;
#149 = ORIENTED_EDGE ( 'NONE', *, *, #94, .F. ) ;
#150 = CARTESIAN_POINT ( 'NONE',  ( -5.015106716429999167, 2.378298030472000058, -26.75000000000000000 ) ) ;
#151 = AXIS2_PLACEMENT_3D ( 'NONE', #248, #12, #96 ) ;
#152 = EDGE_CURVE ( 'NONE', #123, #168, #161, .T. ) ;
#153 = ORIENTED_EDGE ( 'NONE', *, *, #46, .F. ) ;
#154 = CARTESIAN_POINT ( 'NONE',  ( -5.015106716429999167, 2.378298030472000058, 28.75000000000000000 ) ) ;
#155 = DIRECTION ( 'NONE',  ( 0.000000000000000000, 0.000000000000000000, -1.000000000000000000 ) ) ;
#156 = AXIS2_PLACEMENT_3D ( 'NONE', #284, #36, #147 ) ;
#157 = CARTESIAN_POINT ( 'NONE',  ( -5.015106716429999167, 2.378298030472000058, -81.24747468305838538 ) ) ;
#158 = ADVANCED_FACE ( 'NONE', ( #33 ), #116, .T. ) ;
#159 = DIRECTION ( 'NONE',  ( 0.4999999999999998335, 0.8660254037844387076, 0.000000000000000000 ) ) ;
#160 = CARTESIAN_POINT ( 'NONE',  ( -5.015106716429999167, 2.378298030472000058, -24.75000000000000000 ) ) ;
#161 = CIRCLE ( 'NONE', #169, 17.50000000000000000 ) ;
#162 = DIRECTION ( 'NONE',  ( 0.4999999999999998335, 0.8660254037844387076, 0.000000000000000000 ) ) ;
#163 = CYLINDRICAL_SURFACE ( 'NONE', #272, 17.50000000000000000 ) ;
#164 = LINE ( 'NONE', #29, #249 ) ;
#165 = LINE ( 'NONE', #255, #133 ) ;
#166 = EDGE_LOOP ( 'NONE', ( #41, #15 ) ) ;
#167 = EDGE_CURVE ( 'NONE', #240, #238, #164, .T. ) ;
#168 = VERTEX_POINT ( 'NONE', #251 ) ;
#169 = AXIS2_PLACEMENT_3D ( 'NONE', #77, #137, #222 ) ;
#170 = VERTEX_POINT ( 'NONE', #203 ) ;
#171 = CARTESIAN_POINT ( 'NONE',  ( -14.51510671643000094, -14.07618464143233972, -26.75000000000000000 ) ) ;
#172 = CYLINDRICAL_SURFACE ( 'NONE', #24, 19.00000000000000711 ) ;
#173 = PRODUCT_DEFINITION ( 'General', '', #54, #279 ) ;
#174 = ORIENTED_EDGE ( 'NONE', *, *, #225, .T. ) ;
#175 = PLANE ( 'NONE',  #35 ) ;
#176 = DIRECTION ( 'NONE',  ( -1.000000000000000000, 0.000000000000000000, 0.000000000000000000 ) ) ;
#177 = LINE ( 'NONE', #201, #276 ) ;
#178 =( LENGTH_UNIT ( ) NAMED_UNIT ( * ) SI_UNIT ( .MILLI., .METRE. ) );
#179 = CARTESIAN_POINT ( 'NONE',  ( -22.51510671642999739, 2.378298030472000058, -31.75000000000000000 ) ) ;
#180 = AXIS2_PLACEMENT_3D ( 'NONE', #220, #51, #265 ) ;
#181 = SURFACE_STYLE_USAGE ( .BOTH. , #142 ) ;
#182 = DIRECTION ( 'NONE',  ( 0.4999999999999998335, 0.8660254037844387076, 0.000000000000000000 ) ) ;
#183 = EDGE_CURVE ( 'NONE', #235, #282, #76, .T. ) ;
#184 = ORIENTED_EDGE ( 'NONE', *, *, #46, .T. ) ;
#185 = CIRCLE ( 'NONE', #146, 19.00000000000000711 ) ;
#186 = ORIENTED_EDGE ( 'NONE', *, *, #269, .T. ) ;
#187 = ORIENTED_EDGE ( 'NONE', *, *, #167, .T. ) ;
#188 = UNCERTAINTY_MEASURE_WITH_UNIT (LENGTH_MEASURE( 1.000000000000000082E-05 ), #178, 'distance_accuracy_value', 'NONE');
#189 = ORIENTED_EDGE ( 'NONE', *, *, #183, .F. ) ;
#190 = ORIENTED_EDGE ( 'NONE', *, *, #152, .F. ) ;
#191 = VECTOR ( 'NONE', #196, 1000.000000000000000 ) ;
#192 = FACE_OUTER_BOUND ( 'NONE', #216, .T. ) ;
#193 = CYLINDRICAL_SURFACE ( 'NONE', #109, 17.50000000000000000 ) ;
#194 = CARTESIAN_POINT ( 'NONE',  ( -5.015106716429999167, 2.378298030472000058, 28.75000000000000000 ) ) ;
#195 = CIRCLE ( 'NONE', #267, 19.00000000000000000 ) ;
#196 = DIRECTION ( 'NONE',  ( 0.000000000000000000, 0.000000000000000000, 1.000000000000000000 ) ) ;
#197 = CARTESIAN_POINT ( 'NONE',  ( -5.015106716429999167, 2.378298030472000058, -26.75000000000000000 ) ) ;
#198 = CARTESIAN_POINT ( 'NONE',  ( -22.51510671642999739, 2.378298030472000058, -81.24747468305838538 ) ) ;
#199 = PRODUCT_DEFINITION_SHAPE ( 'NONE', 'NONE',  #173 ) ;
#200 = AXIS2_PLACEMENT_3D ( 'NONE', #217, #155, #176 ) ;
#201 = CARTESIAN_POINT ( 'NONE',  ( 22.98489328356999906, 2.378298030472000058, 107.9459594928933939 ) ) ;
#202 = EDGE_CURVE ( 'NONE', #143, #148, #239, .T. ) ;
#203 = CARTESIAN_POINT ( 'NONE',  ( 22.98489328356999906, 2.378298030472000058, 28.75000000000000000 ) ) ;
#204 = DIRECTION ( 'NONE',  ( 0.000000000000000000, 0.000000000000000000, 1.000000000000000000 ) ) ;
#205 = CARTESIAN_POINT ( 'NONE',  ( 22.98489328356999906, 2.378298030472000058, -26.75000000000000000 ) ) ;
#206 = EDGE_CURVE ( 'NONE', #170, #143, #177, .T. ) ;
#207 = ORIENTED_EDGE ( 'NONE', *, *, #152, .T. ) ;
#208 = UNCERTAINTY_MEASURE_WITH_UNIT (LENGTH_MEASURE( 1.000000000000000082E-05 ), #126, 'distance_accuracy_value', 'NONE');
#209 = APPLICATION_PROTOCOL_DEFINITION ( 'draft international standard', 'automotive_design', 1998, #252 ) ;
#210 = ORIENTED_EDGE ( 'NONE', *, *, #11, .T. ) ;
#211 = DIRECTION ( 'NONE',  ( 0.000000000000000000, 0.000000000000000000, 1.000000000000000000 ) ) ;
#212 = EDGE_LOOP ( 'NONE', ( #18, #215, #39, #277 ) ) ;
#213 = FACE_OUTER_BOUND ( 'NONE', #103, .T. ) ;
#214 = EDGE_LOOP ( 'NONE', ( #153, #221 ) ) ;
#215 = ORIENTED_EDGE ( 'NONE', *, *, #85, .T. ) ;
#216 = EDGE_LOOP ( 'NONE', ( #70, #190, #64, #149 ) ) ;
#217 = CARTESIAN_POINT ( 'NONE',  ( -5.015106716429999167, 2.378298030472000058, -26.75000000000000000 ) ) ;
#218 = DIRECTION ( 'NONE',  ( 0.000000000000000000, -1.000000000000000000, 0.000000000000000000 ) ) ;
#219 = PRESENTATION_LAYER_ASSIGNMENT (  '', '', ( #71 ) ) ;
#220 = CARTESIAN_POINT ( 'NONE',  ( -5.015106716429999167, 2.378298030472000058, -26.75000000000000000 ) ) ;
#221 = ORIENTED_EDGE ( 'NONE', *, *, #37, .F. ) ;
#222 = DIRECTION ( 'NONE',  ( -1.000000000000000000, 0.000000000000000000, 0.000000000000000000 ) ) ;
#223 = AXIS2_PLACEMENT_3D ( 'NONE', #160, #204, #182 ) ;
#224 = CARTESIAN_POINT ( 'NONE',  ( 4.484893283569999944, 18.83278070237634694, -24.75000000000000000 ) ) ;
#225 = EDGE_CURVE ( 'NONE', #168, #123, #3, .T. ) ;
#226 = CARTESIAN_POINT ( 'NONE',  ( -22.51510671642999739, 2.378298030472000058, -24.75000000000000000 ) ) ;
#227 = CARTESIAN_POINT ( 'NONE',  ( -5.015106716429999167, 2.378298030472000058, -81.24747468305838538 ) ) ;
#228 = EDGE_CURVE ( 'NONE', #16, #238, #185, .T. ) ;
#229 = PRODUCT ( 'ASV1_400_23X_1_1.STEP', 'ASV1_400_23X_1_1.STEP', '', ( #100 ) ) ;
#230 = MECHANICAL_DESIGN_GEOMETRIC_PRESENTATION_REPRESENTATION (  '', ( #71 ), #97 ) ;
#231 = FACE_OUTER_BOUND ( 'NONE', #214, .T. ) ;
#232 = DIRECTION ( 'NONE',  ( 1.000000000000000000, 0.000000000000000000, 0.000000000000000000 ) ) ;
#233 = ORIENTED_EDGE ( 'NONE', *, *, #202, .F. ) ;
#234 = ORIENTED_EDGE ( 'NONE', *, *, #42, .F. ) ;
#235 = VERTEX_POINT ( 'NONE', #226 ) ;
#236 = DIRECTION ( 'NONE',  ( 0.000000000000000000, -1.000000000000000000, 0.000000000000000000 ) ) ;
#237 = EDGE_LOOP ( 'NONE', ( #124, #186, #189, #82 ) ) ;
#238 = VERTEX_POINT ( 'NONE', #224 ) ;
#239 = CIRCLE ( 'NONE', #40, 28.00000000000000000 ) ;
#240 = VERTEX_POINT ( 'NONE', #74 ) ;
#241 = VECTOR ( 'NONE', #31, 1000.000000000000000 ) ;
#242 = DIRECTION ( 'NONE',  ( 0.4999999999999998335, 0.8660254037844387076, 0.000000000000000000 ) ) ;
#243 = DIRECTION ( 'NONE',  ( 0.000000000000000000, 0.000000000000000000, -1.000000000000000000 ) ) ;
#244 = CARTESIAN_POINT ( 'NONE',  ( -33.01510671643000450, 2.378298030471994728, 28.75000000000000000 ) ) ;
#245 = FACE_BOUND ( 'NONE', #166, .T. ) ;
#246 = APPLICATION_CONTEXT ( 'automotive_design' ) ;
#247 = FILL_AREA_STYLE_COLOUR ( '', #138 ) ;
#248 = CARTESIAN_POINT ( 'NONE',  ( -5.015106716429999167, 2.378298030472000058, -31.75000000000000000 ) ) ;
#249 = VECTOR ( 'NONE', #250, 1000.000000000000000 ) ;
#250 = DIRECTION ( 'NONE',  ( 0.000000000000000000, 0.000000000000000000, 1.000000000000000000 ) ) ;
#251 = CARTESIAN_POINT ( 'NONE',  ( 12.48489328356999906, 2.378298030472000058, -31.75000000000000000 ) ) ;
#252 = APPLICATION_CONTEXT ( 'automotive_design' ) ;
#253 = MANIFOLD_SOLID_BREP ( 'NONE', #91 ) ;
#254 = AXIS2_PLACEMENT_3D ( 'NONE', #154, #243, #49 ) ;
#255 = CARTESIAN_POINT ( 'NONE',  ( 12.48489328356999906, 2.378298030472000058, -81.24747468305838538 ) ) ;
#256 = ORIENTED_EDGE ( 'NONE', *, *, #202, .T. ) ;
#257 = AXIS2_PLACEMENT_3D ( 'NONE', #43, #259, #236 ) ;
#258 = ORIENTED_EDGE ( 'NONE', *, *, #228, .F. ) ;
#259 = DIRECTION ( 'NONE',  ( 0.000000000000000000, 0.000000000000000000, -1.000000000000000000 ) ) ;
#260 = ORIENTED_EDGE ( 'NONE', *, *, #98, .T. ) ;
#261 = DIRECTION ( 'NONE',  ( -1.000000000000000000, 0.000000000000000000, 0.000000000000000000 ) ) ;
#262 = CARTESIAN_POINT ( 'NONE',  ( -5.015106716429999167, 2.378298030472000058, -26.75000000000000000 ) ) ;
#263 = ADVANCED_FACE ( 'NONE', ( #231 ), #268, .F. ) ;
#264 = DIRECTION ( 'NONE',  ( 0.000000000000000000, 0.000000000000000000, -1.000000000000000000 ) ) ;
#265 = DIRECTION ( 'NONE',  ( 1.000000000000000000, 0.000000000000000000, 0.000000000000000000 ) ) ;
#266 = DIRECTION ( 'NONE',  ( 1.000000000000000000, 0.000000000000000000, 0.000000000000000000 ) ) ;
#267 = AXIS2_PLACEMENT_3D ( 'NONE', #197, #72, #261 ) ;
#268 = PLANE ( 'NONE',  #257 ) ;
#269 = EDGE_CURVE ( 'NONE', #168, #282, #165, .T. ) ;
#270 = SURFACE_STYLE_FILL_AREA ( #52 ) ;
#271 = DIRECTION ( 'NONE',  ( -1.000000000000000000, 0.000000000000000000, 0.000000000000000000 ) ) ;
#272 = AXIS2_PLACEMENT_3D ( 'NONE', #227, #117, #112 ) ;
#273 = PRESENTATION_STYLE_ASSIGNMENT (( #181 ) ) ;
#274 = CARTESIAN_POINT ( 'NONE',  ( -5.015106716429999167, 2.378298030472000058, -24.75000000000000000 ) ) ;
#275 = EDGE_LOOP ( 'NONE', ( #256, #57 ) ) ;
#276 = VECTOR ( 'NONE', #93, 1000.000000000000000 ) ;
#277 = ORIENTED_EDGE ( 'NONE', *, *, #167, .F. ) ;
#278 = ADVANCED_FACE ( 'NONE', ( #213 ), #121, .F. ) ;
#279 = PRODUCT_DEFINITION_CONTEXT ( 'detailed design', #252, 'design' ) ;
#280 =( NAMED_UNIT ( * ) SI_UNIT ( $, .STERADIAN. ) SOLID_ANGLE_UNIT ( ) );
#281 = ORIENTED_EDGE ( 'NONE', *, *, #37, .T. ) ;
#282 = VERTEX_POINT ( 'NONE', #17 ) ;
#283 = AXIS2_PLACEMENT_3D ( 'NONE', #194, #132, #48 ) ;
#284 = CARTESIAN_POINT ( 'NONE',  ( 0.000000000000000000, 0.000000000000000000, 0.000000000000000000 ) ) ;
#285 = PRODUCT_RELATED_PRODUCT_CATEGORY ( 'part', '', ( #229 ) ) ;
ENDSEC;
END-ISO-10303-21;
