ISO-10303-21;
HEADER;
FILE_DESCRIPTION (( 'STEP AP214' ),
    '1' );
FILE_NAME ('ASV1_400_20X_1_1.STEP.STEP',
    '2026-08-01T03:19:15',
    ( '' ),
    ( '' ),
    'SwSTEP 2.0',
    'SolidWorks 2025',
    '' );
FILE_SCHEMA (( 'AUTOMOTIVE_DESIGN' ));
ENDSEC;

DATA;
#1 = CARTESIAN_POINT ( 'NONE',  ( 15.69922504685108677, 25.59831721221460299, 5.191393404436231762 ) ) ;
#2 = CARTESIAN_POINT ( 'NONE',  ( -3.257618960111219980E-15, 22.59831721221459944, -2.597473735272980434E-17 ) ) ;
#3 = CARTESIAN_POINT ( 'NONE',  ( -4.216392268543673438, 19.59831721221458167, -18.32088971520220611 ) ) ;
#4 = DIRECTION ( 'NONE',  ( 1.000000000000000000, 0.000000000000000000, 0.000000000000000000 ) ) ;
#5 = CARTESIAN_POINT ( 'NONE',  ( 17.03150354889282170, 19.59831721221458523, -7.989434095602067742 ) ) ;
#6 = CARTESIAN_POINT ( 'NONE',  ( 10.33724688138500625, 19.89831721221459659, -13.01236988058788491 ) ) ;
#7 = CARTESIAN_POINT ( 'NONE',  ( 10.04701976203024572, 19.89831721221459659, 13.23774289285406880 ) ) ;
#8 = CARTESIAN_POINT ( 'NONE',  ( -1.406237712736867721E-14, 97.55163601798868456, -1.121268499818547791E-16 ) ) ;
#9 = CARTESIAN_POINT ( 'NONE',  ( -14.88864451877517325, 25.59831721221460654, -7.193364786026554825 ) ) ;
#10 = CARTESIAN_POINT ( 'NONE',  ( 2.264228692728395220, 19.59831721221459944, 16.68299418468275164 ) ) ;
#11 = VERTEX_POINT ( 'NONE', #336 ) ;
#12 = CARTESIAN_POINT ( 'NONE',  ( -16.50809546430354402, 25.59831721221460654, -0.9481649079887980447 ) ) ;
#13 = CARTESIAN_POINT ( 'NONE',  ( -14.78902310205296011, 19.59831721221459944, 11.44442203376580025 ) ) ;
#14 = CARTESIAN_POINT ( 'NONE',  ( -15.69922504685109033, 25.59831721221460299, -5.191393404436258407 ) ) ;
#15 = AXIS2_PLACEMENT_3D ( 'NONE', #43, #355, #270 ) ;
#16 = CARTESIAN_POINT ( 'NONE',  ( 4.732317559215434954, 19.89831721221459659, 15.93065012843719686 ) ) ;
#17 = ORIENTED_EDGE ( 'NONE', *, *, #125, .T. ) ;
#18 = CARTESIAN_POINT ( 'NONE',  ( -11.00253241116191916, 25.59831721221460654, -12.34344008340593213 ) ) ;
#19 = CARTESIAN_POINT ( 'NONE',  ( -15.12934076921260029, 19.59831721221459944, -7.385937613341709174 ) ) ;
#20 = ORIENTED_EDGE ( 'NONE', *, *, #101, .T. ) ;
#21 = MANIFOLD_SOLID_BREP ( 'NONE', #329 ) ;
#22 = CARTESIAN_POINT ( 'NONE',  ( -4.405536256209614088, 25.59831721221460299, -15.93761220655476052 ) ) ;
#23 = CARTESIAN_POINT ( 'NONE',  ( -15.58120040183644939, 19.59831721221459944, -6.377712801384689989 ) ) ;
#24 = EDGE_CURVE ( 'NONE', #239, #113, #394, .T. ) ;
#25 = EDGE_LOOP ( 'NONE', ( #158, #161 ) ) ;
#26 = VECTOR ( 'NONE', #227, 1000.000000000000000 ) ;
#27 = CARTESIAN_POINT ( 'NONE',  ( -3.520323485761508664, 19.59831721221457812, 18.46727609244071999 ) ) ;
#28 = ORIENTED_EDGE ( 'NONE', *, *, #159, .F. ) ;
#29 = CARTESIAN_POINT ( 'NONE',  ( -13.07470795869320668, 19.74172121458561691, 10.11780662015117827 ) ) ;
#30 = ADVANCED_BREP_SHAPE_REPRESENTATION ( 'ASV1_400_20X_1_1.STEP', ( #21, #49 ), #111 ) ;
#31 = FACE_BOUND ( 'NONE', #374, .T. ) ;
#32 = CARTESIAN_POINT ( 'NONE',  ( 4.216392268543667221, 19.59831721221458523, 18.32088971520219900 ) ) ;
#33 = VERTEX_POINT ( 'NONE', #503 ) ;
#34 = CARTESIAN_POINT ( 'NONE',  ( 17.21561347075979143, 19.59831721221457457, 7.553516832855390994 ) ) ;
#35 = PRODUCT_DEFINITION_CONTEXT ( 'detailed design', #172, 'design' ) ;
#36 = ORIENTED_EDGE ( 'NONE', *, *, #342, .T. ) ;
#37 = DIRECTION ( 'NONE',  ( 0.000000000000000000, -1.000000000000000000, 1.149410246294365984E-18 ) ) ;
#38 = EDGE_CURVE ( 'NONE', #143, #33, #389, .T. ) ;
#39 = CARTESIAN_POINT ( 'NONE',  ( 5.441384482153959645, 25.59831721221460299, 15.61433852164972969 ) ) ;
#40 = MECHANICAL_DESIGN_GEOMETRIC_PRESENTATION_REPRESENTATION (  '', ( #398 ), #471 ) ;
#41 = CARTESIAN_POINT ( 'NONE',  ( -14.78902310205296011, 19.59831721221459944, 11.44442203376580025 ) ) ;
#42 = CARTESIAN_POINT ( 'NONE',  ( -10.80405543797370171, 25.59831721221460299, 12.51753245030711525 ) ) ;
#43 = CARTESIAN_POINT ( 'NONE',  ( -2.009088019916770218, -52.90168278778539701, -4.850367545684349579 ) ) ;
#44 = CARTESIAN_POINT ( 'NONE',  ( 15.19311824586789861, 25.59831721221460299, -6.435771746036060392 ) ) ;
#45 = CARTESIAN_POINT ( 'NONE',  ( 13.04913803122320104, 19.89831721221460015, -10.09801944155801934 ) ) ;
#46 = CARTESIAN_POINT ( 'NONE',  ( 5.083383350598975170, 19.89831721221460725, -15.82212554326339493 ) ) ;
#47 = CARTESIAN_POINT ( 'NONE',  ( 13.28639508633637867, 19.59831721221459944, -10.28161979504089985 ) ) ;
#48 = CARTESIAN_POINT ( 'NONE',  ( -2.288087172334498653, 19.59831721221458167, -18.66005414811636953 ) ) ;
#49 = AXIS2_PLACEMENT_3D ( 'NONE', #178, #228, #4 ) ;
#50 = CARTESIAN_POINT ( 'NONE',  ( -15.19311824586789861, 25.59831721221460299, 6.435771746036060392 ) ) ;
#51 = CARTESIAN_POINT ( 'NONE',  ( 1.580568512472967146, 19.59831721221458878, -18.73325297155343705 ) ) ;
#52 = CARTESIAN_POINT ( 'NONE',  ( 16.83579716868599974, 19.59831721221459944, -0.07042892870858889764 ) ) ;
#53 = PLANE ( 'NONE',  #487 ) ;
#54 = CARTESIAN_POINT ( 'NONE',  ( -10.33724688138499914, 19.89831721221459659, 13.01236988058789557 ) ) ;
#55 = ORIENTED_EDGE ( 'NONE', *, *, #290, .F. ) ;
#56 = DIRECTION ( 'NONE',  ( 0.9238795325112849621, -5.236901059552625507E-16, -0.3826834323650940561 ) ) ;
#57 = TOROIDAL_SURFACE ( 'NONE', #436, 16.80000000000000071, 0.2999999999999999889 ) ;
#58 = DIRECTION ( 'NONE',  ( 0.000000000000000000, -1.000000000000000000, 1.149410246294365984E-18 ) ) ;
#59 = CARTESIAN_POINT ( 'NONE',  ( -13.04913803122324190, 19.89831721221460015, 10.09801944155801934 ) ) ;
#60 = ORIENTED_EDGE ( 'NONE', *, *, #543, .T. ) ;
#61 = CARTESIAN_POINT ( 'NONE',  ( -4.947709694856399845E-15, 25.59831721221460299, 3.652206340359804987E-16 ) ) ;
#62 = CARTESIAN_POINT ( 'NONE',  ( 14.25275193443023447, 25.59831721221460654, -8.383036135368609365 ) ) ;
#63 = CARTESIAN_POINT ( 'NONE',  ( -10.19560685569952163, 19.59831721221459944, 13.39770978127032031 ) ) ;
#64 = EDGE_CURVE ( 'NONE', #468, #254, #205, .T. ) ;
#65 = ORIENTED_EDGE ( 'NONE', *, *, #282, .T. ) ;
#66 = ORIENTED_EDGE ( 'NONE', *, *, #83, .T. ) ;
#67 = B_SPLINE_CURVE_WITH_KNOTS ( 'NONE', 3,
 ( #251, #153, #448, #332, #411, #12, #188, #486, #14, #9, #495, #248, #499, #18, #537, #414, #403, #289, #22, #445, #190, #363, #201, #458, #73, #145, #406, #360, #530, #104, #278, #62, #490, #240 ),
 .UNSPECIFIED., .F., .F.,
 ( 4, 2, 2, 2, 2, 2, 2, 2, 2, 2, 2, 2, 2, 2, 2, 2, 4 ),
 ( 0.000000000000000000, 0.06250000000000000000, 0.1250000000000000000, 0.1875000000000000000, 0.2500000000000000000, 0.3125000000000000000, 0.3750000000000000000, 0.4375000000000000000, 0.5000000000000000000, 0.5625000000000000000, 0.6250000000000000000, 0.6875000000000000000, 0.7500000000000000000, 0.8125000000000000000, 0.8750000000000000000, 0.9375000000000000000, 1.000000000000000000 ),
 .UNSPECIFIED. ) ;
#68 = AXIS2_PLACEMENT_3D ( 'NONE', #61, #193, #367 ) ;
#69 = CARTESIAN_POINT ( 'NONE',  ( -14.63984326033037675, 19.89831721221459659, 7.741904500500178976 ) ) ;
#70 = ADVANCED_FACE ( 'NONE', ( #432, #135 ), #261, .F. ) ;
#71 = LINE ( 'NONE', #325, #551 ) ;
#72 = ORIENTED_EDGE ( 'NONE', *, *, #101, .F. ) ;
#73 = CARTESIAN_POINT ( 'NONE',  ( 5.191393404436279724, 25.59831721221460299, -15.69922504685107612 ) ) ;
#74 = CARTESIAN_POINT ( 'NONE',  ( 9.610425731706186525, 19.59831721221458523, 16.15774368450607312 ) ) ;
#75 = ORIENTED_EDGE ( 'NONE', *, *, #64, .F. ) ;
#76 = AXIS2_PLACEMENT_3D ( 'NONE', #284, #330, #56 ) ;
#77 = DIRECTION ( 'NONE',  ( 0.7908568503771647995, 1.152781823383301347E-16, -0.6120011782762438957 ) ) ;
#78 = ORIENTED_EDGE ( 'NONE', *, *, #268, .T. ) ;
#79 = B_SPLINE_CURVE_WITH_KNOTS ( 'NONE', 3,
 ( #44, #311, #472, #129, #558, #84, #309, #260, #1, #266, #263, #90, #224, #179, #427, #222, #429, #39, #391, #554, #216, #350, #516, #304, #474, #345, #93, #510, #42, #267, #219, #387, #353, #520 ),
 .UNSPECIFIED., .F., .F.,
 ( 4, 2, 2, 2, 2, 2, 2, 2, 2, 2, 2, 2, 2, 2, 2, 2, 4 ),
 ( 0.000000000000000000, 0.06249999999999994449, 0.1249999999999998890, 0.1874999999999998335, 0.2499999999999997780, 0.3124999999999997224, 0.3749999999999996669, 0.4374999999999996114, 0.4999999999999995559, 0.5624999999999995559, 0.6249999999999996669, 0.6874999999999996669, 0.7499999999999997780, 0.8124999999999997780, 0.8749999999999998890, 0.9374999999999998890, 1.000000000000000000 ),
 .UNSPECIFIED. ) ;
#80 = CARTESIAN_POINT ( 'NONE',  ( -3.353576747629070098, 19.59831721221459944, -16.49856204452060027 ) ) ;
#81 = FILL_AREA_STYLE_COLOUR ( '', #235 ) ;
#82 = CARTESIAN_POINT ( 'NONE',  ( -18.70000000000000284, 97.55163601798868456, 2.177962664423694814E-15 ) ) ;
#83 = EDGE_CURVE ( 'NONE', #115, #156, #453, .T. ) ;
#84 = CARTESIAN_POINT ( 'NONE',  ( 16.50809546430354402, 25.59831721221461009, 0.9481649079887749521 ) ) ;
#85 = DIRECTION ( 'NONE',  ( 0.000000000000000000, 4.031734505761719585E-19, -1.000000000000000000 ) ) ;
#86 = CARTESIAN_POINT ( 'NONE',  ( -11.57500079533361337, 19.89831721221459304, -11.92475574525370163 ) ) ;
#87 = DIRECTION ( 'NONE',  ( 1.488156356394548084E-15, 1.000000000000000000, 2.094760423821050203E-15 ) ) ;
#88 = VECTOR ( 'NONE', #269, 1000.000000000000000 ) ;
#89 = CARTESIAN_POINT ( 'NONE',  ( -17.21561347075983406, 19.59831721221458167, -7.553516832855378560 ) ) ;
#90 = CARTESIAN_POINT ( 'NONE',  ( 13.19920753668553814, 25.59831721221461720, 9.959776752257269550 ) ) ;
#91 = UNCERTAINTY_MEASURE_WITH_UNIT (LENGTH_MEASURE( 1.000000000000000082E-05 ), #511, 'distance_accuracy_value', 'NONE');
#92 = DIRECTION ( 'NONE',  ( 2.080607314270080073E-17, -1.000000000000000000, -4.031734505761719585E-19 ) ) ;
#93 = CARTESIAN_POINT ( 'NONE',  ( -8.154409105647333789, 25.59831721221460299, 14.38477822870538603 ) ) ;
#94 = PLANE ( 'NONE',  #15 ) ;
#95 = CARTESIAN_POINT ( 'NONE',  ( 11.85490557157761948, 19.59831721221459944, -11.95450711774062036 ) ) ;
#96 = CARTESIAN_POINT ( 'NONE',  ( -18.70000000249789096, 19.59831721221458878, -1.934674035959536464 ) ) ;
#97 =( NAMED_UNIT ( * ) SI_UNIT ( $, .STERADIAN. ) SOLID_ANGLE_UNIT ( ) );
#98 = CIRCLE ( 'NONE', #375, 26.50000000000000000 ) ;
#99 = CYLINDRICAL_SURFACE ( 'NONE', #68, 16.50000000000000000 ) ;
#100 = CARTESIAN_POINT ( 'NONE',  ( 16.04521724890825851, 19.59831721221458523, -9.821108579954426432 ) ) ;
#101 = EDGE_CURVE ( 'NONE', #204, #539, #149, .T. ) ;
#102 = CARTESIAN_POINT ( 'NONE',  ( 24.48280761154904894, -52.90168278778539701, -10.14111095767500004 ) ) ;
#103 = CARTESIAN_POINT ( 'NONE',  ( 11.95450711774066122, 19.59831721221459944, 11.85490557157759817 ) ) ;
#104 = CARTESIAN_POINT ( 'NONE',  ( 12.34344008340593213, 25.59831721221460299, -11.00253241116190495 ) ) ;
#105 = CARTESIAN_POINT ( 'NONE',  ( 16.52604204928260145, 19.59831721221459944, 3.215425434445219999 ) ) ;
#106 = CARTESIAN_POINT ( 'NONE',  ( -4.292430930584679061, 19.59831721221459944, 16.27955967602605014 ) ) ;
#107 = ORIENTED_EDGE ( 'NONE', *, *, #371, .T. ) ;
#108 = DIRECTION ( 'NONE',  ( 1.000000000000000000, 0.000000000000000000, 0.000000000000000000 ) ) ;
#109 = CARTESIAN_POINT ( 'NONE',  ( 2.288087172334502206, 19.59831721221458167, 18.66005414811636243 ) ) ;
#110 = EDGE_CURVE ( 'NONE', #539, #328, #247, .T. ) ;
#111 =( GEOMETRIC_REPRESENTATION_CONTEXT ( 3 ) GLOBAL_UNCERTAINTY_ASSIGNED_CONTEXT ( ( #91 ) ) GLOBAL_UNIT_ASSIGNED_CONTEXT ( ( #511, #226, #97 ) ) REPRESENTATION_CONTEXT ( 'NONE', 'WORKASPACE' ) );
#112 = CARTESIAN_POINT ( 'NONE',  ( -8.992324623643094483, 19.59831721221458167, 16.50972627216632205 ) ) ;
#113 = VERTEX_POINT ( 'NONE', #124 ) ;
#114 = DIRECTION ( 'NONE',  ( 0.7908568503771647995, 1.152781823383301347E-16, -0.6120011782762438957 ) ) ;
#115 = VERTEX_POINT ( 'NONE', #305 ) ;
#116 = CARTESIAN_POINT ( 'NONE',  ( -5.475412880977599706, 19.59831721221459944, -15.92070602460705153 ) ) ;
#117 = ORIENTED_EDGE ( 'NONE', *, *, #134, .T. ) ;
#118 = CARTESIAN_POINT ( 'NONE',  ( -16.80416423417210225, 19.59831721221459944, -1.033968534388305827 ) ) ;
#119 = ORIENTED_EDGE ( 'NONE', *, *, #38, .T. ) ;
#120 = CARTESIAN_POINT ( 'NONE',  ( -13.04913803122324190, 19.89831721221460015, 10.09801944155801934 ) ) ;
#121 = CARTESIAN_POINT ( 'NONE',  ( -1.406237712736867721E-14, 97.55163601798868456, -1.121268499818547791E-16 ) ) ;
#122 = ORIENTED_EDGE ( 'NONE', *, *, #364, .T. ) ;
#123 = CARTESIAN_POINT ( 'NONE',  ( -4.947709694856399845E-15, 25.59831721221460299, 3.652206340359804987E-16 ) ) ;
#124 = CARTESIAN_POINT ( 'NONE',  ( -24.48280761154904894, 22.59831721221459944, 10.14111095767500004 ) ) ;
#125 = EDGE_CURVE ( 'NONE', #239, #143, #349, .T. ) ;
#126 = DIRECTION ( 'NONE',  ( -1.169399601181603932E-17, 1.000000000000000000, 6.389663568734079377E-18 ) ) ;
#127 = VECTOR ( 'NONE', #467, 1000.000000000000000 ) ;
#128 = CARTESIAN_POINT ( 'NONE',  ( -18.69999999734988450, 19.59831721221458167, 2.052600887418900566 ) ) ;
#129 = CARTESIAN_POINT ( 'NONE',  ( 16.37587483610417038, 25.59831721221460299, -2.290623474853695551 ) ) ;
#130 = CARTESIAN_POINT ( 'NONE',  ( 7.226486840403202550, 19.59831721221458167, -17.35542715303532191 ) ) ;
#131 = FACE_OUTER_BOUND ( 'NONE', #366, .T. ) ;
#132 = FACE_OUTER_BOUND ( 'NONE', #197, .T. ) ;
#133 = CARTESIAN_POINT ( 'NONE',  ( 24.48280761154904894, -44.16968881141595205, -10.14111095767507997 ) ) ;
#134 = EDGE_CURVE ( 'NONE', #328, #11, #211, .T. ) ;
#135 = FACE_OUTER_BOUND ( 'NONE', #25, .T. ) ;
#136 = AXIS2_PLACEMENT_3D ( 'NONE', #2, #180, #517 ) ;
#137 = B_SPLINE_CURVE_WITH_KNOTS ( 'NONE', 3,
 ( #557, #457, #218, #29, #549, #120 ),
 .UNSPECIFIED., .F., .F.,
 ( 4, 2, 4 ),
 ( 0.000000000000000000, 0.5000000000000000000, 1.000000000000000000 ),
 .UNSPECIFIED. ) ;
#138 = CARTESIAN_POINT ( 'NONE',  ( 15.96639942423935032, 19.89831721221460370, -4.610263812579924902 ) ) ;
#139 = CARTESIAN_POINT ( 'NONE',  ( 15.12934076921260029, 19.59831721221459944, 7.385937613341669206 ) ) ;
#140 = ORIENTED_EDGE ( 'NONE', *, *, #253, .T. ) ;
#141 = CYLINDRICAL_SURFACE ( 'NONE', #76, 26.49999999999999645 ) ;
#142 = CARTESIAN_POINT ( 'NONE',  ( 14.54659406044039827, 19.59831721221459944, -8.476180022857809249 ) ) ;
#143 = VERTEX_POINT ( 'NONE', #102 ) ;
#144 = CIRCLE ( 'NONE', #515, 26.50000000000000000 ) ;
#145 = CARTESIAN_POINT ( 'NONE',  ( 7.193364786026577917, 25.59831721221460299, -14.88864451877515371 ) ) ;
#146 = CARTESIAN_POINT ( 'NONE',  ( 3.353576747629090082, 19.59831721221459944, 16.49856204452060027 ) ) ;
#147 = CARTESIAN_POINT ( 'NONE',  ( -1.178202273718795858E-14, -44.16968881141595205, -8.277585683506948976E-14 ) ) ;
#148 = CARTESIAN_POINT ( 'NONE',  ( 16.56637431156555706, 19.89831721221460015, 1.317454046650434085 ) ) ;
#149 = B_SPLINE_CURVE_WITH_KNOTS ( 'NONE', 3,
 ( #41, #385, #183, #174, #128, #435 ),
 .UNSPECIFIED., .F., .F.,
 ( 4, 2, 4 ),
 ( 0.000000000000000000, 0.5000000000000000000, 1.000000000000000000 ),
 .UNSPECIFIED. ) ;
#150 = CARTESIAN_POINT ( 'NONE',  ( -15.19311824586789861, 19.89831721221460015, 6.435771746036079932 ) ) ;
#151 = ORIENTED_EDGE ( 'NONE', *, *, #290, .T. ) ;
#152 = FACE_OUTER_BOUND ( 'NONE', #497, .T. ) ;
#153 = CARTESIAN_POINT ( 'NONE',  ( -15.61433852164973324, 25.59831721221459944, 5.441384482153952540 ) ) ;
#154 = AXIS2_PLACEMENT_3D ( 'NONE', #217, #92, #85 ) ;
#155 = CARTESIAN_POINT ( 'NONE',  ( -13.39770978127032031, 19.59831721221459944, -10.19560685569953939 ) ) ;
#156 = VERTEX_POINT ( 'NONE', #191 ) ;
#157 = CARTESIAN_POINT ( 'NONE',  ( -14.03758196098553945, 19.59831721221459944, -9.294908242029460865 ) ) ;
#158 = ORIENTED_EDGE ( 'NONE', *, *, #244, .T. ) ;
#159 = EDGE_CURVE ( 'NONE', #489, #460, #356, .T. ) ;
#160 = CARTESIAN_POINT ( 'NONE',  ( -16.49856204452060027, 19.59831721221459944, 3.353576747629074983 ) ) ;
#161 = ORIENTED_EDGE ( 'NONE', *, *, #303, .T. ) ;
#162 = FACE_OUTER_BOUND ( 'NONE', #280, .T. ) ;
#163 = CIRCLE ( 'NONE', #480, 18.70000000000000284 ) ;
#164 = CIRCLE ( 'NONE', #194, 26.50000000000000000 ) ;
#165 = CYLINDRICAL_SURFACE ( 'NONE', #481, 18.70000000000000284 ) ;
#166 = SURFACE_STYLE_USAGE ( .BOTH. , #213 ) ;
#167 = CARTESIAN_POINT ( 'NONE',  ( -16.28523145892324209, 19.89831721221460015, -3.312352536375327006 ) ) ;
#168 = CARTESIAN_POINT ( 'NONE',  ( 3.215425434445270181, 19.59831721221459944, -16.52604204928260145 ) ) ;
#169 = EDGE_CURVE ( 'NONE', #156, #402, #424, .T. ) ;
#170 = CARTESIAN_POINT ( 'NONE',  ( 8.992324623643103365, 19.59831721221458167, -16.50972627216630073 ) ) ;
#171 = CARTESIAN_POINT ( 'NONE',  ( -18.70008749569910123, 19.59831721221459944, 2.414386052948824888E-08 ) ) ;
#172 = APPLICATION_CONTEXT ( 'automotive_design' ) ;
#173 = CARTESIAN_POINT ( 'NONE',  ( -3.257618960111219980E-15, 22.59831721221459944, -2.597473735272980434E-17 ) ) ;
#174 = CARTESIAN_POINT ( 'NONE',  ( -18.35902432883403534, 19.59831721221458167, 4.104801578298080678 ) ) ;
#175 = CARTESIAN_POINT ( 'NONE',  ( 13.04913803122320104, 19.89831721221460015, -10.09801944155801934 ) ) ;
#176 = CARTESIAN_POINT ( 'NONE',  ( 12.61346464435504089, 19.59831721221459944, -11.15121231995602002 ) ) ;
#177 = CARTESIAN_POINT ( 'NONE',  ( -18.70008749569910123, 19.59831721221459944, 2.414386052948824888E-08 ) ) ;
#178 = CARTESIAN_POINT ( 'NONE',  ( 0.000000000000000000, 0.000000000000000000, 0.000000000000000000 ) ) ;
#179 = CARTESIAN_POINT ( 'NONE',  ( 11.00253241116193870, 25.59831721221461720, 12.34344008340591259 ) ) ;
#180 = DIRECTION ( 'NONE',  ( 0.000000000000000000, 1.000000000000000000, 4.031734505761719585E-19 ) ) ;
#181 = CARTESIAN_POINT ( 'NONE',  ( 14.63984326033036787, 19.89831721221460370, -7.741904500500179864 ) ) ;
#182 = ADVANCED_FACE ( 'NONE', ( #281 ), #540, .F. ) ;
#183 = CARTESIAN_POINT ( 'NONE',  ( -17.03150354889280038, 19.59831721221458523, 7.989434095602158337 ) ) ;
#184 = CARTESIAN_POINT ( 'NONE',  ( -0.8238536367088847845, 19.89831721221459659, -16.59824412946189653 ) ) ;
#185 = CARTESIAN_POINT ( 'NONE',  ( 18.35902432883402824, 19.59831721221458167, -4.104801578298018505 ) ) ;
#186 = AXIS2_PLACEMENT_3D ( 'NONE', #348, #513, #473 ) ;
#187 = CARTESIAN_POINT ( 'NONE',  ( 0.8238536367088884482, 19.89831721221460370, 16.59824412946190364 ) ) ;
#188 = CARTESIAN_POINT ( 'NONE',  ( -16.41035945067313406, 25.59831721221460299, -2.028875366059655683 ) ) ;
#189 = CARTESIAN_POINT ( 'NONE',  ( -6.377712801384679331, 19.59831721221459944, 15.58120040183644939 ) ) ;
#190 = CARTESIAN_POINT ( 'NONE',  ( -1.211611214828197669, 25.59831721221460299, -16.49085294384142131 ) ) ;
#191 = CARTESIAN_POINT ( 'NONE',  ( 13.28639508633637867, 19.59831721221459944, -10.28161979504089985 ) ) ;
#192 = ORIENTED_EDGE ( 'NONE', *, *, #215, .F. ) ;
#193 = DIRECTION ( 'NONE',  ( -5.157842598702879918E-19, -1.000000000000000000, -1.217627280581126066E-18 ) ) ;
#194 = AXIS2_PLACEMENT_3D ( 'NONE', #173, #384, #341 ) ;
#195 = FACE_OUTER_BOUND ( 'NONE', #380, .T. ) ;
#196 = CARTESIAN_POINT ( 'NONE',  ( 16.49856204452055053, 19.59831721221459944, -3.353576747629110066 ) ) ;
#197 = EDGE_LOOP ( 'NONE', ( #372, #60, #535, #117, #192 ) ) ;
#198 = CARTESIAN_POINT ( 'NONE',  ( -9.412027270125800982, 19.59831721221459944, -13.95932552831770046 ) ) ;
#199 = EDGE_LOOP ( 'NONE', ( #338, #107, #287, #292, #246 ) ) ;
#200 = CARTESIAN_POINT ( 'NONE',  ( -18.70000000000000284, 22.59831721221459944, 2.265838892422259687E-15 ) ) ;
#201 = CARTESIAN_POINT ( 'NONE',  ( 2.028875366059658791, 25.59831721221460299, -16.41035945067313406 ) ) ;
#202 = B_SPLINE_CURVE_WITH_KNOTS ( 'NONE', 3,
 ( #285, #504, #69, #150 ),
 .UNSPECIFIED., .F., .F.,
 ( 4, 4 ),
 ( 0.000000000000000000, 1.000000000000000000 ),
 .UNSPECIFIED. ) ;
#203 = CARTESIAN_POINT ( 'NONE',  ( -16.83579716868599974, 19.59831721221459944, 0.07042892870854659815 ) ) ;
#204 = VERTEX_POINT ( 'NONE', #13 ) ;
#205 = CIRCLE ( 'NONE', #136, 18.70000000000000284 ) ;
#206 = CARTESIAN_POINT ( 'NONE',  ( 16.33665850104960171, 19.59831721221457812, 9.303039972983007999 ) ) ;
#207 = ORIENTED_EDGE ( 'NONE', *, *, #543, .F. ) ;
#208 = CARTESIAN_POINT ( 'NONE',  ( -15.19311824586789861, 19.89831721221460015, 6.435771746036079932 ) ) ;
#209 = ORIENTED_EDGE ( 'NONE', *, *, #423, .T. ) ;
#210 = CARTESIAN_POINT ( 'NONE',  ( 15.19311824586789861, 19.89831721221460015, -6.435771746036070162 ) ) ;
#211 = B_SPLINE_CURVE_WITH_KNOTS ( 'NONE', 3,
 ( #392, #100, #5, #185, #358, #534 ),
 .UNSPECIFIED., .F., .F.,
 ( 4, 2, 4 ),
 ( 0.000000000000000000, 0.5000000000000000000, 1.000000000000000000 ),
 .UNSPECIFIED. ) ;
#212 = CARTESIAN_POINT ( 'NONE',  ( -14.78902310205296011, 19.59831721221459944, 11.44442203376580025 ) ) ;
#213 = SURFACE_SIDE_STYLE ('',( #426 ) ) ;
#214 = CARTESIAN_POINT ( 'NONE',  ( -15.96639942423936098, 19.89831721221460015, 4.610263812579941778 ) ) ;
#215 = EDGE_CURVE ( 'NONE', #254, #11, #296, .T. ) ;
#216 = CARTESIAN_POINT ( 'NONE',  ( 1.211611214828228311, 25.59831721221460299, 16.49085294384141420 ) ) ;
#217 = CARTESIAN_POINT ( 'NONE',  ( -18.73832970144309940, 22.59831721221459944, -18.73832970144394849 ) ) ;
#218 = CARTESIAN_POINT ( 'NONE',  ( -13.16255006886986756, 19.63064914113165926, 10.18578285997858757 ) ) ;
#219 = CARTESIAN_POINT ( 'NONE',  ( -13.03850797880283885, 25.59831721221460299, 10.16924491975660949 ) ) ;
#220 = CARTESIAN_POINT ( 'NONE',  ( 3.520323485761532645, 19.59831721221458523, -18.46727609244070933 ) ) ;
#221 = PRODUCT_CONTEXT ( 'NONE', #299, 'mechanical' ) ;
#222 = CARTESIAN_POINT ( 'NONE',  ( 8.383036135368648445, 25.59831721221461720, 14.25275193443021493 ) ) ;
#223 = CARTESIAN_POINT ( 'NONE',  ( 13.16255006886984091, 19.63064914113164861, -10.18578285997861954 ) ) ;
#224 = CARTESIAN_POINT ( 'NONE',  ( 12.51753245030711881, 25.59831721221460299, 10.80405543797369106 ) ) ;
#225 =( LENGTH_UNIT ( ) NAMED_UNIT ( * ) SI_UNIT ( .MILLI., .METRE. ) );
#226 =( NAMED_UNIT ( * ) PLANE_ANGLE_UNIT ( ) SI_UNIT ( $, .RADIAN. ) );
#227 = DIRECTION ( 'NONE',  ( 1.485442060901259935E-15, 1.000000000000000000, 2.217706174520570374E-15 ) ) ;
#228 = DIRECTION ( 'NONE',  ( 0.000000000000000000, 0.000000000000000000, 1.000000000000000000 ) ) ;
#229 = CARTESIAN_POINT ( 'NONE',  ( 16.27955967602605014, 19.59831721221459944, 4.292430930584670179 ) ) ;
#230 = SHAPE_DEFINITION_REPRESENTATION ( #320, #30 ) ;
#231 = B_SPLINE_CURVE_WITH_KNOTS ( 'NONE', 3,
 ( #493, #452, #291, #34, #206, #459, #286, #74, #550, #32, #109, #370, #27, #496, #112, #545, #417, #212 ),
 .UNSPECIFIED., .F., .F.,
 ( 4, 2, 2, 2, 2, 2, 2, 2, 4 ),
 ( 0.000000000000000000, 0.1249999999999999445, 0.2499999999999998890, 0.3749999999999998335, 0.4999999999999998890, 0.6249999999999998890, 0.7500000000000000000, 0.8749999999999998890, 1.000000000000000000 ),
 .UNSPECIFIED. ) ;
#232 = CARTESIAN_POINT ( 'NONE',  ( -2.825159463744324774E-15, 19.59831721221459944, -2.252650661384670042E-17 ) ) ;
#233 = ADVANCED_FACE ( 'NONE', ( #379 ), #57, .F. ) ;
#234 = CARTESIAN_POINT ( 'NONE',  ( -11.83582458862090903, 19.89831721221460015, 11.66592042246696792 ) ) ;
#235 = COLOUR_RGB ( '',0.7921568627450980005, 0.8196078431372548767, 0.9333333333333333481 ) ;
#236 = DIRECTION ( 'NONE',  ( 0.000000000000000000, 2.094760423821050203E-15, -1.000000000000000000 ) ) ;
#237 = CARTESIAN_POINT ( 'NONE',  ( 0.07042892870855689547, 19.59831721221459944, 16.83579716868599974 ) ) ;
#238 = CARTESIAN_POINT ( 'NONE',  ( -11.85490557157759817, 19.59831721221459944, 11.95450711774063990 ) ) ;
#239 = VERTEX_POINT ( 'NONE', #333 ) ;
#240 = CARTESIAN_POINT ( 'NONE',  ( 15.19311824586789861, 25.59831721221460299, -6.435771746036060392 ) ) ;
#241 = CARTESIAN_POINT ( 'NONE',  ( -5.671524550916789963E-15, 19.89831721221460015, 3.384052709734709963E-16 ) ) ;
#242 = ORIENTED_EDGE ( 'NONE', *, *, #282, .F. ) ;
#243 = VECTOR ( 'NONE', #37, 1000.000000000000000 ) ;
#244 = EDGE_CURVE ( 'NONE', #33, #113, #144, .T. ) ;
#245 = CARTESIAN_POINT ( 'NONE',  ( -13.28639508633637867, 19.59831721221459944, 10.28161979504087853 ) ) ;
#246 = ORIENTED_EDGE ( 'NONE', *, *, #555, .F. ) ;
#247 = B_SPLINE_CURVE_WITH_KNOTS ( 'NONE', 3,
 ( #177, #96, #521, #89, #312, #556, #272, #395, #351, #3, #48, #51, #220, #130, #170, #310, #308, #346 ),
 .UNSPECIFIED., .F., .F.,
 ( 4, 2, 2, 2, 2, 2, 2, 2, 4 ),
 ( 0.000000000000000000, 0.1250000000000001110, 0.2500000000000002220, 0.3750000000000003331, 0.5000000000000003331, 0.6250000000000002220, 0.7500000000000001110, 0.8750000000000001110, 1.000000000000000000 ),
 .UNSPECIFIED. ) ;
#248 = CARTESIAN_POINT ( 'NONE',  ( -13.19920753668552926, 25.59831721221460654, -9.959776752257289090 ) ) ;
#249 = DIRECTION ( 'NONE',  ( 0.000000000000000000, -1.000000000000000000, 1.149410246294365984E-18 ) ) ;
#250 = ORIENTED_EDGE ( 'NONE', *, *, #519, .T. ) ;
#251 = CARTESIAN_POINT ( 'NONE',  ( -15.19311824586789861, 25.59831721221460299, 6.435771746036060392 ) ) ;
#252 = CARTESIAN_POINT ( 'NONE',  ( -16.52604204928260145, 19.59831721221459944, -3.215425434445260411 ) ) ;
#253 = EDGE_CURVE ( 'NONE', #11, #204, #231, .T. ) ;
#254 = VERTEX_POINT ( 'NONE', #455 ) ;
#255 = CARTESIAN_POINT ( 'NONE',  ( -3.257618960111219980E-15, 22.59831721221459944, -2.597473735272980434E-17 ) ) ;
#256 = ORIENTED_EDGE ( 'NONE', *, *, #169, .F. ) ;
#257 = FACE_OUTER_BOUND ( 'NONE', #501, .T. ) ;
#258 = CARTESIAN_POINT ( 'NONE',  ( -0.07042892870853190157, 19.59831721221459944, -16.83579716868595000 ) ) ;
#259 = EDGE_LOOP ( 'NONE', ( #548, #75 ) ) ;
#260 = CARTESIAN_POINT ( 'NONE',  ( 16.00591924165632918, 25.59831721221461009, 4.150515845154238548 ) ) ;
#261 = PLANE ( 'NONE',  #154 ) ;
#262 = PRODUCT_DEFINITION ( 'General', '', #313, #35 ) ;
#263 = CARTESIAN_POINT ( 'NONE',  ( 14.38477822870539313, 25.59831721221460299, 8.154409105647316025 ) ) ;
#264 = APPLICATION_PROTOCOL_DEFINITION ( 'draft international standard', 'automotive_design', 1998, #172 ) ;
#265 = CARTESIAN_POINT ( 'NONE',  ( 13.91725172153965140, 19.89831721221460370, -8.976201897306403055 ) ) ;
#266 = CARTESIAN_POINT ( 'NONE',  ( 14.88864451877517858, 25.59831721221461720, 7.193364786026530844 ) ) ;
#267 = CARTESIAN_POINT ( 'NONE',  ( -12.34344008340592147, 25.59831721221459944, 11.00253241116193159 ) ) ;
#268 = EDGE_CURVE ( 'NONE', #413, #343, #71, .T. ) ;
#269 = DIRECTION ( 'NONE',  ( 1.485442060901259935E-15, 1.000000000000000000, 2.217706174520570374E-15 ) ) ;
#270 = DIRECTION ( 'NONE',  ( 0.000000000000000000, 2.216581876514960309E-15, -1.000000000000000000 ) ) ;
#271 = CARTESIAN_POINT ( 'NONE',  ( -15.19311824586789861, 19.89831721221460015, 6.435771746036079932 ) ) ;
#272 = CARTESIAN_POINT ( 'NONE',  ( -12.71477634499655629, 19.59831721221458167, -13.84801163400554280 ) ) ;
#273 = CARTESIAN_POINT ( 'NONE',  ( 13.95932552831765960, 19.59831721221459944, -9.412027270125840062 ) ) ;
#274 = CARTESIAN_POINT ( 'NONE',  ( 16.28523145892323143, 19.89831721221460725, 3.312352536375334555 ) ) ;
#275 = FACE_OUTER_BOUND ( 'NONE', #405, .T. ) ;
#276 = CARTESIAN_POINT ( 'NONE',  ( 9.412027270125818745, 19.59831721221459944, 13.95932552831767914 ) ) ;
#277 = AXIS2_PLACEMENT_3D ( 'NONE', #123, #126, #400 ) ;
#278 = CARTESIAN_POINT ( 'NONE',  ( 13.03850797880284418, 25.59831721221460299, -10.16924491975658107 ) ) ;
#279 = CARTESIAN_POINT ( 'NONE',  ( -9.294908242029450207, 19.59831721221459944, 14.03758196098553945 ) ) ;
#280 = EDGE_LOOP ( 'NONE', ( #122, #78, #242, #28, #319 ) ) ;
#281 = FACE_OUTER_BOUND ( 'NONE', #546, .T. ) ;
#282 = EDGE_CURVE ( 'NONE', #460, #343, #202, .T. ) ;
#283 = ORIENTED_EDGE ( 'NONE', *, *, #134, .F. ) ;
#284 = CARTESIAN_POINT ( 'NONE',  ( -1.178202273718795858E-14, -44.16968881141595205, -8.277585683506948976E-14 ) ) ;
#285 = CARTESIAN_POINT ( 'NONE',  ( -13.04913803122324190, 19.89831721221460015, 10.09801944155801934 ) ) ;
#286 = CARTESIAN_POINT ( 'NONE',  ( 12.71477634499653853, 19.59831721221458167, 13.84801163400553214 ) ) ;
#287 = ORIENTED_EDGE ( 'NONE', *, *, #357, .T. ) ;
#288 = CARTESIAN_POINT ( 'NONE',  ( -15.03705292130407223, 19.89831721221459304, -7.075837931852016816 ) ) ;
#289 = CARTESIAN_POINT ( 'NONE',  ( -5.441384482153938329, 25.59831721221460299, -15.61433852164974034 ) ) ;
#290 = EDGE_CURVE ( 'NONE', #402, #156, #362, .T. ) ;
#291 = CARTESIAN_POINT ( 'NONE',  ( 18.39737519305539593, 19.59831721221458167, 3.869050235495258061 ) ) ;
#292 = ORIENTED_EDGE ( 'NONE', *, *, #423, .F. ) ;
#293 = DIRECTION ( 'NONE',  ( -5.157842598702879918E-19, -1.000000000000000000, -1.217627280581126066E-18 ) ) ;
#294 = CARTESIAN_POINT ( 'NONE',  ( -2.264228692728369907, 19.59831721221459944, -16.68299418468280138 ) ) ;
#295 = ORIENTED_EDGE ( 'NONE', *, *, #303, .F. ) ;
#296 = LINE ( 'NONE', #425, #306 ) ;
#297 = ORIENTED_EDGE ( 'NONE', *, *, #24, .F. ) ;
#298 = CARTESIAN_POINT ( 'NONE',  ( -4.947709694856399845E-15, 25.59831721221460299, 3.652206340359804987E-16 ) ) ;
#299 = APPLICATION_CONTEXT ( 'automotive_design' ) ;
#300 = CARTESIAN_POINT ( 'NONE',  ( 14.78902310205299919, 19.59831721221459944, -11.44442203376575939 ) ) ;
#301 = UNCERTAINTY_MEASURE_WITH_UNIT (LENGTH_MEASURE( 1.000000000000000082E-05 ), #225, 'distance_accuracy_value', 'NONE');
#302 = FILL_AREA_STYLE ('',( #81 ) ) ;
#303 = EDGE_CURVE ( 'NONE', #113, #33, #164, .T. ) ;
#304 = CARTESIAN_POINT ( 'NONE',  ( -4.150515845154258088, 25.59831721221460654, 16.00591924165632207 ) ) ;
#305 = CARTESIAN_POINT ( 'NONE',  ( 13.04913803122320104, 19.89831721221460015, -10.09801944155801934 ) ) ;
#306 = VECTOR ( 'NONE', #249, 1000.000000000000000 ) ;
#307 = DIRECTION ( 'NONE',  ( 1.000000000000000000, 0.000000000000000000, 0.000000000000000000 ) ) ;
#308 = CARTESIAN_POINT ( 'NONE',  ( 13.60500029768936869, 19.59831721221458523, -12.97447226744534987 ) ) ;
#309 = CARTESIAN_POINT ( 'NONE',  ( 16.41035945067313406, 25.59831721221460299, 2.028875366059620156 ) ) ;
#310 = CARTESIAN_POINT ( 'NONE',  ( 12.18182687896631577, 19.59831721221458878, -14.31908019426282763 ) ) ;
#311 = CARTESIAN_POINT ( 'NONE',  ( 15.61433852164972258, 25.59831721221461365, -5.441384482153981850 ) ) ;
#312 = CARTESIAN_POINT ( 'NONE',  ( -16.33665850104964079, 19.59831721221457812, -9.303039972982984906 ) ) ;
#313 = PRODUCT_DEFINITION_FORMATION_WITH_SPECIFIED_SOURCE ( 'Symmetric', '', #526, .NOT_KNOWN. ) ;
#314 = CARTESIAN_POINT ( 'NONE',  ( 13.28639508633637867, 19.59831721221459944, -10.28161979504089985 ) ) ;
#315 = ADVANCED_FACE ( 'NONE', ( #560 ), #347, .T. ) ;
#316 = CARTESIAN_POINT ( 'NONE',  ( 14.07036627181295430, 19.89831721221460015, 8.843372432107738490 ) ) ;
#317 = CARTESIAN_POINT ( 'NONE',  ( 15.19311824586789861, 25.59831721221460299, -6.435771746036060392 ) ) ;
#318 = CARTESIAN_POINT ( 'NONE',  ( 14.03758196098556077, 19.59831721221459944, 9.294908242029420009 ) ) ;
#319 = ORIENTED_EDGE ( 'NONE', *, *, #357, .F. ) ;
#320 = PRODUCT_DEFINITION_SHAPE ( 'NONE', 'NONE',  #262 ) ;
#321 = CARTESIAN_POINT ( 'NONE',  ( -7.385937613341700292, 19.59831721221459944, 15.12934076921260029 ) ) ;
#322 = ORIENTED_EDGE ( 'NONE', *, *, #371, .F. ) ;
#323 = PRODUCT_RELATED_PRODUCT_CATEGORY ( 'part', '', ( #526 ) ) ;
#324 = CARTESIAN_POINT ( 'NONE',  ( 6.625199712165452226, 19.89831721221460370, 15.24097017154280564 ) ) ;
#325 = CARTESIAN_POINT ( 'NONE',  ( -15.19311824586789861, 25.59831721221460299, 6.435771746036060392 ) ) ;
#326 = ORIENTED_EDGE ( 'NONE', *, *, #125, .F. ) ;
#327 = CARTESIAN_POINT ( 'NONE',  ( -8.476180022857770169, 19.59831721221459944, -14.54659406044041958 ) ) ;
#328 = VERTEX_POINT ( 'NONE', #300 ) ;
#329 = CLOSED_SHELL ( 'NONE', ( #525, #331, #381, #70, #443, #478, #484, #315, #454, #388, #182, #233 ) ) ;
#330 = DIRECTION ( 'NONE',  ( 1.485442060901259935E-15, 1.000000000000000000, 2.217706174520570374E-15 ) ) ;
#331 = ADVANCED_FACE ( 'NONE', ( #132 ), #165, .F. ) ;
#332 = CARTESIAN_POINT ( 'NONE',  ( -16.37587483610418104, 25.59831721221459944, 2.290623474853664909 ) ) ;
#333 = CARTESIAN_POINT ( 'NONE',  ( -24.48280761154904894, -52.90168278778539701, 10.14111095767498050 ) ) ;
#334 = ORIENTED_EDGE ( 'NONE', *, *, #519, .F. ) ;
#335 = CARTESIAN_POINT ( 'NONE',  ( -15.92070602460705153, 19.59831721221459944, 5.475412880977599706 ) ) ;
#336 = CARTESIAN_POINT ( 'NONE',  ( 18.70008749570069995, 19.59831721221459944, -2.414386383378025025E-08 ) ) ;
#337 = DIRECTION ( 'NONE',  ( 1.457167719820517713E-16, -1.000000000000000000, -6.057995113930770528E-20 ) ) ;
#338 = ORIENTED_EDGE ( 'NONE', *, *, #268, .F. ) ;
#339 = CYLINDRICAL_SURFACE ( 'NONE', #340, 16.50000000000000000 ) ;
#340 = AXIS2_PLACEMENT_3D ( 'NONE', #298, #293, #461 ) ;
#341 = DIRECTION ( 'NONE',  ( 1.000000000000000000, 0.000000000000000000, 0.000000000000000000 ) ) ;
#342 = EDGE_CURVE ( 'NONE', #143, #239, #98, .T. ) ;
#343 = VERTEX_POINT ( 'NONE', #271 ) ;
#344 = CARTESIAN_POINT ( 'NONE',  ( -14.07036627181296851, 19.89831721221460015, -8.843372432107729608 ) ) ;
#345 = CARTESIAN_POINT ( 'NONE',  ( -7.193364786026547719, 25.59831721221460654, 14.88864451877517325 ) ) ;
#346 = CARTESIAN_POINT ( 'NONE',  ( 14.78902310205299919, 19.59831721221459944, -11.44442203376575939 ) ) ;
#347 = PLANE ( 'NONE',  #277 ) ;
#348 = CARTESIAN_POINT ( 'NONE',  ( 7.625945031788970186E-15, -52.90168278778539701, 6.080573624249490018E-17 ) ) ;
#349 = CIRCLE ( 'NONE', #186, 26.50000000000000000 ) ;
#350 = CARTESIAN_POINT ( 'NONE',  ( -0.9481649079887923826, 25.59831721221460299, 16.50809546430354757 ) ) ;
#351 = CARTESIAN_POINT ( 'NONE',  ( -7.877843405356474982, 19.59831721221458167, -17.06963816252465804 ) ) ;
#352 = DIRECTION ( 'NONE',  ( 1.000000000000000000, 1.441531654556315956E-16, 0.000000000000000000 ) ) ;
#353 = CARTESIAN_POINT ( 'NONE',  ( -14.77189797008609418, 25.59831721221461009, 7.430159009918113178 ) ) ;
#354 =( NAMED_UNIT ( * ) PLANE_ANGLE_UNIT ( ) SI_UNIT ( $, .RADIAN. ) );
#355 = DIRECTION ( 'NONE',  ( 1.488156356394548084E-15, 1.000000000000000000, 2.216581876514960309E-15 ) ) ;
#356 = B_SPLINE_CURVE_WITH_KNOTS ( 'NONE', 3,
 ( #524, #138, #439, #148, #274, #399, #316, #532, #7, #324, #16, #187, #441, #482, #483, #54, #234, #59 ),
 .UNSPECIFIED., .F., .F.,
 ( 4, 2, 2, 2, 2, 2, 2, 2, 4 ),
 ( 0.000000000000000000, 0.1250000000000000000, 0.2500000000000000000, 0.3749999999999999445, 0.4999999999999998890, 0.6249999999999998890, 0.7500000000000000000, 0.8750000000000000000, 1.000000000000000000 ),
 .UNSPECIFIED. ) ;
#357 = EDGE_CURVE ( 'NONE', #418, #489, #469, .T. ) ;
#358 = CARTESIAN_POINT ( 'NONE',  ( 18.69999999734986673, 19.59831721221458167, -2.052600887418844611 ) ) ;
#359 = CARTESIAN_POINT ( 'NONE',  ( 15.52729643348445165, 19.59831721221459944, -6.507848492845769606 ) ) ;
#360 = CARTESIAN_POINT ( 'NONE',  ( 9.959776752257310406, 25.59831721221460299, -13.19920753668550084 ) ) ;
#361 = CARTESIAN_POINT ( 'NONE',  ( 13.28639508633637867, 19.59831721221459944, -10.28161979504089985 ) ) ;
#362 = B_SPLINE_CURVE_WITH_KNOTS ( 'NONE', 3,
 ( #245, #382, #415, #373, #335, #160, #376, #203, #118, #252, #412, #23, #19, #157, #155, #541, #465, #198, #327, #502, #116, #80, #294, #258, #462, #168, #393, #437, #434, #477, #431, #95, #176, #47 ),
 .UNSPECIFIED., .F., .F.,
 ( 4, 2, 2, 2, 2, 2, 2, 2, 2, 2, 2, 2, 2, 2, 2, 2, 4 ),
 ( 0.000000000000000000, 0.06250000000000000000, 0.1250000000000000000, 0.1875000000000000000, 0.2500000000000000000, 0.3125000000000000000, 0.3750000000000000000, 0.4375000000000000000, 0.5000000000000000000, 0.5625000000000000000, 0.6250000000000000000, 0.6875000000000000000, 0.7500000000000000000, 0.8125000000000000000, 0.8750000000000000000, 0.9375000000000000000, 1.000000000000000000 ),
 .UNSPECIFIED. ) ;
#363 = CARTESIAN_POINT ( 'NONE',  ( 0.9481649079888210263, 25.59831721221460299, -16.50809546430354402 ) ) ;
#364 = EDGE_CURVE ( 'NONE', #418, #413, #79, .T. ) ;
#365 = CARTESIAN_POINT ( 'NONE',  ( 5.475412880977619245, 19.59831721221459944, 15.92070602460700002 ) ) ;
#366 = EDGE_LOOP ( 'NONE', ( #466, #326 ) ) ;
#367 = DIRECTION ( 'NONE',  ( 0.9207950452041149259, 0.000000000000000000, -0.3900467724870340658 ) ) ;
#368 = CARTESIAN_POINT ( 'NONE',  ( 11.15121231995606088, 19.59831721221459944, 12.61346464435500181 ) ) ;
#369 = DIRECTION ( 'NONE',  ( 0.000000000000000000, -1.000000000000000000, 1.149410246294365984E-18 ) ) ;
#370 = CARTESIAN_POINT ( 'NONE',  ( -1.580568512472957154, 19.59831721221457812, 18.73325297155342994 ) ) ;
#371 = EDGE_CURVE ( 'NONE', #413, #418, #67, .T. ) ;
#372 = ORIENTED_EDGE ( 'NONE', *, *, #463, .T. ) ;
#373 = CARTESIAN_POINT ( 'NONE',  ( -15.52729643348445165, 19.59831721221459944, 6.507848492845729638 ) ) ;
#374 = EDGE_LOOP ( 'NONE', ( #151, #447 ) ) ;
#375 = AXIS2_PLACEMENT_3D ( 'NONE', #512, #87, #236 ) ;
#376 = CARTESIAN_POINT ( 'NONE',  ( -16.68299418468280138, 19.59831721221459944, 2.264228692728389891 ) ) ;
#377 = ORIENTED_EDGE ( 'NONE', *, *, #253, .F. ) ;
#378 = CARTESIAN_POINT ( 'NONE',  ( -16.40693600188875934, 19.89831721221459659, 2.644408067197923540 ) ) ;
#379 = FACE_OUTER_BOUND ( 'NONE', #464, .T. ) ;
#380 = EDGE_LOOP ( 'NONE', ( #36, #528, #456, #450 ) ) ;
#381 = ADVANCED_FACE ( 'NONE', ( #195 ), #533, .T. ) ;
#382 = CARTESIAN_POINT ( 'NONE',  ( -13.95932552831770046, 19.59831721221459944, 9.412027270125809864 ) ) ;
#383 = EDGE_LOOP ( 'NONE', ( #542, #322 ) ) ;
#384 = DIRECTION ( 'NONE',  ( 0.000000000000000000, 1.000000000000000000, 4.031734505761719585E-19 ) ) ;
#385 = CARTESIAN_POINT ( 'NONE',  ( -16.04521724890821943, 19.59831721221458523, 9.821108579954534790 ) ) ;
#386 = CARTESIAN_POINT ( 'NONE',  ( -10.04701976203025815, 19.89831721221460015, -13.23774289285406880 ) ) ;
#387 = CARTESIAN_POINT ( 'NONE',  ( -14.25275193443022737, 25.59831721221460654, 8.383036135368636010 ) ) ;
#388 = ADVANCED_FACE ( 'NONE', ( #31, #257 ), #53, .T. ) ;
#389 = LINE ( 'NONE', #133, #88 ) ;
#390 = CARTESIAN_POINT ( 'NONE',  ( 11.83582458862091968, 19.89831721221460015, -11.66592042246694305 ) ) ;
#391 = CARTESIAN_POINT ( 'NONE',  ( 4.405536256209637180, 25.59831721221460299, 15.93761220655475341 ) ) ;
#392 = CARTESIAN_POINT ( 'NONE',  ( 14.78902310205299919, 19.59831721221459944, -11.44442203376575939 ) ) ;
#393 = CARTESIAN_POINT ( 'NONE',  ( 4.292430930584710147, 19.59831721221459944, -16.27955967602605014 ) ) ;
#394 = LINE ( 'NONE', #523, #26 ) ;
#395 = CARTESIAN_POINT ( 'NONE',  ( -9.610425731706191854, 19.59831721221458167, -16.15774368450608378 ) ) ;
#396 = CARTESIAN_POINT ( 'NONE',  ( -6.625199712165458443, 19.89831721221460725, -15.24097017154281275 ) ) ;
#397 = CARTESIAN_POINT ( 'NONE',  ( 15.92070602460700002, 19.59831721221459944, -5.475412880977639674 ) ) ;
#398 = STYLED_ITEM ( 'NONE', ( #559 ), #21 ) ;
#399 = CARTESIAN_POINT ( 'NONE',  ( 15.03705292130405979, 19.89831721221460370, 7.075837931852018592 ) ) ;
#400 = DIRECTION ( 'NONE',  ( 1.000000000000000000, 1.169399601181603932E-17, 0.000000000000000000 ) ) ;
#401 = CARTESIAN_POINT ( 'NONE',  ( -1.033968534388302052, 19.59831721221459944, 16.80416423417210225 ) ) ;
#402 = VERTEX_POINT ( 'NONE', #518 ) ;
#403 = CARTESIAN_POINT ( 'NONE',  ( -7.430159009918093638, 25.59831721221460299, -14.77189797008609418 ) ) ;
#404 = CARTESIAN_POINT ( 'NONE',  ( -13.28639508633637867, 19.59831721221459944, 10.28161979504087853 ) ) ;
#405 = EDGE_LOOP ( 'NONE', ( #207, #416, #509, #140, #20 ) ) ;
#406 = CARTESIAN_POINT ( 'NONE',  ( 8.154409105647362210, 25.59831721221460299, -14.38477822870537004 ) ) ;
#407 = B_SPLINE_CURVE_WITH_KNOTS ( 'NONE', 3,
 ( #479, #265, #181, #430 ),
 .UNSPECIFIED., .F., .F.,
 ( 4, 4 ),
 ( 0.000000000000000000, 1.000000000000000000 ),
 .UNSPECIFIED. ) ;
#408 = DIRECTION ( 'NONE',  ( 1.457167719820517713E-16, -1.000000000000000000, -6.057995113930770528E-20 ) ) ;
#409 = PRESENTATION_LAYER_ASSIGNMENT (  '', '', ( #398 ) ) ;
#410 = CYLINDRICAL_SURFACE ( 'NONE', #451, 18.70000000000000284 ) ;
#411 = CARTESIAN_POINT ( 'NONE',  ( -16.49085294384142131, 25.59831721221460299, 1.211611214828220318 ) ) ;
#412 = CARTESIAN_POINT ( 'NONE',  ( -16.27955967602605014, 19.59831721221459944, -4.292430930584699489 ) ) ;
#413 = VERTEX_POINT ( 'NONE', #50 ) ;
#414 = CARTESIAN_POINT ( 'NONE',  ( -8.383036135368623576, 25.59831721221460654, -14.25275193443022914 ) ) ;
#415 = CARTESIAN_POINT ( 'NONE',  ( -14.54659406044041958, 19.59831721221459944, 8.476180022857779051 ) ) ;
#416 = ORIENTED_EDGE ( 'NONE', *, *, #64, .T. ) ;
#417 = CARTESIAN_POINT ( 'NONE',  ( -13.60500029768933317, 19.59831721221458167, 12.97447226744540494 ) ) ;
#418 = VERTEX_POINT ( 'NONE', #317 ) ;
#419 = AXIS2_PLACEMENT_3D ( 'NONE', #241, #408, #77 ) ;
#420 = DIRECTION ( 'NONE',  ( 1.485442060901259935E-15, 1.000000000000000000, 2.217706174520570374E-15 ) ) ;
#421 = DIRECTION ( 'NONE',  ( 0.000000000000000000, 1.000000000000000000, 4.031734505761719585E-19 ) ) ;
#422 = ORIENTED_EDGE ( 'NONE', *, *, #83, .F. ) ;
#423 = EDGE_CURVE ( 'NONE', #115, #489, #407, .T. ) ;
#424 = B_SPLINE_CURVE_WITH_KNOTS ( 'NONE', 3,
 ( #361, #273, #142, #359, #397, #196, #446, #52, #531, #105, #229, #527, #139, #318, #485, #103, #368, #276, #444, #488, #365, #146, #10, #237, #401, #491, #106, #189, #321, #279, #63, #238, #449, #404 ),
 .UNSPECIFIED., .F., .F.,
 ( 4, 2, 2, 2, 2, 2, 2, 2, 2, 2, 2, 2, 2, 2, 2, 2, 4 ),
 ( 0.000000000000000000, 0.06250000000000000000, 0.1250000000000000000, 0.1875000000000000000, 0.2500000000000000000, 0.3125000000000000000, 0.3750000000000000000, 0.4375000000000000000, 0.5000000000000000000, 0.5625000000000000000, 0.6250000000000000000, 0.6875000000000000000, 0.7500000000000000000, 0.8125000000000000000, 0.8750000000000000000, 0.9375000000000000000, 1.000000000000000000 ),
 .UNSPECIFIED. ) ;
#425 = CARTESIAN_POINT ( 'NONE',  ( 18.70000000000000284, 97.55163601798868456, -1.121268499818547791E-16 ) ) ;
#426 = SURFACE_STYLE_FILL_AREA ( #302 ) ;
#427 = CARTESIAN_POINT ( 'NONE',  ( 10.16924491975661304, 25.59831721221460299, 13.03850797880282109 ) ) ;
#428 =( NAMED_UNIT ( * ) SI_UNIT ( $, .STERADIAN. ) SOLID_ANGLE_UNIT ( ) );
#429 = CARTESIAN_POINT ( 'NONE',  ( 7.430159009918113178, 25.59831721221460654, 14.77189797008608529 ) ) ;
#430 = CARTESIAN_POINT ( 'NONE',  ( 15.19311824586789861, 19.89831721221460015, -6.435771746036070162 ) ) ;
#431 = CARTESIAN_POINT ( 'NONE',  ( 10.19560685569953939, 19.59831721221459944, -13.39770978127029899 ) ) ;
#432 = FACE_BOUND ( 'NONE', #259, .T. ) ;
#433 = CARTESIAN_POINT ( 'NONE',  ( -4.732317559215434954, 19.89831721221460370, -15.93065012843719863 ) ) ;
#434 = CARTESIAN_POINT ( 'NONE',  ( 7.385937613341719832, 19.59831721221459944, -15.12934076921255055 ) ) ;
#435 = CARTESIAN_POINT ( 'NONE',  ( -18.70008749569910123, 19.59831721221459944, 2.414386052948824888E-08 ) ) ;
#436 = AXIS2_PLACEMENT_3D ( 'NONE', #500, #337, #114 ) ;
#437 = CARTESIAN_POINT ( 'NONE',  ( 6.377712801384710417, 19.59831721221459944, -15.58120040183640143 ) ) ;
#438 = CARTESIAN_POINT ( 'NONE',  ( 13.22428133455672139, 19.59831721221459944, -10.23355333489938168 ) ) ;
#439 = CARTESIAN_POINT ( 'NONE',  ( 16.40693600188875934, 19.89831721221460015, -2.644408067197903556 ) ) ;
#440 = CARTESIAN_POINT ( 'NONE',  ( 1.190635186155685643, 19.89831721221460015, -16.57597149036589101 ) ) ;
#441 = CARTESIAN_POINT ( 'NONE',  ( -1.190635186155671432, 19.89831721221459659, 16.57597149036589812 ) ) ;
#442 = ORIENTED_EDGE ( 'NONE', *, *, #159, .T. ) ;
#443 = ADVANCED_FACE ( 'NONE', ( #131 ), #94, .F. ) ;
#444 = CARTESIAN_POINT ( 'NONE',  ( 8.476180022857800367, 19.59831721221459944, 14.54659406044039827 ) ) ;
#445 = CARTESIAN_POINT ( 'NONE',  ( -2.290623474853648478, 25.59831721221460299, -16.37587483610417394 ) ) ;
#446 = CARTESIAN_POINT ( 'NONE',  ( 16.68299418468275164, 19.59831721221459944, -2.264228692728429859 ) ) ;
#447 = ORIENTED_EDGE ( 'NONE', *, *, #169, .T. ) ;
#448 = CARTESIAN_POINT ( 'NONE',  ( -15.93761220655476052, 25.59831721221460654, 4.405536256209630963 ) ) ;
#449 = CARTESIAN_POINT ( 'NONE',  ( -12.61346464435501957, 19.59831721221459944, 11.15121231995603956 ) ) ;
#450 = ORIENTED_EDGE ( 'NONE', *, *, #38, .F. ) ;
#451 = AXIS2_PLACEMENT_3D ( 'NONE', #8, #369, #536 ) ;
#452 = CARTESIAN_POINT ( 'NONE',  ( 18.70000000249786254, 19.59831721221458167, 1.934674035959568883 ) ) ;
#453 = B_SPLINE_CURVE_WITH_KNOTS ( 'NONE', 3,
 ( #45, #470, #475, #223, #438, #314 ),
 .UNSPECIFIED., .F., .F.,
 ( 4, 2, 4 ),
 ( 0.000000000000000000, 0.5000000000000000000, 1.000000000000000000 ),
 .UNSPECIFIED. ) ;
#454 = ADVANCED_FACE ( 'NONE', ( #522 ), #99, .T. ) ;
#455 = CARTESIAN_POINT ( 'NONE',  ( 18.70000000000000284, 22.59831721221459944, -2.597473735272980434E-17 ) ) ;
#456 = ORIENTED_EDGE ( 'NONE', *, *, #244, .F. ) ;
#457 = CARTESIAN_POINT ( 'NONE',  ( -13.22428133455673738, 19.59831721221459233, 10.23355333489934083 ) ) ;
#458 = CARTESIAN_POINT ( 'NONE',  ( 4.150515845154274075, 25.59831721221460299, -16.00591924165631497 ) ) ;
#459 = CARTESIAN_POINT ( 'NONE',  ( 14.08606668845945009, 19.59831721221457812, 12.45052966612701972 ) ) ;
#460 = VERTEX_POINT ( 'NONE', #492 ) ;
#461 = DIRECTION ( 'NONE',  ( 0.9207950452041149259, 0.000000000000000000, -0.3900467724870340658 ) ) ;
#462 = CARTESIAN_POINT ( 'NONE',  ( 1.033968534388321814, 19.59831721221459944, -16.80416423417210225 ) ) ;
#463 = EDGE_CURVE ( 'NONE', #254, #468, #163, .T. ) ;
#464 = EDGE_LOOP ( 'NONE', ( #334, #256, #422, #209, #442 ) ) ;
#465 = CARTESIAN_POINT ( 'NONE',  ( -11.15121231995603956, 19.59831721221459944, -12.61346464435501957 ) ) ;
#466 = ORIENTED_EDGE ( 'NONE', *, *, #342, .F. ) ;
#467 = DIRECTION ( 'NONE',  ( -5.157842598702879918E-19, -1.000000000000000000, -1.217627280581126066E-18 ) ) ;
#468 = VERTEX_POINT ( 'NONE', #200 ) ;
#469 = LINE ( 'NONE', #508, #127 ) ;
#470 = CARTESIAN_POINT ( 'NONE',  ( 13.04913803122320992, 19.81977739587485843, -10.09801944155802644 ) ) ;
#471 =( GEOMETRIC_REPRESENTATION_CONTEXT ( 3 ) GLOBAL_UNCERTAINTY_ASSIGNED_CONTEXT ( ( #301 ) ) GLOBAL_UNIT_ASSIGNED_CONTEXT ( ( #225, #354, #428 ) ) REPRESENTATION_CONTEXT ( 'NONE', 'WORKASPACE' ) );
#472 = CARTESIAN_POINT ( 'NONE',  ( 15.93761220655474276, 25.59831721221460654, -4.405536256209659385 ) ) ;
#473 = DIRECTION ( 'NONE',  ( 0.000000000000000000, 2.094760423821050203E-15, -1.000000000000000000 ) ) ;
#474 = CARTESIAN_POINT ( 'NONE',  ( -5.191393404436246861, 25.59831721221460299, 15.69922504685108677 ) ) ;
#475 = CARTESIAN_POINT ( 'NONE',  ( 13.07470795869318181, 19.74172121458561691, -10.11780662015121024 ) ) ;
#476 = APPLICATION_PROTOCOL_DEFINITION ( 'draft international standard', 'automotive_design', 1998, #299 ) ;
#477 = CARTESIAN_POINT ( 'NONE',  ( 9.294908242029460865, 19.59831721221459944, -14.03758196098551991 ) ) ;
#478 = ADVANCED_FACE ( 'NONE', ( #152 ), #141, .T. ) ;
#479 = CARTESIAN_POINT ( 'NONE',  ( 13.04913803122320104, 19.89831721221460015, -10.09801944155801934 ) ) ;
#480 = AXIS2_PLACEMENT_3D ( 'NONE', #494, #529, #108 ) ;
#481 = AXIS2_PLACEMENT_3D ( 'NONE', #121, #58, #307 ) ;
#482 = CARTESIAN_POINT ( 'NONE',  ( -5.083383350598959183, 19.89831721221460370, 15.82212554326340204 ) ) ;
#483 = CARTESIAN_POINT ( 'NONE',  ( -6.960554140175323923, 19.89831721221460015, 15.09076303762082816 ) ) ;
#484 = ADVANCED_FACE ( 'NONE', ( #275 ), #410, .F. ) ;
#485 = CARTESIAN_POINT ( 'NONE',  ( 13.39770978127033985, 19.59831721221459944, 10.19560685569950031 ) ) ;
#486 = CARTESIAN_POINT ( 'NONE',  ( -16.00591924165632207, 25.59831721221460654, -4.150515845154270522 ) ) ;
#487 = AXIS2_PLACEMENT_3D ( 'NONE', #232, #561, #352 ) ;
#488 = CARTESIAN_POINT ( 'NONE',  ( 6.507848492845749178, 19.59831721221459944, 15.52729643348445165 ) ) ;
#489 = VERTEX_POINT ( 'NONE', #210 ) ;
#490 = CARTESIAN_POINT ( 'NONE',  ( 14.77189797008610128, 25.59831721221460299, -7.430159009918076762 ) ) ;
#491 = CARTESIAN_POINT ( 'NONE',  ( -3.215425434445255082, 19.59831721221459944, 16.52604204928260145 ) ) ;
#492 = CARTESIAN_POINT ( 'NONE',  ( -13.04913803122324190, 19.89831721221460015, 10.09801944155801934 ) ) ;
#493 = CARTESIAN_POINT ( 'NONE',  ( 18.70008749570069995, 19.59831721221459944, -2.414386383378025025E-08 ) ) ;
#494 = CARTESIAN_POINT ( 'NONE',  ( -3.257618960111219980E-15, 22.59831721221459944, -2.597473735272980434E-17 ) ) ;
#495 = CARTESIAN_POINT ( 'NONE',  ( -14.38477822870539136, 25.59831721221460299, -8.154409105647340894 ) ) ;
#496 = CARTESIAN_POINT ( 'NONE',  ( -7.226486840403175016, 19.59831721221458523, 17.35542715303533967 ) ) ;
#497 = EDGE_LOOP ( 'NONE', ( #297, #17, #119, #295 ) ) ;
#498 = LINE ( 'NONE', #82, #243 ) ;
#499 = CARTESIAN_POINT ( 'NONE',  ( -12.51753245030710637, 25.59831721221460299, -10.80405543797370882 ) ) ;
#500 = CARTESIAN_POINT ( 'NONE',  ( -5.671524550916789963E-15, 19.89831721221460015, 3.384052709734709963E-16 ) ) ;
#501 = EDGE_LOOP ( 'NONE', ( #72, #377, #283, #505 ) ) ;
#502 = CARTESIAN_POINT ( 'NONE',  ( -6.507848492845719868, 19.59831721221459944, -15.52729643348445165 ) ) ;
#503 = CARTESIAN_POINT ( 'NONE',  ( 24.48280761154904894, 22.59831721221459944, -10.14111095767500004 ) ) ;
#504 = CARTESIAN_POINT ( 'NONE',  ( -13.91725172153967094, 19.89831721221459659, 8.976201897306387067 ) ) ;
#505 = ORIENTED_EDGE ( 'NONE', *, *, #110, .F. ) ;
#506 = AXIS2_PLACEMENT_3D ( 'NONE', #147, #420, #544 ) ;
#507 = B_SPLINE_CURVE_WITH_KNOTS ( 'NONE', 3,
 ( #208, #214, #378, #553, #167, #288, #344, #86, #386, #396, #433, #184, #440, #46, #514, #6, #390, #175 ),
 .UNSPECIFIED., .F., .F.,
 ( 4, 2, 2, 2, 2, 2, 2, 2, 4 ),
 ( 0.000000000000000000, 0.1250000000000000555, 0.2500000000000001110, 0.3750000000000001110, 0.5000000000000001110, 0.6250000000000000000, 0.7500000000000001110, 0.8750000000000000000, 1.000000000000000000 ),
 .UNSPECIFIED. ) ;
#508 = CARTESIAN_POINT ( 'NONE',  ( 15.19311824586789861, 25.59831721221460299, -6.435771746036060392 ) ) ;
#509 = ORIENTED_EDGE ( 'NONE', *, *, #215, .T. ) ;
#510 = CARTESIAN_POINT ( 'NONE',  ( -9.959776752257285537, 25.59831721221460654, 13.19920753668553104 ) ) ;
#511 =( LENGTH_UNIT ( ) NAMED_UNIT ( * ) SI_UNIT ( .MILLI., .METRE. ) );
#512 = CARTESIAN_POINT ( 'NONE',  ( 7.625945031788970186E-15, -52.90168278778539701, 6.080573624249490018E-17 ) ) ;
#513 = DIRECTION ( 'NONE',  ( 1.488156356394548084E-15, 1.000000000000000000, 2.094760423821050203E-15 ) ) ;
#514 = CARTESIAN_POINT ( 'NONE',  ( 6.960554140175331916, 19.89831721221460015, -15.09076303762082460 ) ) ;
#515 = AXIS2_PLACEMENT_3D ( 'NONE', #255, #421, #547 ) ;
#516 = CARTESIAN_POINT ( 'NONE',  ( -2.028875366059638363, 25.59831721221460299, 16.41035945067313406 ) ) ;
#517 = DIRECTION ( 'NONE',  ( 1.000000000000000000, 0.000000000000000000, 0.000000000000000000 ) ) ;
#518 = CARTESIAN_POINT ( 'NONE',  ( -13.28639508633637867, 19.59831721221459944, 10.28161979504087853 ) ) ;
#519 = EDGE_CURVE ( 'NONE', #402, #460, #137, .T. ) ;
#520 = CARTESIAN_POINT ( 'NONE',  ( -15.19311824586789861, 25.59831721221460299, 6.435771746036060392 ) ) ;
#521 = CARTESIAN_POINT ( 'NONE',  ( -18.39737519305543145, 19.59831721221458167, -3.869050235495230972 ) ) ;
#522 = FACE_OUTER_BOUND ( 'NONE', #199, .T. ) ;
#523 = CARTESIAN_POINT ( 'NONE',  ( -24.48280761154904894, -44.16968881141595205, 10.14111095767490056 ) ) ;
#524 = CARTESIAN_POINT ( 'NONE',  ( 15.19311824586789861, 19.89831721221460015, -6.435771746036070162 ) ) ;
#525 = ADVANCED_FACE ( 'NONE', ( #162 ), #339, .T. ) ;
#526 = PRODUCT ( 'ASV1_400_20X_1_1.STEP', 'ASV1_400_20X_1_1.STEP', '', ( #221 ) ) ;
#527 = CARTESIAN_POINT ( 'NONE',  ( 15.58120040183644939, 19.59831721221459944, 6.377712801384670449 ) ) ;
#528 = ORIENTED_EDGE ( 'NONE', *, *, #24, .T. ) ;
#529 = DIRECTION ( 'NONE',  ( 0.000000000000000000, 1.000000000000000000, 4.031734505761719585E-19 ) ) ;
#530 = CARTESIAN_POINT ( 'NONE',  ( 10.80405543797371770, 25.59831721221460299, -12.51753245030709749 ) ) ;
#531 = CARTESIAN_POINT ( 'NONE',  ( 16.80416423417210225, 19.59831721221459944, 1.033968534388265859 ) ) ;
#532 = CARTESIAN_POINT ( 'NONE',  ( 11.57500079533360271, 19.89831721221460015, 11.92475574525369808 ) ) ;
#533 = CYLINDRICAL_SURFACE ( 'NONE', #506, 26.49999999999999645 ) ;
#534 = CARTESIAN_POINT ( 'NONE',  ( 18.70008749570069995, 19.59831721221459944, -2.414386383378025025E-08 ) ) ;
#535 = ORIENTED_EDGE ( 'NONE', *, *, #110, .T. ) ;
#536 = DIRECTION ( 'NONE',  ( 1.000000000000000000, 0.000000000000000000, 0.000000000000000000 ) ) ;
#537 = CARTESIAN_POINT ( 'NONE',  ( -10.16924491975659706, 25.59831721221460299, -13.03850797880284418 ) ) ;
#538 = DIRECTION ( 'NONE',  ( -5.157842598702879918E-19, -1.000000000000000000, -1.217627280581126066E-18 ) ) ;
#539 = VERTEX_POINT ( 'NONE', #171 ) ;
#540 = TOROIDAL_SURFACE ( 'NONE', #419, 16.80000000000000071, 0.2999999999999999889 ) ;
#541 = CARTESIAN_POINT ( 'NONE',  ( -11.95450711774063990, 19.59831721221459944, -11.85490557157761948 ) ) ;
#542 = ORIENTED_EDGE ( 'NONE', *, *, #364, .F. ) ;
#543 = EDGE_CURVE ( 'NONE', #468, #539, #498, .T. ) ;
#544 = DIRECTION ( 'NONE',  ( 0.9238795325112849621, -5.236901059552625507E-16, -0.3826834323650940561 ) ) ;
#545 = CARTESIAN_POINT ( 'NONE',  ( -12.18182687896629446, 19.59831721221457812, 14.31908019426286138 ) ) ;
#546 = EDGE_LOOP ( 'NONE', ( #55, #250, #65, #552, #66 ) ) ;
#547 = DIRECTION ( 'NONE',  ( 1.000000000000000000, 0.000000000000000000, 0.000000000000000000 ) ) ;
#548 = ORIENTED_EDGE ( 'NONE', *, *, #463, .F. ) ;
#549 = CARTESIAN_POINT ( 'NONE',  ( -13.04913803122324722, 19.81977739587485132, 10.09801944155799802 ) ) ;
#550 = CARTESIAN_POINT ( 'NONE',  ( 7.877843405356457218, 19.59831721221458167, 17.06963816252465449 ) ) ;
#551 = VECTOR ( 'NONE', #538, 1000.000000000000000 ) ;
#552 = ORIENTED_EDGE ( 'NONE', *, *, #555, .T. ) ;
#553 = CARTESIAN_POINT ( 'NONE',  ( -16.56637431156556417, 19.89831721221459659, -1.317454046650420096 ) ) ;
#554 = CARTESIAN_POINT ( 'NONE',  ( 2.290623474853672459, 25.59831721221460654, 16.37587483610417394 ) ) ;
#555 = EDGE_CURVE ( 'NONE', #343, #115, #507, .T. ) ;
#556 = CARTESIAN_POINT ( 'NONE',  ( -14.08606668845948739, 19.59831721221457812, -12.45052966612700907 ) ) ;
#557 = CARTESIAN_POINT ( 'NONE',  ( -13.28639508633637867, 19.59831721221459944, 10.28161979504087853 ) ) ;
#558 = CARTESIAN_POINT ( 'NONE',  ( 16.49085294384141065, 25.59831721221460299, -1.211611214828244965 ) ) ;
#559 = PRESENTATION_STYLE_ASSIGNMENT (( #166 ) ) ;
#560 = FACE_OUTER_BOUND ( 'NONE', #383, .T. ) ;
#561 = DIRECTION ( 'NONE',  ( -1.441531654556315956E-16, 1.000000000000000000, -1.149410246294365984E-18 ) ) ;
ENDSEC;
END-ISO-10303-21;
