ISO-10303-21;
HEADER;
FILE_DESCRIPTION (( 'STEP AP214' ),
    '1' );
FILE_NAME ('ASV1_400_22X._1_1.STEP.STEP',
    '2026-08-01T03:19:14',
    ( '' ),
    ( '' ),
    'SwSTEP 2.0',
    'SolidWorks 2025',
    '' );
FILE_SCHEMA (( 'AUTOMOTIVE_DESIGN' ));
ENDSEC;

DATA;
#1 = DIRECTION ( 'NONE',  ( 0.000000000000000000, 0.000000000000000000, 1.000000000000000000 ) ) ;
#2 = FACE_OUTER_BOUND ( 'NONE', #277, .T. ) ;
#3 = DIRECTION ( 'NONE',  ( -1.000000000000000000, 0.000000000000000000, 0.000000000000000000 ) ) ;
#4 =( GEOMETRIC_REPRESENTATION_CONTEXT ( 3 ) GLOBAL_UNCERTAINTY_ASSIGNED_CONTEXT ( ( #261 ) ) GLOBAL_UNIT_ASSIGNED_CONTEXT ( ( #24, #103, #25 ) ) REPRESENTATION_CONTEXT ( 'NONE', 'WORKASPACE' ) );
#5 = DIRECTION ( 'NONE',  ( 0.4999999999999998335, 0.8660254037844387076, 0.000000000000000000 ) ) ;
#6 = CYLINDRICAL_SURFACE ( 'NONE', #154, 19.00000000000000711 ) ;
#7 = AXIS2_PLACEMENT_3D ( 'NONE', #36, #171, #54 ) ;
#8 = ORIENTED_EDGE ( 'NONE', *, *, #133, .T. ) ;
#9 = UNCERTAINTY_MEASURE_WITH_UNIT (LENGTH_MEASURE( 1.000000000000000082E-05 ), #194, 'distance_accuracy_value', 'NONE');
#10 = ORIENTED_EDGE ( 'NONE', *, *, #133, .F. ) ;
#11 = EDGE_LOOP ( 'NONE', ( #257, #88, #206, #46 ) ) ;
#12 = VECTOR ( 'NONE', #214, 1000.000000000000000 ) ;
#13 = ORIENTED_EDGE ( 'NONE', *, *, #142, .T. ) ;
#14 = ORIENTED_EDGE ( 'NONE', *, *, #148, .T. ) ;
#15 = FACE_OUTER_BOUND ( 'NONE', #11, .T. ) ;
#16 = SURFACE_STYLE_USAGE ( .BOTH. , #96 ) ;
#17 = CARTESIAN_POINT ( 'NONE',  ( -5.015106716429999167, 2.378298030472000058, -24.75000000000000000 ) ) ;
#18 = ADVANCED_FACE ( 'NONE', ( #114 ), #181, .T. ) ;
#19 = LINE ( 'NONE', #196, #135 ) ;
#20 = LINE ( 'NONE', #249, #185 ) ;
#21 = DIRECTION ( 'NONE',  ( -1.000000000000000000, 0.000000000000000000, 0.000000000000000000 ) ) ;
#22 = CARTESIAN_POINT ( 'NONE',  ( -5.015106716429999167, 2.378298030472000058, -26.75000000000000000 ) ) ;
#23 = AXIS2_PLACEMENT_3D ( 'NONE', #283, #245, #219 ) ;
#24 =( LENGTH_UNIT ( ) NAMED_UNIT ( * ) SI_UNIT ( .MILLI., .METRE. ) );
#25 =( NAMED_UNIT ( * ) SI_UNIT ( $, .STERADIAN. ) SOLID_ANGLE_UNIT ( ) );
#26 = DIRECTION ( 'NONE',  ( 0.000000000000000000, 0.000000000000000000, 1.000000000000000000 ) ) ;
#27 = EDGE_LOOP ( 'NONE', ( #130, #49 ) ) ;
#28 = ORIENTED_EDGE ( 'NONE', *, *, #35, .T. ) ;
#29 = AXIS2_PLACEMENT_3D ( 'NONE', #138, #26, #213 ) ;
#30 = DIRECTION ( 'NONE',  ( 0.000000000000000000, 0.000000000000000000, 1.000000000000000000 ) ) ;
#31 = ADVANCED_FACE ( 'NONE', ( #239, #186 ), #279, .F. ) ;
#32 = FACE_OUTER_BOUND ( 'NONE', #87, .T. ) ;
#33 = AXIS2_PLACEMENT_3D ( 'NONE', #52, #229, #163 ) ;
#34 = DIRECTION ( 'NONE',  ( 0.000000000000000000, 0.000000000000000000, -1.000000000000000000 ) ) ;
#35 = EDGE_CURVE ( 'NONE', #110, #225, #124, .T. ) ;
#36 = CARTESIAN_POINT ( 'NONE',  ( -5.015106716429999167, 2.378298030472000058, -31.75000000000000000 ) ) ;
#37 = CARTESIAN_POINT ( 'NONE',  ( -5.015106716429999167, 2.378298030472000058, 28.75000000000000000 ) ) ;
#38 = DIRECTION ( 'NONE',  ( 0.000000000000000000, 0.000000000000000000, 1.000000000000000000 ) ) ;
#39 = AXIS2_PLACEMENT_3D ( 'NONE', #63, #38, #45 ) ;
#40 = CARTESIAN_POINT ( 'NONE',  ( -5.015106716429999167, 2.378298030472000058, -31.75000000000000000 ) ) ;
#41 = ADVANCED_BREP_SHAPE_REPRESENTATION ( 'ASV1_400_22X._1_1.STEP', ( #120, #129 ), #4 ) ;
#42 = ADVANCED_FACE ( 'NONE', ( #236 ), #210, .F. ) ;
#43 = DIRECTION ( 'NONE',  ( 0.000000000000000000, 0.000000000000000000, 1.000000000000000000 ) ) ;
#44 = AXIS2_PLACEMENT_3D ( 'NONE', #106, #30, #92 ) ;
#45 = DIRECTION ( 'NONE',  ( 0.4999999999999998335, 0.8660254037844387076, 0.000000000000000000 ) ) ;
#46 = ORIENTED_EDGE ( 'NONE', *, *, #35, .F. ) ;
#47 = ORIENTED_EDGE ( 'NONE', *, *, #111, .F. ) ;
#48 = AXIS2_PLACEMENT_3D ( 'NONE', #37, #263, #143 ) ;
#49 = ORIENTED_EDGE ( 'NONE', *, *, #221, .F. ) ;
#50 = ORIENTED_EDGE ( 'NONE', *, *, #224, .F. ) ;
#51 = DIRECTION ( 'NONE',  ( 1.000000000000000000, 0.000000000000000000, 0.000000000000000000 ) ) ;
#52 = CARTESIAN_POINT ( 'NONE',  ( -5.015106716429999167, 2.378298030472000058, -81.24747468305838538 ) ) ;
#53 = CLOSED_SHELL ( 'NONE', ( #182, #42, #18, #79, #170, #86, #31, #205, #64, #74 ) ) ;
#54 = DIRECTION ( 'NONE',  ( -1.000000000000000000, 0.000000000000000000, 0.000000000000000000 ) ) ;
#55 = CYLINDRICAL_SURFACE ( 'NONE', #209, 28.00000000000000000 ) ;
#56 = CIRCLE ( 'NONE', #71, 19.00000000000000000 ) ;
#57 = CARTESIAN_POINT ( 'NONE',  ( 22.98489328356999906, 2.378298030472000058, 28.75000000000000000 ) ) ;
#58 = CARTESIAN_POINT ( 'NONE',  ( -5.015106716429999167, 2.378298030472000058, -81.24747468305838538 ) ) ;
#59 = DIRECTION ( 'NONE',  ( 1.000000000000000000, 0.000000000000000000, 0.000000000000000000 ) ) ;
#60 = EDGE_CURVE ( 'NONE', #237, #112, #97, .T. ) ;
#61 = CARTESIAN_POINT ( 'NONE',  ( -5.015106716429999167, 2.378298030472000058, -31.75000000000000000 ) ) ;
#62 = DIRECTION ( 'NONE',  ( 0.000000000000000000, 0.000000000000000000, 1.000000000000000000 ) ) ;
#63 = CARTESIAN_POINT ( 'NONE',  ( -5.015106716429999167, 2.378298030472000058, -24.75000000000000000 ) ) ;
#64 = ADVANCED_FACE ( 'NONE', ( #32 ), #117, .F. ) ;
#65 = AXIS2_PLACEMENT_3D ( 'NONE', #178, #246, #199 ) ;
#66 = PRODUCT_DEFINITION_CONTEXT ( 'detailed design', #211, 'design' ) ;
#67 = AXIS2_PLACEMENT_3D ( 'NONE', #188, #116, #164 ) ;
#68 = ORIENTED_EDGE ( 'NONE', *, *, #224, .T. ) ;
#69 = VERTEX_POINT ( 'NONE', #57 ) ;
#70 = EDGE_CURVE ( 'NONE', #84, #160, #230, .T. ) ;
#71 = AXIS2_PLACEMENT_3D ( 'NONE', #81, #222, #21 ) ;
#72 = AXIS2_PLACEMENT_3D ( 'NONE', #266, #153, #197 ) ;
#73 = ORIENTED_EDGE ( 'NONE', *, *, #70, .F. ) ;
#74 = ADVANCED_FACE ( 'NONE', ( #215 ), #55, .T. ) ;
#75 = DIRECTION ( 'NONE',  ( -1.000000000000000000, 0.000000000000000000, 0.000000000000000000 ) ) ;
#76 = AXIS2_PLACEMENT_3D ( 'NONE', #189, #161, #51 ) ;
#77 = SURFACE_STYLE_FILL_AREA ( #119 ) ;
#78 = CARTESIAN_POINT ( 'NONE',  ( -22.51510671642999739, 2.378298030472000058, -31.75000000000000000 ) ) ;
#79 = ADVANCED_FACE ( 'NONE', ( #15 ), #118, .T. ) ;
#80 = DIRECTION ( 'NONE',  ( -1.000000000000000000, 0.000000000000000000, 0.000000000000000000 ) ) ;
#81 = CARTESIAN_POINT ( 'NONE',  ( -5.015106716429999167, 2.378298030472000058, -26.75000000000000000 ) ) ;
#82 = PLANE ( 'NONE',  #191 ) ;
#83 = DIRECTION ( 'NONE',  ( 0.000000000000000000, 0.000000000000000000, -1.000000000000000000 ) ) ;
#84 = VERTEX_POINT ( 'NONE', #146 ) ;
#85 = VERTEX_POINT ( 'NONE', #123 ) ;
#86 = ADVANCED_FACE ( 'NONE', ( #167, #280 ), #281, .T. ) ;
#87 = EDGE_LOOP ( 'NONE', ( #132, #104 ) ) ;
#88 = ORIENTED_EDGE ( 'NONE', *, *, #200, .F. ) ;
#89 = ORIENTED_EDGE ( 'NONE', *, *, #60, .T. ) ;
#90 = VECTOR ( 'NONE', #252, 1000.000000000000000 ) ;
#91 = ORIENTED_EDGE ( 'NONE', *, *, #70, .T. ) ;
#92 = DIRECTION ( 'NONE',  ( 0.4999999999999998335, 0.8660254037844387076, 0.000000000000000000 ) ) ;
#93 = CARTESIAN_POINT ( 'NONE',  ( -33.01510671643000450, 2.378298030471994728, 28.75000000000000000 ) ) ;
#94 =( NAMED_UNIT ( * ) PLANE_ANGLE_UNIT ( ) SI_UNIT ( $, .RADIAN. ) );
#95 = DIRECTION ( 'NONE',  ( 0.000000000000000000, 0.000000000000000000, -1.000000000000000000 ) ) ;
#96 = SURFACE_SIDE_STYLE ('',( #77 ) ) ;
#97 = CIRCLE ( 'NONE', #67, 19.00000000000000000 ) ;
#98 = CARTESIAN_POINT ( 'NONE',  ( 4.484893283569994615, 18.83278070237634694, -26.75000000000000000 ) ) ;
#99 = DIRECTION ( 'NONE',  ( 1.000000000000000000, 0.000000000000000000, 0.000000000000000000 ) ) ;
#100 = DIRECTION ( 'NONE',  ( 0.000000000000000000, 0.000000000000000000, -1.000000000000000000 ) ) ;
#101 = CIRCLE ( 'NONE', #195, 28.00000000000000000 ) ;
#102 = CARTESIAN_POINT ( 'NONE',  ( -14.51510671643000094, -14.07618464143233972, -26.75000000000000000 ) ) ;
#103 =( NAMED_UNIT ( * ) PLANE_ANGLE_UNIT ( ) SI_UNIT ( $, .RADIAN. ) );
#104 = ORIENTED_EDGE ( 'NONE', *, *, #142, .F. ) ;
#105 = CIRCLE ( 'NONE', #23, 28.00000000000000000 ) ;
#106 = CARTESIAN_POINT ( 'NONE',  ( -5.015106716429999167, 2.378298030472000058, -26.75000000000000000 ) ) ;
#107 = EDGE_LOOP ( 'NONE', ( #231, #270, #179, #162 ) ) ;
#108 = APPLICATION_PROTOCOL_DEFINITION ( 'draft international standard', 'automotive_design', 1998, #147 ) ;
#109 = VERTEX_POINT ( 'NONE', #93 ) ;
#110 = VERTEX_POINT ( 'NONE', #168 ) ;
#111 = EDGE_CURVE ( 'NONE', #160, #225, #192, .T. ) ;
#112 = VERTEX_POINT ( 'NONE', #98 ) ;
#113 = SHAPE_DEFINITION_REPRESENTATION ( #251, #41 ) ;
#114 = FACE_OUTER_BOUND ( 'NONE', #126, .T. ) ;
#115 = COLOUR_RGB ( '',0.7921568627450980005, 0.8196078431372548767, 0.9333333333333333481 ) ;
#116 = DIRECTION ( 'NONE',  ( 0.000000000000000000, 0.000000000000000000, -1.000000000000000000 ) ) ;
#117 = PLANE ( 'NONE',  #48 ) ;
#118 = CYLINDRICAL_SURFACE ( 'NONE', #244, 17.50000000000000000 ) ;
#119 = FILL_AREA_STYLE ('',( #262 ) ) ;
#120 = MANIFOLD_SOLID_BREP ( 'NONE', #53 ) ;
#121 = PRESENTATION_STYLE_ASSIGNMENT (( #16 ) ) ;
#122 = EDGE_CURVE ( 'NONE', #69, #232, #243, .T. ) ;
#123 = CARTESIAN_POINT ( 'NONE',  ( -14.51510671643000094, -14.07618464143231840, -24.75000000000000000 ) ) ;
#124 = CIRCLE ( 'NONE', #29, 17.50000000000000000 ) ;
#125 = CARTESIAN_POINT ( 'NONE',  ( -22.51510671642999739, 2.378298030472000058, -24.75000000000000000 ) ) ;
#126 = EDGE_LOOP ( 'NONE', ( #73, #14, #208, #47 ) ) ;
#127 = DIRECTION ( 'NONE',  ( 1.000000000000000000, 0.000000000000000000, 0.000000000000000000 ) ) ;
#128 = FACE_OUTER_BOUND ( 'NONE', #259, .T. ) ;
#129 = AXIS2_PLACEMENT_3D ( 'NONE', #228, #180, #204 ) ;
#130 = ORIENTED_EDGE ( 'NONE', *, *, #242, .F. ) ;
#131 = CARTESIAN_POINT ( 'NONE',  ( 22.98489328356999906, 2.378298030472000058, -26.75000000000000000 ) ) ;
#132 = ORIENTED_EDGE ( 'NONE', *, *, #258, .F. ) ;
#133 = EDGE_CURVE ( 'NONE', #232, #183, #101, .T. ) ;
#134 = EDGE_LOOP ( 'NONE', ( #203, #156 ) ) ;
#135 = VECTOR ( 'NONE', #1, 1000.000000000000000 ) ;
#136 = ORIENTED_EDGE ( 'NONE', *, *, #273, .T. ) ;
#137 = ORIENTED_EDGE ( 'NONE', *, *, #122, .F. ) ;
#138 = CARTESIAN_POINT ( 'NONE',  ( -5.015106716429999167, 2.378298030472000058, -24.75000000000000000 ) ) ;
#139 = AXIS2_PLACEMENT_3D ( 'NONE', #40, #254, #80 ) ;
#140 = EDGE_LOOP ( 'NONE', ( #8, #136 ) ) ;
#141 =( NAMED_UNIT ( * ) SI_UNIT ( $, .STERADIAN. ) SOLID_ANGLE_UNIT ( ) );
#142 = EDGE_CURVE ( 'NONE', #109, #69, #105, .T. ) ;
#143 = DIRECTION ( 'NONE',  ( 0.000000000000000000, -1.000000000000000000, 0.000000000000000000 ) ) ;
#144 = DIRECTION ( 'NONE',  ( 0.000000000000000000, 0.000000000000000000, 1.000000000000000000 ) ) ;
#145 = CIRCLE ( 'NONE', #248, 28.00000000000000000 ) ;
#146 = CARTESIAN_POINT ( 'NONE',  ( 12.48489328356999906, 2.378298030472000058, -31.75000000000000000 ) ) ;
#147 = APPLICATION_CONTEXT ( 'automotive_design' ) ;
#148 = EDGE_CURVE ( 'NONE', #84, #110, #19, .T. ) ;
#149 = DIRECTION ( 'NONE',  ( -1.000000000000000000, 0.000000000000000000, 0.000000000000000000 ) ) ;
#150 = DIRECTION ( 'NONE',  ( 0.000000000000000000, 0.000000000000000000, 1.000000000000000000 ) ) ;
#151 = PRESENTATION_LAYER_ASSIGNMENT (  '', '', ( #284 ) ) ;
#152 = CARTESIAN_POINT ( 'NONE',  ( 4.484893283569999944, 18.83278070237634694, -26.75000000000000000 ) ) ;
#153 = DIRECTION ( 'NONE',  ( 0.000000000000000000, 0.000000000000000000, 1.000000000000000000 ) ) ;
#154 = AXIS2_PLACEMENT_3D ( 'NONE', #174, #150, #5 ) ;
#155 = PRODUCT_DEFINITION ( 'General', '', #166, #66 ) ;
#156 = ORIENTED_EDGE ( 'NONE', *, *, #60, .F. ) ;
#157 = EDGE_LOOP ( 'NONE', ( #272, #68, #10, #137 ) ) ;
#158 = ORIENTED_EDGE ( 'NONE', *, *, #122, .T. ) ;
#159 = CIRCLE ( 'NONE', #139, 17.50000000000000000 ) ;
#160 = VERTEX_POINT ( 'NONE', #78 ) ;
#161 = DIRECTION ( 'NONE',  ( 0.000000000000000000, 0.000000000000000000, 1.000000000000000000 ) ) ;
#162 = ORIENTED_EDGE ( 'NONE', *, *, #190, .F. ) ;
#163 = DIRECTION ( 'NONE',  ( -1.000000000000000000, 0.000000000000000000, 0.000000000000000000 ) ) ;
#164 = DIRECTION ( 'NONE',  ( -1.000000000000000000, 0.000000000000000000, 0.000000000000000000 ) ) ;
#165 = CIRCLE ( 'NONE', #39, 19.00000000000000711 ) ;
#166 = PRODUCT_DEFINITION_FORMATION_WITH_SPECIFIED_SOURCE ( 'Symmetric', '', #271, .NOT_KNOWN. ) ;
#167 = FACE_BOUND ( 'NONE', #275, .T. ) ;
#168 = CARTESIAN_POINT ( 'NONE',  ( 12.48489328356999906, 2.378298030472000058, -24.75000000000000000 ) ) ;
#169 = DIRECTION ( 'NONE',  ( 0.000000000000000000, 0.000000000000000000, -1.000000000000000000 ) ) ;
#170 = ADVANCED_FACE ( 'NONE', ( #2 ), #82, .F. ) ;
#171 = DIRECTION ( 'NONE',  ( 0.000000000000000000, 0.000000000000000000, -1.000000000000000000 ) ) ;
#172 = LINE ( 'NONE', #152, #269 ) ;
#173 = CARTESIAN_POINT ( 'NONE',  ( 4.484893283569999944, 18.83278070237634694, -24.75000000000000000 ) ) ;
#174 = CARTESIAN_POINT ( 'NONE',  ( -5.015106716429999167, 2.378298030472000058, -26.75000000000000000 ) ) ;
#175 = CARTESIAN_POINT ( 'NONE',  ( -14.51510671643000094, -14.07618464143231840, -26.75000000000000000 ) ) ;
#176 = AXIS2_PLACEMENT_3D ( 'NONE', #223, #43, #59 ) ;
#177 = ORIENTED_EDGE ( 'NONE', *, *, #212, .T. ) ;
#178 = CARTESIAN_POINT ( 'NONE',  ( -5.015106716429999167, 2.378298030472000058, 107.9459594928933939 ) ) ;
#179 = ORIENTED_EDGE ( 'NONE', *, *, #221, .T. ) ;
#180 = DIRECTION ( 'NONE',  ( 0.000000000000000000, 0.000000000000000000, 1.000000000000000000 ) ) ;
#181 = CYLINDRICAL_SURFACE ( 'NONE', #33, 17.50000000000000000 ) ;
#182 = ADVANCED_FACE ( 'NONE', ( #268 ), #250, .T. ) ;
#183 = VERTEX_POINT ( 'NONE', #220 ) ;
#184 = EDGE_LOOP ( 'NONE', ( #50, #13, #158, #227 ) ) ;
#185 = VECTOR ( 'NONE', #83, 1000.000000000000000 ) ;
#186 = FACE_OUTER_BOUND ( 'NONE', #140, .T. ) ;
#187 = ORIENTED_EDGE ( 'NONE', *, *, #200, .T. ) ;
#188 = CARTESIAN_POINT ( 'NONE',  ( -5.015106716429999167, 2.378298030472000058, -26.75000000000000000 ) ) ;
#189 = CARTESIAN_POINT ( 'NONE',  ( -5.015106716429999167, 2.378298030472000058, -26.75000000000000000 ) ) ;
#190 = EDGE_CURVE ( 'NONE', #112, #274, #172, .T. ) ;
#191 = AXIS2_PLACEMENT_3D ( 'NONE', #61, #62, #99 ) ;
#192 = LINE ( 'NONE', #218, #12 ) ;
#193 = CARTESIAN_POINT ( 'NONE',  ( -5.015106716429999167, 2.378298030472000058, -26.75000000000000000 ) ) ;
#194 =( LENGTH_UNIT ( ) NAMED_UNIT ( * ) SI_UNIT ( .MILLI., .METRE. ) );
#195 = AXIS2_PLACEMENT_3D ( 'NONE', #193, #282, #75 ) ;
#196 = CARTESIAN_POINT ( 'NONE',  ( 12.48489328356999906, 2.378298030472000058, -81.24747468305838538 ) ) ;
#197 = DIRECTION ( 'NONE',  ( 0.4999999999999998335, 0.8660254037844387076, 0.000000000000000000 ) ) ;
#198 = DIRECTION ( 'NONE',  ( 0.000000000000000000, 0.000000000000000000, -1.000000000000000000 ) ) ;
#199 = DIRECTION ( 'NONE',  ( 1.000000000000000000, 0.000000000000000000, 0.000000000000000000 ) ) ;
#200 = EDGE_CURVE ( 'NONE', #160, #84, #159, .T. ) ;
#201 = DIRECTION ( 'NONE',  ( 0.000000000000000000, 0.000000000000000000, 1.000000000000000000 ) ) ;
#202 = CIRCLE ( 'NONE', #72, 19.00000000000000711 ) ;
#203 = ORIENTED_EDGE ( 'NONE', *, *, #264, .F. ) ;
#204 = DIRECTION ( 'NONE',  ( 1.000000000000000000, 0.000000000000000000, 0.000000000000000000 ) ) ;
#205 = ADVANCED_FACE ( 'NONE', ( #128 ), #6, .F. ) ;
#206 = ORIENTED_EDGE ( 'NONE', *, *, #111, .T. ) ;
#207 = APPLICATION_PROTOCOL_DEFINITION ( 'draft international standard', 'automotive_design', 1998, #211 ) ;
#208 = ORIENTED_EDGE ( 'NONE', *, *, #212, .F. ) ;
#209 = AXIS2_PLACEMENT_3D ( 'NONE', #240, #169, #241 ) ;
#210 = CYLINDRICAL_SURFACE ( 'NONE', #44, 19.00000000000000711 ) ;
#211 = APPLICATION_CONTEXT ( 'automotive_design' ) ;
#212 = EDGE_CURVE ( 'NONE', #225, #110, #276, .T. ) ;
#213 = DIRECTION ( 'NONE',  ( 1.000000000000000000, 0.000000000000000000, 0.000000000000000000 ) ) ;
#214 = DIRECTION ( 'NONE',  ( 0.000000000000000000, 0.000000000000000000, 1.000000000000000000 ) ) ;
#215 = FACE_OUTER_BOUND ( 'NONE', #184, .T. ) ;
#216 = VECTOR ( 'NONE', #95, 1000.000000000000000 ) ;
#217 = CARTESIAN_POINT ( 'NONE',  ( 22.98489328356999906, 2.378298030472000058, 107.9459594928933939 ) ) ;
#218 = CARTESIAN_POINT ( 'NONE',  ( -22.51510671642999739, 2.378298030472000058, -81.24747468305838538 ) ) ;
#219 = DIRECTION ( 'NONE',  ( 1.000000000000000000, 0.000000000000000000, 0.000000000000000000 ) ) ;
#220 = CARTESIAN_POINT ( 'NONE',  ( -33.01510671643000450, 2.378298030471994728, -26.75000000000000000 ) ) ;
#221 = EDGE_CURVE ( 'NONE', #85, #274, #165, .T. ) ;
#222 = DIRECTION ( 'NONE',  ( 0.000000000000000000, 0.000000000000000000, -1.000000000000000000 ) ) ;
#223 = CARTESIAN_POINT ( 'NONE',  ( -5.015106716429999167, 2.378298030472000058, -24.75000000000000000 ) ) ;
#224 = EDGE_CURVE ( 'NONE', #109, #183, #20, .T. ) ;
#225 = VERTEX_POINT ( 'NONE', #125 ) ;
#226 = CARTESIAN_POINT ( 'NONE',  ( -5.015106716429999167, 2.378298030472000058, 28.75000000000000000 ) ) ;
#227 = ORIENTED_EDGE ( 'NONE', *, *, #273, .F. ) ;
#228 = CARTESIAN_POINT ( 'NONE',  ( 0.000000000000000000, 0.000000000000000000, 0.000000000000000000 ) ) ;
#229 = DIRECTION ( 'NONE',  ( 0.000000000000000000, 0.000000000000000000, 1.000000000000000000 ) ) ;
#230 = CIRCLE ( 'NONE', #7, 17.50000000000000000 ) ;
#231 = ORIENTED_EDGE ( 'NONE', *, *, #264, .T. ) ;
#232 = VERTEX_POINT ( 'NONE', #131 ) ;
#233 = ORIENTED_EDGE ( 'NONE', *, *, #242, .T. ) ;
#234 = ORIENTED_EDGE ( 'NONE', *, *, #190, .T. ) ;
#235 = PRODUCT_CONTEXT ( 'NONE', #147, 'mechanical' ) ;
#236 = FACE_OUTER_BOUND ( 'NONE', #107, .T. ) ;
#237 = VERTEX_POINT ( 'NONE', #175 ) ;
#238 =( GEOMETRIC_REPRESENTATION_CONTEXT ( 3 ) GLOBAL_UNCERTAINTY_ASSIGNED_CONTEXT ( ( #9 ) ) GLOBAL_UNIT_ASSIGNED_CONTEXT ( ( #194, #94, #141 ) ) REPRESENTATION_CONTEXT ( 'NONE', 'WORKASPACE' ) );
#239 = FACE_BOUND ( 'NONE', #134, .T. ) ;
#240 = CARTESIAN_POINT ( 'NONE',  ( -5.015106716429999167, 2.378298030472000058, 107.9459594928933939 ) ) ;
#241 = DIRECTION ( 'NONE',  ( 1.000000000000000000, 0.000000000000000000, 0.000000000000000000 ) ) ;
#242 = EDGE_CURVE ( 'NONE', #274, #85, #202, .T. ) ;
#243 = LINE ( 'NONE', #217, #216 ) ;
#244 = AXIS2_PLACEMENT_3D ( 'NONE', #58, #144, #149 ) ;
#245 = DIRECTION ( 'NONE',  ( 0.000000000000000000, 0.000000000000000000, -1.000000000000000000 ) ) ;
#246 = DIRECTION ( 'NONE',  ( 0.000000000000000000, 0.000000000000000000, -1.000000000000000000 ) ) ;
#247 = AXIS2_PLACEMENT_3D ( 'NONE', #22, #198, #3 ) ;
#248 = AXIS2_PLACEMENT_3D ( 'NONE', #226, #100, #127 ) ;
#249 = CARTESIAN_POINT ( 'NONE',  ( -33.01510671643000450, 2.378298030471994728, 107.9459594928933939 ) ) ;
#250 = CYLINDRICAL_SURFACE ( 'NONE', #65, 28.00000000000000000 ) ;
#251 = PRODUCT_DEFINITION_SHAPE ( 'NONE', 'NONE',  #155 ) ;
#252 = DIRECTION ( 'NONE',  ( 0.000000000000000000, 0.000000000000000000, 1.000000000000000000 ) ) ;
#253 = AXIS2_PLACEMENT_3D ( 'NONE', #17, #34, #265 ) ;
#254 = DIRECTION ( 'NONE',  ( 0.000000000000000000, 0.000000000000000000, -1.000000000000000000 ) ) ;
#255 = ORIENTED_EDGE ( 'NONE', *, *, #285, .F. ) ;
#256 = CIRCLE ( 'NONE', #247, 28.00000000000000000 ) ;
#257 = ORIENTED_EDGE ( 'NONE', *, *, #148, .F. ) ;
#258 = EDGE_CURVE ( 'NONE', #69, #109, #145, .T. ) ;
#259 = EDGE_LOOP ( 'NONE', ( #255, #89, #234, #233 ) ) ;
#260 = MECHANICAL_DESIGN_GEOMETRIC_PRESENTATION_REPRESENTATION (  '', ( #284 ), #238 ) ;
#261 = UNCERTAINTY_MEASURE_WITH_UNIT (LENGTH_MEASURE( 1.000000000000000082E-05 ), #24, 'distance_accuracy_value', 'NONE');
#262 = FILL_AREA_STYLE_COLOUR ( '', #115 ) ;
#263 = DIRECTION ( 'NONE',  ( 0.000000000000000000, 0.000000000000000000, -1.000000000000000000 ) ) ;
#264 = EDGE_CURVE ( 'NONE', #112, #237, #56, .T. ) ;
#265 = DIRECTION ( 'NONE',  ( 0.000000000000000000, -1.000000000000000000, 0.000000000000000000 ) ) ;
#266 = CARTESIAN_POINT ( 'NONE',  ( -5.015106716429999167, 2.378298030472000058, -24.75000000000000000 ) ) ;
#267 = LINE ( 'NONE', #102, #90 ) ;
#268 = FACE_OUTER_BOUND ( 'NONE', #157, .T. ) ;
#269 = VECTOR ( 'NONE', #201, 1000.000000000000000 ) ;
#270 = ORIENTED_EDGE ( 'NONE', *, *, #285, .T. ) ;
#271 = PRODUCT ( 'ASV1_400_22X._1_1.STEP', 'ASV1_400_22X._1_1.STEP', '', ( #235 ) ) ;
#272 = ORIENTED_EDGE ( 'NONE', *, *, #258, .T. ) ;
#273 = EDGE_CURVE ( 'NONE', #183, #232, #256, .T. ) ;
#274 = VERTEX_POINT ( 'NONE', #173 ) ;
#275 = EDGE_LOOP ( 'NONE', ( #177, #28 ) ) ;
#276 = CIRCLE ( 'NONE', #176, 17.50000000000000000 ) ;
#277 = EDGE_LOOP ( 'NONE', ( #187, #91 ) ) ;
#278 = PRODUCT_RELATED_PRODUCT_CATEGORY ( 'part', '', ( #271 ) ) ;
#279 = PLANE ( 'NONE',  #76 ) ;
#280 = FACE_OUTER_BOUND ( 'NONE', #27, .T. ) ;
#281 = PLANE ( 'NONE',  #253 ) ;
#282 = DIRECTION ( 'NONE',  ( 0.000000000000000000, 0.000000000000000000, -1.000000000000000000 ) ) ;
#283 = CARTESIAN_POINT ( 'NONE',  ( -5.015106716429999167, 2.378298030472000058, 28.75000000000000000 ) ) ;
#284 = STYLED_ITEM ( 'NONE', ( #121 ), #120 ) ;
#285 = EDGE_CURVE ( 'NONE', #237, #85, #267, .T. ) ;
ENDSEC;
END-ISO-10303-21;
