ISO-10303-21;
HEADER;
FILE_DESCRIPTION (( 'STEP AP214' ),
    '1' );
FILE_NAME ('ASV1_300_23X.STEP.STEP',
    '2026-08-01T02:08:55',
    ( '' ),
    ( '' ),
    'SwSTEP 2.0',
    'SolidWorks 2025',
    '' );
FILE_SCHEMA (( 'AUTOMOTIVE_DESIGN' ));
ENDSEC;

DATA;
#1 = AXIS2_PLACEMENT_3D ( 'NONE', #251, #60, #255 ) ;
#2 = DIRECTION ( 'NONE',  ( 0.000000000000000000, 0.000000000000000000, 1.000000000000000000 ) ) ;
#3 = DIRECTION ( 'NONE',  ( 0.000000000000000000, 0.000000000000000000, 1.000000000000000000 ) ) ;
#4 = EDGE_LOOP ( 'NONE', ( #100, #156 ) ) ;
#5 = FACE_BOUND ( 'NONE', #182, .T. ) ;
#6 = PRODUCT_CONTEXT ( 'NONE', #280, 'mechanical' ) ;
#7 = CIRCLE ( 'NONE', #161, 17.50000000000000000 ) ;
#8 = APPLICATION_PROTOCOL_DEFINITION ( 'draft international standard', 'automotive_design', 1998, #280 ) ;
#9 = DIRECTION ( 'NONE',  ( 0.000000000000000000, 0.000000000000000000, -1.000000000000000000 ) ) ;
#10 = CIRCLE ( 'NONE', #59, 28.00000000000000000 ) ;
#11 = PLANE ( 'NONE',  #221 ) ;
#12 = CARTESIAN_POINT ( 'NONE',  ( 12.48489328356999906, 2.378298030472000058, 24.75000000000000000 ) ) ;
#13 = CARTESIAN_POINT ( 'NONE',  ( -5.015106716429999167, 2.378298030472000058, 31.75000000000000000 ) ) ;
#14 = DIRECTION ( 'NONE',  ( 0.000000000000000000, 0.000000000000000000, -1.000000000000000000 ) ) ;
#15 = CARTESIAN_POINT ( 'NONE',  ( -5.015106716429999167, 2.378298030472000058, -28.75000000000000000 ) ) ;
#16 = DIRECTION ( 'NONE',  ( 0.000000000000000000, 0.000000000000000000, -1.000000000000000000 ) ) ;
#17 = ADVANCED_FACE ( 'NONE', ( #231 ), #11, .F. ) ;
#18 = ORIENTED_EDGE ( 'NONE', *, *, #41, .F. ) ;
#19 = CYLINDRICAL_SURFACE ( 'NONE', #214, 17.50000000000000000 ) ;
#20 = ORIENTED_EDGE ( 'NONE', *, *, #41, .T. ) ;
#21 = FACE_OUTER_BOUND ( 'NONE', #58, .T. ) ;
#22 = EDGE_CURVE ( 'NONE', #109, #174, #10, .T. ) ;
#23 = FACE_OUTER_BOUND ( 'NONE', #30, .T. ) ;
#24 = ORIENTED_EDGE ( 'NONE', *, *, #270, .F. ) ;
#25 = APPLICATION_PROTOCOL_DEFINITION ( 'draft international standard', 'automotive_design', 1998, #256 ) ;
#26 = VECTOR ( 'NONE', #180, 1000.000000000000000 ) ;
#27 = DIRECTION ( 'NONE',  ( 0.000000000000000000, 0.000000000000000000, 1.000000000000000000 ) ) ;
#28 = CARTESIAN_POINT ( 'NONE',  ( 12.48489328356999906, 2.378298030472000058, 31.75000000000000000 ) ) ;
#29 = CIRCLE ( 'NONE', #45, 19.00000000000000711 ) ;
#30 = EDGE_LOOP ( 'NONE', ( #98, #225, #179, #119 ) ) ;
#31 = EDGE_CURVE ( 'NONE', #35, #145, #89, .T. ) ;
#32 = ORIENTED_EDGE ( 'NONE', *, *, #270, .T. ) ;
#33 = EDGE_LOOP ( 'NONE', ( #79, #134 ) ) ;
#34 = CIRCLE ( 'NONE', #154, 17.50000000000000000 ) ;
#35 = VERTEX_POINT ( 'NONE', #234 ) ;
#36 = EDGE_LOOP ( 'NONE', ( #259, #142, #106, #24 ) ) ;
#37 = PRODUCT_DEFINITION ( 'General', '', #267, #243 ) ;
#38 = DIRECTION ( 'NONE',  ( 1.000000000000000000, 0.000000000000000000, 0.000000000000000000 ) ) ;
#39 = ADVANCED_FACE ( 'NONE', ( #208, #166 ), #257, .F. ) ;
#40 = CARTESIAN_POINT ( 'NONE',  ( -22.51510671642999739, 2.378298030472000058, 31.75000000000000000 ) ) ;
#41 = EDGE_CURVE ( 'NONE', #279, #55, #124, .T. ) ;
#42 = CARTESIAN_POINT ( 'NONE',  ( -5.015106716429999167, 2.378298030472000058, 31.75000000000000000 ) ) ;
#43 = CARTESIAN_POINT ( 'NONE',  ( -14.51510671643000094, -14.07618464143231840, 26.75000000000000000 ) ) ;
#44 = ORIENTED_EDGE ( 'NONE', *, *, #285, .T. ) ;
#45 = AXIS2_PLACEMENT_3D ( 'NONE', #241, #217, #220 ) ;
#46 = CARTESIAN_POINT ( 'NONE',  ( -5.015106716429999167, 2.378298030472000058, -28.75000000000000000 ) ) ;
#47 = ORIENTED_EDGE ( 'NONE', *, *, #57, .T. ) ;
#48 =( NAMED_UNIT ( * ) PLANE_ANGLE_UNIT ( ) SI_UNIT ( $, .RADIAN. ) );
#49 = CARTESIAN_POINT ( 'NONE',  ( 4.484893283569999944, 18.83278070237634694, 26.75000000000000000 ) ) ;
#50 = LINE ( 'NONE', #203, #26 ) ;
#51 = CARTESIAN_POINT ( 'NONE',  ( -5.015106716429999167, 2.378298030472000058, 81.24747468305838538 ) ) ;
#52 = PRODUCT_DEFINITION_SHAPE ( 'NONE', 'NONE',  #37 ) ;
#53 = DIRECTION ( 'NONE',  ( -1.000000000000000000, 0.000000000000000000, 0.000000000000000000 ) ) ;
#54 = AXIS2_PLACEMENT_3D ( 'NONE', #189, #101, #165 ) ;
#55 = VERTEX_POINT ( 'NONE', #12 ) ;
#56 = LINE ( 'NONE', #143, #184 ) ;
#57 = EDGE_CURVE ( 'NONE', #168, #176, #56, .T. ) ;
#58 = EDGE_LOOP ( 'NONE', ( #248, #44, #236, #65 ) ) ;
#59 = AXIS2_PLACEMENT_3D ( 'NONE', #253, #122, #144 ) ;
#60 = DIRECTION ( 'NONE',  ( 0.000000000000000000, 0.000000000000000000, -1.000000000000000000 ) ) ;
#61 = AXIS2_PLACEMENT_3D ( 'NONE', #70, #138, #249 ) ;
#62 = CARTESIAN_POINT ( 'NONE',  ( 4.484893283569999944, 18.83278070237634694, 24.75000000000000000 ) ) ;
#63 = DIRECTION ( 'NONE',  ( 0.000000000000000000, 0.000000000000000000, -1.000000000000000000 ) ) ;
#64 = FACE_OUTER_BOUND ( 'NONE', #278, .T. ) ;
#65 = ORIENTED_EDGE ( 'NONE', *, *, #206, .F. ) ;
#66 = AXIS2_PLACEMENT_3D ( 'NONE', #137, #250, #87 ) ;
#67 = LINE ( 'NONE', #68, #139 ) ;
#68 = CARTESIAN_POINT ( 'NONE',  ( -33.01510671643000450, 2.378298030471994728, -107.9459594928933939 ) ) ;
#69 = EDGE_CURVE ( 'NONE', #168, #279, #34, .T. ) ;
#70 = CARTESIAN_POINT ( 'NONE',  ( -5.015106716429999167, 2.378298030472000058, 24.75000000000000000 ) ) ;
#71 = PRODUCT_RELATED_PRODUCT_CATEGORY ( 'part', '', ( #85 ) ) ;
#72 =( NAMED_UNIT ( * ) SI_UNIT ( $, .STERADIAN. ) SOLID_ANGLE_UNIT ( ) );
#73 = CIRCLE ( 'NONE', #209, 28.00000000000000000 ) ;
#74 = DIRECTION ( 'NONE',  ( 1.000000000000000000, 0.000000000000000000, 0.000000000000000000 ) ) ;
#75 = EDGE_CURVE ( 'NONE', #195, #268, #167, .T. ) ;
#76 = ORIENTED_EDGE ( 'NONE', *, *, #86, .F. ) ;
#77 = AXIS2_PLACEMENT_3D ( 'NONE', #202, #9, #175 ) ;
#78 = ORIENTED_EDGE ( 'NONE', *, *, #22, .T. ) ;
#79 = ORIENTED_EDGE ( 'NONE', *, *, #69, .F. ) ;
#80 = DIRECTION ( 'NONE',  ( 0.000000000000000000, 0.000000000000000000, -1.000000000000000000 ) ) ;
#81 = DIRECTION ( 'NONE',  ( 0.000000000000000000, 0.000000000000000000, -1.000000000000000000 ) ) ;
#82 = CARTESIAN_POINT ( 'NONE',  ( -5.015106716429999167, 2.378298030472000058, 24.75000000000000000 ) ) ;
#83 = CARTESIAN_POINT ( 'NONE',  ( -33.01510671643000450, 2.378298030471994728, 26.75000000000000000 ) ) ;
#84 =( NAMED_UNIT ( * ) SI_UNIT ( $, .STERADIAN. ) SOLID_ANGLE_UNIT ( ) );
#85 = PRODUCT ( 'ASV1_300_23X.STEP', 'ASV1_300_23X.STEP', '', ( #6 ) ) ;
#86 = EDGE_CURVE ( 'NONE', #174, #109, #73, .T. ) ;
#87 = DIRECTION ( 'NONE',  ( -1.000000000000000000, 0.000000000000000000, 0.000000000000000000 ) ) ;
#88 = ORIENTED_EDGE ( 'NONE', *, *, #31, .T. ) ;
#89 = CIRCLE ( 'NONE', #54, 19.00000000000000000 ) ;
#90 = DIRECTION ( 'NONE',  ( 0.000000000000000000, 0.000000000000000000, 1.000000000000000000 ) ) ;
#91 =( LENGTH_UNIT ( ) NAMED_UNIT ( * ) SI_UNIT ( .MILLI., .METRE. ) );
#92 = CARTESIAN_POINT ( 'NONE',  ( -14.51510671643000094, -14.07618464143231840, 24.75000000000000000 ) ) ;
#93 = CIRCLE ( 'NONE', #252, 17.50000000000000000 ) ;
#94 = ORIENTED_EDGE ( 'NONE', *, *, #191, .T. ) ;
#95 = ADVANCED_FACE ( 'NONE', ( #64 ), #19, .T. ) ;
#96 = DIRECTION ( 'NONE',  ( 0.000000000000000000, -1.000000000000000000, 0.000000000000000000 ) ) ;
#97 = PRESENTATION_LAYER_ASSIGNMENT (  '', '', ( #118 ) ) ;
#98 = ORIENTED_EDGE ( 'NONE', *, *, #206, .T. ) ;
#99 = ADVANCED_FACE ( 'NONE', ( #21 ), #152, .F. ) ;
#100 = ORIENTED_EDGE ( 'NONE', *, *, #141, .F. ) ;
#101 = DIRECTION ( 'NONE',  ( 0.000000000000000000, 0.000000000000000000, -1.000000000000000000 ) ) ;
#102 = EDGE_LOOP ( 'NONE', ( #20, #207, #282, #113 ) ) ;
#103 = AXIS2_PLACEMENT_3D ( 'NONE', #169, #16, #150 ) ;
#104 = CARTESIAN_POINT ( 'NONE',  ( -5.015106716429999167, 2.378298030472000058, 24.75000000000000000 ) ) ;
#105 = DIRECTION ( 'NONE',  ( 1.000000000000000000, 0.000000000000000000, 0.000000000000000000 ) ) ;
#106 = ORIENTED_EDGE ( 'NONE', *, *, #141, .T. ) ;
#107 = VECTOR ( 'NONE', #14, 1000.000000000000000 ) ;
#108 = DIRECTION ( 'NONE',  ( 0.000000000000000000, 0.000000000000000000, -1.000000000000000000 ) ) ;
#109 = VERTEX_POINT ( 'NONE', #244 ) ;
#110 = CARTESIAN_POINT ( 'NONE',  ( -5.015106716429999167, 2.378298030472000058, 81.24747468305838538 ) ) ;
#111 = UNCERTAINTY_MEASURE_WITH_UNIT (LENGTH_MEASURE( 1.000000000000000082E-05 ), #215, 'distance_accuracy_value', 'NONE');
#112 = CARTESIAN_POINT ( 'NONE',  ( 0.000000000000000000, 0.000000000000000000, 0.000000000000000000 ) ) ;
#113 = ORIENTED_EDGE ( 'NONE', *, *, #69, .T. ) ;
#114 = CIRCLE ( 'NONE', #61, 19.00000000000000711 ) ;
#115 = SHAPE_DEFINITION_REPRESENTATION ( #52, #237 ) ;
#116 = CYLINDRICAL_SURFACE ( 'NONE', #266, 17.50000000000000000 ) ;
#117 = CARTESIAN_POINT ( 'NONE',  ( 22.98489328356999906, 2.378298030472000058, 26.75000000000000000 ) ) ;
#118 = STYLED_ITEM ( 'NONE', ( #171 ), #164 ) ;
#119 = ORIENTED_EDGE ( 'NONE', *, *, #201, .F. ) ;
#120 = VERTEX_POINT ( 'NONE', #62 ) ;
#121 = EDGE_CURVE ( 'NONE', #199, #120, #29, .T. ) ;
#122 = DIRECTION ( 'NONE',  ( 0.000000000000000000, 0.000000000000000000, -1.000000000000000000 ) ) ;
#123 = CLOSED_SHELL ( 'NONE', ( #222, #99, #95, #254, #17, #135, #39, #211, #196, #146 ) ) ;
#124 = LINE ( 'NONE', #238, #107 ) ;
#125 = EDGE_LOOP ( 'NONE', ( #265, #213 ) ) ;
#126 = DIRECTION ( 'NONE',  ( 0.000000000000000000, 0.000000000000000000, -1.000000000000000000 ) ) ;
#127 = EDGE_CURVE ( 'NONE', #55, #176, #93, .T. ) ;
#128 = PLANE ( 'NONE',  #258 ) ;
#129 = CARTESIAN_POINT ( 'NONE',  ( -33.01510671643000450, 2.378298030471994728, -28.75000000000000000 ) ) ;
#130 = SURFACE_STYLE_FILL_AREA ( #260 ) ;
#131 = SURFACE_STYLE_USAGE ( .BOTH. , #223 ) ;
#132 = AXIS2_PLACEMENT_3D ( 'NONE', #197, #63, #284 ) ;
#133 = DIRECTION ( 'NONE',  ( 0.000000000000000000, 0.000000000000000000, 1.000000000000000000 ) ) ;
#134 = ORIENTED_EDGE ( 'NONE', *, *, #163, .F. ) ;
#135 = ADVANCED_FACE ( 'NONE', ( #5, #147 ), #128, .T. ) ;
#136 = DIRECTION ( 'NONE',  ( 0.000000000000000000, 0.000000000000000000, 1.000000000000000000 ) ) ;
#137 = CARTESIAN_POINT ( 'NONE',  ( -5.015106716429999167, 2.378298030472000058, 26.75000000000000000 ) ) ;
#138 = DIRECTION ( 'NONE',  ( 0.000000000000000000, 0.000000000000000000, 1.000000000000000000 ) ) ;
#139 = VECTOR ( 'NONE', #27, 1000.000000000000000 ) ;
#140 = DIRECTION ( 'NONE',  ( 1.000000000000000000, 0.000000000000000000, 0.000000000000000000 ) ) ;
#141 = EDGE_CURVE ( 'NONE', #268, #195, #204, .T. ) ;
#142 = ORIENTED_EDGE ( 'NONE', *, *, #233, .T. ) ;
#143 = CARTESIAN_POINT ( 'NONE',  ( -22.51510671642999739, 2.378298030472000058, 81.24747468305838538 ) ) ;
#144 = DIRECTION ( 'NONE',  ( 1.000000000000000000, 0.000000000000000000, 0.000000000000000000 ) ) ;
#145 = VERTEX_POINT ( 'NONE', #43 ) ;
#146 = ADVANCED_FACE ( 'NONE', ( #149 ), #194, .T. ) ;
#147 = FACE_OUTER_BOUND ( 'NONE', #125, .T. ) ;
#148 = CARTESIAN_POINT ( 'NONE',  ( -5.015106716429999167, 2.378298030472000058, -107.9459594928933939 ) ) ;
#149 = FACE_OUTER_BOUND ( 'NONE', #246, .T. ) ;
#150 = DIRECTION ( 'NONE',  ( -1.000000000000000000, 0.000000000000000000, 0.000000000000000000 ) ) ;
#151 = ORIENTED_EDGE ( 'NONE', *, *, #201, .T. ) ;
#152 = CYLINDRICAL_SURFACE ( 'NONE', #132, 19.00000000000000711 ) ;
#153 = ORIENTED_EDGE ( 'NONE', *, *, #233, .F. ) ;
#154 = AXIS2_PLACEMENT_3D ( 'NONE', #13, #212, #187 ) ;
#155 = FACE_OUTER_BOUND ( 'NONE', #36, .T. ) ;
#156 = ORIENTED_EDGE ( 'NONE', *, *, #75, .F. ) ;
#157 = DIRECTION ( 'NONE',  ( 0.000000000000000000, 0.000000000000000000, -1.000000000000000000 ) ) ;
#158 = LINE ( 'NONE', #229, #230 ) ;
#159 =( GEOMETRIC_REPRESENTATION_CONTEXT ( 3 ) GLOBAL_UNCERTAINTY_ASSIGNED_CONTEXT ( ( #218 ) ) GLOBAL_UNIT_ASSIGNED_CONTEXT ( ( #91, #48, #72 ) ) REPRESENTATION_CONTEXT ( 'NONE', 'WORKASPACE' ) );
#160 = DIRECTION ( 'NONE',  ( 0.000000000000000000, 0.000000000000000000, -1.000000000000000000 ) ) ;
#161 = AXIS2_PLACEMENT_3D ( 'NONE', #42, #240, #264 ) ;
#162 = CARTESIAN_POINT ( 'NONE',  ( -5.015106716429999167, 2.378298030472000058, 31.75000000000000000 ) ) ;
#163 = EDGE_CURVE ( 'NONE', #279, #168, #7, .T. ) ;
#164 = MANIFOLD_SOLID_BREP ( 'NONE', #123 ) ;
#165 = DIRECTION ( 'NONE',  ( -1.000000000000000000, 0.000000000000000000, 0.000000000000000000 ) ) ;
#166 = FACE_OUTER_BOUND ( 'NONE', #4, .T. ) ;
#167 = CIRCLE ( 'NONE', #172, 28.00000000000000000 ) ;
#168 = VERTEX_POINT ( 'NONE', #40 ) ;
#169 = CARTESIAN_POINT ( 'NONE',  ( -5.015106716429999167, 2.378298030472000058, 26.75000000000000000 ) ) ;
#170 = DIRECTION ( 'NONE',  ( 1.000000000000000000, 0.000000000000000000, 0.000000000000000000 ) ) ;
#171 = PRESENTATION_STYLE_ASSIGNMENT (( #131 ) ) ;
#172 = AXIS2_PLACEMENT_3D ( 'NONE', #281, #126, #53 ) ;
#173 = FACE_OUTER_BOUND ( 'NONE', #275, .T. ) ;
#174 = VERTEX_POINT ( 'NONE', #129 ) ;
#175 = DIRECTION ( 'NONE',  ( 0.4999999999999998335, 0.8660254037844387076, 0.000000000000000000 ) ) ;
#176 = VERTEX_POINT ( 'NONE', #216 ) ;
#177 = MECHANICAL_DESIGN_GEOMETRIC_PRESENTATION_REPRESENTATION (  '', ( #118 ), #277 ) ;
#178 = CYLINDRICAL_SURFACE ( 'NONE', #239, 28.00000000000000000 ) ;
#179 = ORIENTED_EDGE ( 'NONE', *, *, #285, .F. ) ;
#180 = DIRECTION ( 'NONE',  ( 0.000000000000000000, 0.000000000000000000, 1.000000000000000000 ) ) ;
#181 = LINE ( 'NONE', #49, #227 ) ;
#182 = EDGE_LOOP ( 'NONE', ( #183, #274 ) ) ;
#183 = ORIENTED_EDGE ( 'NONE', *, *, #191, .F. ) ;
#184 = VECTOR ( 'NONE', #210, 1000.000000000000000 ) ;
#185 = ORIENTED_EDGE ( 'NONE', *, *, #75, .T. ) ;
#186 = ORIENTED_EDGE ( 'NONE', *, *, #163, .T. ) ;
#187 = DIRECTION ( 'NONE',  ( -1.000000000000000000, 0.000000000000000000, 0.000000000000000000 ) ) ;
#188 = CIRCLE ( 'NONE', #200, 17.50000000000000000 ) ;
#189 = CARTESIAN_POINT ( 'NONE',  ( -5.015106716429999167, 2.378298030472000058, 26.75000000000000000 ) ) ;
#190 = DIRECTION ( 'NONE',  ( 0.000000000000000000, 0.000000000000000000, 1.000000000000000000 ) ) ;
#191 = EDGE_CURVE ( 'NONE', #176, #55, #188, .T. ) ;
#192 = DIRECTION ( 'NONE',  ( -1.000000000000000000, 0.000000000000000000, 0.000000000000000000 ) ) ;
#193 = CARTESIAN_POINT ( 'NONE',  ( -5.015106716429999167, 2.378298030472000058, 24.75000000000000000 ) ) ;
#194 = CYLINDRICAL_SURFACE ( 'NONE', #226, 28.00000000000000000 ) ;
#195 = VERTEX_POINT ( 'NONE', #83 ) ;
#196 = ADVANCED_FACE ( 'NONE', ( #173 ), #263, .F. ) ;
#197 = CARTESIAN_POINT ( 'NONE',  ( -5.015106716429999167, 2.378298030472000058, 26.75000000000000000 ) ) ;
#198 = DIRECTION ( 'NONE',  ( 1.000000000000000000, 0.000000000000000000, 0.000000000000000000 ) ) ;
#199 = VERTEX_POINT ( 'NONE', #92 ) ;
#200 = AXIS2_PLACEMENT_3D ( 'NONE', #193, #2, #105 ) ;
#201 = EDGE_CURVE ( 'NONE', #145, #35, #262, .T. ) ;
#202 = CARTESIAN_POINT ( 'NONE',  ( -5.015106716429999167, 2.378298030472000058, 26.75000000000000000 ) ) ;
#203 = CARTESIAN_POINT ( 'NONE',  ( 22.98489328356999906, 2.378298030472000058, -107.9459594928933939 ) ) ;
#204 = CIRCLE ( 'NONE', #103, 28.00000000000000000 ) ;
#205 = DIRECTION ( 'NONE',  ( -1.000000000000000000, 0.000000000000000000, 0.000000000000000000 ) ) ;
#206 = EDGE_CURVE ( 'NONE', #145, #199, #158, .T. ) ;
#207 = ORIENTED_EDGE ( 'NONE', *, *, #127, .T. ) ;
#208 = FACE_BOUND ( 'NONE', #219, .T. ) ;
#209 = AXIS2_PLACEMENT_3D ( 'NONE', #15, #81, #140 ) ;
#210 = DIRECTION ( 'NONE',  ( 0.000000000000000000, 0.000000000000000000, -1.000000000000000000 ) ) ;
#211 = ADVANCED_FACE ( 'NONE', ( #23 ), #271, .F. ) ;
#212 = DIRECTION ( 'NONE',  ( 0.000000000000000000, 0.000000000000000000, -1.000000000000000000 ) ) ;
#213 = ORIENTED_EDGE ( 'NONE', *, *, #121, .T. ) ;
#214 = AXIS2_PLACEMENT_3D ( 'NONE', #110, #108, #192 ) ;
#215 =( LENGTH_UNIT ( ) NAMED_UNIT ( * ) SI_UNIT ( .MILLI., .METRE. ) );
#216 = CARTESIAN_POINT ( 'NONE',  ( -22.51510671642999739, 2.378298030472000058, 24.75000000000000000 ) ) ;
#217 = DIRECTION ( 'NONE',  ( 0.000000000000000000, 0.000000000000000000, 1.000000000000000000 ) ) ;
#218 = UNCERTAINTY_MEASURE_WITH_UNIT (LENGTH_MEASURE( 1.000000000000000082E-05 ), #91, 'distance_accuracy_value', 'NONE');
#219 = EDGE_LOOP ( 'NONE', ( #88, #151 ) ) ;
#220 = DIRECTION ( 'NONE',  ( 0.4999999999999998335, 0.8660254037844387076, 0.000000000000000000 ) ) ;
#221 = AXIS2_PLACEMENT_3D ( 'NONE', #162, #80, #96 ) ;
#222 = ADVANCED_FACE ( 'NONE', ( #155 ), #178, .T. ) ;
#223 = SURFACE_SIDE_STYLE ('',( #130 ) ) ;
#224 = DIRECTION ( 'NONE',  ( 0.000000000000000000, 0.000000000000000000, 1.000000000000000000 ) ) ;
#225 = ORIENTED_EDGE ( 'NONE', *, *, #276, .F. ) ;
#226 = AXIS2_PLACEMENT_3D ( 'NONE', #148, #190, #170 ) ;
#227 = VECTOR ( 'NONE', #157, 1000.000000000000000 ) ;
#228 = DIRECTION ( 'NONE',  ( 0.000000000000000000, 0.000000000000000000, -1.000000000000000000 ) ) ;
#229 = CARTESIAN_POINT ( 'NONE',  ( -14.51510671643000094, -14.07618464143233972, 26.75000000000000000 ) ) ;
#230 = VECTOR ( 'NONE', #160, 1000.000000000000000 ) ;
#231 = FACE_OUTER_BOUND ( 'NONE', #33, .T. ) ;
#232 = ORIENTED_EDGE ( 'NONE', *, *, #86, .T. ) ;
#233 = EDGE_CURVE ( 'NONE', #109, #268, #50, .T. ) ;
#234 = CARTESIAN_POINT ( 'NONE',  ( 4.484893283569994615, 18.83278070237634694, 26.75000000000000000 ) ) ;
#235 = AXIS2_PLACEMENT_3D ( 'NONE', #112, #136, #198 ) ;
#236 = ORIENTED_EDGE ( 'NONE', *, *, #121, .F. ) ;
#237 = ADVANCED_BREP_SHAPE_REPRESENTATION ( 'ASV1_300_23X.STEP', ( #164, #235 ), #159 ) ;
#238 = CARTESIAN_POINT ( 'NONE',  ( 12.48489328356999906, 2.378298030472000058, 81.24747468305838538 ) ) ;
#239 = AXIS2_PLACEMENT_3D ( 'NONE', #272, #90, #74 ) ;
#240 = DIRECTION ( 'NONE',  ( 0.000000000000000000, 0.000000000000000000, -1.000000000000000000 ) ) ;
#241 = CARTESIAN_POINT ( 'NONE',  ( -5.015106716429999167, 2.378298030472000058, 24.75000000000000000 ) ) ;
#242 =( NAMED_UNIT ( * ) PLANE_ANGLE_UNIT ( ) SI_UNIT ( $, .RADIAN. ) );
#243 = PRODUCT_DEFINITION_CONTEXT ( 'detailed design', #256, 'design' ) ;
#244 = CARTESIAN_POINT ( 'NONE',  ( 22.98489328356999906, 2.378298030472000058, -28.75000000000000000 ) ) ;
#245 = COLOUR_RGB ( '',0.7921568627450980005, 0.8196078431372548767, 0.9333333333333333481 ) ;
#246 = EDGE_LOOP ( 'NONE', ( #32, #185, #153, #76 ) ) ;
#247 = DIRECTION ( 'NONE',  ( 1.000000000000000000, 0.000000000000000000, 0.000000000000000000 ) ) ;
#248 = ORIENTED_EDGE ( 'NONE', *, *, #31, .F. ) ;
#249 = DIRECTION ( 'NONE',  ( 0.4999999999999998335, 0.8660254037844387076, 0.000000000000000000 ) ) ;
#250 = DIRECTION ( 'NONE',  ( 0.000000000000000000, 0.000000000000000000, -1.000000000000000000 ) ) ;
#251 = CARTESIAN_POINT ( 'NONE',  ( -5.015106716429999167, 2.378298030472000058, 26.75000000000000000 ) ) ;
#252 = AXIS2_PLACEMENT_3D ( 'NONE', #82, #133, #261 ) ;
#253 = CARTESIAN_POINT ( 'NONE',  ( -5.015106716429999167, 2.378298030472000058, -28.75000000000000000 ) ) ;
#254 = ADVANCED_FACE ( 'NONE', ( #269 ), #116, .T. ) ;
#255 = DIRECTION ( 'NONE',  ( 0.000000000000000000, -1.000000000000000000, 0.000000000000000000 ) ) ;
#256 = APPLICATION_CONTEXT ( 'automotive_design' ) ;
#257 = PLANE ( 'NONE',  #1 ) ;
#258 = AXIS2_PLACEMENT_3D ( 'NONE', #104, #3, #38 ) ;
#259 = ORIENTED_EDGE ( 'NONE', *, *, #22, .F. ) ;
#260 = FILL_AREA_STYLE ('',( #283 ) ) ;
#261 = DIRECTION ( 'NONE',  ( 1.000000000000000000, 0.000000000000000000, 0.000000000000000000 ) ) ;
#262 = CIRCLE ( 'NONE', #66, 19.00000000000000000 ) ;
#263 = PLANE ( 'NONE',  #273 ) ;
#264 = DIRECTION ( 'NONE',  ( -1.000000000000000000, 0.000000000000000000, 0.000000000000000000 ) ) ;
#265 = ORIENTED_EDGE ( 'NONE', *, *, #276, .T. ) ;
#266 = AXIS2_PLACEMENT_3D ( 'NONE', #51, #228, #205 ) ;
#267 = PRODUCT_DEFINITION_FORMATION_WITH_SPECIFIED_SOURCE ( 'Symmetric', '', #85, .NOT_KNOWN. ) ;
#268 = VERTEX_POINT ( 'NONE', #117 ) ;
#269 = FACE_OUTER_BOUND ( 'NONE', #102, .T. ) ;
#270 = EDGE_CURVE ( 'NONE', #174, #195, #67, .T. ) ;
#271 = CYLINDRICAL_SURFACE ( 'NONE', #77, 19.00000000000000711 ) ;
#272 = CARTESIAN_POINT ( 'NONE',  ( -5.015106716429999167, 2.378298030472000058, -107.9459594928933939 ) ) ;
#273 = AXIS2_PLACEMENT_3D ( 'NONE', #46, #224, #247 ) ;
#274 = ORIENTED_EDGE ( 'NONE', *, *, #127, .F. ) ;
#275 = EDGE_LOOP ( 'NONE', ( #78, #232 ) ) ;
#276 = EDGE_CURVE ( 'NONE', #120, #199, #114, .T. ) ;
#277 =( GEOMETRIC_REPRESENTATION_CONTEXT ( 3 ) GLOBAL_UNCERTAINTY_ASSIGNED_CONTEXT ( ( #111 ) ) GLOBAL_UNIT_ASSIGNED_CONTEXT ( ( #215, #242, #84 ) ) REPRESENTATION_CONTEXT ( 'NONE', 'WORKASPACE' ) );
#278 = EDGE_LOOP ( 'NONE', ( #186, #47, #94, #18 ) ) ;
#279 = VERTEX_POINT ( 'NONE', #28 ) ;
#280 = APPLICATION_CONTEXT ( 'automotive_design' ) ;
#281 = CARTESIAN_POINT ( 'NONE',  ( -5.015106716429999167, 2.378298030472000058, 26.75000000000000000 ) ) ;
#282 = ORIENTED_EDGE ( 'NONE', *, *, #57, .F. ) ;
#283 = FILL_AREA_STYLE_COLOUR ( '', #245 ) ;
#284 = DIRECTION ( 'NONE',  ( 0.4999999999999998335, 0.8660254037844387076, 0.000000000000000000 ) ) ;
#285 = EDGE_CURVE ( 'NONE', #35, #120, #181, .T. ) ;
ENDSEC;
END-ISO-10303-21;
