ISO-10303-21;
HEADER;
FILE_DESCRIPTION (( 'STEP AP214' ),
    '1' );
FILE_NAME ('ASV1_300_22X.STEP.STEP',
    '2026-08-01T02:08:55',
    ( '' ),
    ( '' ),
    'SwSTEP 2.0',
    'SolidWorks 2025',
    '' );
FILE_SCHEMA (( 'AUTOMOTIVE_DESIGN' ));
ENDSEC;

DATA;
#1 = VECTOR ( 'NONE', #199, 1000.000000000000000 ) ;
#2 = UNCERTAINTY_MEASURE_WITH_UNIT (LENGTH_MEASURE( 1.000000000000000082E-05 ), #160, 'distance_accuracy_value', 'NONE');
#3 = DIRECTION ( 'NONE',  ( 0.000000000000000000, 0.000000000000000000, -1.000000000000000000 ) ) ;
#4 = PRESENTATION_LAYER_ASSIGNMENT (  '', '', ( #23 ) ) ;
#5 = AXIS2_PLACEMENT_3D ( 'NONE', #86, #89, #17 ) ;
#6 = DIRECTION ( 'NONE',  ( 0.4999999999999998335, 0.8660254037844387076, 0.000000000000000000 ) ) ;
#7 = ORIENTED_EDGE ( 'NONE', *, *, #87, .T. ) ;
#8 = CARTESIAN_POINT ( 'NONE',  ( 22.98489328356999906, 2.378298030472000058, 26.75000000000000000 ) ) ;
#9 = ORIENTED_EDGE ( 'NONE', *, *, #16, .F. ) ;
#10 = DIRECTION ( 'NONE',  ( 0.000000000000000000, 0.000000000000000000, -1.000000000000000000 ) ) ;
#11 = AXIS2_PLACEMENT_3D ( 'NONE', #194, #21, #256 ) ;
#12 = ORIENTED_EDGE ( 'NONE', *, *, #58, .F. ) ;
#13 = FACE_OUTER_BOUND ( 'NONE', #246, .T. ) ;
#14 = ORIENTED_EDGE ( 'NONE', *, *, #82, .F. ) ;
#15 = CARTESIAN_POINT ( 'NONE',  ( 22.98489328356999906, 2.378298030472000058, -107.9459594928933939 ) ) ;
#16 = EDGE_CURVE ( 'NONE', #166, #59, #68, .T. ) ;
#17 = DIRECTION ( 'NONE',  ( 1.000000000000000000, 0.000000000000000000, 0.000000000000000000 ) ) ;
#18 = EDGE_LOOP ( 'NONE', ( #215, #12 ) ) ;
#19 = VECTOR ( 'NONE', #62, 1000.000000000000000 ) ;
#20 = FILL_AREA_STYLE ('',( #218 ) ) ;
#21 = DIRECTION ( 'NONE',  ( 0.000000000000000000, 0.000000000000000000, 1.000000000000000000 ) ) ;
#22 = CARTESIAN_POINT ( 'NONE',  ( -5.015106716429999167, 2.378298030472000058, -107.9459594928933939 ) ) ;
#23 = STYLED_ITEM ( 'NONE', ( #141 ), #138 ) ;
#24 = ADVANCED_FACE ( 'NONE', ( #110 ), #155, .T. ) ;
#25 = AXIS2_PLACEMENT_3D ( 'NONE', #179, #196, #217 ) ;
#26 = DIRECTION ( 'NONE',  ( 0.000000000000000000, 0.000000000000000000, -1.000000000000000000 ) ) ;
#27 = AXIS2_PLACEMENT_3D ( 'NONE', #258, #156, #135 ) ;
#28 = ORIENTED_EDGE ( 'NONE', *, *, #235, .T. ) ;
#29 = APPLICATION_CONTEXT ( 'automotive_design' ) ;
#30 = CARTESIAN_POINT ( 'NONE',  ( -5.015106716429999167, 2.378298030472000058, -28.75000000000000000 ) ) ;
#31 = EDGE_LOOP ( 'NONE', ( #172, #164, #100, #225 ) ) ;
#32 = EDGE_LOOP ( 'NONE', ( #126, #48, #7, #191 ) ) ;
#33 = LINE ( 'NONE', #55, #103 ) ;
#34 = CIRCLE ( 'NONE', #5, 28.00000000000000000 ) ;
#35 = VERTEX_POINT ( 'NONE', #282 ) ;
#36 = FACE_OUTER_BOUND ( 'NONE', #219, .T. ) ;
#37 = CARTESIAN_POINT ( 'NONE',  ( -33.01510671643000450, 2.378298030471994728, -28.75000000000000000 ) ) ;
#38 = DIRECTION ( 'NONE',  ( 1.000000000000000000, 0.000000000000000000, 0.000000000000000000 ) ) ;
#39 = PLANE ( 'NONE',  #248 ) ;
#40 = CYLINDRICAL_SURFACE ( 'NONE', #121, 17.50000000000000000 ) ;
#41 =( GEOMETRIC_REPRESENTATION_CONTEXT ( 3 ) GLOBAL_UNCERTAINTY_ASSIGNED_CONTEXT ( ( #2 ) ) GLOBAL_UNIT_ASSIGNED_CONTEXT ( ( #160, #181, #203 ) ) REPRESENTATION_CONTEXT ( 'NONE', 'WORKASPACE' ) );
#42 = CARTESIAN_POINT ( 'NONE',  ( 12.48489328356999906, 2.378298030472000058, 31.75000000000000000 ) ) ;
#43 = DIRECTION ( 'NONE',  ( 0.000000000000000000, 0.000000000000000000, 1.000000000000000000 ) ) ;
#44 = CARTESIAN_POINT ( 'NONE',  ( -5.015106716429999167, 2.378298030472000058, 24.75000000000000000 ) ) ;
#45 = SURFACE_STYLE_USAGE ( .BOTH. , #259 ) ;
#46 = CLOSED_SHELL ( 'NONE', ( #24, #95, #116, #168, #118, #278, #207, #243, #257, #91 ) ) ;
#47 = PRODUCT_DEFINITION_CONTEXT ( 'detailed design', #232, 'design' ) ;
#48 = ORIENTED_EDGE ( 'NONE', *, *, #183, .T. ) ;
#49 = CARTESIAN_POINT ( 'NONE',  ( -5.015106716429999167, 2.378298030472000058, 26.75000000000000000 ) ) ;
#50 = ORIENTED_EDGE ( 'NONE', *, *, #261, .T. ) ;
#51 = PLANE ( 'NONE',  #109 ) ;
#52 = EDGE_CURVE ( 'NONE', #166, #249, #112, .T. ) ;
#53 = CIRCLE ( 'NONE', #238, 19.00000000000000000 ) ;
#54 = ORIENTED_EDGE ( 'NONE', *, *, #235, .F. ) ;
#55 = CARTESIAN_POINT ( 'NONE',  ( 4.484893283569999944, 18.83278070237634694, 26.75000000000000000 ) ) ;
#56 = ORIENTED_EDGE ( 'NONE', *, *, #212, .T. ) ;
#57 = LINE ( 'NONE', #237, #19 ) ;
#58 = EDGE_CURVE ( 'NONE', #249, #250, #162, .T. ) ;
#59 = VERTEX_POINT ( 'NONE', #63 ) ;
#60 = CARTESIAN_POINT ( 'NONE',  ( -14.51510671643000094, -14.07618464143233972, 26.75000000000000000 ) ) ;
#61 = DIRECTION ( 'NONE',  ( 0.4999999999999998335, 0.8660254037844387076, 0.000000000000000000 ) ) ;
#62 = DIRECTION ( 'NONE',  ( 0.000000000000000000, 0.000000000000000000, 1.000000000000000000 ) ) ;
#63 = CARTESIAN_POINT ( 'NONE',  ( -22.51510671642999739, 2.378298030472000058, 31.75000000000000000 ) ) ;
#64 = DIRECTION ( 'NONE',  ( 0.000000000000000000, 0.000000000000000000, -1.000000000000000000 ) ) ;
#65 = PRODUCT_DEFINITION_SHAPE ( 'NONE', 'NONE',  #66 ) ;
#66 = PRODUCT_DEFINITION ( 'General', '', #262, #47 ) ;
#67 = DIRECTION ( 'NONE',  ( 0.000000000000000000, 0.000000000000000000, -1.000000000000000000 ) ) ;
#68 = CIRCLE ( 'NONE', #153, 17.50000000000000000 ) ;
#69 =( NAMED_UNIT ( * ) PLANE_ANGLE_UNIT ( ) SI_UNIT ( $, .RADIAN. ) );
#70 = ORIENTED_EDGE ( 'NONE', *, *, #72, .F. ) ;
#71 = APPLICATION_PROTOCOL_DEFINITION ( 'draft international standard', 'automotive_design', 1998, #29 ) ;
#72 = EDGE_CURVE ( 'NONE', #187, #170, #79, .T. ) ;
#73 = CIRCLE ( 'NONE', #27, 19.00000000000000711 ) ;
#74 = EDGE_CURVE ( 'NONE', #75, #200, #34, .T. ) ;
#75 = VERTEX_POINT ( 'NONE', #37 ) ;
#76 = FACE_BOUND ( 'NONE', #129, .T. ) ;
#77 = ORIENTED_EDGE ( 'NONE', *, *, #261, .F. ) ;
#78 = CARTESIAN_POINT ( 'NONE',  ( -5.015106716429999167, 2.378298030472000058, 26.75000000000000000 ) ) ;
#79 = CIRCLE ( 'NONE', #90, 28.00000000000000000 ) ;
#80 = ORIENTED_EDGE ( 'NONE', *, *, #198, .T. ) ;
#81 = DIRECTION ( 'NONE',  ( 0.000000000000000000, 0.000000000000000000, -1.000000000000000000 ) ) ;
#82 = EDGE_CURVE ( 'NONE', #228, #209, #128, .T. ) ;
#83 = DIRECTION ( 'NONE',  ( -1.000000000000000000, 0.000000000000000000, 0.000000000000000000 ) ) ;
#84 = EDGE_LOOP ( 'NONE', ( #77, #152, #150, #268 ) ) ;
#85 = DIRECTION ( 'NONE',  ( 1.000000000000000000, 0.000000000000000000, 0.000000000000000000 ) ) ;
#86 = CARTESIAN_POINT ( 'NONE',  ( -5.015106716429999167, 2.378298030472000058, -28.75000000000000000 ) ) ;
#87 = EDGE_CURVE ( 'NONE', #250, #249, #93, .T. ) ;
#88 = SURFACE_STYLE_FILL_AREA ( #20 ) ;
#89 = DIRECTION ( 'NONE',  ( 0.000000000000000000, 0.000000000000000000, -1.000000000000000000 ) ) ;
#90 = AXIS2_PLACEMENT_3D ( 'NONE', #284, #157, #220 ) ;
#91 = ADVANCED_FACE ( 'NONE', ( #139 ), #174, .T. ) ;
#92 = DIRECTION ( 'NONE',  ( 0.000000000000000000, 0.000000000000000000, 1.000000000000000000 ) ) ;
#93 = CIRCLE ( 'NONE', #117, 17.50000000000000000 ) ;
#94 = PRODUCT_RELATED_PRODUCT_CATEGORY ( 'part', '', ( #149 ) ) ;
#95 = ADVANCED_FACE ( 'NONE', ( #131 ), #111, .F. ) ;
#96 = ORIENTED_EDGE ( 'NONE', *, *, #266, .F. ) ;
#97 = CARTESIAN_POINT ( 'NONE',  ( -5.015106716429999167, 2.378298030472000058, 26.75000000000000000 ) ) ;
#98 = ORIENTED_EDGE ( 'NONE', *, *, #132, .T. ) ;
#99 = CARTESIAN_POINT ( 'NONE',  ( -5.015106716429999167, 2.378298030472000058, 31.75000000000000000 ) ) ;
#100 = ORIENTED_EDGE ( 'NONE', *, *, #202, .F. ) ;
#101 = LINE ( 'NONE', #15, #114 ) ;
#102 =( GEOMETRIC_REPRESENTATION_CONTEXT ( 3 ) GLOBAL_UNCERTAINTY_ASSIGNED_CONTEXT ( ( #115 ) ) GLOBAL_UNIT_ASSIGNED_CONTEXT ( ( #175, #69, #137 ) ) REPRESENTATION_CONTEXT ( 'NONE', 'WORKASPACE' ) );
#103 = VECTOR ( 'NONE', #169, 1000.000000000000000 ) ;
#104 = CYLINDRICAL_SURFACE ( 'NONE', #184, 17.50000000000000000 ) ;
#105 = EDGE_LOOP ( 'NONE', ( #189, #98 ) ) ;
#106 = DIRECTION ( 'NONE',  ( -1.000000000000000000, 0.000000000000000000, 0.000000000000000000 ) ) ;
#107 = DIRECTION ( 'NONE',  ( -1.000000000000000000, 0.000000000000000000, 0.000000000000000000 ) ) ;
#108 = DIRECTION ( 'NONE',  ( 1.000000000000000000, 0.000000000000000000, 0.000000000000000000 ) ) ;
#109 = AXIS2_PLACEMENT_3D ( 'NONE', #147, #275, #123 ) ;
#110 = FACE_OUTER_BOUND ( 'NONE', #211, .T. ) ;
#111 = CYLINDRICAL_SURFACE ( 'NONE', #182, 19.00000000000000711 ) ;
#112 = LINE ( 'NONE', #236, #1 ) ;
#113 = CARTESIAN_POINT ( 'NONE',  ( -5.015106716429999167, 2.378298030472000058, 26.75000000000000000 ) ) ;
#114 = VECTOR ( 'NONE', #190, 1000.000000000000000 ) ;
#115 = UNCERTAINTY_MEASURE_WITH_UNIT (LENGTH_MEASURE( 1.000000000000000082E-05 ), #175, 'distance_accuracy_value', 'NONE');
#116 = ADVANCED_FACE ( 'NONE', ( #154 ), #40, .T. ) ;
#117 = AXIS2_PLACEMENT_3D ( 'NONE', #44, #92, #177 ) ;
#118 = ADVANCED_FACE ( 'NONE', ( #216 ), #39, .F. ) ;
#119 = ORIENTED_EDGE ( 'NONE', *, *, #212, .F. ) ;
#120 = CARTESIAN_POINT ( 'NONE',  ( -5.015106716429999167, 2.378298030472000058, 26.75000000000000000 ) ) ;
#121 = AXIS2_PLACEMENT_3D ( 'NONE', #233, #64, #176 ) ;
#122 = EDGE_LOOP ( 'NONE', ( #80, #136 ) ) ;
#123 = DIRECTION ( 'NONE',  ( 1.000000000000000000, 0.000000000000000000, 0.000000000000000000 ) ) ;
#124 = ORIENTED_EDGE ( 'NONE', *, *, #202, .T. ) ;
#125 = CARTESIAN_POINT ( 'NONE',  ( -5.015106716429999167, 2.378298030472000058, 26.75000000000000000 ) ) ;
#126 = ORIENTED_EDGE ( 'NONE', *, *, #16, .T. ) ;
#127 = DIRECTION ( 'NONE',  ( -1.000000000000000000, 0.000000000000000000, 0.000000000000000000 ) ) ;
#128 = CIRCLE ( 'NONE', #148, 19.00000000000000711 ) ;
#129 = EDGE_LOOP ( 'NONE', ( #50, #28 ) ) ;
#130 = CARTESIAN_POINT ( 'NONE',  ( 4.484893283569994615, 18.83278070237634694, 26.75000000000000000 ) ) ;
#131 = FACE_OUTER_BOUND ( 'NONE', #84, .T. ) ;
#132 = EDGE_CURVE ( 'NONE', #209, #228, #73, .T. ) ;
#133 = CARTESIAN_POINT ( 'NONE',  ( -5.015106716429999167, 2.378298030472000058, 31.75000000000000000 ) ) ;
#134 = FACE_BOUND ( 'NONE', #18, .T. ) ;
#135 = DIRECTION ( 'NONE',  ( 0.4999999999999998335, 0.8660254037844387076, 0.000000000000000000 ) ) ;
#136 = ORIENTED_EDGE ( 'NONE', *, *, #74, .T. ) ;
#137 =( NAMED_UNIT ( * ) SI_UNIT ( $, .STERADIAN. ) SOLID_ANGLE_UNIT ( ) );
#138 = MANIFOLD_SOLID_BREP ( 'NONE', #46 ) ;
#139 = FACE_OUTER_BOUND ( 'NONE', #31, .T. ) ;
#140 = DIRECTION ( 'NONE',  ( 0.000000000000000000, 0.000000000000000000, 1.000000000000000000 ) ) ;
#141 = PRESENTATION_STYLE_ASSIGNMENT (( #45 ) ) ;
#142 = AXIS2_PLACEMENT_3D ( 'NONE', #30, #26, #223 ) ;
#143 = MECHANICAL_DESIGN_GEOMETRIC_PRESENTATION_REPRESENTATION (  '', ( #23 ), #41 ) ;
#144 = EDGE_CURVE ( 'NONE', #35, #209, #229, .T. ) ;
#145 = ORIENTED_EDGE ( 'NONE', *, *, #72, .T. ) ;
#146 = ORIENTED_EDGE ( 'NONE', *, *, #244, .F. ) ;
#147 = CARTESIAN_POINT ( 'NONE',  ( -5.015106716429999167, 2.378298030472000058, -28.75000000000000000 ) ) ;
#148 = AXIS2_PLACEMENT_3D ( 'NONE', #159, #241, #61 ) ;
#149 = PRODUCT ( 'ASV1_300_22X.STEP', 'ASV1_300_22X.STEP', '', ( #158 ) ) ;
#150 = ORIENTED_EDGE ( 'NONE', *, *, #132, .F. ) ;
#151 = LINE ( 'NONE', #208, #280 ) ;
#152 = ORIENTED_EDGE ( 'NONE', *, *, #171, .T. ) ;
#153 = AXIS2_PLACEMENT_3D ( 'NONE', #263, #67, #107 ) ;
#154 = FACE_OUTER_BOUND ( 'NONE', #32, .T. ) ;
#155 = CYLINDRICAL_SURFACE ( 'NONE', #11, 28.00000000000000000 ) ;
#156 = DIRECTION ( 'NONE',  ( 0.000000000000000000, 0.000000000000000000, 1.000000000000000000 ) ) ;
#157 = DIRECTION ( 'NONE',  ( 0.000000000000000000, 0.000000000000000000, -1.000000000000000000 ) ) ;
#158 = PRODUCT_CONTEXT ( 'NONE', #29, 'mechanical' ) ;
#159 = CARTESIAN_POINT ( 'NONE',  ( -5.015106716429999167, 2.378298030472000058, 24.75000000000000000 ) ) ;
#160 =( LENGTH_UNIT ( ) NAMED_UNIT ( * ) SI_UNIT ( .MILLI., .METRE. ) );
#161 = AXIS2_PLACEMENT_3D ( 'NONE', #99, #165, #106 ) ;
#162 = CIRCLE ( 'NONE', #25, 17.50000000000000000 ) ;
#163 = CARTESIAN_POINT ( 'NONE',  ( 22.98489328356999906, 2.378298030472000058, -28.75000000000000000 ) ) ;
#164 = ORIENTED_EDGE ( 'NONE', *, *, #244, .T. ) ;
#165 = DIRECTION ( 'NONE',  ( 0.000000000000000000, 0.000000000000000000, -1.000000000000000000 ) ) ;
#166 = VERTEX_POINT ( 'NONE', #42 ) ;
#167 = DIRECTION ( 'NONE',  ( 0.000000000000000000, 0.000000000000000000, -1.000000000000000000 ) ) ;
#168 = ADVANCED_FACE ( 'NONE', ( #36 ), #104, .T. ) ;
#169 = DIRECTION ( 'NONE',  ( 0.000000000000000000, 0.000000000000000000, -1.000000000000000000 ) ) ;
#170 = VERTEX_POINT ( 'NONE', #253 ) ;
#171 = EDGE_CURVE ( 'NONE', #185, #228, #33, .T. ) ;
#172 = ORIENTED_EDGE ( 'NONE', *, *, #266, .T. ) ;
#173 = CIRCLE ( 'NONE', #161, 17.50000000000000000 ) ;
#174 = CYLINDRICAL_SURFACE ( 'NONE', #213, 28.00000000000000000 ) ;
#175 =( LENGTH_UNIT ( ) NAMED_UNIT ( * ) SI_UNIT ( .MILLI., .METRE. ) );
#176 = DIRECTION ( 'NONE',  ( -1.000000000000000000, 0.000000000000000000, 0.000000000000000000 ) ) ;
#177 = DIRECTION ( 'NONE',  ( 1.000000000000000000, 0.000000000000000000, 0.000000000000000000 ) ) ;
#178 = CIRCLE ( 'NONE', #265, 19.00000000000000000 ) ;
#179 = CARTESIAN_POINT ( 'NONE',  ( -5.015106716429999167, 2.378298030472000058, 24.75000000000000000 ) ) ;
#180 = PLANE ( 'NONE',  #271 ) ;
#181 =( NAMED_UNIT ( * ) PLANE_ANGLE_UNIT ( ) SI_UNIT ( $, .RADIAN. ) );
#182 = AXIS2_PLACEMENT_3D ( 'NONE', #113, #3, #254 ) ;
#183 = EDGE_CURVE ( 'NONE', #59, #250, #151, .T. ) ;
#184 = AXIS2_PLACEMENT_3D ( 'NONE', #227, #186, #127 ) ;
#185 = VERTEX_POINT ( 'NONE', #130 ) ;
#186 = DIRECTION ( 'NONE',  ( 0.000000000000000000, 0.000000000000000000, -1.000000000000000000 ) ) ;
#187 = VERTEX_POINT ( 'NONE', #8 ) ;
#188 = CARTESIAN_POINT ( 'NONE',  ( 12.48489328356999906, 2.378298030472000058, 24.75000000000000000 ) ) ;
#189 = ORIENTED_EDGE ( 'NONE', *, *, #82, .T. ) ;
#190 = DIRECTION ( 'NONE',  ( 0.000000000000000000, 0.000000000000000000, 1.000000000000000000 ) ) ;
#191 = ORIENTED_EDGE ( 'NONE', *, *, #52, .F. ) ;
#192 = DIRECTION ( 'NONE',  ( -1.000000000000000000, 0.000000000000000000, 0.000000000000000000 ) ) ;
#193 = DIRECTION ( 'NONE',  ( 0.000000000000000000, 0.000000000000000000, -1.000000000000000000 ) ) ;
#194 = CARTESIAN_POINT ( 'NONE',  ( -5.015106716429999167, 2.378298030472000058, -107.9459594928933939 ) ) ;
#195 = AXIS2_PLACEMENT_3D ( 'NONE', #120, #206, #192 ) ;
#196 = DIRECTION ( 'NONE',  ( 0.000000000000000000, 0.000000000000000000, 1.000000000000000000 ) ) ;
#197 = ORIENTED_EDGE ( 'NONE', *, *, #52, .T. ) ;
#198 = EDGE_CURVE ( 'NONE', #200, #75, #230, .T. ) ;
#199 = DIRECTION ( 'NONE',  ( 0.000000000000000000, 0.000000000000000000, -1.000000000000000000 ) ) ;
#200 = VERTEX_POINT ( 'NONE', #163 ) ;
#201 = FACE_OUTER_BOUND ( 'NONE', #105, .T. ) ;
#202 = EDGE_CURVE ( 'NONE', #200, #187, #101, .T. ) ;
#203 =( NAMED_UNIT ( * ) SI_UNIT ( $, .STERADIAN. ) SOLID_ANGLE_UNIT ( ) );
#204 = ADVANCED_BREP_SHAPE_REPRESENTATION ( 'ASV1_300_22X.STEP', ( #138, #260 ), #102 ) ;
#205 = ORIENTED_EDGE ( 'NONE', *, *, #58, .T. ) ;
#206 = DIRECTION ( 'NONE',  ( 0.000000000000000000, 0.000000000000000000, -1.000000000000000000 ) ) ;
#207 = ADVANCED_FACE ( 'NONE', ( #76, #13 ), #270, .F. ) ;
#208 = CARTESIAN_POINT ( 'NONE',  ( -22.51510671642999739, 2.378298030472000058, 81.24747468305838538 ) ) ;
#209 = VERTEX_POINT ( 'NONE', #226 ) ;
#210 = DIRECTION ( 'NONE',  ( 0.000000000000000000, -1.000000000000000000, 0.000000000000000000 ) ) ;
#211 = EDGE_LOOP ( 'NONE', ( #272, #124, #145, #96 ) ) ;
#212 = EDGE_CURVE ( 'NONE', #59, #166, #173, .T. ) ;
#213 = AXIS2_PLACEMENT_3D ( 'NONE', #22, #279, #85 ) ;
#214 = DIRECTION ( 'NONE',  ( 0.000000000000000000, 0.000000000000000000, -1.000000000000000000 ) ) ;
#215 = ORIENTED_EDGE ( 'NONE', *, *, #87, .F. ) ;
#216 = FACE_OUTER_BOUND ( 'NONE', #252, .T. ) ;
#217 = DIRECTION ( 'NONE',  ( 1.000000000000000000, 0.000000000000000000, 0.000000000000000000 ) ) ;
#218 = FILL_AREA_STYLE_COLOUR ( '', #221 ) ;
#219 = EDGE_LOOP ( 'NONE', ( #197, #205, #276, #56 ) ) ;
#220 = DIRECTION ( 'NONE',  ( -1.000000000000000000, 0.000000000000000000, 0.000000000000000000 ) ) ;
#221 = COLOUR_RGB ( '',0.7921568627450980005, 0.8196078431372548767, 0.9333333333333333481 ) ;
#222 = ORIENTED_EDGE ( 'NONE', *, *, #171, .F. ) ;
#223 = DIRECTION ( 'NONE',  ( 1.000000000000000000, 0.000000000000000000, 0.000000000000000000 ) ) ;
#224 = AXIS2_PLACEMENT_3D ( 'NONE', #49, #167, #6 ) ;
#225 = ORIENTED_EDGE ( 'NONE', *, *, #74, .F. ) ;
#226 = CARTESIAN_POINT ( 'NONE',  ( -14.51510671643000094, -14.07618464143231840, 24.75000000000000000 ) ) ;
#227 = CARTESIAN_POINT ( 'NONE',  ( -5.015106716429999167, 2.378298030472000058, 81.24747468305838538 ) ) ;
#228 = VERTEX_POINT ( 'NONE', #277 ) ;
#229 = LINE ( 'NONE', #60, #255 ) ;
#230 = CIRCLE ( 'NONE', #142, 28.00000000000000000 ) ;
#231 = DIRECTION ( 'NONE',  ( 0.000000000000000000, 0.000000000000000000, -1.000000000000000000 ) ) ;
#232 = APPLICATION_CONTEXT ( 'automotive_design' ) ;
#233 = CARTESIAN_POINT ( 'NONE',  ( -5.015106716429999167, 2.378298030472000058, 81.24747468305838538 ) ) ;
#234 = EDGE_LOOP ( 'NONE', ( #274, #14, #222, #54 ) ) ;
#235 = EDGE_CURVE ( 'NONE', #35, #185, #53, .T. ) ;
#236 = CARTESIAN_POINT ( 'NONE',  ( 12.48489328356999906, 2.378298030472000058, 81.24747468305838538 ) ) ;
#237 = CARTESIAN_POINT ( 'NONE',  ( -33.01510671643000450, 2.378298030471994728, -107.9459594928933939 ) ) ;
#238 = AXIS2_PLACEMENT_3D ( 'NONE', #97, #10, #83 ) ;
#239 = DIRECTION ( 'NONE',  ( 0.000000000000000000, -1.000000000000000000, 0.000000000000000000 ) ) ;
#240 = CARTESIAN_POINT ( 'NONE',  ( -5.015106716429999167, 2.378298030472000058, 24.75000000000000000 ) ) ;
#241 = DIRECTION ( 'NONE',  ( 0.000000000000000000, 0.000000000000000000, 1.000000000000000000 ) ) ;
#242 = CIRCLE ( 'NONE', #195, 28.00000000000000000 ) ;
#243 = ADVANCED_FACE ( 'NONE', ( #273 ), #245, .F. ) ;
#244 = EDGE_CURVE ( 'NONE', #170, #187, #242, .T. ) ;
#245 = CYLINDRICAL_SURFACE ( 'NONE', #224, 19.00000000000000711 ) ;
#246 = EDGE_LOOP ( 'NONE', ( #70, #146 ) ) ;
#247 = FACE_OUTER_BOUND ( 'NONE', #122, .T. ) ;
#248 = AXIS2_PLACEMENT_3D ( 'NONE', #133, #283, #239 ) ;
#249 = VERTEX_POINT ( 'NONE', #188 ) ;
#250 = VERTEX_POINT ( 'NONE', #269 ) ;
#251 = DIRECTION ( 'NONE',  ( -1.000000000000000000, 0.000000000000000000, 0.000000000000000000 ) ) ;
#252 = EDGE_LOOP ( 'NONE', ( #119, #9 ) ) ;
#253 = CARTESIAN_POINT ( 'NONE',  ( -33.01510671643000450, 2.378298030471994728, 26.75000000000000000 ) ) ;
#254 = DIRECTION ( 'NONE',  ( 0.4999999999999998335, 0.8660254037844387076, 0.000000000000000000 ) ) ;
#255 = VECTOR ( 'NONE', #231, 1000.000000000000000 ) ;
#256 = DIRECTION ( 'NONE',  ( 1.000000000000000000, 0.000000000000000000, 0.000000000000000000 ) ) ;
#257 = ADVANCED_FACE ( 'NONE', ( #247 ), #51, .F. ) ;
#258 = CARTESIAN_POINT ( 'NONE',  ( -5.015106716429999167, 2.378298030472000058, 24.75000000000000000 ) ) ;
#259 = SURFACE_SIDE_STYLE ('',( #88 ) ) ;
#260 = AXIS2_PLACEMENT_3D ( 'NONE', #281, #140, #108 ) ;
#261 = EDGE_CURVE ( 'NONE', #185, #35, #178, .T. ) ;
#262 = PRODUCT_DEFINITION_FORMATION_WITH_SPECIFIED_SOURCE ( 'Symmetric', '', #149, .NOT_KNOWN. ) ;
#263 = CARTESIAN_POINT ( 'NONE',  ( -5.015106716429999167, 2.378298030472000058, 31.75000000000000000 ) ) ;
#264 = SHAPE_DEFINITION_REPRESENTATION ( #65, #204 ) ;
#265 = AXIS2_PLACEMENT_3D ( 'NONE', #78, #81, #251 ) ;
#266 = EDGE_CURVE ( 'NONE', #75, #170, #57, .T. ) ;
#267 = AXIS2_PLACEMENT_3D ( 'NONE', #125, #193, #210 ) ;
#268 = ORIENTED_EDGE ( 'NONE', *, *, #144, .F. ) ;
#269 = CARTESIAN_POINT ( 'NONE',  ( -22.51510671642999739, 2.378298030472000058, 24.75000000000000000 ) ) ;
#270 = PLANE ( 'NONE',  #267 ) ;
#271 = AXIS2_PLACEMENT_3D ( 'NONE', #240, #43, #38 ) ;
#272 = ORIENTED_EDGE ( 'NONE', *, *, #198, .F. ) ;
#273 = FACE_OUTER_BOUND ( 'NONE', #234, .T. ) ;
#274 = ORIENTED_EDGE ( 'NONE', *, *, #144, .T. ) ;
#275 = DIRECTION ( 'NONE',  ( 0.000000000000000000, 0.000000000000000000, 1.000000000000000000 ) ) ;
#276 = ORIENTED_EDGE ( 'NONE', *, *, #183, .F. ) ;
#277 = CARTESIAN_POINT ( 'NONE',  ( 4.484893283569999944, 18.83278070237634694, 24.75000000000000000 ) ) ;
#278 = ADVANCED_FACE ( 'NONE', ( #134, #201 ), #180, .T. ) ;
#279 = DIRECTION ( 'NONE',  ( 0.000000000000000000, 0.000000000000000000, 1.000000000000000000 ) ) ;
#280 = VECTOR ( 'NONE', #214, 1000.000000000000000 ) ;
#281 = CARTESIAN_POINT ( 'NONE',  ( 0.000000000000000000, 0.000000000000000000, 0.000000000000000000 ) ) ;
#282 = CARTESIAN_POINT ( 'NONE',  ( -14.51510671643000094, -14.07618464143231840, 26.75000000000000000 ) ) ;
#283 = DIRECTION ( 'NONE',  ( 0.000000000000000000, 0.000000000000000000, -1.000000000000000000 ) ) ;
#284 = CARTESIAN_POINT ( 'NONE',  ( -5.015106716429999167, 2.378298030472000058, 26.75000000000000000 ) ) ;
#285 = APPLICATION_PROTOCOL_DEFINITION ( 'draft international standard', 'automotive_design', 1998, #232 ) ;
ENDSEC;
END-ISO-10303-21;
