ISO-10303-21;
HEADER;
FILE_DESCRIPTION (( 'STEP AP214' ),
    '1' );
FILE_NAME ('ASV1_400_17X.STEP.STEP',
    '2026-08-01T02:08:56',
    ( '' ),
    ( '' ),
    'SwSTEP 2.0',
    'SolidWorks 2025',
    '' );
FILE_SCHEMA (( 'AUTOMOTIVE_DESIGN' ));
ENDSEC;

DATA;
#1 = AXIS2_PLACEMENT_3D ( 'NONE', #526, #235, #152 ) ;
#2 = EDGE_CURVE ( 'NONE', #220, #172, #907, .T. ) ;
#3 = CARTESIAN_POINT ( 'NONE',  ( -16.84796002115103875, 22.31053541617530200, -8.164742886229561236 ) ) ;
#4 = CYLINDRICAL_SURFACE ( 'NONE', #734, 16.50000000000000000 ) ;
#5 = CARTESIAN_POINT ( 'NONE',  ( 16.43336328472837593, 23.01053541617529774, -1.833249492961091631 ) ) ;
#6 = CARTESIAN_POINT ( 'NONE',  ( 0.000000000000000000, 28.31053541617534819, 2.817238665454835388E-18 ) ) ;
#7 = CARTESIAN_POINT ( 'NONE',  ( -18.65562629829171826, 22.31053541617529845, 1.574479144271853981 ) ) ;
#8 = CARTESIAN_POINT ( 'NONE',  ( 18.31903276747902964, 22.31053541617529845, 3.863213121410939532 ) ) ;
#9 = EDGE_LOOP ( 'NONE', ( #701, #208, #346, #44 ) ) ;
#10 = CARTESIAN_POINT ( 'NONE',  ( 11.89706573307433857, 23.01053541617530129, -11.43283984593980129 ) ) ;
#11 = CARTESIAN_POINT ( 'NONE',  ( 8.707716558054389822, 22.31053541617530200, -14.40918800223382057 ) ) ;
#12 = CARTESIAN_POINT ( 'NONE',  ( 13.15186982642646996, 22.31053541617530911, 13.32440232153691184 ) ) ;
#13 = CARTESIAN_POINT ( 'NONE',  ( -11.89706573307432080, 23.01053541617530129, 11.43283984593980129 ) ) ;
#14 = CARTESIAN_POINT ( 'NONE',  ( 11.89706573307433857, 22.61053541617534890, -11.43283984593980129 ) ) ;
#15 = CIRCLE ( 'NONE', #800, 18.69999920762550261 ) ;
#16 = CARTESIAN_POINT ( 'NONE',  ( 14.82951602077361564, 28.31053541617534464, 7.314866494520086526 ) ) ;
#17 = PLANE ( 'NONE',  #1 ) ;
#18 = CARTESIAN_POINT ( 'NONE',  ( 11.89706573307440074, 22.87720208284194712, -11.43283984593971958 ) ) ;
#19 = CARTESIAN_POINT ( 'NONE',  ( 15.65850855209888515, 28.31053541617535174, 5.313686773527834362 ) ) ;
#20 = B_SPLINE_CURVE_WITH_KNOTS ( 'NONE', 3,
 ( #899, #258, #519, #374 ),
 .UNSPECIFIED., .F., .F.,
 ( 4, 4 ),
 ( 0.000000000000000000, 1.000000000000000000 ),
 .UNSPECIFIED. ) ;
#21 = CARTESIAN_POINT ( 'NONE',  ( 3.959557172332976549, 23.01053541617530840, 16.05422497507517221 ) ) ;
#22 = CARTESIAN_POINT ( 'NONE',  ( 0.7377887174063350040, 23.31053541617529845, 16.21788757621595067 ) ) ;
#23 = CARTESIAN_POINT ( 'NONE',  ( 8.266369853577915094, 28.31053541617535174, 14.32092687946363796 ) ) ;
#24 = CARTESIAN_POINT ( 'NONE',  ( -13.31691293544926502, 22.61053541617534535, 9.801839746749820392 ) ) ;
#25 = CARTESIAN_POINT ( 'NONE',  ( -16.64465273586960237, 22.31053541617530200, -2.530723580607340484 ) ) ;
#26 = ADVANCED_FACE ( 'NONE', ( #851, #644 ), #486, .T. ) ;
#27 = CARTESIAN_POINT ( 'NONE',  ( 1.347111479062089982E-15, 28.31053541617534819, 16.50000000000000000 ) ) ;
#28 = TOROIDAL_SURFACE ( 'NONE', #516, 16.80000000000000071, 0.2999999999999999889 ) ;
#29 = CARTESIAN_POINT ( 'NONE',  ( -15.88400219743089181, 22.61053541617534535, -4.595074182568847476 ) ) ;
#30 = ORIENTED_EDGE ( 'NONE', *, *, #416, .F. ) ;
#31 = CARTESIAN_POINT ( 'NONE',  ( -1.382366634895090041, 23.31053541617529845, 16.17570005016909818 ) ) ;
#32 = CARTESIAN_POINT ( 'NONE',  ( 2.156584000846428317, 28.31053541617535174, -16.39431904221777003 ) ) ;
#33 = CARTESIAN_POINT ( 'NONE',  ( -15.54841231673102975, 22.61053541617534535, -5.626998043382188897 ) ) ;
#34 = ORIENTED_EDGE ( 'NONE', *, *, #635, .T. ) ;
#35 = CARTESIAN_POINT ( 'NONE',  ( -5.524688988048000127, 23.31053541617529845, 15.26571391097230013 ) ) ;
#36 = CARTESIAN_POINT ( 'NONE',  ( 12.43352826781780074, 22.31053541617530200, 11.35149335340990184 ) ) ;
#37 = CARTESIAN_POINT ( 'NONE',  ( 4.595074182568932741, 22.61053541617534535, -15.88400219743088115 ) ) ;
#38 = ADVANCED_BREP_SHAPE_REPRESENTATION ( 'ASV1_400_17X.STEP', ( #396, #316 ), #721 ) ;
#39 = VERTEX_POINT ( 'NONE', #216 ) ;
#40 = CARTESIAN_POINT ( 'NONE',  ( -11.89706573307433857, 22.87720208284194712, 11.43283984593976044 ) ) ;
#41 = CARTESIAN_POINT ( 'NONE',  ( -16.51821882762733296, 23.01053541617530485, 0.7514514714324153077 ) ) ;
#42 = AXIS2_PLACEMENT_3D ( 'NONE', #685, #675, #120 ) ;
#43 = CARTESIAN_POINT ( 'NONE',  ( -14.15188107362252801, 22.61053541617534535, -8.552221619517627715 ) ) ;
#44 = ORIENTED_EDGE ( 'NONE', *, *, #761, .F. ) ;
#45 = CARTESIAN_POINT ( 'NONE',  ( 16.34742679415766631, 22.61053541617535245, 2.485532088096435999 ) ) ;
#46 = CARTESIAN_POINT ( 'NONE',  ( 12.87525868485058034, 22.31053541617530200, -10.84789105482320082 ) ) ;
#47 = CARTESIAN_POINT ( 'NONE',  ( -16.05020085244570183, 23.31053541617529845, -2.440340595585649641 ) ) ;
#48 = CARTESIAN_POINT ( 'NONE',  ( 2.595055269651534609E-09, 22.31053541617530200, -18.70000967101779921 ) ) ;
#49 = ORIENTED_EDGE ( 'NONE', *, *, #261, .F. ) ;
#50 = CARTESIAN_POINT ( 'NONE',  ( 10.65417871455853849, 22.61053541617534535, 12.64534335119250841 ) ) ;
#51 = EDGE_CURVE ( 'NONE', #825, #758, #429, .T. ) ;
#52 = CARTESIAN_POINT ( 'NONE',  ( -14.48089378073506062, 23.01053541617530129, 7.982477551635777324 ) ) ;
#53 = CARTESIAN_POINT ( 'NONE',  ( -15.97227470331720056, 23.31053541617534819, 4.278162380400496012 ) ) ;
#54 = CARTESIAN_POINT ( 'NONE',  ( -2.156748462981689318, 28.31053541617535174, -16.39421401930383482 ) ) ;
#55 = CARTESIAN_POINT ( 'NONE',  ( -13.07478724571386053, 23.31053541617529845, 9.623624478627018419 ) ) ;
#56 = CARTESIAN_POINT ( 'NONE',  ( -15.54841231673102975, 23.01053541617530485, -5.626998043382188897 ) ) ;
#57 = CARTESIAN_POINT ( 'NONE',  ( -1.799917683998089935, 23.31053541617529845, -16.13457486136969976 ) ) ;
#58 = CARTESIAN_POINT ( 'NONE',  ( -8.266369853545066704, 28.31053541617535174, -14.32092687949131893 ) ) ;
#59 = CARTESIAN_POINT ( 'NONE',  ( -14.70103487349770077, 23.31053541617529845, 6.887944778706920346 ) ) ;
#60 = CARTESIAN_POINT ( 'NONE',  ( -17.85547983302163644, 22.31053541617530200, -5.629500145080293727 ) ) ;
#61 = CARTESIAN_POINT ( 'NONE',  ( 7.467312656513000135, 23.31053541617529845, -14.41538939176435896 ) ) ;
#62 = ORIENTED_EDGE ( 'NONE', *, *, #661, .T. ) ;
#63 = CARTESIAN_POINT ( 'NONE',  ( -10.06740844177419625, 28.31053541617535174, 13.11751136876429769 ) ) ;
#64 = CARTESIAN_POINT ( 'NONE',  ( 5.316558362976025798, 23.31053541617535174, 15.65728072573172724 ) ) ;
#65 = CARTESIAN_POINT ( 'NONE',  ( -1.817463249378204138, 22.31053541617530200, -18.63347424038974864 ) ) ;
#66 = CARTESIAN_POINT ( 'NONE',  ( 18.65562629830588648, 22.31053541617530200, -1.574479144221225146 ) ) ;
#67 = ORIENTED_EDGE ( 'NONE', *, *, #542, .T. ) ;
#68 = ADVANCED_FACE ( 'NONE', ( #507 ), #360, .T. ) ;
#69 = CARTESIAN_POINT ( 'NONE',  ( 11.79366653049294200, 23.27820348725825284, -11.33347530094732925 ) ) ;
#70 = CARTESIAN_POINT ( 'NONE',  ( 13.11927582209565557, 23.31053541617534819, -10.06483156615534291 ) ) ;
#71 = LINE ( 'NONE', #709, #274 ) ;
#72 = CARTESIAN_POINT ( 'NONE',  ( 18.48526702850481129, 22.31053541617530200, 2.968448442814547228 ) ) ;
#73 = ORIENTED_EDGE ( 'NONE', *, *, #268, .F. ) ;
#74 = CARTESIAN_POINT ( 'NONE',  ( -5.313686802612897608, 28.31053541617535174, 15.65850854004708914 ) ) ;
#75 = CARTESIAN_POINT ( 'NONE',  ( 5.316558362976055108, 23.31053541617534819, -15.65728072573172014 ) ) ;
#76 = STYLED_ITEM ( 'NONE', ( #100 ), #396 ) ;
#77 = CARTESIAN_POINT ( 'NONE',  ( 11.35149335340996046, 22.31053541617530200, -12.43352826781773857 ) ) ;
#78 = CARTESIAN_POINT ( 'NONE',  ( 17.56104855502730189, 22.31053541617530556, 6.490631904776523520 ) ) ;
#79 = B_SPLINE_CURVE_WITH_KNOTS ( 'NONE', 3,
 ( #461, #539, #402, #597, #171, #180, #37, #392, #601, #744, #118, #906, #111, #397, #681, #387, #673, #550, #667, #43, #544, #33, #29, #478, #616, #264, #823, #834, #677, #664, #319, #24, #190, #249 ),
 .UNSPECIFIED., .F., .F.,
 ( 4, 2, 2, 2, 2, 2, 2, 2, 2, 2, 2, 2, 2, 2, 2, 2, 4 ),
 ( 0.000000000000000000, 0.06250000000000000000, 0.1250000000000000000, 0.1875000000000000000, 0.2500000000000000000, 0.3125000000000000000, 0.3750000000000000000, 0.4375000000000000000, 0.5000000000000000000, 0.5625000000000000000, 0.6250000000000000000, 0.6875000000000000000, 0.7500000000000000000, 0.8125000000000000000, 0.8750000000000000000, 0.9375000000000000000, 1.000000000000000000 ),
 .UNSPECIFIED. ) ;
#80 = ORIENTED_EDGE ( 'NONE', *, *, #682, .T. ) ;
#81 = CARTESIAN_POINT ( 'NONE',  ( -8.758862982215461557, 22.31053541617530200, -16.54671255616548819 ) ) ;
#82 = EDGE_CURVE ( 'NONE', #418, #342, #439, .T. ) ;
#83 = CARTESIAN_POINT ( 'NONE',  ( 12.61098698376090432, 22.31053541617529845, -13.86499312131686423 ) ) ;
#84 = CARTESIAN_POINT ( 'NONE',  ( -11.79366653049287272, 23.27820348725824928, 11.33347530094737543 ) ) ;
#85 = DIRECTION ( 'NONE',  ( 0.000000000000000000, 0.000000000000000000, -1.000000000000000000 ) ) ;
#86 = CARTESIAN_POINT ( 'NONE',  ( -11.73738534748252782, 23.31053541617529845, 11.27939022096763644 ) ) ;
#87 = CARTESIAN_POINT ( 'NONE',  ( 3.887565223745049980, 23.31053541617529845, 15.76232997552834725 ) ) ;
#88 = AXIS2_PLACEMENT_3D ( 'NONE', #662, #233, #85 ) ;
#89 = CARTESIAN_POINT ( 'NONE',  ( 15.65844304174374813, 28.31053541617535529, -5.313659638273514396 ) ) ;
#90 = FACE_OUTER_BOUND ( 'NONE', #409, .T. ) ;
#91 = CARTESIAN_POINT ( 'NONE',  ( 14.41538939176439982, 23.31053541617529845, 7.467312656512940627 ) ) ;
#92 = CARTESIAN_POINT ( 'NONE',  ( 10.90140811125638720, 28.31053541617535174, 12.43306552845377588 ) ) ;
#93 = CARTESIAN_POINT ( 'NONE',  ( 16.34742679415766631, 23.01053541617530840, 2.485532088096435999 ) ) ;
#94 = ADVANCED_FACE ( 'NONE', ( #595 ), #17, .F. ) ;
#95 = CARTESIAN_POINT ( 'NONE',  ( -16.73215170808704855, 22.31053541617530200, 1.866581301923964986 ) ) ;
#96 = CARTESIAN_POINT ( 'NONE',  ( 12.43311566789969191, 28.31053541617534464, 10.90145825070222507 ) ) ;
#97 = DIRECTION ( 'NONE',  ( 0.000000000000000000, 0.000000000000000000, -1.000000000000000000 ) ) ;
#98 = ORIENTED_EDGE ( 'NONE', *, *, #903, .T. ) ;
#99 = CARTESIAN_POINT ( 'NONE',  ( 9.623624478627039736, 23.31053541617529845, 13.07478724571386053 ) ) ;
#100 = PRESENTATION_STYLE_ASSIGNMENT (( #528 ) ) ;
#101 = CIRCLE ( 'NONE', #42, 31.50000000000000000 ) ;
#102 = DIRECTION ( 'NONE',  ( 0.000000000000000000, -1.000000000000000000, 0.000000000000000000 ) ) ;
#103 = EDGE_LOOP ( 'NONE', ( #119, #485, #393, #30 ) ) ;
#104 = CARTESIAN_POINT ( 'NONE',  ( 14.15188107362255465, 22.61053541617534535, 8.552221619517620610 ) ) ;
#105 = B_SPLINE_CURVE_WITH_KNOTS ( 'NONE', 3,
 ( #459, #532, #742, #242, #817, #882, #732, #384, #304, #164, #173, #518, #447, #91, #665, #238, #158, #455, #99, #588, #389, #878, #87, #379, #22, #31, #255, #186, #35, #109, #410, #177, #472, #399 ),
 .UNSPECIFIED., .F., .F.,
 ( 4, 2, 2, 2, 2, 2, 2, 2, 2, 2, 2, 2, 2, 2, 2, 2, 4 ),
 ( 0.000000000000000000, 0.06250000000000000000, 0.1250000000000000000, 0.1875000000000000000, 0.2500000000000000000, 0.3125000000000000000, 0.3750000000000000000, 0.4375000000000000000, 0.5000000000000000000, 0.5625000000000000000, 0.6250000000000000000, 0.6875000000000000000, 0.7500000000000000000, 0.8125000000000000000, 0.8750000000000000000, 0.9375000000000000000, 1.000000000000000000 ),
 .UNSPECIFIED. ) ;
#106 = CARTESIAN_POINT ( 'NONE',  ( 9.980055014872499797, 22.31053541617530200, 13.55903862518474057 ) ) ;
#107 = B_SPLINE_CURVE_WITH_KNOTS ( 'NONE', 3,
 ( #408, #288, #931, #794, #801, #689, #341, #369, #219, #292, #438, #12, #648, #586, #726, #156, #912, #78, #270, #8, #72, #234, #555, #66, #357, #505, #789, #145, #434, #576, #363, #581, #317, #310 ),
 .UNSPECIFIED., .F., .F.,
 ( 4, 2, 2, 2, 2, 2, 2, 2, 2, 2, 2, 2, 2, 2, 2, 2, 4 ),
 ( 0.000000000000000000, 0.06249999999999991673, 0.1249999999999998335, 0.1874999999999997502, 0.2499999999999996669, 0.3124999999999996114, 0.3749999999999996114, 0.4374999999999995559, 0.4999999999999996669, 0.5624999999999996669, 0.6249999999999996669, 0.6874999999999997780, 0.7499999999999997780, 0.8124999999999997780, 0.8749999999999997780, 0.9374999999999998890, 1.000000000000000000 ),
 .UNSPECIFIED. ) ;
#108 = CARTESIAN_POINT ( 'NONE',  ( -2.079675745560659739E-30, 25.31053541617534819, 5.069299904597599897E-30 ) ) ;
#109 = CARTESIAN_POINT ( 'NONE',  ( -7.467312656512940627, 23.31053541617529845, 14.41538939176439982 ) ) ;
#110 = CARTESIAN_POINT ( 'NONE',  ( 1.407966017022814986, 23.01053541617530129, -16.47525005109814700 ) ) ;
#111 = CARTESIAN_POINT ( 'NONE',  ( -5.004014253028562287, 22.61053541617534535, -15.75995158326279011 ) ) ;
#112 = ORIENTED_EDGE ( 'NONE', *, *, #692, .F. ) ;
#113 = CARTESIAN_POINT ( 'NONE',  ( 12.64534335119253683, 22.61053541617534535, -10.65417871455850829 ) ) ;
#114 = CARTESIAN_POINT ( 'NONE',  ( 1.866581301924000069, 22.31053541617530200, 16.73215170808704855 ) ) ;
#115 = TOROIDAL_SURFACE ( 'NONE', #454, 16.80000000000000071, 0.2999999999999999889 ) ;
#116 = B_SPLINE_CURVE_WITH_KNOTS ( 'NONE', 3,
 ( #708, #130, #714, #561, #64, #286, #798, #355, #637, #569, #847, #787, #857, #870, #641, #217, #205, #420, #502, #782, #143, #628, #290, #70, #361, #574, #645, #864, #228, #75, #222, #921, #792, #148 ),
 .UNSPECIFIED., .F., .F.,
 ( 4, 2, 2, 2, 2, 2, 2, 2, 2, 2, 2, 2, 2, 2, 2, 2, 4 ),
 ( 0.000000000000000000, 0.06250000000000000000, 0.1250000000000000000, 0.1875000000000000000, 0.2500000000000000000, 0.3125000000000000000, 0.3750000000000000000, 0.4375000000000000000, 0.5000000000000000000, 0.5625000000000000000, 0.6250000000000000000, 0.6875000000000000000, 0.7500000000000000000, 0.8125000000000000000, 0.8750000000000000000, 0.9375000000000000000, 1.000000000000000000 ),
 .UNSPECIFIED. ) ;
#117 = CARTESIAN_POINT ( 'NONE',  ( 10.13613329610388014, 23.31053541617529845, -12.68160129596914132 ) ) ;
#118 = CARTESIAN_POINT ( 'NONE',  ( -1.833249492961032789, 22.61053541617534535, -16.43336328472837238 ) ) ;
#119 = ORIENTED_EDGE ( 'NONE', *, *, #647, .T. ) ;
#120 = DIRECTION ( 'NONE',  ( 0.000000000000000000, 0.000000000000000000, 1.000000000000000000 ) ) ;
#121 = CARTESIAN_POINT ( 'NONE',  ( 12.11337601913023931, 22.31053541617530200, -11.64070966132049989 ) ) ;
#122 = CARTESIAN_POINT ( 'NONE',  ( -15.26571391097224861, 23.31053541617529845, -5.524688988048019667 ) ) ;
#123 = EDGE_LOOP ( 'NONE', ( #606, #908 ) ) ;
#124 = ORIENTED_EDGE ( 'NONE', *, *, #593, .F. ) ;
#125 = CARTESIAN_POINT ( 'NONE',  ( 5.004014253028639558, 22.61053541617534890, 15.75995158326277945 ) ) ;
#126 = ADVANCED_FACE ( 'NONE', ( #442 ), #520, .T. ) ;
#127 = CARTESIAN_POINT ( 'NONE',  ( -12.11337601913021800, 22.31053541617530200, 11.64070966132049989 ) ) ;
#128 = CARTESIAN_POINT ( 'NONE',  ( -4.913032175700729809, 23.31053541617529845, -15.47340700902164912 ) ) ;
#129 = CARTESIAN_POINT ( 'NONE',  ( 11.73738534748258289, 23.31053541617529845, -11.27939022096759913 ) ) ;
#130 = CARTESIAN_POINT ( 'NONE',  ( 1.079922474671457300, 23.31053541617534819, 16.50000000000000355 ) ) ;
#131 = CARTESIAN_POINT ( 'NONE',  ( -3.857637417314165055E-15, -142.2849190133295849, -31.50000000000000000 ) ) ;
#132 = CARTESIAN_POINT ( 'NONE',  ( -8.268986123491565365, 23.31053541617534819, 14.31922138388831733 ) ) ;
#133 = EDGE_LOOP ( 'NONE', ( #820, #862 ) ) ;
#134 = AXIS2_PLACEMENT_3D ( 'NONE', #336, #474, #253 ) ;
#135 = CARTESIAN_POINT ( 'NONE',  ( -12.43311566793754785, 28.31053541617535529, -10.90145825065927454 ) ) ;
#136 = FACE_OUTER_BOUND ( 'NONE', #622, .T. ) ;
#137 = CARTESIAN_POINT ( 'NONE',  ( -8.127613507119958669, 22.31053541617530200, -14.74418275856665872 ) ) ;
#138 = CARTESIAN_POINT ( 'NONE',  ( -4.972909810283716148, 22.31053541617529845, 18.07052298113919520 ) ) ;
#139 = ADVANCED_FACE ( 'NONE', ( #90 ), #919, .T. ) ;
#140 = CARTESIAN_POINT ( 'NONE',  ( -16.49999999999999645, 23.31053541617534819, -1.079922474671547672 ) ) ;
#141 = ORIENTED_EDGE ( 'NONE', *, *, #297, .T. ) ;
#142 = CARTESIAN_POINT ( 'NONE',  ( 11.89706573307439363, 23.08907523251505012, -11.43283984593973024 ) ) ;
#143 = CARTESIAN_POINT ( 'NONE',  ( 15.65728072573172369, 23.31053541617534819, -5.316558362976040009 ) ) ;
#144 = CARTESIAN_POINT ( 'NONE',  ( -15.47871126996218294, 22.31053541617530200, -10.53180560835488677 ) ) ;
#145 = CARTESIAN_POINT ( 'NONE',  ( 17.41243536956865512, 22.31053541617530200, -6.878842319615777967 ) ) ;
#146 = B_SPLINE_CURVE_WITH_KNOTS ( 'NONE', 3,
 ( #530, #757, #175, #314, #470, #891 ),
 .UNSPECIFIED., .F., .F.,
 ( 4, 2, 4 ),
 ( 0.000000000000000000, 0.5000000000000000000, 1.000000000000000000 ),
 .UNSPECIFIED. ) ;
#147 = CARTESIAN_POINT ( 'NONE',  ( -8.266409247872584132, 28.31053541617535174, 14.32098583721973917 ) ) ;
#148 = CARTESIAN_POINT ( 'NONE',  ( -6.735557395310439065E-16, 23.31053541617534819, -16.50000000000000000 ) ) ;
#149 = CARTESIAN_POINT ( 'NONE',  ( -17.05771370627238781, 22.31053541617529845, 7.716941513927364937 ) ) ;
#150 = CARTESIAN_POINT ( 'NONE',  ( -8.485814424451854521, 22.31053541617530200, 16.71119904545200185 ) ) ;
#151 = ORIENTED_EDGE ( 'NONE', *, *, #553, .F. ) ;
#152 = DIRECTION ( 'NONE',  ( 1.000000000000000000, 0.000000000000000000, 0.000000000000000000 ) ) ;
#153 = DIRECTION ( 'NONE',  ( -0.000000000000000000, 1.000000000000000000, 0.000000000000000000 ) ) ;
#154 = VECTOR ( 'NONE', #871, 1000.000000000000000 ) ;
#155 = CARTESIAN_POINT ( 'NONE',  ( -16.43115798685611750, 22.31053541617530911, -8.973763110757152717 ) ) ;
#156 = CARTESIAN_POINT ( 'NONE',  ( 16.43115798685332862, 22.31053541617530200, 8.973763110777523977 ) ) ;
#157 = CARTESIAN_POINT ( 'NONE',  ( -11.89706573307429416, 23.08907523251504657, 11.43283984593981195 ) ) ;
#158 = CARTESIAN_POINT ( 'NONE',  ( 11.98947368682429904, 23.31053541617529845, 10.94608287650240008 ) ) ;
#159 =( NAMED_UNIT ( * ) PLANE_ANGLE_UNIT ( ) SI_UNIT ( $, .RADIAN. ) );
#160 = CARTESIAN_POINT ( 'NONE',  ( 7.015499311646004266, 23.01053541617530129, 14.97327626004392975 ) ) ;
#161 = CARTESIAN_POINT ( 'NONE',  ( -16.81855007903875077, 22.31053541617530200, 0.7651142254583990221 ) ) ;
#162 = CARTESIAN_POINT ( 'NONE',  ( 1.083223615715037003, 28.31053541617534819, 16.50000000000000355 ) ) ;
#163 = CARTESIAN_POINT ( 'NONE',  ( -7.605596224226078839, 23.01053541617530129, 14.68234104716746025 ) ) ;
#164 = CARTESIAN_POINT ( 'NONE',  ( 16.17570005016909818, 23.31053541617529845, 1.382366634895086044 ) ) ;
#165 = CLOSED_SHELL ( 'NONE', ( #815, #126, #796, #94, #672, #625, #26, #776, #886, #318, #193, #211, #139, #195, #68, #385, #168 ) ) ;
#166 = CARTESIAN_POINT ( 'NONE',  ( 7.314866465476069557, 28.31053541617535174, -14.82951603281035169 ) ) ;
#167 = B_SPLINE_CURVE_WITH_KNOTS ( 'NONE', 3,
 ( #609, #83, #230, #643, #484, #296, #876, #861, #716, #48 ),
 .UNSPECIFIED., .F., .F.,
 ( 4, 2, 2, 2, 4 ),
 ( 0.000000000000000000, 0.2500000000000000000, 0.5000000000000000000, 0.7500000000000000000, 1.000000000000000000 ),
 .UNSPECIFIED. ) ;
#168 = ADVANCED_FACE ( 'NONE', ( #227 ), #28, .F. ) ;
#169 = CARTESIAN_POINT ( 'NONE',  ( -1.407966017022713956, 23.01053541617530129, 16.47525005109816121 ) ) ;
#170 = CARTESIAN_POINT ( 'NONE',  ( -16.04649615750394887, 22.31053541617530200, 5.094996330356359238 ) ) ;
#171 = CARTESIAN_POINT ( 'NONE',  ( 7.605596224226182756, 22.61053541617534535, -14.68234104716741406 ) ) ;
#172 = VERTEX_POINT ( 'NONE', #10 ) ;
#173 = CARTESIAN_POINT ( 'NONE',  ( 16.05020085244570183, 23.31053541617529845, 2.440340595585619887 ) ) ;
#174 = CARTESIAN_POINT ( 'NONE',  ( 12.43306552851560021, 28.31053541617535529, -10.90140811120487463 ) ) ;
#175 = CARTESIAN_POINT ( 'NONE',  ( -12.00046493565576888, 22.34286734509236894, 11.53220439093216854 ) ) ;
#176 = EDGE_LOOP ( 'NONE', ( #577, #414 ) ) ;
#177 = CARTESIAN_POINT ( 'NONE',  ( -10.13613329610381975, 23.31053541617529845, 12.68160129596915908 ) ) ;
#178 = EDGE_CURVE ( 'NONE', #191, #172, #809, .T. ) ;
#179 = CARTESIAN_POINT ( 'NONE',  ( -11.89706573307432080, 23.01053541617530129, 11.43283984593980129 ) ) ;
#180 = CARTESIAN_POINT ( 'NONE',  ( 5.626998043382257286, 22.61053541617534179, -15.54841231673102087 ) ) ;
#181 = ORIENTED_EDGE ( 'NONE', *, *, #845, .F. ) ;
#182 = CARTESIAN_POINT ( 'NONE',  ( 13.31691293544930588, 22.61053541617534890, -9.801839746749775983 ) ) ;
#183 = CARTESIAN_POINT ( 'NONE',  ( 16.34611997462199895, 22.31053541617530200, -4.031549120920795204 ) ) ;
#184 = CARTESIAN_POINT ( 'NONE',  ( 11.68075544701843960, 23.31053541617529845, -11.22497003055906006 ) ) ;
#185 = ORIENTED_EDGE ( 'NONE', *, *, #268, .T. ) ;
#186 = CARTESIAN_POINT ( 'NONE',  ( -4.511527379249449687, 23.31053541617529845, 15.59520215747759941 ) ) ;
#187 = CARTESIAN_POINT ( 'NONE',  ( -12.21150097732103745, 23.01053541617530485, -11.14878811495615096 ) ) ;
#188 = EDGE_CURVE ( 'NONE', #191, #850, #656, .T. ) ;
#189 = CARTESIAN_POINT ( 'NONE',  ( 1.347111479062089982E-15, 23.31053541617534819, 16.50000000000000000 ) ) ;
#190 = CARTESIAN_POINT ( 'NONE',  ( -12.64534335119248176, 22.61053541617534535, 10.65417871455854915 ) ) ;
#191 = VERTEX_POINT ( 'NONE', #13 ) ;
#192 = CARTESIAN_POINT ( 'NONE',  ( -10.32383946825384058, 22.61053541617534179, 12.91644576441308345 ) ) ;
#193 = ADVANCED_FACE ( 'NONE', ( #378, #237 ), #465, .F. ) ;
#194 = CARTESIAN_POINT ( 'NONE',  ( -1.433565399150465991, 22.31053541617530200, 16.77480005202720292 ) ) ;
#195 = ADVANCED_FACE ( 'NONE', ( #748 ), #895, .T. ) ;
#196 = CARTESIAN_POINT ( 'NONE',  ( -13.89457414501118038, 23.31053541617529845, -8.396726680980998836 ) ) ;
#197 = DIRECTION ( 'NONE',  ( 0.000000000000000000, 0.000000000000000000, 1.000000000000000000 ) ) ;
#198 = ORIENTED_EDGE ( 'NONE', *, *, #916, .T. ) ;
#199 = DIRECTION ( 'NONE',  ( 0.000000000000000000, -1.000000000000000000, 0.000000000000000000 ) ) ;
#200 = CARTESIAN_POINT ( 'NONE',  ( 7.015499311646004266, 22.61053541617534179, 14.97327626004392975 ) ) ;
#201 = CARTESIAN_POINT ( 'NONE',  ( -15.75995158326276524, 23.01053541617530129, 5.004014253028628012 ) ) ;
#202 = CARTESIAN_POINT ( 'NONE',  ( -12.11337601913021800, 22.31053541617530200, 11.64070966132049989 ) ) ;
#203 = ORIENTED_EDGE ( 'NONE', *, *, #529, .T. ) ;
#204 = CARTESIAN_POINT ( 'NONE',  ( -16.39428356471139381, 28.31053541617535529, -2.156762296343381013 ) ) ;
#205 = CARTESIAN_POINT ( 'NONE',  ( 16.50000000000000000, 23.31053541617534819, 1.079922474671509702 ) ) ;
#206 = CARTESIAN_POINT ( 'NONE',  ( -11.79118384372196893, 22.31053541617530200, -14.54226308090210473 ) ) ;
#207 = CARTESIAN_POINT ( 'NONE',  ( 10.94608287650246048, 23.31053541617529845, -11.98947368682425996 ) ) ;
#208 = ORIENTED_EDGE ( 'NONE', *, *, #647, .F. ) ;
#209 = CARTESIAN_POINT ( 'NONE',  ( -14.32098583722777363, 28.31053541617535529, -8.266409247857209763 ) ) ;
#210 = CARTESIAN_POINT ( 'NONE',  ( -2.079675745560659739E-30, 114.4059898456803950, 5.069299904597599897E-30 ) ) ;
#211 = ADVANCED_FACE ( 'NONE', ( #763 ), #749, .T. ) ;
#212 = CARTESIAN_POINT ( 'NONE',  ( -0.7651142254583559454, 22.31053541617530200, -16.81855007903875077 ) ) ;
#213 = CARTESIAN_POINT ( 'NONE',  ( -11.98947368682425996, 23.31053541617529845, -10.94608287650243916 ) ) ;
#214 = ORIENTED_EDGE ( 'NONE', *, *, #239, .F. ) ;
#215 = AXIS2_PLACEMENT_3D ( 'NONE', #307, #812, #805 ) ;
#216 = CARTESIAN_POINT ( 'NONE',  ( -2.079675745560659739E-30, 25.31053541617534819, -18.69999920762550261 ) ) ;
#217 = CARTESIAN_POINT ( 'NONE',  ( 16.39363954998941963, 23.31053541617534819, 2.159818246131706587 ) ) ;
#218 = CARTESIAN_POINT ( 'NONE',  ( -5.094996330356319270, 22.31053541617530200, -16.04649615750394887 ) ) ;
#219 = CARTESIAN_POINT ( 'NONE',  ( 9.552684863209401911, 22.31053541617530556, 16.10164572884306011 ) ) ;
#220 = VERTEX_POINT ( 'NONE', #184 ) ;
#221 = DIRECTION ( 'NONE',  ( 0.7210342868529902027, 0.000000000000000000, -0.6928993846024111836 ) ) ;
#222 = CARTESIAN_POINT ( 'NONE',  ( 4.278162380400547526, 23.31053541617534819, -15.97227470331718813 ) ) ;
#223 = CARTESIAN_POINT ( 'NONE',  ( -13.15129023285687992, 22.31053541617530200, -10.51154564040399997 ) ) ;
#224 = CARTESIAN_POINT ( 'NONE',  ( 1.347111479062089982E-15, 28.31053541617534819, 16.50000000000000000 ) ) ;
#225 = EDGE_CURVE ( 'NONE', #39, #602, #824, .T. ) ;
#226 = EDGE_LOOP ( 'NONE', ( #67, #892, #181, #844 ) ) ;
#227 = FACE_OUTER_BOUND ( 'NONE', #713, .T. ) ;
#228 = CARTESIAN_POINT ( 'NONE',  ( 7.311994905071915518, 23.31053541617534819, -14.83074384714073979 ) ) ;
#229 = CARTESIAN_POINT ( 'NONE',  ( -2.079675745560659739E-30, 114.4059898456803950, -18.69999920762550261 ) ) ;
#230 = CARTESIAN_POINT ( 'NONE',  ( 11.65610028373215279, 22.31053541617530200, -14.67680299794011844 ) ) ;
#231 = CARTESIAN_POINT ( 'NONE',  ( 14.68234104716745669, 23.01053541617530485, 7.605596224226116142 ) ) ;
#232 = AXIS2_PLACEMENT_3D ( 'NONE', #245, #534, #329 ) ;
#233 = DIRECTION ( 'NONE',  ( 0.000000000000000000, -1.000000000000000000, 0.000000000000000000 ) ) ;
#234 = CARTESIAN_POINT ( 'NONE',  ( 18.68617980219928398, 22.31053541617530556, 1.159919512312020728 ) ) ;
#235 = DIRECTION ( 'NONE',  ( -0.000000000000000000, 1.000000000000000000, 0.000000000000000000 ) ) ;
#236 = DIRECTION ( 'NONE',  ( 0.000000000000000000, -1.000000000000000000, 0.000000000000000000 ) ) ;
#237 = FACE_OUTER_BOUND ( 'NONE', #176, .T. ) ;
#238 = CARTESIAN_POINT ( 'NONE',  ( 12.68160129596918040, 23.31053541617529845, 10.13613329610381975 ) ) ;
#239 = EDGE_CURVE ( 'NONE', #918, #500, #146, .T. ) ;
#240 = CARTESIAN_POINT ( 'NONE',  ( 4.281232163582536998, 28.31053541617535529, 15.97170023399453775 ) ) ;
#241 = CARTESIAN_POINT ( 'NONE',  ( -5.626998043382151593, 23.01053541617531550, 15.54841231673105817 ) ) ;
#242 = CARTESIAN_POINT ( 'NONE',  ( 14.21760480290354067, 23.31053541617529845, -7.837341596151440548 ) ) ;
#243 = CIRCLE ( 'NONE', #858, 31.50000000000000000 ) ;
#244 = CARTESIAN_POINT ( 'NONE',  ( 10.32383946825395427, 23.01053541617530129, -12.91644576441301062 ) ) ;
#245 = CARTESIAN_POINT ( 'NONE',  ( 0.000000000000000000, 23.31053541617534819, 2.817238665454835388E-18 ) ) ;
#246 = DIRECTION ( 'NONE',  ( 0.000000000000000000, 0.000000000000000000, -1.000000000000000000 ) ) ;
#247 = B_SPLINE_CURVE_WITH_KNOTS ( 'NONE', 3,
 ( #127, #760, #273, #417, #558, #842, #698, #922, #194, #278, #114, #904, #752, #608, #405, #106, #395, #36, #267, #481, #262, #898, #328, #256, #543, #837, #828, #183, #547, #473, #832, #686, #46, #121 ),
 .UNSPECIFIED., .F., .F.,
 ( 4, 2, 2, 2, 2, 2, 2, 2, 2, 2, 2, 2, 2, 2, 2, 2, 4 ),
 ( 0.000000000000000000, 0.06250000000000000000, 0.1250000000000000000, 0.1875000000000000000, 0.2500000000000000000, 0.3125000000000000000, 0.3750000000000000000, 0.4375000000000000000, 0.5000000000000000000, 0.5625000000000000000, 0.6250000000000000000, 0.6875000000000000000, 0.7500000000000000000, 0.8125000000000000000, 0.8750000000000000000, 0.9375000000000000000, 1.000000000000000000 ),
 .UNSPECIFIED. ) ;
#248 = EDGE_CURVE ( 'NONE', #825, #500, #79, .T. ) ;
#249 = CARTESIAN_POINT ( 'NONE',  ( -11.89706573307432080, 22.61053541617534890, 11.43283984593980129 ) ) ;
#250 = ORIENTED_EDGE ( 'NONE', *, *, #401, .F. ) ;
#251 = CARTESIAN_POINT ( 'NONE',  ( 14.97327626004395285, 22.61053541617534535, -7.015499311645964298 ) ) ;
#252 = DIRECTION ( 'NONE',  ( 0.7210342868529900917, 0.000000000000000000, -0.6928993846024111836 ) ) ;
#253 = DIRECTION ( 'NONE',  ( 0.7210342868529902027, 0.000000000000000000, -0.6928993846024111836 ) ) ;
#254 = ORIENTED_EDGE ( 'NONE', *, *, #239, .T. ) ;
#255 = CARTESIAN_POINT ( 'NONE',  ( -2.440340595585624772, 23.31053541617529845, 16.05020085244570183 ) ) ;
#256 = CARTESIAN_POINT ( 'NONE',  ( 16.64465273586960237, 22.31053541617530200, 2.530723580607310286 ) ) ;
#257 = PRESENTATION_LAYER_ASSIGNMENT (  '', '', ( #76 ) ) ;
#258 = CARTESIAN_POINT ( 'NONE',  ( 0.000000000000000000, 24.97720208284200183, -16.50000000000000000 ) ) ;
#259 = ORIENTED_EDGE ( 'NONE', *, *, #308, .F. ) ;
#260 = CARTESIAN_POINT ( 'NONE',  ( 16.51821882762735427, 22.61053541617534535, -0.7514514714324058708 ) ) ;
#261 = EDGE_CURVE ( 'NONE', #602, #39, #15, .T. ) ;
#262 = CARTESIAN_POINT ( 'NONE',  ( 14.94929270257049936, 22.31053541617530200, 7.743879791939349388 ) ) ;
#263 = CARTESIAN_POINT ( 'NONE',  ( -12.43088239457403787, 23.31053541617534819, 10.90364138458203414 ) ) ;
#264 = CARTESIAN_POINT ( 'NONE',  ( -16.51821882762733296, 22.61053541617534535, 0.7514514714324153077 ) ) ;
#265 = ORIENTED_EDGE ( 'NONE', *, *, #457, .T. ) ;
#266 = DIRECTION ( 'NONE',  ( 0.000000000000000000, 0.000000000000000000, -1.000000000000000000 ) ) ;
#267 = CARTESIAN_POINT ( 'NONE',  ( 13.15129023285691900, 22.31053541617530200, 10.51154564040398043 ) ) ;
#268 = EDGE_CURVE ( 'NONE', #678, #418, #20, .T. ) ;
#269 = CARTESIAN_POINT ( 'NONE',  ( -15.65728072573169882, 23.31053541617534819, -5.316558362976109287 ) ) ;
#270 = CARTESIAN_POINT ( 'NONE',  ( 17.85547983304336839, 22.31053541617530200, 5.629500144978460519 ) ) ;
#271 = CARTESIAN_POINT ( 'NONE',  ( 11.87375330376509908, 23.16713141380428809, -11.41043707229009208 ) ) ;
#272 = CARTESIAN_POINT ( 'NONE',  ( 14.68234104716745669, 22.61053541617534890, 7.605596224226116142 ) ) ;
#273 = CARTESIAN_POINT ( 'NONE',  ( -10.51154564040395911, 22.31053541617530200, 13.15129023285689946 ) ) ;
#274 = VECTOR ( 'NONE', #562, 1000.000000000000000 ) ;
#275 = CARTESIAN_POINT ( 'NONE',  ( -14.31922138388831733, 23.31053541617534819, -8.268986123491572471 ) ) ;
#276 = CARTESIAN_POINT ( 'NONE',  ( -5.313659638250925354, 28.31053541617535174, -15.65844304175599255 ) ) ;
#277 = CARTESIAN_POINT ( 'NONE',  ( -6.045057302900459562E-31, -142.2849190133295849, 31.50000000000000000 ) ) ;
#278 = CARTESIAN_POINT ( 'NONE',  ( 0.7651142254584220037, 22.31053541617530200, 16.81855007903875077 ) ) ;
#279 = EDGE_CURVE ( 'NONE', #779, #669, #167, .T. ) ;
#280 = CARTESIAN_POINT ( 'NONE',  ( 12.05674611866614221, 22.31053541617530556, -11.58628947091189687 ) ) ;
#281 = CARTESIAN_POINT ( 'NONE',  ( -16.21788757621595067, 23.31053541617529845, 0.7377887174063140208 ) ) ;
#282 = CARTESIAN_POINT ( 'NONE',  ( 4.678620985888380268, 22.31053541617530200, -16.17280223738415046 ) ) ;
#283 = CARTESIAN_POINT ( 'NONE',  ( -6.887944778706880378, 23.31053541617529845, -14.70103487349770077 ) ) ;
#284 = VERTEX_POINT ( 'NONE', #872 ) ;
#285 = CARTESIAN_POINT ( 'NONE',  ( -2.156584000881047736, 28.31053541617535529, 16.39431904221777003 ) ) ;
#286 = CARTESIAN_POINT ( 'NONE',  ( 7.311994905071887096, 23.31053541617534819, 14.83074384714075578 ) ) ;
#287 = LINE ( 'NONE', #131, #468 ) ;
#288 = CARTESIAN_POINT ( 'NONE',  ( 0.9100071916996554933, 22.31053541617529490, 18.70000444045869159 ) ) ;
#289 = CARTESIAN_POINT ( 'NONE',  ( -6.735557395310439065E-16, 28.31053541617534819, -16.50000000000000000 ) ) ;
#290 = CARTESIAN_POINT ( 'NONE',  ( 14.31922138388835108, 23.31053541617534819, -8.268986123491517404 ) ) ;
#291 = CARTESIAN_POINT ( 'NONE',  ( 7.743879791939400015, 22.31053541617530200, -14.94929270257044074 ) ) ;
#292 = CARTESIAN_POINT ( 'NONE',  ( 11.07071067830427680, 22.31053541617530556, 15.09828115887653333 ) ) ;
#293 = CARTESIAN_POINT ( 'NONE',  ( 16.05422497507518287, 23.01053541617530485, -3.959557172332940134 ) ) ;
#294 = DIRECTION ( 'NONE',  ( 1.000000000000000000, 0.000000000000000000, 0.000000000000000000 ) ) ;
#295 = CARTESIAN_POINT ( 'NONE',  ( -0.9100071916802962013, 22.31053541617530200, -18.70000444045863475 ) ) ;
#296 = CARTESIAN_POINT ( 'NONE',  ( 6.169560366548147989, 22.31053541617530911, -17.69780953073239971 ) ) ;
#297 = EDGE_CURVE ( 'NONE', #695, #868, #657, .T. ) ;
#298 = CARTESIAN_POINT ( 'NONE',  ( 10.65417871455853849, 23.01053541617530129, 12.64534335119250841 ) ) ;
#299 = CARTESIAN_POINT ( 'NONE',  ( -14.94929270257044074, 22.31053541617530200, -7.743879791939369817 ) ) ;
#300 = CARTESIAN_POINT ( 'NONE',  ( -1.259371054193190176, 22.31053541617529845, 18.69999917030659731 ) ) ;
#301 =( NAMED_UNIT ( * ) SI_UNIT ( $, .STERADIAN. ) SOLID_ANGLE_UNIT ( ) );
#302 = CARTESIAN_POINT ( 'NONE',  ( -11.89706573307432080, 23.01053541617530129, 11.43283984593980129 ) ) ;
#303 = AXIS2_PLACEMENT_3D ( 'NONE', #819, #888, #829 ) ;
#304 = CARTESIAN_POINT ( 'NONE',  ( 16.21788757621595067, 23.31053541617529845, -0.7377887174063400000 ) ) ;
#305 = CARTESIAN_POINT ( 'NONE',  ( 16.39421401929059741, 28.31053541617535529, -2.156748463020615514 ) ) ;
#306 = APPLICATION_PROTOCOL_DEFINITION ( 'draft international standard', 'automotive_design', 1998, #780 ) ;
#307 = CARTESIAN_POINT ( 'NONE',  ( 1.027238797473936039E-14, 23.01053541617530129, 2.392168179970224751E-15 ) ) ;
#308 = EDGE_CURVE ( 'NONE', #855, #723, #548, .T. ) ;
#309 = CARTESIAN_POINT ( 'NONE',  ( 2.595055269651534609E-09, 22.31053541617530200, -18.70000967101779921 ) ) ;
#310 = CARTESIAN_POINT ( 'NONE',  ( 13.48334059282172070, 22.31053541617530200, -12.95721794302927954 ) ) ;
#311 = CARTESIAN_POINT ( 'NONE',  ( 7.982477551635777324, 23.01053541617530129, 14.48089378073507305 ) ) ;
#312 = CARTESIAN_POINT ( 'NONE',  ( -12.11337601913021800, 22.31053541617530200, 11.64070966132049989 ) ) ;
#313 = CARTESIAN_POINT ( 'NONE',  ( 2.156748462949755751, 28.31053541617535174, 16.39421401931206645 ) ) ;
#314 = CARTESIAN_POINT ( 'NONE',  ( -11.92037816238359582, 22.45393941854632658, 11.45524261958943413 ) ) ;
#315 = CARTESIAN_POINT ( 'NONE',  ( -14.74418275856663918, 22.31053541617530200, 8.127613507119990643 ) ) ;
#316 = AXIS2_PLACEMENT_3D ( 'NONE', #590, #445, #358 ) ;
#317 = CARTESIAN_POINT ( 'NONE',  ( 14.11412974903453765, 22.31053541617530556, -12.30081584553647112 ) ) ;
#318 = ADVANCED_FACE ( 'NONE', ( #639 ), #4, .T. ) ;
#319 = CARTESIAN_POINT ( 'NONE',  ( -14.48089378073506062, 22.61053541617534535, 7.982477551635777324 ) ) ;
#320 = EDGE_LOOP ( 'NONE', ( #141, #674 ) ) ;
#321 = CARTESIAN_POINT ( 'NONE',  ( 1.833249492961129379, 22.61053541617534535, 16.43336328472836882 ) ) ;
#322 = PRODUCT_DEFINITION_CONTEXT ( 'detailed design', #827, 'design' ) ;
#323 = CARTESIAN_POINT ( 'NONE',  ( 1.083587229757740911, 28.31053541617534108, -16.49999999999999645 ) ) ;
#324 = B_SPLINE_CURVE_WITH_KNOTS ( 'NONE', 3,
 ( #902, #618, #40, #479 ),
 .UNSPECIFIED., .F., .F.,
 ( 4, 4 ),
 ( 0.000000000000000000, 1.000000000000000000 ),
 .UNSPECIFIED. ) ;
#325 = CARTESIAN_POINT ( 'NONE',  ( -2.079675745560659739E-30, 25.31053541617534819, 5.069299904597599897E-30 ) ) ;
#326 = EDGE_LOOP ( 'NONE', ( #265, #795, #112, #214 ) ) ;
#327 = CARTESIAN_POINT ( 'NONE',  ( 11.89706573307433857, 22.61053541617534890, -11.43283984593980129 ) ) ;
#328 = CARTESIAN_POINT ( 'NONE',  ( 16.17280223738420375, 22.31053541617530200, 4.678620985888310102 ) ) ;
#329 = DIRECTION ( 'NONE',  ( 1.000000000000000000, 0.000000000000000000, 0.000000000000000000 ) ) ;
#330 = ORIENTED_EDGE ( 'NONE', *, *, #279, .F. ) ;
#331 = CYLINDRICAL_SURFACE ( 'NONE', #334, 31.50000000000000000 ) ;
#332 = CARTESIAN_POINT ( 'NONE',  ( -16.43336328472835817, 23.01053541617530129, 1.833249492961111171 ) ) ;
#333 = AXIS2_PLACEMENT_3D ( 'NONE', #874, #236, #746 ) ;
#334 = AXIS2_PLACEMENT_3D ( 'NONE', #612, #831, #836 ) ;
#335 = CARTESIAN_POINT ( 'NONE',  ( -2.159818246131724351, 23.31053541617534819, 16.39363954998941253 ) ) ;
#336 = CARTESIAN_POINT ( 'NONE',  ( 1.027238797473936039E-14, 23.01053541617530129, 2.392168179970224751E-15 ) ) ;
#337 = EDGE_LOOP ( 'NONE', ( #773, #203, #424, #649 ) ) ;
#338 = CARTESIAN_POINT ( 'NONE',  ( 12.21150097732108009, 22.61053541617534179, 11.14878811495612609 ) ) ;
#339 = CARTESIAN_POINT ( 'NONE',  ( -1.833249492961032789, 23.01053541617530129, -16.43336328472837238 ) ) ;
#340 = CARTESIAN_POINT ( 'NONE',  ( 11.68075544701843960, 23.31053541617529845, -11.22497003055906006 ) ) ;
#341 = CARTESIAN_POINT ( 'NONE',  ( 7.105162520921951774, 22.31053541617530200, 17.32126142928620283 ) ) ;
#342 = VERTEX_POINT ( 'NONE', #224 ) ;
#343 = CYLINDRICAL_SURFACE ( 'NONE', #390, 16.50000000000000000 ) ;
#344 = CARTESIAN_POINT ( 'NONE',  ( -14.68234104716743005, 23.01053541617530129, -7.605596224226118807 ) ) ;
#345 = CARTESIAN_POINT ( 'NONE',  ( -0.7377887174062730535, 23.31053541617529845, -16.21788757621595067 ) ) ;
#346 = ORIENTED_EDGE ( 'NONE', *, *, #178, .F. ) ;
#347 = CARTESIAN_POINT ( 'NONE',  ( -10.06744783610181493, 28.31053541617535529, -13.11757032649268062 ) ) ;
#348 = CARTESIAN_POINT ( 'NONE',  ( -15.47340700902164912, 23.31053541617529845, 4.913032175700769777 ) ) ;
#349 = CARTESIAN_POINT ( 'NONE',  ( 2.485532088096515935, 23.01053541617530485, -16.34742679415763789 ) ) ;
#350 = CARTESIAN_POINT ( 'NONE',  ( 5.524688988048050753, 23.31053541617529845, -15.26571391097224861 ) ) ;
#351 = CARTESIAN_POINT ( 'NONE',  ( -11.68075544701843960, 23.31053541617534819, 11.22497003055904052 ) ) ;
#352 = CARTESIAN_POINT ( 'NONE',  ( 12.11337601913023931, 22.31053541617530200, -11.64070966132049989 ) ) ;
#353 = CARTESIAN_POINT ( 'NONE',  ( -2.159818246131622654, 23.31053541617535174, -16.39363954998943029 ) ) ;
#354 = CARTESIAN_POINT ( 'NONE',  ( 11.89706573307433857, 23.01053541617530129, -11.43283984593980129 ) ) ;
#355 = CARTESIAN_POINT ( 'NONE',  ( 10.06483156615531982, 23.31053541617534819, 13.11927582209566978 ) ) ;
#356 = CARTESIAN_POINT ( 'NONE',  ( -9.552684863193794840, 22.31053541617530200, -16.10164572885421208 ) ) ;
#357 = CARTESIAN_POINT ( 'NONE',  ( 18.55721583691514454, 22.31053541617529845, -2.479218355657410999 ) ) ;
#358 = DIRECTION ( 'NONE',  ( 1.000000000000000000, 0.000000000000000000, 0.000000000000000000 ) ) ;
#359 = ORIENTED_EDGE ( 'NONE', *, *, #82, .T. ) ;
#360 = CYLINDRICAL_SURFACE ( 'NONE', #683, 16.49999999999999645 ) ;
#361 = CARTESIAN_POINT ( 'NONE',  ( 12.43088239457401123, 23.31053541617534819, -10.90364138458205723 ) ) ;
#362 = CARTESIAN_POINT ( 'NONE',  ( -16.22804675814671427, 22.31053541617530200, 9.336446177850856287 ) ) ;
#363 = CARTESIAN_POINT ( 'NONE',  ( 15.75505916008104457, 22.31053541617530911, -10.11374653927223122 ) ) ;
#364 = ORIENTED_EDGE ( 'NONE', *, *, #553, .T. ) ;
#365 = AXIS2_PLACEMENT_3D ( 'NONE', #6, #153, #294 ) ;
#366 = CARTESIAN_POINT ( 'NONE',  ( 12.00046493565579198, 22.34286734509235473, -11.53220439093217387 ) ) ;
#367 = FACE_OUTER_BOUND ( 'NONE', #901, .T. ) ;
#368 = CARTESIAN_POINT ( 'NONE',  ( -4.512490787960947713, 22.31053541617530200, -18.17014612426889997 ) ) ;
#369 = CARTESIAN_POINT ( 'NONE',  ( 8.758862982225513960, 22.31053541617530911, 16.54671255615799907 ) ) ;
#370 = PRODUCT_CONTEXT ( 'NONE', #780, 'mechanical' ) ;
#371 = VERTEX_POINT ( 'NONE', #621 ) ;
#372 = DIRECTION ( 'NONE',  ( 0.000000000000000000, -1.000000000000000000, 0.000000000000000000 ) ) ;
#373 = CARTESIAN_POINT ( 'NONE',  ( -13.15186982644159563, 22.31053541617531266, -13.32440232152050541 ) ) ;
#374 = CARTESIAN_POINT ( 'NONE',  ( -6.735557395310439065E-16, 28.31053541617534819, -16.50000000000000000 ) ) ;
#375 = CARTESIAN_POINT ( 'NONE',  ( 14.15188107362255465, 23.01053541617530485, 8.552221619517620610 ) ) ;
#376 = CARTESIAN_POINT ( 'NONE',  ( 1.347111479062089982E-15, 23.31053541617534819, 16.50000000000000000 ) ) ;
#377 = EDGE_CURVE ( 'NONE', #723, #779, #107, .T. ) ;
#378 = FACE_BOUND ( 'NONE', #123, .T. ) ;
#379 = CARTESIAN_POINT ( 'NONE',  ( 1.799917683998139895, 23.31053541617529845, 16.13457486136969976 ) ) ;
#380 = CARTESIAN_POINT ( 'NONE',  ( -4.595074182568811061, 23.01053541617530129, 15.88400219743091668 ) ) ;
#381 = CARTESIAN_POINT ( 'NONE',  ( -15.24551764659019959, 22.31053541617530200, 7.143053844584949630 ) ) ;
#382 = CARTESIAN_POINT ( 'NONE',  ( 11.89706573307433857, 23.01053541617530129, -11.43283984593980129 ) ) ;
#383 = CARTESIAN_POINT ( 'NONE',  ( 16.47525005109815766, 23.01053541617530129, 1.407966017022749705 ) ) ;
#384 = CARTESIAN_POINT ( 'NONE',  ( 16.13457486136969976, 23.31053541617529845, -1.799917683998144780 ) ) ;
#385 = ADVANCED_FACE ( 'NONE', ( #589 ), #115, .F. ) ;
#386 = CARTESIAN_POINT ( 'NONE',  ( 13.11751136878410939, 28.31053541617535174, 10.06740844173430993 ) ) ;
#387 = CARTESIAN_POINT ( 'NONE',  ( -9.801839746749756443, 22.61053541617534179, -13.31691293544930588 ) ) ;
#388 = ORIENTED_EDGE ( 'NONE', *, *, #457, .F. ) ;
#389 = CARTESIAN_POINT ( 'NONE',  ( 6.887944778706939886, 23.31053541617529845, 14.70103487349770077 ) ) ;
#390 = AXIS2_PLACEMENT_3D ( 'NONE', #623, #821, #266 ) ;
#391 = CARTESIAN_POINT ( 'NONE',  ( 16.50003545394126547, 28.31053541617535174, -1.083045346180220525 ) ) ;
#392 = CARTESIAN_POINT ( 'NONE',  ( 2.485532088096515935, 22.61053541617534179, -16.34742679415763789 ) ) ;
#393 = ORIENTED_EDGE ( 'NONE', *, *, #761, .T. ) ;
#394 = CARTESIAN_POINT ( 'NONE',  ( 16.43336328472837593, 22.61053541617534535, -1.833249492961091631 ) ) ;
#395 = CARTESIAN_POINT ( 'NONE',  ( 10.84789105482320082, 22.31053541617530200, 12.87525868485059988 ) ) ;
#396 = MANIFOLD_SOLID_BREP ( 'NONE', #165 ) ;
#397 = CARTESIAN_POINT ( 'NONE',  ( -7.015499311645935876, 22.61053541617534179, -14.97327626004395107 ) ) ;
#398 = EDGE_LOOP ( 'NONE', ( #927, #684, #62, #835 ) ) ;
#399 = CARTESIAN_POINT ( 'NONE',  ( -11.68075544701843960, 23.31053541617534819, 11.22497003055904052 ) ) ;
#400 = CARTESIAN_POINT ( 'NONE',  ( -0.7514514714323455857, 23.01053541617530485, -16.51821882762734361 ) ) ;
#401 = EDGE_CURVE ( 'NONE', #342, #418, #866, .T. ) ;
#402 = CARTESIAN_POINT ( 'NONE',  ( 10.32383946825395427, 22.61053541617534179, -12.91644576441301062 ) ) ;
#403 = EDGE_LOOP ( 'NONE', ( #73, #198, #440, #750 ) ) ;
#404 = CARTESIAN_POINT ( 'NONE',  ( 0.7514514714324406208, 22.61053541617534535, 16.51821882762735783 ) ) ;
#405 = CARTESIAN_POINT ( 'NONE',  ( 8.127613507120010183, 22.31053541617530200, 14.74418275856663918 ) ) ;
#406 = AXIS2_PLACEMENT_3D ( 'NONE', #495, #702, #769 ) ;
#407 = CARTESIAN_POINT ( 'NONE',  ( -10.06483156615528962, 23.31053541617534464, -13.11927582209569110 ) ) ;
#408 = CARTESIAN_POINT ( 'NONE',  ( -2.595052904879380175E-09, 22.31053541617530200, 18.70000967101790224 ) ) ;
#409 = EDGE_LOOP ( 'NONE', ( #471, #466, #80, #816 ) ) ;
#410 = CARTESIAN_POINT ( 'NONE',  ( -8.396726680980970414, 23.31053541617529845, 13.89457414501119992 ) ) ;
#411 = CARTESIAN_POINT ( 'NONE',  ( -12.91644576441304437, 23.01053541617530129, -10.32383946825388144 ) ) ;
#412 = CARTESIAN_POINT ( 'NONE',  ( -6.735557395310439065E-16, 23.31053541617534819, -16.50000000000000000 ) ) ;
#413 = EDGE_LOOP ( 'NONE', ( #388, #124 ) ) ;
#414 = ORIENTED_EDGE ( 'NONE', *, *, #916, .F. ) ;
#415 = CARTESIAN_POINT ( 'NONE',  ( 9.801839746749809734, 22.61053541617534179, 13.31691293544928101 ) ) ;
#416 = EDGE_CURVE ( 'NONE', #172, #191, #738, .T. ) ;
#417 = CARTESIAN_POINT ( 'NONE',  ( -8.707716558054340084, 22.31053541617530200, 14.40918800223384011 ) ) ;
#418 = VERTEX_POINT ( 'NONE', #614 ) ;
#419 = CARTESIAN_POINT ( 'NONE',  ( 11.68075544701843960, 23.31053541617529845, -11.22497003055906006 ) ) ;
#420 = CARTESIAN_POINT ( 'NONE',  ( 16.50000000000000000, 23.31053541617534819, -1.079922474671474841 ) ) ;
#421 = DIRECTION ( 'NONE',  ( 0.000000000000000000, 1.000000000000000000, 0.000000000000000000 ) ) ;
#422 = AXIS2_PLACEMENT_3D ( 'NONE', #722, #839, #197 ) ;
#423 = CARTESIAN_POINT ( 'NONE',  ( -15.59520215747759941, 23.31053541617529845, -4.511527379249470115 ) ) ;
#424 = ORIENTED_EDGE ( 'NONE', *, *, #308, .T. ) ;
#425 = CARTESIAN_POINT ( 'NONE',  ( -7.314893629797056818, 28.31053541617535529, -14.82958153111651356 ) ) ;
#426 = CARTESIAN_POINT ( 'NONE',  ( 11.89706573307433857, 22.61053541617534890, -11.43283984593980129 ) ) ;
#427 = CARTESIAN_POINT ( 'NONE',  ( -3.624146276823255963, 22.31053541617530200, -18.36782366099655306 ) ) ;
#428 = CARTESIAN_POINT ( 'NONE',  ( -2.595052904879380175E-09, 22.31053541617530200, 18.70000967101790224 ) ) ;
#429 = B_SPLINE_CURVE_WITH_KNOTS ( 'NONE', 3,
 ( #932, #556, #863, #366, #280, #696 ),
 .UNSPECIFIED., .F., .F.,
 ( 4, 2, 4 ),
 ( 0.000000000000000000, 0.5000000000000000000, 1.000000000000000000 ),
 .UNSPECIFIED. ) ;
#430 = CARTESIAN_POINT ( 'NONE',  ( -7.311994905071856898, 23.31053541617534819, -14.83074384714077354 ) ) ;
#431 = CARTESIAN_POINT ( 'NONE',  ( -4.281232163550560799, 28.31053541617534108, -15.97170023400276406 ) ) ;
#432 = LINE ( 'NONE', #277, #482 ) ;
#433 = CARTESIAN_POINT ( 'NONE',  ( 2.530723580607380008, 22.31053541617530200, -16.64465273586960237 ) ) ;
#434 = CARTESIAN_POINT ( 'NONE',  ( 17.05771370625660310, 22.31053541617530200, -7.716941513955619669 ) ) ;
#435 = CARTESIAN_POINT ( 'NONE',  ( -7.314866465434962883, 28.31053541617535174, 14.82951603282541697 ) ) ;
#436 = CARTESIAN_POINT ( 'NONE',  ( -2.079675745560659739E-30, 25.31053541617534819, 5.069299904597599897E-30 ) ) ;
#437 = CARTESIAN_POINT ( 'NONE',  ( -7.105162520932020165, 22.31053541617530556, -17.32126142927882029 ) ) ;
#438 = CARTESIAN_POINT ( 'NONE',  ( 11.79118384373713369, 22.31053541617530556, 14.54226308088569120 ) ) ;
#439 = B_SPLINE_CURVE_WITH_KNOTS ( 'NONE', 3,
 ( #289, #846, #54, #431, #276, #425, #58, #347, #560, #135, #920, #209, #501, #786, #640, #204, #490, #718, #774, #924, #707, #928, #573, #781, #564, #791, #63, #147, #435, #74, #636, #285, #568, #856 ),
 .UNSPECIFIED., .F., .F.,
 ( 4, 2, 2, 2, 2, 2, 2, 2, 2, 2, 2, 2, 2, 2, 2, 2, 4 ),
 ( 0.000000000000000000, 0.06250000000000000000, 0.1250000000000000000, 0.1875000000000000000, 0.2500000000000000000, 0.3125000000000000000, 0.3750000000000000000, 0.4375000000000000000, 0.5000000000000000000, 0.5625000000000000000, 0.6250000000000000000, 0.6875000000000000000, 0.7500000000000000000, 0.8125000000000000000, 0.8750000000000000000, 0.9375000000000000000, 1.000000000000000000 ),
 .UNSPECIFIED. ) ;
#440 = ORIENTED_EDGE ( 'NONE', *, *, #635, .F. ) ;
#441 = PRODUCT_DEFINITION_FORMATION_WITH_SPECIFIED_SOURCE ( 'Symmetric', '', #785, .NOT_KNOWN. ) ;
#442 = FACE_OUTER_BOUND ( 'NONE', #398, .T. ) ;
#443 = CARTESIAN_POINT ( 'NONE',  ( -14.69463129371194299, 22.31053541617529490, 11.60084114530422816 ) ) ;
#444 = CARTESIAN_POINT ( 'NONE',  ( -6.169560366559508680, 22.31053541617530911, 17.69780953073000163 ) ) ;
#445 = DIRECTION ( 'NONE',  ( 0.000000000000000000, 0.000000000000000000, 1.000000000000000000 ) ) ;
#446 = CARTESIAN_POINT ( 'NONE',  ( 12.64534335119253683, 23.01053541617530129, -10.65417871455850829 ) ) ;
#447 = CARTESIAN_POINT ( 'NONE',  ( 15.26571391097230013, 23.31053541617529845, 5.524688988048000127 ) ) ;
#448 = DIRECTION ( 'NONE',  ( 0.000000000000000000, -1.000000000000000000, 0.000000000000000000 ) ) ;
#449 = CARTESIAN_POINT ( 'NONE',  ( 12.21150097732108009, 23.01053541617530129, 11.14878811495612609 ) ) ;
#450 = B_SPLINE_CURVE_WITH_KNOTS ( 'NONE', 3,
 ( #352, #77, #799, #11, #291, #633, #282, #433, #853, #212, #497, #570, #218, #783, #137, #504, #715, #865, #223, #793, #299, #803, #654, #25, #451, #161, #95, #585, #170, #381, #315, #813, #739, #312 ),
 .UNSPECIFIED., .F., .F.,
 ( 4, 2, 2, 2, 2, 2, 2, 2, 2, 2, 2, 2, 2, 2, 2, 2, 4 ),
 ( 0.000000000000000000, 0.06250000000000000000, 0.1250000000000000000, 0.1875000000000000000, 0.2500000000000000000, 0.3125000000000000000, 0.3750000000000000000, 0.4375000000000000000, 0.5000000000000000000, 0.5625000000000000000, 0.6250000000000000000, 0.6875000000000000000, 0.7500000000000000000, 0.8125000000000000000, 0.8750000000000000000, 0.9375000000000000000, 1.000000000000000000 ),
 .UNSPECIFIED. ) ;
#451 = CARTESIAN_POINT ( 'NONE',  ( -16.77480005202720292, 22.31053541617530200, -1.433565399150487973 ) ) ;
#452 = CARTESIAN_POINT ( 'NONE',  ( 7.314893629794436691, 28.31053541617535529, 14.82958153111252209 ) ) ;
#453 = DIRECTION ( 'NONE',  ( 0.7210342868529900917, 0.000000000000000000, -0.6928993846024111836 ) ) ;
#454 = AXIS2_PLACEMENT_3D ( 'NONE', #890, #448, #252 ) ;
#455 = CARTESIAN_POINT ( 'NONE',  ( 10.46046637429379977, 23.31053541617529845, 12.41542801753450043 ) ) ;
#456 = CARTESIAN_POINT ( 'NONE',  ( 4.281396625685670365, 28.31053541617534464, -15.97159521108883240 ) ) ;
#457 = EDGE_CURVE ( 'NONE', #918, #758, #247, .T. ) ;
#458 = CARTESIAN_POINT ( 'NONE',  ( 15.88400219743092023, 23.01053541617530485, 4.595074182568846588 ) ) ;
#459 = CARTESIAN_POINT ( 'NONE',  ( 11.68075544701843960, 23.31053541617529845, -11.22497003055906006 ) ) ;
#460 = CARTESIAN_POINT ( 'NONE',  ( 8.552221619517700546, 23.01053541617529774, -14.15188107362250136 ) ) ;
#461 = CARTESIAN_POINT ( 'NONE',  ( 11.89706573307433857, 22.61053541617534890, -11.43283984593980129 ) ) ;
#462 = DIRECTION ( 'NONE',  ( 0.000000000000000000, -1.000000000000000000, 0.000000000000000000 ) ) ;
#463 = UNCERTAINTY_MEASURE_WITH_UNIT (LENGTH_MEASURE( 1.000000000000000082E-05 ), #583, 'distance_accuracy_value', 'NONE');
#464 = CARTESIAN_POINT ( 'NONE',  ( 16.49996454605873453, 28.31053541617535174, 1.083045346180137036 ) ) ;
#465 = PLANE ( 'NONE',  #232 ) ;
#466 = ORIENTED_EDGE ( 'NONE', *, *, #2, .F. ) ;
#467 = CARTESIAN_POINT ( 'NONE',  ( 3.959557172332976549, 22.61053541617534535, 16.05422497507517221 ) ) ;
#468 = VECTOR ( 'NONE', #421, 1000.000000000000000 ) ;
#469 = CARTESIAN_POINT ( 'NONE',  ( 5.626998043382257286, 23.01053541617530485, -15.54841231673102087 ) ) ;
#470 = CARTESIAN_POINT ( 'NONE',  ( -11.89706573307429771, 22.53199559983555389, 11.43283984593981017 ) ) ;
#471 = ORIENTED_EDGE ( 'NONE', *, *, #178, .T. ) ;
#472 = CARTESIAN_POINT ( 'NONE',  ( -10.94608287650240008, 23.31053541617529845, 11.98947368682429904 ) ) ;
#473 = CARTESIAN_POINT ( 'NONE',  ( 15.24551764659019959, 22.31053541617530200, -7.143053844584970058 ) ) ;
#474 = DIRECTION ( 'NONE',  ( 0.000000000000000000, -1.000000000000000000, 0.000000000000000000 ) ) ;
#475 = CARTESIAN_POINT ( 'NONE',  ( -11.89706573307432080, 22.61053541617534890, 11.43283984593980129 ) ) ;
#476 = CARTESIAN_POINT ( 'NONE',  ( -7.982477551635712487, 23.01053541617530129, -14.48089378073509437 ) ) ;
#477 = CARTESIAN_POINT ( 'NONE',  ( -10.90364138458209631, 23.31053541617534819, 12.43088239457398103 ) ) ;
#478 = CARTESIAN_POINT ( 'NONE',  ( -16.34742679415763789, 22.61053541617534535, -2.485532088096432446 ) ) ;
#479 = CARTESIAN_POINT ( 'NONE',  ( -11.89706573307432080, 23.01053541617530129, 11.43283984593980129 ) ) ;
#480 = B_SPLINE_CURVE_WITH_KNOTS ( 'NONE', 3,
 ( #926, #295, #65, #427, #368, #848, #437, #81, #356, #859, #206, #373, #514, #646, #144, #155, #3, #492, #60, #651, #725, #638, #930, #7, #777, #720, #642, #580, #149, #362, #575, #443, #788, #704 ),
 .UNSPECIFIED., .F., .F.,
 ( 4, 2, 2, 2, 2, 2, 2, 2, 2, 2, 2, 2, 2, 2, 2, 2, 4 ),
 ( 0.000000000000000000, 0.06250000000000001388, 0.1250000000000000278, 0.1875000000000000555, 0.2500000000000000000, 0.3124999999999999445, 0.3749999999999998890, 0.4374999999999998890, 0.4999999999999998890, 0.5624999999999998890, 0.6249999999999998890, 0.6874999999999998890, 0.7499999999999998890, 0.8125000000000000000, 0.8750000000000000000, 0.9375000000000000000, 1.000000000000000000 ),
 .UNSPECIFIED. ) ;
#481 = CARTESIAN_POINT ( 'NONE',  ( 14.40918800223385965, 22.31053541617530200, 8.707716558054340084 ) ) ;
#482 = VECTOR ( 'NONE', #933, 1000.000000000000000 ) ;
#483 = CARTESIAN_POINT ( 'NONE',  ( -16.50000000000000355, 23.31053541617534819, 1.079922474671436650 ) ) ;
#484 = CARTESIAN_POINT ( 'NONE',  ( 8.485814424463331562, 22.31053541617530200, -16.71119904544959667 ) ) ;
#485 = ORIENTED_EDGE ( 'NONE', *, *, #248, .T. ) ;
#486 = PLANE ( 'NONE',  #406 ) ;
#487 = CARTESIAN_POINT ( 'NONE',  ( -6.045057302900459562E-31, -53.18946458382469444, 31.50000000000000000 ) ) ;
#488 = CARTESIAN_POINT ( 'NONE',  ( -10.65417871455848697, 23.01053541617530129, -12.64534335119253328 ) ) ;
#489 = ORIENTED_EDGE ( 'NONE', *, *, #2, .T. ) ;
#490 = CARTESIAN_POINT ( 'NONE',  ( -16.49996454606896279, 28.31053541617535174, -1.083045346253344476 ) ) ;
#491 = CARTESIAN_POINT ( 'NONE',  ( -3.857637417314165055E-15, -53.18946458382469444, -31.50000000000000000 ) ) ;
#492 = CARTESIAN_POINT ( 'NONE',  ( -17.56104855503096829, 22.31053541617530556, -6.490631904781719363 ) ) ;
#493 = B_SPLINE_CURVE_WITH_KNOTS ( 'NONE', 3,
 ( #729, #18, #889, #14 ),
 .UNSPECIFIED., .F., .F.,
 ( 4, 4 ),
 ( 0.000000000000000000, 1.000000000000000000 ),
 .UNSPECIFIED. ) ;
#494 = CARTESIAN_POINT ( 'NONE',  ( 2.440340595585689609, 23.31053541617529845, -16.05020085244565209 ) ) ;
#495 = CARTESIAN_POINT ( 'NONE',  ( -6.045057302900459562E-31, 22.31053541617530200, 5.892633960096210007E-30 ) ) ;
#496 = DIRECTION ( 'NONE',  ( 0.000000000000000000, -1.000000000000000000, 0.000000000000000000 ) ) ;
#497 = CARTESIAN_POINT ( 'NONE',  ( -1.866581301923950109, 22.31053541617530200, -16.73215170808704855 ) ) ;
#498 = CIRCLE ( 'NONE', #88, 31.50000000000000000 ) ;
#499 = CARTESIAN_POINT ( 'NONE',  ( -12.43088239457396149, 23.31053541617534819, -10.90364138458212118 ) ) ;
#500 = VERTEX_POINT ( 'NONE', #566 ) ;
#501 = CARTESIAN_POINT ( 'NONE',  ( -14.82951602076135345, 28.31053541617535174, -7.314866494561578669 ) ) ;
#502 = CARTESIAN_POINT ( 'NONE',  ( 16.39363954998942674, 23.31053541617534819, -2.159818246131673281 ) ) ;
#503 = PRODUCT_DEFINITION_SHAPE ( 'NONE', 'NONE',  #880 ) ;
#504 = CARTESIAN_POINT ( 'NONE',  ( -9.980055014872439401, 22.31053541617530200, -13.55903862518476011 ) ) ;
#505 = CARTESIAN_POINT ( 'NONE',  ( 18.22893927650066459, 22.31053541617530200, -4.269016482616296848 ) ) ;
#506 = EDGE_CURVE ( 'NONE', #602, #723, #71, .T. ) ;
#507 = FACE_OUTER_BOUND ( 'NONE', #9, .T. ) ;
#508 = DIRECTION ( 'NONE',  ( 0.000000000000000000, 0.000000000000000000, -1.000000000000000000 ) ) ;
#509 = LINE ( 'NONE', #229, #154 ) ;
#510 = DIRECTION ( 'NONE',  ( 0.000000000000000000, -1.000000000000000000, 0.000000000000000000 ) ) ;
#511 = ORIENTED_EDGE ( 'NONE', *, *, #401, .T. ) ;
#512 = CARTESIAN_POINT ( 'NONE',  ( 9.801839746749809734, 23.01053541617530485, 13.31691293544928101 ) ) ;
#513 = PLANE ( 'NONE',  #365 ) ;
#514 = CARTESIAN_POINT ( 'NONE',  ( -13.78394425623800501, 22.31053541617530556, -12.66963551228103668 ) ) ;
#515 = CARTESIAN_POINT ( 'NONE',  ( -9.583916835609874951, 22.31053541617529845, 16.10665935169599905 ) ) ;
#516 = AXIS2_PLACEMENT_3D ( 'NONE', #741, #372, #453 ) ;
#517 = CARTESIAN_POINT ( 'NONE',  ( 14.97327626004395285, 23.01053541617529774, -7.015499311645964298 ) ) ;
#518 = CARTESIAN_POINT ( 'NONE',  ( 15.59520215747759941, 23.31053541617529845, 4.511527379249439917 ) ) ;
#519 = CARTESIAN_POINT ( 'NONE',  ( 0.000000000000000000, 26.64386874950869810, -16.50000000000000000 ) ) ;
#520 = CYLINDRICAL_SURFACE ( 'NONE', #705, 31.50000000000000000 ) ;
#521 = CARTESIAN_POINT ( 'NONE',  ( -3.461669259403704851E-14, 24.97720208284200183, 16.50000000000000000 ) ) ;
#522 = CARTESIAN_POINT ( 'NONE',  ( 5.313659638253566797, 28.31053541617534819, 15.65844304175988455 ) ) ;
#523 = CARTESIAN_POINT ( 'NONE',  ( -11.14878811495609767, 23.01053541617530485, 12.21150097732109607 ) ) ;
#524 = FACE_BOUND ( 'NONE', #712, .T. ) ;
#525 = CARTESIAN_POINT ( 'NONE',  ( 14.82958153112865141, 28.31053541617534464, -7.314893629774524619 ) ) ;
#526 = CARTESIAN_POINT ( 'NONE',  ( 1.748638223194904767E-14, -53.18946458382469444, -5.500000000000000000 ) ) ;
#527 = PLANE ( 'NONE',  #333 ) ;
#528 = SURFACE_STYLE_USAGE ( .BOTH. , #894 ) ;
#529 = EDGE_CURVE ( 'NONE', #669, #855, #480, .T. ) ;
#530 = CARTESIAN_POINT ( 'NONE',  ( -12.11337601913021800, 22.31053541617530200, 11.64070966132049989 ) ) ;
#531 = ORIENTED_EDGE ( 'NONE', *, *, #225, .T. ) ;
#532 = CARTESIAN_POINT ( 'NONE',  ( 12.41542801753450043, 23.31053541617529845, -10.46046637429379977 ) ) ;
#533 = CARTESIAN_POINT ( 'NONE',  ( 14.32098583719989371, 28.31053541617535174, 8.266409247912548608 ) ) ;
#534 = DIRECTION ( 'NONE',  ( -0.000000000000000000, 1.000000000000000000, 0.000000000000000000 ) ) ;
#535 = B_SPLINE_CURVE_WITH_KNOTS ( 'NONE', 3,
 ( #697, #579, #55, #703, #59, #348, #632, #925, #281, #700, #47, #423, #122, #833, #196, #923, #213, #688, #762, #694, #283, #128, #549, #57, #345, #706, #494, #567, #350, #61, #911, #117, #207, #340 ),
 .UNSPECIFIED., .F., .F.,
 ( 4, 2, 2, 2, 2, 2, 2, 2, 2, 2, 2, 2, 2, 2, 2, 2, 4 ),
 ( 0.000000000000000000, 0.06250000000000000000, 0.1250000000000000000, 0.1875000000000000000, 0.2500000000000000000, 0.3125000000000000000, 0.3750000000000000000, 0.4375000000000000000, 0.5000000000000000000, 0.5625000000000000000, 0.6250000000000000000, 0.6875000000000000000, 0.7500000000000000000, 0.8125000000000000000, 0.8750000000000000000, 0.9375000000000000000, 1.000000000000000000 ),
 .UNSPECIFIED. ) ;
#536 = ORIENTED_EDGE ( 'NONE', *, *, #860, .T. ) ;
#537 = CARTESIAN_POINT ( 'NONE',  ( 15.75995158326279721, 22.61053541617534535, -5.004014253028596926 ) ) ;
#538 =( NAMED_UNIT ( * ) PLANE_ANGLE_UNIT ( ) SI_UNIT ( $, .RADIAN. ) );
#539 = CARTESIAN_POINT ( 'NONE',  ( 11.14878811495620603, 22.61053541617534535, -12.21150097732101258 ) ) ;
#540 = ORIENTED_EDGE ( 'NONE', *, *, #261, .T. ) ;
#541 = CARTESIAN_POINT ( 'NONE',  ( 7.982477551635777324, 22.61053541617534535, 14.48089378073507305 ) ) ;
#542 = EDGE_CURVE ( 'NONE', #868, #284, #287, .T. ) ;
#543 = CARTESIAN_POINT ( 'NONE',  ( 16.77480005202720292, 22.31053541617530200, 1.433565399150459996 ) ) ;
#544 = CARTESIAN_POINT ( 'NONE',  ( -14.68234104716743005, 22.61053541617534535, -7.605596224226118807 ) ) ;
#545 = EDGE_LOOP ( 'NONE', ( #536, #185, #250, #34 ) ) ;
#546 = CARTESIAN_POINT ( 'NONE',  ( -2.485532088096401804, 22.61053541617534535, 16.34742679415766275 ) ) ;
#547 = CARTESIAN_POINT ( 'NONE',  ( 16.04649615750394887, 22.31053541617530200, -5.094996330356379666 ) ) ;
#548 = B_SPLINE_CURVE_WITH_KNOTS ( 'NONE', 3,
 ( #768, #804, #652, #515, #150, #444, #138, #571, #300, #428 ),
 .UNSPECIFIED., .F., .F.,
 ( 4, 2, 2, 2, 4 ),
 ( 0.000000000000000000, 0.2500000000000002220, 0.5000000000000002220, 0.7500000000000001110, 1.000000000000000000 ),
 .UNSPECIFIED. ) ;
#549 = CARTESIAN_POINT ( 'NONE',  ( -3.887565223745005127, 23.31053541617529845, -15.76232997552834725 ) ) ;
#550 = CARTESIAN_POINT ( 'NONE',  ( -12.21150097732103745, 22.61053541617534535, -11.14878811495615096 ) ) ;
#551 = CARTESIAN_POINT ( 'NONE',  ( 15.54841231673105106, 22.61053541617534179, 5.626998043382189785 ) ) ;
#552 = CARTESIAN_POINT ( 'NONE',  ( -5.004014253028562287, 23.01053541617530129, -15.75995158326279011 ) ) ;
#553 = EDGE_CURVE ( 'NONE', #39, #669, #509, .T. ) ;
#554 = CARTESIAN_POINT ( 'NONE',  ( -14.83074384714076821, 23.31053541617534819, 7.311994905071866668 ) ) ;
#555 = CARTESIAN_POINT ( 'NONE',  ( 18.72022145544582372, 22.31053541617530556, 0.2504807561503348268 ) ) ;
#556 = CARTESIAN_POINT ( 'NONE',  ( 11.89706573307433857, 22.53199559983555389, -11.43283984593977642 ) ) ;
#557 = CARTESIAN_POINT ( 'NONE',  ( -1.407966017022713956, 22.61053541617534535, 16.47525005109816121 ) ) ;
#558 = CARTESIAN_POINT ( 'NONE',  ( -7.743879791939349388, 22.31053541617530200, 14.94929270257046028 ) ) ;
#559 = CARTESIAN_POINT ( 'NONE',  ( -14.31922138388836885, 23.31053541617534819, 8.268986123491488982 ) ) ;
#560 = CARTESIAN_POINT ( 'NONE',  ( -10.90140811121853481, 28.31053541617535174, -12.43306552849676727 ) ) ;
#561 = CARTESIAN_POINT ( 'NONE',  ( 4.278162380400516440, 23.31053541617534819, 15.97227470331718990 ) ) ;
#562 = DIRECTION ( 'NONE',  ( 0.000000000000000000, -1.000000000000000000, 0.000000000000000000 ) ) ;
#563 = CARTESIAN_POINT ( 'NONE',  ( -1.079922474671423105, 23.31053541617534819, -16.50000000000000711 ) ) ;
#564 = CARTESIAN_POINT ( 'NONE',  ( -12.43306552848484969, 28.31053541617535174, 10.90140811122870446 ) ) ;
#565 = DIRECTION ( 'NONE',  ( 0.000000000000000000, 0.000000000000000000, -1.000000000000000000 ) ) ;
#566 = CARTESIAN_POINT ( 'NONE',  ( -11.89706573307432080, 22.61053541617534890, 11.43283984593980129 ) ) ;
#567 = CARTESIAN_POINT ( 'NONE',  ( 4.511527379249510084, 23.31053541617529845, -15.59520215747759941 ) ) ;
#568 = CARTESIAN_POINT ( 'NONE',  ( -1.083587229792356332, 28.31053541617535529, 16.49999999999999645 ) ) ;
#569 = CARTESIAN_POINT ( 'NONE',  ( 12.43088239457398636, 23.31053541617534819, 10.90364138458208210 ) ) ;
#570 = CARTESIAN_POINT ( 'NONE',  ( -4.031549120920745466, 22.31053541617530200, -16.34611997462199895 ) ) ;
#571 = CARTESIAN_POINT ( 'NONE',  ( -2.505827226050552525, 22.31053541617530556, 18.57409973218859633 ) ) ;
#572 = ORIENTED_EDGE ( 'NONE', *, *, #416, .T. ) ;
#573 = CARTESIAN_POINT ( 'NONE',  ( -14.32092687948433785, 28.31053541617535174, 8.266369853553756641 ) ) ;
#574 = CARTESIAN_POINT ( 'NONE',  ( 10.90364138458207321, 23.31053541617534819, -12.43088239457400057 ) ) ;
#575 = CARTESIAN_POINT ( 'NONE',  ( -15.75505916009795371, 22.31053541617530200, 10.11374653925465417 ) ) ;
#576 = CARTESIAN_POINT ( 'NONE',  ( 16.22804675816259845, 22.31053541617530200, -9.336446177822463000 ) ) ;
#577 = ORIENTED_EDGE ( 'NONE', *, *, #860, .F. ) ;
#578 = CARTESIAN_POINT ( 'NONE',  ( 14.48089378073508904, 23.01053541617529774, -7.982477551635740909 ) ) ;
#579 = CARTESIAN_POINT ( 'NONE',  ( -12.41542801753450043, 23.31053541617529845, 10.46046637429378023 ) ) ;
#580 = CARTESIAN_POINT ( 'NONE',  ( -17.41243536955031956, 22.31053541617530200, 6.878842319654119741 ) ) ;
#581 = CARTESIAN_POINT ( 'NONE',  ( 14.69463129372895871, 22.31053541617530200, -11.60084114528649479 ) ) ;
#582 = B_SPLINE_CURVE_WITH_KNOTS ( 'NONE', 3,
 ( #412, #563, #353, #615, #854, #430, #626, #407, #849, #499, #634, #275, #620, #269, #784, #630, #140, #483, #767, #53, #772, #554, #559, #711, #263, #477, #778, #132, #917, #838, #843, #335, #905, #189 ),
 .UNSPECIFIED., .F., .F.,
 ( 4, 2, 2, 2, 2, 2, 2, 2, 2, 2, 2, 2, 2, 2, 2, 2, 4 ),
 ( 0.000000000000000000, 0.06250000000000000000, 0.1249999999999999861, 0.1874999999999999722, 0.2499999999999999445, 0.3124999999999999445, 0.3749999999999999445, 0.4375000000000000000, 0.5000000000000000000, 0.5625000000000000000, 0.6250000000000000000, 0.6875000000000000000, 0.7500000000000000000, 0.8125000000000000000, 0.8750000000000000000, 0.9375000000000000000, 1.000000000000000000 ),
 .UNSPECIFIED. ) ;
#583 =( LENGTH_UNIT ( ) NAMED_UNIT ( * ) SI_UNIT ( .MILLI., .METRE. ) );
#584 = CARTESIAN_POINT ( 'NONE',  ( 15.54841231673105106, 23.01053541617530129, 5.626998043382189785 ) ) ;
#585 = CARTESIAN_POINT ( 'NONE',  ( -16.34611997462199895, 22.31053541617530200, 4.031549120920759677 ) ) ;
#586 = CARTESIAN_POINT ( 'NONE',  ( 14.94882321856673535, 22.31053541617530556, 11.27170853310751220 ) ) ;
#587 = CARTESIAN_POINT ( 'NONE',  ( 0.7514514714324406208, 23.01053541617530485, 16.51821882762735783 ) ) ;
#588 = CARTESIAN_POINT ( 'NONE',  ( 7.837341596151440548, 23.31053541617529845, 14.21760480290354067 ) ) ;
#589 = FACE_OUTER_BOUND ( 'NONE', #326, .T. ) ;
#590 = CARTESIAN_POINT ( 'NONE',  ( 0.000000000000000000, 0.000000000000000000, 0.000000000000000000 ) ) ;
#591 = CARTESIAN_POINT ( 'NONE',  ( -2.485532088096401804, 23.01053541617531550, 16.34742679415766275 ) ) ;
#592 = CARTESIAN_POINT ( 'NONE',  ( -2.079675745560659739E-30, 114.4059898456803950, 5.069299904597599897E-30 ) ) ;
#593 = EDGE_CURVE ( 'NONE', #758, #918, #450, .T. ) ;
#594 = FILL_AREA_STYLE_COLOUR ( '', #613 ) ;
#595 = FACE_OUTER_BOUND ( 'NONE', #320, .T. ) ;
#596 = CARTESIAN_POINT ( 'NONE',  ( 1.347111479062089982E-15, 28.31053541617534819, 16.50000000000000000 ) ) ;
#597 = CARTESIAN_POINT ( 'NONE',  ( 8.552221619517700546, 22.61053541617534179, -14.15188107362250136 ) ) ;
#598 = CARTESIAN_POINT ( 'NONE',  ( -2.290089417367664846E-15, 25.31053541617534819, 18.69999920762550261 ) ) ;
#599 = UNCERTAINTY_MEASURE_WITH_UNIT (LENGTH_MEASURE( 1.000000000000000082E-05 ), #879, 'distance_accuracy_value', 'NONE');
#600 =( NAMED_UNIT ( * ) SI_UNIT ( $, .STERADIAN. ) SOLID_ANGLE_UNIT ( ) );
#601 = CARTESIAN_POINT ( 'NONE',  ( 1.407966017022814986, 22.61053541617534535, -16.47525005109814700 ) ) ;
#602 = VERTEX_POINT ( 'NONE', #598 ) ;
#603 = CARTESIAN_POINT ( 'NONE',  ( -8.552221619517586859, 22.61053541617534535, 14.15188107362256531 ) ) ;
#604 = CARTESIAN_POINT ( 'NONE',  ( -6.735557395310439065E-16, 28.31053541617534819, -16.50000000000000000 ) ) ;
#605 = DIRECTION ( 'NONE',  ( 0.000000000000000000, -1.000000000000000000, 0.000000000000000000 ) ) ;
#606 = ORIENTED_EDGE ( 'NONE', *, *, #903, .F. ) ;
#607 = CARTESIAN_POINT ( 'NONE',  ( 13.48334059282172070, 22.31053541617530200, -12.95721794302927954 ) ) ;
#608 = CARTESIAN_POINT ( 'NONE',  ( 7.143053844584970058, 22.31053541617530200, 15.24551764659019959 ) ) ;
#609 = CARTESIAN_POINT ( 'NONE',  ( 13.48334059282172070, 22.31053541617530200, -12.95721794302927954 ) ) ;
#610 = B_SPLINE_CURVE_WITH_KNOTS ( 'NONE', 3,
 ( #596, #659, #521, #376 ),
 .UNSPECIFIED., .F., .F.,
 ( 4, 4 ),
 ( 0.000000000000000000, 1.000000000000000000 ),
 .UNSPECIFIED. ) ;
#611 = ORIENTED_EDGE ( 'NONE', *, *, #506, .T. ) ;
#612 = CARTESIAN_POINT ( 'NONE',  ( -6.045057302900459562E-31, -142.2849190133295849, 5.892633960096210007E-30 ) ) ;
#613 = COLOUR_RGB ( '',0.7921568627450980005, 0.8196078431372548767, 0.9333333333333333481 ) ;
#614 = CARTESIAN_POINT ( 'NONE',  ( -6.735557395310439065E-16, 28.31053541617534819, -16.50000000000000000 ) ) ;
#615 = CARTESIAN_POINT ( 'NONE',  ( -4.278162380400482689, 23.31053541617534819, -15.97227470331720056 ) ) ;
#616 = CARTESIAN_POINT ( 'NONE',  ( -16.47525005109814700, 22.61053541617534535, -1.407966017022745930 ) ) ;
#617 = ORIENTED_EDGE ( 'NONE', *, *, #377, .F. ) ;
#618 = CARTESIAN_POINT ( 'NONE',  ( -11.89706573307433857, 22.74386874950864978, 11.43283984593976044 ) ) ;
#619 = CARTESIAN_POINT ( 'NONE',  ( -15.88400219743089181, 23.01053541617530129, -4.595074182568847476 ) ) ;
#620 = CARTESIAN_POINT ( 'NONE',  ( -14.83074384714071492, 23.31053541617534819, -7.311994905071968809 ) ) ;
#621 = CARTESIAN_POINT ( 'NONE',  ( 1.347111479062089982E-15, 23.31053541617534819, 16.50000000000000000 ) ) ;
#622 = EDGE_LOOP ( 'NONE', ( #830, #364, #330, #617, #690 ) ) ;
#623 = CARTESIAN_POINT ( 'NONE',  ( 0.000000000000000000, 28.31053541617534819, 2.817238665454835388E-18 ) ) ;
#624 = CARTESIAN_POINT ( 'NONE',  ( -12.64534335119248176, 23.01053541617530129, 10.65417871455854915 ) ) ;
#625 = ADVANCED_FACE ( 'NONE', ( #524, #884 ), #527, .F. ) ;
#626 = CARTESIAN_POINT ( 'NONE',  ( -8.268986123491462337, 23.31053541617535529, -14.31922138388838306 ) ) ;
#627 = EDGE_LOOP ( 'NONE', ( #489, #572, #631, #98 ) ) ;
#628 = CARTESIAN_POINT ( 'NONE',  ( 14.83074384714075400, 23.31053541617534819, -7.311994905071898643 ) ) ;
#629 = CARTESIAN_POINT ( 'NONE',  ( -16.34742679415763789, 23.01053541617530485, -2.485532088096432446 ) ) ;
#630 = CARTESIAN_POINT ( 'NONE',  ( -16.39363954998941608, 23.31053541617535174, -2.159818246131745667 ) ) ;
#631 = ORIENTED_EDGE ( 'NONE', *, *, #188, .T. ) ;
#632 = CARTESIAN_POINT ( 'NONE',  ( -15.76232997552834725, 23.31053541617529845, 3.887565223745019782 ) ) ;
#633 = CARTESIAN_POINT ( 'NONE',  ( 5.729307098716499347, 22.31053541617530200, -15.83111072248975049 ) ) ;
#634 = CARTESIAN_POINT ( 'NONE',  ( -13.11927582209561649, 23.31053541617534819, -10.06483156615538732 ) ) ;
#635 = EDGE_CURVE ( 'NONE', #342, #371, #610, .T. ) ;
#636 = CARTESIAN_POINT ( 'NONE',  ( -4.281396625651101573, 28.31053541617535174, 15.97159521108883595 ) ) ;
#637 = CARTESIAN_POINT ( 'NONE',  ( 10.90364138458204657, 23.31053541617535174, 12.43088239457402189 ) ) ;
#638 = CARTESIAN_POINT ( 'NONE',  ( -18.68617980220617980, 22.31053541617530556, -1.159919512156441401 ) ) ;
#639 = FACE_OUTER_BOUND ( 'NONE', #545, .T. ) ;
#640 = CARTESIAN_POINT ( 'NONE',  ( -15.97163068859520152, 28.31053541617535174, -4.281218330188841570 ) ) ;
#641 = CARTESIAN_POINT ( 'NONE',  ( 15.97227470331718813, 23.31053541617534819, 4.278162380400565290 ) ) ;
#642 = CARTESIAN_POINT ( 'NONE',  ( -17.99970861031718172, 22.31053541617530556, 5.149749692396918377 ) ) ;
#643 = CARTESIAN_POINT ( 'NONE',  ( 9.583916835561726799, 22.31053541617529490, -16.10665935171898155 ) ) ;
#644 = FACE_OUTER_BOUND ( 'NONE', #337, .T. ) ;
#645 = CARTESIAN_POINT ( 'NONE',  ( 10.06483156615535712, 23.31053541617534819, -13.11927582209564491 ) ) ;
#646 = CARTESIAN_POINT ( 'NONE',  ( -14.94882321860711905, 22.31053541617530911, -11.27170853305732834 ) ) ;
#647 = EDGE_CURVE ( 'NONE', #172, #825, #493, .T. ) ;
#648 = CARTESIAN_POINT ( 'NONE',  ( 13.78394425627826791, 22.31053541617530200, 12.66963551223089191 ) ) ;
#649 = ORIENTED_EDGE ( 'NONE', *, *, #377, .T. ) ;
#650 = CARTESIAN_POINT ( 'NONE',  ( 5.004014253028639558, 23.01053541617530485, 15.75995158326277945 ) ) ;
#651 = CARTESIAN_POINT ( 'NONE',  ( -18.31903276750076515, 22.31053541617530556, -3.863213121308926912 ) ) ;
#652 = CARTESIAN_POINT ( 'NONE',  ( -11.65610028368392825, 22.31053541617530200, 14.67680299796320220 ) ) ;
#653 = CARTESIAN_POINT ( 'NONE',  ( -11.68075544701843960, 23.31053541617534819, 11.22497003055904052 ) ) ;
#654 = CARTESIAN_POINT ( 'NONE',  ( -16.17280223738415046, 22.31053541617530200, -4.678620985888340300 ) ) ;
#655 = CARTESIAN_POINT ( 'NONE',  ( 10.06744783606902160, 28.31053541617535529, 13.11757032652036159 ) ) ;
#656 = B_SPLINE_CURVE_WITH_KNOTS ( 'NONE', 3,
 ( #802, #157, #728, #84, #86, #653 ),
 .UNSPECIFIED., .F., .F.,
 ( 4, 2, 4 ),
 ( 0.000000000000000000, 0.5000000000000000000, 1.000000000000000000 ),
 .UNSPECIFIED. ) ;
#657 = CIRCLE ( 'NONE', #422, 31.50000000000000000 ) ;
#658 = CARTESIAN_POINT ( 'NONE',  ( 16.51821882762735427, 23.01053541617530129, -0.7514514714324058708 ) ) ;
#659 = CARTESIAN_POINT ( 'NONE',  ( -3.461669259403704851E-14, 26.64386874950869810, 16.50000000000000000 ) ) ;
#660 = CARTESIAN_POINT ( 'NONE',  ( -6.045057302900459562E-31, -142.2849190133295849, 5.892633960096210007E-30 ) ) ;
#661 = EDGE_CURVE ( 'NONE', #896, #284, #498, .T. ) ;
#662 = CARTESIAN_POINT ( 'NONE',  ( -2.079675745560659739E-30, 25.31053541617534819, 5.069299904597599897E-30 ) ) ;
#663 = CARTESIAN_POINT ( 'NONE',  ( 11.14878811495620603, 23.01053541617529774, -12.21150097732101258 ) ) ;
#664 = CARTESIAN_POINT ( 'NONE',  ( -14.97327626004391732, 22.61053541617534535, 7.015499311645999825 ) ) ;
#665 = CARTESIAN_POINT ( 'NONE',  ( 13.89457414501121946, 23.31053541617529845, 8.396726680980970414 ) ) ;
#666 = SURFACE_STYLE_FILL_AREA ( #730 ) ;
#667 = CARTESIAN_POINT ( 'NONE',  ( -12.91644576441304437, 22.61053541617534535, -10.32383946825388144 ) ) ;
#668 = AXIS2_PLACEMENT_3D ( 'NONE', #108, #102, #97 ) ;
#669 = VERTEX_POINT ( 'NONE', #309 ) ;
#670 = CARTESIAN_POINT ( 'NONE',  ( -6.735557395310439065E-16, 23.31053541617534819, -16.50000000000000000 ) ) ;
#671 = CARTESIAN_POINT ( 'NONE',  ( 5.313686802571750079, 28.31053541617535174, -15.65850854006214909 ) ) ;
#672 = ADVANCED_FACE ( 'NONE', ( #810 ), #806, .F. ) ;
#673 = CARTESIAN_POINT ( 'NONE',  ( -10.65417871455848697, 22.61053541617534535, -12.64534335119253328 ) ) ;
#674 = ORIENTED_EDGE ( 'NONE', *, *, #735, .T. ) ;
#675 = DIRECTION ( 'NONE',  ( 0.000000000000000000, -1.000000000000000000, 0.000000000000000000 ) ) ;
#676 = CARTESIAN_POINT ( 'NONE',  ( -13.31691293544926502, 23.01053541617530485, 9.801839746749820392 ) ) ;
#677 = CARTESIAN_POINT ( 'NONE',  ( -15.75995158326276524, 22.61053541617534535, 5.004014253028628012 ) ) ;
#678 = VERTEX_POINT ( 'NONE', #670 ) ;
#679 = CARTESIAN_POINT ( 'NONE',  ( 12.11337601913023931, 22.31053541617530200, -11.64070966132049989 ) ) ;
#680 = CARTESIAN_POINT ( 'NONE',  ( -16.47525005109814700, 23.01053541617530129, -1.407966017022745930 ) ) ;
#681 = CARTESIAN_POINT ( 'NONE',  ( -7.982477551635712487, 22.61053541617534535, -14.48089378073509437 ) ) ;
#682 = EDGE_CURVE ( 'NONE', #220, #850, #105, .T. ) ;
#683 = AXIS2_PLACEMENT_3D ( 'NONE', #840, #199, #221 ) ;
#684 = ORIENTED_EDGE ( 'NONE', *, *, #845, .T. ) ;
#685 = CARTESIAN_POINT ( 'NONE',  ( -6.045057302900459562E-31, -53.18946458382469444, 5.892633960096210007E-30 ) ) ;
#686 = CARTESIAN_POINT ( 'NONE',  ( 13.55903862518474057, 22.31053541617530200, -9.980055014872499797 ) ) ;
#687 = PRODUCT_RELATED_PRODUCT_CATEGORY ( 'part', '', ( #785 ) ) ;
#688 = CARTESIAN_POINT ( 'NONE',  ( -10.46046637429375892, 23.31053541617529845, -12.41542801753450043 ) ) ;
#689 = CARTESIAN_POINT ( 'NONE',  ( 6.255114916167142880, 22.31053541617530911, 17.64631027304693589 ) ) ;
#690 = ORIENTED_EDGE ( 'NONE', *, *, #506, .F. ) ;
#691 = CARTESIAN_POINT ( 'NONE',  ( -2.595052904879380175E-09, 22.31053541617530200, 18.70000967101790224 ) ) ;
#692 = EDGE_CURVE ( 'NONE', #500, #825, #699, .T. ) ;
#693 = CARTESIAN_POINT ( 'NONE',  ( -14.97327626004391732, 23.01053541617530485, 7.015499311645999825 ) ) ;
#694 = CARTESIAN_POINT ( 'NONE',  ( -7.837341596151389922, 23.31053541617529845, -14.21760480290356021 ) ) ;
#695 = VERTEX_POINT ( 'NONE', #487 ) ;
#696 = CARTESIAN_POINT ( 'NONE',  ( 12.11337601913023931, 22.31053541617530200, -11.64070966132049989 ) ) ;
#697 = CARTESIAN_POINT ( 'NONE',  ( -11.68075544701843960, 23.31053541617534819, 11.22497003055904052 ) ) ;
#698 = CARTESIAN_POINT ( 'NONE',  ( -4.678620985888310102, 22.31053541617530200, 16.17280223738420375 ) ) ;
#699 = B_SPLINE_CURVE_WITH_KNOTS ( 'NONE', 3,
 ( #475, #755, #192, #603, #770, #914, #765, #546, #557, #404, #321, #467, #125, #200, #541, #415, #50, #338, #751, #104, #272, #551, #759, #45, #841, #260, #394, #826, #537, #251, #893, #182, #113, #327 ),
 .UNSPECIFIED., .F., .F.,
 ( 4, 2, 2, 2, 2, 2, 2, 2, 2, 2, 2, 2, 2, 2, 2, 2, 4 ),
 ( 0.000000000000000000, 0.06249999999999994449, 0.1249999999999998890, 0.1874999999999998335, 0.2499999999999997780, 0.3124999999999997224, 0.3749999999999996669, 0.4374999999999996669, 0.4999999999999996669, 0.5624999999999996669, 0.6249999999999997780, 0.6874999999999997780, 0.7499999999999998890, 0.8124999999999998890, 0.8750000000000000000, 0.9375000000000000000, 1.000000000000000000 ),
 .UNSPECIFIED. ) ;
#700 = CARTESIAN_POINT ( 'NONE',  ( -16.17570005016909818, 23.31053541617529845, -1.382366634895111801 ) ) ;
#701 = ORIENTED_EDGE ( 'NONE', *, *, #692, .T. ) ;
#702 = DIRECTION ( 'NONE',  ( -0.000000000000000000, 1.000000000000000000, 0.000000000000000000 ) ) ;
#703 = CARTESIAN_POINT ( 'NONE',  ( -14.21760480290354067, 23.31053541617529845, 7.837341596151419232 ) ) ;
#704 = CARTESIAN_POINT ( 'NONE',  ( -13.48334059282169939, 22.31053541617530200, 12.95721794302930086 ) ) ;
#705 = AXIS2_PLACEMENT_3D ( 'NONE', #660, #869, #724 ) ;
#706 = CARTESIAN_POINT ( 'NONE',  ( 1.382366634895153990, 23.31053541617529845, -16.17570005016909818 ) ) ;
#707 = CARTESIAN_POINT ( 'NONE',  ( -15.65844304175253576, 28.31053541617535174, 5.313659638257703932 ) ) ;
#708 = CARTESIAN_POINT ( 'NONE',  ( 1.347111479062089982E-15, 23.31053541617534819, 16.50000000000000000 ) ) ;
#709 = CARTESIAN_POINT ( 'NONE',  ( -2.290089417367664846E-15, 114.4059898456803950, 18.69999920762550261 ) ) ;
#710 = DIRECTION ( 'NONE',  ( 0.000000000000000000, 0.000000000000000000, -1.000000000000000000 ) ) ;
#711 = CARTESIAN_POINT ( 'NONE',  ( -13.11927582209568044, 23.31053541617534819, 10.06483156615531094 ) ) ;
#712 = EDGE_LOOP ( 'NONE', ( #531, #540 ) ) ;
#713 = EDGE_LOOP ( 'NONE', ( #254, #764, #745, #913 ) ) ;
#714 = CARTESIAN_POINT ( 'NONE',  ( 2.159818246131656849, 23.31053541617535174, 16.39363954998942674 ) ) ;
#715 = CARTESIAN_POINT ( 'NONE',  ( -10.84789105482314042, 22.31053541617530200, -12.87525868485059988 ) ) ;
#716 = CARTESIAN_POINT ( 'NONE',  ( 1.259371054192764960, 22.31053541617530200, -18.69999917030660086 ) ) ;
#717 = ORIENTED_EDGE ( 'NONE', *, *, #529, .F. ) ;
#718 = CARTESIAN_POINT ( 'NONE',  ( -16.50003545393103010, 28.31053541617535174, 1.083045346253378893 ) ) ;
#719 = CYLINDRICAL_SURFACE ( 'NONE', #887, 18.69999920762550261 ) ;
#720 = CARTESIAN_POINT ( 'NONE',  ( -18.22893927650497048, 22.31053541617530556, 4.269016482619397479 ) ) ;
#721 =( GEOMETRIC_REPRESENTATION_CONTEXT ( 3 ) GLOBAL_UNCERTAINTY_ASSIGNED_CONTEXT ( ( #463 ) ) GLOBAL_UNIT_ASSIGNED_CONTEXT ( ( #583, #159, #301 ) ) REPRESENTATION_CONTEXT ( 'NONE', 'WORKASPACE' ) );
#722 = CARTESIAN_POINT ( 'NONE',  ( -6.045057302900459562E-31, -53.18946458382469444, 5.892633960096210007E-30 ) ) ;
#723 = VERTEX_POINT ( 'NONE', #691 ) ;
#724 = DIRECTION ( 'NONE',  ( 0.000000000000000000, 0.000000000000000000, 1.000000000000000000 ) ) ;
#725 = CARTESIAN_POINT ( 'NONE',  ( -18.48526702849791548, 22.31053541617530200, -2.968448442969958911 ) ) ;
#726 = CARTESIAN_POINT ( 'NONE',  ( 15.47871126996486879, 22.31053541617530556, 10.53180560833461676 ) ) ;
#727 = APPLICATION_PROTOCOL_DEFINITION ( 'draft international standard', 'automotive_design', 1998, #827 ) ;
#728 = CARTESIAN_POINT ( 'NONE',  ( -11.87375330376502092, 23.16713141380428453, 11.41043707229016668 ) ) ;
#729 = CARTESIAN_POINT ( 'NONE',  ( 11.89706573307433857, 23.01053541617530129, -11.43283984593980129 ) ) ;
#730 = FILL_AREA_STYLE ('',( #594 ) ) ;
#731 = CARTESIAN_POINT ( 'NONE',  ( 15.75995158326279721, 23.01053541617530129, -5.004014253028596926 ) ) ;
#732 = CARTESIAN_POINT ( 'NONE',  ( 15.76232997552834725, 23.31053541617529845, -3.887565223745054865 ) ) ;
#733 = CARTESIAN_POINT ( 'NONE',  ( 16.39428356470113357, 28.31053541617535174, 2.156762296414980185 ) ) ;
#734 = AXIS2_PLACEMENT_3D ( 'NONE', #867, #510, #710 ) ;
#735 = EDGE_CURVE ( 'NONE', #868, #695, #101, .T. ) ;
#736 = AXIS2_PLACEMENT_3D ( 'NONE', #592, #462, #246 ) ;
#737 = CARTESIAN_POINT ( 'NONE',  ( -8.552221619517586859, 23.01053541617530129, 14.15188107362256531 ) ) ;
#738 = B_SPLINE_CURVE_WITH_KNOTS ( 'NONE', 3,
 ( #382, #663, #244, #460, #743, #469, #756, #349, #110, #400, #339, #766, #552, #915, #476, #822, #488, #187, #411, #771, #344, #56, #619, #629, #680, #41, #332, #910, #201, #693, #52, #676, #624, #179 ),
 .UNSPECIFIED., .F., .F.,
 ( 4, 2, 2, 2, 2, 2, 2, 2, 2, 2, 2, 2, 2, 2, 2, 2, 4 ),
 ( 0.000000000000000000, 0.06250000000000000000, 0.1250000000000000000, 0.1875000000000000000, 0.2500000000000000000, 0.3125000000000000000, 0.3750000000000000000, 0.4375000000000000000, 0.5000000000000000000, 0.5625000000000000000, 0.6250000000000000000, 0.6875000000000000000, 0.7500000000000000000, 0.8125000000000000000, 0.8750000000000000000, 0.9375000000000000000, 1.000000000000000000 ),
 .UNSPECIFIED. ) ;
#739 = CARTESIAN_POINT ( 'NONE',  ( -12.87525868485059988, 22.31053541617530200, 10.84789105482318128 ) ) ;
#740 = CARTESIAN_POINT ( 'NONE',  ( 8.266409247851376207, 28.31053541617535174, -14.32098583723047369 ) ) ;
#741 = CARTESIAN_POINT ( 'NONE',  ( 1.027238797473936039E-14, 22.61053541617529916, 2.392168179970224751E-15 ) ) ;
#742 = CARTESIAN_POINT ( 'NONE',  ( 13.07478724571386053, 23.31053541617529845, -9.623624478627050394 ) ) ;
#743 = CARTESIAN_POINT ( 'NONE',  ( 7.605596224226182756, 23.01053541617530129, -14.68234104716741406 ) ) ;
#744 = CARTESIAN_POINT ( 'NONE',  ( -0.7514514714323455857, 22.61053541617534179, -16.51821882762734361 ) ) ;
#745 = ORIENTED_EDGE ( 'NONE', *, *, #51, .T. ) ;
#746 = DIRECTION ( 'NONE',  ( 0.000000000000000000, 0.000000000000000000, -1.000000000000000000 ) ) ;
#747 = CARTESIAN_POINT ( 'NONE',  ( 10.06740844179536154, 28.31053541617535174, -13.11751136875356849 ) ) ;
#748 = FACE_OUTER_BOUND ( 'NONE', #103, .T. ) ;
#749 = TOROIDAL_SURFACE ( 'NONE', #134, 16.19999999999999929, 0.2999999999999999889 ) ;
#750 = ORIENTED_EDGE ( 'NONE', *, *, #82, .F. ) ;
#751 = CARTESIAN_POINT ( 'NONE',  ( 12.91644576441307457, 22.61053541617534535, 10.32383946825387078 ) ) ;
#752 = CARTESIAN_POINT ( 'NONE',  ( 5.094996330356379666, 22.31053541617530200, 16.04649615750394887 ) ) ;
#753 = DIRECTION ( 'NONE',  ( 0.000000000000000000, 0.000000000000000000, -1.000000000000000000 ) ) ;
#754 = EDGE_LOOP ( 'NONE', ( #611, #259, #717, #151, #49 ) ) ;
#755 = CARTESIAN_POINT ( 'NONE',  ( -11.14878811495609767, 22.61053541617534890, 12.21150097732109607 ) ) ;
#756 = CARTESIAN_POINT ( 'NONE',  ( 4.595074182568932741, 23.01053541617530129, -15.88400219743088115 ) ) ;
#757 = CARTESIAN_POINT ( 'NONE',  ( -12.05674611866613155, 22.31053541617530200, 11.58628947091188799 ) ) ;
#758 = VERTEX_POINT ( 'NONE', #679 ) ;
#759 = CARTESIAN_POINT ( 'NONE',  ( 15.88400219743092023, 22.61053541617534535, 4.595074182568846588 ) ) ;
#760 = CARTESIAN_POINT ( 'NONE',  ( -11.35149335340990184, 22.31053541617530200, 12.43352826781777942 ) ) ;
#761 = EDGE_CURVE ( 'NONE', #500, #191, #324, .T. ) ;
#762 = CARTESIAN_POINT ( 'NONE',  ( -9.623624478626989998, 23.31053541617529845, -13.07478724571389961 ) ) ;
#763 = FACE_OUTER_BOUND ( 'NONE', #627, .T. ) ;
#764 = ORIENTED_EDGE ( 'NONE', *, *, #248, .F. ) ;
#765 = CARTESIAN_POINT ( 'NONE',  ( -4.595074182568811061, 22.61053541617534535, 15.88400219743091668 ) ) ;
#766 = CARTESIAN_POINT ( 'NONE',  ( -3.959557172332889952, 23.01053541617530485, -16.05422497507517576 ) ) ;
#767 = CARTESIAN_POINT ( 'NONE',  ( -16.39363954998943029, 23.31053541617534819, 2.159818246131635089 ) ) ;
#768 = CARTESIAN_POINT ( 'NONE',  ( -13.48334059282169939, 22.31053541617530200, 12.95721794302930086 ) ) ;
#769 = DIRECTION ( 'NONE',  ( 1.000000000000000000, 0.000000000000000000, 0.000000000000000000 ) ) ;
#770 = CARTESIAN_POINT ( 'NONE',  ( -7.605596224226078839, 22.61053541617534535, 14.68234104716746025 ) ) ;
#771 = CARTESIAN_POINT ( 'NONE',  ( -14.15188107362252801, 23.01053541617530485, -8.552221619517627715 ) ) ;
#772 = CARTESIAN_POINT ( 'NONE',  ( -15.65728072573173790, 23.31053541617534819, 5.316558362976006258 ) ) ;
#773 = ORIENTED_EDGE ( 'NONE', *, *, #279, .T. ) ;
#774 = CARTESIAN_POINT ( 'NONE',  ( -16.39421401930093580, 28.31053541617535174, 2.156748462990210946 ) ) ;
#775 = CARTESIAN_POINT ( 'NONE',  ( -6.045057302900459562E-31, 25.31053541617534819, 31.50000000000000000 ) ) ;
#776 = ADVANCED_FACE ( 'NONE', ( #909 ), #343, .T. ) ;
#777 = CARTESIAN_POINT ( 'NONE',  ( -18.55721583691083865, 22.31053541617530200, 2.479218355654415618 ) ) ;
#778 = CARTESIAN_POINT ( 'NONE',  ( -10.06483156615538377, 23.31053541617534819, 13.11927582209562182 ) ) ;
#779 = VERTEX_POINT ( 'NONE', #607 ) ;
#780 = APPLICATION_CONTEXT ( 'automotive_design' ) ;
#781 = CARTESIAN_POINT ( 'NONE',  ( -13.11757032649958710, 28.31053541617535174, 10.06744783609318361 ) ) ;
#782 = CARTESIAN_POINT ( 'NONE',  ( 15.97227470331719346, 23.31053541617534819, -4.278162380400531539 ) ) ;
#783 = CARTESIAN_POINT ( 'NONE',  ( -7.143053844584909662, 22.31053541617530200, -15.24551764659019959 ) ) ;
#784 = CARTESIAN_POINT ( 'NONE',  ( -15.97227470331717392, 23.31053541617534819, -4.278162380400603482 ) ) ;
#785 = PRODUCT ( 'ASV1_400_17X.STEP', 'ASV1_400_17X.STEP', '', ( #370 ) ) ;
#786 = CARTESIAN_POINT ( 'NONE',  ( -15.65850855211115267, 28.31053541617535529, -5.313686773486363535 ) ) ;
#787 = CARTESIAN_POINT ( 'NONE',  ( 14.31922138388833332, 23.31053541617534819, 8.268986123491547602 ) ) ;
#788 = CARTESIAN_POINT ( 'NONE',  ( -14.11412974901752726, 22.31053541617530200, 12.30081584555417962 ) ) ;
#789 = CARTESIAN_POINT ( 'NONE',  ( 17.99970861029884972, 22.31053541617530200, -5.149749692435140247 ) ) ;
#790 = SHAPE_DEFINITION_REPRESENTATION ( #503, #38 ) ;
#791 = CARTESIAN_POINT ( 'NONE',  ( -10.90145825067111041, 28.31053541617535174, 12.43311566792737288 ) ) ;
#792 = CARTESIAN_POINT ( 'NONE',  ( 1.079922474671492383, 23.31053541617534819, -16.50000000000000355 ) ) ;
#793 = CARTESIAN_POINT ( 'NONE',  ( -14.40918800223379925, 22.31053541617530200, -8.707716558054368505 ) ) ;
#794 = CARTESIAN_POINT ( 'NONE',  ( 3.624146276876957007, 22.31053541617529490, 18.36782366098577768 ) ) ;
#795 = ORIENTED_EDGE ( 'NONE', *, *, #51, .F. ) ;
#796 = ADVANCED_FACE ( 'NONE', ( #897 ), #331, .T. ) ;
#797 = CARTESIAN_POINT ( 'NONE',  ( 13.31691293544930588, 23.01053541617530129, -9.801839746749775983 ) ) ;
#798 = CARTESIAN_POINT ( 'NONE',  ( 8.268986123491499640, 23.31053541617535174, 14.31922138388835997 ) ) ;
#799 = CARTESIAN_POINT ( 'NONE',  ( 10.51154564040401951, 22.31053541617530200, -13.15129023285687992 ) ) ;
#800 = AXIS2_PLACEMENT_3D ( 'NONE', #325, #605, #753 ) ;
#801 = CARTESIAN_POINT ( 'NONE',  ( 4.512490787912998513, 22.31053541617530200, 18.17014612428867082 ) ) ;
#802 = CARTESIAN_POINT ( 'NONE',  ( -11.89706573307432080, 23.01053541617530129, 11.43283984593980129 ) ) ;
#803 = CARTESIAN_POINT ( 'NONE',  ( -15.83111072248975049, 22.31053541617530200, -5.729307098716470037 ) ) ;
#804 = CARTESIAN_POINT ( 'NONE',  ( -12.61098698379007566, 22.31053541617530200, 13.86499312128651873 ) ) ;
#805 = DIRECTION ( 'NONE',  ( 0.7210342868529902027, 0.000000000000000000, -0.6928993846024111836 ) ) ;
#806 = CYLINDRICAL_SURFACE ( 'NONE', #736, 18.69999920762550261 ) ;
#807 = EDGE_CURVE ( 'NONE', #284, #896, #243, .T. ) ;
#808 = CARTESIAN_POINT ( 'NONE',  ( 15.97163068860546531, 28.31053541617535529, 4.281218330117201987 ) ) ;
#809 = B_SPLINE_CURVE_WITH_KNOTS ( 'NONE', 3,
 ( #302, #523, #883, #737, #163, #241, #380, #591, #169, #587, #873, #21, #650, #160, #311, #512, #298, #449, #881, #375, #231, #584, #458, #93, #383, #658, #5, #293, #731, #517, #578, #797, #446, #877 ),
 .UNSPECIFIED., .F., .F.,
 ( 4, 2, 2, 2, 2, 2, 2, 2, 2, 2, 2, 2, 2, 2, 2, 2, 4 ),
 ( 0.000000000000000000, 0.06249999999999994449, 0.1249999999999998890, 0.1874999999999998335, 0.2499999999999997780, 0.3124999999999997224, 0.3749999999999996669, 0.4374999999999996669, 0.4999999999999996669, 0.5624999999999996669, 0.6249999999999997780, 0.6874999999999997780, 0.7499999999999998890, 0.8124999999999998890, 0.8750000000000000000, 0.9375000000000000000, 1.000000000000000000 ),
 .UNSPECIFIED. ) ;
#810 = FACE_OUTER_BOUND ( 'NONE', #754, .T. ) ;
#811 = CARTESIAN_POINT ( 'NONE',  ( 14.32092687949292475, 28.31053541617535529, -8.266369853538273915 ) ) ;
#812 = DIRECTION ( 'NONE',  ( 0.000000000000000000, -1.000000000000000000, 0.000000000000000000 ) ) ;
#813 = CARTESIAN_POINT ( 'NONE',  ( -13.55903862518474057, 22.31053541617530200, 9.980055014872471375 ) ) ;
#814 = CARTESIAN_POINT ( 'NONE',  ( 10.90145825064040253, 28.31053541617534464, -12.43311566795132528 ) ) ;
#815 = ADVANCED_FACE ( 'NONE', ( #136 ), #719, .F. ) ;
#816 = ORIENTED_EDGE ( 'NONE', *, *, #188, .F. ) ;
#817 = CARTESIAN_POINT ( 'NONE',  ( 14.70103487349770077, 23.31053541617529845, -6.887944778706939886 ) ) ;
#818 = CARTESIAN_POINT ( 'NONE',  ( 15.97170023401599970, 28.31053541617535174, -4.281232163511714539 ) ) ;
#819 = CARTESIAN_POINT ( 'NONE',  ( 1.027238797473936039E-14, 20.81053541617530200, 2.392168179970224751E-15 ) ) ;
#820 = ORIENTED_EDGE ( 'NONE', *, *, #661, .F. ) ;
#821 = DIRECTION ( 'NONE',  ( 0.000000000000000000, -1.000000000000000000, 0.000000000000000000 ) ) ;
#822 = CARTESIAN_POINT ( 'NONE',  ( -9.801839746749756443, 23.01053541617530485, -13.31691293544930588 ) ) ;
#823 = CARTESIAN_POINT ( 'NONE',  ( -16.43336328472835817, 22.61053541617534535, 1.833249492961111171 ) ) ;
#824 = CIRCLE ( 'NONE', #668, 18.69999920762550261 ) ;
#825 = VERTEX_POINT ( 'NONE', #426 ) ;
#826 = CARTESIAN_POINT ( 'NONE',  ( 16.05422497507518287, 22.61053541617534535, -3.959557172332940134 ) ) ;
#827 = APPLICATION_CONTEXT ( 'automotive_design' ) ;
#828 = CARTESIAN_POINT ( 'NONE',  ( 16.73215170808709829, 22.31053541617530200, -1.866581301924000069 ) ) ;
#829 = DIRECTION ( 'NONE',  ( 0.7210342868529902027, 0.000000000000000000, -0.6928993846024111836 ) ) ;
#830 = ORIENTED_EDGE ( 'NONE', *, *, #225, .F. ) ;
#831 = DIRECTION ( 'NONE',  ( 0.000000000000000000, 1.000000000000000000, 0.000000000000000000 ) ) ;
#832 = CARTESIAN_POINT ( 'NONE',  ( 14.74418275856663918, 22.31053541617530200, -8.127613507120020842 ) ) ;
#833 = CARTESIAN_POINT ( 'NONE',  ( -14.41538939176435896, 23.31053541617529845, -7.467312656512960167 ) ) ;
#834 = CARTESIAN_POINT ( 'NONE',  ( -16.05422497507515089, 22.61053541617534535, 3.959557172332967223 ) ) ;
#835 = ORIENTED_EDGE ( 'NONE', *, *, #542, .F. ) ;
#836 = DIRECTION ( 'NONE',  ( 0.000000000000000000, 0.000000000000000000, 1.000000000000000000 ) ) ;
#837 = CARTESIAN_POINT ( 'NONE',  ( 16.81855007903875077, 22.31053541617530200, -0.7651142254584269997 ) ) ;
#838 = CARTESIAN_POINT ( 'NONE',  ( -5.316558362976083529, 23.31053541617534819, 15.65728072573170948 ) ) ;
#839 = DIRECTION ( 'NONE',  ( 0.000000000000000000, -1.000000000000000000, 0.000000000000000000 ) ) ;
#840 = CARTESIAN_POINT ( 'NONE',  ( 1.027238797473936039E-14, 20.81053541617530200, 2.392168179970224751E-15 ) ) ;
#841 = CARTESIAN_POINT ( 'NONE',  ( 16.47525005109815766, 22.61053541617534179, 1.407966017022749705 ) ) ;
#842 = CARTESIAN_POINT ( 'NONE',  ( -5.729307098716439839, 22.31053541617530200, 15.83111072248975049 ) ) ;
#843 = CARTESIAN_POINT ( 'NONE',  ( -4.278162380400583942, 23.31053541617534819, 15.97227470331718457 ) ) ;
#844 = ORIENTED_EDGE ( 'NONE', *, *, #735, .F. ) ;
#845 = EDGE_CURVE ( 'NONE', #695, #896, #432, .T. ) ;
#846 = CARTESIAN_POINT ( 'NONE',  ( -1.083223615705667164, 28.31053541617534819, -16.50000000000000355 ) ) ;
#847 = CARTESIAN_POINT ( 'NONE',  ( 13.11927582209563781, 23.31053541617534819, 10.06483156615536600 ) ) ;
#848 = CARTESIAN_POINT ( 'NONE',  ( -6.255114916119174140, 22.31053541617530200, -17.64631027306670319 ) ) ;
#849 = CARTESIAN_POINT ( 'NONE',  ( -10.90364138458201282, 23.31053541617534819, -12.43088239457405031 ) ) ;
#850 = VERTEX_POINT ( 'NONE', #351 ) ;
#851 = FACE_BOUND ( 'NONE', #413, .T. ) ;
#852 = DIRECTION ( 'NONE',  ( 0.000000000000000000, -1.000000000000000000, 0.000000000000000000 ) ) ;
#853 = CARTESIAN_POINT ( 'NONE',  ( 1.433565399150529940, 22.31053541617530200, -16.77480005202720292 ) ) ;
#854 = CARTESIAN_POINT ( 'NONE',  ( -5.316558362975993823, 23.31053541617535529, -15.65728072573174501 ) ) ;
#855 = VERTEX_POINT ( 'NONE', #929 ) ;
#856 = CARTESIAN_POINT ( 'NONE',  ( 1.347111479062089982E-15, 28.31053541617534819, 16.50000000000000000 ) ) ;
#857 = CARTESIAN_POINT ( 'NONE',  ( 14.83074384714073446, 23.31053541617534819, 7.311994905071931505 ) ) ;
#858 = AXIS2_PLACEMENT_3D ( 'NONE', #436, #852, #565 ) ;
#859 = CARTESIAN_POINT ( 'NONE',  ( -11.07071067831993005, 22.31053541617531266, -15.09828115886539024 ) ) ;
#860 = EDGE_CURVE ( 'NONE', #371, #678, #116, .T. ) ;
#861 = CARTESIAN_POINT ( 'NONE',  ( 2.505827226050145740, 22.31053541617530911, -18.57409973218863186 ) ) ;
#862 = ORIENTED_EDGE ( 'NONE', *, *, #807, .F. ) ;
#863 = CARTESIAN_POINT ( 'NONE',  ( 11.92037816238364023, 22.45393941854632658, -11.45524261958941636 ) ) ;
#864 = CARTESIAN_POINT ( 'NONE',  ( 8.268986123491531615, 23.31053541617534819, -14.31922138388834043 ) ) ;
#865 = CARTESIAN_POINT ( 'NONE',  ( -12.43352826781773857, 22.31053541617530200, -11.35149335340994092 ) ) ;
#866 = B_SPLINE_CURVE_WITH_KNOTS ( 'NONE', 3,
 ( #27, #162, #313, #240, #522, #452, #23, #655, #92, #96, #386, #533, #16, #19, #808, #733, #464, #391, #305, #818, #89, #525, #811, #885, #174, #814, #747, #740, #166, #671, #456, #32, #323, #604 ),
 .UNSPECIFIED., .F., .F.,
 ( 4, 2, 2, 2, 2, 2, 2, 2, 2, 2, 2, 2, 2, 2, 2, 2, 4 ),
 ( 0.000000000000000000, 0.06250000000000001388, 0.1250000000000000278, 0.1875000000000000555, 0.2500000000000000555, 0.3125000000000000555, 0.3750000000000001110, 0.4375000000000001110, 0.5000000000000001110, 0.5625000000000001110, 0.6250000000000001110, 0.6875000000000001110, 0.7500000000000002220, 0.8125000000000002220, 0.8750000000000002220, 0.9375000000000001110, 1.000000000000000000 ),
 .UNSPECIFIED. ) ;
#867 = CARTESIAN_POINT ( 'NONE',  ( 0.000000000000000000, 28.31053541617534819, 2.817238665454835388E-18 ) ) ;
#868 = VERTEX_POINT ( 'NONE', #491 ) ;
#869 = DIRECTION ( 'NONE',  ( 0.000000000000000000, 1.000000000000000000, 0.000000000000000000 ) ) ;
#870 = CARTESIAN_POINT ( 'NONE',  ( 15.65728072573171659, 23.31053541617534819, 5.316558362976071095 ) ) ;
#871 = DIRECTION ( 'NONE',  ( 0.000000000000000000, -1.000000000000000000, 0.000000000000000000 ) ) ;
#872 = CARTESIAN_POINT ( 'NONE',  ( -3.857637417314165055E-15, 25.31053541617534819, -31.50000000000000000 ) ) ;
#873 = CARTESIAN_POINT ( 'NONE',  ( 1.833249492961129379, 23.01053541617530129, 16.43336328472836882 ) ) ;
#874 = CARTESIAN_POINT ( 'NONE',  ( 8.152799920730180006, 25.31053541617534819, 30.42666352810544694 ) ) ;
#875 =( GEOMETRIC_REPRESENTATION_CONTEXT ( 3 ) GLOBAL_UNCERTAINTY_ASSIGNED_CONTEXT ( ( #599 ) ) GLOBAL_UNIT_ASSIGNED_CONTEXT ( ( #879, #538, #600 ) ) REPRESENTATION_CONTEXT ( 'NONE', 'WORKASPACE' ) );
#876 = CARTESIAN_POINT ( 'NONE',  ( 4.972909810284245502, 22.31053541617530200, -18.07052298113916322 ) ) ;
#877 = CARTESIAN_POINT ( 'NONE',  ( 11.89706573307433857, 23.01053541617530129, -11.43283984593980129 ) ) ;
#878 = CARTESIAN_POINT ( 'NONE',  ( 4.913032175700789317, 23.31053541617529845, 15.47340700902164912 ) ) ;
#879 =( LENGTH_UNIT ( ) NAMED_UNIT ( * ) SI_UNIT ( .MILLI., .METRE. ) );
#880 = PRODUCT_DEFINITION ( 'General', '', #441, #322 ) ;
#881 = CARTESIAN_POINT ( 'NONE',  ( 12.91644576441307457, 23.01053541617530129, 10.32383946825387078 ) ) ;
#882 = CARTESIAN_POINT ( 'NONE',  ( 15.47340700902164912, 23.31053541617529845, -4.913032175700789317 ) ) ;
#883 = CARTESIAN_POINT ( 'NONE',  ( -10.32383946825384058, 23.01053541617530129, 12.91644576441308345 ) ) ;
#884 = FACE_OUTER_BOUND ( 'NONE', #133, .T. ) ;
#885 = CARTESIAN_POINT ( 'NONE',  ( 13.11757032649100196, 28.31053541617534819, -10.06744783610864680 ) ) ;
#886 = ADVANCED_FACE ( 'NONE', ( #367 ), #513, .T. ) ;
#887 = AXIS2_PLACEMENT_3D ( 'NONE', #210, #496, #508 ) ;
#888 = DIRECTION ( 'NONE',  ( 0.000000000000000000, -1.000000000000000000, 0.000000000000000000 ) ) ;
#889 = CARTESIAN_POINT ( 'NONE',  ( 11.89706573307440074, 22.74386874950864978, -11.43283984593971958 ) ) ;
#890 = CARTESIAN_POINT ( 'NONE',  ( 1.027238797473936039E-14, 22.61053541617529916, 2.392168179970224751E-15 ) ) ;
#891 = CARTESIAN_POINT ( 'NONE',  ( -11.89706573307432080, 22.61053541617534890, 11.43283984593980129 ) ) ;
#892 = ORIENTED_EDGE ( 'NONE', *, *, #807, .T. ) ;
#893 = CARTESIAN_POINT ( 'NONE',  ( 14.48089378073508904, 22.61053541617534179, -7.982477551635740909 ) ) ;
#894 = SURFACE_SIDE_STYLE ('',( #666 ) ) ;
#895 = CYLINDRICAL_SURFACE ( 'NONE', #303, 16.49999999999999645 ) ;
#896 = VERTEX_POINT ( 'NONE', #775 ) ;
#897 = FACE_OUTER_BOUND ( 'NONE', #226, .T. ) ;
#898 = CARTESIAN_POINT ( 'NONE',  ( 15.83111072248980022, 22.31053541617530200, 5.729307098716439839 ) ) ;
#899 = CARTESIAN_POINT ( 'NONE',  ( -6.735557395310439065E-16, 23.31053541617534819, -16.50000000000000000 ) ) ;
#900 = MECHANICAL_DESIGN_GEOMETRIC_PRESENTATION_REPRESENTATION (  '', ( #76 ), #875 ) ;
#901 = EDGE_LOOP ( 'NONE', ( #359, #511 ) ) ;
#902 = CARTESIAN_POINT ( 'NONE',  ( -11.89706573307432080, 22.61053541617534890, 11.43283984593980129 ) ) ;
#903 = EDGE_CURVE ( 'NONE', #850, #220, #535, .T. ) ;
#904 = CARTESIAN_POINT ( 'NONE',  ( 4.031549120920790763, 22.31053541617530200, 16.34611997462199895 ) ) ;
#905 = CARTESIAN_POINT ( 'NONE',  ( -1.079922474671526800, 23.31053541617534819, 16.50000000000000355 ) ) ;
#906 = CARTESIAN_POINT ( 'NONE',  ( -3.959557172332889952, 22.61053541617534179, -16.05422497507517576 ) ) ;
#907 = B_SPLINE_CURVE_WITH_KNOTS ( 'NONE', 3,
 ( #419, #129, #69, #271, #142, #354 ),
 .UNSPECIFIED., .F., .F.,
 ( 4, 2, 4 ),
 ( 0.000000000000000000, 0.5000000000000000000, 1.000000000000000000 ),
 .UNSPECIFIED. ) ;
#908 = ORIENTED_EDGE ( 'NONE', *, *, #682, .F. ) ;
#909 = FACE_OUTER_BOUND ( 'NONE', #403, .T. ) ;
#910 = CARTESIAN_POINT ( 'NONE',  ( -16.05422497507515089, 23.01053541617530485, 3.959557172332967223 ) ) ;
#911 = CARTESIAN_POINT ( 'NONE',  ( 8.396726680981020152, 23.31053541617529845, -13.89457414501118038 ) ) ;
#912 = CARTESIAN_POINT ( 'NONE',  ( 16.84796002115470159, 22.31053541617530200, 8.164742886234895636 ) ) ;
#913 = ORIENTED_EDGE ( 'NONE', *, *, #593, .T. ) ;
#914 = CARTESIAN_POINT ( 'NONE',  ( -5.626998043382151593, 22.61053541617534535, 15.54841231673105817 ) ) ;
#915 = CARTESIAN_POINT ( 'NONE',  ( -7.015499311645935876, 23.01053541617530485, -14.97327626004395107 ) ) ;
#916 = EDGE_CURVE ( 'NONE', #678, #371, #582, .T. ) ;
#917 = CARTESIAN_POINT ( 'NONE',  ( -7.311994905071944828, 23.31053541617534819, 14.83074384714072735 ) ) ;
#918 = VERTEX_POINT ( 'NONE', #202 ) ;
#919 = TOROIDAL_SURFACE ( 'NONE', #215, 16.19999999999999929, 0.2999999999999999889 ) ;
#920 = CARTESIAN_POINT ( 'NONE',  ( -13.11751136875622770, 28.31053541617535174, -10.06740844178964878 ) ) ;
#921 = CARTESIAN_POINT ( 'NONE',  ( 2.159818246131688380, 23.31053541617534819, -16.39363954998942674 ) ) ;
#922 = CARTESIAN_POINT ( 'NONE',  ( -2.530723580607315171, 22.31053541617530200, 16.64465273586960237 ) ) ;
#923 = CARTESIAN_POINT ( 'NONE',  ( -12.68160129596912000, 23.31053541617529845, -10.13613329610383929 ) ) ;
#924 = CARTESIAN_POINT ( 'NONE',  ( -15.97170023400566663, 28.31053541617535174, 4.281232163542092017 ) ) ;
#925 = CARTESIAN_POINT ( 'NONE',  ( -16.13457486136965002, 23.31053541617529845, 1.799917683998109919 ) ) ;
#926 = CARTESIAN_POINT ( 'NONE',  ( 2.595055269651534609E-09, 22.31053541617530200, -18.70000967101779921 ) ) ;
#927 = ORIENTED_EDGE ( 'NONE', *, *, #297, .F. ) ;
#928 = CARTESIAN_POINT ( 'NONE',  ( -14.82958153111986555, 28.31053541617535174, 7.314893629790316432 ) ) ;
#929 = CARTESIAN_POINT ( 'NONE',  ( -13.48334059282169939, 22.31053541617530200, 12.95721794302930086 ) ) ;
#930 = CARTESIAN_POINT ( 'NONE',  ( -18.72022145545998484, 22.31053541617530200, -0.2504807562008248278 ) ) ;
#931 = CARTESIAN_POINT ( 'NONE',  ( 1.817463249324572150, 22.31053541617529490, 18.63347424040052047 ) ) ;
#932 = CARTESIAN_POINT ( 'NONE',  ( 11.89706573307433857, 22.61053541617534890, -11.43283984593980129 ) ) ;
#933 = DIRECTION ( 'NONE',  ( 0.000000000000000000, 1.000000000000000000, 0.000000000000000000 ) ) ;
ENDSEC;
END-ISO-10303-21;
