ISO-10303-21;
HEADER;
FILE_DESCRIPTION (( 'STEP AP214' ),
    '1' );
FILE_NAME ('ASV1_300_18X.STEP.STEP',
    '2026-08-01T02:08:55',
    ( '' ),
    ( '' ),
    'SwSTEP 2.0',
    'SolidWorks 2025',
    '' );
FILE_SCHEMA (( 'AUTOMOTIVE_DESIGN' ));
ENDSEC;

DATA;
#1 = CIRCLE ( 'NONE', #247, 17.50000000000000000 ) ;
#2 = ADVANCED_FACE ( 'NONE', ( #92 ), #94, .T. ) ;
#3 = CARTESIAN_POINT ( 'NONE',  ( -18.88351945860300063, -65.06137744862299144, -249.0039048005415054 ) ) ;
#4 = PLANE ( 'NONE',  #168 ) ;
#5 = DIRECTION ( 'NONE',  ( 0.000000000000000000, 0.000000000000000000, -1.000000000000000000 ) ) ;
#6 = CIRCLE ( 'NONE', #215, 17.50000000000000000 ) ;
#7 = DIRECTION ( 'NONE',  ( 0.000000000000000000, 0.000000000000000000, 1.000000000000000000 ) ) ;
#8 = ORIENTED_EDGE ( 'NONE', *, *, #277, .T. ) ;
#9 = FACE_OUTER_BOUND ( 'NONE', #216, .T. ) ;
#10 = ADVANCED_FACE ( 'NONE', ( #74 ), #34, .T. ) ;
#11 = DIRECTION ( 'NONE',  ( 0.000000000000000000, 0.000000000000000000, -1.000000000000000000 ) ) ;
#12 = AXIS2_PLACEMENT_3D ( 'NONE', #269, #212, #128 ) ;
#13 = AXIS2_PLACEMENT_3D ( 'NONE', #166, #256, #237 ) ;
#14 = ORIENTED_EDGE ( 'NONE', *, *, #181, .F. ) ;
#15 = DIRECTION ( 'NONE',  ( 0.000000000000000000, 0.000000000000000000, 1.000000000000000000 ) ) ;
#16 = ADVANCED_FACE ( 'NONE', ( #267 ), #96, .F. ) ;
#17 = DIRECTION ( 'NONE',  ( 1.000000000000000000, 0.000000000000000000, 0.000000000000000000 ) ) ;
#18 = EDGE_LOOP ( 'NONE', ( #14, #173 ) ) ;
#19 = CARTESIAN_POINT ( 'NONE',  ( -18.88351945860300063, -65.06137744862299144, -105.3079453076479837 ) ) ;
#20 = CIRCLE ( 'NONE', #123, 19.00000000000000000 ) ;
#21 = ORIENTED_EDGE ( 'NONE', *, *, #82, .T. ) ;
#22 = ORIENTED_EDGE ( 'NONE', *, *, #75, .F. ) ;
#23 = DIRECTION ( 'NONE',  ( 0.000000000000000000, 0.000000000000000000, 1.000000000000000000 ) ) ;
#24 = CARTESIAN_POINT ( 'NONE',  ( -28.38351945860300063, -81.51586012052730723, -105.3079453076479837 ) ) ;
#25 = EDGE_CURVE ( 'NONE', #55, #43, #141, .T. ) ;
#26 = DIRECTION ( 'NONE',  ( 1.000000000000000000, 0.000000000000000000, 0.000000000000000000 ) ) ;
#27 = AXIS2_PLACEMENT_3D ( 'NONE', #3, #72, #157 ) ;
#28 = ORIENTED_EDGE ( 'NONE', *, *, #273, .F. ) ;
#29 = APPLICATION_CONTEXT ( 'automotive_design' ) ;
#30 = FILL_AREA_STYLE_COLOUR ( '', #176 ) ;
#31 = LINE ( 'NONE', #164, #115 ) ;
#32 = DIRECTION ( 'NONE',  ( 0.000000000000000000, 0.000000000000000000, 1.000000000000000000 ) ) ;
#33 = AXIS2_PLACEMENT_3D ( 'NONE', #201, #265, #180 ) ;
#34 = CYLINDRICAL_SURFACE ( 'NONE', #27, 28.00000000000000000 ) ;
#35 = SURFACE_STYLE_USAGE ( .BOTH. , #56 ) ;
#36 = DIRECTION ( 'NONE',  ( 1.000000000000000000, 0.000000000000000000, 0.000000000000000000 ) ) ;
#37 = CIRCLE ( 'NONE', #182, 28.00000000000000000 ) ;
#38 = DIRECTION ( 'NONE',  ( -1.000000000000000000, 0.000000000000000000, 0.000000000000000000 ) ) ;
#39 = APPLICATION_CONTEXT ( 'automotive_design' ) ;
#40 = ADVANCED_FACE ( 'NONE', ( #102 ), #189, .F. ) ;
#41 = DIRECTION ( 'NONE',  ( 0.000000000000000000, 0.000000000000000000, 1.000000000000000000 ) ) ;
#42 = VERTEX_POINT ( 'NONE', #109 ) ;
#43 = VERTEX_POINT ( 'NONE', #45 ) ;
#44 = DIRECTION ( 'NONE',  ( 0.000000000000000000, 0.000000000000000000, -1.000000000000000000 ) ) ;
#45 = CARTESIAN_POINT ( 'NONE',  ( -9.383519458603000629, -48.60689477671870407, -105.3079453076479837 ) ) ;
#46 = VERTEX_POINT ( 'NONE', #193 ) ;
#47 = AXIS2_PLACEMENT_3D ( 'NONE', #276, #79, #211 ) ;
#48 = ORIENTED_EDGE ( 'NONE', *, *, #169, .T. ) ;
#49 = CARTESIAN_POINT ( 'NONE',  ( -18.88351945860300063, -65.06137744862299144, -109.3079453076479979 ) ) ;
#50 = CARTESIAN_POINT ( 'NONE',  ( -36.38351945860299708, -65.06137744862299144, -100.3079453076479979 ) ) ;
#51 = EDGE_LOOP ( 'NONE', ( #161, #144, #116, #197 ) ) ;
#52 = AXIS2_PLACEMENT_3D ( 'NONE', #236, #160, #208 ) ;
#53 = EDGE_LOOP ( 'NONE', ( #107, #241, #22, #152 ) ) ;
#54 = ORIENTED_EDGE ( 'NONE', *, *, #188, .T. ) ;
#55 = VERTEX_POINT ( 'NONE', #85 ) ;
#56 = SURFACE_SIDE_STYLE ('',( #232 ) ) ;
#57 = DIRECTION ( 'NONE',  ( 0.4999999999999997224, 0.8660254037844387076, 0.000000000000000000 ) ) ;
#58 = CYLINDRICAL_SURFACE ( 'NONE', #163, 19.00000000000001066 ) ;
#59 = DIRECTION ( 'NONE',  ( 0.000000000000000000, 0.000000000000000000, -1.000000000000000000 ) ) ;
#60 = DIRECTION ( 'NONE',  ( 1.000000000000000000, 0.000000000000000000, 0.000000000000000000 ) ) ;
#61 = EDGE_CURVE ( 'NONE', #199, #137, #205, .T. ) ;
#62 = LINE ( 'NONE', #214, #73 ) ;
#63 = ADVANCED_BREP_SHAPE_REPRESENTATION ( 'ASV1_300_18X.STEP', ( #77, #259 ), #66 ) ;
#64 = EDGE_LOOP ( 'NONE', ( #130, #242 ) ) ;
#65 = FACE_BOUND ( 'NONE', #18, .T. ) ;
#66 =( GEOMETRIC_REPRESENTATION_CONTEXT ( 3 ) GLOBAL_UNCERTAINTY_ASSIGNED_CONTEXT ( ( #228 ) ) GLOBAL_UNIT_ASSIGNED_CONTEXT ( ( #245, #132, #108 ) ) REPRESENTATION_CONTEXT ( 'NONE', 'WORKASPACE' ) );
#67 = ORIENTED_EDGE ( 'NONE', *, *, #252, .F. ) ;
#68 = VERTEX_POINT ( 'NONE', #200 ) ;
#69 = CARTESIAN_POINT ( 'NONE',  ( -18.88351945860300063, -65.06137744862299144, -109.3079453076479979 ) ) ;
#70 = EDGE_LOOP ( 'NONE', ( #113, #220, #203, #99 ) ) ;
#71 = DIRECTION ( 'NONE',  ( 0.000000000000000000, 0.000000000000000000, -1.000000000000000000 ) ) ;
#72 = DIRECTION ( 'NONE',  ( 0.000000000000000000, 0.000000000000000000, 1.000000000000000000 ) ) ;
#73 = VECTOR ( 'NONE', #209, 1000.000000000000000 ) ;
#74 = FACE_OUTER_BOUND ( 'NONE', #175, .T. ) ;
#75 = EDGE_CURVE ( 'NONE', #281, #262, #179, .T. ) ;
#76 = CARTESIAN_POINT ( 'NONE',  ( -18.88351945860300063, -65.06137744862299144, -105.3079453076479837 ) ) ;
#77 = MANIFOLD_SOLID_BREP ( 'NONE', #91 ) ;
#78 = AXIS2_PLACEMENT_3D ( 'NONE', #183, #7, #207 ) ;
#79 = DIRECTION ( 'NONE',  ( 0.000000000000000000, 0.000000000000000000, -1.000000000000000000 ) ) ;
#80 = EDGE_CURVE ( 'NONE', #112, #149, #275, .T. ) ;
#81 = STYLED_ITEM ( 'NONE', ( #162 ), #77 ) ;
#82 = EDGE_CURVE ( 'NONE', #43, #149, #31, .T. ) ;
#83 = DIRECTION ( 'NONE',  ( 0.000000000000000000, 0.000000000000000000, -1.000000000000000000 ) ) ;
#84 = PRODUCT_RELATED_PRODUCT_CATEGORY ( 'part', '', ( #165 ) ) ;
#85 = CARTESIAN_POINT ( 'NONE',  ( -28.38351945860300063, -81.51586012052730723, -105.3079453076479837 ) ) ;
#86 = ORIENTED_EDGE ( 'NONE', *, *, #133, .T. ) ;
#87 = ADVANCED_FACE ( 'NONE', ( #97 ), #117, .T. ) ;
#88 = ORIENTED_EDGE ( 'NONE', *, *, #273, .T. ) ;
#89 = DIRECTION ( 'NONE',  ( 1.000000000000000000, 0.000000000000000000, 0.000000000000000000 ) ) ;
#90 = ORIENTED_EDGE ( 'NONE', *, *, #246, .T. ) ;
#91 = CLOSED_SHELL ( 'NONE', ( #126, #10, #174, #2, #87, #106, #40, #111, #16, #280 ) ) ;
#92 = FACE_OUTER_BOUND ( 'NONE', #53, .T. ) ;
#93 = EDGE_CURVE ( 'NONE', #68, #281, #6, .T. ) ;
#94 = CYLINDRICAL_SURFACE ( 'NONE', #33, 17.50000000000000355 ) ;
#95 = CARTESIAN_POINT ( 'NONE',  ( -18.88351945860300063, -65.06137744862299144, -105.3079453076479837 ) ) ;
#96 = CYLINDRICAL_SURFACE ( 'NONE', #12, 19.00000000000001066 ) ;
#97 = FACE_OUTER_BOUND ( 'NONE', #184, .T. ) ;
#98 = DIRECTION ( 'NONE',  ( 0.000000000000000000, 0.000000000000000000, 1.000000000000000000 ) ) ;
#99 = ORIENTED_EDGE ( 'NONE', *, *, #25, .F. ) ;
#100 = CYLINDRICAL_SURFACE ( 'NONE', #103, 28.00000000000000000 ) ;
#101 = CARTESIAN_POINT ( 'NONE',  ( -28.38351945860300063, -81.51586012052730723, -109.3079453076479979 ) ) ;
#102 = FACE_OUTER_BOUND ( 'NONE', #206, .T. ) ;
#103 = AXIS2_PLACEMENT_3D ( 'NONE', #120, #98, #143 ) ;
#104 = CIRCLE ( 'NONE', #156, 17.50000000000000000 ) ;
#105 = CARTESIAN_POINT ( 'NONE',  ( -18.88351945860300063, -65.06137744862299144, -50.81047062458969776 ) ) ;
#106 = ADVANCED_FACE ( 'NONE', ( #9 ), #100, .T. ) ;
#107 = ORIENTED_EDGE ( 'NONE', *, *, #224, .T. ) ;
#108 =( NAMED_UNIT ( * ) SI_UNIT ( $, .STERADIAN. ) SOLID_ANGLE_UNIT ( ) );
#109 = CARTESIAN_POINT ( 'NONE',  ( 9.116480541396999371, -65.06137744862299144, -105.3079453076479837 ) ) ;
#110 = CIRCLE ( 'NONE', #47, 28.00000000000000000 ) ;
#111 = ADVANCED_FACE ( 'NONE', ( #257, #185 ), #4, .F. ) ;
#112 = VERTEX_POINT ( 'NONE', #101 ) ;
#113 = ORIENTED_EDGE ( 'NONE', *, *, #225, .T. ) ;
#114 = APPLICATION_PROTOCOL_DEFINITION ( 'draft international standard', 'automotive_design', 1998, #29 ) ;
#115 = VECTOR ( 'NONE', #5, 1000.000000000000000 ) ;
#116 = ORIENTED_EDGE ( 'NONE', *, *, #181, .T. ) ;
#117 = PLANE ( 'NONE',  #78 ) ;
#118 = ORIENTED_EDGE ( 'NONE', *, *, #61, .F. ) ;
#119 = PRODUCT_DEFINITION_SHAPE ( 'NONE', 'NONE',  #140 ) ;
#120 = CARTESIAN_POINT ( 'NONE',  ( -18.88351945860300063, -65.06137744862299144, -249.0039048005415054 ) ) ;
#121 = AXIS2_PLACEMENT_3D ( 'NONE', #139, #229, #263 ) ;
#122 = ORIENTED_EDGE ( 'NONE', *, *, #80, .F. ) ;
#123 = AXIS2_PLACEMENT_3D ( 'NONE', #19, #44, #279 ) ;
#124 = DIRECTION ( 'NONE',  ( 0.000000000000000000, 0.000000000000000000, 1.000000000000000000 ) ) ;
#125 = CARTESIAN_POINT ( 'NONE',  ( -9.383519458603000629, -48.60689477671870407, -109.3079453076479979 ) ) ;
#126 = ADVANCED_FACE ( 'NONE', ( #187 ), #58, .F. ) ;
#127 = EDGE_CURVE ( 'NONE', #46, #262, #104, .T. ) ;
#128 = DIRECTION ( 'NONE',  ( 0.4999999999999997224, 0.8660254037844387076, 0.000000000000000000 ) ) ;
#129 = CIRCLE ( 'NONE', #223, 19.00000000000000000 ) ;
#130 = ORIENTED_EDGE ( 'NONE', *, *, #246, .F. ) ;
#131 = DIRECTION ( 'NONE',  ( 1.000000000000000000, 0.000000000000000000, 0.000000000000000000 ) ) ;
#132 =( NAMED_UNIT ( * ) PLANE_ANGLE_UNIT ( ) SI_UNIT ( $, .RADIAN. ) );
#133 = EDGE_CURVE ( 'NONE', #244, #42, #110, .T. ) ;
#134 = DIRECTION ( 'NONE',  ( 0.000000000000000000, 0.000000000000000000, -1.000000000000000000 ) ) ;
#135 = APPLICATION_PROTOCOL_DEFINITION ( 'draft international standard', 'automotive_design', 1998, #39 ) ;
#136 = AXIS2_PLACEMENT_3D ( 'NONE', #222, #134, #26 ) ;
#137 = VERTEX_POINT ( 'NONE', #238 ) ;
#138 = ORIENTED_EDGE ( 'NONE', *, *, #252, .T. ) ;
#139 = CARTESIAN_POINT ( 'NONE',  ( -18.88351945860300063, -65.06137744862299144, -169.8079453076479979 ) ) ;
#140 = PRODUCT_DEFINITION ( 'General', '', #194, #178 ) ;
#141 = CIRCLE ( 'NONE', #13, 19.00000000000000000 ) ;
#142 =( NAMED_UNIT ( * ) SI_UNIT ( $, .STERADIAN. ) SOLID_ANGLE_UNIT ( ) );
#143 = DIRECTION ( 'NONE',  ( 1.000000000000000000, 0.000000000000000000, 0.000000000000000000 ) ) ;
#144 = ORIENTED_EDGE ( 'NONE', *, *, #75, .T. ) ;
#145 = CARTESIAN_POINT ( 'NONE',  ( -18.88351945860300063, -65.06137744862299144, -109.3079453076479979 ) ) ;
#146 =( NAMED_UNIT ( * ) PLANE_ANGLE_UNIT ( ) SI_UNIT ( $, .RADIAN. ) );
#147 = PRESENTATION_LAYER_ASSIGNMENT (  '', '', ( #81 ) ) ;
#148 = CARTESIAN_POINT ( 'NONE',  ( -18.88351945860300063, -65.06137744862299144, -100.3079453076479979 ) ) ;
#149 = VERTEX_POINT ( 'NONE', #125 ) ;
#150 = AXIS2_PLACEMENT_3D ( 'NONE', #148, #41, #131 ) ;
#151 = PRODUCT_CONTEXT ( 'NONE', #29, 'mechanical' ) ;
#152 = ORIENTED_EDGE ( 'NONE', *, *, #93, .F. ) ;
#153 = CARTESIAN_POINT ( 'NONE',  ( -1.383519458603000185, -65.06137744862299144, -50.81047062458969776 ) ) ;
#154 = ORIENTED_EDGE ( 'NONE', *, *, #225, .F. ) ;
#155 = PLANE ( 'NONE',  #186 ) ;
#156 = AXIS2_PLACEMENT_3D ( 'NONE', #145, #32, #36 ) ;
#157 = DIRECTION ( 'NONE',  ( 1.000000000000000000, 0.000000000000000000, 0.000000000000000000 ) ) ;
#158 = CARTESIAN_POINT ( 'NONE',  ( -36.38351945860299708, -65.06137744862299144, -109.3079453076479979 ) ) ;
#159 = VECTOR ( 'NONE', #71, 1000.000000000000000 ) ;
#160 = DIRECTION ( 'NONE',  ( 0.000000000000000000, 0.000000000000000000, 1.000000000000000000 ) ) ;
#161 = ORIENTED_EDGE ( 'NONE', *, *, #188, .F. ) ;
#162 = PRESENTATION_STYLE_ASSIGNMENT (( #35 ) ) ;
#163 = AXIS2_PLACEMENT_3D ( 'NONE', #76, #255, #57 ) ;
#164 = CARTESIAN_POINT ( 'NONE',  ( -9.383519458603000629, -48.60689477671870407, -105.3079453076479837 ) ) ;
#165 = PRODUCT ( 'ASV1_300_18X.STEP', 'ASV1_300_18X.STEP', '', ( #151 ) ) ;
#166 = CARTESIAN_POINT ( 'NONE',  ( -18.88351945860300063, -65.06137744862299144, -105.3079453076479837 ) ) ;
#167 = FILL_AREA_STYLE ('',( #30 ) ) ;
#168 = AXIS2_PLACEMENT_3D ( 'NONE', #95, #233, #274 ) ;
#169 = EDGE_CURVE ( 'NONE', #199, #244, #62, .T. ) ;
#170 = DIRECTION ( 'NONE',  ( 0.000000000000000000, 0.000000000000000000, 1.000000000000000000 ) ) ;
#171 = DIRECTION ( 'NONE',  ( 0.000000000000000000, 0.000000000000000000, 1.000000000000000000 ) ) ;
#172 =( GEOMETRIC_REPRESENTATION_CONTEXT ( 3 ) GLOBAL_UNCERTAINTY_ASSIGNED_CONTEXT ( ( #271 ) ) GLOBAL_UNIT_ASSIGNED_CONTEXT ( ( #253, #146, #142 ) ) REPRESENTATION_CONTEXT ( 'NONE', 'WORKASPACE' ) );
#173 = ORIENTED_EDGE ( 'NONE', *, *, #127, .F. ) ;
#174 = ADVANCED_FACE ( 'NONE', ( #258 ), #278, .T. ) ;
#175 = EDGE_LOOP ( 'NONE', ( #272, #88, #90, #250 ) ) ;
#176 = COLOUR_RGB ( '',0.7921568627450980005, 0.8196078431372548767, 0.9333333333333333481 ) ;
#177 = ORIENTED_EDGE ( 'NONE', *, *, #93, .T. ) ;
#178 = PRODUCT_DEFINITION_CONTEXT ( 'detailed design', #39, 'design' ) ;
#179 = LINE ( 'NONE', #204, #235 ) ;
#180 = DIRECTION ( 'NONE',  ( -1.000000000000000000, 0.000000000000000000, 0.000000000000000000 ) ) ;
#181 = EDGE_CURVE ( 'NONE', #262, #46, #1, .T. ) ;
#182 = AXIS2_PLACEMENT_3D ( 'NONE', #190, #83, #195 ) ;
#183 = CARTESIAN_POINT ( 'NONE',  ( -18.88351945860300063, -65.06137744862299144, -100.3079453076479979 ) ) ;
#184 = EDGE_LOOP ( 'NONE', ( #54, #177 ) ) ;
#185 = FACE_OUTER_BOUND ( 'NONE', #64, .T. ) ;
#186 = AXIS2_PLACEMENT_3D ( 'NONE', #69, #15, #266 ) ;
#187 = FACE_OUTER_BOUND ( 'NONE', #231, .T. ) ;
#188 = EDGE_CURVE ( 'NONE', #281, #68, #230, .T. ) ;
#189 = PLANE ( 'NONE',  #210 ) ;
#190 = CARTESIAN_POINT ( 'NONE',  ( -18.88351945860300063, -65.06137744862299144, -105.3079453076479837 ) ) ;
#191 = ORIENTED_EDGE ( 'NONE', *, *, #213, .T. ) ;
#192 = SHAPE_DEFINITION_REPRESENTATION ( #119, #63 ) ;
#193 = CARTESIAN_POINT ( 'NONE',  ( -1.383519458603000185, -65.06137744862299144, -109.3079453076479979 ) ) ;
#194 = PRODUCT_DEFINITION_FORMATION_WITH_SPECIFIED_SOURCE ( 'Symmetric', '', #165, .NOT_KNOWN. ) ;
#195 = DIRECTION ( 'NONE',  ( -1.000000000000000000, 0.000000000000000000, 0.000000000000000000 ) ) ;
#196 = DIRECTION ( 'NONE',  ( 0.000000000000000000, 0.000000000000000000, -1.000000000000000000 ) ) ;
#197 = ORIENTED_EDGE ( 'NONE', *, *, #224, .F. ) ;
#198 = MECHANICAL_DESIGN_GEOMETRIC_PRESENTATION_REPRESENTATION (  '', ( #81 ), #172 ) ;
#199 = VERTEX_POINT ( 'NONE', #285 ) ;
#200 = CARTESIAN_POINT ( 'NONE',  ( -1.383519458603000185, -65.06137744862299144, -100.3079453076479979 ) ) ;
#201 = CARTESIAN_POINT ( 'NONE',  ( -18.88351945860300063, -65.06137744862299144, -50.81047062458969776 ) ) ;
#202 = DIRECTION ( 'NONE',  ( 0.000000000000000000, 0.000000000000000000, 1.000000000000000000 ) ) ;
#203 = ORIENTED_EDGE ( 'NONE', *, *, #82, .F. ) ;
#204 = CARTESIAN_POINT ( 'NONE',  ( -36.38351945860299708, -65.06137744862299144, -50.81047062458969776 ) ) ;
#205 = CIRCLE ( 'NONE', #136, 28.00000000000000000 ) ;
#206 = EDGE_LOOP ( 'NONE', ( #191, #226 ) ) ;
#207 = DIRECTION ( 'NONE',  ( 1.000000000000000000, 0.000000000000000000, 0.000000000000000000 ) ) ;
#208 = DIRECTION ( 'NONE',  ( 1.000000000000000000, 0.000000000000000000, 0.000000000000000000 ) ) ;
#209 = DIRECTION ( 'NONE',  ( 0.000000000000000000, 0.000000000000000000, 1.000000000000000000 ) ) ;
#210 = AXIS2_PLACEMENT_3D ( 'NONE', #219, #170, #17 ) ;
#211 = DIRECTION ( 'NONE',  ( -1.000000000000000000, 0.000000000000000000, 0.000000000000000000 ) ) ;
#212 = DIRECTION ( 'NONE',  ( 0.000000000000000000, 0.000000000000000000, -1.000000000000000000 ) ) ;
#213 = EDGE_CURVE ( 'NONE', #137, #199, #251, .T. ) ;
#214 = CARTESIAN_POINT ( 'NONE',  ( -46.88351945860299708, -65.06137744862299144, -249.0039048005415054 ) ) ;
#215 = AXIS2_PLACEMENT_3D ( 'NONE', #270, #202, #254 ) ;
#216 = EDGE_LOOP ( 'NONE', ( #48, #86, #28, #118 ) ) ;
#217 = EDGE_LOOP ( 'NONE', ( #138, #283 ) ) ;
#218 = LINE ( 'NONE', #24, #159 ) ;
#219 = CARTESIAN_POINT ( 'NONE',  ( -18.88351945860300063, -65.06137744862299144, -169.8079453076479979 ) ) ;
#220 = ORIENTED_EDGE ( 'NONE', *, *, #277, .F. ) ;
#221 = DIRECTION ( 'NONE',  ( 1.000000000000000000, 0.000000000000000000, 0.000000000000000000 ) ) ;
#222 = CARTESIAN_POINT ( 'NONE',  ( -18.88351945860300063, -65.06137744862299144, -169.8079453076479979 ) ) ;
#223 = AXIS2_PLACEMENT_3D ( 'NONE', #49, #171, #89 ) ;
#224 = EDGE_CURVE ( 'NONE', #68, #46, #249, .T. ) ;
#225 = EDGE_CURVE ( 'NONE', #55, #112, #218, .T. ) ;
#226 = ORIENTED_EDGE ( 'NONE', *, *, #61, .T. ) ;
#227 = CARTESIAN_POINT ( 'NONE',  ( 0.000000000000000000, 0.000000000000000000, 0.000000000000000000 ) ) ;
#228 = UNCERTAINTY_MEASURE_WITH_UNIT (LENGTH_MEASURE( 1.000000000000000082E-05 ), #245, 'distance_accuracy_value', 'NONE');
#229 = DIRECTION ( 'NONE',  ( 0.000000000000000000, 0.000000000000000000, -1.000000000000000000 ) ) ;
#230 = CIRCLE ( 'NONE', #150, 17.50000000000000000 ) ;
#231 = EDGE_LOOP ( 'NONE', ( #67, #21, #122, #154 ) ) ;
#232 = SURFACE_STYLE_FILL_AREA ( #167 ) ;
#233 = DIRECTION ( 'NONE',  ( 0.000000000000000000, 0.000000000000000000, -1.000000000000000000 ) ) ;
#234 = VECTOR ( 'NONE', #196, 1000.000000000000000 ) ;
#235 = VECTOR ( 'NONE', #11, 1000.000000000000000 ) ;
#236 = CARTESIAN_POINT ( 'NONE',  ( -18.88351945860300063, -65.06137744862299144, -109.3079453076479979 ) ) ;
#237 = DIRECTION ( 'NONE',  ( -1.000000000000000000, 0.000000000000000000, 0.000000000000000000 ) ) ;
#238 = CARTESIAN_POINT ( 'NONE',  ( 9.116480541396999371, -65.06137744862299144, -169.8079453076479979 ) ) ;
#239 = ORIENTED_EDGE ( 'NONE', *, *, #80, .T. ) ;
#240 = CARTESIAN_POINT ( 'NONE',  ( -18.88351945860300063, -65.06137744862299144, -109.3079453076479979 ) ) ;
#241 = ORIENTED_EDGE ( 'NONE', *, *, #127, .T. ) ;
#242 = ORIENTED_EDGE ( 'NONE', *, *, #133, .F. ) ;
#243 = FACE_OUTER_BOUND ( 'NONE', #261, .T. ) ;
#244 = VERTEX_POINT ( 'NONE', #284 ) ;
#245 =( LENGTH_UNIT ( ) NAMED_UNIT ( * ) SI_UNIT ( .MILLI., .METRE. ) );
#246 = EDGE_CURVE ( 'NONE', #42, #244, #37, .T. ) ;
#247 = AXIS2_PLACEMENT_3D ( 'NONE', #240, #124, #60 ) ;
#248 = LINE ( 'NONE', #260, #264 ) ;
#249 = LINE ( 'NONE', #153, #234 ) ;
#250 = ORIENTED_EDGE ( 'NONE', *, *, #169, .F. ) ;
#251 = CIRCLE ( 'NONE', #121, 28.00000000000000000 ) ;
#252 = EDGE_CURVE ( 'NONE', #43, #55, #20, .T. ) ;
#253 =( LENGTH_UNIT ( ) NAMED_UNIT ( * ) SI_UNIT ( .MILLI., .METRE. ) );
#254 = DIRECTION ( 'NONE',  ( 1.000000000000000000, 0.000000000000000000, 0.000000000000000000 ) ) ;
#255 = DIRECTION ( 'NONE',  ( 0.000000000000000000, 0.000000000000000000, -1.000000000000000000 ) ) ;
#256 = DIRECTION ( 'NONE',  ( 0.000000000000000000, 0.000000000000000000, -1.000000000000000000 ) ) ;
#257 = FACE_BOUND ( 'NONE', #217, .T. ) ;
#258 = FACE_OUTER_BOUND ( 'NONE', #51, .T. ) ;
#259 = AXIS2_PLACEMENT_3D ( 'NONE', #227, #282, #221 ) ;
#260 = CARTESIAN_POINT ( 'NONE',  ( 9.116480541396999371, -65.06137744862299144, -249.0039048005415054 ) ) ;
#261 = EDGE_LOOP ( 'NONE', ( #8, #239 ) ) ;
#262 = VERTEX_POINT ( 'NONE', #158 ) ;
#263 = DIRECTION ( 'NONE',  ( 1.000000000000000000, 0.000000000000000000, 0.000000000000000000 ) ) ;
#264 = VECTOR ( 'NONE', #23, 1000.000000000000000 ) ;
#265 = DIRECTION ( 'NONE',  ( 0.000000000000000000, 0.000000000000000000, -1.000000000000000000 ) ) ;
#266 = DIRECTION ( 'NONE',  ( 1.000000000000000000, 0.000000000000000000, 0.000000000000000000 ) ) ;
#267 = FACE_OUTER_BOUND ( 'NONE', #70, .T. ) ;
#268 = AXIS2_PLACEMENT_3D ( 'NONE', #105, #59, #38 ) ;
#269 = CARTESIAN_POINT ( 'NONE',  ( -18.88351945860300063, -65.06137744862299144, -105.3079453076479837 ) ) ;
#270 = CARTESIAN_POINT ( 'NONE',  ( -18.88351945860300063, -65.06137744862299144, -100.3079453076479979 ) ) ;
#271 = UNCERTAINTY_MEASURE_WITH_UNIT (LENGTH_MEASURE( 1.000000000000000082E-05 ), #253, 'distance_accuracy_value', 'NONE');
#272 = ORIENTED_EDGE ( 'NONE', *, *, #213, .F. ) ;
#273 = EDGE_CURVE ( 'NONE', #137, #42, #248, .T. ) ;
#274 = DIRECTION ( 'NONE',  ( 0.000000000000000000, -1.000000000000000000, 0.000000000000000000 ) ) ;
#275 = CIRCLE ( 'NONE', #52, 19.00000000000000000 ) ;
#276 = CARTESIAN_POINT ( 'NONE',  ( -18.88351945860300063, -65.06137744862299144, -105.3079453076479837 ) ) ;
#277 = EDGE_CURVE ( 'NONE', #149, #112, #129, .T. ) ;
#278 = CYLINDRICAL_SURFACE ( 'NONE', #268, 17.50000000000000355 ) ;
#279 = DIRECTION ( 'NONE',  ( -1.000000000000000000, 0.000000000000000000, 0.000000000000000000 ) ) ;
#280 = ADVANCED_FACE ( 'NONE', ( #65, #243 ), #155, .T. ) ;
#281 = VERTEX_POINT ( 'NONE', #50 ) ;
#282 = DIRECTION ( 'NONE',  ( 0.000000000000000000, 0.000000000000000000, 1.000000000000000000 ) ) ;
#283 = ORIENTED_EDGE ( 'NONE', *, *, #25, .T. ) ;
#284 = CARTESIAN_POINT ( 'NONE',  ( -46.88351945860299708, -65.06137744862299144, -105.3079453076479837 ) ) ;
#285 = CARTESIAN_POINT ( 'NONE',  ( -46.88351945860299708, -65.06137744862299144, -169.8079453076479979 ) ) ;
ENDSEC;
END-ISO-10303-21;
