ISO-10303-21;
HEADER;
FILE_DESCRIPTION (( 'STEP AP214' ),
    '1' );
FILE_NAME ('ASV1_300_20X.STEP.STEP',
    '2026-08-01T02:08:56',
    ( '' ),
    ( '' ),
    'SwSTEP 2.0',
    'SolidWorks 2025',
    '' );
FILE_SCHEMA (( 'AUTOMOTIVE_DESIGN' ));
ENDSEC;

DATA;
#1 = CARTESIAN_POINT ( 'NONE',  ( 14.07036627181297561, 19.89831721221460015, -8.843372432107697634 ) ) ;
#2 = CARTESIAN_POINT ( 'NONE',  ( 13.04913803122320104, 19.89831721221460015, 10.09801944155801934 ) ) ;
#3 = CARTESIAN_POINT ( 'NONE',  ( -13.28639508633637867, 19.59831721221459944, -10.28161979504087853 ) ) ;
#4 = CARTESIAN_POINT ( 'NONE',  ( 14.78902310205299919, 19.59831721221459944, 11.44442203376575939 ) ) ;
#5 = CARTESIAN_POINT ( 'NONE',  ( 4.292430930584710147, 19.59831721221459944, 16.27955967602605014 ) ) ;
#6 = SURFACE_SIDE_STYLE ('',( #432 ) ) ;
#7 = AXIS2_PLACEMENT_3D ( 'NONE', #194, #533, #280 ) ;
#8 = CARTESIAN_POINT ( 'NONE',  ( 6.377712801384710417, 19.59831721221459944, 15.58120040183640143 ) ) ;
#9 = DIRECTION ( 'NONE',  ( 1.000000000000000000, 1.169399601181603932E-17, 0.000000000000000000 ) ) ;
#10 = CARTESIAN_POINT ( 'NONE',  ( 15.19311824586789861, 19.89831721221460015, 6.435771746036070162 ) ) ;
#11 = ORIENTED_EDGE ( 'NONE', *, *, #430, .T. ) ;
#12 = CARTESIAN_POINT ( 'NONE',  ( -7.850195487652022130, 19.59831721221460299, 16.99973728099941539 ) ) ;
#13 = CARTESIAN_POINT ( 'NONE',  ( 18.70008749570069995, 19.59831721221459944, 2.414386383378025025E-08 ) ) ;
#14 = CLOSED_SHELL ( 'NONE', ( #418, #499, #569, #528, #578, #68, #436, #305, #189, #319, #367, #84 ) ) ;
#15 = EDGE_LOOP ( 'NONE', ( #315, #486 ) ) ;
#16 = CYLINDRICAL_SURFACE ( 'NONE', #442, 16.50000000000000000 ) ;
#17 = EDGE_CURVE ( 'NONE', #514, #202, #137, .T. ) ;
#18 = B_SPLINE_CURVE_WITH_KNOTS ( 'NONE', 3,
 ( #72, #451, #582, #219, #408, #586, #169, #295, #285, #342, #245, #102, #195, #186, #291, #12, #338, #335, #239, #438, #482, #198, #389, #283, #478, #152, #525, #191, #489, #429, #487, #434, #243, #4 ),
 .UNSPECIFIED., .F., .F.,
 ( 4, 2, 2, 2, 2, 2, 2, 2, 2, 2, 2, 2, 2, 2, 2, 2, 4 ),
 ( 0.000000000000000000, 0.06250000000000005551, 0.1250000000000001110, 0.1875000000000001665, 0.2500000000000002220, 0.3125000000000002776, 0.3750000000000003331, 0.4375000000000003886, 0.5000000000000004441, 0.5625000000000003331, 0.6250000000000003331, 0.6875000000000002220, 0.7500000000000002220, 0.8125000000000002220, 0.8750000000000002220, 0.9375000000000001110, 1.000000000000000000 ),
 .UNSPECIFIED. ) ;
#19 = ORIENTED_EDGE ( 'NONE', *, *, #17, .T. ) ;
#20 = CARTESIAN_POINT ( 'NONE',  ( 13.28639508633637867, 19.59831721221459944, 10.28161979504089985 ) ) ;
#21 = CARTESIAN_POINT ( 'NONE',  ( -12.13621620288649972, 19.59831721221459944, -14.25929077405338674 ) ) ;
#22 = CARTESIAN_POINT ( 'NONE',  ( -12.51969768591846588, 25.59831721221460299, 10.80180480735672433 ) ) ;
#23 = VERTEX_POINT ( 'NONE', #126 ) ;
#24 = CARTESIAN_POINT ( 'NONE',  ( -7.201481299331550900, 19.59831721221460299, -17.28448521007640082 ) ) ;
#25 = CIRCLE ( 'NONE', #450, 26.50000000000000000 ) ;
#26 = CARTESIAN_POINT ( 'NONE',  ( 18.70000000000000284, 22.59831721221459944, 2.597473735272980434E-17 ) ) ;
#27 = ORIENTED_EDGE ( 'NONE', *, *, #56, .F. ) ;
#28 = DIRECTION ( 'NONE',  ( 0.000000000000000000, -1.000000000000000000, -1.149410246294365984E-18 ) ) ;
#29 = CARTESIAN_POINT ( 'NONE',  ( 7.433020705848412568, 25.59831721221460299, -14.77064725831616698 ) ) ;
#30 = CARTESIAN_POINT ( 'NONE',  ( -1.214733703818061450, 25.59831721221460299, 16.49079256046136166 ) ) ;
#31 = ORIENTED_EDGE ( 'NONE', *, *, #121, .T. ) ;
#32 = DIRECTION ( 'NONE',  ( -5.157842598702879918E-19, -1.000000000000000000, 1.217627280581126066E-18 ) ) ;
#33 = CARTESIAN_POINT ( 'NONE',  ( -0.8238536367089357437, 19.89831721221460370, 16.59824412946190009 ) ) ;
#34 = CARTESIAN_POINT ( 'NONE',  ( -11.00036717555054189, 25.59831721221460654, 12.34569071402291662 ) ) ;
#35 = ORIENTED_EDGE ( 'NONE', *, *, #506, .T. ) ;
#36 = DIRECTION ( 'NONE',  ( 0.000000000000000000, -4.031734505761719585E-19, -1.000000000000000000 ) ) ;
#37 = CARTESIAN_POINT ( 'NONE',  ( 8.380473427894608918, 25.59831721221460299, -14.25453690330179768 ) ) ;
#38 = VECTOR ( 'NONE', #129, 1000.000000000000000 ) ;
#39 = ORIENTED_EDGE ( 'NONE', *, *, #246, .T. ) ;
#40 = LINE ( 'NONE', #548, #573 ) ;
#41 = CARTESIAN_POINT ( 'NONE',  ( -15.03705292130408289, 19.89831721221460370, 7.075837931851982177 ) ) ;
#42 = CARTESIAN_POINT ( 'NONE',  ( -14.77046854416938615, 25.59831721221459944, -7.433533498298579012 ) ) ;
#43 = EDGE_CURVE ( 'NONE', #202, #514, #210, .T. ) ;
#44 = CARTESIAN_POINT ( 'NONE',  ( -11.15121231995603956, 19.59831721221459944, 12.61346464435501957 ) ) ;
#45 = CARTESIAN_POINT ( 'NONE',  ( 18.61553225692160041, 19.59831721221460654, 2.048132533741140016 ) ) ;
#46 = CARTESIAN_POINT ( 'NONE',  ( -18.61553225692127711, 19.59831721221459944, -2.048132533684608791 ) ) ;
#47 = CARTESIAN_POINT ( 'NONE',  ( -16.68299418468280138, 19.59831721221459944, -2.264228692728389891 ) ) ;
#48 = DIRECTION ( 'NONE',  ( -5.157842598702879918E-19, -1.000000000000000000, 1.217627280581126066E-18 ) ) ;
#49 = CARTESIAN_POINT ( 'NONE',  ( -8.380473427902773054, 25.59831721221460654, 14.25453690329382184 ) ) ;
#50 = CARTESIAN_POINT ( 'NONE',  ( 6.625199712165483312, 19.89831721221460725, -15.24097017154280032 ) ) ;
#51 = CARTESIAN_POINT ( 'NONE',  ( -13.28639508633637867, 19.59831721221459944, -10.28161979504087853 ) ) ;
#52 = CARTESIAN_POINT ( 'NONE',  ( -4.947709694856399845E-15, 25.59831721221460299, -3.652206340359804987E-16 ) ) ;
#53 = CARTESIAN_POINT ( 'NONE',  ( 16.56637431156555351, 19.89831721221459659, -1.317454046650388344 ) ) ;
#54 = PLANE ( 'NONE',  #7 ) ;
#55 = CARTESIAN_POINT ( 'NONE',  ( 14.63984326033036787, 19.89831721221460370, 7.741904500500181641 ) ) ;
#56 = EDGE_CURVE ( 'NONE', #581, #396, #382, .T. ) ;
#57 = CARTESIAN_POINT ( 'NONE',  ( -16.80416423417210225, 19.59831721221459944, 1.033968534388305827 ) ) ;
#58 = DIRECTION ( 'NONE',  ( 0.000000000000000000, 0.000000000000000000, 1.000000000000000000 ) ) ;
#59 =( LENGTH_UNIT ( ) NAMED_UNIT ( * ) SI_UNIT ( .MILLI., .METRE. ) );
#60 = VECTOR ( 'NONE', #48, 1000.000000000000000 ) ;
#61 = DIRECTION ( 'NONE',  ( 0.9238795325112849621, -5.236901059552625507E-16, 0.3826834323650940561 ) ) ;
#62 = ORIENTED_EDGE ( 'NONE', *, *, #255, .F. ) ;
#63 = ORIENTED_EDGE ( 'NONE', *, *, #43, .T. ) ;
#64 = CARTESIAN_POINT ( 'NONE',  ( 13.91725172153964962, 19.89831721221460370, 8.976201897306406607 ) ) ;
#65 = DIRECTION ( 'NONE',  ( -1.441531654556315956E-16, 1.000000000000000000, 1.149410246294365984E-18 ) ) ;
#66 = CARTESIAN_POINT ( 'NONE',  ( -13.54792889294462732, 19.59831721221459588, -12.92557988897285348 ) ) ;
#67 = CARTESIAN_POINT ( 'NONE',  ( 15.52729643348445165, 19.59831721221459944, 6.507848492845769606 ) ) ;
#68 = ADVANCED_FACE ( 'NONE', ( #180 ), #193, .T. ) ;
#69 = CARTESIAN_POINT ( 'NONE',  ( -16.49079256046136877, 25.59831721221460654, -1.214733703851855751 ) ) ;
#70 = VERTEX_POINT ( 'NONE', #286 ) ;
#71 = CARTESIAN_POINT ( 'NONE',  ( 16.80416423417210225, 19.59831721221459944, -1.033968534388265859 ) ) ;
#72 = CARTESIAN_POINT ( 'NONE',  ( -18.70008749569910123, 19.59831721221459944, -2.414386052948824888E-08 ) ) ;
#73 = CARTESIAN_POINT ( 'NONE',  ( 15.19311824586789861, 19.89831721221460015, 6.435771746036070162 ) ) ;
#74 = CARTESIAN_POINT ( 'NONE',  ( 13.28639508633637867, 19.59831721221459944, 10.28161979504089985 ) ) ;
#75 = TOROIDAL_SURFACE ( 'NONE', #362, 16.80000000000000071, 0.2999999999999999889 ) ;
#76 = CARTESIAN_POINT ( 'NONE',  ( -4.732317559215478475, 19.89831721221460370, 15.93065012843718975 ) ) ;
#77 = CARTESIAN_POINT ( 'NONE',  ( -15.19311824586789861, 19.89831721221460015, -6.435771746036079932 ) ) ;
#78 = ORIENTED_EDGE ( 'NONE', *, *, #600, .F. ) ;
#79 = CARTESIAN_POINT ( 'NONE',  ( -4.292430930584679061, 19.59831721221459944, -16.27955967602605014 ) ) ;
#80 = CARTESIAN_POINT ( 'NONE',  ( -15.96639942423936098, 19.89831721221460015, -4.610263812579958653 ) ) ;
#81 = CARTESIAN_POINT ( 'NONE',  ( 24.48280761154904894, -44.16968881141595205, 10.14111095767507997 ) ) ;
#82 = DIRECTION ( 'NONE',  ( 1.000000000000000000, 0.000000000000000000, 0.000000000000000000 ) ) ;
#83 = CARTESIAN_POINT ( 'NONE',  ( -13.28639508633637867, 19.59831721221459944, -10.28161979504087853 ) ) ;
#84 = ADVANCED_FACE ( 'NONE', ( #240 ), #75, .F. ) ;
#85 = CARTESIAN_POINT ( 'NONE',  ( -5.188485493056842479, 25.59831721221460299, -15.70036418468015071 ) ) ;
#86 = ORIENTED_EDGE ( 'NONE', *, *, #157, .F. ) ;
#87 = CARTESIAN_POINT ( 'NONE',  ( -11.85490557157759817, 19.59831721221459944, -11.95450711774063990 ) ) ;
#88 = CARTESIAN_POINT ( 'NONE',  ( -9.962406554153147908, 25.59831721221460299, -13.19752298171655269 ) ) ;
#89 = AXIS2_PLACEMENT_3D ( 'NONE', #185, #571, #61 ) ;
#90 = EDGE_CURVE ( 'NONE', #553, #396, #591, .T. ) ;
#91 = CARTESIAN_POINT ( 'NONE',  ( 9.294908242029460865, 19.59831721221459944, 14.03758196098551991 ) ) ;
#92 = CARTESIAN_POINT ( 'NONE',  ( 11.15121231995606088, 19.59831721221459944, -12.61346464435500181 ) ) ;
#93 = CARTESIAN_POINT ( 'NONE',  ( 15.19311824586789861, 25.59831721221460299, 6.435771746036060392 ) ) ;
#94 = EDGE_CURVE ( 'NONE', #553, #371, #409, .T. ) ;
#95 = CARTESIAN_POINT ( 'NONE',  ( -11.83582458862088949, 19.89831721221460370, -11.66592042246698036 ) ) ;
#96 = DIRECTION ( 'NONE',  ( 1.000000000000000000, 0.000000000000000000, 0.000000000000000000 ) ) ;
#97 = CARTESIAN_POINT ( 'NONE',  ( -10.17180762722245646, 25.59831721221460299, 13.03672300993926214 ) ) ;
#98 = CARTESIAN_POINT ( 'NONE',  ( 0.8238536367089148715, 19.89831721221460725, -16.59824412946189653 ) ) ;
#99 =( LENGTH_UNIT ( ) NAMED_UNIT ( * ) SI_UNIT ( .MILLI., .METRE. ) );
#100 = AXIS2_PLACEMENT_3D ( 'NONE', #164, #439, #118 ) ;
#101 = CARTESIAN_POINT ( 'NONE',  ( -1.190635186155642344, 19.89831721221460015, -16.57597149036589101 ) ) ;
#102 = CARTESIAN_POINT ( 'NONE',  ( -12.66710060998810228, 19.59831721221459588, 13.78989481300336983 ) ) ;
#103 = CARTESIAN_POINT ( 'NONE',  ( -4.947709694856399845E-15, 25.59831721221460299, -3.652206340359804987E-16 ) ) ;
#104 = CARTESIAN_POINT ( 'NONE',  ( -1.178202273718795858E-14, -44.16968881141595205, 8.277585683506948976E-14 ) ) ;
#105 = CARTESIAN_POINT ( 'NONE',  ( -2.825159463744324774E-15, 19.59831721221459944, 2.252650661384670042E-17 ) ) ;
#106 = FACE_OUTER_BOUND ( 'NONE', #415, .T. ) ;
#107 = PRESENTATION_STYLE_ASSIGNMENT (( #484 ) ) ;
#108 = VECTOR ( 'NONE', #182, 1000.000000000000000 ) ;
#109 = PLANE ( 'NONE',  #192 ) ;
#110 = CARTESIAN_POINT ( 'NONE',  ( 14.02702257336959946, 19.59831721221460654, -12.40392678180966790 ) ) ;
#111 = FACE_OUTER_BOUND ( 'NONE', #163, .T. ) ;
#112 =( GEOMETRIC_REPRESENTATION_CONTEXT ( 3 ) GLOBAL_UNCERTAINTY_ASSIGNED_CONTEXT ( ( #298 ) ) GLOBAL_UNIT_ASSIGNED_CONTEXT ( ( #59, #188, #142 ) ) REPRESENTATION_CONTEXT ( 'NONE', 'WORKASPACE' ) );
#113 = CARTESIAN_POINT ( 'NONE',  ( -11.38418446573728815, 19.59831721221459944, -14.86695931587938624 ) ) ;
#114 = CARTESIAN_POINT ( 'NONE',  ( 13.95932552831765960, 19.59831721221459944, 9.412027270125840062 ) ) ;
#115 = CARTESIAN_POINT ( 'NONE',  ( -4.408586967269566337, 25.59831721221460299, 15.93694381603551946 ) ) ;
#116 = B_SPLINE_CURVE_WITH_KNOTS ( 'NONE', 3,
 ( #20, #114, #495, #67, #253, #446, #309, #497, #71, #467, #454, #557, #276, #588, #584, #508, #92, #364, #171, #134, #261, #123, #425, #167, #463, #139, #79, #326, #515, #512, #265, #87, #359, #83 ),
 .UNSPECIFIED., .F., .F.,
 ( 4, 2, 2, 2, 2, 2, 2, 2, 2, 2, 2, 2, 2, 2, 2, 2, 4 ),
 ( 0.000000000000000000, 0.06250000000000000000, 0.1250000000000000000, 0.1875000000000000000, 0.2500000000000000000, 0.3125000000000000000, 0.3750000000000000000, 0.4375000000000000000, 0.5000000000000000000, 0.5625000000000000000, 0.6250000000000000000, 0.6875000000000000000, 0.7500000000000000000, 0.8125000000000000000, 0.8750000000000000000, 0.9375000000000000000, 1.000000000000000000 ),
 .UNSPECIFIED. ) ;
#117 = VERTEX_POINT ( 'NONE', #346 ) ;
#118 = DIRECTION ( 'NONE',  ( 0.7908568503771647995, 1.152781823383301347E-16, 0.6120011782762438957 ) ) ;
#119 = APPLICATION_CONTEXT ( 'automotive_design' ) ;
#120 = CARTESIAN_POINT ( 'NONE',  ( -13.04913803122324190, 19.89831721221460015, -10.09801944155801934 ) ) ;
#121 = EDGE_CURVE ( 'NONE', #514, #452, #538, .T. ) ;
#122 = VERTEX_POINT ( 'NONE', #360 ) ;
#123 = CARTESIAN_POINT ( 'NONE',  ( 3.353576747629090082, 19.59831721221459944, -16.49856204452060027 ) ) ;
#124 = AXIS2_PLACEMENT_3D ( 'NONE', #378, #173, #229 ) ;
#125 = CARTESIAN_POINT ( 'NONE',  ( 16.41090939490970868, 25.59831721221459588, -2.025801094648623568 ) ) ;
#126 = CARTESIAN_POINT ( 'NONE',  ( 13.04913803122320104, 19.89831721221460015, 10.09801944155801934 ) ) ;
#127 = CARTESIAN_POINT ( 'NONE',  ( -24.48280761154904894, -44.16968881141595205, -10.14111095767490056 ) ) ;
#128 = CARTESIAN_POINT ( 'NONE',  ( 24.48280761154904894, -52.90168278778539701, 10.14111095767500004 ) ) ;
#129 = DIRECTION ( 'NONE',  ( 1.485442060901259935E-15, 1.000000000000000000, -2.217706174520570374E-15 ) ) ;
#130 = VERTEX_POINT ( 'NONE', #373 ) ;
#131 = CARTESIAN_POINT ( 'NONE',  ( -18.70008749569910123, 19.59831721221459944, -2.414386052948824888E-08 ) ) ;
#132 = CARTESIAN_POINT ( 'NONE',  ( 16.37654322661611062, 25.59831721221460299, 2.287572763879321514 ) ) ;
#133 = CARTESIAN_POINT ( 'NONE',  ( -13.28639508633637867, 19.59831721221459944, -10.28161979504087853 ) ) ;
#134 = CARTESIAN_POINT ( 'NONE',  ( 6.507848492845749178, 19.59831721221459944, -15.52729643348445165 ) ) ;
#135 = CARTESIAN_POINT ( 'NONE',  ( 6.960554140175283955, 19.89831721221460015, 15.09076303762084592 ) ) ;
#136 = EDGE_CURVE ( 'NONE', #130, #155, #485, .T. ) ;
#137 = CIRCLE ( 'NONE', #414, 18.70000000000000284 ) ;
#138 = CARTESIAN_POINT ( 'NONE',  ( 16.28523145892323853, 19.89831721221460015, -3.312352536375272827 ) ) ;
#139 = CARTESIAN_POINT ( 'NONE',  ( -3.215425434445255082, 19.59831721221459944, -16.52604204928260145 ) ) ;
#140 = CARTESIAN_POINT ( 'NONE',  ( -16.56637431156556417, 19.89831721221460370, 1.317454046650404997 ) ) ;
#141 = CARTESIAN_POINT ( 'NONE',  ( -16.27955967602605014, 19.59831721221459944, 4.292430930584699489 ) ) ;
#142 =( NAMED_UNIT ( * ) SI_UNIT ( $, .STERADIAN. ) SOLID_ANGLE_UNIT ( ) );
#143 = CARTESIAN_POINT ( 'NONE',  ( -0.07042892870853190157, 19.59831721221459944, 16.83579716868595000 ) ) ;
#144 = CARTESIAN_POINT ( 'NONE',  ( -10.80180482980493828, 25.59831721221460299, -12.51969766382866744 ) ) ;
#145 = CARTESIAN_POINT ( 'NONE',  ( 13.16255006886984091, 19.63064914113164861, 10.18578285997861954 ) ) ;
#146 = AXIS2_PLACEMENT_3D ( 'NONE', #560, #217, #593 ) ;
#147 = CARTESIAN_POINT ( 'NONE',  ( -11.95450711774063990, 19.59831721221459944, 11.85490557157761948 ) ) ;
#148 = CARTESIAN_POINT ( 'NONE',  ( -3.257618960111219980E-15, 22.59831721221459944, 2.597473735272980434E-17 ) ) ;
#149 = FACE_OUTER_BOUND ( 'NONE', #177, .T. ) ;
#150 = EDGE_CURVE ( 'NONE', #122, #452, #474, .T. ) ;
#151 = ORIENTED_EDGE ( 'NONE', *, *, #271, .F. ) ;
#152 = CARTESIAN_POINT ( 'NONE',  ( 6.299625473735234849, 19.59831721221459944, 17.63351508353503405 ) ) ;
#153 = EDGE_CURVE ( 'NONE', #211, #23, #568, .T. ) ;
#154 = FACE_OUTER_BOUND ( 'NONE', #299, .T. ) ;
#155 = VERTEX_POINT ( 'NONE', #128 ) ;
#156 = CARTESIAN_POINT ( 'NONE',  ( -1.578424583505092293, 19.59831721221460654, -18.65806361109907030 ) ) ;
#157 = EDGE_CURVE ( 'NONE', #70, #117, #440, .T. ) ;
#158 = CARTESIAN_POINT ( 'NONE',  ( -6.299625473545614973, 19.59831721221459944, -17.63351508361058251 ) ) ;
#159 = STYLED_ITEM ( 'NONE', ( #107 ), #301 ) ;
#160 = CARTESIAN_POINT ( 'NONE',  ( -3.502155873458693502, 19.59831721221460299, -18.39433448253973324 ) ) ;
#161 = PRODUCT ( 'ASV1_300_20X.STEP', 'ASV1_300_20X.STEP', '', ( #388 ) ) ;
#162 = CARTESIAN_POINT ( 'NONE',  ( 8.151779303764294937, 25.59831721221460299, 14.38646278366522857 ) ) ;
#163 = EDGE_LOOP ( 'NONE', ( #419, #536, #437, #587, #272 ) ) ;
#164 = CARTESIAN_POINT ( 'NONE',  ( -5.671524550916789963E-15, 19.89831721221460015, -3.384052709734709963E-16 ) ) ;
#165 = CARTESIAN_POINT ( 'NONE',  ( -13.19752298171977323, 25.59831721221460654, 9.962406554148465432 ) ) ;
#166 = ORIENTED_EDGE ( 'NONE', *, *, #453, .T. ) ;
#167 = CARTESIAN_POINT ( 'NONE',  ( 0.07042892870855689547, 19.59831721221459944, -16.83579716868599974 ) ) ;
#168 = CARTESIAN_POINT ( 'NONE',  ( -15.19311824586789861, 19.89831721221460015, -6.435771746036079932 ) ) ;
#169 = CARTESIAN_POINT ( 'NONE',  ( -17.14515726825602115, 19.59831721221459233, 7.527173714555955186 ) ) ;
#170 = EDGE_LOOP ( 'NONE', ( #35, #311, #368, #78, #492 ) ) ;
#171 = CARTESIAN_POINT ( 'NONE',  ( 8.476180022857800367, 19.59831721221459944, -14.54659406044039827 ) ) ;
#172 = PRODUCT_DEFINITION_FORMATION_WITH_SPECIFIED_SOURCE ( 'Symmetric', '', #161, .NOT_KNOWN. ) ;
#173 = DIRECTION ( 'NONE',  ( -1.488156356394548084E-15, -1.000000000000000000, 2.094760423821050203E-15 ) ) ;
#174 = EDGE_LOOP ( 'NONE', ( #466, #595 ) ) ;
#175 = DIRECTION ( 'NONE',  ( 0.000000000000000000, -1.000000000000000000, 4.031734505761719585E-19 ) ) ;
#176 = CARTESIAN_POINT ( 'NONE',  ( 5.083383350598918327, 19.89831721221460370, 15.82212554326341625 ) ) ;
#177 = EDGE_LOOP ( 'NONE', ( #220, #294, #166, #247 ) ) ;
#178 = CARTESIAN_POINT ( 'NONE',  ( 18.02705346093724614, 19.59831721221460654, 5.076311821505807842 ) ) ;
#179 = CARTESIAN_POINT ( 'NONE',  ( -11.57500079533364890, 19.89831721221460015, 11.92475574525367499 ) ) ;
#180 = FACE_OUTER_BOUND ( 'NONE', #592, .T. ) ;
#181 = CARTESIAN_POINT ( 'NONE',  ( 18.70004373827533328, 19.59831721221460299, 1.026493989362241566 ) ) ;
#182 = DIRECTION ( 'NONE',  ( 0.000000000000000000, -1.000000000000000000, -1.149410246294365984E-18 ) ) ;
#183 = AXIS2_PLACEMENT_3D ( 'NONE', #148, #481, #96 ) ;
#184 = CARTESIAN_POINT ( 'NONE',  ( -5.671524550916789963E-15, 19.89831721221460015, -3.384052709734709963E-16 ) ) ;
#185 = CARTESIAN_POINT ( 'NONE',  ( -1.178202273718795858E-14, -44.16968881141595205, 8.277585683506948976E-14 ) ) ;
#186 = CARTESIAN_POINT ( 'NONE',  ( -10.38680556283361334, 19.59831721221459588, 15.58012854602772812 ) ) ;
#187 = CARTESIAN_POINT ( 'NONE',  ( -13.95932552831770046, 19.59831721221459944, -9.412027270125809864 ) ) ;
#188 =( NAMED_UNIT ( * ) PLANE_ANGLE_UNIT ( ) SI_UNIT ( $, .RADIAN. ) );
#189 = ADVANCED_FACE ( 'NONE', ( #230 ), #565, .T. ) ;
#190 = CARTESIAN_POINT ( 'NONE',  ( -15.52729643348445165, 19.59831721221459944, -6.507848492845729638 ) ) ;
#191 = CARTESIAN_POINT ( 'NONE',  ( 8.952747527392212135, 19.59831721221459588, 16.44581857275353087 ) ) ;
#192 = AXIS2_PLACEMENT_3D ( 'NONE', #105, #65, #397 ) ;
#193 = CYLINDRICAL_SURFACE ( 'NONE', #566, 26.49999999999999645 ) ;
#194 = CARTESIAN_POINT ( 'NONE',  ( -2.009088019916770218, -52.90168278778539701, 4.850367545684349579 ) ) ;
#195 = CARTESIAN_POINT ( 'NONE',  ( -11.93839651386911349, 19.59831721221459944, 14.42562677248386471 ) ) ;
#196 = APPLICATION_PROTOCOL_DEFINITION ( 'draft international standard', 'automotive_design', 1998, #119 ) ;
#197 = EDGE_LOOP ( 'NONE', ( #63, #19 ) ) ;
#198 = CARTESIAN_POINT ( 'NONE',  ( 0.6130609887999839414, 19.59831721221459944, 18.71497506101863806 ) ) ;
#199 = ORIENTED_EDGE ( 'NONE', *, *, #506, .F. ) ;
#200 = CARTESIAN_POINT ( 'NONE',  ( 17.14515726823082886, 19.59831721221460299, -7.527173714603028643 ) ) ;
#201 = AXIS2_PLACEMENT_3D ( 'NONE', #269, #411, #36 ) ;
#202 = VERTEX_POINT ( 'NONE', #26 ) ;
#203 = CARTESIAN_POINT ( 'NONE',  ( -4.947709694856399845E-15, 25.59831721221460299, -3.652206340359804987E-16 ) ) ;
#204 = UNCERTAINTY_MEASURE_WITH_UNIT (LENGTH_MEASURE( 1.000000000000000082E-05 ), #99, 'distance_accuracy_value', 'NONE');
#205 = ORIENTED_EDGE ( 'NONE', *, *, #136, .T. ) ;
#206 = CARTESIAN_POINT ( 'NONE',  ( -0.6130609887328941632, 19.59831721221460299, -18.71497506102383568 ) ) ;
#207 = CARTESIAN_POINT ( 'NONE',  ( 18.10180303309696015, 19.59831721221460299, -4.790484962924465684 ) ) ;
#208 = CARTESIAN_POINT ( 'NONE',  ( -2.287572763793701558, 25.59831721221460299, 16.37654322662337947 ) ) ;
#209 = AXIS2_PLACEMENT_3D ( 'NONE', #103, #422, #490 ) ;
#210 = CIRCLE ( 'NONE', #259, 18.70000000000000284 ) ;
#211 = VERTEX_POINT ( 'NONE', #258 ) ;
#212 = EDGE_CURVE ( 'NONE', #396, #211, #526, .T. ) ;
#213 = CARTESIAN_POINT ( 'NONE',  ( 16.27351094229176454, 19.59831721221460299, -9.262260978208388451 ) ) ;
#214 = PRODUCT_DEFINITION_SHAPE ( 'NONE', 'NONE',  #424 ) ;
#215 = CARTESIAN_POINT ( 'NONE',  ( -16.50815584768362854, 25.59831721221461009, 0.9512873970124315903 ) ) ;
#216 = ORIENTED_EDGE ( 'NONE', *, *, #343, .T. ) ;
#217 = DIRECTION ( 'NONE',  ( 0.000000000000000000, -1.000000000000000000, -1.149410246294365984E-18 ) ) ;
#218 = CARTESIAN_POINT ( 'NONE',  ( 5.438522786223557226, 25.59831721221460299, -15.61558923341963556 ) ) ;
#219 = CARTESIAN_POINT ( 'NONE',  ( -18.32478675756182440, 19.59831721221459944, 3.849528490288558036 ) ) ;
#220 = ORIENTED_EDGE ( 'NONE', *, *, #150, .T. ) ;
#221 = FACE_BOUND ( 'NONE', #197, .T. ) ;
#222 = CARTESIAN_POINT ( 'NONE',  ( 1.190635186155629022, 19.89831721221460015, 16.57597149036589101 ) ) ;
#223 = CARTESIAN_POINT ( 'NONE',  ( 7.196272697394022089, 25.59831721221461009, 14.88750538095319165 ) ) ;
#224 = VERTEX_POINT ( 'NONE', #357 ) ;
#225 = CARTESIAN_POINT ( 'NONE',  ( -3.257618960111219980E-15, 22.59831721221459944, 2.597473735272980434E-17 ) ) ;
#226 = CARTESIAN_POINT ( 'NONE',  ( -7.196272697406069341, 25.59831721221460654, -14.88750538094604714 ) ) ;
#227 = ORIENTED_EDGE ( 'NONE', *, *, #56, .T. ) ;
#228 = CARTESIAN_POINT ( 'NONE',  ( 14.78902310205299919, 19.59831721221459944, 11.44442203376575939 ) ) ;
#229 = DIRECTION ( 'NONE',  ( 0.000000000000000000, 2.094760423821050203E-15, 1.000000000000000000 ) ) ;
#230 = FACE_OUTER_BOUND ( 'NONE', #170, .T. ) ;
#231 = EDGE_CURVE ( 'NONE', #155, #488, #447, .T. ) ;
#232 = DIRECTION ( 'NONE',  ( 0.7908568503771647995, 1.152781823383301347E-16, 0.6120011782762438957 ) ) ;
#233 = LINE ( 'NONE', #127, #292 ) ;
#234 = CARTESIAN_POINT ( 'NONE',  ( 15.93694381604278121, 25.59831721221460299, 4.408586967184028538 ) ) ;
#235 = B_SPLINE_CURVE_WITH_KNOTS ( 'NONE', 3,
 ( #13, #352, #345, #493, #207, #257, #200, #213, #501, #444, #110, #579, #403, #449, #399, #441, #575, #546, #304, #312, #347, #206, #156, #160, #296, #158, #24, #395, #537, #113, #21, #66, #539, #491 ),
 .UNSPECIFIED., .F., .F.,
 ( 4, 2, 2, 2, 2, 2, 2, 2, 2, 2, 2, 2, 2, 2, 2, 2, 4 ),
 ( 0.000000000000000000, 0.06250000000000002776, 0.1250000000000000555, 0.1875000000000000833, 0.2500000000000000555, 0.3125000000000000000, 0.3750000000000000000, 0.4375000000000000000, 0.5000000000000000000, 0.5625000000000000000, 0.6250000000000000000, 0.6875000000000001110, 0.7500000000000001110, 0.8125000000000001110, 0.8750000000000001110, 0.9375000000000001110, 1.000000000000000000 ),
 .UNSPECIFIED. ) ;
#236 = DIRECTION ( 'NONE',  ( 0.9238795325112849621, -5.236901059552625507E-16, 0.3826834323650940561 ) ) ;
#237 = AXIS2_PLACEMENT_3D ( 'NONE', #384, #58, #531 ) ;
#238 = CARTESIAN_POINT ( 'NONE',  ( 15.03705292130408466, 19.89831721221460370, -7.075837931851966189 ) ) ;
#239 = CARTESIAN_POINT ( 'NONE',  ( -4.195469707250497393, 19.59831721221459944, 18.24863819077768312 ) ) ;
#240 = FACE_OUTER_BOUND ( 'NONE', #264, .T. ) ;
#241 = CYLINDRICAL_SURFACE ( 'NONE', #89, 26.49999999999999645 ) ;
#242 = B_SPLINE_CURVE_WITH_KNOTS ( 'NONE', 3,
 ( #380, #564, #249, #145, #529, #287 ),
 .UNSPECIFIED., .F., .F.,
 ( 4, 2, 4 ),
 ( 0.000000000000000000, 0.5000000000000000000, 1.000000000000000000 ),
 .UNSPECIFIED. ) ;
#243 = CARTESIAN_POINT ( 'NONE',  ( 14.19691241098461099, 19.59831721221460299, 12.20957545639791952 ) ) ;
#244 = CARTESIAN_POINT ( 'NONE',  ( -6.507848492845719868, 19.59831721221459944, 15.52729643348445165 ) ) ;
#245 = CARTESIAN_POINT ( 'NONE',  ( -14.02702257338042813, 19.59831721221459588, 12.40392678179870423 ) ) ;
#246 = EDGE_CURVE ( 'NONE', #117, #70, #277, .T. ) ;
#247 = ORIENTED_EDGE ( 'NONE', *, *, #353, .T. ) ;
#248 = FACE_OUTER_BOUND ( 'NONE', #260, .T. ) ;
#249 = CARTESIAN_POINT ( 'NONE',  ( 13.07470795869318181, 19.74172121458561691, 10.11780662015121024 ) ) ;
#250 = CARTESIAN_POINT ( 'NONE',  ( 18.70000000000000284, 97.55163601798868456, 1.121268499818547791E-16 ) ) ;
#251 = ORIENTED_EDGE ( 'NONE', *, *, #231, .T. ) ;
#252 = DIRECTION ( 'NONE',  ( 0.9207950452041149259, 0.000000000000000000, 0.3900467724870340658 ) ) ;
#253 = CARTESIAN_POINT ( 'NONE',  ( 15.92070602460700002, 19.59831721221459944, 5.475412880977639674 ) ) ;
#254 = CARTESIAN_POINT ( 'NONE',  ( -14.38646278367115627, 25.59831721221460299, 8.151779303756173434 ) ) ;
#255 = EDGE_CURVE ( 'NONE', #452, #398, #18, .T. ) ;
#256 = CARTESIAN_POINT ( 'NONE',  ( -3.257618960111219980E-15, 22.59831721221459944, 2.597473735272980434E-17 ) ) ;
#257 = CARTESIAN_POINT ( 'NONE',  ( 17.51118563071823786, 19.59831721221460654, -6.632082105426215790 ) ) ;
#258 = CARTESIAN_POINT ( 'NONE',  ( -15.19311824586789861, 19.89831721221460015, -6.435771746036079932 ) ) ;
#259 = AXIS2_PLACEMENT_3D ( 'NONE', #318, #500, #82 ) ;
#260 = EDGE_LOOP ( 'NONE', ( #576, #39 ) ) ;
#261 = CARTESIAN_POINT ( 'NONE',  ( 5.475412880977619245, 19.59831721221459944, -15.92070602460700002 ) ) ;
#262 = CARTESIAN_POINT ( 'NONE',  ( -10.04701976203028835, 19.89831721221460370, 13.23774289285404748 ) ) ;
#263 = CARTESIAN_POINT ( 'NONE',  ( 9.962406554140377679, 25.59831721221461009, 13.19752298172564942 ) ) ;
#264 = EDGE_LOOP ( 'NONE', ( #303, #27, #151, #496, #11 ) ) ;
#265 = CARTESIAN_POINT ( 'NONE',  ( -10.19560685569952163, 19.59831721221459944, -13.39770978127032031 ) ) ;
#266 = CARTESIAN_POINT ( 'NONE',  ( 16.50815584768988842, 25.59831721221460654, -0.9512873969377408923 ) ) ;
#267 = CARTESIAN_POINT ( 'NONE',  ( -16.37654322662361750, 25.59831721221460299, -2.287572763798477293 ) ) ;
#268 = EDGE_LOOP ( 'NONE', ( #394, #216, #545, #62, #507 ) ) ;
#269 = CARTESIAN_POINT ( 'NONE',  ( -18.73832970144309940, 22.59831721221459944, 18.73832970144394849 ) ) ;
#270 = CARTESIAN_POINT ( 'NONE',  ( 13.04913803122320104, 19.89831721221460015, 10.09801944155801934 ) ) ;
#271 = EDGE_CURVE ( 'NONE', #23, #581, #374, .T. ) ;
#272 = ORIENTED_EDGE ( 'NONE', *, *, #90, .F. ) ;
#273 = CARTESIAN_POINT ( 'NONE',  ( 16.95292789605284511, 19.59831721221459944, 7.958014880371059974 ) ) ;
#274 = VECTOR ( 'NONE', #577, 1000.000000000000000 ) ;
#275 = CARTESIAN_POINT ( 'NONE',  ( -2.025801094604795516, 25.59831721221460299, -16.41090939492271517 ) ) ;
#276 = CARTESIAN_POINT ( 'NONE',  ( 15.12934076921260029, 19.59831721221459944, -7.385937613341669206 ) ) ;
#277 = B_SPLINE_CURVE_WITH_KNOTS ( 'NONE', 3,
 ( #366, #332, #350, #267, #69, #215, #461, #590, #307, #523, #254, #165, #22, #34, #97, #49, #313, #401, #115, #208, #30, #361, #580, #505, #310, #223, #162, #263, #354, #544, #498, #457, #413, #404 ),
 .UNSPECIFIED., .F., .F.,
 ( 4, 2, 2, 2, 2, 2, 2, 2, 2, 2, 2, 2, 2, 2, 2, 2, 4 ),
 ( 0.000000000000000000, 0.06249999999999988898, 0.1249999999999998057, 0.1874999999999996947, 0.2499999999999995559, 0.3124999999999995559, 0.3749999999999995559, 0.4374999999999995559, 0.4999999999999995559, 0.5624999999999995559, 0.6249999999999995559, 0.6874999999999995559, 0.7499999999999995559, 0.8124999999999996669, 0.8749999999999997780, 0.9374999999999998890, 1.000000000000000000 ),
 .UNSPECIFIED. ) ;
#278 = CARTESIAN_POINT ( 'NONE',  ( 15.61562612103776182, 25.59831721221459944, 5.438344807888353394 ) ) ;
#279 = CARTESIAN_POINT ( 'NONE',  ( -13.22428133455674981, 19.59831721221459233, -10.23355333489932839 ) ) ;
#280 = DIRECTION ( 'NONE',  ( 0.000000000000000000, -2.216581876514960309E-15, -1.000000000000000000 ) ) ;
#281 = CARTESIAN_POINT ( 'NONE',  ( -13.39770978127032031, 19.59831721221459944, 10.19560685569953939 ) ) ;
#282 = CARTESIAN_POINT ( 'NONE',  ( 15.19311824586789861, 25.59831721221460299, 6.435771746036060392 ) ) ;
#283 = CARTESIAN_POINT ( 'NONE',  ( 3.502155873597454949, 19.59831721221459944, 18.39433448251669390 ) ) ;
#284 = CARTESIAN_POINT ( 'NONE',  ( -5.083383350598936090, 19.89831721221460725, -15.82212554326341625 ) ) ;
#285 = CARTESIAN_POINT ( 'NONE',  ( -15.77378795488546004, 19.59831721221459233, 10.09017505576622220 ) ) ;
#286 = CARTESIAN_POINT ( 'NONE',  ( 15.19311824586789861, 25.59831721221460299, 6.435771746036060392 ) ) ;
#287 = CARTESIAN_POINT ( 'NONE',  ( 13.28639508633637867, 19.59831721221459944, 10.28161979504089985 ) ) ;
#288 = EDGE_CURVE ( 'NONE', #23, #371, #242, .T. ) ;
#289 = B_SPLINE_CURVE_WITH_KNOTS ( 'NONE', 3,
 ( #228, #320, #416, #273, #599, #178, #377, #45, #181, #406 ),
 .UNSPECIFIED., .F., .F.,
 ( 4, 2, 2, 2, 4 ),
 ( 0.000000000000000000, 0.2500000000000000000, 0.5000000000000000000, 0.7500000000000000000, 1.000000000000000000 ),
 .UNSPECIFIED. ) ;
#290 =( NAMED_UNIT ( * ) SI_UNIT ( $, .STERADIAN. ) SOLID_ANGLE_UNIT ( ) );
#291 = CARTESIAN_POINT ( 'NONE',  ( -9.568436083970345507, 19.59831721221460299, 16.09533450380348540 ) ) ;
#292 = VECTOR ( 'NONE', #596, 1000.000000000000000 ) ;
#293 = PRODUCT_RELATED_PRODUCT_CATEGORY ( 'part', '', ( #161 ) ) ;
#294 = ORIENTED_EDGE ( 'NONE', *, *, #255, .T. ) ;
#295 = CARTESIAN_POINT ( 'NONE',  ( -16.27351094226668238, 19.59831721221459588, 9.262260978255380195 ) ) ;
#296 = CARTESIAN_POINT ( 'NONE',  ( -4.447184852619107787, 19.59831721221460299, -18.18918816186551624 ) ) ;
#297 = CARTESIAN_POINT ( 'NONE',  ( 11.85490557157761948, 19.59831721221459944, 11.95450711774062036 ) ) ;
#298 = UNCERTAINTY_MEASURE_WITH_UNIT (LENGTH_MEASURE( 1.000000000000000082E-05 ), #59, 'distance_accuracy_value', 'NONE');
#299 = EDGE_LOOP ( 'NONE', ( #86, #308, #227, #322, #199 ) ) ;
#300 = DIRECTION ( 'NONE',  ( -1.488156356394548084E-15, -1.000000000000000000, 2.094760423821050203E-15 ) ) ;
#301 = MANIFOLD_SOLID_BREP ( 'NONE', #14 ) ;
#302 = TOROIDAL_SURFACE ( 'NONE', #100, 16.80000000000000071, 0.2999999999999999889 ) ;
#303 = ORIENTED_EDGE ( 'NONE', *, *, #90, .T. ) ;
#304 = CARTESIAN_POINT ( 'NONE',  ( 4.195469707188350661, 19.59831721221460299, -18.24863819078531435 ) ) ;
#305 = ADVANCED_FACE ( 'NONE', ( #248 ), #570, .T. ) ;
#306 = CARTESIAN_POINT ( 'NONE',  ( 12.61346464435504089, 19.59831721221459944, 11.15121231995602002 ) ) ;
#307 = CARTESIAN_POINT ( 'NONE',  ( -15.70036418468605888, 25.59831721221460299, 5.188485493048164088 ) ) ;
#308 = ORIENTED_EDGE ( 'NONE', *, *, #600, .T. ) ;
#309 = CARTESIAN_POINT ( 'NONE',  ( 16.68299418468275164, 19.59831721221459944, 2.264228692728429859 ) ) ;
#310 = CARTESIAN_POINT ( 'NONE',  ( 5.188485493068847987, 25.59831721221460299, 15.70036418467301154 ) ) ;
#311 = ORIENTED_EDGE ( 'NONE', *, *, #153, .T. ) ;
#312 = CARTESIAN_POINT ( 'NONE',  ( 2.283109165190443601, 19.59831721221459944, -18.58504908137817679 ) ) ;
#313 = CARTESIAN_POINT ( 'NONE',  ( -7.433020705855700072, 25.59831721221460299, 14.77064725830856773 ) ) ;
#314 = ADVANCED_BREP_SHAPE_REPRESENTATION ( 'ASV1_300_20X.STEP', ( #301, #237 ), #503 ) ;
#315 = ORIENTED_EDGE ( 'NONE', *, *, #535, .F. ) ;
#316 = FACE_OUTER_BOUND ( 'NONE', #15, .T. ) ;
#317 = CARTESIAN_POINT ( 'NONE',  ( 13.19752298171701632, 25.59831721221460299, -9.962406554151455040 ) ) ;
#318 = CARTESIAN_POINT ( 'NONE',  ( -3.257618960111219980E-15, 22.59831721221459944, 2.597473735272980434E-17 ) ) ;
#319 = ADVANCED_FACE ( 'NONE', ( #532, #149 ), #109, .T. ) ;
#320 = CARTESIAN_POINT ( 'NONE',  ( 15.41701534631422632, 19.59831721221460299, 10.63290077206391793 ) ) ;
#321 = CARTESIAN_POINT ( 'NONE',  ( -0.9512873969437658506, 25.59831721221459944, -16.50815584769336652 ) ) ;
#322 = ORIENTED_EDGE ( 'NONE', *, *, #212, .T. ) ;
#323 = CARTESIAN_POINT ( 'NONE',  ( -18.70000000000000284, 22.59831721221459944, -2.265838892422259687E-15 ) ) ;
#324 = CARTESIAN_POINT ( 'NONE',  ( -15.41701534635832438, 19.59831721221459588, -10.63290077200699635 ) ) ;
#325 = CARTESIAN_POINT ( 'NONE',  ( 7.385937613341719832, 19.59831721221459944, 15.12934076921255055 ) ) ;
#326 = CARTESIAN_POINT ( 'NONE',  ( -6.377712801384679331, 19.59831721221459944, -15.58120040183644939 ) ) ;
#327 = AXIS2_PLACEMENT_3D ( 'NONE', #225, #175, #369 ) ;
#328 = CARTESIAN_POINT ( 'NONE',  ( 11.83582458862086462, 19.89831721221460370, 11.66592042246699457 ) ) ;
#329 = CARTESIAN_POINT ( 'NONE',  ( 10.04701976203027947, 19.89831721221460370, -13.23774289285404748 ) ) ;
#330 = CARTESIAN_POINT ( 'NONE',  ( 24.48280761154904894, 22.59831721221459944, 10.14111095767500004 ) ) ;
#331 = CARTESIAN_POINT ( 'NONE',  ( -14.25463911441892506, 25.59831721221459944, -8.380323092140761432 ) ) ;
#332 = CARTESIAN_POINT ( 'NONE',  ( -15.61562612105587355, 25.59831721221459944, -5.438344807845619577 ) ) ;
#333 = CARTESIAN_POINT ( 'NONE',  ( -15.58120040183644939, 19.59831721221459944, 6.377712801384689989 ) ) ;
#334 = APPLICATION_PROTOCOL_DEFINITION ( 'draft international standard', 'automotive_design', 1998, #349 ) ;
#335 = CARTESIAN_POINT ( 'NONE',  ( -5.132088894151943137, 19.59831721221459944, 18.00799263919348192 ) ) ;
#336 = CARTESIAN_POINT ( 'NONE',  ( 3.215425434445270181, 19.59831721221459944, 16.52604204928260145 ) ) ;
#337 = CARTESIAN_POINT ( 'NONE',  ( -13.03662079881412161, 25.59831721221460299, -10.17195796298443966 ) ) ;
#338 = CARTESIAN_POINT ( 'NONE',  ( -6.962146779748223935, 19.59831721221459944, 17.38253523853341775 ) ) ;
#339 = CARTESIAN_POINT ( 'NONE',  ( -3.353576747629070098, 19.59831721221459944, 16.49856204452060027 ) ) ;
#340 = DIRECTION ( 'NONE',  ( -1.169399601181603932E-17, 1.000000000000000000, -6.389663568734079377E-18 ) ) ;
#341 = FACE_OUTER_BOUND ( 'NONE', #511, .T. ) ;
#342 = CARTESIAN_POINT ( 'NONE',  ( -14.64893723462363972, 19.59831721221459588, 11.66339458334377355 ) ) ;
#343 = EDGE_CURVE ( 'NONE', #202, #541, #400, .T. ) ;
#344 = PRESENTATION_LAYER_ASSIGNMENT (  '', '', ( #159 ) ) ;
#345 = CARTESIAN_POINT ( 'NONE',  ( 18.62489009597619827, 19.59831721221460299, -1.931085590925133211 ) ) ;
#346 = CARTESIAN_POINT ( 'NONE',  ( -15.19311824586789861, 25.59831721221460299, -6.435771746036060392 ) ) ;
#347 = CARTESIAN_POINT ( 'NONE',  ( 1.320579648594388589, 19.59831721221460299, -18.67833205864596735 ) ) ;
#348 = DIRECTION ( 'NONE',  ( -5.157842598702879918E-19, -1.000000000000000000, 1.217627280581126066E-18 ) ) ;
#349 = APPLICATION_CONTEXT ( 'automotive_design' ) ;
#350 = CARTESIAN_POINT ( 'NONE',  ( -15.93694381603528676, 25.59831721221460299, -4.408586967264822576 ) ) ;
#351 = MECHANICAL_DESIGN_GEOMETRIC_PRESENTATION_REPRESENTATION (  '', ( #159 ), #112 ) ;
#352 = CARTESIAN_POINT ( 'NONE',  ( 18.70004375536973384, 19.59831721221460299, -0.9671983517671675079 ) ) ;
#353 = EDGE_CURVE ( 'NONE', #541, #122, #235, .T. ) ;
#354 = CARTESIAN_POINT ( 'NONE',  ( 10.80180482982563817, 25.59831721221460299, 12.51969766380483406 ) ) ;
#355 = ORIENTED_EDGE ( 'NONE', *, *, #445, .T. ) ;
#356 = CARTESIAN_POINT ( 'NONE',  ( 14.78902310205299919, 19.59831721221459944, 11.44442203376575939 ) ) ;
#357 = CARTESIAN_POINT ( 'NONE',  ( -24.48280761154904894, 22.59831721221459944, -10.14111095767500004 ) ) ;
#358 = ORIENTED_EDGE ( 'NONE', *, *, #445, .F. ) ;
#359 = CARTESIAN_POINT ( 'NONE',  ( -12.61346464435501957, 19.59831721221459944, -11.15121231995603956 ) ) ;
#360 = CARTESIAN_POINT ( 'NONE',  ( -14.78902310205296011, 19.59831721221459944, -11.44442203376580025 ) ) ;
#361 = CARTESIAN_POINT ( 'NONE',  ( 0.9512873969786734829, 25.59831721221460299, 16.50815584768363919 ) ) ;
#362 = AXIS2_PLACEMENT_3D ( 'NONE', #184, #383, #232 ) ;
#363 = ORIENTED_EDGE ( 'NONE', *, *, #353, .F. ) ;
#364 = CARTESIAN_POINT ( 'NONE',  ( 9.412027270125818745, 19.59831721221459944, -13.95932552831767914 ) ) ;
#365 = CARTESIAN_POINT ( 'NONE',  ( 14.38646278367389542, 25.59831721221459944, -8.151779303753187378 ) ) ;
#366 = CARTESIAN_POINT ( 'NONE',  ( -15.19311824586789861, 25.59831721221460299, -6.435771746036060392 ) ) ;
#367 = ADVANCED_FACE ( 'NONE', ( #111 ), #302, .F. ) ;
#368 = ORIENTED_EDGE ( 'NONE', *, *, #271, .T. ) ;
#369 = DIRECTION ( 'NONE',  ( 1.000000000000000000, 0.000000000000000000, 0.000000000000000000 ) ) ;
#370 = CARTESIAN_POINT ( 'NONE',  ( 11.00036717555744659, 25.59831721221460299, -12.34569071401574014 ) ) ;
#371 = VERTEX_POINT ( 'NONE', #74 ) ;
#372 = PLANE ( 'NONE',  #201 ) ;
#373 = CARTESIAN_POINT ( 'NONE',  ( -24.48280761154904894, -52.90168278778539701, -10.14111095767498050 ) ) ;
#374 = B_SPLINE_CURVE_WITH_KNOTS ( 'NONE', 3,
 ( #2, #64, #55, #534 ),
 .UNSPECIFIED., .F., .F.,
 ( 4, 4 ),
 ( 0.000000000000000000, 1.000000000000000000 ),
 .UNSPECIFIED. ) ;
#375 = CIRCLE ( 'NONE', #327, 26.50000000000000000 ) ;
#376 = DIRECTION ( 'NONE',  ( 1.485442060901259935E-15, 1.000000000000000000, -2.217706174520570374E-15 ) ) ;
#377 = CARTESIAN_POINT ( 'NONE',  ( 18.27757384635739868, 19.59831721221460299, 4.081698780819979611 ) ) ;
#378 = CARTESIAN_POINT ( 'NONE',  ( 7.625945031788970186E-15, -52.90168278778539701, -6.080573624249490018E-17 ) ) ;
#379 = CARTESIAN_POINT ( 'NONE',  ( -13.04913803122325611, 19.81977739587485132, -10.09801944155798381 ) ) ;
#380 = CARTESIAN_POINT ( 'NONE',  ( 13.04913803122320104, 19.89831721221460015, 10.09801944155801934 ) ) ;
#381 = CARTESIAN_POINT ( 'NONE',  ( -8.476180022857770169, 19.59831721221459944, 14.54659406044041958 ) ) ;
#382 = B_SPLINE_CURVE_WITH_KNOTS ( 'NONE', 3,
 ( #73, #521, #598, #53, #138, #238, #1, #423, #329, #50, #386, #98, #101, #284, #480, #518, #95, #433 ),
 .UNSPECIFIED., .F., .F.,
 ( 4, 2, 2, 2, 2, 2, 2, 2, 4 ),
 ( 0.000000000000000000, 0.1249999999999999445, 0.2499999999999998890, 0.3749999999999998335, 0.4999999999999997780, 0.6249999999999997780, 0.7499999999999998890, 0.8749999999999998890, 1.000000000000000000 ),
 .UNSPECIFIED. ) ;
#383 = DIRECTION ( 'NONE',  ( 1.457167719820517713E-16, -1.000000000000000000, 6.057995113930770528E-20 ) ) ;
#384 = CARTESIAN_POINT ( 'NONE',  ( 0.000000000000000000, 0.000000000000000000, 0.000000000000000000 ) ) ;
#385 = FILL_AREA_STYLE ('',( #393 ) ) ;
#386 = CARTESIAN_POINT ( 'NONE',  ( 4.732317559215468705, 19.89831721221460725, -15.93065012843719686 ) ) ;
#387 = EDGE_CURVE ( 'NONE', #155, #130, #25, .T. ) ;
#388 = PRODUCT_CONTEXT ( 'NONE', #349, 'mechanical' ) ;
#389 = CARTESIAN_POINT ( 'NONE',  ( 1.578424583366329736, 19.59831721221459944, 18.65806361112209544 ) ) ;
#390 = PRODUCT_DEFINITION_CONTEXT ( 'detailed design', #119, 'design' ) ;
#391 = SHAPE_DEFINITION_REPRESENTATION ( #214, #314 ) ;
#392 = ORIENTED_EDGE ( 'NONE', *, *, #150, .F. ) ;
#393 = FILL_AREA_STYLE_COLOUR ( '', #435 ) ;
#394 = ORIENTED_EDGE ( 'NONE', *, *, #43, .F. ) ;
#395 = CARTESIAN_POINT ( 'NONE',  ( -8.952747527299958819, 19.59831721221459944, -16.44581857281299619 ) ) ;
#396 = VERTEX_POINT ( 'NONE', #542 ) ;
#397 = DIRECTION ( 'NONE',  ( 1.000000000000000000, 1.441531654556315956E-16, 0.000000000000000000 ) ) ;
#398 = VERTEX_POINT ( 'NONE', #356 ) ;
#399 = CARTESIAN_POINT ( 'NONE',  ( 9.568436084023394628, 19.59831721221460299, -16.09533450378705055 ) ) ;
#400 = LINE ( 'NONE', #250, #274 ) ;
#401 = CARTESIAN_POINT ( 'NONE',  ( -5.438522786216352323, 25.59831721221460299, 15.61558923342722949 ) ) ;
#402 = ORIENTED_EDGE ( 'NONE', *, *, #387, .T. ) ;
#403 = CARTESIAN_POINT ( 'NONE',  ( 11.93839651390866585, 19.59831721221460299, -14.42562677245149771 ) ) ;
#404 = CARTESIAN_POINT ( 'NONE',  ( 15.19311824586789861, 25.59831721221460299, 6.435771746036060392 ) ) ;
#405 = ORIENTED_EDGE ( 'NONE', *, *, #535, .T. ) ;
#406 = CARTESIAN_POINT ( 'NONE',  ( 18.70008749570069995, 19.59831721221459944, 2.414386383378025025E-08 ) ) ;
#407 = CARTESIAN_POINT ( 'NONE',  ( 4.408586967188553807, 25.59831721221460299, -15.93694381604621846 ) ) ;
#408 = CARTESIAN_POINT ( 'NONE',  ( -18.10180303312125361, 19.59831721221459233, 4.790484962873159169 ) ) ;
#409 = B_SPLINE_CURVE_WITH_KNOTS ( 'NONE', 3,
 ( #3, #187, #559, #190, #562, #469, #47, #527, #57, #427, #141, #333, #530, #524, #281, #147, #44, #476, #381, #244, #483, #339, #563, #143, #431, #336, #5, #8, #325, #91, #504, #297, #306, #456 ),
 .UNSPECIFIED., .F., .F.,
 ( 4, 2, 2, 2, 2, 2, 2, 2, 2, 2, 2, 2, 2, 2, 2, 2, 4 ),
 ( 0.000000000000000000, 0.06250000000000000000, 0.1250000000000000000, 0.1875000000000000000, 0.2500000000000000000, 0.3125000000000000000, 0.3750000000000000000, 0.4375000000000000000, 0.5000000000000000000, 0.5625000000000000000, 0.6250000000000000000, 0.6875000000000000000, 0.7500000000000000000, 0.8125000000000000000, 0.8750000000000000000, 0.9375000000000000000, 1.000000000000000000 ),
 .UNSPECIFIED. ) ;
#410 = DIRECTION ( 'NONE',  ( 1.000000000000000000, 0.000000000000000000, 0.000000000000000000 ) ) ;
#411 = DIRECTION ( 'NONE',  ( 2.080607314270080073E-17, -1.000000000000000000, 4.031734505761719585E-19 ) ) ;
#412 = CARTESIAN_POINT ( 'NONE',  ( 12.51969768591158072, 25.59831721221461009, -10.80180480736390081 ) ) ;
#413 = CARTESIAN_POINT ( 'NONE',  ( 14.77046854416185617, 25.59831721221460654, 7.433533498316295507 ) ) ;
#414 = AXIS2_PLACEMENT_3D ( 'NONE', #256, #448, #410 ) ;
#415 = EDGE_LOOP ( 'NONE', ( #402, #205 ) ) ;
#416 = CARTESIAN_POINT ( 'NONE',  ( 15.97568446252705954, 19.59831721221460654, 9.772777093975259177 ) ) ;
#417 = CARTESIAN_POINT ( 'NONE',  ( -16.40693600188875223, 19.89831721221460370, -2.644408067197932422 ) ) ;
#418 = ADVANCED_FACE ( 'NONE', ( #154 ), #16, .T. ) ;
#419 = ORIENTED_EDGE ( 'NONE', *, *, #94, .T. ) ;
#420 = DIRECTION ( 'NONE',  ( 1.000000000000000000, 0.000000000000000000, 0.000000000000000000 ) ) ;
#421 = CARTESIAN_POINT ( 'NONE',  ( -18.70000000000000284, 97.55163601798868456, -2.177962664423694814E-15 ) ) ;
#422 = DIRECTION ( 'NONE',  ( -5.157842598702879918E-19, -1.000000000000000000, 1.217627280581126066E-18 ) ) ;
#423 = CARTESIAN_POINT ( 'NONE',  ( 11.57500079533363468, 19.89831721221459659, -11.92475574525366788 ) ) ;
#424 = PRODUCT_DEFINITION ( 'General', '', #172, #390 ) ;
#425 = CARTESIAN_POINT ( 'NONE',  ( 2.264228692728395220, 19.59831721221459944, -16.68299418468275164 ) ) ;
#426 = CARTESIAN_POINT ( 'NONE',  ( -18.02705346096134420, 19.59831721221459233, -5.076311821417546888 ) ) ;
#427 = CARTESIAN_POINT ( 'NONE',  ( -16.52604204928260145, 19.59831721221459944, 3.215425434445260411 ) ) ;
#428 = CARTESIAN_POINT ( 'NONE',  ( -13.16255006886987466, 19.63064914113165926, -10.18578285997857336 ) ) ;
#429 = CARTESIAN_POINT ( 'NONE',  ( 11.38418446574493004, 19.59831721221459944, 14.86695931587015451 ) ) ;
#430 = EDGE_CURVE ( 'NONE', #371, #553, #116, .T. ) ;
#431 = CARTESIAN_POINT ( 'NONE',  ( 1.033968534388321814, 19.59831721221459944, 16.80416423417210225 ) ) ;
#432 = SURFACE_STYLE_FILL_AREA ( #385 ) ;
#433 = CARTESIAN_POINT ( 'NONE',  ( -13.04913803122324190, 19.89831721221460015, -10.09801944155801934 ) ) ;
#434 = CARTESIAN_POINT ( 'NONE',  ( 13.54792889293880975, 19.59831721221459944, 12.92557988898036392 ) ) ;
#435 = COLOUR_RGB ( '',0.7921568627450980005, 0.8196078431372548767, 0.9333333333333333481 ) ;
#436 = ADVANCED_FACE ( 'NONE', ( #519 ), #470, .F. ) ;
#437 = ORIENTED_EDGE ( 'NONE', *, *, #153, .F. ) ;
#438 = CARTESIAN_POINT ( 'NONE',  ( -2.283109165128346607, 19.59831721221459588, 18.58504908138581868 ) ) ;
#439 = DIRECTION ( 'NONE',  ( 1.457167719820517713E-16, -1.000000000000000000, 6.057995113930770528E-20 ) ) ;
#440 = B_SPLINE_CURVE_WITH_KNOTS ( 'NONE', 3,
 ( #93, #278, #234, #132, #471, #266, #125, #601, #509, #594, #365, #317, #412, #370, #455, #37, #29, #218, #407, #585, #552, #321, #275, #513, #85, #226, #555, #88, #144, #572, #337, #331, #42, #479 ),
 .UNSPECIFIED., .F., .F.,
 ( 4, 2, 2, 2, 2, 2, 2, 2, 2, 2, 2, 2, 2, 2, 2, 2, 4 ),
 ( 0.000000000000000000, 0.06250000000000009714, 0.1250000000000001665, 0.1875000000000002220, 0.2500000000000002776, 0.3125000000000002776, 0.3750000000000002220, 0.4375000000000002220, 0.5000000000000002220, 0.5625000000000002220, 0.6250000000000002220, 0.6875000000000002220, 0.7500000000000001110, 0.8125000000000001110, 0.8750000000000001110, 0.9375000000000001110, 1.000000000000000000 ),
 .UNSPECIFIED. ) ;
#441 = CARTESIAN_POINT ( 'NONE',  ( 7.850195487598901067, 19.59831721221459944, -16.99973728101585380 ) ) ;
#442 = AXIS2_PLACEMENT_3D ( 'NONE', #203, #348, #252 ) ;
#443 = ORIENTED_EDGE ( 'NONE', *, *, #231, .F. ) ;
#444 = CARTESIAN_POINT ( 'NONE',  ( 14.64893723465523578, 19.59831721221460654, -11.66339458331153445 ) ) ;
#445 = EDGE_CURVE ( 'NONE', #130, #224, #233, .T. ) ;
#446 = CARTESIAN_POINT ( 'NONE',  ( 16.49856204452055053, 19.59831721221459944, 3.353576747629110066 ) ) ;
#447 = LINE ( 'NONE', #81, #38 ) ;
#448 = DIRECTION ( 'NONE',  ( 0.000000000000000000, -1.000000000000000000, 4.031734505761719585E-19 ) ) ;
#449 = CARTESIAN_POINT ( 'NONE',  ( 10.38680556279400591, 19.59831721221459944, -15.58012854606010578 ) ) ;
#450 = AXIS2_PLACEMENT_3D ( 'NONE', #574, #300, #540 ) ;
#451 = CARTESIAN_POINT ( 'NONE',  ( -18.70004375536894159, 19.59831721221460654, 0.9671983518382016864 ) ) ;
#452 = VERTEX_POINT ( 'NONE', #131 ) ;
#453 = EDGE_CURVE ( 'NONE', #398, #541, #289, .T. ) ;
#454 = CARTESIAN_POINT ( 'NONE',  ( 16.27955967602605014, 19.59831721221459944, -4.292430930584670179 ) ) ;
#455 = CARTESIAN_POINT ( 'NONE',  ( 10.17180762723058329, 25.59831721221460299, -13.03672300993124011 ) ) ;
#456 = CARTESIAN_POINT ( 'NONE',  ( 13.28639508633637867, 19.59831721221459944, 10.28161979504089985 ) ) ;
#457 = CARTESIAN_POINT ( 'NONE',  ( 14.25463911441140041, 25.59831721221460299, 8.380323092158468157 ) ) ;
#458 = ORIENTED_EDGE ( 'NONE', *, *, #343, .F. ) ;
#459 = FACE_OUTER_BOUND ( 'NONE', #268, .T. ) ;
#460 = CARTESIAN_POINT ( 'NONE',  ( -6.625199712165496635, 19.89831721221460725, 15.24097017154279143 ) ) ;
#461 = CARTESIAN_POINT ( 'NONE',  ( -16.41090939493112089, 25.59831721221460299, 2.025801094578048911 ) ) ;
#462 = ORIENTED_EDGE ( 'NONE', *, *, #17, .F. ) ;
#463 = CARTESIAN_POINT ( 'NONE',  ( -1.033968534388302052, 19.59831721221459944, -16.80416423417210225 ) ) ;
#464 = CARTESIAN_POINT ( 'NONE',  ( -16.28523145892324209, 19.89831721221460015, 3.312352536375295031 ) ) ;
#465 = AXIS2_PLACEMENT_3D ( 'NONE', #52, #340, #9 ) ;
#466 = ORIENTED_EDGE ( 'NONE', *, *, #94, .F. ) ;
#467 = CARTESIAN_POINT ( 'NONE',  ( 16.52604204928260145, 19.59831721221459944, -3.215425434445219999 ) ) ;
#468 = CARTESIAN_POINT ( 'NONE',  ( -18.27757384635734184, 19.59831721221459588, -4.081698780876622301 ) ) ;
#469 = CARTESIAN_POINT ( 'NONE',  ( -16.49856204452060027, 19.59831721221459944, -3.353576747629074983 ) ) ;
#470 = CYLINDRICAL_SURFACE ( 'NONE', #517, 18.70000000000000284 ) ;
#471 = CARTESIAN_POINT ( 'NONE',  ( 16.49079256045509467, 25.59831721221460299, 1.214733703777183482 ) ) ;
#472 = CARTESIAN_POINT ( 'NONE',  ( -13.07470795869321734, 19.74172121458561691, -10.11780662015116405 ) ) ;
#473 = LINE ( 'NONE', #282, #60 ) ;
#474 = B_SPLINE_CURVE_WITH_KNOTS ( 'NONE', 3,
 ( #558, #324, #520, #549, #589, #426, #468, #46, #502, #561 ),
 .UNSPECIFIED., .F., .F.,
 ( 4, 2, 2, 2, 4 ),
 ( 0.000000000000000000, 0.2500000000000001665, 0.5000000000000003331, 0.7500000000000002220, 1.000000000000000000 ),
 .UNSPECIFIED. ) ;
#475 = CARTESIAN_POINT ( 'NONE',  ( -13.91725172153966383, 19.89831721221460370, -8.976201897306399502 ) ) ;
#476 = CARTESIAN_POINT ( 'NONE',  ( -9.412027270125800982, 19.59831721221459944, 13.95932552831770046 ) ) ;
#477 =( NAMED_UNIT ( * ) PLANE_ANGLE_UNIT ( ) SI_UNIT ( $, .RADIAN. ) );
#478 = CARTESIAN_POINT ( 'NONE',  ( 4.447184852429541202, 19.59831721221460299, 18.18918816194097232 ) ) ;
#479 = CARTESIAN_POINT ( 'NONE',  ( -15.19311824586789861, 25.59831721221460299, -6.435771746036060392 ) ) ;
#480 = CARTESIAN_POINT ( 'NONE',  ( -6.960554140175314153, 19.89831721221460370, -15.09076303762084237 ) ) ;
#481 = DIRECTION ( 'NONE',  ( 0.000000000000000000, -1.000000000000000000, 4.031734505761719585E-19 ) ) ;
#482 = CARTESIAN_POINT ( 'NONE',  ( -1.320579648661509342, 19.59831721221460299, 18.67833205865116497 ) ) ;
#483 = CARTESIAN_POINT ( 'NONE',  ( -5.475412880977599706, 19.59831721221459944, 15.92070602460705153 ) ) ;
#484 = SURFACE_STYLE_USAGE ( .BOTH. , #6 ) ;
#485 = CIRCLE ( 'NONE', #124, 26.50000000000000000 ) ;
#486 = ORIENTED_EDGE ( 'NONE', *, *, #543, .F. ) ;
#487 = CARTESIAN_POINT ( 'NONE',  ( 12.13621620289238656, 19.59831721221460299, 14.25929077404583367 ) ) ;
#488 = VERTEX_POINT ( 'NONE', #330 ) ;
#489 = CARTESIAN_POINT ( 'NONE',  ( 9.789967036864453576, 19.59831721221460299, 15.96184715055894543 ) ) ;
#490 = DIRECTION ( 'NONE',  ( 0.9207950452041149259, 0.000000000000000000, 0.3900467724870340658 ) ) ;
#491 = CARTESIAN_POINT ( 'NONE',  ( -14.78902310205296011, 19.59831721221459944, -11.44442203376580025 ) ) ;
#492 = ORIENTED_EDGE ( 'NONE', *, *, #246, .F. ) ;
#493 = CARTESIAN_POINT ( 'NONE',  ( 18.32478675759079678, 19.59831721221460299, -3.849528490173865780 ) ) ;
#494 = CIRCLE ( 'NONE', #183, 26.50000000000000000 ) ;
#495 = CARTESIAN_POINT ( 'NONE',  ( 14.54659406044039827, 19.59831721221459944, 8.476180022857809249 ) ) ;
#496 = ORIENTED_EDGE ( 'NONE', *, *, #288, .T. ) ;
#497 = CARTESIAN_POINT ( 'NONE',  ( 16.83579716868599974, 19.59831721221459944, 0.07042892870858889764 ) ) ;
#498 = CARTESIAN_POINT ( 'NONE',  ( 13.03662079882166935, 25.59831721221460299, 10.17195796296671162 ) ) ;
#499 = ADVANCED_FACE ( 'NONE', ( #459 ), #522, .F. ) ;
#500 = DIRECTION ( 'NONE',  ( 0.000000000000000000, -1.000000000000000000, 4.031734505761719585E-19 ) ) ;
#501 = CARTESIAN_POINT ( 'NONE',  ( 15.77378795485385687, 19.59831721221460299, -10.09017505579854834 ) ) ;
#502 = CARTESIAN_POINT ( 'NONE',  ( -18.70004373827454103, 19.59831721221459588, -1.026493989305690357 ) ) ;
#503 =( GEOMETRIC_REPRESENTATION_CONTEXT ( 3 ) GLOBAL_UNCERTAINTY_ASSIGNED_CONTEXT ( ( #204 ) ) GLOBAL_UNIT_ASSIGNED_CONTEXT ( ( #99, #477, #290 ) ) REPRESENTATION_CONTEXT ( 'NONE', 'WORKASPACE' ) );
#504 = CARTESIAN_POINT ( 'NONE',  ( 10.19560685569953939, 19.59831721221459944, 13.39770978127029899 ) ) ;
#505 = CARTESIAN_POINT ( 'NONE',  ( 4.153590116584158665, 25.59831721221459944, 16.00536929741464576 ) ) ;
#506 = EDGE_CURVE ( 'NONE', #117, #211, #40, .T. ) ;
#507 = ORIENTED_EDGE ( 'NONE', *, *, #121, .F. ) ;
#508 = CARTESIAN_POINT ( 'NONE',  ( 11.95450711774066122, 19.59831721221459944, -11.85490557157759817 ) ) ;
#509 = CARTESIAN_POINT ( 'NONE',  ( 15.70036418466865058, 25.59831721221460299, -5.188485493073463850 ) ) ;
#510 = CARTESIAN_POINT ( 'NONE',  ( -14.63984326033037142, 19.89831721221460370, -7.741904500500192299 ) ) ;
#511 = EDGE_LOOP ( 'NONE', ( #556, #251, #405, #358 ) ) ;
#512 = CARTESIAN_POINT ( 'NONE',  ( -9.294908242029450207, 19.59831721221459944, -14.03758196098553945 ) ) ;
#513 = CARTESIAN_POINT ( 'NONE',  ( -4.153590116609191973, 25.59831721221459944, -16.00536929740677650 ) ) ;
#514 = VERTEX_POINT ( 'NONE', #323 ) ;
#515 = CARTESIAN_POINT ( 'NONE',  ( -7.385937613341700292, 19.59831721221459944, -15.12934076921260029 ) ) ;
#516 = CARTESIAN_POINT ( 'NONE',  ( 10.33724688138496539, 19.89831721221460725, 13.01236988058792221 ) ) ;
#517 = AXIS2_PLACEMENT_3D ( 'NONE', #551, #28, #420 ) ;
#518 = CARTESIAN_POINT ( 'NONE',  ( -10.33724688138499381, 19.89831721221460370, -13.01236988058790267 ) ) ;
#519 = FACE_OUTER_BOUND ( 'NONE', #550, .T. ) ;
#520 = CARTESIAN_POINT ( 'NONE',  ( -15.97568446248721941, 19.59831721221458878, -9.772777094074244886 ) ) ;
#521 = CARTESIAN_POINT ( 'NONE',  ( 15.96639942423933434, 19.89831721221460015, 4.610263812579988851 ) ) ;
#522 = CYLINDRICAL_SURFACE ( 'NONE', #146, 18.70000000000000284 ) ;
#523 = CARTESIAN_POINT ( 'NONE',  ( -14.88750538094025622, 25.59831721221461365, 7.196272697414659802 ) ) ;
#524 = CARTESIAN_POINT ( 'NONE',  ( -14.03758196098553945, 19.59831721221459944, 9.294908242029460865 ) ) ;
#525 = CARTESIAN_POINT ( 'NONE',  ( 7.201481299239306466, 19.59831721221460299, 17.28448521013586614 ) ) ;
#526 = B_SPLINE_CURVE_WITH_KNOTS ( 'NONE', 3,
 ( #120, #475, #510, #77 ),
 .UNSPECIFIED., .F., .F.,
 ( 4, 4 ),
 ( 0.000000000000000000, 1.000000000000000000 ),
 .UNSPECIFIED. ) ;
#527 = CARTESIAN_POINT ( 'NONE',  ( -16.83579716868599974, 19.59831721221459944, -0.07042892870854659815 ) ) ;
#528 = ADVANCED_FACE ( 'NONE', ( #221, #316 ), #372, .F. ) ;
#529 = CARTESIAN_POINT ( 'NONE',  ( 13.22428133455672139, 19.59831721221459944, 10.23355333489938168 ) ) ;
#530 = CARTESIAN_POINT ( 'NONE',  ( -15.12934076921260029, 19.59831721221459944, 7.385937613341709174 ) ) ;
#531 = DIRECTION ( 'NONE',  ( 1.000000000000000000, 0.000000000000000000, 0.000000000000000000 ) ) ;
#532 = FACE_BOUND ( 'NONE', #174, .T. ) ;
#533 = DIRECTION ( 'NONE',  ( 1.488156356394548084E-15, 1.000000000000000000, -2.216581876514960309E-15 ) ) ;
#534 = CARTESIAN_POINT ( 'NONE',  ( 15.19311824586789861, 19.89831721221460015, 6.435771746036070162 ) ) ;
#535 = EDGE_CURVE ( 'NONE', #488, #224, #375, .T. ) ;
#536 = ORIENTED_EDGE ( 'NONE', *, *, #288, .F. ) ;
#537 = CARTESIAN_POINT ( 'NONE',  ( -9.789967036872115003, 19.59831721221460299, -15.96184715054981318 ) ) ;
#538 = LINE ( 'NONE', #421, #108 ) ;
#539 = CARTESIAN_POINT ( 'NONE',  ( -14.19691241099043211, 19.59831721221459233, -12.20957545639041086 ) ) ;
#540 = DIRECTION ( 'NONE',  ( 0.000000000000000000, 2.094760423821050203E-15, 1.000000000000000000 ) ) ;
#541 = VERTEX_POINT ( 'NONE', #554 ) ;
#542 = CARTESIAN_POINT ( 'NONE',  ( -13.04913803122324190, 19.89831721221460015, -10.09801944155801934 ) ) ;
#543 = EDGE_CURVE ( 'NONE', #224, #488, #494, .T. ) ;
#544 = CARTESIAN_POINT ( 'NONE',  ( 12.34569069155398857, 25.59831721221461009, 11.00036719766416482 ) ) ;
#545 = ORIENTED_EDGE ( 'NONE', *, *, #453, .F. ) ;
#546 = CARTESIAN_POINT ( 'NONE',  ( 5.132088894182192718, 19.59831721221460654, -18.00799263918485238 ) ) ;
#547 = ORIENTED_EDGE ( 'NONE', *, *, #136, .F. ) ;
#548 = CARTESIAN_POINT ( 'NONE',  ( -15.19311824586789861, 25.59831721221460299, -6.435771746036060392 ) ) ;
#549 = CARTESIAN_POINT ( 'NONE',  ( -16.95292789609268880, 19.59831721221459588, -7.958014880272248348 ) ) ;
#550 = EDGE_LOOP ( 'NONE', ( #31, #392, #363, #458, #462 ) ) ;
#551 = CARTESIAN_POINT ( 'NONE',  ( -1.406237712736867721E-14, 97.55163601798868456, 1.121268499818547791E-16 ) ) ;
#552 = CARTESIAN_POINT ( 'NONE',  ( 1.214733703783108520, 25.59831721221460299, -16.49079256045163078 ) ) ;
#553 = VERTEX_POINT ( 'NONE', #51 ) ;
#554 = CARTESIAN_POINT ( 'NONE',  ( 18.70008749570069995, 19.59831721221459944, 2.414386383378025025E-08 ) ) ;
#555 = CARTESIAN_POINT ( 'NONE',  ( -8.151779303751547801, 25.59831721221460299, -14.38646278367436793 ) ) ;
#556 = ORIENTED_EDGE ( 'NONE', *, *, #387, .F. ) ;
#557 = CARTESIAN_POINT ( 'NONE',  ( 15.58120040183644939, 19.59831721221459944, -6.377712801384670449 ) ) ;
#558 = CARTESIAN_POINT ( 'NONE',  ( -14.78902310205296011, 19.59831721221459944, -11.44442203376580025 ) ) ;
#559 = CARTESIAN_POINT ( 'NONE',  ( -14.54659406044041958, 19.59831721221459944, -8.476180022857779051 ) ) ;
#560 = CARTESIAN_POINT ( 'NONE',  ( -1.406237712736867721E-14, 97.55163601798868456, 1.121268499818547791E-16 ) ) ;
#561 = CARTESIAN_POINT ( 'NONE',  ( -18.70008749569910123, 19.59831721221459944, -2.414386052948824888E-08 ) ) ;
#562 = CARTESIAN_POINT ( 'NONE',  ( -15.92070602460705153, 19.59831721221459944, -5.475412880977599706 ) ) ;
#563 = CARTESIAN_POINT ( 'NONE',  ( -2.264228692728369907, 19.59831721221459944, 16.68299418468280138 ) ) ;
#564 = CARTESIAN_POINT ( 'NONE',  ( 13.04913803122320992, 19.81977739587485843, 10.09801944155802644 ) ) ;
#565 = CYLINDRICAL_SURFACE ( 'NONE', #209, 16.50000000000000000 ) ;
#566 = AXIS2_PLACEMENT_3D ( 'NONE', #104, #376, #236 ) ;
#567 = CARTESIAN_POINT ( 'NONE',  ( -13.04913803122324190, 19.89831721221460015, -10.09801944155801934 ) ) ;
#568 = B_SPLINE_CURVE_WITH_KNOTS ( 'NONE', 3,
 ( #168, #80, #417, #140, #464, #41, #597, #179, #262, #460, #76, #33, #222, #176, #135, #516, #328, #270 ),
 .UNSPECIFIED., .F., .F.,
 ( 4, 2, 2, 2, 2, 2, 2, 2, 4 ),
 ( 0.000000000000000000, 0.1250000000000000278, 0.2500000000000000555, 0.3750000000000000000, 0.5000000000000000000, 0.6249999999999998890, 0.7499999999999998890, 0.8750000000000000000, 1.000000000000000000 ),
 .UNSPECIFIED. ) ;
#569 = ADVANCED_FACE ( 'NONE', ( #341 ), #241, .T. ) ;
#570 = PLANE ( 'NONE',  #465 ) ;
#571 = DIRECTION ( 'NONE',  ( 1.485442060901259935E-15, 1.000000000000000000, -2.217706174520570374E-15 ) ) ;
#572 = CARTESIAN_POINT ( 'NONE',  ( -12.34569069157467069, 25.59831721221459944, -11.00036719764037407 ) ) ;
#573 = VECTOR ( 'NONE', #32, 1000.000000000000000 ) ;
#574 = CARTESIAN_POINT ( 'NONE',  ( 7.625945031788970186E-15, -52.90168278778539701, -6.080573624249490018E-17 ) ) ;
#575 = CARTESIAN_POINT ( 'NONE',  ( 6.962146779717884648, 19.59831721221460299, -17.38253523854205440 ) ) ;
#576 = ORIENTED_EDGE ( 'NONE', *, *, #157, .T. ) ;
#577 = DIRECTION ( 'NONE',  ( 0.000000000000000000, -1.000000000000000000, -1.149410246294365984E-18 ) ) ;
#578 = ADVANCED_FACE ( 'NONE', ( #106 ), #54, .F. ) ;
#579 = CARTESIAN_POINT ( 'NONE',  ( 12.66710060999879772, 19.59831721221459944, -13.78989481299249498 ) ) ;
#580 = CARTESIAN_POINT ( 'NONE',  ( 2.025801094629772425, 25.59831721221460299, 16.41090939491484946 ) ) ;
#581 = VERTEX_POINT ( 'NONE', #10 ) ;
#582 = CARTESIAN_POINT ( 'NONE',  ( -18.62489009600488998, 19.59831721221459944, 1.931085590810371455 ) ) ;
#583 = ORIENTED_EDGE ( 'NONE', *, *, #543, .T. ) ;
#584 = CARTESIAN_POINT ( 'NONE',  ( 13.39770978127033985, 19.59831721221459944, -10.19560685569950031 ) ) ;
#585 = CARTESIAN_POINT ( 'NONE',  ( 2.287572763874655024, 25.59831721221460299, -16.37654322661267514 ) ) ;
#586 = CARTESIAN_POINT ( 'NONE',  ( -17.51118563069405099, 19.59831721221459588, 6.632082105477437928 ) ) ;
#587 = ORIENTED_EDGE ( 'NONE', *, *, #212, .F. ) ;
#588 = CARTESIAN_POINT ( 'NONE',  ( 14.03758196098556077, 19.59831721221459944, -9.294908242029420009 ) ) ;
#589 = CARTESIAN_POINT ( 'NONE',  ( -17.36347441676546666, 19.59831721221458878, -7.017923852482692126 ) ) ;
#590 = CARTESIAN_POINT ( 'NONE',  ( -16.00536929739839209, 25.59831721221461365, 4.153590116635882623 ) ) ;
#591 = B_SPLINE_CURVE_WITH_KNOTS ( 'NONE', 3,
 ( #133, #279, #428, #472, #379, #567 ),
 .UNSPECIFIED., .F., .F.,
 ( 4, 2, 4 ),
 ( 0.000000000000000000, 0.5000000000000000000, 1.000000000000000000 ),
 .UNSPECIFIED. ) ;
#592 = EDGE_LOOP ( 'NONE', ( #355, #583, #443, #547 ) ) ;
#593 = DIRECTION ( 'NONE',  ( 1.000000000000000000, 0.000000000000000000, 0.000000000000000000 ) ) ;
#594 = CARTESIAN_POINT ( 'NONE',  ( 14.88750538095764497, 25.59831721221461365, -7.196272697389355599 ) ) ;
#595 = ORIENTED_EDGE ( 'NONE', *, *, #430, .F. ) ;
#596 = DIRECTION ( 'NONE',  ( 1.485442060901259935E-15, 1.000000000000000000, -2.217706174520570374E-15 ) ) ;
#597 = CARTESIAN_POINT ( 'NONE',  ( -14.07036627181298805, 19.89831721221460370, 8.843372432107704739 ) ) ;
#598 = CARTESIAN_POINT ( 'NONE',  ( 16.40693600188875223, 19.89831721221460370, 2.644408067197953738 ) ) ;
#599 = CARTESIAN_POINT ( 'NONE',  ( 17.36347441678964643, 19.59831721221460299, 7.017923852394272188 ) ) ;
#600 = EDGE_CURVE ( 'NONE', #70, #581, #473, .T. ) ;
#601 = CARTESIAN_POINT ( 'NONE',  ( 16.00536929741977588, 25.59831721221460299, -4.153590116565274215 ) ) ;
ENDSEC;
END-ISO-10303-21;
