ISO-10303-21;
HEADER;
FILE_DESCRIPTION (( 'STEP AP214' ),
    '1' );
FILE_NAME ('MirrorASV1_500_12A.step.STEP',
    '2026-08-01T06:59:38',
    ( '' ),
    ( '' ),
    'SwSTEP 2.0',
    'SolidWorks 2025',
    '' );
FILE_SCHEMA (( 'AUTOMOTIVE_DESIGN' ));
ENDSEC;

DATA;
#1 = FILL_AREA_STYLE_COLOUR ( '', #35 ) ;
#2 = AXIS2_PLACEMENT_3D ( 'NONE', #102, #411, #446 ) ;
#3 = PRODUCT ( 'MirrorASV1_500_12A.step', 'MirrorASV1_500_12A.step', '', ( #232 ) ) ;
#4 = AXIS2_PLACEMENT_3D ( 'NONE', #460, #496, #27 ) ;
#5 = VERTEX_POINT ( 'NONE', #64 ) ;
#6 = EDGE_LOOP ( 'NONE', ( #216, #30, #161, #200 ) ) ;
#7 = EDGE_CURVE ( 'NONE', #193, #65, #108, .T. ) ;
#8 = ORIENTED_EDGE ( 'NONE', *, *, #328, .T. ) ;
#9 = CARTESIAN_POINT ( 'NONE',  ( -35.00000000000000000, -2.000000000000000000, 196.0000000000000000 ) ) ;
#10 = CIRCLE ( 'NONE', #401, 1.599999999999990319 ) ;
#11 = VERTEX_POINT ( 'NONE', #490 ) ;
#12 = DIRECTION ( 'NONE',  ( -1.000000000000000000, -0.000000000000000000, -0.000000000000000000 ) ) ;
#13 = ADVANCED_FACE ( 'NONE', ( #374 ), #452, .F. ) ;
#14 = ORIENTED_EDGE ( 'NONE', *, *, #410, .F. ) ;
#15 = DIRECTION ( 'NONE',  ( 0.000000000000000000, 0.000000000000000000, 1.000000000000000000 ) ) ;
#16 = CARTESIAN_POINT ( 'NONE',  ( -35.00000000000000000, 0.000000000000000000, 196.0000000000000000 ) ) ;
#17 = LINE ( 'NONE', #341, #319 ) ;
#18 = ORIENTED_EDGE ( 'NONE', *, *, #502, .T. ) ;
#19 = AXIS2_PLACEMENT_3D ( 'NONE', #444, #129, #56 ) ;
#20 = DIRECTION ( 'NONE',  ( -1.000000000000000000, 0.000000000000000000, 0.000000000000000000 ) ) ;
#21 = CARTESIAN_POINT ( 'NONE',  ( -35.00000000000000000, 0.000000000000000000, 188.0000000000000000 ) ) ;
#22 = FACE_OUTER_BOUND ( 'NONE', #116, .T. ) ;
#23 = EDGE_CURVE ( 'NONE', #127, #207, #480, .T. ) ;
#24 = DIRECTION ( 'NONE',  ( 0.000000000000000000, -1.000000000000000000, 0.000000000000000000 ) ) ;
#25 = DIRECTION ( 'NONE',  ( 1.000000000000000000, 0.000000000000000000, 0.000000000000000000 ) ) ;
#26 = VECTOR ( 'NONE', #315, 1000.000000000000000 ) ;
#27 = DIRECTION ( 'NONE',  ( 0.000000000000000000, 0.000000000000000000, -1.000000000000000000 ) ) ;
#28 = AXIS2_PLACEMENT_3D ( 'NONE', #106, #191, #313 ) ;
#29 = EDGE_CURVE ( 'NONE', #408, #230, #344, .T. ) ;
#30 = ORIENTED_EDGE ( 'NONE', *, *, #146, .T. ) ;
#31 = PLANE ( 'NONE',  #261 ) ;
#32 = CYLINDRICAL_SURFACE ( 'NONE', #287, 1.599999999999990319 ) ;
#33 = LINE ( 'NONE', #185, #227 ) ;
#34 = ORIENTED_EDGE ( 'NONE', *, *, #212, .F. ) ;
#35 = COLOUR_RGB ( '',0.7921568627450980005, 0.8196078431372548767, 0.9333333333333333481 ) ;
#36 = AXIS2_PLACEMENT_3D ( 'NONE', #421, #424, #456 ) ;
#37 = VECTOR ( 'NONE', #462, 1000.000000000000000 ) ;
#38 = VERTEX_POINT ( 'NONE', #97 ) ;
#39 = ADVANCED_FACE ( 'NONE', ( #301 ), #494, .F. ) ;
#40 = ORIENTED_EDGE ( 'NONE', *, *, #7, .T. ) ;
#41 = UNCERTAINTY_MEASURE_WITH_UNIT (LENGTH_MEASURE( 1.000000000000000082E-05 ), #269, 'distance_accuracy_value', 'NONE');
#42 = ORIENTED_EDGE ( 'NONE', *, *, #328, .F. ) ;
#43 =( NAMED_UNIT ( * ) SI_UNIT ( $, .STERADIAN. ) SOLID_ANGLE_UNIT ( ) );
#44 = AXIS2_PLACEMENT_3D ( 'NONE', #334, #12, #445 ) ;
#45 = ORIENTED_EDGE ( 'NONE', *, *, #117, .F. ) ;
#46 = EDGE_CURVE ( 'NONE', #483, #5, #213, .T. ) ;
#47 = CARTESIAN_POINT ( 'NONE',  ( -35.00000000000000000, 0.000000000000000000, 175.0000000000000000 ) ) ;
#48 = VERTEX_POINT ( 'NONE', #99 ) ;
#49 = LINE ( 'NONE', #206, #143 ) ;
#50 = ORIENTED_EDGE ( 'NONE', *, *, #46, .T. ) ;
#51 = DIRECTION ( 'NONE',  ( 0.000000000000000000, 0.000000000000000000, -1.000000000000000000 ) ) ;
#52 = AXIS2_PLACEMENT_3D ( 'NONE', #485, #380, #290 ) ;
#53 = ORIENTED_EDGE ( 'NONE', *, *, #477, .F. ) ;
#54 = DIRECTION ( 'NONE',  ( -1.000000000000000000, -0.000000000000000000, -0.000000000000000000 ) ) ;
#55 = ORIENTED_EDGE ( 'NONE', *, *, #46, .F. ) ;
#56 = DIRECTION ( 'NONE',  ( 0.000000000000000000, 0.000000000000000000, 1.000000000000000000 ) ) ;
#57 = DIRECTION ( 'NONE',  ( 0.000000000000000000, 0.000000000000000000, 1.000000000000000000 ) ) ;
#58 = ORIENTED_EDGE ( 'NONE', *, *, #405, .T. ) ;
#59 = DIRECTION ( 'NONE',  ( 0.000000000000000000, 1.334402673828311860E-16, 1.000000000000000000 ) ) ;
#60 = CARTESIAN_POINT ( 'NONE',  ( -37.00000000000000000, 0.000000000000000000, 183.4000000000000057 ) ) ;
#61 = EDGE_CURVE ( 'NONE', #230, #403, #258, .T. ) ;
#62 = CIRCLE ( 'NONE', #68, 4.000000000000003553 ) ;
#63 = LINE ( 'NONE', #482, #384 ) ;
#64 = CARTESIAN_POINT ( 'NONE',  ( -37.00000000000000000, 1.959434878635764984E-16, 176.5999999999999943 ) ) ;
#65 = VERTEX_POINT ( 'NONE', #60 ) ;
#66 = FACE_BOUND ( 'NONE', #366, .T. ) ;
#67 = ADVANCED_FACE ( 'NONE', ( #381 ), #416, .F. ) ;
#68 = AXIS2_PLACEMENT_3D ( 'NONE', #281, #402, #467 ) ;
#69 = DIRECTION ( 'NONE',  ( 0.000000000000000000, -1.000000000000000000, 0.000000000000000000 ) ) ;
#70 = PRODUCT_DEFINITION_FORMATION_WITH_SPECIFIED_SOURCE ( 'Symmetric', '', #3, .NOT_KNOWN. ) ;
#71 = EDGE_LOOP ( 'NONE', ( #443, #137, #195, #311 ) ) ;
#72 = CARTESIAN_POINT ( 'NONE',  ( -37.00000000000000000, -4.000000000000000000, 194.0000000000000000 ) ) ;
#73 = VERTEX_POINT ( 'NONE', #184 ) ;
#74 = DIRECTION ( 'NONE',  ( 0.000000000000000000, 0.000000000000000000, 1.000000000000000000 ) ) ;
#75 = VERTEX_POINT ( 'NONE', #346 ) ;
#76 = EDGE_CURVE ( 'NONE', #483, #437, #10, .T. ) ;
#77 = STYLED_ITEM ( 'NONE', ( #429 ), #181 ) ;
#78 = CARTESIAN_POINT ( 'NONE',  ( -35.00000000000000000, 0.000000000000000000, 175.0000000000000000 ) ) ;
#79 = AXIS2_PLACEMENT_3D ( 'NONE', #489, #54, #133 ) ;
#80 = DIRECTION ( 'NONE',  ( -1.000000000000000000, 0.000000000000000000, 0.000000000000000000 ) ) ;
#81 = ORIENTED_EDGE ( 'NONE', *, *, #264, .F. ) ;
#82 = ADVANCED_FACE ( 'NONE', ( #354 ), #32, .F. ) ;
#83 = VERTEX_POINT ( 'NONE', #274 ) ;
#84 = SURFACE_STYLE_USAGE ( .BOTH. , #238 ) ;
#85 = VECTOR ( 'NONE', #171, 1000.000000000000000 ) ;
#86 = VECTOR ( 'NONE', #255, 1000.000000000000000 ) ;
#87 = EDGE_LOOP ( 'NONE', ( #247, #18, #147, #291, #337, #156, #58, #210, #179 ) ) ;
#88 = DIRECTION ( 'NONE',  ( 0.000000000000000000, 0.000000000000000000, 1.000000000000000000 ) ) ;
#89 = FACE_OUTER_BOUND ( 'NONE', #370, .T. ) ;
#90 = VERTEX_POINT ( 'NONE', #425 ) ;
#91 = ORIENTED_EDGE ( 'NONE', *, *, #323, .F. ) ;
#92 = CARTESIAN_POINT ( 'NONE',  ( -37.00000000000000000, 6.000000000000000000, 186.0000000000000000 ) ) ;
#93 = VECTOR ( 'NONE', #439, 1000.000000000000000 ) ;
#94 = ORIENTED_EDGE ( 'NONE', *, *, #23, .F. ) ;
#95 = CARTESIAN_POINT ( 'NONE',  ( -35.00000000000000000, 6.000000000000000000, 188.0000000000000000 ) ) ;
#96 = CARTESIAN_POINT ( 'NONE',  ( -35.00000000000000000, 25.00000000000000000, 196.0000000000000000 ) ) ;
#97 = CARTESIAN_POINT ( 'NONE',  ( -35.00000000000000000, 4.000000000000000000, 175.0000000000000000 ) ) ;
#98 = EDGE_CURVE ( 'NONE', #127, #48, #505, .T. ) ;
#99 = CARTESIAN_POINT ( 'NONE',  ( -37.00000000000000000, 4.000000000000000000, 186.0000000000000000 ) ) ;
#100 = CARTESIAN_POINT ( 'NONE',  ( -35.00000000000000000, 25.00000000000000000, 196.0000000000000000 ) ) ;
#101 = AXIS2_PLACEMENT_3D ( 'NONE', #387, #110, #74 ) ;
#102 = CARTESIAN_POINT ( 'NONE',  ( -35.00000000000000000, 0.000000000000000000, 196.0000000000000000 ) ) ;
#103 = EDGE_CURVE ( 'NONE', #420, #65, #468, .T. ) ;
#104 = FACE_BOUND ( 'NONE', #397, .T. ) ;
#105 = ORIENTED_EDGE ( 'NONE', *, *, #61, .T. ) ;
#106 = CARTESIAN_POINT ( 'NONE',  ( -35.00000000000000000, 0.000000000000000000, 0.000000000000000000 ) ) ;
#107 = VERTEX_POINT ( 'NONE', #322 ) ;
#108 = CIRCLE ( 'NONE', #298, 1.599999999999990319 ) ;
#109 = DIRECTION ( 'NONE',  ( 0.000000000000000000, 1.000000000000000000, 0.000000000000000000 ) ) ;
#110 = DIRECTION ( 'NONE',  ( -1.000000000000000000, -0.000000000000000000, -0.000000000000000000 ) ) ;
#111 = CARTESIAN_POINT ( 'NONE',  ( -37.00000000000000000, 0.000000000000000000, 171.0000000000000000 ) ) ;
#112 = EDGE_LOOP ( 'NONE', ( #282, #335, #226, #125 ) ) ;
#113 = VECTOR ( 'NONE', #249, 1000.000000000000000 ) ;
#114 = CARTESIAN_POINT ( 'NONE',  ( -35.00000000000000000, 6.000000000000000000, 186.0000000000000000 ) ) ;
#115 = CIRCLE ( 'NONE', #219, 4.000000000000003553 ) ;
#116 = EDGE_LOOP ( 'NONE', ( #395, #91, #241, #283, #474, #42, #360, #324, #435 ) ) ;
#117 = EDGE_CURVE ( 'NONE', #90, #420, #123, .T. ) ;
#118 = DIRECTION ( 'NONE',  ( 0.000000000000000000, 0.000000000000000000, 1.000000000000000000 ) ) ;
#119 = ORIENTED_EDGE ( 'NONE', *, *, #323, .T. ) ;
#120 = ORIENTED_EDGE ( 'NONE', *, *, #405, .F. ) ;
#121 = CARTESIAN_POINT ( 'NONE',  ( -35.00000000000000000, 6.000000000000000000, 188.0000000000000000 ) ) ;
#122 =( NAMED_UNIT ( * ) PLANE_ANGLE_UNIT ( ) SI_UNIT ( $, .RADIAN. ) );
#123 = CIRCLE ( 'NONE', #101, 1.599999999999990319 ) ;
#124 = CIRCLE ( 'NONE', #365, 1.599999999999990319 ) ;
#125 = ORIENTED_EDGE ( 'NONE', *, *, #146, .F. ) ;
#126 = DIRECTION ( 'NONE',  ( 0.000000000000000000, 1.000000000000000000, 0.000000000000000000 ) ) ;
#127 = VERTEX_POINT ( 'NONE', #317 ) ;
#128 = ADVANCED_FACE ( 'NONE', ( #500 ), #314, .T. ) ;
#129 = DIRECTION ( 'NONE',  ( -1.000000000000000000, -0.000000000000000000, -0.000000000000000000 ) ) ;
#130 = LINE ( 'NONE', #342, #113 ) ;
#131 = ORIENTED_EDGE ( 'NONE', *, *, #343, .F. ) ;
#132 = FACE_OUTER_BOUND ( 'NONE', #418, .T. ) ;
#133 = DIRECTION ( 'NONE',  ( 0.000000000000000000, 0.000000000000000000, 1.000000000000000000 ) ) ;
#134 = CIRCLE ( 'NONE', #44, 2.000000000000001776 ) ;
#135 = DIRECTION ( 'NONE',  ( 0.000000000000000000, 0.000000000000000000, 1.000000000000000000 ) ) ;
#136 = EDGE_CURVE ( 'NONE', #437, #75, #279, .T. ) ;
#137 = ORIENTED_EDGE ( 'NONE', *, *, #61, .F. ) ;
#138 = CYLINDRICAL_SURFACE ( 'NONE', #448, 4.000000000000003553 ) ;
#139 = CARTESIAN_POINT ( 'NONE',  ( -37.00000000000000000, 0.000000000000000000, 175.0000000000000000 ) ) ;
#140 =( NAMED_UNIT ( * ) SI_UNIT ( $, .STERADIAN. ) SOLID_ANGLE_UNIT ( ) );
#141 = CARTESIAN_POINT ( 'NONE',  ( -35.00000000000000000, 4.000000000000000000, 186.0000000000000000 ) ) ;
#142 = CARTESIAN_POINT ( 'NONE',  ( -35.00000000000000000, 0.000000000000000000, 175.0000000000000000 ) ) ;
#143 = VECTOR ( 'NONE', #155, 1000.000000000000000 ) ;
#144 = AXIS2_PLACEMENT_3D ( 'NONE', #447, #248, #296 ) ;
#145 = CYLINDRICAL_SURFACE ( 'NONE', #481, 1.599999999999990319 ) ;
#146 = EDGE_CURVE ( 'NONE', #390, #48, #436, .T. ) ;
#147 = ORIENTED_EDGE ( 'NONE', *, *, #349, .T. ) ;
#148 = SHAPE_DEFINITION_REPRESENTATION ( #325, #277 ) ;
#149 = LINE ( 'NONE', #417, #180 ) ;
#150 = DIRECTION ( 'NONE',  ( -1.000000000000000000, 0.000000000000000000, 0.000000000000000000 ) ) ;
#151 =( GEOMETRIC_REPRESENTATION_CONTEXT ( 3 ) GLOBAL_UNCERTAINTY_ASSIGNED_CONTEXT ( ( #192 ) ) GLOBAL_UNIT_ASSIGNED_CONTEXT ( ( #199, #122, #43 ) ) REPRESENTATION_CONTEXT ( 'NONE', 'WORKASPACE' ) );
#152 = FACE_OUTER_BOUND ( 'NONE', #6, .T. ) ;
#153 = EDGE_CURVE ( 'NONE', #202, #163, #432, .T. ) ;
#154 = DIRECTION ( 'NONE',  ( 0.000000000000000000, 0.000000000000000000, 1.000000000000000000 ) ) ;
#155 = DIRECTION ( 'NONE',  ( 1.000000000000000000, 0.000000000000000000, 0.000000000000000000 ) ) ;
#156 = ORIENTED_EDGE ( 'NONE', *, *, #23, .T. ) ;
#157 = FILL_AREA_STYLE ('',( #1 ) ) ;
#158 = ORIENTED_EDGE ( 'NONE', *, *, #431, .F. ) ;
#159 = ADVANCED_FACE ( 'NONE', ( #89 ), #471, .T. ) ;
#160 = VECTOR ( 'NONE', #166, 1000.000000000000000 ) ;
#161 = ORIENTED_EDGE ( 'NONE', *, *, #312, .T. ) ;
#162 = DIRECTION ( 'NONE',  ( 1.000000000000000000, -0.000000000000000000, -0.000000000000000000 ) ) ;
#163 = VERTEX_POINT ( 'NONE', #399 ) ;
#164 = DIRECTION ( 'NONE',  ( 0.000000000000000000, 0.000000000000000000, -1.000000000000000000 ) ) ;
#165 = ORIENTED_EDGE ( 'NONE', *, *, #197, .T. ) ;
#166 = DIRECTION ( 'NONE',  ( -1.000000000000000000, 0.000000000000000000, 0.000000000000000000 ) ) ;
#167 = EDGE_CURVE ( 'NONE', #90, #193, #369, .T. ) ;
#168 = AXIS2_PLACEMENT_3D ( 'NONE', #470, #172, #488 ) ;
#169 = EDGE_LOOP ( 'NONE', ( #50, #498, #250, #254 ) ) ;
#170 = CYLINDRICAL_SURFACE ( 'NONE', #263, 1.599999999999990319 ) ;
#171 = DIRECTION ( 'NONE',  ( 0.000000000000000000, 1.000000000000000000, 0.000000000000000000 ) ) ;
#172 = DIRECTION ( 'NONE',  ( -1.000000000000000000, -0.000000000000000000, -0.000000000000000000 ) ) ;
#173 = CARTESIAN_POINT ( 'NONE',  ( -37.00000000000000000, 25.00000000000000000, 188.0000000000000000 ) ) ;
#174 = DIRECTION ( 'NONE',  ( -1.000000000000000000, -0.000000000000000000, -0.000000000000000000 ) ) ;
#175 = EDGE_CURVE ( 'NONE', #473, #390, #234, .T. ) ;
#176 = CARTESIAN_POINT ( 'NONE',  ( -37.00000000000000000, 25.00000000000000000, 192.0000000000000000 ) ) ;
#177 = LINE ( 'NONE', #217, #499 ) ;
#178 = AXIS2_PLACEMENT_3D ( 'NONE', #139, #174, #492 ) ;
#179 = ORIENTED_EDGE ( 'NONE', *, *, #292, .F. ) ;
#180 = VECTOR ( 'NONE', #222, 1000.000000000000000 ) ;
#181 = MANIFOLD_SOLID_BREP ( 'NONE', #272 ) ;
#182 = DIRECTION ( 'NONE',  ( 0.000000000000000000, 0.000000000000000000, 1.000000000000000000 ) ) ;
#183 = DIRECTION ( 'NONE',  ( -1.000000000000000000, -0.000000000000000000, -0.000000000000000000 ) ) ;
#184 = CARTESIAN_POINT ( 'NONE',  ( -35.00000000000000000, 0.000000000000000000, 171.0000000000000000 ) ) ;
#185 = CARTESIAN_POINT ( 'NONE',  ( -37.00000000000000000, 0.000000000000000000, 188.0000000000000000 ) ) ;
#186 = APPLICATION_PROTOCOL_DEFINITION ( 'draft international standard', 'automotive_design', 1998, #221 ) ;
#187 = CYLINDRICAL_SURFACE ( 'NONE', #4, 2.000000000000001776 ) ;
#188 = CARTESIAN_POINT ( 'NONE',  ( -37.00000000000000000, 4.000000000000000000, -5.337610695313219830E-16 ) ) ;
#189 = CARTESIAN_POINT ( 'NONE',  ( -37.00000000000000000, 0.000000000000000000, 175.0000000000000000 ) ) ;
#190 = EDGE_CURVE ( 'NONE', #230, #107, #62, .T. ) ;
#191 = DIRECTION ( 'NONE',  ( 1.000000000000000000, 0.000000000000000000, 0.000000000000000000 ) ) ;
#192 = UNCERTAINTY_MEASURE_WITH_UNIT (LENGTH_MEASURE( 1.000000000000000082E-05 ), #199, 'distance_accuracy_value', 'NONE');
#193 = VERTEX_POINT ( 'NONE', #246 ) ;
#194 = AXIS2_PLACEMENT_3D ( 'NONE', #340, #262, #299 ) ;
#195 = ORIENTED_EDGE ( 'NONE', *, *, #190, .T. ) ;
#196 = CARTESIAN_POINT ( 'NONE',  ( -35.00000000000000000, 1.959434878635755123E-16, 186.5999999999999943 ) ) ;
#197 = EDGE_CURVE ( 'NONE', #378, #163, #49, .T. ) ;
#198 = ORIENTED_EDGE ( 'NONE', *, *, #76, .T. ) ;
#199 =( LENGTH_UNIT ( ) NAMED_UNIT ( * ) SI_UNIT ( .MILLI., .METRE. ) );
#200 = ORIENTED_EDGE ( 'NONE', *, *, #431, .T. ) ;
#201 = AXIS2_PLACEMENT_3D ( 'NONE', #92, #251, #407 ) ;
#202 = VERTEX_POINT ( 'NONE', #321 ) ;
#203 = LINE ( 'NONE', #121, #449 ) ;
#204 = ORIENTED_EDGE ( 'NONE', *, *, #153, .T. ) ;
#205 = FACE_OUTER_BOUND ( 'NONE', #233, .T. ) ;
#206 = CARTESIAN_POINT ( 'NONE',  ( -35.00000000000000000, -4.000000000000000000, 194.0000000000000000 ) ) ;
#207 = VERTEX_POINT ( 'NONE', #111 ) ;
#208 = CARTESIAN_POINT ( 'NONE',  ( -35.00000000000000000, 25.00000000000000000, 188.0000000000000000 ) ) ;
#209 = AXIS2_PLACEMENT_3D ( 'NONE', #78, #375, #57 ) ;
#210 = ORIENTED_EDGE ( 'NONE', *, *, #343, .T. ) ;
#211 = CARTESIAN_POINT ( 'NONE',  ( -35.00000000000000000, 25.00000000000000000, 192.0000000000000000 ) ) ;
#212 = EDGE_CURVE ( 'NONE', #437, #483, #430, .T. ) ;
#213 = LINE ( 'NONE', #454, #415 ) ;
#214 = PLANE ( 'NONE',  #144 ) ;
#215 = CYLINDRICAL_SURFACE ( 'NONE', #280, 4.000000000000003553 ) ;
#216 = ORIENTED_EDGE ( 'NONE', *, *, #175, .T. ) ;
#217 = CARTESIAN_POINT ( 'NONE',  ( -37.00000000000000000, 0.000000000000000000, 196.0000000000000000 ) ) ;
#218 = ORIENTED_EDGE ( 'NONE', *, *, #167, .F. ) ;
#219 = AXIS2_PLACEMENT_3D ( 'NONE', #189, #183, #352 ) ;
#220 = DIRECTION ( 'NONE',  ( 0.000000000000000000, 0.000000000000000000, 1.000000000000000000 ) ) ;
#221 = APPLICATION_CONTEXT ( 'automotive_design' ) ;
#222 = DIRECTION ( 'NONE',  ( 0.000000000000000000, 1.239088197126289831E-16, 1.000000000000000000 ) ) ;
#223 = ADVANCED_FACE ( 'NONE', ( #257 ), #215, .T. ) ;
#224 = FACE_OUTER_BOUND ( 'NONE', #87, .T. ) ;
#225 = AXIS2_PLACEMENT_3D ( 'NONE', #372, #297, #15 ) ;
#226 = ORIENTED_EDGE ( 'NONE', *, *, #98, .T. ) ;
#227 = VECTOR ( 'NONE', #69, 1000.000000000000000 ) ;
#228 = DIRECTION ( 'NONE',  ( 0.000000000000000000, 0.000000000000000000, -1.000000000000000000 ) ) ;
#229 = EDGE_CURVE ( 'NONE', #38, #390, #63, .T. ) ;
#230 = VERTEX_POINT ( 'NONE', #96 ) ;
#231 = FACE_BOUND ( 'NONE', #479, .T. ) ;
#232 = PRODUCT_CONTEXT ( 'NONE', #495, 'mechanical' ) ;
#233 = EDGE_LOOP ( 'NONE', ( #327, #440, #486, #218 ) ) ;
#234 = CIRCLE ( 'NONE', #392, 2.000000000000001776 ) ;
#235 = AXIS2_PLACEMENT_3D ( 'NONE', #305, #182, #25 ) ;
#236 = CARTESIAN_POINT ( 'NONE',  ( -35.00000000000000000, 0.000000000000000000, 173.4000000000000057 ) ) ;
#237 = EDGE_CURVE ( 'NONE', #11, #403, #177, .T. ) ;
#238 = SURFACE_SIDE_STYLE ('',( #434 ) ) ;
#239 = ORIENTED_EDGE ( 'NONE', *, *, #29, .T. ) ;
#240 = CARTESIAN_POINT ( 'NONE',  ( -35.00000000000000000, -4.000000000000000000, 4.956352788505189892E-16 ) ) ;
#241 = ORIENTED_EDGE ( 'NONE', *, *, #487, .F. ) ;
#242 = AXIS2_PLACEMENT_3D ( 'NONE', #47, #80, #326 ) ;
#243 = CIRCLE ( 'NONE', #168, 1.599999999999990319 ) ;
#244 = ORIENTED_EDGE ( 'NONE', *, *, #292, .T. ) ;
#245 = EDGE_CURVE ( 'NONE', #65, #193, #504, .T. ) ;
#246 = CARTESIAN_POINT ( 'NONE',  ( -37.00000000000000000, 1.959434878635760053E-16, 186.5999999999999943 ) ) ;
#247 = ORIENTED_EDGE ( 'NONE', *, *, #237, .T. ) ;
#248 = DIRECTION ( 'NONE',  ( 0.000000000000000000, 1.000000000000000000, -1.239088197126289831E-16 ) ) ;
#249 = DIRECTION ( 'NONE',  ( -1.000000000000000000, 0.000000000000000000, 0.000000000000000000 ) ) ;
#250 = ORIENTED_EDGE ( 'NONE', *, *, #136, .F. ) ;
#251 = DIRECTION ( 'NONE',  ( -1.000000000000000000, -0.000000000000000000, -0.000000000000000000 ) ) ;
#252 = EDGE_CURVE ( 'NONE', #107, #286, #294, .T. ) ;
#253 = VECTOR ( 'NONE', #320, 1000.000000000000000 ) ;
#254 = ORIENTED_EDGE ( 'NONE', *, *, #76, .F. ) ;
#255 = DIRECTION ( 'NONE',  ( -1.000000000000000000, 0.000000000000000000, 0.000000000000000000 ) ) ;
#256 = DIRECTION ( 'NONE',  ( -1.000000000000000000, 0.000000000000000000, 0.000000000000000000 ) ) ;
#257 = FACE_OUTER_BOUND ( 'NONE', #404, .T. ) ;
#258 = LINE ( 'NONE', #100, #332 ) ;
#259 = DIRECTION ( 'NONE',  ( 0.000000000000000000, 0.000000000000000000, -1.000000000000000000 ) ) ;
#260 = VECTOR ( 'NONE', #361, 1000.000000000000000 ) ;
#261 = AXIS2_PLACEMENT_3D ( 'NONE', #273, #503, #109 ) ;
#262 = DIRECTION ( 'NONE',  ( -1.000000000000000000, 0.000000000000000000, 0.000000000000000000 ) ) ;
#263 = AXIS2_PLACEMENT_3D ( 'NONE', #293, #409, #442 ) ;
#264 = EDGE_CURVE ( 'NONE', #73, #207, #130, .T. ) ;
#265 = ORIENTED_EDGE ( 'NONE', *, *, #197, .F. ) ;
#266 = FACE_BOUND ( 'NONE', #358, .T. ) ;
#267 = CARTESIAN_POINT ( 'NONE',  ( -35.00000000000000000, 0.000000000000000000, 175.0000000000000000 ) ) ;
#268 = ORIENTED_EDGE ( 'NONE', *, *, #426, .T. ) ;
#269 =( LENGTH_UNIT ( ) NAMED_UNIT ( * ) SI_UNIT ( .MILLI., .METRE. ) );
#270 = PLANE ( 'NONE',  #465 ) ;
#271 = ADVANCED_FACE ( 'NONE', ( #338 ), #138, .T. ) ;
#272 = CLOSED_SHELL ( 'NONE', ( #128, #363, #391, #379, #82, #67, #13, #271, #39, #463, #159, #396, #223, #451, #356 ) ) ;
#273 = CARTESIAN_POINT ( 'NONE',  ( -37.00000000000000000, 0.000000000000000000, 0.000000000000000000 ) ) ;
#274 = CARTESIAN_POINT ( 'NONE',  ( -37.00000000000000000, 6.000000000000000000, 188.0000000000000000 ) ) ;
#275 = ORIENTED_EDGE ( 'NONE', *, *, #497, .F. ) ;
#276 = DIRECTION ( 'NONE',  ( 0.000000000000000000, 1.000000000000000000, -1.334402673828311860E-16 ) ) ;
#277 = ADVANCED_BREP_SHAPE_REPRESENTATION ( 'MirrorASV1_500_12A.step', ( #181, #235 ), #333 ) ;
#278 = CARTESIAN_POINT ( 'NONE',  ( -35.00000000000000000, 0.000000000000000000, 173.4000000000000057 ) ) ;
#279 = LINE ( 'NONE', #236, #478 ) ;
#280 = AXIS2_PLACEMENT_3D ( 'NONE', #377, #412, #51 ) ;
#281 = CARTESIAN_POINT ( 'NONE',  ( -35.00000000000000000, 25.00000000000000000, 192.0000000000000000 ) ) ;
#282 = ORIENTED_EDGE ( 'NONE', *, *, #229, .F. ) ;
#283 = ORIENTED_EDGE ( 'NONE', *, *, #229, .T. ) ;
#284 = CARTESIAN_POINT ( 'NONE',  ( -35.00000000000000000, 4.000000000000000000, 186.0000000000000000 ) ) ;
#285 = EDGE_CURVE ( 'NONE', #408, #11, #414, .T. ) ;
#286 = VERTEX_POINT ( 'NONE', #173 ) ;
#287 = AXIS2_PLACEMENT_3D ( 'NONE', #267, #150, #357 ) ;
#288 = CIRCLE ( 'NONE', #385, 4.000000000000003553 ) ;
#289 = ORIENTED_EDGE ( 'NONE', *, *, #441, .T. ) ;
#290 = DIRECTION ( 'NONE',  ( 0.000000000000000000, 0.000000000000000000, 1.000000000000000000 ) ) ;
#291 = ORIENTED_EDGE ( 'NONE', *, *, #312, .F. ) ;
#292 = EDGE_CURVE ( 'NONE', #11, #378, #364, .T. ) ;
#293 = CARTESIAN_POINT ( 'NONE',  ( -35.00000000000000000, 0.000000000000000000, 185.0000000000000000 ) ) ;
#294 = LINE ( 'NONE', #208, #348 ) ;
#295 = DIRECTION ( 'NONE',  ( -1.000000000000000000, -0.000000000000000000, -0.000000000000000000 ) ) ;
#296 = DIRECTION ( 'NONE',  ( 0.000000000000000000, 1.239088197126289831E-16, 1.000000000000000000 ) ) ;
#297 = DIRECTION ( 'NONE',  ( 1.000000000000000000, -0.000000000000000000, -0.000000000000000000 ) ) ;
#298 = AXIS2_PLACEMENT_3D ( 'NONE', #304, #295, #135 ) ;
#299 = DIRECTION ( 'NONE',  ( 0.000000000000000000, 0.000000000000000000, -1.000000000000000000 ) ) ;
#300 = DIRECTION ( 'NONE',  ( -1.000000000000000000, 0.000000000000000000, 0.000000000000000000 ) ) ;
#301 = FACE_OUTER_BOUND ( 'NONE', #501, .T. ) ;
#302 = DIRECTION ( 'NONE',  ( -1.000000000000000000, 0.000000000000000000, 0.000000000000000000 ) ) ;
#303 = EDGE_CURVE ( 'NONE', #163, #408, #134, .T. ) ;
#304 = CARTESIAN_POINT ( 'NONE',  ( -37.00000000000000000, 0.000000000000000000, 185.0000000000000000 ) ) ;
#305 = CARTESIAN_POINT ( 'NONE',  ( 0.000000000000000000, 0.000000000000000000, 0.000000000000000000 ) ) ;
#306 = FACE_OUTER_BOUND ( 'NONE', #112, .T. ) ;
#307 = AXIS2_PLACEMENT_3D ( 'NONE', #457, #330, #164 ) ;
#308 = CIRCLE ( 'NONE', #19, 4.000000000000003553 ) ;
#309 = DIRECTION ( 'NONE',  ( -1.000000000000000000, -0.000000000000000000, -0.000000000000000000 ) ) ;
#310 = CARTESIAN_POINT ( 'NONE',  ( -35.00000000000000000, 0.000000000000000000, 175.0000000000000000 ) ) ;
#311 = ORIENTED_EDGE ( 'NONE', *, *, #252, .T. ) ;
#312 = EDGE_CURVE ( 'NONE', #48, #83, #422, .T. ) ;
#313 = DIRECTION ( 'NONE',  ( 0.000000000000000000, 1.000000000000000000, 0.000000000000000000 ) ) ;
#314 = CYLINDRICAL_SURFACE ( 'NONE', #307, 2.000000000000001776 ) ;
#315 = DIRECTION ( 'NONE',  ( -1.000000000000000000, 0.000000000000000000, 0.000000000000000000 ) ) ;
#316 = CARTESIAN_POINT ( 'NONE',  ( -37.00000000000000000, -4.000000000000000000, 175.0000000000000000 ) ) ;
#317 = CARTESIAN_POINT ( 'NONE',  ( -37.00000000000000000, 4.000000000000000000, 175.0000000000000000 ) ) ;
#318 = VECTOR ( 'NONE', #476, 1000.000000000000000 ) ;
#319 = VECTOR ( 'NONE', #300, 1000.000000000000000 ) ;
#320 = DIRECTION ( 'NONE',  ( 0.000000000000000000, 1.334402673828311860E-16, 1.000000000000000000 ) ) ;
#321 = CARTESIAN_POINT ( 'NONE',  ( -35.00000000000000000, -4.000000000000000000, 175.0000000000000000 ) ) ;
#322 = CARTESIAN_POINT ( 'NONE',  ( -35.00000000000000000, 25.00000000000000000, 188.0000000000000000 ) ) ;
#323 = EDGE_CURVE ( 'NONE', #73, #202, #491, .T. ) ;
#324 = ORIENTED_EDGE ( 'NONE', *, *, #29, .F. ) ;
#325 = PRODUCT_DEFINITION_SHAPE ( 'NONE', 'NONE',  #459 ) ;
#326 = DIRECTION ( 'NONE',  ( 0.000000000000000000, 0.000000000000000000, -1.000000000000000000 ) ) ;
#327 = ORIENTED_EDGE ( 'NONE', *, *, #441, .F. ) ;
#328 = EDGE_CURVE ( 'NONE', #107, #473, #450, .T. ) ;
#329 = ORIENTED_EDGE ( 'NONE', *, *, #167, .T. ) ;
#330 = DIRECTION ( 'NONE',  ( -1.000000000000000000, 0.000000000000000000, 0.000000000000000000 ) ) ;
#331 = ORIENTED_EDGE ( 'NONE', *, *, #285, .F. ) ;
#332 = VECTOR ( 'NONE', #413, 1000.000000000000000 ) ;
#333 =( GEOMETRIC_REPRESENTATION_CONTEXT ( 3 ) GLOBAL_UNCERTAINTY_ASSIGNED_CONTEXT ( ( #41 ) ) GLOBAL_UNIT_ASSIGNED_CONTEXT ( ( #269, #359, #140 ) ) REPRESENTATION_CONTEXT ( 'NONE', 'WORKASPACE' ) );
#334 = CARTESIAN_POINT ( 'NONE',  ( -35.00000000000000000, -2.000000000000000000, 194.0000000000000000 ) ) ;
#335 = ORIENTED_EDGE ( 'NONE', *, *, #477, .T. ) ;
#336 = LINE ( 'NONE', #368, #86 ) ;
#337 = ORIENTED_EDGE ( 'NONE', *, *, #98, .F. ) ;
#338 = FACE_OUTER_BOUND ( 'NONE', #71, .T. ) ;
#339 = ORIENTED_EDGE ( 'NONE', *, *, #426, .F. ) ;
#340 = CARTESIAN_POINT ( 'NONE',  ( -35.00000000000000000, 0.000000000000000000, 185.0000000000000000 ) ) ;
#341 = CARTESIAN_POINT ( 'NONE',  ( -35.00000000000000000, -4.000000000000000000, 175.0000000000000000 ) ) ;
#342 = CARTESIAN_POINT ( 'NONE',  ( -35.00000000000000000, 0.000000000000000000, 171.0000000000000000 ) ) ;
#343 = EDGE_CURVE ( 'NONE', #376, #378, #149, .T. ) ;
#344 = LINE ( 'NONE', #16, #85 ) ;
#345 = CARTESIAN_POINT ( 'NONE',  ( -37.00000000000000000, 0.000000000000000000, 175.0000000000000000 ) ) ;
#346 = CARTESIAN_POINT ( 'NONE',  ( -37.00000000000000000, 0.000000000000000000, 173.4000000000000057 ) ) ;
#347 = FACE_OUTER_BOUND ( 'NONE', #382, .T. ) ;
#348 = VECTOR ( 'NONE', #20, 1000.000000000000000 ) ;
#349 = EDGE_CURVE ( 'NONE', #286, #83, #33, .T. ) ;
#350 = CARTESIAN_POINT ( 'NONE',  ( -35.00000000000000000, -2.000000000000000000, 196.0000000000000000 ) ) ;
#351 = ORIENTED_EDGE ( 'NONE', *, *, #264, .T. ) ;
#352 = DIRECTION ( 'NONE',  ( 0.000000000000000000, 0.000000000000000000, 1.000000000000000000 ) ) ;
#353 = CARTESIAN_POINT ( 'NONE',  ( -35.00000000000000000, 0.000000000000000000, 183.4000000000000057 ) ) ;
#354 = FACE_OUTER_BOUND ( 'NONE', #169, .T. ) ;
#355 = EDGE_LOOP ( 'NONE', ( #329, #40, #427, #45 ) ) ;
#356 = ADVANCED_FACE ( 'NONE', ( #347 ), #145, .F. ) ;
#357 = DIRECTION ( 'NONE',  ( 0.000000000000000000, 0.000000000000000000, -1.000000000000000000 ) ) ;
#358 = EDGE_LOOP ( 'NONE', ( #339, #14 ) ) ;
#359 =( NAMED_UNIT ( * ) PLANE_ANGLE_UNIT ( ) SI_UNIT ( $, .RADIAN. ) );
#360 = ORIENTED_EDGE ( 'NONE', *, *, #190, .F. ) ;
#361 = DIRECTION ( 'NONE',  ( -1.000000000000000000, 0.000000000000000000, 0.000000000000000000 ) ) ;
#362 = ORIENTED_EDGE ( 'NONE', *, *, #237, .F. ) ;
#363 = ADVANCED_FACE ( 'NONE', ( #152 ), #187, .F. ) ;
#364 = CIRCLE ( 'NONE', #225, 2.000000000000001776 ) ;
#365 = AXIS2_PLACEMENT_3D ( 'NONE', #345, #398, #154 ) ;
#366 = EDGE_LOOP ( 'NONE', ( #400, #469 ) ) ;
#367 = ORIENTED_EDGE ( 'NONE', *, *, #285, .T. ) ;
#368 = CARTESIAN_POINT ( 'NONE',  ( -35.00000000000000000, 4.000000000000000000, 175.0000000000000000 ) ) ;
#369 = LINE ( 'NONE', #196, #93 ) ;
#370 = EDGE_LOOP ( 'NONE', ( #351, #94, #53, #453 ) ) ;
#371 = CIRCLE ( 'NONE', #36, 1.599999999999990319 ) ;
#372 = CARTESIAN_POINT ( 'NONE',  ( -37.00000000000000000, -2.000000000000000000, 194.0000000000000000 ) ) ;
#373 = PRODUCT_RELATED_PRODUCT_CATEGORY ( 'part', '', ( #3 ) ) ;
#374 = FACE_OUTER_BOUND ( 'NONE', #355, .T. ) ;
#375 = DIRECTION ( 'NONE',  ( -1.000000000000000000, -0.000000000000000000, -0.000000000000000000 ) ) ;
#376 = VERTEX_POINT ( 'NONE', #316 ) ;
#377 = CARTESIAN_POINT ( 'NONE',  ( -35.00000000000000000, 0.000000000000000000, 175.0000000000000000 ) ) ;
#378 = VERTEX_POINT ( 'NONE', #72 ) ;
#379 = ADVANCED_FACE ( 'NONE', ( #104, #231, #22 ), #389, .T. ) ;
#380 = DIRECTION ( 'NONE',  ( -1.000000000000000000, -0.000000000000000000, -0.000000000000000000 ) ) ;
#381 = FACE_OUTER_BOUND ( 'NONE', #506, .T. ) ;
#382 = EDGE_LOOP ( 'NONE', ( #34, #388, #268, #55 ) ) ;
#383 = DIRECTION ( 'NONE',  ( 0.000000000000000000, 1.334402673828311860E-16, 1.000000000000000000 ) ) ;
#384 = VECTOR ( 'NONE', #59, 1000.000000000000000 ) ;
#385 = AXIS2_PLACEMENT_3D ( 'NONE', #176, #493, #88 ) ;
#386 = CARTESIAN_POINT ( 'NONE',  ( -37.00000000000000000, 25.00000000000000000, 196.0000000000000000 ) ) ;
#387 = CARTESIAN_POINT ( 'NONE',  ( -35.00000000000000000, 0.000000000000000000, 185.0000000000000000 ) ) ;
#388 = ORIENTED_EDGE ( 'NONE', *, *, #136, .T. ) ;
#389 = PLANE ( 'NONE',  #28 ) ;
#390 = VERTEX_POINT ( 'NONE', #141 ) ;
#391 = ADVANCED_FACE ( 'NONE', ( #266, #66, #224 ), #31, .F. ) ;
#392 = AXIS2_PLACEMENT_3D ( 'NONE', #114, #162, #118 ) ;
#393 = ORIENTED_EDGE ( 'NONE', *, *, #117, .T. ) ;
#394 = DIRECTION ( 'NONE',  ( -1.000000000000000000, 0.000000000000000000, 0.000000000000000000 ) ) ;
#395 = ORIENTED_EDGE ( 'NONE', *, *, #153, .F. ) ;
#396 = ADVANCED_FACE ( 'NONE', ( #306 ), #270, .T. ) ;
#397 = EDGE_LOOP ( 'NONE', ( #406, #198 ) ) ;
#398 = DIRECTION ( 'NONE',  ( -1.000000000000000000, -0.000000000000000000, -0.000000000000000000 ) ) ;
#399 = CARTESIAN_POINT ( 'NONE',  ( -35.00000000000000000, -4.000000000000000000, 194.0000000000000000 ) ) ;
#400 = ORIENTED_EDGE ( 'NONE', *, *, #245, .F. ) ;
#401 = AXIS2_PLACEMENT_3D ( 'NONE', #142, #309, #458 ) ;
#402 = DIRECTION ( 'NONE',  ( -1.000000000000000000, -0.000000000000000000, -0.000000000000000000 ) ) ;
#403 = VERTEX_POINT ( 'NONE', #386 ) ;
#404 = EDGE_LOOP ( 'NONE', ( #119, #507, #120, #81 ) ) ;
#405 = EDGE_CURVE ( 'NONE', #207, #376, #115, .T. ) ;
#406 = ORIENTED_EDGE ( 'NONE', *, *, #212, .T. ) ;
#407 = DIRECTION ( 'NONE',  ( 0.000000000000000000, 0.000000000000000000, 1.000000000000000000 ) ) ;
#408 = VERTEX_POINT ( 'NONE', #350 ) ;
#409 = DIRECTION ( 'NONE',  ( -1.000000000000000000, 0.000000000000000000, 0.000000000000000000 ) ) ;
#410 = EDGE_CURVE ( 'NONE', #5, #75, #371, .T. ) ;
#411 = DIRECTION ( 'NONE',  ( 0.000000000000000000, 0.000000000000000000, -1.000000000000000000 ) ) ;
#412 = DIRECTION ( 'NONE',  ( -1.000000000000000000, 0.000000000000000000, 0.000000000000000000 ) ) ;
#413 = DIRECTION ( 'NONE',  ( -1.000000000000000000, 0.000000000000000000, 0.000000000000000000 ) ) ;
#414 = LINE ( 'NONE', #9, #160 ) ;
#415 = VECTOR ( 'NONE', #256, 1000.000000000000000 ) ;
#416 = PLANE ( 'NONE',  #472 ) ;
#417 = CARTESIAN_POINT ( 'NONE',  ( -37.00000000000000000, -4.000000000000000000, 4.956352788505189892E-16 ) ) ;
#418 = EDGE_LOOP ( 'NONE', ( #131, #275, #204, #265 ) ) ;
#419 = CARTESIAN_POINT ( 'NONE',  ( -35.00000000000000000, 0.000000000000000000, 188.0000000000000000 ) ) ;
#420 = VERTEX_POINT ( 'NONE', #353 ) ;
#421 = CARTESIAN_POINT ( 'NONE',  ( -37.00000000000000000, 0.000000000000000000, 175.0000000000000000 ) ) ;
#422 = CIRCLE ( 'NONE', #201, 2.000000000000001776 ) ;
#423 = ORIENTED_EDGE ( 'NONE', *, *, #252, .F. ) ;
#424 = DIRECTION ( 'NONE',  ( -1.000000000000000000, -0.000000000000000000, -0.000000000000000000 ) ) ;
#425 = CARTESIAN_POINT ( 'NONE',  ( -35.00000000000000000, 1.959434878635760053E-16, 186.5999999999999943 ) ) ;
#426 = EDGE_CURVE ( 'NONE', #75, #5, #124, .T. ) ;
#427 = ORIENTED_EDGE ( 'NONE', *, *, #103, .F. ) ;
#428 = CARTESIAN_POINT ( 'NONE',  ( -35.00000000000000000, 0.000000000000000000, 183.4000000000000057 ) ) ;
#429 = PRESENTATION_STYLE_ASSIGNMENT (( #84 ) ) ;
#430 = CIRCLE ( 'NONE', #209, 1.599999999999990319 ) ;
#431 = EDGE_CURVE ( 'NONE', #83, #473, #203, .T. ) ;
#432 = LINE ( 'NONE', #240, #318 ) ;
#433 = ORIENTED_EDGE ( 'NONE', *, *, #349, .F. ) ;
#434 = SURFACE_STYLE_FILL_AREA ( #157 ) ;
#435 = ORIENTED_EDGE ( 'NONE', *, *, #303, .F. ) ;
#436 = LINE ( 'NONE', #284, #260 ) ;
#437 = VERTEX_POINT ( 'NONE', #278 ) ;
#438 = PRESENTATION_LAYER_ASSIGNMENT (  '', '', ( #77 ) ) ;
#439 = DIRECTION ( 'NONE',  ( -1.000000000000000000, 0.000000000000000000, 0.000000000000000000 ) ) ;
#440 = ORIENTED_EDGE ( 'NONE', *, *, #103, .T. ) ;
#441 = EDGE_CURVE ( 'NONE', #420, #90, #243, .T. ) ;
#442 = DIRECTION ( 'NONE',  ( 0.000000000000000000, 0.000000000000000000, -1.000000000000000000 ) ) ;
#443 = ORIENTED_EDGE ( 'NONE', *, *, #502, .F. ) ;
#444 = CARTESIAN_POINT ( 'NONE',  ( -35.00000000000000000, 0.000000000000000000, 175.0000000000000000 ) ) ;
#445 = DIRECTION ( 'NONE',  ( 0.000000000000000000, 0.000000000000000000, 1.000000000000000000 ) ) ;
#446 = DIRECTION ( 'NONE',  ( 1.000000000000000000, 0.000000000000000000, 0.000000000000000000 ) ) ;
#447 = CARTESIAN_POINT ( 'NONE',  ( -35.00000000000000000, -4.000000000000000000, 4.956352788505189892E-16 ) ) ;
#448 = AXIS2_PLACEMENT_3D ( 'NONE', #211, #302, #259 ) ;
#449 = VECTOR ( 'NONE', #508, 1000.000000000000000 ) ;
#450 = LINE ( 'NONE', #419, #37 ) ;
#451 = ADVANCED_FACE ( 'NONE', ( #205 ), #170, .F. ) ;
#452 = CYLINDRICAL_SURFACE ( 'NONE', #194, 1.599999999999990319 ) ;
#453 = ORIENTED_EDGE ( 'NONE', *, *, #487, .T. ) ;
#454 = CARTESIAN_POINT ( 'NONE',  ( -35.00000000000000000, 1.959434878635760053E-16, 176.5999999999999943 ) ) ;
#455 = APPLICATION_PROTOCOL_DEFINITION ( 'draft international standard', 'automotive_design', 1998, #495 ) ;
#456 = DIRECTION ( 'NONE',  ( 0.000000000000000000, 0.000000000000000000, 1.000000000000000000 ) ) ;
#457 = CARTESIAN_POINT ( 'NONE',  ( -35.00000000000000000, -2.000000000000000000, 194.0000000000000000 ) ) ;
#458 = DIRECTION ( 'NONE',  ( 0.000000000000000000, 0.000000000000000000, 1.000000000000000000 ) ) ;
#459 = PRODUCT_DEFINITION ( 'General', '', #70, #509 ) ;
#460 = CARTESIAN_POINT ( 'NONE',  ( -35.00000000000000000, 6.000000000000000000, 186.0000000000000000 ) ) ;
#461 = DIRECTION ( 'NONE',  ( -1.000000000000000000, 0.000000000000000000, 0.000000000000000000 ) ) ;
#462 = DIRECTION ( 'NONE',  ( 0.000000000000000000, -1.000000000000000000, 0.000000000000000000 ) ) ;
#463 = ADVANCED_FACE ( 'NONE', ( #132 ), #214, .F. ) ;
#464 = MECHANICAL_DESIGN_GEOMETRIC_PRESENTATION_REPRESENTATION (  '', ( #77 ), #151 ) ;
#465 = AXIS2_PLACEMENT_3D ( 'NONE', #466, #276, #383 ) ;
#466 = CARTESIAN_POINT ( 'NONE',  ( -35.00000000000000000, 4.000000000000000000, -5.337610695313219830E-16 ) ) ;
#467 = DIRECTION ( 'NONE',  ( 0.000000000000000000, 0.000000000000000000, 1.000000000000000000 ) ) ;
#468 = LINE ( 'NONE', #428, #26 ) ;
#469 = ORIENTED_EDGE ( 'NONE', *, *, #7, .F. ) ;
#470 = CARTESIAN_POINT ( 'NONE',  ( -35.00000000000000000, 0.000000000000000000, 185.0000000000000000 ) ) ;
#471 = CYLINDRICAL_SURFACE ( 'NONE', #242, 4.000000000000003553 ) ;
#472 = AXIS2_PLACEMENT_3D ( 'NONE', #21, #220, #24 ) ;
#473 = VERTEX_POINT ( 'NONE', #95 ) ;
#474 = ORIENTED_EDGE ( 'NONE', *, *, #175, .F. ) ;
#475 = ORIENTED_EDGE ( 'NONE', *, *, #303, .T. ) ;
#476 = DIRECTION ( 'NONE',  ( 0.000000000000000000, 1.239088197126289831E-16, 1.000000000000000000 ) ) ;
#477 = EDGE_CURVE ( 'NONE', #38, #127, #336, .T. ) ;
#478 = VECTOR ( 'NONE', #394, 1000.000000000000000 ) ;
#479 = EDGE_LOOP ( 'NONE', ( #289, #393 ) ) ;
#480 = CIRCLE ( 'NONE', #178, 4.000000000000003553 ) ;
#481 = AXIS2_PLACEMENT_3D ( 'NONE', #310, #461, #228 ) ;
#482 = CARTESIAN_POINT ( 'NONE',  ( -35.00000000000000000, 4.000000000000000000, -5.337610695313219830E-16 ) ) ;
#483 = VERTEX_POINT ( 'NONE', #484 ) ;
#484 = CARTESIAN_POINT ( 'NONE',  ( -35.00000000000000000, 1.959434878635764984E-16, 176.5999999999999943 ) ) ;
#485 = CARTESIAN_POINT ( 'NONE',  ( -37.00000000000000000, 0.000000000000000000, 185.0000000000000000 ) ) ;
#486 = ORIENTED_EDGE ( 'NONE', *, *, #245, .T. ) ;
#487 = EDGE_CURVE ( 'NONE', #38, #73, #308, .T. ) ;
#488 = DIRECTION ( 'NONE',  ( 0.000000000000000000, 0.000000000000000000, 1.000000000000000000 ) ) ;
#489 = CARTESIAN_POINT ( 'NONE',  ( -35.00000000000000000, 0.000000000000000000, 175.0000000000000000 ) ) ;
#490 = CARTESIAN_POINT ( 'NONE',  ( -37.00000000000000000, -2.000000000000000000, 196.0000000000000000 ) ) ;
#491 = CIRCLE ( 'NONE', #79, 4.000000000000003553 ) ;
#492 = DIRECTION ( 'NONE',  ( 0.000000000000000000, 0.000000000000000000, 1.000000000000000000 ) ) ;
#493 = DIRECTION ( 'NONE',  ( -1.000000000000000000, -0.000000000000000000, -0.000000000000000000 ) ) ;
#494 = PLANE ( 'NONE',  #2 ) ;
#495 = APPLICATION_CONTEXT ( 'automotive_design' ) ;
#496 = DIRECTION ( 'NONE',  ( -1.000000000000000000, 0.000000000000000000, 0.000000000000000000 ) ) ;
#497 = EDGE_CURVE ( 'NONE', #202, #376, #17, .T. ) ;
#498 = ORIENTED_EDGE ( 'NONE', *, *, #410, .T. ) ;
#499 = VECTOR ( 'NONE', #126, 1000.000000000000000 ) ;
#500 = FACE_OUTER_BOUND ( 'NONE', #510, .T. ) ;
#501 = EDGE_LOOP ( 'NONE', ( #239, #105, #362, #331 ) ) ;
#502 = EDGE_CURVE ( 'NONE', #403, #286, #288, .T. ) ;
#503 = DIRECTION ( 'NONE',  ( 1.000000000000000000, 0.000000000000000000, 0.000000000000000000 ) ) ;
#504 = CIRCLE ( 'NONE', #52, 1.599999999999990319 ) ;
#505 = LINE ( 'NONE', #188, #253 ) ;
#506 = EDGE_LOOP ( 'NONE', ( #433, #423, #8, #158 ) ) ;
#507 = ORIENTED_EDGE ( 'NONE', *, *, #497, .T. ) ;
#508 = DIRECTION ( 'NONE',  ( 1.000000000000000000, 0.000000000000000000, 0.000000000000000000 ) ) ;
#509 = PRODUCT_DEFINITION_CONTEXT ( 'detailed design', #221, 'design' ) ;
#510 = EDGE_LOOP ( 'NONE', ( #475, #367, #244, #165 ) ) ;
ENDSEC;
END-ISO-10303-21;
