ISO-10303-21;
HEADER;
FILE_DESCRIPTION (( 'STEP AP214' ),
    '1' );
FILE_NAME ('ASV1_100_14X.STEP',
    '2026-07-31T06:35:37',
    ( '' ),
    ( '' ),
    'SwSTEP 2.0',
    'SolidWorks 2025',
    '' );
FILE_SCHEMA (( 'AUTOMOTIVE_DESIGN' ));
ENDSEC;

DATA;
#1 = CARTESIAN_POINT ( 'NONE',  ( 63.00000000000000000, -14.75000000000000000, 21.00000000000000000 ) ) ;
#2 = FACE_OUTER_BOUND ( 'NONE', #18, .T. ) ;
#3 = CYLINDRICAL_SURFACE ( 'NONE', #390, 1.999999999999998224 ) ;
#4 = DIRECTION ( 'NONE',  ( -0.000000000000000000, -0.000000000000000000, -1.000000000000000000 ) ) ;
#5 = FACE_OUTER_BOUND ( 'NONE', #361, .T. ) ;
#6 = VECTOR ( 'NONE', #152, 1000.000000000000000 ) ;
#7 = FACE_OUTER_BOUND ( 'NONE', #327, .T. ) ;
#8 = ORIENTED_EDGE ( 'NONE', *, *, #337, .F. ) ;
#9 = CARTESIAN_POINT ( 'NONE',  ( 12.30000000000000071, 0.000000000000000000, 0.000000000000000000 ) ) ;
#10 = ORIENTED_EDGE ( 'NONE', *, *, #167, .F. ) ;
#11 = CARTESIAN_POINT ( 'NONE',  ( 0.9999999999999991118, 0.000000000000000000, 0.000000000000000000 ) ) ;
#12 = CARTESIAN_POINT ( 'NONE',  ( 38.50000000000000711, -14.75000000000000000, 18.99999999999999289 ) ) ;
#13 = ADVANCED_FACE ( 'NONE', ( #35 ), #3, .T. ) ;
#14 = MECHANICAL_DESIGN_GEOMETRIC_PRESENTATION_REPRESENTATION (  '', ( #17 ), #422 ) ;
#15 = LINE ( 'NONE', #122, #93 ) ;
#16 = DIRECTION ( 'NONE',  ( 0.000000000000000000, 0.000000000000000000, 1.000000000000000000 ) ) ;
#17 = STYLED_ITEM ( 'NONE', ( #153 ), #149 ) ;
#18 = EDGE_LOOP ( 'NONE', ( #100 ) ) ;
#19 =( NAMED_UNIT ( * ) SI_UNIT ( $, .STERADIAN. ) SOLID_ANGLE_UNIT ( ) );
#20 = FILL_AREA_STYLE_COLOUR ( '', #283 ) ;
#21 = ORIENTED_EDGE ( 'NONE', *, *, #212, .T. ) ;
#22 = DIRECTION ( 'NONE',  ( 0.000000000000000000, 0.000000000000000000, 1.000000000000000000 ) ) ;
#23 = EDGE_LOOP ( 'NONE', ( #121 ) ) ;
#24 = CIRCLE ( 'NONE', #189, 10.00000000000000000 ) ;
#25 = VERTEX_POINT ( 'NONE', #165 ) ;
#26 = ORIENTED_EDGE ( 'NONE', *, *, #412, .T. ) ;
#27 = PRODUCT_DEFINITION_SHAPE ( 'NONE', 'NONE',  #341 ) ;
#28 = VERTEX_POINT ( 'NONE', #277 ) ;
#29 = CIRCLE ( 'NONE', #169, 10.00000000000000000 ) ;
#30 = DIRECTION ( 'NONE',  ( 0.000000000000000000, 1.000000000000000000, 0.000000000000000000 ) ) ;
#31 = PRODUCT_DEFINITION_FORMATION_WITH_SPECIFIED_SOURCE ( 'ANY', '', #148, .NOT_KNOWN. ) ;
#32 = DIRECTION ( 'NONE',  ( 1.000000000000000000, -0.000000000000000000, -0.000000000000000000 ) ) ;
#33 = DIRECTION ( 'NONE',  ( 1.000000000000000000, -0.000000000000000000, -0.000000000000000000 ) ) ;
#34 = CARTESIAN_POINT ( 'NONE',  ( 63.00000000000000000, 14.75000000000000000, 19.00000000000000711 ) ) ;
#35 = FACE_OUTER_BOUND ( 'NONE', #157, .T. ) ;
#36 = DIRECTION ( 'NONE',  ( 1.000000000000000000, 0.000000000000000000, 0.000000000000000000 ) ) ;
#37 = DIRECTION ( 'NONE',  ( -1.000000000000000000, 0.000000000000000000, 0.000000000000000000 ) ) ;
#38 = DIRECTION ( 'NONE',  ( 0.000000000000000000, 0.000000000000000000, 1.000000000000000000 ) ) ;
#39 = FACE_OUTER_BOUND ( 'NONE', #23, .T. ) ;
#40 = CARTESIAN_POINT ( 'NONE',  ( 63.00000000000000000, -14.75000000000000000, -21.00000000000000000 ) ) ;
#41 = DIRECTION ( 'NONE',  ( 1.000000000000000000, 0.000000000000000000, -0.000000000000000000 ) ) ;
#42 = EDGE_CURVE ( 'NONE', #46, #57, #370, .T. ) ;
#43 = LINE ( 'NONE', #117, #374 ) ;
#44 = AXIS2_PLACEMENT_3D ( 'NONE', #82, #213, #254 ) ;
#45 = CARTESIAN_POINT ( 'NONE',  ( 63.00000000000000000, 0.000000000000000000, 0.000000000000000000 ) ) ;
#46 = VERTEX_POINT ( 'NONE', #171 ) ;
#47 = DIRECTION ( 'NONE',  ( 0.000000000000000000, 0.000000000000000000, 1.000000000000000000 ) ) ;
#48 = CARTESIAN_POINT ( 'NONE',  ( 63.00000000000000000, -12.75000000000000000, 19.00000000000000711 ) ) ;
#49 = ORIENTED_EDGE ( 'NONE', *, *, #358, .T. ) ;
#50 = CARTESIAN_POINT ( 'NONE',  ( 12.30000000000000071, 0.000000000000000000, -14.80000000000000071 ) ) ;
#51 = TOROIDAL_SURFACE ( 'NONE', #381, 13.79999999999999893, 1.000000000000000000 ) ;
#52 = CIRCLE ( 'NONE', #61, 2.000000000000001776 ) ;
#53 = LINE ( 'NONE', #119, #136 ) ;
#54 = EDGE_CURVE ( 'NONE', #286, #264, #301, .T. ) ;
#55 = ADVANCED_BREP_SHAPE_REPRESENTATION ( 'ASV1_100_14X', ( #149, #137 ), #324 ) ;
#56 = DIRECTION ( 'NONE',  ( -1.000000000000000000, -0.000000000000000000, -0.000000000000000000 ) ) ;
#57 = VERTEX_POINT ( 'NONE', #145 ) ;
#58 =( LENGTH_UNIT ( ) NAMED_UNIT ( * ) SI_UNIT ( .MILLI., .METRE. ) );
#59 = ORIENTED_EDGE ( 'NONE', *, *, #180, .F. ) ;
#60 = VECTOR ( 'NONE', #4, 1000.000000000000000 ) ;
#61 = AXIS2_PLACEMENT_3D ( 'NONE', #320, #192, #22 ) ;
#62 = ADVANCED_FACE ( 'NONE', ( #279, #308 ), #311, .T. ) ;
#63 = ORIENTED_EDGE ( 'NONE', *, *, #257, .F. ) ;
#64 = EDGE_LOOP ( 'NONE', ( #382 ) ) ;
#65 = CARTESIAN_POINT ( 'NONE',  ( 12.30000000000000071, 0.000000000000000000, 0.000000000000000000 ) ) ;
#66 = CARTESIAN_POINT ( 'NONE',  ( 38.50000000000000711, -12.75000000000000000, -21.00000000000000000 ) ) ;
#67 = CIRCLE ( 'NONE', #295, 2.000000000000001776 ) ;
#68 = LINE ( 'NONE', #1, #345 ) ;
#69 = FACE_OUTER_BOUND ( 'NONE', #388, .T. ) ;
#70 = EDGE_CURVE ( 'NONE', #193, #217, #340, .T. ) ;
#71 = VERTEX_POINT ( 'NONE', #238 ) ;
#72 = DIRECTION ( 'NONE',  ( -0.000000000000000000, -1.000000000000000000, -0.000000000000000000 ) ) ;
#73 = DIRECTION ( 'NONE',  ( -1.000000000000000000, 0.000000000000000000, 0.000000000000000000 ) ) ;
#74 = PLANE ( 'NONE',  #274 ) ;
#75 = DIRECTION ( 'NONE',  ( 0.000000000000000000, 0.000000000000000000, 1.000000000000000000 ) ) ;
#76 = AXIS2_PLACEMENT_3D ( 'NONE', #9, #244, #282 ) ;
#77 = CIRCLE ( 'NONE', #246, 1.999999999999998224 ) ;
#78 = ADVANCED_FACE ( 'NONE', ( #104, #39 ), #313, .T. ) ;
#79 = CARTESIAN_POINT ( 'NONE',  ( 63.00000000000000000, 12.75000000000000000, -19.00000000000000355 ) ) ;
#80 = FACE_OUTER_BOUND ( 'NONE', #268, .T. ) ;
#81 = PRODUCT_RELATED_PRODUCT_CATEGORY ( 'part', '', ( #148 ) ) ;
#82 = CARTESIAN_POINT ( 'NONE',  ( 63.00000000000000000, 12.75000000000000000, -19.00000000000000355 ) ) ;
#83 = ORIENTED_EDGE ( 'NONE', *, *, #337, .T. ) ;
#84 = EDGE_CURVE ( 'NONE', #25, #25, #29, .T. ) ;
#85 = CARTESIAN_POINT ( 'NONE',  ( 12.30000000000000071, 0.000000000000000000, 0.000000000000000000 ) ) ;
#86 = APPLICATION_CONTEXT ( 'automotive_design' ) ;
#87 = AXIS2_PLACEMENT_3D ( 'NONE', #79, #371, #38 ) ;
#88 = AXIS2_PLACEMENT_3D ( 'NONE', #218, #260, #317 ) ;
#89 = CARTESIAN_POINT ( 'NONE',  ( 63.00000000000000000, -14.75000000000000000, -21.00000000000000000 ) ) ;
#90 = VERTEX_POINT ( 'NONE', #362 ) ;
#91 = UNCERTAINTY_MEASURE_WITH_UNIT (LENGTH_MEASURE( 1.000000000000000082E-05 ), #346, 'distance_accuracy_value', 'NONE');
#92 = EDGE_CURVE ( 'NONE', #286, #71, #329, .T. ) ;
#93 = VECTOR ( 'NONE', #155, 1000.000000000000000 ) ;
#94 = AXIS2_PLACEMENT_3D ( 'NONE', #162, #56, #98 ) ;
#95 = ORIENTED_EDGE ( 'NONE', *, *, #384, .F. ) ;
#96 = DIRECTION ( 'NONE',  ( -1.000000000000000000, 0.000000000000000000, 0.000000000000000000 ) ) ;
#97 = ORIENTED_EDGE ( 'NONE', *, *, #212, .F. ) ;
#98 = DIRECTION ( 'NONE',  ( 0.000000000000000000, 0.000000000000000000, 1.000000000000000000 ) ) ;
#99 = VERTEX_POINT ( 'NONE', #110 ) ;
#100 = ORIENTED_EDGE ( 'NONE', *, *, #140, .F. ) ;
#101 = AXIS2_PLACEMENT_3D ( 'NONE', #278, #406, #280 ) ;
#102 = SHAPE_DEFINITION_REPRESENTATION ( #27, #55 ) ;
#103 = ORIENTED_EDGE ( 'NONE', *, *, #42, .T. ) ;
#104 = FACE_BOUND ( 'NONE', #397, .T. ) ;
#105 = ORIENTED_EDGE ( 'NONE', *, *, #42, .F. ) ;
#106 = DIRECTION ( 'NONE',  ( 1.000000000000000000, 0.000000000000000000, 0.000000000000000000 ) ) ;
#107 = ORIENTED_EDGE ( 'NONE', *, *, #384, .T. ) ;
#108 = EDGE_CURVE ( 'NONE', #46, #99, #68, .T. ) ;
#109 = CARTESIAN_POINT ( 'NONE',  ( 38.50000000000000711, -12.75000000000000000, 21.00000000000000000 ) ) ;
#110 = CARTESIAN_POINT ( 'NONE',  ( 63.00000000000000000, -12.75000000000000000, 21.00000000000000000 ) ) ;
#111 = DIRECTION ( 'NONE',  ( 0.000000000000000000, -0.000000000000000000, 1.000000000000000000 ) ) ;
#112 = EDGE_LOOP ( 'NONE', ( #386 ) ) ;
#113 = DIRECTION ( 'NONE',  ( -0.000000000000000000, -0.000000000000000000, -1.000000000000000000 ) ) ;
#114 = DIRECTION ( 'NONE',  ( 0.000000000000000000, 0.000000000000000000, 1.000000000000000000 ) ) ;
#115 = EDGE_CURVE ( 'NONE', #71, #222, #139, .T. ) ;
#116 = CARTESIAN_POINT ( 'NONE',  ( 63.00000000000000000, -14.75000000000000000, 21.00000000000000000 ) ) ;
#117 = CARTESIAN_POINT ( 'NONE',  ( 38.50000000000000711, 14.75000000000000000, -21.00000000000000000 ) ) ;
#118 = VECTOR ( 'NONE', #37, 1000.000000000000000 ) ;
#119 = CARTESIAN_POINT ( 'NONE',  ( 63.00000000000000000, -12.75000000000000000, 21.00000000000000000 ) ) ;
#120 = CARTESIAN_POINT ( 'NONE',  ( 38.50000000000000711, 12.75000000000000000, -19.00000000000000355 ) ) ;
#121 = ORIENTED_EDGE ( 'NONE', *, *, #140, .T. ) ;
#122 = CARTESIAN_POINT ( 'NONE',  ( 63.00000000000000000, -12.75000000000000000, -21.00000000000000000 ) ) ;
#123 = ADVANCED_FACE ( 'NONE', ( #5 ), #158, .F. ) ;
#124 = ORIENTED_EDGE ( 'NONE', *, *, #201, .F. ) ;
#125 =( NAMED_UNIT ( * ) PLANE_ANGLE_UNIT ( ) SI_UNIT ( $, .RADIAN. ) );
#126 = AXIS2_PLACEMENT_3D ( 'NONE', #45, #377, #47 ) ;
#127 = FACE_OUTER_BOUND ( 'NONE', #405, .T. ) ;
#128 = ORIENTED_EDGE ( 'NONE', *, *, #305, .T. ) ;
#129 = CYLINDRICAL_SURFACE ( 'NONE', #94, 10.00000000000000000 ) ;
#130 = ORIENTED_EDGE ( 'NONE', *, *, #180, .T. ) ;
#131 = EDGE_CURVE ( 'NONE', #195, #195, #24, .T. ) ;
#132 = VERTEX_POINT ( 'NONE', #50 ) ;
#133 = AXIS2_PLACEMENT_3D ( 'NONE', #65, #273, #230 ) ;
#134 = ORIENTED_EDGE ( 'NONE', *, *, #131, .T. ) ;
#135 = CARTESIAN_POINT ( 'NONE',  ( 0.000000000000000000, 0.000000000000000000, -13.79999999999999893 ) ) ;
#136 = VECTOR ( 'NONE', #321, 1000.000000000000000 ) ;
#137 = AXIS2_PLACEMENT_3D ( 'NONE', #306, #225, #270 ) ;
#138 = ORIENTED_EDGE ( 'NONE', *, *, #396, .F. ) ;
#139 = LINE ( 'NONE', #269, #398 ) ;
#140 = EDGE_CURVE ( 'NONE', #132, #132, #391, .T. ) ;
#141 = LINE ( 'NONE', #211, #214 ) ;
#142 = DIRECTION ( 'NONE',  ( -1.000000000000000000, 0.000000000000000000, 0.000000000000000000 ) ) ;
#143 = PRODUCT_CONTEXT ( 'NONE', #271, 'mechanical' ) ;
#144 = CARTESIAN_POINT ( 'NONE',  ( 38.50000000000000711, 12.74999999999999822, 19.00000000000000355 ) ) ;
#145 = CARTESIAN_POINT ( 'NONE',  ( 38.50000000000000711, 12.74999999999999822, 21.00000000000000000 ) ) ;
#146 = DIRECTION ( 'NONE',  ( 0.000000000000000000, 0.000000000000000000, -1.000000000000000000 ) ) ;
#147 = CARTESIAN_POINT ( 'NONE',  ( 38.50000000000000711, 0.000000000000000000, 0.000000000000000000 ) ) ;
#148 = PRODUCT ( 'ASV1_100_14X', 'ASV1_100_14X', '', ( #143 ) ) ;
#149 = MANIFOLD_SOLID_BREP ( 'Fillet2', #185 ) ;
#150 = DIRECTION ( 'NONE',  ( 0.000000000000000000, 0.000000000000000000, -1.000000000000000000 ) ) ;
#151 = CARTESIAN_POINT ( 'NONE',  ( 12.30000000000000071, 0.000000000000000000, 0.000000000000000000 ) ) ;
#152 = DIRECTION ( 'NONE',  ( -1.000000000000000000, 0.000000000000000000, 0.000000000000000000 ) ) ;
#153 = PRESENTATION_STYLE_ASSIGNMENT (( #215 ) ) ;
#154 = CIRCLE ( 'NONE', #425, 2.000000000000001776 ) ;
#155 = DIRECTION ( 'NONE',  ( -1.000000000000000000, 0.000000000000000000, 0.000000000000000000 ) ) ;
#156 = ADVANCED_FACE ( 'NONE', ( #413 ), #348, .T. ) ;
#157 = EDGE_LOOP ( 'NONE', ( #256, #8, #168, #251 ) ) ;
#158 = PLANE ( 'NONE',  #126 ) ;
#159 = CIRCLE ( 'NONE', #338, 2.000000000000001776 ) ;
#160 = CARTESIAN_POINT ( 'NONE',  ( 63.00000000000000000, -14.75000000000000000, -21.00000000000000000 ) ) ;
#161 = EDGE_CURVE ( 'NONE', #220, #347, #43, .T. ) ;
#162 = CARTESIAN_POINT ( 'NONE',  ( 66.78427124746190202, 0.000000000000000000, 0.000000000000000000 ) ) ;
#163 = ORIENTED_EDGE ( 'NONE', *, *, #170, .F. ) ;
#164 = DIRECTION ( 'NONE',  ( 1.000000000000000000, 0.000000000000000000, 0.000000000000000000 ) ) ;
#165 = CARTESIAN_POINT ( 'NONE',  ( 38.50000000000000711, 0.000000000000000000, 10.00000000000000000 ) ) ;
#166 = ORIENTED_EDGE ( 'NONE', *, *, #161, .T. ) ;
#167 = EDGE_CURVE ( 'NONE', #222, #193, #235, .T. ) ;
#168 = ORIENTED_EDGE ( 'NONE', *, *, #373, .F. ) ;
#169 = AXIS2_PLACEMENT_3D ( 'NONE', #304, #142, #402 ) ;
#170 = EDGE_CURVE ( 'NONE', #323, #286, #15, .T. ) ;
#171 = CARTESIAN_POINT ( 'NONE',  ( 63.00000000000000000, 12.74999999999999822, 21.00000000000000000 ) ) ;
#172 = DIRECTION ( 'NONE',  ( 0.000000000000000000, 0.000000000000000000, 1.000000000000000000 ) ) ;
#173 = ADVANCED_FACE ( 'NONE', ( #80 ), #385, .F. ) ;
#174 = CARTESIAN_POINT ( 'NONE',  ( 63.00000000000000000, 14.75000000000000000, -21.00000000000000000 ) ) ;
#175 = LINE ( 'NONE', #232, #60 ) ;
#176 = DIRECTION ( 'NONE',  ( 0.000000000000000000, 0.000000000000000000, 1.000000000000000000 ) ) ;
#177 = CARTESIAN_POINT ( 'NONE',  ( 0.000000000000000000, 0.000000000000000000, 0.000000000000000000 ) ) ;
#178 = AXIS2_PLACEMENT_3D ( 'NONE', #89, #343, #41 ) ;
#179 = CARTESIAN_POINT ( 'NONE',  ( 63.00000000000000000, 12.74999999999999822, 21.00000000000000000 ) ) ;
#180 = EDGE_CURVE ( 'NONE', #220, #71, #154, .T. ) ;
#181 = FACE_OUTER_BOUND ( 'NONE', #326, .T. ) ;
#182 = DIRECTION ( 'NONE',  ( 0.000000000000000000, 0.000000000000000000, 1.000000000000000000 ) ) ;
#183 = FACE_OUTER_BOUND ( 'NONE', #233, .T. ) ;
#184 = DIRECTION ( 'NONE',  ( -1.000000000000000000, 0.000000000000000000, 0.000000000000000000 ) ) ;
#185 = CLOSED_SHELL ( 'NONE', ( #223, #78, #293, #237, #363, #366, #319, #229, #173, #123, #62, #156, #231, #13, #378 ) ) ;
#186 = FILL_AREA_STYLE ('',( #20 ) ) ;
#187 = VERTEX_POINT ( 'NONE', #12 ) ;
#188 = CARTESIAN_POINT ( 'NONE',  ( 63.00000000000000000, 12.74999999999999822, 19.00000000000000355 ) ) ;
#189 = AXIS2_PLACEMENT_3D ( 'NONE', #85, #247, #344 ) ;
#190 = EDGE_LOOP ( 'NONE', ( #316, #357, #63, #400, #205, #395, #414, #130 ) ) ;
#191 = CARTESIAN_POINT ( 'NONE',  ( 12.30000000000000071, 0.000000000000000000, -10.00000000000000000 ) ) ;
#192 = DIRECTION ( 'NONE',  ( 1.000000000000000000, -0.000000000000000000, -0.000000000000000000 ) ) ;
#193 = VERTEX_POINT ( 'NONE', #250 ) ;
#194 = EDGE_CURVE ( 'NONE', #90, #28, #285, .T. ) ;
#195 = VERTEX_POINT ( 'NONE', #191 ) ;
#196 = VECTOR ( 'NONE', #408, 1000.000000000000000 ) ;
#197 = ORIENTED_EDGE ( 'NONE', *, *, #275, .T. ) ;
#198 = ORIENTED_EDGE ( 'NONE', *, *, #305, .F. ) ;
#199 = CARTESIAN_POINT ( 'NONE',  ( 38.50000000000000711, -12.75000000000000000, -19.00000000000000355 ) ) ;
#200 = AXIS2_PLACEMENT_3D ( 'NONE', #199, #73, #75 ) ;
#201 = EDGE_CURVE ( 'NONE', #57, #347, #67, .T. ) ;
#202 = CARTESIAN_POINT ( 'NONE',  ( 0.000000000000000000, 0.000000000000000000, 0.000000000000000000 ) ) ;
#203 = EDGE_LOOP ( 'NONE', ( #253 ) ) ;
#204 = CARTESIAN_POINT ( 'NONE',  ( 38.50000000000000711, 14.75000000000000000, -19.00000000000000355 ) ) ;
#205 = ORIENTED_EDGE ( 'NONE', *, *, #275, .F. ) ;
#206 = LINE ( 'NONE', #364, #416 ) ;
#207 = ORIENTED_EDGE ( 'NONE', *, *, #170, .T. ) ;
#208 = CARTESIAN_POINT ( 'NONE',  ( 63.00000000000000000, -14.75000000000000000, 19.00000000000000711 ) ) ;
#209 = AXIS2_PLACEMENT_3D ( 'NONE', #116, #411, #325 ) ;
#210 = ORIENTED_EDGE ( 'NONE', *, *, #115, .F. ) ;
#211 = CARTESIAN_POINT ( 'NONE',  ( 63.00000000000000000, -14.75000000000000000, -19.00000000000000355 ) ) ;
#212 = EDGE_CURVE ( 'NONE', #264, #28, #141, .T. ) ;
#213 = DIRECTION ( 'NONE',  ( 1.000000000000000000, -0.000000000000000000, -0.000000000000000000 ) ) ;
#214 = VECTOR ( 'NONE', #367, 1000.000000000000000 ) ;
#215 = SURFACE_STYLE_USAGE ( .BOTH. , #216 ) ;
#216 = SURFACE_SIDE_STYLE ('',( #287 ) ) ;
#217 = VERTEX_POINT ( 'NONE', #272 ) ;
#218 = CARTESIAN_POINT ( 'NONE',  ( 63.00000000000000000, 14.75000000000000000, -21.00000000000000000 ) ) ;
#219 = ORIENTED_EDGE ( 'NONE', *, *, #70, .F. ) ;
#220 = VERTEX_POINT ( 'NONE', #204 ) ;
#221 = DIRECTION ( 'NONE',  ( 0.000000000000000000, 0.000000000000000000, 1.000000000000000000 ) ) ;
#222 = VERTEX_POINT ( 'NONE', #307 ) ;
#223 = ADVANCED_FACE ( 'NONE', ( #333, #2 ), #401, .T. ) ;
#224 = DIRECTION ( 'NONE',  ( 0.000000000000000000, 0.000000000000000000, 1.000000000000000000 ) ) ;
#225 = DIRECTION ( 'NONE',  ( 0.000000000000000000, 0.000000000000000000, 1.000000000000000000 ) ) ;
#226 = CIRCLE ( 'NONE', #318, 13.79999999999999893 ) ;
#227 = ORIENTED_EDGE ( 'NONE', *, *, #257, .T. ) ;
#228 = VERTEX_POINT ( 'NONE', #109 ) ;
#229 = ADVANCED_FACE ( 'NONE', ( #342 ), #74, .F. ) ;
#230 = DIRECTION ( 'NONE',  ( 0.000000000000000000, 0.000000000000000000, -1.000000000000000000 ) ) ;
#231 = ADVANCED_FACE ( 'NONE', ( #183 ), #375, .T. ) ;
#232 = CARTESIAN_POINT ( 'NONE',  ( 38.50000000000000711, -14.75000000000000000, -21.00000000000000000 ) ) ;
#233 = EDGE_LOOP ( 'NONE', ( #10, #210, #59, #426 ) ) ;
#234 = APPLICATION_PROTOCOL_DEFINITION ( 'draft international standard', 'automotive_design', 1998, #271 ) ;
#235 = CIRCLE ( 'NONE', #44, 2.000000000000001776 ) ;
#236 = DIRECTION ( 'NONE',  ( 0.000000000000000000, 0.000000000000000000, -1.000000000000000000 ) ) ;
#237 = ADVANCED_FACE ( 'NONE', ( #239, #69 ), #51, .T. ) ;
#238 = CARTESIAN_POINT ( 'NONE',  ( 38.50000000000000711, 12.74999999999999822, -21.00000000000000000 ) ) ;
#239 = FACE_OUTER_BOUND ( 'NONE', #112, .T. ) ;
#240 = EDGE_CURVE ( 'NONE', #347, #217, #303, .T. ) ;
#241 = ORIENTED_EDGE ( 'NONE', *, *, #315, .F. ) ;
#242 = DIRECTION ( 'NONE',  ( 0.000000000000000000, 1.000000000000000000, 0.000000000000000000 ) ) ;
#243 = ORIENTED_EDGE ( 'NONE', *, *, #167, .T. ) ;
#244 = DIRECTION ( 'NONE',  ( -1.000000000000000000, -0.000000000000000000, -0.000000000000000000 ) ) ;
#245 = VECTOR ( 'NONE', #113, 1000.000000000000000 ) ;
#246 = AXIS2_PLACEMENT_3D ( 'NONE', #419, #96, #16 ) ;
#247 = DIRECTION ( 'NONE',  ( 1.000000000000000000, 0.000000000000000000, 0.000000000000000000 ) ) ;
#248 = EDGE_CURVE ( 'NONE', #90, #187, #369, .T. ) ;
#249 =( NAMED_UNIT ( * ) PLANE_ANGLE_UNIT ( ) SI_UNIT ( $, .RADIAN. ) );
#250 = CARTESIAN_POINT ( 'NONE',  ( 63.00000000000000000, 14.75000000000000000, -19.00000000000000355 ) ) ;
#251 = ORIENTED_EDGE ( 'NONE', *, *, #248, .F. ) ;
#252 = CARTESIAN_POINT ( 'NONE',  ( 63.00000000000000000, -14.75000000000000000, -21.00000000000000000 ) ) ;
#253 = ORIENTED_EDGE ( 'NONE', *, *, #84, .T. ) ;
#254 = DIRECTION ( 'NONE',  ( 0.000000000000000000, 0.000000000000000000, 1.000000000000000000 ) ) ;
#255 = VECTOR ( 'NONE', #354, 1000.000000000000000 ) ;
#256 = ORIENTED_EDGE ( 'NONE', *, *, #358, .F. ) ;
#257 = EDGE_CURVE ( 'NONE', #187, #264, #175, .T. ) ;
#258 = CARTESIAN_POINT ( 'NONE',  ( 63.00000000000000000, 14.75000000000000000, -19.00000000000000355 ) ) ;
#259 = ORIENTED_EDGE ( 'NONE', *, *, #240, .T. ) ;
#260 = DIRECTION ( 'NONE',  ( 0.000000000000000000, -1.000000000000000000, 0.000000000000000000 ) ) ;
#261 = VECTOR ( 'NONE', #30, 1000.000000000000000 ) ;
#262 = AXIS2_PLACEMENT_3D ( 'NONE', #188, #356, #224 ) ;
#263 = FACE_OUTER_BOUND ( 'NONE', #203, .T. ) ;
#264 = VERTEX_POINT ( 'NONE', #339 ) ;
#265 = VERTEX_POINT ( 'NONE', #291 ) ;
#266 = CIRCLE ( 'NONE', #392, 1.999999999999998224 ) ;
#267 = ORIENTED_EDGE ( 'NONE', *, *, #108, .T. ) ;
#268 = EDGE_LOOP ( 'NONE', ( #138, #207, #420, #368 ) ) ;
#269 = CARTESIAN_POINT ( 'NONE',  ( 63.00000000000000000, 12.74999999999999822, -21.00000000000000000 ) ) ;
#270 = DIRECTION ( 'NONE',  ( 1.000000000000000000, 0.000000000000000000, 0.000000000000000000 ) ) ;
#271 = APPLICATION_CONTEXT ( 'automotive_design' ) ;
#272 = CARTESIAN_POINT ( 'NONE',  ( 63.00000000000000000, 14.75000000000000000, 18.99999999999999289 ) ) ;
#273 = DIRECTION ( 'NONE',  ( 1.000000000000000000, 0.000000000000000000, 0.000000000000000000 ) ) ;
#274 = AXIS2_PLACEMENT_3D ( 'NONE', #40, #242, #111 ) ;
#275 = EDGE_CURVE ( 'NONE', #57, #228, #206, .T. ) ;
#276 = DIRECTION ( 'NONE',  ( -1.000000000000000000, 0.000000000000000000, 0.000000000000000000 ) ) ;
#277 = CARTESIAN_POINT ( 'NONE',  ( 63.00000000000000000, -14.75000000000000000, -19.00000000000000355 ) ) ;
#278 = CARTESIAN_POINT ( 'NONE',  ( 0.9999999999999991118, 0.000000000000000000, 0.000000000000000000 ) ) ;
#279 = FACE_BOUND ( 'NONE', #64, .T. ) ;
#280 = DIRECTION ( 'NONE',  ( 0.000000000000000000, 0.000000000000000000, -1.000000000000000000 ) ) ;
#281 =( NAMED_UNIT ( * ) SI_UNIT ( $, .STERADIAN. ) SOLID_ANGLE_UNIT ( ) );
#282 = DIRECTION ( 'NONE',  ( 0.000000000000000000, 0.000000000000000000, 1.000000000000000000 ) ) ;
#283 = COLOUR_RGB ( '',0.7921568627450980005, 0.8196078431372548767, 0.9333333333333333481 ) ;
#284 = CARTESIAN_POINT ( 'NONE',  ( 63.00000000000000000, -12.75000000000000000, -19.00000000000000355 ) ) ;
#285 = LINE ( 'NONE', #252, #245 ) ;
#286 = VERTEX_POINT ( 'NONE', #66 ) ;
#287 = SURFACE_STYLE_FILL_AREA ( #186 ) ;
#288 = ORIENTED_EDGE ( 'NONE', *, *, #108, .F. ) ;
#289 = CIRCLE ( 'NONE', #101, 14.80000000000000071 ) ;
#290 = LINE ( 'NONE', #258, #255 ) ;
#291 = CARTESIAN_POINT ( 'NONE',  ( 0.9999999999999991118, 0.000000000000000000, -14.80000000000000071 ) ) ;
#292 = PRODUCT_DEFINITION_CONTEXT ( 'detailed design', #86, 'design' ) ;
#293 = ADVANCED_FACE ( 'NONE', ( #7 ), #335, .F. ) ;
#294 = CARTESIAN_POINT ( 'NONE',  ( 38.50000000000000711, 14.75000000000000000, 18.99999999999999289 ) ) ;
#295 = AXIS2_PLACEMENT_3D ( 'NONE', #144, #276, #404 ) ;
#296 = VERTEX_POINT ( 'NONE', #135 ) ;
#297 = ORIENTED_EDGE ( 'NONE', *, *, #240, .F. ) ;
#298 = EDGE_LOOP ( 'NONE', ( #134 ) ) ;
#299 = ORIENTED_EDGE ( 'NONE', *, *, #70, .T. ) ;
#300 = EDGE_CURVE ( 'NONE', #296, #296, #226, .T. ) ;
#301 = CIRCLE ( 'NONE', #200, 2.000000000000001776 ) ;
#302 = EDGE_LOOP ( 'NONE', ( #128 ) ) ;
#303 = LINE ( 'NONE', #34, #196 ) ;
#304 = CARTESIAN_POINT ( 'NONE',  ( 38.50000000000000711, 0.000000000000000000, 0.000000000000000000 ) ) ;
#305 = EDGE_CURVE ( 'NONE', #265, #265, #289, .T. ) ;
#306 = CARTESIAN_POINT ( 'NONE',  ( 0.000000000000000000, 0.000000000000000000, 0.000000000000000000 ) ) ;
#307 = CARTESIAN_POINT ( 'NONE',  ( 63.00000000000000000, 12.74999999999999822, -21.00000000000000000 ) ) ;
#308 = FACE_OUTER_BOUND ( 'NONE', #190, .T. ) ;
#309 = AXIS2_PLACEMENT_3D ( 'NONE', #202, #36, #150 ) ;
#310 = DIRECTION ( 'NONE',  ( -1.000000000000000000, -0.000000000000000000, -0.000000000000000000 ) ) ;
#311 = PLANE ( 'NONE',  #353 ) ;
#312 = PLANE ( 'NONE',  #209 ) ;
#313 = PLANE ( 'NONE',  #133 ) ;
#314 = DIRECTION ( 'NONE',  ( 0.000000000000000000, 0.000000000000000000, 1.000000000000000000 ) ) ;
#315 = EDGE_CURVE ( 'NONE', #28, #323, #159, .T. ) ;
#316 = ORIENTED_EDGE ( 'NONE', *, *, #92, .F. ) ;
#317 = DIRECTION ( 'NONE',  ( 0.000000000000000000, -0.000000000000000000, -1.000000000000000000 ) ) ;
#318 = AXIS2_PLACEMENT_3D ( 'NONE', #177, #310, #146 ) ;
#319 = ADVANCED_FACE ( 'NONE', ( #181 ), #312, .F. ) ;
#320 = CARTESIAN_POINT ( 'NONE',  ( 63.00000000000000000, 12.74999999999999822, 19.00000000000000355 ) ) ;
#321 = DIRECTION ( 'NONE',  ( 1.000000000000000000, -0.000000000000000000, -0.000000000000000000 ) ) ;
#322 = VECTOR ( 'NONE', #114, 1000.000000000000000 ) ;
#323 = VERTEX_POINT ( 'NONE', #349 ) ;
#324 =( GEOMETRIC_REPRESENTATION_CONTEXT ( 3 ) GLOBAL_UNCERTAINTY_ASSIGNED_CONTEXT ( ( #387 ) ) GLOBAL_UNIT_ASSIGNED_CONTEXT ( ( #58, #249, #19 ) ) REPRESENTATION_CONTEXT ( 'NONE', 'WORKASPACE' ) );
#325 = DIRECTION ( 'NONE',  ( -1.000000000000000000, 0.000000000000000000, -0.000000000000000000 ) ) ;
#326 = EDGE_LOOP ( 'NONE', ( #197, #83, #288, #103 ) ) ;
#327 = EDGE_LOOP ( 'NONE', ( #418 ) ) ;
#328 = ORIENTED_EDGE ( 'NONE', *, *, #194, .T. ) ;
#329 = LINE ( 'NONE', #365, #261 ) ;
#330 = AXIS2_PLACEMENT_3D ( 'NONE', #284, #415, #409 ) ;
#331 = CARTESIAN_POINT ( 'NONE',  ( 63.00000000000000000, -12.75000000000000000, -19.00000000000000355 ) ) ;
#332 = DIRECTION ( 'NONE',  ( -0.000000000000000000, -1.000000000000000000, -0.000000000000000000 ) ) ;
#333 = FACE_OUTER_BOUND ( 'NONE', #302, .T. ) ;
#334 = ORIENTED_EDGE ( 'NONE', *, *, #248, .T. ) ;
#335 = PLANE ( 'NONE',  #309 ) ;
#336 = CARTESIAN_POINT ( 'NONE',  ( 63.00000000000000000, -12.75000000000000000, 19.00000000000000711 ) ) ;
#337 = EDGE_CURVE ( 'NONE', #228, #99, #53, .T. ) ;
#338 = AXIS2_PLACEMENT_3D ( 'NONE', #331, #32, #172 ) ;
#339 = CARTESIAN_POINT ( 'NONE',  ( 38.50000000000000711, -14.75000000000000000, -19.00000000000000355 ) ) ;
#340 = LINE ( 'NONE', #174, #322 ) ;
#341 = PRODUCT_DEFINITION ( 'UNKNOWN', '', #31, #292 ) ;
#342 = FACE_OUTER_BOUND ( 'NONE', #359, .T. ) ;
#343 = DIRECTION ( 'NONE',  ( 0.000000000000000000, 0.000000000000000000, 1.000000000000000000 ) ) ;
#344 = DIRECTION ( 'NONE',  ( 0.000000000000000000, 0.000000000000000000, -1.000000000000000000 ) ) ;
#345 = VECTOR ( 'NONE', #332, 1000.000000000000000 ) ;
#346 =( LENGTH_UNIT ( ) NAMED_UNIT ( * ) SI_UNIT ( .MILLI., .METRE. ) );
#347 = VERTEX_POINT ( 'NONE', #294 ) ;
#348 = CYLINDRICAL_SURFACE ( 'NONE', #330, 2.000000000000001776 ) ;
#349 = CARTESIAN_POINT ( 'NONE',  ( 63.00000000000000000, -12.75000000000000000, -21.00000000000000000 ) ) ;
#350 = ORIENTED_EDGE ( 'NONE', *, *, #315, .T. ) ;
#351 = DIRECTION ( 'NONE',  ( 1.000000000000000000, -0.000000000000000000, -0.000000000000000000 ) ) ;
#352 = ORIENTED_EDGE ( 'NONE', *, *, #194, .F. ) ;
#353 = AXIS2_PLACEMENT_3D ( 'NONE', #147, #407, #182 ) ;
#354 = DIRECTION ( 'NONE',  ( -1.000000000000000000, 0.000000000000000000, 0.000000000000000000 ) ) ;
#355 = ORIENTED_EDGE ( 'NONE', *, *, #54, .F. ) ;
#356 = DIRECTION ( 'NONE',  ( -1.000000000000000000, 0.000000000000000000, 0.000000000000000000 ) ) ;
#357 = ORIENTED_EDGE ( 'NONE', *, *, #54, .T. ) ;
#358 = EDGE_CURVE ( 'NONE', #99, #90, #266, .T. ) ;
#359 = EDGE_LOOP ( 'NONE', ( #227, #21, #352, #334 ) ) ;
#360 = LINE ( 'NONE', #160, #383 ) ;
#361 = EDGE_LOOP ( 'NONE', ( #328, #350, #399, #243, #299, #107, #267, #49 ) ) ;
#362 = CARTESIAN_POINT ( 'NONE',  ( 63.00000000000000000, -14.75000000000000000, 18.99999999999999289 ) ) ;
#363 = ADVANCED_FACE ( 'NONE', ( #263, #417 ), #129, .T. ) ;
#364 = CARTESIAN_POINT ( 'NONE',  ( 38.50000000000000711, -14.75000000000000000, 21.00000000000000000 ) ) ;
#365 = CARTESIAN_POINT ( 'NONE',  ( 38.50000000000000711, -14.75000000000000000, -21.00000000000000000 ) ) ;
#366 = ADVANCED_FACE ( 'NONE', ( #127 ), #394, .F. ) ;
#367 = DIRECTION ( 'NONE',  ( 1.000000000000000000, -0.000000000000000000, -0.000000000000000000 ) ) ;
#368 = ORIENTED_EDGE ( 'NONE', *, *, #115, .T. ) ;
#369 = LINE ( 'NONE', #208, #6 ) ;
#370 = LINE ( 'NONE', #179, #118 ) ;
#371 = DIRECTION ( 'NONE',  ( -1.000000000000000000, 0.000000000000000000, 0.000000000000000000 ) ) ;
#372 = DIRECTION ( 'NONE',  ( -1.000000000000000000, 0.000000000000000000, 0.000000000000000000 ) ) ;
#373 = EDGE_CURVE ( 'NONE', #187, #228, #77, .T. ) ;
#374 = VECTOR ( 'NONE', #380, 1000.000000000000000 ) ;
#375 = CYLINDRICAL_SURFACE ( 'NONE', #87, 2.000000000000001776 ) ;
#376 = DIRECTION ( 'NONE',  ( 0.000000000000000000, 0.000000000000000000, -1.000000000000000000 ) ) ;
#377 = DIRECTION ( 'NONE',  ( -1.000000000000000000, 0.000000000000000000, 0.000000000000000000 ) ) ;
#378 = ADVANCED_FACE ( 'NONE', ( #421 ), #423, .T. ) ;
#379 = EDGE_LOOP ( 'NONE', ( #95, #297, #124, #105 ) ) ;
#380 = DIRECTION ( 'NONE',  ( 0.000000000000000000, 0.000000000000000000, 1.000000000000000000 ) ) ;
#381 = AXIS2_PLACEMENT_3D ( 'NONE', #11, #106, #236 ) ;
#382 = ORIENTED_EDGE ( 'NONE', *, *, #84, .F. ) ;
#383 = VECTOR ( 'NONE', #389, 1000.000000000000000 ) ;
#384 = EDGE_CURVE ( 'NONE', #217, #46, #52, .T. ) ;
#385 = PLANE ( 'NONE',  #178 ) ;
#386 = ORIENTED_EDGE ( 'NONE', *, *, #300, .F. ) ;
#387 = UNCERTAINTY_MEASURE_WITH_UNIT (LENGTH_MEASURE( 1.000000000000000082E-05 ), #58, 'distance_accuracy_value', 'NONE');
#388 = EDGE_LOOP ( 'NONE', ( #198 ) ) ;
#389 = DIRECTION ( 'NONE',  ( 0.000000000000000000, 1.000000000000000000, 0.000000000000000000 ) ) ;
#390 = AXIS2_PLACEMENT_3D ( 'NONE', #336, #372, #176 ) ;
#391 = CIRCLE ( 'NONE', #410, 14.80000000000000071 ) ;
#392 = AXIS2_PLACEMENT_3D ( 'NONE', #48, #351, #221 ) ;
#393 = EDGE_LOOP ( 'NONE', ( #241, #97, #355, #163 ) ) ;
#394 = PLANE ( 'NONE',  #88 ) ;
#395 = ORIENTED_EDGE ( 'NONE', *, *, #201, .T. ) ;
#396 = EDGE_CURVE ( 'NONE', #323, #222, #360, .T. ) ;
#397 = EDGE_LOOP ( 'NONE', ( #424 ) ) ;
#398 = VECTOR ( 'NONE', #33, 1000.000000000000000 ) ;
#399 = ORIENTED_EDGE ( 'NONE', *, *, #396, .T. ) ;
#400 = ORIENTED_EDGE ( 'NONE', *, *, #373, .T. ) ;
#401 = CYLINDRICAL_SURFACE ( 'NONE', #76, 14.80000000000000071 ) ;
#402 = DIRECTION ( 'NONE',  ( 0.000000000000000000, 0.000000000000000000, 1.000000000000000000 ) ) ;
#403 = PRESENTATION_LAYER_ASSIGNMENT (  '', '', ( #17 ) ) ;
#404 = DIRECTION ( 'NONE',  ( 0.000000000000000000, 0.000000000000000000, 1.000000000000000000 ) ) ;
#405 = EDGE_LOOP ( 'NONE', ( #219, #26, #166, #259 ) ) ;
#406 = DIRECTION ( 'NONE',  ( 1.000000000000000000, 0.000000000000000000, 0.000000000000000000 ) ) ;
#407 = DIRECTION ( 'NONE',  ( -1.000000000000000000, 0.000000000000000000, 0.000000000000000000 ) ) ;
#408 = DIRECTION ( 'NONE',  ( 1.000000000000000000, -0.000000000000000000, -0.000000000000000000 ) ) ;
#409 = DIRECTION ( 'NONE',  ( 0.000000000000000000, 0.000000000000000000, 1.000000000000000000 ) ) ;
#410 = AXIS2_PLACEMENT_3D ( 'NONE', #151, #164, #376 ) ;
#411 = DIRECTION ( 'NONE',  ( 0.000000000000000000, 0.000000000000000000, -1.000000000000000000 ) ) ;
#412 = EDGE_CURVE ( 'NONE', #193, #220, #290, .T. ) ;
#413 = FACE_OUTER_BOUND ( 'NONE', #393, .T. ) ;
#414 = ORIENTED_EDGE ( 'NONE', *, *, #161, .F. ) ;
#415 = DIRECTION ( 'NONE',  ( -1.000000000000000000, 0.000000000000000000, 0.000000000000000000 ) ) ;
#416 = VECTOR ( 'NONE', #72, 1000.000000000000000 ) ;
#417 = FACE_OUTER_BOUND ( 'NONE', #298, .T. ) ;
#418 = ORIENTED_EDGE ( 'NONE', *, *, #300, .T. ) ;
#419 = CARTESIAN_POINT ( 'NONE',  ( 38.50000000000000711, -12.75000000000000000, 19.00000000000000711 ) ) ;
#420 = ORIENTED_EDGE ( 'NONE', *, *, #92, .T. ) ;
#421 = FACE_OUTER_BOUND ( 'NONE', #379, .T. ) ;
#422 =( GEOMETRIC_REPRESENTATION_CONTEXT ( 3 ) GLOBAL_UNCERTAINTY_ASSIGNED_CONTEXT ( ( #91 ) ) GLOBAL_UNIT_ASSIGNED_CONTEXT ( ( #346, #125, #281 ) ) REPRESENTATION_CONTEXT ( 'NONE', 'WORKASPACE' ) );
#423 = CYLINDRICAL_SURFACE ( 'NONE', #262, 2.000000000000001776 ) ;
#424 = ORIENTED_EDGE ( 'NONE', *, *, #131, .F. ) ;
#425 = AXIS2_PLACEMENT_3D ( 'NONE', #120, #184, #314 ) ;
#426 = ORIENTED_EDGE ( 'NONE', *, *, #412, .F. ) ;
#427 = APPLICATION_PROTOCOL_DEFINITION ( 'draft international standard', 'automotive_design', 1998, #86 ) ;
ENDSEC;
END-ISO-10303-21;
