ISO-10303-21;
HEADER;
FILE_DESCRIPTION (( 'STEP AP214' ),
    '1' );
FILE_NAME ('ASV1_100_05A.STEP',
    '2026-07-31T06:33:12',
    ( '' ),
    ( '' ),
    'SwSTEP 2.0',
    'SolidWorks 2025',
    '' );
FILE_SCHEMA (( 'AUTOMOTIVE_DESIGN' ));
ENDSEC;

DATA;
#1 = EDGE_CURVE ( 'NONE', #454, #454, #552, .T. ) ;
#2 = ORIENTED_EDGE ( 'NONE', *, *, #24, .T. ) ;
#3 = CYLINDRICAL_SURFACE ( 'NONE', #397, 2.000000000000001776 ) ;
#4 = ORIENTED_EDGE ( 'NONE', *, *, #136, .T. ) ;
#5 = CIRCLE ( 'NONE', #69, 2.000000000000001776 ) ;
#6 = AXIS2_PLACEMENT_3D ( 'NONE', #171, #350, #521 ) ;
#7 = EDGE_CURVE ( 'NONE', #340, #340, #309, .T. ) ;
#8 = CARTESIAN_POINT ( 'NONE',  ( -71.56064703513879977, 46.00000000000000000, -112.0265462364119884 ) ) ;
#9 = CARTESIAN_POINT ( 'NONE',  ( -27.56064703513884950, 41.00000000000000000, -112.0265462364119884 ) ) ;
#10 = FACE_BOUND ( 'NONE', #147, .T. ) ;
#11 = EDGE_LOOP ( 'NONE', ( #132 ) ) ;
#12 = CIRCLE ( 'NONE', #449, 35.99999999999999289 ) ;
#13 = CIRCLE ( 'NONE', #356, 2.000000000000001776 ) ;
#14 = AXIS2_PLACEMENT_3D ( 'NONE', #443, #52, #282 ) ;
#15 = FACE_BOUND ( 'NONE', #402, .T. ) ;
#16 = EDGE_CURVE ( 'NONE', #293, #293, #564, .T. ) ;
#17 = DIRECTION ( 'NONE',  ( 0.000000000000000000, 1.000000000000000000, 0.000000000000000000 ) ) ;
#18 = CYLINDRICAL_SURFACE ( 'NONE', #159, 2.000000000000001776 ) ;
#19 = CARTESIAN_POINT ( 'NONE',  ( -109.6657648016539923, 41.00000000000000000, -134.0265462364120310 ) ) ;
#20 = CARTESIAN_POINT ( 'NONE',  ( -109.6657648016539923, 41.00000000000000000, -92.02654623641200260 ) ) ;
#21 = AXIS2_PLACEMENT_3D ( 'NONE', #306, #211, #131 ) ;
#22 = AXIS2_PLACEMENT_3D ( 'NONE', #540, #408, #533 ) ;
#23 = CYLINDRICAL_SURFACE ( 'NONE', #310, 2.000000000000001776 ) ;
#24 = EDGE_CURVE ( 'NONE', #467, #467, #261, .T. ) ;
#25 = ADVANCED_BREP_SHAPE_REPRESENTATION ( 'ASV1_100_05A', ( #468, #6 ), #254 ) ;
#26 = CARTESIAN_POINT ( 'NONE',  ( -71.56064703513879977, 46.00000000000000000, -158.0265462364120310 ) ) ;
#27 = FACE_OUTER_BOUND ( 'NONE', #510, .T. ) ;
#28 = ORIENTED_EDGE ( 'NONE', *, *, #99, .F. ) ;
#29 = VERTEX_POINT ( 'NONE', #380 ) ;
#30 = CARTESIAN_POINT ( 'NONE',  ( -109.6657648016539923, 41.00000000000000000, -134.0265462364120310 ) ) ;
#31 = EDGE_LOOP ( 'NONE', ( #339 ) ) ;
#32 = VERTEX_POINT ( 'NONE', #471 ) ;
#33 = CIRCLE ( 'NONE', #272, 2.000000000000001776 ) ;
#34 = CARTESIAN_POINT ( 'NONE',  ( -109.6657648016539923, 46.00000000000000000, -134.0265462364120310 ) ) ;
#35 = PRODUCT_DEFINITION_FORMATION_WITH_SPECIFIED_SOURCE ( 'ANY', '', #41, .NOT_KNOWN. ) ;
#36 = EDGE_LOOP ( 'NONE', ( #379 ) ) ;
#37 = VERTEX_POINT ( 'NONE', #164 ) ;
#38 = ADVANCED_FACE ( 'NONE', ( #138, #135, #95, #100, #10, #315, #405, #438, #180, #275, #531, #92, #15, #444 ), #98, .T. ) ;
#39 = DIRECTION ( 'NONE',  ( 0.000000000000000000, 0.000000000000000000, -1.000000000000000000 ) ) ;
#40 = EDGE_LOOP ( 'NONE', ( #305 ) ) ;
#41 = PRODUCT ( 'ASV1_100_05A', 'ASV1_100_05A', '', ( #478 ) ) ;
#42 = FACE_BOUND ( 'NONE', #121, .T. ) ;
#43 = EDGE_LOOP ( 'NONE', ( #370 ) ) ;
#44 = DIRECTION ( 'NONE',  ( 0.000000000000000000, -1.000000000000000000, 0.000000000000000000 ) ) ;
#45 = AXIS2_PLACEMENT_3D ( 'NONE', #377, #196, #145 ) ;
#46 = CIRCLE ( 'NONE', #21, 2.000000000000001776 ) ;
#47 = EDGE_LOOP ( 'NONE', ( #129 ) ) ;
#48 = PRODUCT_DEFINITION ( 'UNKNOWN', '', #35, #150 ) ;
#49 = DIRECTION ( 'NONE',  ( 0.000000000000000000, 0.000000000000000000, 1.000000000000000000 ) ) ;
#50 = EDGE_LOOP ( 'NONE', ( #539 ) ) ;
#51 = DIRECTION ( 'NONE',  ( -0.000000000000000000, 1.000000000000000000, -0.000000000000000000 ) ) ;
#52 = DIRECTION ( 'NONE',  ( 0.000000000000000000, 1.000000000000000000, 0.000000000000000000 ) ) ;
#53 = DIRECTION ( 'NONE',  ( 0.000000000000000000, -1.000000000000000000, 0.000000000000000000 ) ) ;
#54 = CIRCLE ( 'NONE', #497, 2.000000000000001776 ) ;
#55 = AXIS2_PLACEMENT_3D ( 'NONE', #19, #283, #188 ) ;
#56 = CYLINDRICAL_SURFACE ( 'NONE', #14, 2.000000000000001776 ) ;
#57 = DIRECTION ( 'NONE',  ( 0.000000000000000000, -1.000000000000000000, 0.000000000000000000 ) ) ;
#58 = DIRECTION ( 'NONE',  ( 0.000000000000000000, 0.000000000000000000, -1.000000000000000000 ) ) ;
#59 = DIRECTION ( 'NONE',  ( 0.000000000000000000, 0.000000000000000000, -1.000000000000000000 ) ) ;
#60 = ADVANCED_FACE ( 'NONE', ( #187, #182 ), #156, .T. ) ;
#61 = DIRECTION ( 'NONE',  ( 0.000000000000000000, -1.000000000000000000, 0.000000000000000000 ) ) ;
#62 = ORIENTED_EDGE ( 'NONE', *, *, #492, .T. ) ;
#63 = CYLINDRICAL_SURFACE ( 'NONE', #158, 2.000000000000001776 ) ;
#64 = DIRECTION ( 'NONE',  ( 0.000000000000000000, 0.000000000000000000, -1.000000000000000000 ) ) ;
#65 = FILL_AREA_STYLE ('',( #234 ) ) ;
#66 = FACE_BOUND ( 'NONE', #360, .T. ) ;
#67 = CARTESIAN_POINT ( 'NONE',  ( -49.56064703513870029, 46.00000000000000000, -152.1316640029280052 ) ) ;
#68 = AXIS2_PLACEMENT_3D ( 'NONE', #140, #144, #448 ) ;
#69 = AXIS2_PLACEMENT_3D ( 'NONE', #287, #199, #192 ) ;
#70 = DIRECTION ( 'NONE',  ( 0.000000000000000000, 0.000000000000000000, -1.000000000000000000 ) ) ;
#71 = CARTESIAN_POINT ( 'NONE',  ( -71.56064703513879977, 41.00000000000000000, -158.0265462364120310 ) ) ;
#72 = DIRECTION ( 'NONE',  ( 0.000000000000000000, -1.000000000000000000, 0.000000000000000000 ) ) ;
#73 = CARTESIAN_POINT ( 'NONE',  ( -93.56064703514159930, 41.00000000000000000, -75.92142846988789984 ) ) ;
#74 = DIRECTION ( 'NONE',  ( 0.000000000000000000, -1.000000000000000000, 0.000000000000000000 ) ) ;
#75 = ORIENTED_EDGE ( 'NONE', *, *, #342, .F. ) ;
#76 = CARTESIAN_POINT ( 'NONE',  ( -33.45552926862340115, 41.00000000000000000, -136.0265462364120310 ) ) ;
#77 = AXIS2_PLACEMENT_3D ( 'NONE', #91, #268, #89 ) ;
#78 = FACE_OUTER_BOUND ( 'NONE', #216, .T. ) ;
#79 = EDGE_LOOP ( 'NONE', ( #75 ) ) ;
#80 = CARTESIAN_POINT ( 'NONE',  ( -33.45552926862360010, 41.00000000000000000, -90.02654623641200260 ) ) ;
#81 = EDGE_LOOP ( 'NONE', ( #251 ) ) ;
#82 = CARTESIAN_POINT ( 'NONE',  ( -33.45552926862340115, 41.00000000000000000, -134.0265462364120310 ) ) ;
#83 = EDGE_CURVE ( 'NONE', #518, #518, #12, .T. ) ;
#84 = ORIENTED_EDGE ( 'NONE', *, *, #1, .T. ) ;
#85 = AXIS2_PLACEMENT_3D ( 'NONE', #396, #53, #229 ) ;
#86 = DIRECTION ( 'NONE',  ( 0.000000000000000000, -1.000000000000000000, 0.000000000000000000 ) ) ;
#87 = CIRCLE ( 'NONE', #535, 2.000000000000001776 ) ;
#88 = EDGE_LOOP ( 'NONE', ( #513 ) ) ;
#89 = DIRECTION ( 'NONE',  ( 0.000000000000000000, 0.000000000000000000, -1.000000000000000000 ) ) ;
#90 = DIRECTION ( 'NONE',  ( 0.000000000000000000, -1.000000000000000000, 0.000000000000000000 ) ) ;
#91 = CARTESIAN_POINT ( 'NONE',  ( -71.56064703513879977, 46.00000000000000000, -68.02654623641198839 ) ) ;
#92 = FACE_BOUND ( 'NONE', #407, .T. ) ;
#93 = EDGE_CURVE ( 'NONE', #412, #412, #96, .T. ) ;
#94 = FACE_OUTER_BOUND ( 'NONE', #383, .T. ) ;
#95 = FACE_BOUND ( 'NONE', #320, .T. ) ;
#96 = CIRCLE ( 'NONE', #299, 2.000000000000001776 ) ;
#97 =( GEOMETRIC_REPRESENTATION_CONTEXT ( 3 ) GLOBAL_UNCERTAINTY_ASSIGNED_CONTEXT ( ( #459 ) ) GLOBAL_UNIT_ASSIGNED_CONTEXT ( ( #177, #529, #327 ) ) REPRESENTATION_CONTEXT ( 'NONE', 'WORKASPACE' ) );
#98 = PLANE ( 'NONE',  #421 ) ;
#99 = EDGE_CURVE ( 'NONE', #514, #514, #460, .T. ) ;
#100 = FACE_BOUND ( 'NONE', #43, .T. ) ;
#101 = DIRECTION ( 'NONE',  ( 0.000000000000000000, -1.000000000000000000, 0.000000000000000000 ) ) ;
#102 = CIRCLE ( 'NONE', #553, 34.99999999999999289 ) ;
#103 = SURFACE_STYLE_USAGE ( .BOTH. , #221 ) ;
#104 = FACE_OUTER_BOUND ( 'NONE', #353, .T. ) ;
#105 = ORIENTED_EDGE ( 'NONE', *, *, #167, .F. ) ;
#106 = CYLINDRICAL_SURFACE ( 'NONE', #450, 2.000000000000001776 ) ;
#107 = ORIENTED_EDGE ( 'NONE', *, *, #439, .F. ) ;
#108 = VERTEX_POINT ( 'NONE', #20 ) ;
#109 = CARTESIAN_POINT ( 'NONE',  ( -49.56064703514190484, 41.00000000000000000, -73.92142846990590499 ) ) ;
#110 = CARTESIAN_POINT ( 'NONE',  ( -115.5606470351389987, 46.00000000000000000, -114.0265462364119884 ) ) ;
#111 = CIRCLE ( 'NONE', #148, 2.000000000000001776 ) ;
#112 = AXIS2_PLACEMENT_3D ( 'NONE', #263, #427, #49 ) ;
#113 = CARTESIAN_POINT ( 'NONE',  ( -115.5606470351389987, 46.00000000000000000, -112.0265462364119884 ) ) ;
#114 = ORIENTED_EDGE ( 'NONE', *, *, #363, .F. ) ;
#115 = CARTESIAN_POINT ( 'NONE',  ( -27.56064703513884950, 41.00000000000000000, -114.0265462364119884 ) ) ;
#116 = FACE_OUTER_BOUND ( 'NONE', #81, .T. ) ;
#117 = EDGE_CURVE ( 'NONE', #108, #108, #483, .T. ) ;
#118 = ORIENTED_EDGE ( 'NONE', *, *, #351, .F. ) ;
#119 = VERTEX_POINT ( 'NONE', #506 ) ;
#120 = DIRECTION ( 'NONE',  ( 0.000000000000000000, 1.000000000000000000, 0.000000000000000000 ) ) ;
#121 = EDGE_LOOP ( 'NONE', ( #200 ) ) ;
#122 = VERTEX_POINT ( 'NONE', #71 ) ;
#123 = CIRCLE ( 'NONE', #213, 2.000000000000001776 ) ;
#124 = CIRCLE ( 'NONE', #336, 2.000000000000001776 ) ;
#125 = DIRECTION ( 'NONE',  ( 0.000000000000000000, 0.000000000000000000, -1.000000000000000000 ) ) ;
#126 = ORIENTED_EDGE ( 'NONE', *, *, #7, .F. ) ;
#127 = EDGE_CURVE ( 'NONE', #122, #122, #231, .T. ) ;
#128 = CARTESIAN_POINT ( 'NONE',  ( -115.5606470351389987, 41.00000000000000000, -112.0265462364119884 ) ) ;
#129 = ORIENTED_EDGE ( 'NONE', *, *, #500, .T. ) ;
#130 =( NAMED_UNIT ( * ) PLANE_ANGLE_UNIT ( ) SI_UNIT ( $, .RADIAN. ) );
#131 = DIRECTION ( 'NONE',  ( 0.000000000000000000, 0.000000000000000000, -1.000000000000000000 ) ) ;
#132 = ORIENTED_EDGE ( 'NONE', *, *, #209, .T. ) ;
#133 = ORIENTED_EDGE ( 'NONE', *, *, #1, .F. ) ;
#134 = DIRECTION ( 'NONE',  ( 0.000000000000000000, 1.000000000000000000, 0.000000000000000000 ) ) ;
#135 = FACE_BOUND ( 'NONE', #40, .T. ) ;
#136 = EDGE_CURVE ( 'NONE', #330, #330, #54, .T. ) ;
#137 = DIRECTION ( 'NONE',  ( -0.000000000000000000, 1.000000000000000000, -0.000000000000000000 ) ) ;
#138 = FACE_BOUND ( 'NONE', #203, .T. ) ;
#139 = FACE_OUTER_BOUND ( 'NONE', #343, .T. ) ;
#140 = CARTESIAN_POINT ( 'NONE',  ( -71.56064703513879977, 41.00000000000000000, -112.0265462364119884 ) ) ;
#141 = AXIS2_PLACEMENT_3D ( 'NONE', #257, #120, #512 ) ;
#142 = CIRCLE ( 'NONE', #542, 34.99999999999999289 ) ;
#143 = ADVANCED_FACE ( 'NONE', ( #546, #27 ), #332, .F. ) ;
#144 = DIRECTION ( 'NONE',  ( 0.000000000000000000, -1.000000000000000000, 0.000000000000000000 ) ) ;
#145 = DIRECTION ( 'NONE',  ( 0.000000000000000000, 0.000000000000000000, 1.000000000000000000 ) ) ;
#146 = FACE_OUTER_BOUND ( 'NONE', #494, .T. ) ;
#147 = EDGE_LOOP ( 'NONE', ( #197 ) ) ;
#148 = AXIS2_PLACEMENT_3D ( 'NONE', #566, #86, #255 ) ;
#149 = DIRECTION ( 'NONE',  ( 0.000000000000000000, 1.000000000000000000, 0.000000000000000000 ) ) ;
#150 = PRODUCT_DEFINITION_CONTEXT ( 'detailed design', #230, 'design' ) ;
#151 = DIRECTION ( 'NONE',  ( 0.000000000000000000, 0.000000000000000000, -1.000000000000000000 ) ) ;
#152 = CARTESIAN_POINT ( 'NONE',  ( -33.45552926862360010, 46.00000000000000000, -92.02654623641200260 ) ) ;
#153 = DIRECTION ( 'NONE',  ( 0.000000000000000000, -1.000000000000000000, 0.000000000000000000 ) ) ;
#154 = VERTEX_POINT ( 'NONE', #285 ) ;
#155 = CARTESIAN_POINT ( 'NONE',  ( -49.56064703513870029, 41.00000000000000000, -150.1316640029279768 ) ) ;
#156 = CONICAL_SURFACE ( 'NONE', #403, 49.00000000000000000, 0.7853981633974587151 ) ;
#157 = CARTESIAN_POINT ( 'NONE',  ( -109.6657648016539923, 46.00000000000000000, -136.0265462364120310 ) ) ;
#158 = AXIS2_PLACEMENT_3D ( 'NONE', #496, #354, #223 ) ;
#159 = AXIS2_PLACEMENT_3D ( 'NONE', #190, #149, #501 ) ;
#160 = CARTESIAN_POINT ( 'NONE',  ( -93.56064703513878555, 46.00000000000000000, -150.1316640029279768 ) ) ;
#161 = VERTEX_POINT ( 'NONE', #252 ) ;
#162 = CARTESIAN_POINT ( 'NONE',  ( -71.56064703513879977, 46.00000000000000000, -112.0265462364119884 ) ) ;
#163 = ORIENTED_EDGE ( 'NONE', *, *, #24, .F. ) ;
#164 = CARTESIAN_POINT ( 'NONE',  ( -71.56064703513879977, 46.00000000000000000, -70.02654623641200260 ) ) ;
#165 = FACE_BOUND ( 'NONE', #11, .T. ) ;
#166 = EDGE_LOOP ( 'NONE', ( #219 ) ) ;
#167 = EDGE_CURVE ( 'NONE', #32, #32, #123, .T. ) ;
#168 = CIRCLE ( 'NONE', #77, 2.000000000000001776 ) ;
#169 = FACE_BOUND ( 'NONE', #50, .T. ) ;
#170 = ORIENTED_EDGE ( 'NONE', *, *, #419, .F. ) ;
#171 = CARTESIAN_POINT ( 'NONE',  ( 0.000000000000000000, 0.000000000000000000, 0.000000000000000000 ) ) ;
#172 = CYLINDRICAL_SURFACE ( 'NONE', #319, 2.000000000000001776 ) ;
#173 = ORIENTED_EDGE ( 'NONE', *, *, #191, .T. ) ;
#174 = FACE_OUTER_BOUND ( 'NONE', #432, .T. ) ;
#175 = ORIENTED_EDGE ( 'NONE', *, *, #428, .T. ) ;
#176 = AXIS2_PLACEMENT_3D ( 'NONE', #357, #153, #374 ) ;
#177 =( LENGTH_UNIT ( ) NAMED_UNIT ( * ) SI_UNIT ( .MILLI., .METRE. ) );
#178 = DIRECTION ( 'NONE',  ( 0.000000000000000000, -1.000000000000000000, 0.000000000000000000 ) ) ;
#179 = FACE_OUTER_BOUND ( 'NONE', #426, .T. ) ;
#180 = FACE_BOUND ( 'NONE', #372, .T. ) ;
#181 = FACE_OUTER_BOUND ( 'NONE', #558, .T. ) ;
#182 = FACE_OUTER_BOUND ( 'NONE', #36, .T. ) ;
#183 = ADVANCED_FACE ( 'NONE', ( #104, #538 ), #411, .F. ) ;
#184 = AXIS2_PLACEMENT_3D ( 'NONE', #362, #90, #59 ) ;
#185 = DIRECTION ( 'NONE',  ( 0.000000000000000000, 0.000000000000000000, -1.000000000000000000 ) ) ;
#186 = AXIS2_PLACEMENT_3D ( 'NONE', #109, #233, #243 ) ;
#187 = FACE_BOUND ( 'NONE', #466, .T. ) ;
#188 = DIRECTION ( 'NONE',  ( 0.000000000000000000, 0.000000000000000000, 1.000000000000000000 ) ) ;
#189 = ORIENTED_EDGE ( 'NONE', *, *, #439, .T. ) ;
#190 = CARTESIAN_POINT ( 'NONE',  ( -49.56064703514190484, 41.00000000000000000, -73.92142846990590499 ) ) ;
#191 = EDGE_CURVE ( 'NONE', #195, #195, #346, .T. ) ;
#192 = DIRECTION ( 'NONE',  ( 0.000000000000000000, 0.000000000000000000, -1.000000000000000000 ) ) ;
#193 = AXIS2_PLACEMENT_3D ( 'NONE', #222, #178, #269 ) ;
#194 = AXIS2_PLACEMENT_3D ( 'NONE', #113, #464, #323 ) ;
#195 = VERTEX_POINT ( 'NONE', #373 ) ;
#196 = DIRECTION ( 'NONE',  ( 0.000000000000000000, 1.000000000000000000, 0.000000000000000000 ) ) ;
#197 = ORIENTED_EDGE ( 'NONE', *, *, #389, .F. ) ;
#198 = CARTESIAN_POINT ( 'NONE',  ( -33.45552926862340115, 46.00000000000000000, -136.0265462364120310 ) ) ;
#199 = DIRECTION ( 'NONE',  ( 0.000000000000000000, -1.000000000000000000, 0.000000000000000000 ) ) ;
#200 = ORIENTED_EDGE ( 'NONE', *, *, #270, .T. ) ;
#201 = VERTEX_POINT ( 'NONE', #376 ) ;
#202 = CARTESIAN_POINT ( 'NONE',  ( -93.56064703513878555, 41.00000000000000000, -150.1316640029279768 ) ) ;
#203 = EDGE_LOOP ( 'NONE', ( #258 ) ) ;
#204 = VERTEX_POINT ( 'NONE', #458 ) ;
#205 = FACE_BOUND ( 'NONE', #520, .T. ) ;
#206 = ORIENTED_EDGE ( 'NONE', *, *, #167, .T. ) ;
#207 = CARTESIAN_POINT ( 'NONE',  ( -71.56064703513879977, 44.99999999999998579, -147.0265462364119742 ) ) ;
#208 = DIRECTION ( 'NONE',  ( 0.000000000000000000, -1.000000000000000000, 0.000000000000000000 ) ) ;
#209 = EDGE_CURVE ( 'NONE', #548, #548, #5, .T. ) ;
#210 = EDGE_LOOP ( 'NONE', ( #189 ) ) ;
#211 = DIRECTION ( 'NONE',  ( 0.000000000000000000, -1.000000000000000000, 0.000000000000000000 ) ) ;
#212 = ORIENTED_EDGE ( 'NONE', *, *, #117, .T. ) ;
#213 = AXIS2_PLACEMENT_3D ( 'NONE', #335, #72, #151 ) ;
#214 = CONICAL_SURFACE ( 'NONE', #528, 36.00000000000000711, 0.7853981633974415066 ) ;
#215 = DIRECTION ( 'NONE',  ( -0.000000000000000000, 1.000000000000000000, -0.000000000000000000 ) ) ;
#216 = EDGE_LOOP ( 'NONE', ( #212 ) ) ;
#217 = APPLICATION_PROTOCOL_DEFINITION ( 'draft international standard', 'automotive_design', 1998, #230 ) ;
#218 = DIRECTION ( 'NONE',  ( 0.000000000000000000, 0.000000000000000000, -1.000000000000000000 ) ) ;
#219 = ORIENTED_EDGE ( 'NONE', *, *, #220, .T. ) ;
#220 = EDGE_CURVE ( 'NONE', #154, #154, #102, .T. ) ;
#221 = SURFACE_SIDE_STYLE ('',( #440 ) ) ;
#222 = CARTESIAN_POINT ( 'NONE',  ( -27.56064703513884950, 46.00000000000000000, -112.0265462364119884 ) ) ;
#223 = DIRECTION ( 'NONE',  ( 0.000000000000000000, 0.000000000000000000, 1.000000000000000000 ) ) ;
#224 = PRESENTATION_LAYER_ASSIGNMENT (  '', '', ( #361 ) ) ;
#225 = EDGE_LOOP ( 'NONE', ( #457 ) ) ;
#226 = FACE_OUTER_BOUND ( 'NONE', #240, .T. ) ;
#227 = ADVANCED_FACE ( 'NONE', ( #328, #461 ), #23, .F. ) ;
#228 = EDGE_LOOP ( 'NONE', ( #126 ) ) ;
#229 = DIRECTION ( 'NONE',  ( 0.000000000000000000, 0.000000000000000000, -1.000000000000000000 ) ) ;
#230 = APPLICATION_CONTEXT ( 'automotive_design' ) ;
#231 = CIRCLE ( 'NONE', #176, 2.000000000000001776 ) ;
#232 = DIRECTION ( 'NONE',  ( 0.000000000000000000, 0.000000000000000000, -1.000000000000000000 ) ) ;
#233 = DIRECTION ( 'NONE',  ( 0.000000000000000000, -1.000000000000000000, 0.000000000000000000 ) ) ;
#234 = FILL_AREA_STYLE_COLOUR ( '', #404 ) ;
#235 = EDGE_CURVE ( 'NONE', #334, #334, #241, .T. ) ;
#236 = DIRECTION ( 'NONE',  ( 0.000000000000000000, 1.000000000000000000, 0.000000000000000000 ) ) ;
#237 =( LENGTH_UNIT ( ) NAMED_UNIT ( * ) SI_UNIT ( .MILLI., .METRE. ) );
#238 = FACE_OUTER_BOUND ( 'NONE', #436, .T. ) ;
#239 = PRODUCT_DEFINITION_SHAPE ( 'NONE', 'NONE',  #48 ) ;
#240 = EDGE_LOOP ( 'NONE', ( #555 ) ) ;
#241 = CIRCLE ( 'NONE', #508, 2.000000000000001776 ) ;
#242 = CARTESIAN_POINT ( 'NONE',  ( -71.56064703513879977, 41.00000000000000000, -161.0265462364120026 ) ) ;
#243 = DIRECTION ( 'NONE',  ( 0.000000000000000000, 0.000000000000000000, -1.000000000000000000 ) ) ;
#244 = ADVANCED_FACE ( 'NONE', ( #276, #367 ), #502, .F. ) ;
#245 = EDGE_LOOP ( 'NONE', ( #392 ) ) ;
#246 = VERTEX_POINT ( 'NONE', #384 ) ;
#247 = CARTESIAN_POINT ( 'NONE',  ( -71.56064703513879977, 41.00000000000000000, -68.02654623641198839 ) ) ;
#248 = ORIENTED_EDGE ( 'NONE', *, *, #127, .F. ) ;
#249 = CARTESIAN_POINT ( 'NONE',  ( -49.56064703514190484, 46.00000000000000000, -75.92142846990590499 ) ) ;
#250 = DIRECTION ( 'NONE',  ( 0.000000000000000000, 0.000000000000000000, -1.000000000000000000 ) ) ;
#251 = ORIENTED_EDGE ( 'NONE', *, *, #363, .T. ) ;
#252 = CARTESIAN_POINT ( 'NONE',  ( -71.56064703513879977, 45.00000000000000711, -161.0265462364120026 ) ) ;
#253 = CIRCLE ( 'NONE', #326, 2.000000000000001776 ) ;
#254 =( GEOMETRIC_REPRESENTATION_CONTEXT ( 3 ) GLOBAL_UNCERTAINTY_ASSIGNED_CONTEXT ( ( #447 ) ) GLOBAL_UNIT_ASSIGNED_CONTEXT ( ( #237, #130, #313 ) ) REPRESENTATION_CONTEXT ( 'NONE', 'WORKASPACE' ) );
#255 = DIRECTION ( 'NONE',  ( 0.000000000000000000, 0.000000000000000000, -1.000000000000000000 ) ) ;
#256 = ORIENTED_EDGE ( 'NONE', *, *, #475, .T. ) ;
#257 = CARTESIAN_POINT ( 'NONE',  ( -109.6657648016539923, 41.00000000000000000, -90.02654623641200260 ) ) ;
#258 = ORIENTED_EDGE ( 'NONE', *, *, #220, .F. ) ;
#259 = FACE_BOUND ( 'NONE', #225, .T. ) ;
#260 = EDGE_LOOP ( 'NONE', ( #298 ) ) ;
#261 = CIRCLE ( 'NONE', #410, 2.000000000000001776 ) ;
#262 = AXIS2_PLACEMENT_3D ( 'NONE', #34, #560, #341 ) ;
#263 = CARTESIAN_POINT ( 'NONE',  ( -71.56064703513879977, 41.00000000000000000, -112.0265462364119884 ) ) ;
#264 = ORIENTED_EDGE ( 'NONE', *, *, #83, .F. ) ;
#265 = APPLICATION_PROTOCOL_DEFINITION ( 'draft international standard', 'automotive_design', 1998, #316 ) ;
#266 = DIRECTION ( 'NONE',  ( 0.000000000000000000, 0.000000000000000000, -1.000000000000000000 ) ) ;
#267 = DIRECTION ( 'NONE',  ( 0.000000000000000000, 0.000000000000000000, -1.000000000000000000 ) ) ;
#268 = DIRECTION ( 'NONE',  ( 0.000000000000000000, -1.000000000000000000, 0.000000000000000000 ) ) ;
#269 = DIRECTION ( 'NONE',  ( 0.000000000000000000, 0.000000000000000000, -1.000000000000000000 ) ) ;
#270 = EDGE_CURVE ( 'NONE', #418, #418, #378, .T. ) ;
#271 = CYLINDRICAL_SURFACE ( 'NONE', #22, 35.00000000000000000 ) ;
#272 = AXIS2_PLACEMENT_3D ( 'NONE', #554, #74, #304 ) ;
#273 = ORIENTED_EDGE ( 'NONE', *, *, #445, .F. ) ;
#274 = CARTESIAN_POINT ( 'NONE',  ( -71.56064703513879977, 41.00000000000000000, -112.0265462364119884 ) ) ;
#275 = FACE_BOUND ( 'NONE', #567, .T. ) ;
#276 = FACE_OUTER_BOUND ( 'NONE', #245, .T. ) ;
#277 = AXIS2_PLACEMENT_3D ( 'NONE', #30, #495, #325 ) ;
#278 = ADVANCED_FACE ( 'NONE', ( #146, #406 ), #106, .F. ) ;
#279 = DIRECTION ( 'NONE',  ( 0.000000000000000000, -1.000000000000000000, 0.000000000000000000 ) ) ;
#280 = DIRECTION ( 'NONE',  ( 0.000000000000000000, 1.000000000000000000, 0.000000000000000000 ) ) ;
#281 = EDGE_LOOP ( 'NONE', ( #264 ) ) ;
#282 = DIRECTION ( 'NONE',  ( 0.000000000000000000, 0.000000000000000000, 1.000000000000000000 ) ) ;
#283 = DIRECTION ( 'NONE',  ( 0.000000000000000000, 1.000000000000000000, 0.000000000000000000 ) ) ;
#284 = ORIENTED_EDGE ( 'NONE', *, *, #270, .F. ) ;
#285 = CARTESIAN_POINT ( 'NONE',  ( -71.56064703513879977, 41.00000000000000000, -147.0265462364119742 ) ) ;
#286 = EDGE_CURVE ( 'NONE', #119, #119, #434, .T. ) ;
#287 = CARTESIAN_POINT ( 'NONE',  ( -49.56064703514190484, 46.00000000000000000, -73.92142846990590499 ) ) ;
#288 = AXIS2_PLACEMENT_3D ( 'NONE', #524, #294, #250 ) ;
#289 = AXIS2_PLACEMENT_3D ( 'NONE', #314, #485, #266 ) ;
#290 = VERTEX_POINT ( 'NONE', #67 ) ;
#291 = DIRECTION ( 'NONE',  ( 0.000000000000000000, 1.000000000000000000, 0.000000000000000000 ) ) ;
#292 = ORIENTED_EDGE ( 'NONE', *, *, #127, .T. ) ;
#293 = VERTEX_POINT ( 'NONE', #503 ) ;
#294 = DIRECTION ( 'NONE',  ( 0.000000000000000000, -1.000000000000000000, 0.000000000000000000 ) ) ;
#295 = ORIENTED_EDGE ( 'NONE', *, *, #235, .T. ) ;
#296 = CARTESIAN_POINT ( 'NONE',  ( -33.45552926862360010, 41.00000000000000000, -92.02654623641200260 ) ) ;
#297 = CARTESIAN_POINT ( 'NONE',  ( -71.56064703513879977, 41.00000000000000000, -68.02654623641198839 ) ) ;
#298 = ORIENTED_EDGE ( 'NONE', *, *, #7, .T. ) ;
#299 = AXIS2_PLACEMENT_3D ( 'NONE', #401, #486, #267 ) ;
#300 = ADVANCED_FACE ( 'NONE', ( #451, #409 ), #499, .F. ) ;
#301 = AXIS2_PLACEMENT_3D ( 'NONE', #453, #236, #456 ) ;
#302 = FACE_BOUND ( 'NONE', #400, .T. ) ;
#303 = ORIENTED_EDGE ( 'NONE', *, *, #389, .T. ) ;
#304 = DIRECTION ( 'NONE',  ( 0.000000000000000000, 0.000000000000000000, -1.000000000000000000 ) ) ;
#305 = ORIENTED_EDGE ( 'NONE', *, *, #428, .F. ) ;
#306 = CARTESIAN_POINT ( 'NONE',  ( -93.56064703513878555, 41.00000000000000000, -150.1316640029279768 ) ) ;
#307 = ADVANCED_FACE ( 'NONE', ( #66, #238, #165, #522, #205, #515, #382, #479, #391, #476, #259, #42, #431, #302 ), #344, .F. ) ;
#308 = EDGE_LOOP ( 'NONE', ( #489 ) ) ;
#309 = CIRCLE ( 'NONE', #184, 2.000000000000001776 ) ;
#310 = AXIS2_PLACEMENT_3D ( 'NONE', #202, #291, #549 ) ;
#311 = DIRECTION ( 'NONE',  ( 0.000000000000000000, -1.000000000000000000, 0.000000000000000000 ) ) ;
#312 = CARTESIAN_POINT ( 'NONE',  ( -71.56064703513879977, 46.00000000000000000, -112.0265462364119884 ) ) ;
#313 =( NAMED_UNIT ( * ) SI_UNIT ( $, .STERADIAN. ) SOLID_ANGLE_UNIT ( ) );
#314 = CARTESIAN_POINT ( 'NONE',  ( -71.56064703513879977, 45.00000000000000711, -112.0265462364119884 ) ) ;
#315 = FACE_BOUND ( 'NONE', #79, .T. ) ;
#316 = APPLICATION_CONTEXT ( 'automotive_design' ) ;
#317 = FACE_OUTER_BOUND ( 'NONE', #355, .T. ) ;
#318 = ORIENTED_EDGE ( 'NONE', *, *, #381, .F. ) ;
#319 = AXIS2_PLACEMENT_3D ( 'NONE', #82, #472, #352 ) ;
#320 = EDGE_LOOP ( 'NONE', ( #349 ) ) ;
#321 = CARTESIAN_POINT ( 'NONE',  ( -93.56064703514159930, 41.00000000000000000, -73.92142846988789984 ) ) ;
#322 = ADVANCED_FACE ( 'NONE', ( #169, #469 ), #214, .F. ) ;
#323 = DIRECTION ( 'NONE',  ( 0.000000000000000000, 0.000000000000000000, -1.000000000000000000 ) ) ;
#324 = DIRECTION ( 'NONE',  ( 0.000000000000000000, 0.000000000000000000, -1.000000000000000000 ) ) ;
#325 = DIRECTION ( 'NONE',  ( 0.000000000000000000, 0.000000000000000000, -1.000000000000000000 ) ) ;
#326 = AXIS2_PLACEMENT_3D ( 'NONE', #9, #279, #490 ) ;
#327 =( NAMED_UNIT ( * ) SI_UNIT ( $, .STERADIAN. ) SOLID_ANGLE_UNIT ( ) );
#328 = FACE_OUTER_BOUND ( 'NONE', #423, .T. ) ;
#329 = ORIENTED_EDGE ( 'NONE', *, *, #16, .F. ) ;
#330 = VERTEX_POINT ( 'NONE', #26 ) ;
#331 = ADVANCED_FACE ( 'NONE', ( #78, #348 ), #557, .F. ) ;
#332 = CYLINDRICAL_SURFACE ( 'NONE', #442, 2.000000000000001776 ) ;
#333 = EDGE_LOOP ( 'NONE', ( #4 ) ) ;
#334 = VERTEX_POINT ( 'NONE', #337 ) ;
#335 = CARTESIAN_POINT ( 'NONE',  ( -93.56064703514159930, 46.00000000000000000, -73.92142846988789984 ) ) ;
#336 = AXIS2_PLACEMENT_3D ( 'NONE', #80, #311, #324 ) ;
#337 = CARTESIAN_POINT ( 'NONE',  ( -49.56064703513870029, 41.00000000000000000, -152.1316640029280052 ) ) ;
#338 = DIRECTION ( 'NONE',  ( 0.000000000000000000, 0.000000000000000000, 1.000000000000000000 ) ) ;
#339 = ORIENTED_EDGE ( 'NONE', *, *, #117, .F. ) ;
#340 = VERTEX_POINT ( 'NONE', #198 ) ;
#341 = DIRECTION ( 'NONE',  ( 0.000000000000000000, 0.000000000000000000, -1.000000000000000000 ) ) ;
#342 = EDGE_CURVE ( 'NONE', #204, #204, #87, .T. ) ;
#343 = EDGE_LOOP ( 'NONE', ( #375 ) ) ;
#344 = PLANE ( 'NONE',  #390 ) ;
#345 = EDGE_LOOP ( 'NONE', ( #505 ) ) ;
#346 = CIRCLE ( 'NONE', #186, 2.000000000000001776 ) ;
#347 = CIRCLE ( 'NONE', #262, 2.000000000000001776 ) ;
#348 = FACE_OUTER_BOUND ( 'NONE', #544, .T. ) ;
#349 = ORIENTED_EDGE ( 'NONE', *, *, #475, .F. ) ;
#350 = DIRECTION ( 'NONE',  ( 0.000000000000000000, 0.000000000000000000, 1.000000000000000000 ) ) ;
#351 = EDGE_CURVE ( 'NONE', #290, #290, #33, .T. ) ;
#352 = DIRECTION ( 'NONE',  ( 0.000000000000000000, 0.000000000000000000, 1.000000000000000000 ) ) ;
#353 = EDGE_LOOP ( 'NONE', ( #477 ) ) ;
#354 = DIRECTION ( 'NONE',  ( 0.000000000000000000, 1.000000000000000000, 0.000000000000000000 ) ) ;
#355 = EDGE_LOOP ( 'NONE', ( #28 ) ) ;
#356 = AXIS2_PLACEMENT_3D ( 'NONE', #297, #435, #218 ) ;
#357 = CARTESIAN_POINT ( 'NONE',  ( -71.56064703513879977, 41.00000000000000000, -156.0265462364120310 ) ) ;
#358 = DIRECTION ( 'NONE',  ( 0.000000000000000000, 0.000000000000000000, 1.000000000000000000 ) ) ;
#359 = EDGE_LOOP ( 'NONE', ( #295 ) ) ;
#360 = EDGE_LOOP ( 'NONE', ( #523 ) ) ;
#361 = STYLED_ITEM ( 'NONE', ( #395 ), #468 ) ;
#362 = CARTESIAN_POINT ( 'NONE',  ( -33.45552926862340115, 46.00000000000000000, -134.0265462364120310 ) ) ;
#363 = EDGE_CURVE ( 'NONE', #463, #463, #111, .T. ) ;
#364 = CARTESIAN_POINT ( 'NONE',  ( -71.56064703513879977, 45.00000000000000711, -112.0265462364119884 ) ) ;
#365 = DIRECTION ( 'NONE',  ( 0.000000000000000000, 0.000000000000000000, 1.000000000000000000 ) ) ;
#366 = CARTESIAN_POINT ( 'NONE',  ( -115.5606470351389987, 41.00000000000000000, -112.0265462364119884 ) ) ;
#367 = FACE_OUTER_BOUND ( 'NONE', #516, .T. ) ;
#368 = CIRCLE ( 'NONE', #422, 2.000000000000001776 ) ;
#369 = ADVANCED_FACE ( 'NONE', ( #116, #385 ), #172, .F. ) ;
#370 = ORIENTED_EDGE ( 'NONE', *, *, #235, .F. ) ;
#371 = CARTESIAN_POINT ( 'NONE',  ( -71.56064703513879977, 46.00000000000000000, -156.0265462364120310 ) ) ;
#372 = EDGE_LOOP ( 'NONE', ( #414 ) ) ;
#373 = CARTESIAN_POINT ( 'NONE',  ( -49.56064703514190484, 41.00000000000000000, -75.92142846990590499 ) ) ;
#374 = DIRECTION ( 'NONE',  ( 0.000000000000000000, 0.000000000000000000, -1.000000000000000000 ) ) ;
#375 = ORIENTED_EDGE ( 'NONE', *, *, #209, .F. ) ;
#376 = CARTESIAN_POINT ( 'NONE',  ( -93.56064703513878555, 46.00000000000000000, -152.1316640029280052 ) ) ;
#377 = CARTESIAN_POINT ( 'NONE',  ( -33.45552926862360010, 41.00000000000000000, -90.02654623641200260 ) ) ;
#378 = CIRCLE ( 'NONE', #194, 2.000000000000001776 ) ;
#379 = ORIENTED_EDGE ( 'NONE', *, *, #500, .F. ) ;
#380 = CARTESIAN_POINT ( 'NONE',  ( -71.56064703513879977, 41.00000000000000000, -70.02654623641200260 ) ) ;
#381 = EDGE_CURVE ( 'NONE', #474, #474, #498, .T. ) ;
#382 = FACE_BOUND ( 'NONE', #260, .T. ) ;
#383 = EDGE_LOOP ( 'NONE', ( #284 ) ) ;
#384 = CARTESIAN_POINT ( 'NONE',  ( -93.56064703513878555, 41.00000000000000000, -152.1316640029280052 ) ) ;
#385 = FACE_OUTER_BOUND ( 'NONE', #228, .T. ) ;
#386 = EDGE_LOOP ( 'NONE', ( #394 ) ) ;
#387 = FACE_OUTER_BOUND ( 'NONE', #47, .T. ) ;
#388 = ORIENTED_EDGE ( 'NONE', *, *, #342, .T. ) ;
#389 = EDGE_CURVE ( 'NONE', #246, #246, #46, .T. ) ;
#390 = AXIS2_PLACEMENT_3D ( 'NONE', #563, #44, #39 ) ;
#391 = FACE_BOUND ( 'NONE', #333, .T. ) ;
#392 = ORIENTED_EDGE ( 'NONE', *, *, #286, .T. ) ;
#393 = FACE_OUTER_BOUND ( 'NONE', #308, .T. ) ;
#394 = ORIENTED_EDGE ( 'NONE', *, *, #351, .T. ) ;
#395 = PRESENTATION_STYLE_ASSIGNMENT (( #103 ) ) ;
#396 = CARTESIAN_POINT ( 'NONE',  ( -109.6657648016539923, 41.00000000000000000, -90.02654623641200260 ) ) ;
#397 = AXIS2_PLACEMENT_3D ( 'NONE', #366, #134, #358 ) ;
#398 = DIRECTION ( 'NONE',  ( 0.000000000000000000, 0.000000000000000000, -1.000000000000000000 ) ) ;
#399 = ADVANCED_FACE ( 'NONE', ( #387, #420 ), #481, .T. ) ;
#400 = EDGE_LOOP ( 'NONE', ( #206 ) ) ;
#401 = CARTESIAN_POINT ( 'NONE',  ( -33.45552926862360010, 46.00000000000000000, -90.02654623641200260 ) ) ;
#402 = EDGE_LOOP ( 'NONE', ( #565 ) ) ;
#403 = AXIS2_PLACEMENT_3D ( 'NONE', #364, #537, #185 ) ;
#404 = COLOUR_RGB ( '',0.7921568627450980005, 0.8196078431372548767, 0.9333333333333333481 ) ;
#405 = FACE_BOUND ( 'NONE', #473, .T. ) ;
#406 = FACE_OUTER_BOUND ( 'NONE', #480, .T. ) ;
#407 = EDGE_LOOP ( 'NONE', ( #273 ) ) ;
#408 = DIRECTION ( 'NONE',  ( 0.000000000000000000, 1.000000000000000000, 0.000000000000000000 ) ) ;
#409 = FACE_OUTER_BOUND ( 'NONE', #482, .T. ) ;
#410 = AXIS2_PLACEMENT_3D ( 'NONE', #321, #493, #530 ) ;
#411 = CYLINDRICAL_SURFACE ( 'NONE', #45, 2.000000000000001776 ) ;
#412 = VERTEX_POINT ( 'NONE', #152 ) ;
#413 = CARTESIAN_POINT ( 'NONE',  ( -71.56064703513879977, 41.00000000000000000, -112.0265462364119884 ) ) ;
#414 = ORIENTED_EDGE ( 'NONE', *, *, #286, .F. ) ;
#415 = VERTEX_POINT ( 'NONE', #157 ) ;
#416 = DIRECTION ( 'NONE',  ( 0.000000000000000000, 0.000000000000000000, 1.000000000000000000 ) ) ;
#417 = EDGE_LOOP ( 'NONE', ( #107 ) ) ;
#418 = VERTEX_POINT ( 'NONE', #110 ) ;
#419 = EDGE_CURVE ( 'NONE', #415, #415, #347, .T. ) ;
#420 = FACE_OUTER_BOUND ( 'NONE', #534, .T. ) ;
#421 = AXIS2_PLACEMENT_3D ( 'NONE', #274, #446, #441 ) ;
#422 = AXIS2_PLACEMENT_3D ( 'NONE', #160, #519, #125 ) ;
#423 = EDGE_LOOP ( 'NONE', ( #303 ) ) ;
#424 = VERTEX_POINT ( 'NONE', #207 ) ;
#425 = DIRECTION ( 'NONE',  ( 0.000000000000000000, 0.000000000000000000, -1.000000000000000000 ) ) ;
#426 = EDGE_LOOP ( 'NONE', ( #256 ) ) ;
#427 = DIRECTION ( 'NONE',  ( 0.000000000000000000, 1.000000000000000000, 0.000000000000000000 ) ) ;
#428 = EDGE_CURVE ( 'NONE', #29, #29, #13, .T. ) ;
#429 = ORIENTED_EDGE ( 'NONE', *, *, #381, .T. ) ;
#430 = SHAPE_DEFINITION_REPRESENTATION ( #239, #25 ) ;
#431 = FACE_BOUND ( 'NONE', #547, .T. ) ;
#432 = EDGE_LOOP ( 'NONE', ( #388 ) ) ;
#433 = CIRCLE ( 'NONE', #289, 49.00000000000000000 ) ;
#434 = CIRCLE ( 'NONE', #277, 2.000000000000001776 ) ;
#435 = DIRECTION ( 'NONE',  ( 0.000000000000000000, -1.000000000000000000, 0.000000000000000000 ) ) ;
#436 = EDGE_LOOP ( 'NONE', ( #525 ) ) ;
#437 = FACE_OUTER_BOUND ( 'NONE', #166, .T. ) ;
#438 = FACE_BOUND ( 'NONE', #31, .T. ) ;
#439 = EDGE_CURVE ( 'NONE', #201, #201, #368, .T. ) ;
#440 = SURFACE_STYLE_FILL_AREA ( #65 ) ;
#441 = DIRECTION ( 'NONE',  ( 0.000000000000000000, 0.000000000000000000, -1.000000000000000000 ) ) ;
#442 = AXIS2_PLACEMENT_3D ( 'NONE', #504, #280, #365 ) ;
#443 = CARTESIAN_POINT ( 'NONE',  ( -27.56064703513884950, 41.00000000000000000, -112.0265462364119884 ) ) ;
#444 = FACE_OUTER_BOUND ( 'NONE', #550, .T. ) ;
#445 = EDGE_CURVE ( 'NONE', #551, #551, #124, .T. ) ;
#446 = DIRECTION ( 'NONE',  ( 0.000000000000000000, -1.000000000000000000, 0.000000000000000000 ) ) ;
#447 = UNCERTAINTY_MEASURE_WITH_UNIT (LENGTH_MEASURE( 1.000000000000000082E-05 ), #237, 'distance_accuracy_value', 'NONE');
#448 = DIRECTION ( 'NONE',  ( 0.000000000000000000, 0.000000000000000000, -1.000000000000000000 ) ) ;
#449 = AXIS2_PLACEMENT_3D ( 'NONE', #312, #57, #58 ) ;
#450 = AXIS2_PLACEMENT_3D ( 'NONE', #247, #17, #416 ) ;
#451 = FACE_OUTER_BOUND ( 'NONE', #562, .T. ) ;
#452 = CARTESIAN_POINT ( 'NONE',  ( -71.56064703513879977, 44.99999999999998579, -112.0265462364119884 ) ) ;
#453 = CARTESIAN_POINT ( 'NONE',  ( -93.56064703514159930, 41.00000000000000000, -73.92142846988789984 ) ) ;
#454 = VERTEX_POINT ( 'NONE', #242 ) ;
#455 = PRODUCT_RELATED_PRODUCT_CATEGORY ( 'part', '', ( #41 ) ) ;
#456 = DIRECTION ( 'NONE',  ( 0.000000000000000000, 0.000000000000000000, 1.000000000000000000 ) ) ;
#457 = ORIENTED_EDGE ( 'NONE', *, *, #419, .T. ) ;
#458 = CARTESIAN_POINT ( 'NONE',  ( -115.5606470351389987, 41.00000000000000000, -114.0265462364119884 ) ) ;
#459 = UNCERTAINTY_MEASURE_WITH_UNIT (LENGTH_MEASURE( 1.000000000000000082E-05 ), #177, 'distance_accuracy_value', 'NONE');
#460 = CIRCLE ( 'NONE', #193, 2.000000000000001776 ) ;
#461 = FACE_OUTER_BOUND ( 'NONE', #417, .T. ) ;
#462 = ORIENTED_EDGE ( 'NONE', *, *, #93, .T. ) ;
#463 = VERTEX_POINT ( 'NONE', #76 ) ;
#464 = DIRECTION ( 'NONE',  ( 0.000000000000000000, -1.000000000000000000, 0.000000000000000000 ) ) ;
#465 = ADVANCED_FACE ( 'NONE', ( #488, #393 ), #63, .F. ) ;
#466 = EDGE_LOOP ( 'NONE', ( #329 ) ) ;
#467 = VERTEX_POINT ( 'NONE', #73 ) ;
#468 = MANIFOLD_SOLID_BREP ( 'NONE', #541 ) ;
#469 = FACE_OUTER_BOUND ( 'NONE', #281, .T. ) ;
#470 = ORIENTED_EDGE ( 'NONE', *, *, #492, .F. ) ;
#471 = CARTESIAN_POINT ( 'NONE',  ( -93.56064703514159930, 46.00000000000000000, -75.92142846988789984 ) ) ;
#472 = DIRECTION ( 'NONE',  ( 0.000000000000000000, 1.000000000000000000, 0.000000000000000000 ) ) ;
#473 = EDGE_LOOP ( 'NONE', ( #163 ) ) ;
#474 = VERTEX_POINT ( 'NONE', #559 ) ;
#475 = EDGE_CURVE ( 'NONE', #511, #511, #253, .T. ) ;
#476 = FACE_BOUND ( 'NONE', #210, .T. ) ;
#477 = ORIENTED_EDGE ( 'NONE', *, *, #445, .T. ) ;
#478 = PRODUCT_CONTEXT ( 'NONE', #316, 'mechanical' ) ;
#479 = FACE_BOUND ( 'NONE', #386, .T. ) ;
#480 = EDGE_LOOP ( 'NONE', ( #470 ) ) ;
#481 = CYLINDRICAL_SURFACE ( 'NONE', #112, 49.00000000000000000 ) ;
#482 = EDGE_LOOP ( 'NONE', ( #105 ) ) ;
#483 = CIRCLE ( 'NONE', #85, 2.000000000000001776 ) ;
#484 = MECHANICAL_DESIGN_GEOMETRIC_PRESENTATION_REPRESENTATION (  '', ( #361 ), #97 ) ;
#485 = DIRECTION ( 'NONE',  ( -0.000000000000000000, -1.000000000000000000, -0.000000000000000000 ) ) ;
#486 = DIRECTION ( 'NONE',  ( 0.000000000000000000, -1.000000000000000000, 0.000000000000000000 ) ) ;
#487 = ADVANCED_FACE ( 'NONE', ( #174, #94 ), #3, .F. ) ;
#488 = FACE_OUTER_BOUND ( 'NONE', #527, .T. ) ;
#489 = ORIENTED_EDGE ( 'NONE', *, *, #136, .F. ) ;
#490 = DIRECTION ( 'NONE',  ( 0.000000000000000000, 0.000000000000000000, -1.000000000000000000 ) ) ;
#491 = EDGE_LOOP ( 'NONE', ( #62 ) ) ;
#492 = EDGE_CURVE ( 'NONE', #37, #37, #168, .T. ) ;
#493 = DIRECTION ( 'NONE',  ( 0.000000000000000000, -1.000000000000000000, 0.000000000000000000 ) ) ;
#494 = EDGE_LOOP ( 'NONE', ( #175 ) ) ;
#495 = DIRECTION ( 'NONE',  ( 0.000000000000000000, -1.000000000000000000, 0.000000000000000000 ) ) ;
#496 = CARTESIAN_POINT ( 'NONE',  ( -71.56064703513879977, 41.00000000000000000, -156.0265462364120310 ) ) ;
#497 = AXIS2_PLACEMENT_3D ( 'NONE', #371, #61, #70 ) ;
#498 = CIRCLE ( 'NONE', #288, 2.000000000000001776 ) ;
#499 = CYLINDRICAL_SURFACE ( 'NONE', #301, 2.000000000000001776 ) ;
#500 = EDGE_CURVE ( 'NONE', #161, #161, #433, .T. ) ;
#501 = DIRECTION ( 'NONE',  ( 0.000000000000000000, 0.000000000000000000, 1.000000000000000000 ) ) ;
#502 = CYLINDRICAL_SURFACE ( 'NONE', #55, 2.000000000000001776 ) ;
#503 = CARTESIAN_POINT ( 'NONE',  ( -71.56064703513879977, 46.00000000000000000, -160.0265462364120026 ) ) ;
#504 = CARTESIAN_POINT ( 'NONE',  ( -49.56064703513870029, 41.00000000000000000, -150.1316640029279768 ) ) ;
#505 = ORIENTED_EDGE ( 'NONE', *, *, #99, .T. ) ;
#506 = CARTESIAN_POINT ( 'NONE',  ( -109.6657648016539923, 41.00000000000000000, -136.0265462364120310 ) ) ;
#507 = AXIS2_PLACEMENT_3D ( 'NONE', #8, #51, #232 ) ;
#508 = AXIS2_PLACEMENT_3D ( 'NONE', #155, #101, #543 ) ;
#509 = DIRECTION ( 'NONE',  ( 0.000000000000000000, -1.000000000000000000, 0.000000000000000000 ) ) ;
#510 = EDGE_LOOP ( 'NONE', ( #118 ) ) ;
#511 = VERTEX_POINT ( 'NONE', #115 ) ;
#512 = DIRECTION ( 'NONE',  ( 0.000000000000000000, 0.000000000000000000, 1.000000000000000000 ) ) ;
#513 = ORIENTED_EDGE ( 'NONE', *, *, #93, .F. ) ;
#514 = VERTEX_POINT ( 'NONE', #556 ) ;
#515 = FACE_BOUND ( 'NONE', #345, .T. ) ;
#516 = EDGE_LOOP ( 'NONE', ( #170 ) ) ;
#517 = ADVANCED_FACE ( 'NONE', ( #179, #317 ), #56, .F. ) ;
#518 = VERTEX_POINT ( 'NONE', #545 ) ;
#519 = DIRECTION ( 'NONE',  ( 0.000000000000000000, -1.000000000000000000, 0.000000000000000000 ) ) ;
#520 = EDGE_LOOP ( 'NONE', ( #462 ) ) ;
#521 = DIRECTION ( 'NONE',  ( 1.000000000000000000, 0.000000000000000000, 0.000000000000000000 ) ) ;
#522 = FACE_BOUND ( 'NONE', #491, .T. ) ;
#523 = ORIENTED_EDGE ( 'NONE', *, *, #83, .T. ) ;
#524 = CARTESIAN_POINT ( 'NONE',  ( -109.6657648016539923, 46.00000000000000000, -90.02654623641200260 ) ) ;
#525 = ORIENTED_EDGE ( 'NONE', *, *, #16, .T. ) ;
#526 = EDGE_CURVE ( 'NONE', #424, #424, #142, .T. ) ;
#527 = EDGE_LOOP ( 'NONE', ( #292 ) ) ;
#528 = AXIS2_PLACEMENT_3D ( 'NONE', #162, #215, #338 ) ;
#529 =( NAMED_UNIT ( * ) PLANE_ANGLE_UNIT ( ) SI_UNIT ( $, .RADIAN. ) );
#530 = DIRECTION ( 'NONE',  ( 0.000000000000000000, 0.000000000000000000, -1.000000000000000000 ) ) ;
#531 = FACE_BOUND ( 'NONE', #536, .T. ) ;
#532 = ADVANCED_FACE ( 'NONE', ( #226, #437 ), #271, .F. ) ;
#533 = DIRECTION ( 'NONE',  ( 0.000000000000000000, 0.000000000000000000, 1.000000000000000000 ) ) ;
#534 = EDGE_LOOP ( 'NONE', ( #133 ) ) ;
#535 = AXIS2_PLACEMENT_3D ( 'NONE', #128, #208, #425 ) ;
#536 = EDGE_LOOP ( 'NONE', ( #114 ) ) ;
#537 = DIRECTION ( 'NONE',  ( -0.000000000000000000, -1.000000000000000000, -0.000000000000000000 ) ) ;
#538 = FACE_OUTER_BOUND ( 'NONE', #88, .T. ) ;
#539 = ORIENTED_EDGE ( 'NONE', *, *, #526, .F. ) ;
#540 = CARTESIAN_POINT ( 'NONE',  ( -71.56064703513879977, 41.00000000000000000, -112.0265462364119884 ) ) ;
#541 = CLOSED_SHELL ( 'NONE', ( #532, #561, #278, #183, #517, #369, #143, #465, #227, #244, #487, #331, #300, #399, #307, #38, #322, #60 ) ) ;
#542 = AXIS2_PLACEMENT_3D ( 'NONE', #452, #137, #398 ) ;
#543 = DIRECTION ( 'NONE',  ( 0.000000000000000000, 0.000000000000000000, -1.000000000000000000 ) ) ;
#544 = EDGE_LOOP ( 'NONE', ( #318 ) ) ;
#545 = CARTESIAN_POINT ( 'NONE',  ( -71.56064703513879977, 46.00000000000000000, -148.0265462364119742 ) ) ;
#546 = FACE_OUTER_BOUND ( 'NONE', #359, .T. ) ;
#547 = EDGE_LOOP ( 'NONE', ( #429 ) ) ;
#548 = VERTEX_POINT ( 'NONE', #249 ) ;
#549 = DIRECTION ( 'NONE',  ( 0.000000000000000000, 0.000000000000000000, 1.000000000000000000 ) ) ;
#550 = EDGE_LOOP ( 'NONE', ( #84 ) ) ;
#551 = VERTEX_POINT ( 'NONE', #296 ) ;
#552 = CIRCLE ( 'NONE', #68, 49.00000000000000000 ) ;
#553 = AXIS2_PLACEMENT_3D ( 'NONE', #413, #509, #64 ) ;
#554 = CARTESIAN_POINT ( 'NONE',  ( -49.56064703513870029, 46.00000000000000000, -150.1316640029279768 ) ) ;
#555 = ORIENTED_EDGE ( 'NONE', *, *, #526, .T. ) ;
#556 = CARTESIAN_POINT ( 'NONE',  ( -27.56064703513884950, 46.00000000000000000, -114.0265462364119884 ) ) ;
#557 = CYLINDRICAL_SURFACE ( 'NONE', #141, 2.000000000000001776 ) ;
#558 = EDGE_LOOP ( 'NONE', ( #173 ) ) ;
#559 = CARTESIAN_POINT ( 'NONE',  ( -109.6657648016539923, 46.00000000000000000, -92.02654623641200260 ) ) ;
#560 = DIRECTION ( 'NONE',  ( 0.000000000000000000, -1.000000000000000000, 0.000000000000000000 ) ) ;
#561 = ADVANCED_FACE ( 'NONE', ( #181, #139 ), #18, .F. ) ;
#562 = EDGE_LOOP ( 'NONE', ( #2 ) ) ;
#563 = CARTESIAN_POINT ( 'NONE',  ( -71.56064703513879977, 46.00000000000000000, -112.0265462364119884 ) ) ;
#564 = CIRCLE ( 'NONE', #507, 48.00000000000000000 ) ;
#565 = ORIENTED_EDGE ( 'NONE', *, *, #191, .F. ) ;
#566 = CARTESIAN_POINT ( 'NONE',  ( -33.45552926862340115, 41.00000000000000000, -134.0265462364120310 ) ) ;
#567 = EDGE_LOOP ( 'NONE', ( #248 ) ) ;
ENDSEC;
END-ISO-10303-21;
