ISO-10303-21;
HEADER;
FILE_DESCRIPTION (( 'STEP AP214' ),
    '1' );
FILE_NAME ('ASV1_100_16C.STEP',
    '2026-07-31T07:07:23',
    ( '' ),
    ( '' ),
    'SwSTEP 2.0',
    'SolidWorks 2025',
    '' );
FILE_SCHEMA (( 'AUTOMOTIVE_DESIGN' ));
ENDSEC;

DATA;
#1 = ORIENTED_EDGE ( 'NONE', *, *, #1108, .T. ) ;
#2 = CARTESIAN_POINT ( 'NONE',  ( 0.000000000000000000, 0.000000000000000000, 0.000000000000000000 ) ) ;
#3 = CIRCLE ( 'NONE', #852, 1.250000000000001110 ) ;
#4 = AXIS2_PLACEMENT_3D ( 'NONE', #642, #631, #448 ) ;
#5 = CIRCLE ( 'NONE', #1189, 1.749999999999987566 ) ;
#6 = CIRCLE ( 'NONE', #427, 1.250000000000001110 ) ;
#7 = VERTEX_POINT ( 'NONE', #968 ) ;
#8 = ORIENTED_EDGE ( 'NONE', *, *, #870, .F. ) ;
#9 = CARTESIAN_POINT ( 'NONE',  ( -15.34406326080698157, 18.72937550720463662, 0.000000000000000000 ) ) ;
#10 = FACE_BOUND ( 'NONE', #1100, .T. ) ;
#11 = EDGE_CURVE ( 'NONE', #544, #398, #1114, .T. ) ;
#12 = ORIENTED_EDGE ( 'NONE', *, *, #900, .F. ) ;
#13 = CARTESIAN_POINT ( 'NONE',  ( -20.34406326080698335, -18.27062449279532075, 0.5000000000000073275 ) ) ;
#14 = FACE_OUTER_BOUND ( 'NONE', #755, .T. ) ;
#15 = DIRECTION ( 'NONE',  ( 1.000000000000000000, 0.000000000000000000, 0.000000000000000000 ) ) ;
#16 = ORIENTED_EDGE ( 'NONE', *, *, #927, .T. ) ;
#17 = DIRECTION ( 'NONE',  ( 0.000000000000000000, 0.000000000000000000, -1.000000000000000000 ) ) ;
#18 = CARTESIAN_POINT ( 'NONE',  ( -15.34406326080697802, -19.77062449279532075, 0.000000000000000000 ) ) ;
#19 = ORIENTED_EDGE ( 'NONE', *, *, #952, .T. ) ;
#20 = CARTESIAN_POINT ( 'NONE',  ( -16.34406326080697980, 16.22937550720462951, 10.00000000000000000 ) ) ;
#21 = EDGE_CURVE ( 'NONE', #961, #961, #959, .T. ) ;
#22 = DIRECTION ( 'NONE',  ( 0.000000000000000000, 0.000000000000000000, 1.000000000000000000 ) ) ;
#23 = ORIENTED_EDGE ( 'NONE', *, *, #1235, .F. ) ;
#24 = DIRECTION ( 'NONE',  ( -1.000000000000000000, 0.000000000000000000, 0.000000000000000000 ) ) ;
#25 = DIRECTION ( 'NONE',  ( -1.000000000000000000, 0.000000000000000000, 0.000000000000000000 ) ) ;
#26 = ORIENTED_EDGE ( 'NONE', *, *, #691, .F. ) ;
#27 = AXIS2_PLACEMENT_3D ( 'NONE', #684, #1096, #808 ) ;
#28 = CIRCLE ( 'NONE', #365, 1.249999999999999334 ) ;
#29 = CIRCLE ( 'NONE', #52, 5.000000000000000888 ) ;
#30 = VERTEX_POINT ( 'NONE', #974 ) ;
#31 = ORIENTED_EDGE ( 'NONE', *, *, #1094, .F. ) ;
#32 = CARTESIAN_POINT ( 'NONE',  ( -16.34406326080697980, -15.77062449279534384, 9.500000000000014211 ) ) ;
#33 = DIRECTION ( 'NONE',  ( 0.000000000000000000, 0.000000000000000000, 1.000000000000000000 ) ) ;
#34 = DIRECTION ( 'NONE',  ( 1.000000000000000000, 0.000000000000000000, 0.000000000000000000 ) ) ;
#35 = EDGE_LOOP ( 'NONE', ( #928 ) ) ;
#36 = ORIENTED_EDGE ( 'NONE', *, *, #933, .F. ) ;
#37 = ADVANCED_FACE ( 'NONE', ( #1017, #918 ), #462, .F. ) ;
#38 = CYLINDRICAL_SURFACE ( 'NONE', #835, 1.250000000000001110 ) ;
#39 = LINE ( 'NONE', #708, #1221 ) ;
#40 = DIRECTION ( 'NONE',  ( -0.000000000000000000, 0.000000000000000000, 1.000000000000000000 ) ) ;
#41 = EDGE_LOOP ( 'NONE', ( #725 ) ) ;
#42 = CARTESIAN_POINT ( 'NONE',  ( 16.90593673919302375, -15.77062449279534384, 9.500000000000017764 ) ) ;
#43 = VERTEX_POINT ( 'NONE', #70 ) ;
#44 = DIRECTION ( 'NONE',  ( 0.000000000000000000, 0.7071067811865425767, -0.7071067811865525687 ) ) ;
#45 = DIRECTION ( 'NONE',  ( -1.000000000000000000, 0.000000000000000000, 0.000000000000000000 ) ) ;
#46 = EDGE_CURVE ( 'NONE', #1151, #1151, #916, .T. ) ;
#47 = DIRECTION ( 'NONE',  ( 1.000000000000000000, 0.000000000000000000, 0.000000000000000000 ) ) ;
#48 = ORIENTED_EDGE ( 'NONE', *, *, #600, .F. ) ;
#49 = CARTESIAN_POINT ( 'NONE',  ( 19.15593673919302375, -18.27062449279532075, 10.00000000000000000 ) ) ;
#50 = ORIENTED_EDGE ( 'NONE', *, *, #506, .T. ) ;
#51 = CONICAL_SURFACE ( 'NONE', #555, 4.500000000000000888, 0.7853981633974473908 ) ;
#52 = AXIS2_PLACEMENT_3D ( 'NONE', #1219, #360, #912 ) ;
#53 = DIRECTION ( 'NONE',  ( -0.000000000000000000, -0.000000000000000000, -1.000000000000000000 ) ) ;
#54 = DIRECTION ( 'NONE',  ( -0.000000000000000000, 0.000000000000000000, 1.000000000000000000 ) ) ;
#55 = AXIS2_PLACEMENT_3D ( 'NONE', #18, #397, #301 ) ;
#56 = DIRECTION ( 'NONE',  ( 0.000000000000000000, -0.000000000000000000, -1.000000000000000000 ) ) ;
#57 = ORIENTED_EDGE ( 'NONE', *, *, #199, .F. ) ;
#58 = ADVANCED_FACE ( 'NONE', ( #1104 ), #51, .T. ) ;
#59 = ORIENTED_EDGE ( 'NONE', *, *, #154, .T. ) ;
#60 = FACE_OUTER_BOUND ( 'NONE', #35, .T. ) ;
#61 = CARTESIAN_POINT ( 'NONE',  ( 14.65593673919302375, 23.72937550720463662, 9.500000000000000000 ) ) ;
#62 = CARTESIAN_POINT ( 'NONE',  ( -15.34406326080697802, -19.77062449279532075, 9.500000000000015987 ) ) ;
#63 = ADVANCED_FACE ( 'NONE', ( #89, #468 ), #799, .F. ) ;
#64 = LINE ( 'NONE', #925, #383 ) ;
#65 = DIRECTION ( 'NONE',  ( 0.000000000000000000, 0.000000000000000000, 1.000000000000000000 ) ) ;
#66 = ORIENTED_EDGE ( 'NONE', *, *, #540, .F. ) ;
#67 = EDGE_CURVE ( 'NONE', #554, #554, #697, .T. ) ;
#68 = DIRECTION ( 'NONE',  ( 0.000000000000000000, 0.000000000000000000, -1.000000000000000000 ) ) ;
#69 = DIRECTION ( 'NONE',  ( -1.000000000000000000, 0.000000000000000000, -0.000000000000000000 ) ) ;
#70 = CARTESIAN_POINT ( 'NONE',  ( -15.34406326080698157, 23.72937550720463662, 0.5000000000000073275 ) ) ;
#71 = DIRECTION ( 'NONE',  ( 1.000000000000000000, 0.000000000000000000, 0.000000000000000000 ) ) ;
#72 = ADVANCED_FACE ( 'NONE', ( #14 ), #166, .T. ) ;
#73 = APPLICATION_CONTEXT ( 'automotive_design' ) ;
#74 = DIRECTION ( 'NONE',  ( -0.000000000000000000, -0.000000000000000000, -1.000000000000000000 ) ) ;
#75 = ORIENTED_EDGE ( 'NONE', *, *, #665, .F. ) ;
#76 = ORIENTED_EDGE ( 'NONE', *, *, #282, .F. ) ;
#77 = CARTESIAN_POINT ( 'NONE',  ( 15.65593673919302198, 16.22937550720462951, 0.4999999999999958922 ) ) ;
#78 = CARTESIAN_POINT ( 'NONE',  ( 14.65593673919302375, -23.27062449279532075, 9.500000000000000000 ) ) ;
#79 = PRODUCT ( 'ASV1_100_16C', 'ASV1_100_16C', '', ( #585 ) ) ;
#80 = VERTEX_POINT ( 'NONE', #378 ) ;
#81 = EDGE_LOOP ( 'NONE', ( #288 ) ) ;
#82 = CARTESIAN_POINT ( 'NONE',  ( -16.34406326080697980, -15.77062449279534384, 0.000000000000000000 ) ) ;
#83 = PRESENTATION_STYLE_ASSIGNMENT (( #1127 ) ) ;
#84 = AXIS2_PLACEMENT_3D ( 'NONE', #1232, #376, #748 ) ;
#85 = CIRCLE ( 'NONE', #635, 18.62741699796950812 ) ;
#86 = ORIENTED_EDGE ( 'NONE', *, *, #513, .F. ) ;
#87 = CARTESIAN_POINT ( 'NONE',  ( -15.34406326080698157, -23.27062449279532075, 0.000000000000000000 ) ) ;
#88 = EDGE_CURVE ( 'NONE', #478, #478, #342, .T. ) ;
#89 = FACE_OUTER_BOUND ( 'NONE', #686, .T. ) ;
#90 = AXIS2_PLACEMENT_3D ( 'NONE', #662, #189, #764 ) ;
#91 = CARTESIAN_POINT ( 'NONE',  ( -14.59406326080699223, 16.22937550720462951, 10.00000000000000000 ) ) ;
#92 = CARTESIAN_POINT ( 'NONE',  ( 19.65593673919302375, 18.72937550720463662, 10.00000000000000000 ) ) ;
#93 = ORIENTED_EDGE ( 'NONE', *, *, #46, .T. ) ;
#94 = CARTESIAN_POINT ( 'NONE',  ( 14.65593673919302375, -22.77062449279532075, 10.00000000000000000 ) ) ;
#95 = DIRECTION ( 'NONE',  ( -0.000000000000000000, 0.000000000000000000, 1.000000000000000000 ) ) ;
#96 = EDGE_CURVE ( 'NONE', #398, #497, #1087, .T. ) ;
#97 = VERTEX_POINT ( 'NONE', #475 ) ;
#98 = DIRECTION ( 'NONE',  ( 1.000000000000000000, 0.000000000000000000, 0.000000000000000000 ) ) ;
#99 = CARTESIAN_POINT ( 'NONE',  ( 0.000000000000000000, 0.000000000000000000, 10.00000000000000000 ) ) ;
#100 = ORIENTED_EDGE ( 'NONE', *, *, #267, .F. ) ;
#101 = FACE_BOUND ( 'NONE', #265, .T. ) ;
#102 = CYLINDRICAL_SURFACE ( 'NONE', #938, 1.250000000000001110 ) ;
#103 = CARTESIAN_POINT ( 'NONE',  ( 16.40593673919301665, 20.22937550720466149, 0.000000000000000000 ) ) ;
#104 = ORIENTED_EDGE ( 'NONE', *, *, #143, .T. ) ;
#105 = EDGE_CURVE ( 'NONE', #389, #453, #1135, .T. ) ;
#106 = DIRECTION ( 'NONE',  ( -0.000000000000000000, -0.000000000000000000, 1.000000000000000000 ) ) ;
#107 = ORIENTED_EDGE ( 'NONE', *, *, #406, .F. ) ;
#108 = CARTESIAN_POINT ( 'NONE',  ( 14.65593673919302375, 23.72937550720463662, 0.000000000000000000 ) ) ;
#109 = CIRCLE ( 'NONE', #1109, 5.000000000000000888 ) ;
#110 = VECTOR ( 'NONE', #1132, 1000.000000000000000 ) ;
#111 = VERTEX_POINT ( 'NONE', #487 ) ;
#112 = ORIENTED_EDGE ( 'NONE', *, *, #1125, .F. ) ;
#113 = FACE_OUTER_BOUND ( 'NONE', #543, .T. ) ;
#114 = ADVANCED_FACE ( 'NONE', ( #844, #192 ), #102, .F. ) ;
#115 = FACE_OUTER_BOUND ( 'NONE', #1047, .T. ) ;
#116 = VERTEX_POINT ( 'NONE', #167 ) ;
#117 = LINE ( 'NONE', #400, #128 ) ;
#118 = ORIENTED_EDGE ( 'NONE', *, *, #711, .F. ) ;
#119 = EDGE_LOOP ( 'NONE', ( #156, #295, #292, #1052 ) ) ;
#120 = CARTESIAN_POINT ( 'NONE',  ( -15.34406326080698157, 23.22937550720463662, 0.000000000000000000 ) ) ;
#121 = VERTEX_POINT ( 'NONE', #227 ) ;
#122 = EDGE_LOOP ( 'NONE', ( #421, #26, #884, #23 ) ) ;
#123 = DIRECTION ( 'NONE',  ( 0.7071067811865425767, 0.000000000000000000, 0.7071067811865525687 ) ) ;
#124 = DIRECTION ( 'NONE',  ( 0.000000000000000000, 0.000000000000000000, 1.000000000000000000 ) ) ;
#125 = CARTESIAN_POINT ( 'NONE',  ( 19.65593673919302375, -18.27062449279532075, 0.5000000000000073275 ) ) ;
#126 = EDGE_LOOP ( 'NONE', ( #737 ) ) ;
#127 = AXIS2_PLACEMENT_3D ( 'NONE', #1172, #848, #25 ) ;
#128 = VECTOR ( 'NONE', #15, 1000.000000000000000 ) ;
#129 = EDGE_CURVE ( 'NONE', #43, #1168, #415, .T. ) ;
#130 = CIRCLE ( 'NONE', #446, 1.250000000000001110 ) ;
#131 = ORIENTED_EDGE ( 'NONE', *, *, #506, .F. ) ;
#132 = DIRECTION ( 'NONE',  ( 0.000000000000000000, 1.000000000000000000, 0.000000000000000000 ) ) ;
#133 = EDGE_LOOP ( 'NONE', ( #228, #387, #1028, #830 ) ) ;
#134 = EDGE_CURVE ( 'NONE', #1001, #721, #897, .T. ) ;
#135 = VERTEX_POINT ( 'NONE', #505 ) ;
#136 = ORIENTED_EDGE ( 'NONE', *, *, #1182, .T. ) ;
#137 = FACE_BOUND ( 'NONE', #479, .T. ) ;
#138 = CARTESIAN_POINT ( 'NONE',  ( -16.34406326080697980, 16.22937550720462951, 9.500000000000015987 ) ) ;
#139 = FACE_OUTER_BOUND ( 'NONE', #667, .T. ) ;
#140 = ORIENTED_EDGE ( 'NONE', *, *, #636, .F. ) ;
#141 = ORIENTED_EDGE ( 'NONE', *, *, #88, .F. ) ;
#142 = FACE_OUTER_BOUND ( 'NONE', #990, .T. ) ;
#143 = EDGE_CURVE ( 'NONE', #408, #453, #1157, .T. ) ;
#144 = CARTESIAN_POINT ( 'NONE',  ( 0.000000000000000000, 23.72937550720463662, 9.500000000000000000 ) ) ;
#145 = ORIENTED_EDGE ( 'NONE', *, *, #235, .T. ) ;
#146 = AXIS2_PLACEMENT_3D ( 'NONE', #978, #591, #34 ) ;
#147 = AXIS2_PLACEMENT_3D ( 'NONE', #9, #955, #196 ) ;
#148 = ORIENTED_EDGE ( 'NONE', *, *, #513, .T. ) ;
#149 = CIRCLE ( 'NONE', #596, 5.000000000000000888 ) ;
#150 = FACE_OUTER_BOUND ( 'NONE', #1061, .T. ) ;
#151 = DIRECTION ( 'NONE',  ( 0.000000000000000000, 0.000000000000000000, 1.000000000000000000 ) ) ;
#152 = CONICAL_SURFACE ( 'NONE', #486, 1.249999999999999334, 0.7853981633974516097 ) ;
#153 = CARTESIAN_POINT ( 'NONE',  ( 19.65593673919302375, -18.27062449279532075, 9.500000000000000000 ) ) ;
#154 = EDGE_CURVE ( 'NONE', #116, #579, #1140, .T. ) ;
#155 = ORIENTED_EDGE ( 'NONE', *, *, #474, .T. ) ;
#156 = ORIENTED_EDGE ( 'NONE', *, *, #159, .F. ) ;
#157 = DIRECTION ( 'NONE',  ( -1.000000000000000000, 0.000000000000000000, 0.000000000000000000 ) ) ;
#158 = DIRECTION ( 'NONE',  ( 0.000000000000000000, 0.7071067811865524577, -0.7071067811865425767 ) ) ;
#159 = EDGE_CURVE ( 'NONE', #298, #510, #1134, .T. ) ;
#160 = ORIENTED_EDGE ( 'NONE', *, *, #1067, .F. ) ;
#161 = FACE_BOUND ( 'NONE', #81, .T. ) ;
#162 = LINE ( 'NONE', #719, #110 ) ;
#163 = CARTESIAN_POINT ( 'NONE',  ( -20.34406326080698335, -18.27062449279532075, 9.500000000000000000 ) ) ;
#164 = ADVANCED_FACE ( 'NONE', ( #367, #393 ), #1020, .F. ) ;
#165 = CARTESIAN_POINT ( 'NONE',  ( 14.65593673919302375, -23.27062449279532075, 0.5000000000000073275 ) ) ;
#166 = CONICAL_SURFACE ( 'NONE', #326, 4.500000000000000888, 0.7853981633974405074 ) ;
#167 = CARTESIAN_POINT ( 'NONE',  ( -20.34406326080698335, -18.27062449279532075, 0.5000000000000073275 ) ) ;
#168 = AXIS2_PLACEMENT_3D ( 'NONE', #1146, #202, #416 ) ;
#169 = LINE ( 'NONE', #723, #428 ) ;
#170 = VECTOR ( 'NONE', #531, 1000.000000000000000 ) ;
#171 = CARTESIAN_POINT ( 'NONE',  ( 14.65593673919302375, 18.72937550720463662, 9.500000000000000000 ) ) ;
#172 = FACE_OUTER_BOUND ( 'NONE', #329, .T. ) ;
#173 = EDGE_LOOP ( 'NONE', ( #148 ) ) ;
#174 = DIRECTION ( 'NONE',  ( 1.000000000000000000, 0.000000000000000000, 0.000000000000000000 ) ) ;
#175 = DIRECTION ( 'NONE',  ( 1.000000000000000000, 0.000000000000000000, 0.000000000000000000 ) ) ;
#176 = EDGE_CURVE ( 'NONE', #995, #80, #1029, .T. ) ;
#177 = ORIENTED_EDGE ( 'NONE', *, *, #1049, .F. ) ;
#178 = DIRECTION ( 'NONE',  ( 1.000000000000000000, 0.000000000000000000, 0.000000000000000000 ) ) ;
#179 = DIRECTION ( 'NONE',  ( 1.000000000000000000, 0.000000000000000000, 0.000000000000000000 ) ) ;
#180 = PLANE ( 'NONE',  #168 ) ;
#181 = DIRECTION ( 'NONE',  ( 0.000000000000000000, -1.000000000000000000, 0.000000000000000000 ) ) ;
#182 = VECTOR ( 'NONE', #364, 1000.000000000000000 ) ;
#183 = AXIS2_PLACEMENT_3D ( 'NONE', #1205, #344, #718 ) ;
#184 = ADVANCED_FACE ( 'NONE', ( #186, #1150 ), #754, .F. ) ;
#185 = ORIENTED_EDGE ( 'NONE', *, *, #242, .T. ) ;
#186 = FACE_BOUND ( 'NONE', #392, .T. ) ;
#187 = DIRECTION ( 'NONE',  ( 0.000000000000000000, -1.000000000000000000, 0.000000000000000000 ) ) ;
#188 = CARTESIAN_POINT ( 'NONE',  ( -13.59406326080696914, -19.77062449279532075, 0.000000000000000000 ) ) ;
#189 = DIRECTION ( 'NONE',  ( -0.000000000000000000, -0.000000000000000000, -1.000000000000000000 ) ) ;
#190 = FACE_BOUND ( 'NONE', #996, .T. ) ;
#191 = EDGE_LOOP ( 'NONE', ( #601 ) ) ;
#192 = FACE_OUTER_BOUND ( 'NONE', #680, .T. ) ;
#193 = EDGE_CURVE ( 'NONE', #497, #437, #838, .T. ) ;
#194 = CARTESIAN_POINT ( 'NONE',  ( -0.3440632608069787990, 0.2293755072046432808, 9.500000000000003553 ) ) ;
#195 = ORIENTED_EDGE ( 'NONE', *, *, #224, .T. ) ;
#196 = DIRECTION ( 'NONE',  ( 1.000000000000000000, 0.000000000000000000, 0.000000000000000000 ) ) ;
#197 = DIRECTION ( 'NONE',  ( 1.000000000000000000, 0.000000000000000000, 0.000000000000000000 ) ) ;
#198 = ORIENTED_EDGE ( 'NONE', *, *, #1031, .F. ) ;
#199 = EDGE_CURVE ( 'NONE', #1039, #721, #472, .T. ) ;
#200 = DIRECTION ( 'NONE',  ( 1.000000000000000000, 0.000000000000000000, 0.000000000000000000 ) ) ;
#201 = EDGE_LOOP ( 'NONE', ( #1170 ) ) ;
#202 = DIRECTION ( 'NONE',  ( -0.7071067811865524577, 0.000000000000000000, 0.7071067811865425767 ) ) ;
#203 = DIRECTION ( 'NONE',  ( 0.7071067811865475727, 0.000000000000000000, -0.7071067811865475727 ) ) ;
#204 = CIRCLE ( 'NONE', #84, 1.749999999999987566 ) ;
#205 = DIRECTION ( 'NONE',  ( 1.000000000000000000, 0.000000000000000000, 0.000000000000000000 ) ) ;
#206 = EDGE_LOOP ( 'NONE', ( #355 ) ) ;
#207 = AXIS2_PLACEMENT_3D ( 'NONE', #545, #537, #824 ) ;
#208 = MECHANICAL_DESIGN_GEOMETRIC_PRESENTATION_REPRESENTATION (  '', ( #1009 ), #1191 ) ;
#209 = CARTESIAN_POINT ( 'NONE',  ( 16.90593673919302375, 16.22937550720462951, 9.500000000000017764 ) ) ;
#210 = EDGE_LOOP ( 'NONE', ( #988, #240, #1066, #247, #612, #1149, #413, #501 ) ) ;
#211 = CYLINDRICAL_SURFACE ( 'NONE', #304, 1.249999999999999334 ) ;
#212 = ORIENTED_EDGE ( 'NONE', *, *, #143, .F. ) ;
#213 = DIRECTION ( 'NONE',  ( -0.000000000000000000, -0.000000000000000000, -1.000000000000000000 ) ) ;
#214 = ORIENTED_EDGE ( 'NONE', *, *, #1138, .F. ) ;
#215 = LINE ( 'NONE', #1196, #1141 ) ;
#216 = FACE_OUTER_BOUND ( 'NONE', #526, .T. ) ;
#217 = ADVANCED_FACE ( 'NONE', ( #843, #750, #284, #1034, #659, #1048, #565, #101 ), #951, .F. ) ;
#218 = ORIENTED_EDGE ( 'NONE', *, *, #946, .F. ) ;
#219 = EDGE_LOOP ( 'NONE', ( #592 ) ) ;
#220 = CARTESIAN_POINT ( 'NONE',  ( 0.000000000000000000, 23.72937550720463662, 10.00000000000000000 ) ) ;
#221 = DIRECTION ( 'NONE',  ( 0.000000000000000000, 0.000000000000000000, 1.000000000000000000 ) ) ;
#222 = ORIENTED_EDGE ( 'NONE', *, *, #480, .T. ) ;
#223 = CARTESIAN_POINT ( 'NONE',  ( 15.65593673919302198, 16.22937550720462951, 9.500000000000017764 ) ) ;
#224 = EDGE_CURVE ( 'NONE', #1065, #1065, #3, .T. ) ;
#225 = VECTOR ( 'NONE', #270, 1000.000000000000000 ) ;
#226 = VECTOR ( 'NONE', #178, 1000.000000000000000 ) ;
#227 = CARTESIAN_POINT ( 'NONE',  ( 16.90593673919302375, 16.22937550720462951, 0.4999999999999958922 ) ) ;
#228 = ORIENTED_EDGE ( 'NONE', *, *, #129, .T. ) ;
#229 = CARTESIAN_POINT ( 'NONE',  ( -20.34406326080698335, 18.72937550720463662, 9.500000000000000000 ) ) ;
#230 = DIRECTION ( 'NONE',  ( 1.000000000000000000, 0.000000000000000000, 0.000000000000000000 ) ) ;
#231 = DIRECTION ( 'NONE',  ( -0.000000000000000000, 0.000000000000000000, 1.000000000000000000 ) ) ;
#232 = ORIENTED_EDGE ( 'NONE', *, *, #822, .F. ) ;
#233 = CONICAL_SURFACE ( 'NONE', #720, 4.500000000000000888, 0.7853981633974473908 ) ;
#234 = PRODUCT_DEFINITION_SHAPE ( 'NONE', 'NONE',  #414 ) ;
#235 = EDGE_CURVE ( 'NONE', #469, #469, #1187, .T. ) ;
#236 = ORIENTED_EDGE ( 'NONE', *, *, #1200, .F. ) ;
#237 = CARTESIAN_POINT ( 'NONE',  ( 0.000000000000000000, -23.27062449279532075, 10.00000000000000000 ) ) ;
#238 = CARTESIAN_POINT ( 'NONE',  ( 19.65593673919302375, -18.27062449279532075, 9.500000000000000000 ) ) ;
#239 = CARTESIAN_POINT ( 'NONE',  ( 0.000000000000000000, 23.72937550720463662, 9.500000000000000000 ) ) ;
#240 = ORIENTED_EDGE ( 'NONE', *, *, #105, .T. ) ;
#241 = VERTEX_POINT ( 'NONE', #49 ) ;
#242 = EDGE_CURVE ( 'NONE', #241, #1001, #296, .T. ) ;
#243 = DIRECTION ( 'NONE',  ( 0.7071067811865474617, 0.000000000000000000, 0.7071067811865474617 ) ) ;
#244 = DIRECTION ( 'NONE',  ( 0.000000000000000000, -0.000000000000000000, -1.000000000000000000 ) ) ;
#245 = DIRECTION ( 'NONE',  ( 1.000000000000000000, 0.000000000000000000, 0.000000000000000000 ) ) ;
#246 = CIRCLE ( 'NONE', #776, 4.500000000000000888 ) ;
#247 = ORIENTED_EDGE ( 'NONE', *, *, #691, .T. ) ;
#248 = CONICAL_SURFACE ( 'NONE', #752, 1.749999999999994671, 0.7853981633974405074 ) ;
#249 = FACE_BOUND ( 'NONE', #872, .T. ) ;
#250 = DIRECTION ( 'NONE',  ( -1.000000000000000000, 0.000000000000000000, 0.000000000000000000 ) ) ;
#251 = ORIENTED_EDGE ( 'NONE', *, *, #671, .F. ) ;
#252 = FACE_OUTER_BOUND ( 'NONE', #802, .T. ) ;
#253 = DIRECTION ( 'NONE',  ( 1.000000000000000000, 0.000000000000000000, 0.000000000000000000 ) ) ;
#254 = EDGE_CURVE ( 'NONE', #1234, #1234, #5, .T. ) ;
#255 = VECTOR ( 'NONE', #443, 1000.000000000000000 ) ;
#256 = ORIENTED_EDGE ( 'NONE', *, *, #46, .F. ) ;
#257 = DIRECTION ( 'NONE',  ( 1.000000000000000000, 0.000000000000000000, 0.000000000000000000 ) ) ;
#258 = DIRECTION ( 'NONE',  ( -0.000000000000000000, -0.000000000000000000, 1.000000000000000000 ) ) ;
#259 = EDGE_LOOP ( 'NONE', ( #704 ) ) ;
#260 = CARTESIAN_POINT ( 'NONE',  ( -15.34406326080698157, 18.72937550720463662, 10.00000000000000000 ) ) ;
#261 = CLOSED_SHELL ( 'NONE', ( #858, #1016, #307, #759, #425, #217, #811, #114, #782, #1148, #333, #447, #1130, #356, #747, #1113, #1212, #58, #705, #773, #1216, #399, #345, #559, #496, #724, #63, #441, #919, #980, #164, #890, #184, #315, #911, #629, #418, #1025, #656, #536, #72, #972, #289, #846, #369, #1166, #37 ) ) ;
#262 = AXIS2_PLACEMENT_3D ( 'NONE', #1173, #881, #230 ) ;
#263 = DIRECTION ( 'NONE',  ( -0.000000000000000000, -0.000000000000000000, -1.000000000000000000 ) ) ;
#264 = AXIS2_PLACEMENT_3D ( 'NONE', #847, #124, #98 ) ;
#265 = EDGE_LOOP ( 'NONE', ( #564 ) ) ;
#266 = DIRECTION ( 'NONE',  ( 1.000000000000000000, 0.000000000000000000, 0.000000000000000000 ) ) ;
#267 = EDGE_CURVE ( 'NONE', #568, #43, #587, .T. ) ;
#268 = DIRECTION ( 'NONE',  ( 0.000000000000000000, 0.000000000000000000, 1.000000000000000000 ) ) ;
#269 = EDGE_LOOP ( 'NONE', ( #274 ) ) ;
#270 = DIRECTION ( 'NONE',  ( -0.000000000000000000, -0.000000000000000000, 1.000000000000000000 ) ) ;
#271 = CARTESIAN_POINT ( 'NONE',  ( -15.34406326080698157, 23.72937550720463662, 9.500000000000000000 ) ) ;
#272 = EDGE_CURVE ( 'NONE', #1039, #1059, #646, .T. ) ;
#273 = CARTESIAN_POINT ( 'NONE',  ( 0.000000000000000000, -23.27062449279532075, 0.5000000000000073275 ) ) ;
#274 = ORIENTED_EDGE ( 'NONE', *, *, #406, .T. ) ;
#275 = DIRECTION ( 'NONE',  ( -0.000000000000000000, -0.000000000000000000, -1.000000000000000000 ) ) ;
#276 = CARTESIAN_POINT ( 'NONE',  ( 19.15593673919302375, 0.000000000000000000, 0.000000000000000000 ) ) ;
#277 = VERTEX_POINT ( 'NONE', #753 ) ;
#278 = AXIS2_PLACEMENT_3D ( 'NONE', #669, #1161, #205 ) ;
#279 = DIRECTION ( 'NONE',  ( -1.000000000000000000, 0.000000000000000000, 0.000000000000000000 ) ) ;
#280 = AXIS2_PLACEMENT_3D ( 'NONE', #1062, #95, #660 ) ;
#281 = VECTOR ( 'NONE', #200, 1000.000000000000000 ) ;
#282 = EDGE_CURVE ( 'NONE', #497, #298, #1037, .T. ) ;
#283 = ORIENTED_EDGE ( 'NONE', *, *, #832, .F. ) ;
#284 = FACE_BOUND ( 'NONE', #201, .T. ) ;
#285 = VERTEX_POINT ( 'NONE', #388 ) ;
#286 = DIRECTION ( 'NONE',  ( 1.000000000000000000, 0.000000000000000000, 0.000000000000000000 ) ) ;
#287 = DIRECTION ( 'NONE',  ( 1.000000000000000000, 0.000000000000000000, 0.000000000000000000 ) ) ;
#288 = ORIENTED_EDGE ( 'NONE', *, *, #792, .F. ) ;
#289 = ADVANCED_FACE ( 'NONE', ( #757 ), #180, .F. ) ;
#290 = DIRECTION ( 'NONE',  ( 1.000000000000000000, 0.000000000000000000, 0.000000000000000000 ) ) ;
#291 = VERTEX_POINT ( 'NONE', #947 ) ;
#292 = ORIENTED_EDGE ( 'NONE', *, *, #840, .F. ) ;
#293 = CARTESIAN_POINT ( 'NONE',  ( 14.65593673919302375, 23.22937550720463662, 10.00000000000000000 ) ) ;
#294 = FACE_BOUND ( 'NONE', #864, .T. ) ;
#295 = ORIENTED_EDGE ( 'NONE', *, *, #900, .T. ) ;
#296 = LINE ( 'NONE', #967, #385 ) ;
#297 = CARTESIAN_POINT ( 'NONE',  ( -15.34406326080698157, 23.72937550720463662, 9.500000000000000000 ) ) ;
#298 = VERTEX_POINT ( 'NONE', #308 ) ;
#299 =( LENGTH_UNIT ( ) NAMED_UNIT ( * ) SI_UNIT ( .MILLI., .METRE. ) );
#300 = AXIS2_PLACEMENT_3D ( 'NONE', #99, #1054, #197 ) ;
#301 = DIRECTION ( 'NONE',  ( 1.000000000000000000, 0.000000000000000000, 0.000000000000000000 ) ) ;
#302 = EDGE_LOOP ( 'NONE', ( #522 ) ) ;
#303 = CIRCLE ( 'NONE', #876, 18.12741699796950812 ) ;
#304 = AXIS2_PLACEMENT_3D ( 'NONE', #758, #583, #286 ) ;
#305 = CARTESIAN_POINT ( 'NONE',  ( 0.000000000000000000, -23.27062449279532075, 0.5000000000000073275 ) ) ;
#306 = ORIENTED_EDGE ( 'NONE', *, *, #457, .F. ) ;
#307 = ADVANCED_FACE ( 'NONE', ( #707 ), #594, .F. ) ;
#308 = CARTESIAN_POINT ( 'NONE',  ( -15.34406326080698157, -23.27062449279532075, 9.500000000000000000 ) ) ;
#309 = LINE ( 'NONE', #685, #963 ) ;
#310 = VERTEX_POINT ( 'NONE', #335 ) ;
#311 = CARTESIAN_POINT ( 'NONE',  ( 17.40593673919300954, 16.22937550720462951, 10.00000000000000000 ) ) ;
#312 = ORIENTED_EDGE ( 'NONE', *, *, #1230, .F. ) ;
#313 = DIRECTION ( 'NONE',  ( 0.000000000000000000, 0.000000000000000000, 1.000000000000000000 ) ) ;
#314 = DIRECTION ( 'NONE',  ( 1.000000000000000000, 0.000000000000000000, 0.000000000000000000 ) ) ;
#315 = ADVANCED_FACE ( 'NONE', ( #150, #790 ), #855, .F. ) ;
#316 = CARTESIAN_POINT ( 'NONE',  ( -16.34406326080697980, -15.77062449279534384, 0.000000000000000000 ) ) ;
#317 = EDGE_LOOP ( 'NONE', ( #185, #613, #1033, #251 ) ) ;
#318 = VERTEX_POINT ( 'NONE', #805 ) ;
#319 = ORIENTED_EDGE ( 'NONE', *, *, #574, .F. ) ;
#320 = DIRECTION ( 'NONE',  ( 1.000000000000000000, 0.000000000000000000, 0.000000000000000000 ) ) ;
#321 = FACE_OUTER_BOUND ( 'NONE', #973, .T. ) ;
#322 = EDGE_CURVE ( 'NONE', #510, #573, #695, .T. ) ;
#323 = DIRECTION ( 'NONE',  ( 0.000000000000000000, 0.7071067811865425767, 0.7071067811865525687 ) ) ;
#324 = ORIENTED_EDGE ( 'NONE', *, *, #384, .T. ) ;
#325 = EDGE_CURVE ( 'NONE', #97, #97, #6, .T. ) ;
#326 = AXIS2_PLACEMENT_3D ( 'NONE', #957, #745, #290 ) ;
#327 = AXIS2_PLACEMENT_3D ( 'NONE', #610, #151, #435 ) ;
#328 = AXIS2_PLACEMENT_3D ( 'NONE', #32, #313, #320 ) ;
#329 = EDGE_LOOP ( 'NONE', ( #491, #8, #1128, #608 ) ) ;
#330 = FACE_BOUND ( 'NONE', #924, .T. ) ;
#331 = CARTESIAN_POINT ( 'NONE',  ( 14.65593673919302375, 23.72937550720463662, 9.500000000000000000 ) ) ;
#332 = EDGE_LOOP ( 'NONE', ( #107 ) ) ;
#333 = ADVANCED_FACE ( 'NONE', ( #796, #1101 ), #38, .F. ) ;
#334 = EDGE_LOOP ( 'NONE', ( #1195, #12, #76, #507 ) ) ;
#335 = CARTESIAN_POINT ( 'NONE',  ( 19.65593673919302375, 18.72937550720463662, 0.5000000000000073275 ) ) ;
#336 = PLANE ( 'NONE',  #4 ) ;
#337 = DIRECTION ( 'NONE',  ( 1.000000000000000000, 0.000000000000000000, 0.000000000000000000 ) ) ;
#338 = EDGE_LOOP ( 'NONE', ( #306 ) ) ;
#339 = PLANE ( 'NONE',  #524 ) ;
#340 = CARTESIAN_POINT ( 'NONE',  ( 14.65593673919302020, 20.22937550720466149, 9.500000000000017764 ) ) ;
#341 = AXIS2_PLACEMENT_3D ( 'NONE', #1169, #203, #971 ) ;
#342 = CIRCLE ( 'NONE', #914, 1.749999999999987566 ) ;
#343 = CIRCLE ( 'NONE', #1044, 18.62741699796951167 ) ;
#344 = DIRECTION ( 'NONE',  ( -0.000000000000000000, -0.000000000000000000, -1.000000000000000000 ) ) ;
#345 = ADVANCED_FACE ( 'NONE', ( #1089 ), #783, .T. ) ;
#346 = DIRECTION ( 'NONE',  ( 1.000000000000000000, 0.000000000000000000, 0.000000000000000000 ) ) ;
#347 = CIRCLE ( 'NONE', #991, 1.749999999999994671 ) ;
#348 = DIRECTION ( 'NONE',  ( -0.000000000000000000, -0.000000000000000000, -1.000000000000000000 ) ) ;
#349 = DIRECTION ( 'NONE',  ( -0.000000000000000000, 0.000000000000000000, 1.000000000000000000 ) ) ;
#350 = EDGE_CURVE ( 'NONE', #579, #893, #215, .T. ) ;
#351 = DIRECTION ( 'NONE',  ( -0.000000000000000000, 0.000000000000000000, 1.000000000000000000 ) ) ;
#352 = CARTESIAN_POINT ( 'NONE',  ( -15.34406326080698157, 18.72937550720463662, 0.000000000000000000 ) ) ;
#353 = DIRECTION ( 'NONE',  ( 1.000000000000000000, 0.000000000000000000, 0.000000000000000000 ) ) ;
#354 = EDGE_CURVE ( 'NONE', #901, #570, #998, .T. ) ;
#355 = ORIENTED_EDGE ( 'NONE', *, *, #1013, .F. ) ;
#356 = ADVANCED_FACE ( 'NONE', ( #976 ), #904, .T. ) ;
#357 = ORIENTED_EDGE ( 'NONE', *, *, #878, .F. ) ;
#358 = VECTOR ( 'NONE', #243, 1000.000000000000114 ) ;
#359 = AXIS2_PLACEMENT_3D ( 'NONE', #396, #24, #948 ) ;
#360 = DIRECTION ( 'NONE',  ( 0.000000000000000000, 0.000000000000000000, 1.000000000000000000 ) ) ;
#361 = AXIS2_PLACEMENT_3D ( 'NONE', #419, #158, #801 ) ;
#362 = VECTOR ( 'NONE', #664, 1000.000000000000000 ) ;
#363 = CIRCLE ( 'NONE', #1088, 1.250000000000001110 ) ;
#364 = DIRECTION ( 'NONE',  ( 0.000000000000000000, 1.000000000000000000, 0.000000000000000000 ) ) ;
#365 = AXIS2_PLACEMENT_3D ( 'NONE', #464, #74, #253 ) ;
#366 = EDGE_LOOP ( 'NONE', ( #588, #1193, #769, #1080 ) ) ;
#367 = FACE_BOUND ( 'NONE', #533, .T. ) ;
#368 = DIRECTION ( 'NONE',  ( -1.000000000000000000, 0.000000000000000000, 0.000000000000000000 ) ) ;
#369 = ADVANCED_FACE ( 'NONE', ( #137, #60 ), #714, .F. ) ;
#370 = FACE_OUTER_BOUND ( 'NONE', #119, .T. ) ;
#371 = CARTESIAN_POINT ( 'NONE',  ( -0.3440632608069787990, 0.2293755072046432808, 0.5000000000000038858 ) ) ;
#372 = ORIENTED_EDGE ( 'NONE', *, *, #946, .T. ) ;
#373 = CARTESIAN_POINT ( 'NONE',  ( 14.65593673919302375, -18.27062449279532075, 9.500000000000000000 ) ) ;
#374 = UNCERTAINTY_MEASURE_WITH_UNIT (LENGTH_MEASURE( 1.000000000000000082E-05 ), #380, 'distance_accuracy_value', 'NONE');
#375 = VERTEX_POINT ( 'NONE', #1136 ) ;
#376 = DIRECTION ( 'NONE',  ( 0.000000000000000000, -0.000000000000000000, -1.000000000000000000 ) ) ;
#377 = EDGE_LOOP ( 'NONE', ( #136 ) ) ;
#378 = CARTESIAN_POINT ( 'NONE',  ( 14.65593673919302375, 23.72937550720463662, 0.5000000000000073275 ) ) ;
#379 = CARTESIAN_POINT ( 'NONE',  ( 15.65593673919302198, -15.77062449279534384, 9.500000000000017764 ) ) ;
#380 =( LENGTH_UNIT ( ) NAMED_UNIT ( * ) SI_UNIT ( .MILLI., .METRE. ) );
#381 = AXIS2_PLACEMENT_3D ( 'NONE', #2, #502, #787 ) ;
#382 = LINE ( 'NONE', #569, #1124 ) ;
#383 = VECTOR ( 'NONE', #1111, 1000.000000000000000 ) ;
#384 = EDGE_CURVE ( 'NONE', #389, #310, #689, .T. ) ;
#385 = VECTOR ( 'NONE', #865, 1000.000000000000114 ) ;
#386 = FACE_OUTER_BOUND ( 'NONE', #775, .T. ) ;
#387 = ORIENTED_EDGE ( 'NONE', *, *, #546, .T. ) ;
#388 = CARTESIAN_POINT ( 'NONE',  ( -14.59406326080697092, 16.22937550720462951, 0.000000000000000000 ) ) ;
#389 = VERTEX_POINT ( 'NONE', #498 ) ;
#390 = VECTOR ( 'NONE', #323, 999.9999999999998863 ) ;
#391 = PLANE ( 'NONE',  #359 ) ;
#392 = EDGE_LOOP ( 'NONE', ( #1186 ) ) ;
#393 = FACE_OUTER_BOUND ( 'NONE', #879, .T. ) ;
#394 = LINE ( 'NONE', #1145, #1206 ) ;
#395 = ORIENTED_EDGE ( 'NONE', *, *, #490, .T. ) ;
#396 = CARTESIAN_POINT ( 'NONE',  ( 19.65593673919302375, 0.000000000000000000, 10.00000000000000000 ) ) ;
#397 = DIRECTION ( 'NONE',  ( 0.000000000000000000, 0.000000000000000000, 1.000000000000000000 ) ) ;
#398 = VERTEX_POINT ( 'NONE', #874 ) ;
#399 = ADVANCED_FACE ( 'NONE', ( #409 ), #674, .T. ) ;
#400 = CARTESIAN_POINT ( 'NONE',  ( 14.65593673919302375, 23.22937550720463662, 0.000000000000000000 ) ) ;
#401 = ORIENTED_EDGE ( 'NONE', *, *, #129, .F. ) ;
#402 = CIRCLE ( 'NONE', #1185, 1.750000000000008438 ) ;
#403 = AXIS2_PLACEMENT_3D ( 'NONE', #476, #17, #279 ) ;
#404 = ORIENTED_EDGE ( 'NONE', *, *, #1049, .T. ) ;
#405 = VECTOR ( 'NONE', #821, 1000.000000000000114 ) ;
#406 = EDGE_CURVE ( 'NONE', #291, #291, #527, .T. ) ;
#407 = VERTEX_POINT ( 'NONE', #430 ) ;
#408 = VERTEX_POINT ( 'NONE', #125 ) ;
#409 = FACE_OUTER_BOUND ( 'NONE', #471, .T. ) ;
#410 = CARTESIAN_POINT ( 'NONE',  ( 14.65593673919302375, 18.72937550720463662, 0.000000000000000000 ) ) ;
#411 = CARTESIAN_POINT ( 'NONE',  ( -15.34406326080698157, -18.27062449279532075, 0.000000000000000000 ) ) ;
#412 = ORIENTED_EDGE ( 'NONE', *, *, #767, .T. ) ;
#413 = ORIENTED_EDGE ( 'NONE', *, *, #822, .T. ) ;
#414 = PRODUCT_DEFINITION ( 'UNKNOWN', '', #917, #431 ) ;
#415 = LINE ( 'NONE', #807, #731 ) ;
#416 = DIRECTION ( 'NONE',  ( 0.000000000000000000, 1.000000000000000000, 0.000000000000000000 ) ) ;
#417 = DIRECTION ( 'NONE',  ( 1.000000000000000000, 0.000000000000000000, 0.000000000000000000 ) ) ;
#418 = ADVANCED_FACE ( 'NONE', ( #386 ), #1008, .T. ) ;
#419 = CARTESIAN_POINT ( 'NONE',  ( 0.000000000000000000, 23.22937550720463662, 0.000000000000000000 ) ) ;
#420 = ORIENTED_EDGE ( 'NONE', *, *, #952, .F. ) ;
#421 = ORIENTED_EDGE ( 'NONE', *, *, #322, .T. ) ;
#422 = DIRECTION ( 'NONE',  ( 1.000000000000000000, 0.000000000000000000, 0.000000000000000000 ) ) ;
#423 = CARTESIAN_POINT ( 'NONE',  ( 15.65593673919302198, 16.22937550720462951, 9.500000000000017764 ) ) ;
#424 = CARTESIAN_POINT ( 'NONE',  ( -16.34406326080697980, 16.22937550720462951, 0.000000000000000000 ) ) ;
#425 = ADVANCED_FACE ( 'NONE', ( #1155, #484, #190, #785, #10, #1175, #657, #563 ), #949, .T. ) ;
#426 = EDGE_LOOP ( 'NONE', ( #1002 ) ) ;
#427 = AXIS2_PLACEMENT_3D ( 'NONE', #508, #53, #880 ) ;
#428 = VECTOR ( 'NONE', #643, 1000.000000000000000 ) ;
#429 = CIRCLE ( 'NONE', #1121, 5.000000000000000888 ) ;
#430 = CARTESIAN_POINT ( 'NONE',  ( 16.90593673919302375, -15.77062449279534384, 0.4999999999999958922 ) ) ;
#431 = PRODUCT_DEFINITION_CONTEXT ( 'detailed design', #73, 'design' ) ;
#432 = ORIENTED_EDGE ( 'NONE', *, *, #1079, .F. ) ;
#433 = AXIS2_PLACEMENT_3D ( 'NONE', #825, #1027, #181 ) ;
#434 = DIRECTION ( 'NONE',  ( 0.000000000000000000, -0.000000000000000000, 1.000000000000000000 ) ) ;
#435 = DIRECTION ( 'NONE',  ( 1.000000000000000000, 0.000000000000000000, 0.000000000000000000 ) ) ;
#436 = DIRECTION ( 'NONE',  ( 1.000000000000000000, 0.000000000000000000, 0.000000000000000000 ) ) ;
#437 = VERTEX_POINT ( 'NONE', #765 ) ;
#438 = DIRECTION ( 'NONE',  ( 0.000000000000000000, -0.000000000000000000, 1.000000000000000000 ) ) ;
#439 = DIRECTION ( 'NONE',  ( 0.000000000000000000, -0.000000000000000000, 1.000000000000000000 ) ) ;
#440 = CARTESIAN_POINT ( 'NONE',  ( 14.65593673919302375, -18.27062449279532075, 0.000000000000000000 ) ) ;
#441 = ADVANCED_FACE ( 'NONE', ( #771, #294 ), #818, .F. ) ;
#442 = FACE_OUTER_BOUND ( 'NONE', #688, .T. ) ;
#443 = DIRECTION ( 'NONE',  ( 1.000000000000000000, 0.000000000000000000, 0.000000000000000000 ) ) ;
#444 = AXIS2_PLACEMENT_3D ( 'NONE', #672, #1036, #774 ) ;
#445 = VECTOR ( 'NONE', #744, 999.9999999999998863 ) ;
#446 = AXIS2_PLACEMENT_3D ( 'NONE', #379, #653, #179 ) ;
#447 = ADVANCED_FACE ( 'NONE', ( #578, #115 ), #489, .F. ) ;
#448 = DIRECTION ( 'NONE',  ( 0.000000000000000000, 0.000000000000000000, 1.000000000000000000 ) ) ;
#449 = DIRECTION ( 'NONE',  ( 0.000000000000000000, 0.000000000000000000, 1.000000000000000000 ) ) ;
#450 = CARTESIAN_POINT ( 'NONE',  ( -15.34406326080698157, 18.72937550720463662, 9.500000000000000000 ) ) ;
#451 = CARTESIAN_POINT ( 'NONE',  ( 14.65593673919302375, -18.27062449279532075, 10.00000000000000000 ) ) ;
#452 = EDGE_CURVE ( 'NONE', #861, #1001, #1083, .T. ) ;
#453 = VERTEX_POINT ( 'NONE', #1181 ) ;
#454 = ORIENTED_EDGE ( 'NONE', *, *, #1204, .F. ) ;
#455 = DIRECTION ( 'NONE',  ( 1.000000000000000000, 0.000000000000000000, 0.000000000000000000 ) ) ;
#456 = CARTESIAN_POINT ( 'NONE',  ( -15.34406326080698157, 18.72937550720463662, 10.00000000000000000 ) ) ;
#457 = EDGE_CURVE ( 'NONE', #841, #841, #734, .T. ) ;
#458 = ORIENTED_EDGE ( 'NONE', *, *, #625, .T. ) ;
#459 = VERTEX_POINT ( 'NONE', #535 ) ;
#460 = VECTOR ( 'NONE', #258, 1000.000000000000000 ) ;
#461 = DIRECTION ( 'NONE',  ( 0.000000000000000000, 0.000000000000000000, 1.000000000000000000 ) ) ;
#462 = CONICAL_SURFACE ( 'NONE', #1207, 18.62741699796950812, 0.7853981633974412846 ) ;
#463 = CONICAL_SURFACE ( 'NONE', #183, 1.749999999999994671, 0.7853981633974457255 ) ;
#464 = CARTESIAN_POINT ( 'NONE',  ( -16.34406326080697980, 16.22937550720462951, 0.5000000000000166533 ) ) ;
#465 = CIRCLE ( 'NONE', #1005, 1.749999999999987566 ) ;
#466 = ORIENTED_EDGE ( 'NONE', *, *, #740, .F. ) ;
#467 = DIRECTION ( 'NONE',  ( 0.000000000000000000, 0.000000000000000000, -1.000000000000000000 ) ) ;
#468 = FACE_BOUND ( 'NONE', #41, .T. ) ;
#469 = VERTEX_POINT ( 'NONE', #581 ) ;
#470 = FACE_OUTER_BOUND ( 'NONE', #512, .T. ) ;
#471 = EDGE_LOOP ( 'NONE', ( #954, #730, #177, #31 ) ) ;
#472 = LINE ( 'NONE', #549, #225 ) ;
#473 = DIRECTION ( 'NONE',  ( 1.000000000000000000, 0.000000000000000000, 0.000000000000000000 ) ) ;
#474 = EDGE_CURVE ( 'NONE', #7, #7, #906, .T. ) ;
#475 = CARTESIAN_POINT ( 'NONE',  ( 15.90593673919302198, 20.22937550720466149, 0.4999999999999958922 ) ) ;
#476 = CARTESIAN_POINT ( 'NONE',  ( 14.65593673919302375, -18.27062449279532075, 10.00000000000000000 ) ) ;
#477 = ORIENTED_EDGE ( 'NONE', *, *, #96, .T. ) ;
#478 = VERTEX_POINT ( 'NONE', #1159 ) ;
#479 = EDGE_LOOP ( 'NONE', ( #962 ) ) ;
#480 = EDGE_CURVE ( 'NONE', #1055, #80, #910, .T. ) ;
#481 = FACE_BOUND ( 'NONE', #1139, .T. ) ;
#482 = VECTOR ( 'NONE', #1210, 999.9999999999998863 ) ;
#483 = VECTOR ( 'NONE', #1068, 999.9999999999998863 ) ;
#484 = FACE_BOUND ( 'NONE', #813, .T. ) ;
#485 = ORIENTED_EDGE ( 'NONE', *, *, #1158, .F. ) ;
#486 = AXIS2_PLACEMENT_3D ( 'NONE', #1220, #449, #175 ) ;
#487 = CARTESIAN_POINT ( 'NONE',  ( -15.09406326080697980, -15.77062449279534384, 0.5000000000000029976 ) ) ;
#488 = EDGE_LOOP ( 'NONE', ( #19 ) ) ;
#489 = CYLINDRICAL_SURFACE ( 'NONE', #55, 1.249999999999999334 ) ;
#490 = EDGE_CURVE ( 'NONE', #781, #116, #1098, .T. ) ;
#491 = ORIENTED_EDGE ( 'NONE', *, *, #282, .T. ) ;
#492 = CARTESIAN_POINT ( 'NONE',  ( -20.34406326080698335, 18.72937550720463662, 10.00000000000000000 ) ) ;
#493 = ORIENTED_EDGE ( 'NONE', *, *, #1117, .T. ) ;
#494 = CARTESIAN_POINT ( 'NONE',  ( 14.65593673919302375, -23.27062449279532075, 0.5000000000000073275 ) ) ;
#495 = EDGE_LOOP ( 'NONE', ( #1152 ) ) ;
#496 = ADVANCED_FACE ( 'NONE', ( #139 ), #233, .T. ) ;
#497 = VERTEX_POINT ( 'NONE', #891 ) ;
#498 = CARTESIAN_POINT ( 'NONE',  ( 19.15593673919302375, 18.72937550720463662, 0.000000000000000000 ) ) ;
#499 = DIRECTION ( 'NONE',  ( -1.000000000000000000, 0.000000000000000000, 0.000000000000000000 ) ) ;
#500 = AXIS2_PLACEMENT_3D ( 'NONE', #1120, #823, #346 ) ;
#501 = ORIENTED_EDGE ( 'NONE', *, *, #1174, .T. ) ;
#502 = DIRECTION ( 'NONE',  ( -0.000000000000000000, 0.000000000000000000, 1.000000000000000000 ) ) ;
#503 = VECTOR ( 'NONE', #630, 1000.000000000000114 ) ;
#504 = VECTOR ( 'NONE', #567, 1000.000000000000000 ) ;
#505 = CARTESIAN_POINT ( 'NONE',  ( 17.40593673919300954, -15.77062449279534384, 10.00000000000000000 ) ) ;
#506 = EDGE_CURVE ( 'NONE', #375, #375, #347, .T. ) ;
#507 = ORIENTED_EDGE ( 'NONE', *, *, #96, .F. ) ;
#508 = CARTESIAN_POINT ( 'NONE',  ( 14.65593673919302020, 20.22937550720466149, 0.4999999999999958922 ) ) ;
#509 = CARTESIAN_POINT ( 'NONE',  ( -0.3440632608069787990, 0.2293755072046432808, 10.00000000000000000 ) ) ;
#510 = VERTEX_POINT ( 'NONE', #597 ) ;
#511 = VERTEX_POINT ( 'NONE', #687 ) ;
#512 = EDGE_LOOP ( 'NONE', ( #877, #694, #517, #827 ) ) ;
#513 = EDGE_CURVE ( 'NONE', #277, #277, #1129, .T. ) ;
#514 = DIRECTION ( 'NONE',  ( -0.000000000000000000, -0.000000000000000000, -1.000000000000000000 ) ) ;
#515 = CARTESIAN_POINT ( 'NONE',  ( 19.65593673919302375, -18.27062449279532075, 10.00000000000000000 ) ) ;
#516 = CARTESIAN_POINT ( 'NONE',  ( -20.34406326080698335, -18.27062449279532075, 0.5000000000000073275 ) ) ;
#517 = ORIENTED_EDGE ( 'NONE', *, *, #154, .F. ) ;
#518 = ORIENTED_EDGE ( 'NONE', *, *, #88, .T. ) ;
#519 = CARTESIAN_POINT ( 'NONE',  ( -15.34406326080698157, -23.27062449279532075, 0.5000000000000073275 ) ) ;
#520 = DIRECTION ( 'NONE',  ( 0.000000000000000000, 0.000000000000000000, 1.000000000000000000 ) ) ;
#521 = DIRECTION ( 'NONE',  ( 1.000000000000000000, -0.000000000000000000, 0.000000000000000000 ) ) ;
#522 = ORIENTED_EDGE ( 'NONE', *, *, #700, .T. ) ;
#523 = VECTOR ( 'NONE', #123, 999.9999999999998863 ) ;
#524 = AXIS2_PLACEMENT_3D ( 'NONE', #220, #132, #439 ) ;
#525 = VECTOR ( 'NONE', #157, 1000.000000000000000 ) ;
#526 = EDGE_LOOP ( 'NONE', ( #155 ) ) ;
#527 = CIRCLE ( 'NONE', #146, 1.249999999999999334 ) ;
#528 = AXIS2_PLACEMENT_3D ( 'NONE', #647, #547, #69 ) ;
#529 = DIRECTION ( 'NONE',  ( 0.000000000000000000, 0.000000000000000000, 1.000000000000000000 ) ) ;
#530 = DIRECTION ( 'NONE',  ( 1.000000000000000000, 6.938893903907227392E-16, 0.000000000000000000 ) ) ;
#531 = DIRECTION ( 'NONE',  ( 0.000000000000000000, -1.000000000000000000, 0.000000000000000000 ) ) ;
#532 = EDGE_CURVE ( 'NONE', #995, #837, #604, .T. ) ;
#533 = EDGE_LOOP ( 'NONE', ( #112 ) ) ;
#534 = CARTESIAN_POINT ( 'NONE',  ( -15.34406326080698157, -18.27062449279532075, 0.5000000000000073275 ) ) ;
#535 = CARTESIAN_POINT ( 'NONE',  ( -15.34406326080698157, 23.22937550720463662, 10.00000000000000000 ) ) ;
#536 = ADVANCED_FACE ( 'NONE', ( #1012 ), #987, .T. ) ;
#537 = DIRECTION ( 'NONE',  ( 0.000000000000000000, -0.000000000000000000, -1.000000000000000000 ) ) ;
#538 = DIRECTION ( 'NONE',  ( 1.000000000000000000, 0.000000000000000000, 0.000000000000000000 ) ) ;
#539 = AXIS2_PLACEMENT_3D ( 'NONE', #237, #1003, #434 ) ;
#540 = EDGE_CURVE ( 'NONE', #285, #285, #402, .T. ) ;
#541 = CARTESIAN_POINT ( 'NONE',  ( 14.65593673919302375, -22.77062449279532075, 0.000000000000000000 ) ) ;
#542 = DIRECTION ( 'NONE',  ( 1.000000000000000000, 0.000000000000000000, 0.000000000000000000 ) ) ;
#543 = EDGE_LOOP ( 'NONE', ( #16 ) ) ;
#544 = VERTEX_POINT ( 'NONE', #994 ) ;
#545 = CARTESIAN_POINT ( 'NONE',  ( -15.34406326080698157, -18.27062449279532075, 0.000000000000000000 ) ) ;
#546 = EDGE_CURVE ( 'NONE', #1168, #995, #703, .T. ) ;
#547 = DIRECTION ( 'NONE',  ( -0.000000000000000000, -0.7071067811865475727, 0.7071067811865475727 ) ) ;
#548 = VERTEX_POINT ( 'NONE', #611 ) ;
#549 = CARTESIAN_POINT ( 'NONE',  ( 14.65593673919302375, -23.27062449279532075, 10.00000000000000000 ) ) ;
#550 = CYLINDRICAL_SURFACE ( 'NONE', #556, 5.000000000000000888 ) ;
#551 = CARTESIAN_POINT ( 'NONE',  ( 14.65593673919302375, 18.72937550720463662, 10.00000000000000000 ) ) ;
#552 = ORIENTED_EDGE ( 'NONE', *, *, #1085, .F. ) ;
#553 = AXIS2_PLACEMENT_3D ( 'NONE', #451, #923, #1019 ) ;
#554 = VERTEX_POINT ( 'NONE', #188 ) ;
#555 = AXIS2_PLACEMENT_3D ( 'NONE', #1023, #620, #1042 ) ;
#556 = AXIS2_PLACEMENT_3D ( 'NONE', #828, #1214, #722 ) ;
#557 = PLANE ( 'NONE',  #902 ) ;
#558 = ORIENTED_EDGE ( 'NONE', *, *, #1200, .T. ) ;
#559 = ADVANCED_FACE ( 'NONE', ( #793 ), #817, .F. ) ;
#560 = CARTESIAN_POINT ( 'NONE',  ( 14.65593673919302020, 20.22937550720466149, 9.500000000000017764 ) ) ;
#561 = CYLINDRICAL_SURFACE ( 'NONE', #444, 18.12741699796950812 ) ;
#562 = DIRECTION ( 'NONE',  ( 0.000000000000000000, -0.7071067811865474617, -0.7071067811865474617 ) ) ;
#563 = FACE_BOUND ( 'NONE', #488, .T. ) ;
#564 = ORIENTED_EDGE ( 'NONE', *, *, #1013, .T. ) ;
#565 = FACE_BOUND ( 'NONE', #794, .T. ) ;
#566 = EDGE_CURVE ( 'NONE', #762, #762, #465, .T. ) ;
#567 = DIRECTION ( 'NONE',  ( 0.000000000000000000, 0.000000000000000000, -1.000000000000000000 ) ) ;
#568 = VERTEX_POINT ( 'NONE', #810 ) ;
#569 = CARTESIAN_POINT ( 'NONE',  ( -20.34406326080698335, -18.27062449279532075, 10.00000000000000000 ) ) ;
#570 = VERTEX_POINT ( 'NONE', #709 ) ;
#571 = DIRECTION ( 'NONE',  ( -1.000000000000000000, 0.000000000000000000, 0.000000000000000000 ) ) ;
#572 = CARTESIAN_POINT ( 'NONE',  ( -15.09406326080697980, 16.22937550720462951, 0.5000000000000166533 ) ) ;
#573 = VERTEX_POINT ( 'NONE', #1103 ) ;
#574 = EDGE_CURVE ( 'NONE', #453, #1059, #246, .T. ) ;
#575 = AXIS2_PLACEMENT_3D ( 'NONE', #633, #626, #266 ) ;
#576 = DIRECTION ( 'NONE',  ( 0.7071067811865474617, 0.000000000000000000, -0.7071067811865474617 ) ) ;
#577 = CIRCLE ( 'NONE', #262, 1.749999999999987566 ) ;
#578 = FACE_OUTER_BOUND ( 'NONE', #173, .T. ) ;
#579 = VERTEX_POINT ( 'NONE', #727 ) ;
#580 = CIRCLE ( 'NONE', #831, 4.500000000000000888 ) ;
#581 = CARTESIAN_POINT ( 'NONE',  ( -14.09406326080697802, -19.77062449279532075, 0.5000000000000166533 ) ) ;
#582 = ORIENTED_EDGE ( 'NONE', *, *, #193, .T. ) ;
#583 = DIRECTION ( 'NONE',  ( 0.000000000000000000, 0.000000000000000000, 1.000000000000000000 ) ) ;
#584 = EDGE_CURVE ( 'NONE', #1057, #1057, #28, .T. ) ;
#585 = PRODUCT_CONTEXT ( 'NONE', #681, 'mechanical' ) ;
#586 = ORIENTED_EDGE ( 'NONE', *, *, #566, .T. ) ;
#587 = LINE ( 'NONE', #120, #483 ) ;
#588 = ORIENTED_EDGE ( 'NONE', *, *, #176, .F. ) ;
#589 = CARTESIAN_POINT ( 'NONE',  ( 19.15593673919302375, 18.72937550720463662, 0.000000000000000000 ) ) ;
#590 = FACE_OUTER_BOUND ( 'NONE', #981, .T. ) ;
#591 = DIRECTION ( 'NONE',  ( 0.000000000000000000, 0.000000000000000000, 1.000000000000000000 ) ) ;
#592 = ORIENTED_EDGE ( 'NONE', *, *, #792, .T. ) ;
#593 = ORIENTED_EDGE ( 'NONE', *, *, #325, .T. ) ;
#594 = PLANE ( 'NONE',  #539 ) ;
#595 = CARTESIAN_POINT ( 'NONE',  ( -15.34406326080698157, -18.27062449279532075, 9.500000000000000000 ) ) ;
#596 = AXIS2_PLACEMENT_3D ( 'NONE', #797, #702, #1097 ) ;
#597 = CARTESIAN_POINT ( 'NONE',  ( -15.34406326080698157, -23.27062449279532075, 0.5000000000000073275 ) ) ;
#598 = ORIENTED_EDGE ( 'NONE', *, *, #1138, .T. ) ;
#599 = VECTOR ( 'NONE', #641, 1000.000000000000000 ) ;
#600 = EDGE_CURVE ( 'NONE', #437, #241, #798, .T. ) ;
#601 = ORIENTED_EDGE ( 'NONE', *, *, #636, .T. ) ;
#602 = CARTESIAN_POINT ( 'NONE',  ( 14.65593673919302375, 18.72937550720463662, 10.00000000000000000 ) ) ;
#603 = DIRECTION ( 'NONE',  ( 1.000000000000000000, 0.000000000000000000, 0.000000000000000000 ) ) ;
#604 = LINE ( 'NONE', #331, #896 ) ;
#605 = ORIENTED_EDGE ( 'NONE', *, *, #322, .F. ) ;
#606 = DIRECTION ( 'NONE',  ( 1.000000000000000000, 0.000000000000000000, 0.000000000000000000 ) ) ;
#607 = PRODUCT_RELATED_PRODUCT_CATEGORY ( 'part', '', ( #79 ) ) ;
#608 = ORIENTED_EDGE ( 'NONE', *, *, #193, .F. ) ;
#609 = CARTESIAN_POINT ( 'NONE',  ( 15.65593673919302198, -15.77062449279534384, 0.000000000000000000 ) ) ;
#610 = CARTESIAN_POINT ( 'NONE',  ( -15.34406326080697802, -19.77062449279532075, 9.500000000000015987 ) ) ;
#611 = CARTESIAN_POINT ( 'NONE',  ( 19.15593673919302375, 18.72937550720463662, 10.00000000000000000 ) ) ;
#612 = ORIENTED_EDGE ( 'NONE', *, *, #1085, .T. ) ;
#613 = ORIENTED_EDGE ( 'NONE', *, *, #452, .F. ) ;
#614 = CARTESIAN_POINT ( 'NONE',  ( 14.65593673919302375, 18.72937550720463662, 0.000000000000000000 ) ) ;
#615 = EDGE_CURVE ( 'NONE', #310, #861, #628, .T. ) ;
#616 = DIRECTION ( 'NONE',  ( 0.000000000000000000, -0.000000000000000000, -1.000000000000000000 ) ) ;
#617 = CONICAL_SURFACE ( 'NONE', #327, 1.249999999999999334, 0.7853981633974516097 ) ;
#618 = VECTOR ( 'NONE', #187, 1000.000000000000000 ) ;
#619 = CIRCLE ( 'NONE', #652, 1.249999999999999334 ) ;
#620 = DIRECTION ( 'NONE',  ( 0.000000000000000000, 0.000000000000000000, -1.000000000000000000 ) ) ;
#621 = ORIENTED_EDGE ( 'NONE', *, *, #615, .T. ) ;
#622 = CIRCLE ( 'NONE', #90, 1.250000000000001110 ) ;
#623 = CARTESIAN_POINT ( 'NONE',  ( -16.34406326080697980, -15.77062449279534384, 0.000000000000000000 ) ) ;
#624 = DIRECTION ( 'NONE',  ( 0.000000000000000000, -0.7071067811865474617, 0.7071067811865474617 ) ) ;
#625 = EDGE_CURVE ( 'NONE', #570, #398, #169, .T. ) ;
#626 = DIRECTION ( 'NONE',  ( -0.000000000000000000, 0.000000000000000000, 1.000000000000000000 ) ) ;
#627 = FACE_OUTER_BOUND ( 'NONE', #191, .T. ) ;
#628 = LINE ( 'NONE', #92, #460 ) ;
#629 = ADVANCED_FACE ( 'NONE', ( #470 ), #836, .T. ) ;
#630 = DIRECTION ( 'NONE',  ( 0.7071067811865474617, 0.000000000000000000, 0.7071067811865474617 ) ) ;
#631 = DIRECTION ( 'NONE',  ( -1.000000000000000000, 0.000000000000000000, 0.000000000000000000 ) ) ;
#632 = DIRECTION ( 'NONE',  ( 0.000000000000000000, 0.7071067811865524577, 0.7071067811865425767 ) ) ;
#633 = CARTESIAN_POINT ( 'NONE',  ( 14.65593673919302020, 20.22937550720466149, 0.000000000000000000 ) ) ;
#634 = AXIS2_PLACEMENT_3D ( 'NONE', #1184, #213, #606 ) ;
#635 = AXIS2_PLACEMENT_3D ( 'NONE', #894, #54, #809 ) ;
#636 = EDGE_CURVE ( 'NONE', #111, #111, #1041, .T. ) ;
#637 = DIRECTION ( 'NONE',  ( 0.000000000000000000, 0.000000000000000000, -1.000000000000000000 ) ) ;
#638 = CIRCLE ( 'NONE', #804, 4.500000000000000888 ) ;
#639 = DIRECTION ( 'NONE',  ( 1.000000000000000000, 0.000000000000000000, 0.000000000000000000 ) ) ;
#640 = EDGE_LOOP ( 'NONE', ( #586 ) ) ;
#641 = DIRECTION ( 'NONE',  ( 0.000000000000000000, 0.000000000000000000, -1.000000000000000000 ) ) ;
#642 = CARTESIAN_POINT ( 'NONE',  ( -20.34406326080698335, 0.000000000000000000, 10.00000000000000000 ) ) ;
#643 = DIRECTION ( 'NONE',  ( 0.000000000000000000, -1.000000000000000000, 0.000000000000000000 ) ) ;
#644 = ORIENTED_EDGE ( 'NONE', *, *, #134, .T. ) ;
#645 = DIRECTION ( 'NONE',  ( 0.000000000000000000, 0.000000000000000000, -1.000000000000000000 ) ) ;
#646 = LINE ( 'NONE', #494, #1022 ) ;
#647 = CARTESIAN_POINT ( 'NONE',  ( 0.000000000000000000, -22.77062449279532075, 10.00000000000000000 ) ) ;
#648 = EDGE_CURVE ( 'NONE', #459, #570, #675, .T. ) ;
#649 = EDGE_LOOP ( 'NONE', ( #1162 ) ) ;
#650 = DIRECTION ( 'NONE',  ( -0.000000000000000000, -0.000000000000000000, -1.000000000000000000 ) ) ;
#651 = AXIS2_PLACEMENT_3D ( 'NONE', #1077, #514, #888 ) ;
#652 = AXIS2_PLACEMENT_3D ( 'NONE', #138, #33, #417 ) ;
#653 = DIRECTION ( 'NONE',  ( 0.000000000000000000, 0.000000000000000000, 1.000000000000000000 ) ) ;
#654 = AXIS2_PLACEMENT_3D ( 'NONE', #534, #1026, #174 ) ;
#655 =( NAMED_UNIT ( * ) SI_UNIT ( $, .STERADIAN. ) SOLID_ANGLE_UNIT ( ) );
#656 = ADVANCED_FACE ( 'NONE', ( #1032 ), #557, .F. ) ;
#657 = FACE_BOUND ( 'NONE', #640, .T. ) ;
#658 = EDGE_LOOP ( 'NONE', ( #412, #1084, #1229, #48 ) ) ;
#659 = FACE_BOUND ( 'NONE', #1081, .T. ) ;
#660 = DIRECTION ( 'NONE',  ( 1.000000000000000000, 0.000000000000000000, 0.000000000000000000 ) ) ;
#661 = DIRECTION ( 'NONE',  ( 0.000000000000000000, 1.000000000000000000, 0.000000000000000000 ) ) ;
#662 = CARTESIAN_POINT ( 'NONE',  ( 15.65593673919302198, -15.77062449279534384, 0.4999999999999958922 ) ) ;
#663 = ORIENTED_EDGE ( 'NONE', *, *, #254, .T. ) ;
#664 = DIRECTION ( 'NONE',  ( 0.000000000000000000, 0.000000000000000000, -1.000000000000000000 ) ) ;
#665 = EDGE_CURVE ( 'NONE', #860, #860, #715, .T. ) ;
#666 = CARTESIAN_POINT ( 'NONE',  ( -13.59406326080699046, -19.77062449279532075, 10.00000000000000000 ) ) ;
#667 = EDGE_LOOP ( 'NONE', ( #859, #160, #856, #466 ) ) ;
#668 = CARTESIAN_POINT ( 'NONE',  ( -16.34406326080697980, 16.22937550720462951, 0.000000000000000000 ) ) ;
#669 = CARTESIAN_POINT ( 'NONE',  ( 15.65593673919302198, -15.77062449279534384, 9.500000000000017764 ) ) ;
#670 = ORIENTED_EDGE ( 'NONE', *, *, #840, .T. ) ;
#671 = EDGE_CURVE ( 'NONE', #241, #548, #913, .T. ) ;
#672 = CARTESIAN_POINT ( 'NONE',  ( -0.3440632608069787990, 0.2293755072046432808, 0.000000000000000000 ) ) ;
#673 = EDGE_LOOP ( 'NONE', ( #975 ) ) ;
#674 = CONICAL_SURFACE ( 'NONE', #127, 4.500000000000000888, 0.7853981633974473908 ) ;
#675 = CIRCLE ( 'NONE', #1107, 4.500000000000000888 ) ;
#676 = AXIS2_PLACEMENT_3D ( 'NONE', #882, #738, #1035 ) ;
#677 = CYLINDRICAL_SURFACE ( 'NONE', #403, 5.000000000000000888 ) ;
#678 = AXIS2_PLACEMENT_3D ( 'NONE', #82, #268, #834 ) ;
#679 = AXIS2_PLACEMENT_3D ( 'NONE', #411, #1237, #287 ) ;
#680 = EDGE_LOOP ( 'NONE', ( #706 ) ) ;
#681 = APPLICATION_CONTEXT ( 'automotive_design' ) ;
#682 = ORIENTED_EDGE ( 'NONE', *, *, #1204, .T. ) ;
#683 = DIRECTION ( 'NONE',  ( -0.000000000000000000, -0.000000000000000000, 1.000000000000000000 ) ) ;
#684 = CARTESIAN_POINT ( 'NONE',  ( 19.15593673919302375, 0.000000000000000000, 10.00000000000000000 ) ) ;
#685 = CARTESIAN_POINT ( 'NONE',  ( 19.15593673919302375, 18.72937550720463662, 10.00000000000000000 ) ) ;
#686 = EDGE_LOOP ( 'NONE', ( #141 ) ) ;
#687 = CARTESIAN_POINT ( 'NONE',  ( 17.78335373716253187, 0.2293755072046432808, 9.500000000000003553 ) ) ;
#688 = EDGE_LOOP ( 'NONE', ( #493, #214, #100, #232 ) ) ;
#689 = LINE ( 'NONE', #589, #523 ) ;
#690 = FACE_OUTER_BOUND ( 'NONE', #1093, .T. ) ;
#691 = EDGE_CURVE ( 'NONE', #1059, #573, #162, .T. ) ;
#692 = ORIENTED_EDGE ( 'NONE', *, *, #997, .F. ) ;
#693 = CARTESIAN_POINT ( 'NONE',  ( -15.09406326080697980, 16.22937550720462951, 9.500000000000015987 ) ) ;
#694 = ORIENTED_EDGE ( 'NONE', *, *, #350, .F. ) ;
#695 = LINE ( 'NONE', #519, #1090 ) ;
#696 = LINE ( 'NONE', #515, #1188 ) ;
#697 = CIRCLE ( 'NONE', #280, 1.750000000000008438 ) ;
#698 = ORIENTED_EDGE ( 'NONE', *, *, #452, .T. ) ;
#699 = VECTOR ( 'NONE', #562, 1000.000000000000114 ) ;
#700 = EDGE_CURVE ( 'NONE', #30, #30, #873, .T. ) ;
#701 = EDGE_LOOP ( 'NONE', ( #1177, #1122, #743, #454 ) ) ;
#702 = DIRECTION ( 'NONE',  ( 0.000000000000000000, 0.000000000000000000, 1.000000000000000000 ) ) ;
#703 = LINE ( 'NONE', #239, #255 ) ;
#704 = ORIENTED_EDGE ( 'NONE', *, *, #584, .T. ) ;
#705 = ADVANCED_FACE ( 'NONE', ( #172 ), #1209, .T. ) ;
#706 = ORIENTED_EDGE ( 'NONE', *, *, #1125, .T. ) ;
#707 = FACE_OUTER_BOUND ( 'NONE', #934, .T. ) ;
#708 = CARTESIAN_POINT ( 'NONE',  ( -15.34406326080698157, -23.27062449279532075, 9.500000000000000000 ) ) ;
#709 = CARTESIAN_POINT ( 'NONE',  ( -19.84406326080698335, 18.72937550720463662, 10.00000000000000000 ) ) ;
#710 = EDGE_LOOP ( 'NONE', ( #36, #644, #57, #1183 ) ) ;
#711 = EDGE_CURVE ( 'NONE', #837, #459, #742, .T. ) ;
#712 = DIRECTION ( 'NONE',  ( -1.000000000000000000, 0.000000000000000000, 0.000000000000000000 ) ) ;
#713 = DIRECTION ( 'NONE',  ( 1.000000000000000000, 0.000000000000000000, 0.000000000000000000 ) ) ;
#714 = CONICAL_SURFACE ( 'NONE', #651, 1.749999999999994671, 0.7853981633974457255 ) ;
#715 = CIRCLE ( 'NONE', #500, 1.749999999999987566 ) ;
#716 = VECTOR ( 'NONE', #1224, 999.9999999999998863 ) ;
#717 = EDGE_LOOP ( 'NONE', ( #404, #118, #966, #826 ) ) ;
#718 = DIRECTION ( 'NONE',  ( -1.000000000000000000, 0.000000000000000000, 0.000000000000000000 ) ) ;
#719 = CARTESIAN_POINT ( 'NONE',  ( -0.000000000000000000, -22.77062449279532075, 0.000000000000000000 ) ) ;
#720 = AXIS2_PLACEMENT_3D ( 'NONE', #907, #883, #250 ) ;
#721 = VERTEX_POINT ( 'NONE', #78 ) ;
#722 = DIRECTION ( 'NONE',  ( 1.000000000000000000, 0.000000000000000000, 0.000000000000000000 ) ) ;
#723 = CARTESIAN_POINT ( 'NONE',  ( -19.84406326080698335, 0.000000000000000000, 10.00000000000000000 ) ) ;
#724 = ADVANCED_FACE ( 'NONE', ( #829, #1112 ), #152, .F. ) ;
#725 = ORIENTED_EDGE ( 'NONE', *, *, #474, .F. ) ;
#726 = DIRECTION ( 'NONE',  ( 1.000000000000000000, 0.000000000000000000, 0.000000000000000000 ) ) ;
#727 = CARTESIAN_POINT ( 'NONE',  ( -19.84406326080698335, -18.27062449279532075, 0.000000000000000000 ) ) ;
#728 = EDGE_LOOP ( 'NONE', ( #670, #682, #558, #395 ) ) ;
#729 = VECTOR ( 'NONE', #868, 1000.000000000000114 ) ;
#730 = ORIENTED_EDGE ( 'NONE', *, *, #648, .F. ) ;
#731 = VECTOR ( 'NONE', #683, 1000.000000000000000 ) ;
#732 = AXIS2_PLACEMENT_3D ( 'NONE', #260, #637, #741 ) ;
#733 = CYLINDRICAL_SURFACE ( 'NONE', #678, 1.249999999999999334 ) ;
#734 = CIRCLE ( 'NONE', #942, 1.749999999999994671 ) ;
#735 = COLOUR_RGB ( '',0.7921568627450980005, 0.8196078431372548767, 0.9333333333333333481 ) ;
#736 = SURFACE_STYLE_FILL_AREA ( #932 ) ;
#737 = ORIENTED_EDGE ( 'NONE', *, *, #254, .F. ) ;
#738 = DIRECTION ( 'NONE',  ( -0.000000000000000000, 0.000000000000000000, 1.000000000000000000 ) ) ;
#739 = MANIFOLD_SOLID_BREP ( 'Chamfer1', #261 ) ;
#740 = EDGE_CURVE ( 'NONE', #548, #837, #638, .T. ) ;
#741 = DIRECTION ( 'NONE',  ( -1.000000000000000000, 0.000000000000000000, 0.000000000000000000 ) ) ;
#742 = LINE ( 'NONE', #926, #1024 ) ;
#743 = ORIENTED_EDGE ( 'NONE', *, *, #354, .F. ) ;
#744 = DIRECTION ( 'NONE',  ( 0.7071067811865425767, 0.000000000000000000, -0.7071067811865525687 ) ) ;
#745 = DIRECTION ( 'NONE',  ( 0.000000000000000000, 0.000000000000000000, 1.000000000000000000 ) ) ;
#746 = LINE ( 'NONE', #305, #281 ) ;
#747 = ADVANCED_FACE ( 'NONE', ( #862 ), #677, .T. ) ;
#748 = DIRECTION ( 'NONE',  ( 1.000000000000000000, 0.000000000000000000, 0.000000000000000000 ) ) ;
#749 = ORIENTED_EDGE ( 'NONE', *, *, #105, .F. ) ;
#750 = FACE_BOUND ( 'NONE', #495, .T. ) ;
#751 = CARTESIAN_POINT ( 'NONE',  ( 14.65593673919302020, 20.22937550720466149, 10.00000000000000000 ) ) ;
#752 = AXIS2_PLACEMENT_3D ( 'NONE', #623, #1011, #45 ) ;
#753 = CARTESIAN_POINT ( 'NONE',  ( -14.09406326080697802, -19.77062449279532075, 9.500000000000015987 ) ) ;
#755 = EDGE_LOOP ( 'NONE', ( #869, #319, #212, #432 ) ) ;
#754 = CONICAL_SURFACE ( 'NONE', #1064, 1.750000000000008438, 0.7853981633974405074 ) ;
#756 = AXIS2_PLACEMENT_3D ( 'NONE', #854, #1058, #871 ) ;
#757 = FACE_OUTER_BOUND ( 'NONE', #763, .T. ) ;
#758 = CARTESIAN_POINT ( 'NONE',  ( -16.34406326080697980, 16.22937550720462951, 0.000000000000000000 ) ) ;
#759 = ADVANCED_FACE ( 'NONE', ( #1078 ), #391, .F. ) ;
#760 = ORIENTED_EDGE ( 'NONE', *, *, #67, .F. ) ;
#761 = DIRECTION ( 'NONE',  ( 0.000000000000000000, 0.000000000000000000, 1.000000000000000000 ) ) ;
#762 = VERTEX_POINT ( 'NONE', #666 ) ;
#763 = EDGE_LOOP ( 'NONE', ( #104, #749, #324, #1160 ) ) ;
#764 = DIRECTION ( 'NONE',  ( 1.000000000000000000, 0.000000000000000000, 0.000000000000000000 ) ) ;
#765 = CARTESIAN_POINT ( 'NONE',  ( 14.65593673919302375, -22.77062449279532075, 10.00000000000000000 ) ) ;
#766 = ORIENTED_EDGE ( 'NONE', *, *, #600, .T. ) ;
#767 = EDGE_CURVE ( 'NONE', #437, #721, #1070, .T. ) ;
#768 = FACE_OUTER_BOUND ( 'NONE', #658, .T. ) ;
#769 = ORIENTED_EDGE ( 'NONE', *, *, #615, .F. ) ;
#770 = CARTESIAN_POINT ( 'NONE',  ( -20.34406326080698335, 18.72937550720463662, 0.5000000000000073275 ) ) ;
#771 = FACE_OUTER_BOUND ( 'NONE', #1171, .T. ) ;
#772 = ORIENTED_EDGE ( 'NONE', *, *, #711, .T. ) ;
#773 = ADVANCED_FACE ( 'NONE', ( #1147 ), #1154, .F. ) ;
#774 = DIRECTION ( 'NONE',  ( 1.000000000000000000, 0.000000000000000000, 0.000000000000000000 ) ) ;
#775 = EDGE_LOOP ( 'NONE', ( #59, #552, #605, #198 ) ) ;
#776 = AXIS2_PLACEMENT_3D ( 'NONE', #440, #616, #542 ) ;
#777 = DIRECTION ( 'NONE',  ( 0.000000000000000000, 0.7071067811865425767, -0.7071067811865525687 ) ) ;
#778 = CIRCLE ( 'NONE', #654, 5.000000000000000888 ) ;
#779 = EDGE_LOOP ( 'NONE', ( #760 ) ) ;
#780 = VERTEX_POINT ( 'NONE', #812 ) ;
#781 = VERTEX_POINT ( 'NONE', #770 ) ;
#782 = ADVANCED_FACE ( 'NONE', ( #113, #1046 ), #211, .F. ) ;
#783 = PLANE ( 'NONE',  #27 ) ;
#784 = DIRECTION ( 'NONE',  ( 1.000000000000000000, 0.000000000000000000, 0.000000000000000000 ) ) ;
#785 = FACE_BOUND ( 'NONE', #842, .T. ) ;
#786 = EDGE_LOOP ( 'NONE', ( #256 ) ) ;
#787 = DIRECTION ( 'NONE',  ( 1.000000000000000000, 0.000000000000000000, 0.000000000000000000 ) ) ;
#788 = VERTEX_POINT ( 'NONE', #693 ) ;
#789 = ORIENTED_EDGE ( 'NONE', *, *, #1094, .T. ) ;
#790 = FACE_BOUND ( 'NONE', #332, .T. ) ;
#791 = FACE_OUTER_BOUND ( 'NONE', #426, .T. ) ;
#792 = EDGE_CURVE ( 'NONE', #407, #407, #622, .T. ) ;
#793 = FACE_OUTER_BOUND ( 'NONE', #717, .T. ) ;
#794 = EDGE_LOOP ( 'NONE', ( #93 ) ) ;
#795 = ORIENTED_EDGE ( 'NONE', *, *, #584, .F. ) ;
#796 = FACE_OUTER_BOUND ( 'NONE', #673, .T. ) ;
#797 = CARTESIAN_POINT ( 'NONE',  ( 14.65593673919302375, 18.72937550720463662, 0.5000000000000073275 ) ) ;
#798 = CIRCLE ( 'NONE', #553, 4.500000000000000888 ) ;
#799 = CONICAL_SURFACE ( 'NONE', #819, 1.250000000000001110, 0.7853981633974514986 ) ;
#800 = AXIS2_PLACEMENT_3D ( 'NONE', #614, #1082, #603 ) ;
#801 = DIRECTION ( 'NONE',  ( -1.000000000000000000, 0.000000000000000000, -0.000000000000000000 ) ) ;
#802 = EDGE_LOOP ( 'NONE', ( #236, #789, #401, #598 ) ) ;
#803 = EDGE_CURVE ( 'NONE', #548, #861, #309, .T. ) ;
#804 = AXIS2_PLACEMENT_3D ( 'NONE', #551, #1137, #964 ) ;
#805 = CARTESIAN_POINT ( 'NONE',  ( 18.28335373716252832, 0.2293755072046432808, 0.000000000000000000 ) ) ;
#806 = ORIENTED_EDGE ( 'NONE', *, *, #267, .T. ) ;
#807 = CARTESIAN_POINT ( 'NONE',  ( -15.34406326080698157, 23.72937550720463662, 10.00000000000000000 ) ) ;
#808 = DIRECTION ( 'NONE',  ( 0.000000000000000000, -1.000000000000000000, 0.000000000000000000 ) ) ;
#809 = DIRECTION ( 'NONE',  ( 1.000000000000000000, 0.000000000000000000, 0.000000000000000000 ) ) ;
#810 = CARTESIAN_POINT ( 'NONE',  ( -15.34406326080698157, 23.22937550720463662, 0.000000000000000000 ) ) ;
#811 = ADVANCED_FACE ( 'NONE', ( #216, #590 ), #977, .F. ) ;
#812 = CARTESIAN_POINT ( 'NONE',  ( 18.28335373716253542, 0.2293755072046432808, 10.00000000000000000 ) ) ;
#813 = EDGE_LOOP ( 'NONE', ( #663 ) ) ;
#814 = CARTESIAN_POINT ( 'NONE',  ( 19.65593673919302375, 18.72937550720463662, 9.500000000000000000 ) ) ;
#815 = DIRECTION ( 'NONE',  ( 0.000000000000000000, -1.000000000000000000, 0.000000000000000000 ) ) ;
#816 = LINE ( 'NONE', #271, #405 ) ;
#817 = PLANE ( 'NONE',  #1073 ) ;
#818 = CONICAL_SURFACE ( 'NONE', #278, 1.250000000000001110, 0.7853981633974514986 ) ;
#819 = AXIS2_PLACEMENT_3D ( 'NONE', #560, #945, #937 ) ;
#820 = CONICAL_SURFACE ( 'NONE', #986, 4.500000000000000888, 0.7853981633974473908 ) ;
#821 = DIRECTION ( 'NONE',  ( 0.000000000000000000, -0.7071067811865474617, 0.7071067811865474617 ) ) ;
#822 = EDGE_CURVE ( 'NONE', #893, #568, #958, .T. ) ;
#823 = DIRECTION ( 'NONE',  ( 0.000000000000000000, -0.000000000000000000, -1.000000000000000000 ) ) ;
#824 = DIRECTION ( 'NONE',  ( 1.000000000000000000, 0.000000000000000000, 0.000000000000000000 ) ) ;
#825 = CARTESIAN_POINT ( 'NONE',  ( -19.84406326080698335, 0.000000000000000000, 0.000000000000000000 ) ) ;
#826 = ORIENTED_EDGE ( 'NONE', *, *, #546, .F. ) ;
#827 = ORIENTED_EDGE ( 'NONE', *, *, #490, .F. ) ;
#828 = CARTESIAN_POINT ( 'NONE',  ( -15.34406326080698157, -18.27062449279532075, 10.00000000000000000 ) ) ;
#829 = FACE_OUTER_BOUND ( 'NONE', #126, .T. ) ;
#830 = ORIENTED_EDGE ( 'NONE', *, *, #1158, .T. ) ;
#831 = AXIS2_PLACEMENT_3D ( 'NONE', #410, #1202, #1004 ) ;
#832 = EDGE_CURVE ( 'NONE', #135, #135, #204, .T. ) ;
#833 = CARTESIAN_POINT ( 'NONE',  ( -0.3440632608069787990, 0.2293755072046432808, 0.000000000000000000 ) ) ;
#834 = DIRECTION ( 'NONE',  ( 1.000000000000000000, 0.000000000000000000, 0.000000000000000000 ) ) ;
#835 = AXIS2_PLACEMENT_3D ( 'NONE', #609, #529, #422 ) ;
#836 = PLANE ( 'NONE',  #433 ) ;
#837 = VERTEX_POINT ( 'NONE', #293 ) ;
#838 = LINE ( 'NONE', #94, #226 ) ;
#839 = DIRECTION ( 'NONE',  ( 0.000000000000000000, -0.000000000000000000, -1.000000000000000000 ) ) ;
#840 = EDGE_CURVE ( 'NONE', #116, #544, #382, .T. ) ;
#841 = VERTEX_POINT ( 'NONE', #845 ) ;
#842 = EDGE_LOOP ( 'NONE', ( #1110 ) ) ;
#843 = FACE_BOUND ( 'NONE', #930, .T. ) ;
#844 = FACE_OUTER_BOUND ( 'NONE', #1086, .T. ) ;
#845 = CARTESIAN_POINT ( 'NONE',  ( -14.59406326080698513, -15.77062449279534384, 0.000000000000000000 ) ) ;
#846 = ADVANCED_FACE ( 'NONE', ( #481, #857 ), #895, .F. ) ;
#847 = CARTESIAN_POINT ( 'NONE',  ( 14.65593673919302020, 20.22937550720466149, 0.000000000000000000 ) ) ;
#848 = DIRECTION ( 'NONE',  ( 0.000000000000000000, 0.000000000000000000, -1.000000000000000000 ) ) ;
#849 = ORIENTED_EDGE ( 'NONE', *, *, #199, .T. ) ;
#850 = DIRECTION ( 'NONE',  ( -1.000000000000000000, 0.000000000000000000, 0.000000000000000000 ) ) ;
#851 = CARTESIAN_POINT ( 'NONE',  ( 15.65593673919302198, 16.22937550720462951, 0.000000000000000000 ) ) ;
#852 = AXIS2_PLACEMENT_3D ( 'NONE', #223, #989, #885 ) ;
#853 = DIRECTION ( 'NONE',  ( 1.000000000000000000, 0.000000000000000000, 0.000000000000000000 ) ) ;
#854 = CARTESIAN_POINT ( 'NONE',  ( 0.000000000000000000, 0.000000000000000000, 0.000000000000000000 ) ) ;
#856 = ORIENTED_EDGE ( 'NONE', *, *, #532, .T. ) ;
#855 = CONICAL_SURFACE ( 'NONE', #328, 1.249999999999999334, 0.7853981633974502774 ) ;
#857 = FACE_OUTER_BOUND ( 'NONE', #950, .T. ) ;
#858 = ADVANCED_FACE ( 'NONE', ( #999 ), #339, .T. ) ;
#859 = ORIENTED_EDGE ( 'NONE', *, *, #803, .T. ) ;
#860 = VERTEX_POINT ( 'NONE', #311 ) ;
#861 = VERTEX_POINT ( 'NONE', #814 ) ;
#862 = FACE_OUTER_BOUND ( 'NONE', #710, .T. ) ;
#863 = ADVANCED_BREP_SHAPE_REPRESENTATION ( 'ASV1_100_16C', ( #739, #756 ), #1144 ) ;
#864 = EDGE_LOOP ( 'NONE', ( #312 ) ) ;
#865 = DIRECTION ( 'NONE',  ( 0.7071067811865474617, 0.000000000000000000, -0.7071067811865474617 ) ) ;
#866 = FACE_OUTER_BOUND ( 'NONE', #377, .T. ) ;
#867 = ORIENTED_EDGE ( 'NONE', *, *, #1174, .F. ) ;
#868 = DIRECTION ( 'NONE',  ( 0.000000000000000000, -0.7071067811865474617, -0.7071067811865474617 ) ) ;
#869 = ORIENTED_EDGE ( 'NONE', *, *, #272, .T. ) ;
#870 = EDGE_CURVE ( 'NONE', #721, #298, #39, .T. ) ;
#871 = DIRECTION ( 'NONE',  ( 1.000000000000000000, 0.000000000000000000, 0.000000000000000000 ) ) ;
#872 = EDGE_LOOP ( 'NONE', ( #140 ) ) ;
#873 = CIRCLE ( 'NONE', #1069, 18.12741699796950812 ) ;
#874 = CARTESIAN_POINT ( 'NONE',  ( -19.84406326080698335, -18.27062449279532075, 10.00000000000000000 ) ) ;
#875 = CARTESIAN_POINT ( 'NONE',  ( -0.3440632608069787990, 0.2293755072046432808, 9.500000000000003553 ) ) ;
#876 = AXIS2_PLACEMENT_3D ( 'NONE', #194, #22, #853 ) ;
#877 = ORIENTED_EDGE ( 'NONE', *, *, #1117, .F. ) ;
#878 = EDGE_CURVE ( 'NONE', #1055, #389, #580, .T. ) ;
#879 = EDGE_LOOP ( 'NONE', ( #131 ) ) ;
#880 = DIRECTION ( 'NONE',  ( 1.000000000000000000, 0.000000000000000000, 0.000000000000000000 ) ) ;
#881 = DIRECTION ( 'NONE',  ( 0.000000000000000000, -0.000000000000000000, -1.000000000000000000 ) ) ;
#882 = CARTESIAN_POINT ( 'NONE',  ( -15.34406326080698157, -18.27062449279532075, 10.00000000000000000 ) ) ;
#883 = DIRECTION ( 'NONE',  ( 0.000000000000000000, 0.000000000000000000, -1.000000000000000000 ) ) ;
#884 = ORIENTED_EDGE ( 'NONE', *, *, #272, .F. ) ;
#885 = DIRECTION ( 'NONE',  ( 1.000000000000000000, 0.000000000000000000, 0.000000000000000000 ) ) ;
#886 = VERTEX_POINT ( 'NONE', #42 ) ;
#887 = ORIENTED_EDGE ( 'NONE', *, *, #740, .T. ) ;
#888 = DIRECTION ( 'NONE',  ( -1.000000000000000000, 0.000000000000000000, 0.000000000000000000 ) ) ;
#889 = CARTESIAN_POINT ( 'NONE',  ( -19.84406326080698335, 18.72937550720463662, 0.000000000000000000 ) ) ;
#890 = ADVANCED_FACE ( 'NONE', ( #791, #1106 ), #617, .F. ) ;
#891 = CARTESIAN_POINT ( 'NONE',  ( -15.34406326080698157, -22.77062449279532075, 10.00000000000000000 ) ) ;
#892 = ORIENTED_EDGE ( 'NONE', *, *, #671, .T. ) ;
#893 = VERTEX_POINT ( 'NONE', #889 ) ;
#894 = CARTESIAN_POINT ( 'NONE',  ( -0.3440632608069787990, 0.2293755072046432808, 0.000000000000000000 ) ) ;
#895 = CONICAL_SURFACE ( 'NONE', #1063, 1.750000000000008438, 0.7853981633974405074 ) ;
#896 = VECTOR ( 'NONE', #624, 1000.000000000000114 ) ;
#897 = CIRCLE ( 'NONE', #984, 5.000000000000000888 ) ;
#898 = CIRCLE ( 'NONE', #960, 5.000000000000000888 ) ;
#899 = CARTESIAN_POINT ( 'NONE',  ( -15.34406326080697802, -19.77062449279532075, 10.00000000000000000 ) ) ;
#900 = EDGE_CURVE ( 'NONE', #298, #544, #1164, .T. ) ;
#901 = VERTEX_POINT ( 'NONE', #1190 ) ;
#902 = AXIS2_PLACEMENT_3D ( 'NONE', #273, #632, #1015 ) ;
#903 = ORIENTED_EDGE ( 'NONE', *, *, #384, .F. ) ;
#904 = CYLINDRICAL_SURFACE ( 'NONE', #1040, 5.000000000000000888 ) ;
#905 = DIRECTION ( 'NONE',  ( 1.000000000000000000, 0.000000000000000000, 0.000000000000000000 ) ) ;
#906 = CIRCLE ( 'NONE', #922, 1.250000000000001110 ) ;
#907 = CARTESIAN_POINT ( 'NONE',  ( 14.65593673919302375, 18.72937550720463662, 10.00000000000000000 ) ) ;
#908 = AXIS2_PLACEMENT_3D ( 'NONE', #62, #221, #1198 ) ;
#909 = FACE_OUTER_BOUND ( 'NONE', #786, .T. ) ;
#910 = LINE ( 'NONE', #1092, #390 ) ;
#911 = ADVANCED_FACE ( 'NONE', ( #249, #1179 ), #248, .F. ) ;
#912 = DIRECTION ( 'NONE',  ( 1.000000000000000000, 0.000000000000000000, 0.000000000000000000 ) ) ;
#913 = LINE ( 'NONE', #941, #182 ) ;
#914 = AXIS2_PLACEMENT_3D ( 'NONE', #751, #839, #473 ) ;
#915 = CONICAL_SURFACE ( 'NONE', #1165, 1.250000000000001110, 0.7853981633974514986 ) ;
#916 = CIRCLE ( 'NONE', #1143, 1.749999999999994671 ) ;
#917 = PRODUCT_DEFINITION_FORMATION_WITH_SPECIFIED_SOURCE ( 'ANY', '', #79, .NOT_KNOWN. ) ;
#918 = FACE_OUTER_BOUND ( 'NONE', #206, .T. ) ;
#919 = ADVANCED_FACE ( 'NONE', ( #321, #330 ), #1222, .F. ) ;
#920 = CARTESIAN_POINT ( 'NONE',  ( 14.65593673919302375, 23.22937550720463662, 0.000000000000000000 ) ) ;
#921 = ORIENTED_EDGE ( 'NONE', *, *, #540, .T. ) ;
#922 = AXIS2_PLACEMENT_3D ( 'NONE', #340, #65, #1203 ) ;
#923 = DIRECTION ( 'NONE',  ( -0.000000000000000000, 0.000000000000000000, 1.000000000000000000 ) ) ;
#924 = EDGE_LOOP ( 'NONE', ( #1223 ) ) ;
#925 = CARTESIAN_POINT ( 'NONE',  ( 19.65593673919302375, 0.000000000000000000, 0.5000000000000073275 ) ) ;
#926 = CARTESIAN_POINT ( 'NONE',  ( 0.000000000000000000, 23.22937550720463662, 10.00000000000000000 ) ) ;
#927 = EDGE_CURVE ( 'NONE', #788, #788, #619, .T. ) ;
#928 = ORIENTED_EDGE ( 'NONE', *, *, #21, .F. ) ;
#929 = CARTESIAN_POINT ( 'NONE',  ( 19.65593673919302375, -18.27062449279532075, 0.5000000000000073275 ) ) ;
#930 = EDGE_LOOP ( 'NONE', ( #50 ) ) ;
#931 = CYLINDRICAL_SURFACE ( 'NONE', #732, 5.000000000000000888 ) ;
#932 = FILL_AREA_STYLE ('',( #1211 ) ) ;
#933 = EDGE_CURVE ( 'NONE', #1001, #408, #696, .T. ) ;
#934 = EDGE_LOOP ( 'NONE', ( #849, #1218, #1217, #1071 ) ) ;
#935 = DIRECTION ( 'NONE',  ( 1.000000000000000000, 0.000000000000000000, 0.000000000000000000 ) ) ;
#936 = AXIS2_PLACEMENT_3D ( 'NONE', #1215, #1228, #639 ) ;
#937 = DIRECTION ( 'NONE',  ( 1.000000000000000000, 0.000000000000000000, 0.000000000000000000 ) ) ;
#938 = AXIS2_PLACEMENT_3D ( 'NONE', #851, #761, #337 ) ;
#939 = CONICAL_SURFACE ( 'NONE', #1006, 4.500000000000000888, 0.7853981633974405074 ) ;
#940 = DIRECTION ( 'NONE',  ( 0.000000000000000000, 0.000000000000000000, -1.000000000000000000 ) ) ;
#941 = CARTESIAN_POINT ( 'NONE',  ( 19.15593673919302375, 18.72937550720463662, 10.00000000000000000 ) ) ;
#942 = AXIS2_PLACEMENT_3D ( 'NONE', #316, #40, #713 ) ;
#943 = EDGE_LOOP ( 'NONE', ( #1233 ) ) ;
#944 = CARTESIAN_POINT ( 'NONE',  ( -15.34406326080697802, -19.77062449279532075, 0.000000000000000000 ) ) ;
#945 = DIRECTION ( 'NONE',  ( 0.000000000000000000, 0.000000000000000000, 1.000000000000000000 ) ) ;
#946 = EDGE_CURVE ( 'NONE', #780, #780, #343, .T. ) ;
#947 = CARTESIAN_POINT ( 'NONE',  ( -15.09406326080697980, -15.77062449279534384, 9.500000000000014211 ) ) ;
#948 = DIRECTION ( 'NONE',  ( 0.000000000000000000, 0.000000000000000000, 1.000000000000000000 ) ) ;
#949 = PLANE ( 'NONE',  #300 ) ;
#950 = EDGE_LOOP ( 'NONE', ( #66 ) ) ;
#951 = PLANE ( 'NONE',  #381 ) ;
#952 = EDGE_CURVE ( 'NONE', #1199, #1199, #577, .T. ) ;
#953 = CARTESIAN_POINT ( 'NONE',  ( 14.65593673919302375, -18.27062449279532075, 10.00000000000000000 ) ) ;
#954 = ORIENTED_EDGE ( 'NONE', *, *, #354, .T. ) ;
#955 = DIRECTION ( 'NONE',  ( 0.000000000000000000, -0.000000000000000000, -1.000000000000000000 ) ) ;
#956 = EDGE_LOOP ( 'NONE', ( #970 ) ) ;
#957 = CARTESIAN_POINT ( 'NONE',  ( 14.65593673919302375, -18.27062449279532075, 0.000000000000000000 ) ) ;
#958 = CIRCLE ( 'NONE', #147, 4.500000000000000888 ) ;
#959 = CIRCLE ( 'NONE', #575, 1.749999999999994671 ) ;
#960 = AXIS2_PLACEMENT_3D ( 'NONE', #171, #645, #71 ) ;
#961 = VERTEX_POINT ( 'NONE', #103 ) ;
#962 = ORIENTED_EDGE ( 'NONE', *, *, #325, .F. ) ;
#963 = VECTOR ( 'NONE', #576, 1000.000000000000114 ) ;
#964 = DIRECTION ( 'NONE',  ( 1.000000000000000000, 0.000000000000000000, 0.000000000000000000 ) ) ;
#965 = APPLICATION_PROTOCOL_DEFINITION ( 'draft international standard', 'automotive_design', 1998, #73 ) ;
#966 = ORIENTED_EDGE ( 'NONE', *, *, #532, .F. ) ;
#967 = CARTESIAN_POINT ( 'NONE',  ( 19.15593673919302375, -18.27062449279532075, 10.00000000000000000 ) ) ;
#968 = CARTESIAN_POINT ( 'NONE',  ( 15.90593673919302198, 20.22937550720466149, 9.500000000000017764 ) ) ;
#969 =( NAMED_UNIT ( * ) PLANE_ANGLE_UNIT ( ) SI_UNIT ( $, .RADIAN. ) );
#970 = ORIENTED_EDGE ( 'NONE', *, *, #21, .T. ) ;
#971 = DIRECTION ( 'NONE',  ( 0.000000000000000000, 1.000000000000000000, 0.000000000000000000 ) ) ;
#972 = ADVANCED_FACE ( 'NONE', ( #690 ), #1208, .T. ) ;
#973 = EDGE_LOOP ( 'NONE', ( #218 ) ) ;
#974 = CARTESIAN_POINT ( 'NONE',  ( 17.78335373716253187, 0.2293755072046432808, 0.5000000000000038858 ) ) ;
#975 = ORIENTED_EDGE ( 'NONE', *, *, #1230, .T. ) ;
#976 = FACE_OUTER_BOUND ( 'NONE', #366, .T. ) ;
#977 = CYLINDRICAL_SURFACE ( 'NONE', #264, 1.250000000000001110 ) ;
#978 = CARTESIAN_POINT ( 'NONE',  ( -16.34406326080697980, -15.77062449279534384, 9.500000000000014211 ) ) ;
#979 = EDGE_LOOP ( 'NONE', ( #892, #887, #772, #1123, #458, #477, #582, #766 ) ) ;
#980 = ADVANCED_FACE ( 'NONE', ( #142, #993 ), #915, .F. ) ;
#981 = EDGE_LOOP ( 'NONE', ( #593 ) ) ;
#982 = VECTOR ( 'NONE', #815, 1000.000000000000000 ) ;
#983 = AXIS2_PLACEMENT_3D ( 'NONE', #875, #1102, #314 ) ;
#984 = AXIS2_PLACEMENT_3D ( 'NONE', #373, #467, #935 ) ;
#985 = DIRECTION ( 'NONE',  ( 0.000000000000000000, 0.000000000000000000, -1.000000000000000000 ) ) ;
#986 = AXIS2_PLACEMENT_3D ( 'NONE', #953, #940, #1167 ) ;
#987 = PLANE ( 'NONE',  #361 ) ;
#988 = ORIENTED_EDGE ( 'NONE', *, *, #878, .T. ) ;
#989 = DIRECTION ( 'NONE',  ( 0.000000000000000000, 0.000000000000000000, 1.000000000000000000 ) ) ;
#990 = EDGE_LOOP ( 'NONE', ( #75 ) ) ;
#991 = AXIS2_PLACEMENT_3D ( 'NONE', #1192, #231, #47 ) ;
#992 = DIRECTION ( 'NONE',  ( 1.000000000000000000, 0.000000000000000000, 0.000000000000000000 ) ) ;
#993 = FACE_BOUND ( 'NONE', #943, .T. ) ;
#994 = CARTESIAN_POINT ( 'NONE',  ( -20.34406326080698335, -18.27062449279532075, 9.500000000000000000 ) ) ;
#995 = VERTEX_POINT ( 'NONE', #61 ) ;
#996 = EDGE_LOOP ( 'NONE', ( #518 ) ) ;
#997 = EDGE_CURVE ( 'NONE', #310, #80, #149, .T. ) ;
#998 = LINE ( 'NONE', #229, #358 ) ;
#999 = FACE_OUTER_BOUND ( 'NONE', #133, .T. ) ;
#1000 = DIRECTION ( 'NONE',  ( 0.000000000000000000, -0.7071067811865475727, -0.7071067811865475727 ) ) ;
#1001 = VERTEX_POINT ( 'NONE', #238 ) ;
#1002 = ORIENTED_EDGE ( 'NONE', *, *, #566, .F. ) ;
#1003 = DIRECTION ( 'NONE',  ( 0.000000000000000000, 1.000000000000000000, 0.000000000000000000 ) ) ;
#1004 = DIRECTION ( 'NONE',  ( 1.000000000000000000, 0.000000000000000000, 0.000000000000000000 ) ) ;
#1005 = AXIS2_PLACEMENT_3D ( 'NONE', #899, #56, #436 ) ;
#1006 = AXIS2_PLACEMENT_3D ( 'NONE', #352, #1018, #726 ) ;
#1007 = DIRECTION ( 'NONE',  ( -0.000000000000000000, 0.000000000000000000, 1.000000000000000000 ) ) ;
#1008 = CONICAL_SURFACE ( 'NONE', #679, 4.500000000000000888, 0.7853981633974405074 ) ;
#1009 = STYLED_ITEM ( 'NONE', ( #83 ), #739 ) ;
#1010 = ORIENTED_EDGE ( 'NONE', *, *, #933, .T. ) ;
#1011 = DIRECTION ( 'NONE',  ( -0.000000000000000000, -0.000000000000000000, -1.000000000000000000 ) ) ;
#1012 = FACE_OUTER_BOUND ( 'NONE', #1099, .T. ) ;
#1013 = EDGE_CURVE ( 'NONE', #318, #318, #85, .T. ) ;
#1014 = FACE_OUTER_BOUND ( 'NONE', #269, .T. ) ;
#1015 = DIRECTION ( 'NONE',  ( 1.000000000000000000, -0.000000000000000000, 0.000000000000000000 ) ) ;
#1016 = ADVANCED_FACE ( 'NONE', ( #1197 ), #336, .T. ) ;
#1017 = FACE_BOUND ( 'NONE', #1105, .T. ) ;
#1018 = DIRECTION ( 'NONE',  ( 0.000000000000000000, 0.000000000000000000, 1.000000000000000000 ) ) ;
#1019 = DIRECTION ( 'NONE',  ( 1.000000000000000000, 0.000000000000000000, 0.000000000000000000 ) ) ;
#1020 = CONICAL_SURFACE ( 'NONE', #1043, 1.749999999999994671, 0.7853981633974457255 ) ;
#1021 = CIRCLE ( 'NONE', #207, 4.500000000000000888 ) ;
#1022 = VECTOR ( 'NONE', #777, 999.9999999999998863 ) ;
#1023 = CARTESIAN_POINT ( 'NONE',  ( -15.34406326080698157, -18.27062449279532075, 10.00000000000000000 ) ) ;
#1024 = VECTOR ( 'NONE', #1038, 1000.000000000000000 ) ;
#1025 = ADVANCED_FACE ( 'NONE', ( #442 ), #939, .T. ) ;
#1026 = DIRECTION ( 'NONE',  ( 0.000000000000000000, 0.000000000000000000, 1.000000000000000000 ) ) ;
#1027 = DIRECTION ( 'NONE',  ( -0.7071067811865524577, -0.000000000000000000, -0.7071067811865425767 ) ) ;
#1028 = ORIENTED_EDGE ( 'NONE', *, *, #176, .T. ) ;
#1029 = LINE ( 'NONE', #108, #599 ) ;
#1030 = LINE ( 'NONE', #1119, #482 ) ;
#1031 = EDGE_CURVE ( 'NONE', #116, #510, #778, .T. ) ;
#1032 = FACE_OUTER_BOUND ( 'NONE', #122, .T. ) ;
#1033 = ORIENTED_EDGE ( 'NONE', *, *, #803, .F. ) ;
#1034 = FACE_OUTER_BOUND ( 'NONE', #210, .T. ) ;
#1035 = DIRECTION ( 'NONE',  ( 1.000000000000000000, 0.000000000000000000, 0.000000000000000000 ) ) ;
#1036 = DIRECTION ( 'NONE',  ( -0.000000000000000000, -0.000000000000000000, 1.000000000000000000 ) ) ;
#1037 = LINE ( 'NONE', #1153, #699 ) ;
#1038 = DIRECTION ( 'NONE',  ( -1.000000000000000000, 0.000000000000000000, 0.000000000000000000 ) ) ;
#1039 = VERTEX_POINT ( 'NONE', #165 ) ;
#1040 = AXIS2_PLACEMENT_3D ( 'NONE', #602, #438, #992 ) ;
#1041 = CIRCLE ( 'NONE', #936, 1.249999999999999334 ) ;
#1042 = DIRECTION ( 'NONE',  ( -1.000000000000000000, 0.000000000000000000, 0.000000000000000000 ) ) ;
#1043 = AXIS2_PLACEMENT_3D ( 'NONE', #1056, #275, #571 ) ;
#1044 = AXIS2_PLACEMENT_3D ( 'NONE', #509, #244, #784 ) ;
#1045 = CARTESIAN_POINT ( 'NONE',  ( 17.40593673919301665, -15.77062449279534384, 0.000000000000000000 ) ) ;
#1046 = FACE_OUTER_BOUND ( 'NONE', #259, .T. ) ;
#1047 = EDGE_LOOP ( 'NONE', ( #145 ) ) ;
#1048 = FACE_BOUND ( 'NONE', #956, .T. ) ;
#1049 = EDGE_CURVE ( 'NONE', #1168, #459, #816, .T. ) ;
#1050 = LINE ( 'NONE', #492, #504 ) ;
#1051 =( NAMED_UNIT ( * ) SI_UNIT ( $, .STERADIAN. ) SOLID_ANGLE_UNIT ( ) );
#1052 = ORIENTED_EDGE ( 'NONE', *, *, #1031, .T. ) ;
#1053 = CARTESIAN_POINT ( 'NONE',  ( 14.65593673919302375, -22.77062449279532075, 10.00000000000000000 ) ) ;
#1054 = DIRECTION ( 'NONE',  ( -0.000000000000000000, 0.000000000000000000, 1.000000000000000000 ) ) ;
#1055 = VERTEX_POINT ( 'NONE', #920 ) ;
#1056 = CARTESIAN_POINT ( 'NONE',  ( 15.65593673919302198, 16.22937550720462951, 0.000000000000000000 ) ) ;
#1057 = VERTEX_POINT ( 'NONE', #572 ) ;
#1058 = DIRECTION ( 'NONE',  ( 0.000000000000000000, 0.000000000000000000, 1.000000000000000000 ) ) ;
#1059 = VERTEX_POINT ( 'NONE', #541 ) ;
#1060 = DIRECTION ( 'NONE',  ( -0.000000000000000000, -0.000000000000000000, -1.000000000000000000 ) ) ;
#1061 = EDGE_LOOP ( 'NONE', ( #420 ) ) ;
#1062 = CARTESIAN_POINT ( 'NONE',  ( -15.34406326080697802, -19.77062449279532075, 0.000000000000000000 ) ) ;
#1063 = AXIS2_PLACEMENT_3D ( 'NONE', #668, #1060, #712 ) ;
#1064 = AXIS2_PLACEMENT_3D ( 'NONE', #944, #650, #850 ) ;
#1065 = VERTEX_POINT ( 'NONE', #209 ) ;
#1066 = ORIENTED_EDGE ( 'NONE', *, *, #574, .T. ) ;
#1067 = EDGE_CURVE ( 'NONE', #995, #861, #898, .T. ) ;
#1068 = DIRECTION ( 'NONE',  ( 0.000000000000000000, 0.7071067811865425767, 0.7071067811865525687 ) ) ;
#1069 = AXIS2_PLACEMENT_3D ( 'NONE', #371, #263, #538 ) ;
#1070 = LINE ( 'NONE', #1053, #729 ) ;
#1071 = ORIENTED_EDGE ( 'NONE', *, *, #1235, .T. ) ;
#1072 = DIRECTION ( 'NONE',  ( 1.000000000000000000, 0.000000000000000000, 0.000000000000000000 ) ) ;
#1073 = AXIS2_PLACEMENT_3D ( 'NONE', #144, #1000, #521 ) ;
#1074 = CARTESIAN_POINT ( 'NONE',  ( -14.59406326080699223, -15.77062449279534384, 10.00000000000000000 ) ) ;
#1075 = APPLICATION_PROTOCOL_DEFINITION ( 'draft international standard', 'automotive_design', 1998, #681 ) ;
#1076 = EDGE_LOOP ( 'NONE', ( #1176 ) ) ;
#1077 = CARTESIAN_POINT ( 'NONE',  ( 14.65593673919302020, 20.22937550720466149, 0.000000000000000000 ) ) ;
#1078 = FACE_OUTER_BOUND ( 'NONE', #1095, .T. ) ;
#1079 = EDGE_CURVE ( 'NONE', #1039, #408, #109, .T. ) ;
#1080 = ORIENTED_EDGE ( 'NONE', *, *, #997, .T. ) ;
#1081 = EDGE_LOOP ( 'NONE', ( #921 ) ) ;
#1082 = DIRECTION ( 'NONE',  ( 0.000000000000000000, 0.000000000000000000, 1.000000000000000000 ) ) ;
#1083 = LINE ( 'NONE', #153, #982 ) ;
#1084 = ORIENTED_EDGE ( 'NONE', *, *, #134, .F. ) ;
#1085 = EDGE_CURVE ( 'NONE', #573, #579, #1021, .T. ) ;
#1086 = EDGE_LOOP ( 'NONE', ( #195 ) ) ;
#1087 = CIRCLE ( 'NONE', #676, 4.500000000000000888 ) ;
#1088 = AXIS2_PLACEMENT_3D ( 'NONE', #77, #348, #1126 ) ;
#1089 = FACE_OUTER_BOUND ( 'NONE', #317, .T. ) ;
#1090 = VECTOR ( 'NONE', #44, 999.9999999999998863 ) ;
#1091 = DIRECTION ( 'NONE',  ( 0.000000000000000000, 0.000000000000000000, -1.000000000000000000 ) ) ;
#1092 = CARTESIAN_POINT ( 'NONE',  ( 14.65593673919302375, 23.22937550720463662, 0.000000000000000000 ) ) ;
#1093 = EDGE_LOOP ( 'NONE', ( #222, #692, #903, #357 ) ) ;
#1094 = EDGE_CURVE ( 'NONE', #901, #1168, #429, .T. ) ;
#1095 = EDGE_LOOP ( 'NONE', ( #621, #698, #1010, #1 ) ) ;
#1096 = DIRECTION ( 'NONE',  ( 0.7071067811865475727, 0.000000000000000000, 0.7071067811865475727 ) ) ;
#1097 = DIRECTION ( 'NONE',  ( 1.000000000000000000, 0.000000000000000000, 0.000000000000000000 ) ) ;
#1098 = LINE ( 'NONE', #516, #170 ) ;
#1099 = EDGE_LOOP ( 'NONE', ( #806, #485, #1133, #867 ) ) ;
#1100 = EDGE_LOOP ( 'NONE', ( #372 ) ) ;
#1101 = FACE_OUTER_BOUND ( 'NONE', #219, .T. ) ;
#1102 = DIRECTION ( 'NONE',  ( 0.000000000000000000, 0.000000000000000000, 1.000000000000000000 ) ) ;
#1103 = CARTESIAN_POINT ( 'NONE',  ( -15.34406326080698157, -22.77062449279532075, 0.000000000000000000 ) ) ;
#1104 = FACE_OUTER_BOUND ( 'NONE', #334, .T. ) ;
#1105 = EDGE_LOOP ( 'NONE', ( #1201 ) ) ;
#1106 = FACE_BOUND ( 'NONE', #1156, .T. ) ;
#1107 = AXIS2_PLACEMENT_3D ( 'NONE', #456, #349, #353 ) ;
#1108 = EDGE_CURVE ( 'NONE', #408, #310, #64, .T. ) ;
#1109 = AXIS2_PLACEMENT_3D ( 'NONE', #1115, #461, #257 ) ;
#1110 = ORIENTED_EDGE ( 'NONE', *, *, #832, .T. ) ;
#1111 = DIRECTION ( 'NONE',  ( 0.000000000000000000, 1.000000000000000000, 0.000000000000000000 ) ) ;
#1112 = FACE_BOUND ( 'NONE', #649, .T. ) ;
#1113 = ADVANCED_FACE ( 'NONE', ( #370 ), #550, .T. ) ;
#1114 = LINE ( 'NONE', #163, #503 ) ;
#1115 = CARTESIAN_POINT ( 'NONE',  ( 14.65593673919302375, -18.27062449279532075, 0.5000000000000073275 ) ) ;
#1116 = SURFACE_SIDE_STYLE ('',( #736 ) ) ;
#1117 = EDGE_CURVE ( 'NONE', #893, #781, #1030, .T. ) ;
#1118 = DIRECTION ( 'NONE',  ( 1.000000000000000000, 0.000000000000000000, 0.000000000000000000 ) ) ;
#1119 = CARTESIAN_POINT ( 'NONE',  ( -19.84406326080698335, 18.72937550720463662, 0.000000000000000000 ) ) ;
#1120 = CARTESIAN_POINT ( 'NONE',  ( 15.65593673919302198, 16.22937550720462951, 10.00000000000000000 ) ) ;
#1121 = AXIS2_PLACEMENT_3D ( 'NONE', #450, #68, #455 ) ;
#1122 = ORIENTED_EDGE ( 'NONE', *, *, #625, .F. ) ;
#1123 = ORIENTED_EDGE ( 'NONE', *, *, #648, .T. ) ;
#1124 = VECTOR ( 'NONE', #106, 1000.000000000000000 ) ;
#1125 = EDGE_CURVE ( 'NONE', #121, #121, #363, .T. ) ;
#1126 = DIRECTION ( 'NONE',  ( 1.000000000000000000, 0.000000000000000000, 0.000000000000000000 ) ) ;
#1127 = SURFACE_STYLE_USAGE ( .BOTH. , #1116 ) ;
#1128 = ORIENTED_EDGE ( 'NONE', *, *, #767, .F. ) ;
#1129 = CIRCLE ( 'NONE', #908, 1.249999999999999334 ) ;
#1130 = ADVANCED_FACE ( 'NONE', ( #252 ), #931, .T. ) ;
#1131 = CARTESIAN_POINT ( 'NONE',  ( -15.34406326080698157, 23.72937550720463662, 0.5000000000000073275 ) ) ;
#1132 = DIRECTION ( 'NONE',  ( -1.000000000000000000, 0.000000000000000000, 0.000000000000000000 ) ) ;
#1133 = ORIENTED_EDGE ( 'NONE', *, *, #480, .F. ) ;
#1134 = LINE ( 'NONE', #87, #362 ) ;
#1135 = LINE ( 'NONE', #276, #618 ) ;
#1136 = CARTESIAN_POINT ( 'NONE',  ( 17.40593673919301665, 16.22937550720462951, 0.000000000000000000 ) ) ;
#1137 = DIRECTION ( 'NONE',  ( -0.000000000000000000, 0.000000000000000000, 1.000000000000000000 ) ) ;
#1138 = EDGE_CURVE ( 'NONE', #43, #781, #29, .T. ) ;
#1139 = EDGE_LOOP ( 'NONE', ( #795 ) ) ;
#1140 = LINE ( 'NONE', #13, #445 ) ;
#1141 = VECTOR ( 'NONE', #1178, 1000.000000000000000 ) ;
#1142 = AXIS2_PLACEMENT_3D ( 'NONE', #595, #985, #530 ) ;
#1143 = AXIS2_PLACEMENT_3D ( 'NONE', #1213, #351, #1118 ) ;
#1144 =( GEOMETRIC_REPRESENTATION_CONTEXT ( 3 ) GLOBAL_UNCERTAINTY_ASSIGNED_CONTEXT ( ( #374 ) ) GLOBAL_UNIT_ASSIGNED_CONTEXT ( ( #380, #969, #1051 ) ) REPRESENTATION_CONTEXT ( 'NONE', 'WORKASPACE' ) );
#1145 = CARTESIAN_POINT ( 'NONE',  ( -20.34406326080698335, 0.000000000000000000, 9.500000000000000000 ) ) ;
#1146 = CARTESIAN_POINT ( 'NONE',  ( 19.65593673919302375, 0.000000000000000000, 0.5000000000000073275 ) ) ;
#1147 = FACE_OUTER_BOUND ( 'NONE', #701, .T. ) ;
#1148 = ADVANCED_FACE ( 'NONE', ( #1014, #627 ), #733, .F. ) ;
#1149 = ORIENTED_EDGE ( 'NONE', *, *, #350, .T. ) ;
#1150 = FACE_OUTER_BOUND ( 'NONE', #779, .T. ) ;
#1151 = VERTEX_POINT ( 'NONE', #1045 ) ;
#1152 = ORIENTED_EDGE ( 'NONE', *, *, #67, .T. ) ;
#1153 = CARTESIAN_POINT ( 'NONE',  ( -15.34406326080698157, -22.77062449279532075, 10.00000000000000000 ) ) ;
#1154 = PLANE ( 'NONE',  #341 ) ;
#1155 = FACE_OUTER_BOUND ( 'NONE', #979, .T. ) ;
#1156 = EDGE_LOOP ( 'NONE', ( #86 ) ) ;
#1157 = LINE ( 'NONE', #929, #716 ) ;
#1158 = EDGE_CURVE ( 'NONE', #80, #43, #1227, .T. ) ;
#1159 = CARTESIAN_POINT ( 'NONE',  ( 16.40593673919300954, 20.22937550720466149, 10.00000000000000000 ) ) ;
#1160 = ORIENTED_EDGE ( 'NONE', *, *, #1108, .F. ) ;
#1161 = DIRECTION ( 'NONE',  ( 0.000000000000000000, 0.000000000000000000, 1.000000000000000000 ) ) ;
#1162 = ORIENTED_EDGE ( 'NONE', *, *, #927, .F. ) ;
#1163 = DIRECTION ( 'NONE',  ( 0.000000000000000000, -0.000000000000000000, -1.000000000000000000 ) ) ;
#1164 = CIRCLE ( 'NONE', #1142, 5.000000000000000888 ) ;
#1165 = AXIS2_PLACEMENT_3D ( 'NONE', #423, #520, #905 ) ;
#1166 = ADVANCED_FACE ( 'NONE', ( #161, #909 ), #463, .F. ) ;
#1167 = DIRECTION ( 'NONE',  ( -1.000000000000000000, 0.000000000000000000, 0.000000000000000000 ) ) ;
#1168 = VERTEX_POINT ( 'NONE', #297 ) ;
#1169 = CARTESIAN_POINT ( 'NONE',  ( -20.34406326080698335, 0.000000000000000000, 9.500000000000000000 ) ) ;
#1170 = ORIENTED_EDGE ( 'NONE', *, *, #457, .T. ) ;
#1171 = EDGE_LOOP ( 'NONE', ( #283 ) ) ;
#1172 = CARTESIAN_POINT ( 'NONE',  ( -15.34406326080698157, 18.72937550720463662, 10.00000000000000000 ) ) ;
#1173 = CARTESIAN_POINT ( 'NONE',  ( -16.34406326080697980, -15.77062449279534384, 10.00000000000000000 ) ) ;
#1174 = EDGE_CURVE ( 'NONE', #568, #1055, #117, .T. ) ;
#1175 = FACE_BOUND ( 'NONE', #1076, .T. ) ;
#1176 = ORIENTED_EDGE ( 'NONE', *, *, #665, .T. ) ;
#1177 = ORIENTED_EDGE ( 'NONE', *, *, #11, .T. ) ;
#1178 = DIRECTION ( 'NONE',  ( 0.000000000000000000, 1.000000000000000000, 0.000000000000000000 ) ) ;
#1179 = FACE_OUTER_BOUND ( 'NONE', #338, .T. ) ;
#1180 = SHAPE_DEFINITION_REPRESENTATION ( #234, #863 ) ;
#1181 = CARTESIAN_POINT ( 'NONE',  ( 19.15593673919302375, -18.27062449279532075, 0.000000000000000000 ) ) ;
#1182 = EDGE_CURVE ( 'NONE', #511, #511, #303, .T. ) ;
#1183 = ORIENTED_EDGE ( 'NONE', *, *, #1079, .T. ) ;
#1184 = CARTESIAN_POINT ( 'NONE',  ( -15.34406326080697802, -19.77062449279532075, 0.5000000000000166533 ) ) ;
#1185 = AXIS2_PLACEMENT_3D ( 'NONE', #424, #1007, #245 ) ;
#1186 = ORIENTED_EDGE ( 'NONE', *, *, #235, .F. ) ;
#1187 = CIRCLE ( 'NONE', #634, 1.249999999999999334 ) ;
#1188 = VECTOR ( 'NONE', #1091, 1000.000000000000000 ) ;
#1189 = AXIS2_PLACEMENT_3D ( 'NONE', #20, #1163, #1072 ) ;
#1190 = CARTESIAN_POINT ( 'NONE',  ( -20.34406326080698335, 18.72937550720463662, 9.500000000000000000 ) ) ;
#1191 =( GEOMETRIC_REPRESENTATION_CONTEXT ( 3 ) GLOBAL_UNCERTAINTY_ASSIGNED_CONTEXT ( ( #1194 ) ) GLOBAL_UNIT_ASSIGNED_CONTEXT ( ( #299, #1236, #655 ) ) REPRESENTATION_CONTEXT ( 'NONE', 'WORKASPACE' ) );
#1192 = CARTESIAN_POINT ( 'NONE',  ( 15.65593673919302198, 16.22937550720462951, 0.000000000000000000 ) ) ;
#1193 = ORIENTED_EDGE ( 'NONE', *, *, #1067, .T. ) ;
#1194 = UNCERTAINTY_MEASURE_WITH_UNIT (LENGTH_MEASURE( 1.000000000000000082E-05 ), #299, 'distance_accuracy_value', 'NONE');
#1195 = ORIENTED_EDGE ( 'NONE', *, *, #11, .F. ) ;
#1196 = CARTESIAN_POINT ( 'NONE',  ( -19.84406326080698335, 18.72937550720463662, 0.000000000000000000 ) ) ;
#1197 = FACE_OUTER_BOUND ( 'NONE', #728, .T. ) ;
#1198 = DIRECTION ( 'NONE',  ( 1.000000000000000000, 0.000000000000000000, 0.000000000000000000 ) ) ;
#1199 = VERTEX_POINT ( 'NONE', #1074 ) ;
#1200 = EDGE_CURVE ( 'NONE', #901, #781, #1050, .T. ) ;
#1201 = ORIENTED_EDGE ( 'NONE', *, *, #700, .F. ) ;
#1202 = DIRECTION ( 'NONE',  ( 0.000000000000000000, -0.000000000000000000, -1.000000000000000000 ) ) ;
#1203 = DIRECTION ( 'NONE',  ( 1.000000000000000000, 0.000000000000000000, 0.000000000000000000 ) ) ;
#1204 = EDGE_CURVE ( 'NONE', #544, #901, #394, .T. ) ;
#1205 = CARTESIAN_POINT ( 'NONE',  ( 15.65593673919302198, -15.77062449279534384, 0.000000000000000000 ) ) ;
#1206 = VECTOR ( 'NONE', #661, 1000.000000000000000 ) ;
#1207 = AXIS2_PLACEMENT_3D ( 'NONE', #833, #1225, #368 ) ;
#1208 = CONICAL_SURFACE ( 'NONE', #800, 4.500000000000000888, 0.7853981633974405074 ) ;
#1209 = PLANE ( 'NONE',  #528 ) ;
#1210 = DIRECTION ( 'NONE',  ( -0.7071067811865425767, 0.000000000000000000, 0.7071067811865525687 ) ) ;
#1211 = FILL_AREA_STYLE_COLOUR ( '', #735 ) ;
#1212 = ADVANCED_FACE ( 'NONE', ( #866, #1231 ), #561, .F. ) ;
#1213 = CARTESIAN_POINT ( 'NONE',  ( 15.65593673919302198, -15.77062449279534384, 0.000000000000000000 ) ) ;
#1214 = DIRECTION ( 'NONE',  ( 0.000000000000000000, -0.000000000000000000, 1.000000000000000000 ) ) ;
#1215 = CARTESIAN_POINT ( 'NONE',  ( -16.34406326080697980, -15.77062449279534384, 0.5000000000000029976 ) ) ;
#1216 = ADVANCED_FACE ( 'NONE', ( #768 ), #820, .T. ) ;
#1217 = ORIENTED_EDGE ( 'NONE', *, *, #159, .T. ) ;
#1218 = ORIENTED_EDGE ( 'NONE', *, *, #870, .T. ) ;
#1219 = CARTESIAN_POINT ( 'NONE',  ( -15.34406326080698157, 18.72937550720463662, 0.5000000000000073275 ) ) ;
#1220 = CARTESIAN_POINT ( 'NONE',  ( -16.34406326080697980, 16.22937550720462951, 9.500000000000015987 ) ) ;
#1221 = VECTOR ( 'NONE', #499, 1000.000000000000000 ) ;
#1222 = CONICAL_SURFACE ( 'NONE', #983, 18.12741699796950812, 0.7853981633974552734 ) ;
#1223 = ORIENTED_EDGE ( 'NONE', *, *, #1182, .F. ) ;
#1224 = DIRECTION ( 'NONE',  ( -0.7071067811865425767, 0.000000000000000000, -0.7071067811865525687 ) ) ;
#1225 = DIRECTION ( 'NONE',  ( -0.000000000000000000, -0.000000000000000000, -1.000000000000000000 ) ) ;
#1226 = PRESENTATION_LAYER_ASSIGNMENT (  '', '', ( #1009 ) ) ;
#1227 = LINE ( 'NONE', #1131, #525 ) ;
#1228 = DIRECTION ( 'NONE',  ( -0.000000000000000000, -0.000000000000000000, -1.000000000000000000 ) ) ;
#1229 = ORIENTED_EDGE ( 'NONE', *, *, #242, .F. ) ;
#1230 = EDGE_CURVE ( 'NONE', #886, #886, #130, .T. ) ;
#1231 = FACE_OUTER_BOUND ( 'NONE', #302, .T. ) ;
#1232 = CARTESIAN_POINT ( 'NONE',  ( 15.65593673919302198, -15.77062449279534384, 10.00000000000000000 ) ) ;
#1233 = ORIENTED_EDGE ( 'NONE', *, *, #224, .F. ) ;
#1234 = VERTEX_POINT ( 'NONE', #91 ) ;
#1235 = EDGE_CURVE ( 'NONE', #510, #1039, #746, .T. ) ;
#1236 =( NAMED_UNIT ( * ) PLANE_ANGLE_UNIT ( ) SI_UNIT ( $, .RADIAN. ) );
#1237 = DIRECTION ( 'NONE',  ( 0.000000000000000000, 0.000000000000000000, 1.000000000000000000 ) ) ;
ENDSEC;
END-ISO-10303-21;
